<svg width="400" height="550" viewBox="0 0 400 550" fill="none" xmlns="http://www.w3.org/2000/svg">
<g clip-path="url(#clip0_1577_2321)">
<rect x="20" y="330" width="360" height="170" rx="10" fill="white"/>
<path d="M2.5 20.2206C2.5 9.83061 10.6143 1.5 20.5122 1.5H21.3339H22.1542H22.9731H23.7907H24.6069H25.4218H26.2353H27.0475H27.8583H28.6678H29.476H30.2829H31.0884H31.8926H32.6956H33.4972H34.2975H35.0966H35.8943H36.6908H37.486H38.28H39.0727H39.8641H40.6543H41.4432H42.2309H43.0173H43.8026H44.5866H45.3694H46.1509H46.9313H47.7105H48.4884H49.2652H50.0408H50.8152H51.5884H52.3605H53.1314H53.9011H54.6697H55.4372H56.2034H56.9686H57.7326H58.4955H59.2573H60.018H60.7775H61.536H62.2933H63.0496H63.8047H64.5588H65.3118H66.0638H66.8146H67.5644H68.3132H69.0609H69.8075H70.5531H71.2977H72.0413H72.7838H73.5253H74.2658H75.0053H75.7437H76.4812H77.2177H77.9532H78.6878H79.4213H80.1539H80.8855H81.6162H82.3459H83.0746H83.8024H84.5293H85.2553H85.9803H86.7044H87.4276H88.1498H88.8712H89.5917H90.3112H91.0299H91.7477H92.4646H93.1807H93.8959H94.6102H95.3236H96.0363H96.748H97.4589H98.169H98.8783H99.5867H100.294H101.001H101.707H102.412H103.117H103.82H104.523H105.225H105.926H106.627H107.327H108.026H108.724H109.421H110.118H110.814H111.509H112.204H112.898H113.591H114.283H114.975H115.666H116.356H117.046H117.735H118.423H119.11H119.797H120.484H121.169H121.854H122.538H123.222H123.905H124.587H125.269H125.95H126.631H127.311H127.99H128.669H129.347H130.024H130.701H131.378H132.053H132.729H133.403H134.078H134.751H135.424H136.097H136.769H137.44H138.111H138.781H139.451H140.121H140.79H141.458H142.126H142.793H143.46H144.127H144.793H145.458H146.123H146.788H147.452H148.116H148.779H149.442H150.105H150.767H151.428H152.089H152.75H153.411H154.071H154.73H155.39H156.048H156.707H157.365H158.023H158.68H159.337H159.994H160.651H161.307H161.962H162.618H163.273H163.928H164.582H165.236H165.89H166.544H167.197H167.85H168.503H169.156H169.808H170.46H171.112H171.763H172.414H173.065H173.716H174.367H175.017H175.667H176.317H176.967H177.616H178.266H178.915H179.564H180.213H180.861H181.51H182.158H182.806H183.454H184.102H184.75H185.397H186.045H186.692H187.339H187.986H188.633H189.28H189.927H190.574H191.22H191.867H192.513H193.16H193.806H194.452H195.099H195.745H196.391H197.037H197.683H198.329H198.975H199.621H200.267H200.913H201.559H202.205H202.851H203.497H204.144H204.79H205.436H206.082H206.728H207.375H208.021H208.667H209.314H209.96H210.607H211.254H211.9H212.547H213.194H213.841H214.489H215.136H215.783H216.431H217.079H217.727H218.375H219.023H219.671H220.319H220.968H221.617H222.266H222.915H223.564H224.214H224.863H225.513H226.163H226.814H227.464H228.115H228.766H229.417H230.069H230.721H231.373H232.025H232.677H233.33H233.983H234.637H235.29H235.944H236.598H237.253H237.907H238.563H239.218H239.874H240.53H241.186H241.843H242.5H243.157H243.815H244.473H245.132H245.791H246.45H247.11H247.77H248.43H249.091H249.752H250.414H251.076H251.738H252.401H253.064H253.728H254.392H255.057H255.722H256.387H257.053H257.72H258.387H259.054H259.722H260.391H261.059H261.729H262.399H263.069H263.74H264.411H265.083H265.756H266.429H267.102H267.777H268.451H269.127H269.802H270.479H271.156H271.833H272.511H273.19H273.869H274.549H275.23H275.911H276.592H277.275H277.958H278.641H279.326H280.011H280.696H281.382H282.069H282.757H283.445H284.134H284.824H285.514H286.205H286.896H287.589H288.282H288.976H289.67H290.365H291.061H291.758H292.456H293.154H293.853H294.552H295.253H295.954H296.656H297.359H298.063H298.767H299.472H300.178H300.885H301.593H302.301H303.01H303.72H304.431H305.143H305.856H306.569H307.283H307.998H308.715H309.431H310.149H310.868H311.587H312.308H313.029H313.751H314.475H315.199H315.924H316.65H317.376H318.104H318.833H319.563H320.293H321.025H321.758H322.491H323.226H323.961H324.698H325.435H326.173H326.913H327.653H328.395H329.137H329.881H330.625H331.371H332.118H332.865H333.614H334.364H335.115H335.867H336.62H337.374H338.129H338.885H339.642H340.401H341.16H341.921H342.683H343.446H344.21H344.975H345.741H346.508H347.277H348.047H348.818H349.59H350.363H351.137H351.913H352.689H353.467H354.247H355.027H355.808H356.591H357.375H358.16H358.947H359.734H360.523H361.314H362.105H362.898H363.692H364.487H365.283H366.081H366.88H367.68H368.482H369.285H370.089H370.894H371.701H372.509H373.319H374.13H374.942H375.755H376.57H377.386H378.204H379.023H379.843H380.665H381.488C391.386 1.5 399.5 9.83062 399.5 20.2206V529.779C399.5 540.169 391.386 548.5 381.488 548.5H20.5122C10.6143 548.5 2.5 540.169 2.5 529.779V20.2206ZM30 58.5C26.6591 58.5 23.7585 59.6202 21.6893 61.6893C19.6202 63.7585 18.5 66.6591 18.5 70V300.5C18.5 303.901 19.7827 306.672 21.9347 308.577C24.0643 310.462 26.9383 311.408 30 311.408H200H370.5C373.779 311.408 376.575 310.472 378.553 308.522C380.534 306.569 381.5 303.791 381.5 300.5V69.8778C381.5 66.5352 380.378 63.6598 378.301 61.6189C376.227 59.581 373.328 58.5 370 58.5H30ZM381.5 355.5C381.5 352.159 380.38 349.259 378.311 347.189C376.241 345.12 373.341 344 370 344C351.255 344 307.135 343.791 264.758 343.583C259.826 343.558 254.918 343.534 250.077 343.51C213.32 343.328 180.387 343.165 170 343.165C167.906 343.165 166.016 342.379 164.141 341.067C162.242 339.737 160.463 337.945 158.566 336.028L158.515 335.976C156.676 334.117 154.722 332.141 152.579 330.641C150.391 329.109 147.906 328 145 328H144.737H144.473H144.208H143.943H143.677H143.411H143.144H142.877H142.609H142.34H142.071H141.802H141.532H141.261H140.99H140.719H140.447H140.174H139.901H139.627H139.353H139.079H138.804H138.528H138.252H137.976H137.699H137.422H137.144H136.865H136.587H136.308H136.028H135.748H135.467H135.186H134.905H134.623H134.341H134.059H133.776H133.492H133.208H132.924H132.64H132.355H132.069H131.784H131.497H131.211H130.924H130.637H130.349H130.062H129.773H129.485H129.196H128.907H128.617H128.327H128.037H127.746H127.456H127.164H126.873H126.581H126.289H125.997H125.704H125.411H125.118H124.825H124.531H124.237H123.943H123.648H123.353H123.058H122.763H122.468H122.172H121.876H121.58H121.283H120.987H120.69H120.393H120.095H119.798H119.5H119.202H118.904H118.606H118.308H118.009H117.71H117.411H117.112H116.813H116.514H116.214H115.914H115.615H115.315H115.014H114.714H114.414H114.113H113.813H113.512H113.211H112.91H112.609H112.308H112.007H111.706H111.404H111.103H110.801H110.5H110.198H109.896H109.594H109.293H108.991H108.689H108.387H108.085H107.783H107.481H107.179H106.876H106.574H106.272H105.97H105.668H105.366H105.064H104.761H104.459H104.157H103.855H103.553H103.251H102.949H102.647H102.345H102.044H101.742H101.44H101.139H100.837H100.535H100.234H99.9326H99.6314H99.3302H99.0291H98.7281H98.4272H98.1264H97.8257H97.5252H97.2247H96.9244H96.6242H96.3241H96.0242H95.7244H95.4247H95.1252H94.8259H94.5267H94.2277H93.9288H93.6301H93.3316H93.0332H92.735H92.437H92.1393H91.8417H91.5443H91.2471H90.9501H90.6533H90.3567H90.0604H89.7643H89.4684H89.1727H88.8773H88.5821H88.2872H87.9925H87.6981H87.4039H87.11H86.8164H86.523H86.2299H85.9371H85.6446H85.3523H85.0604H84.7687H84.4774H84.1863H83.8956H83.6052H83.3151H83.0253H82.7358H82.4467H82.1579H81.8695H81.5814H81.2936H81.0062H80.7192H80.4325H80.1461H79.8602H79.5746H79.2894H79.0046H78.7201H78.4361H78.1525H77.8692H77.5863H77.3039H77.0219H76.7403H76.4591H76.1783H75.898H75.6181H75.3386H75.0596H74.781H74.5028H74.2252H73.9479H73.6712H73.3949H73.1191H72.8437H72.5689H72.2945H72.0206H71.7472H71.4743H71.2019H70.93H70.6586H70.3878H70.1174H69.8476H69.5783H69.3095H69.0413H68.7736H68.5064H68.2398H67.9738H67.7083H67.4433H67.179H66.9152H66.6519H66.3893H66.1272H65.8657H65.6049H65.3446H65.0849H64.8258H64.5673H64.3094H64.0522H63.7955H63.5395H63.2841H63.0294H62.7753H62.5218H62.269H62.0168H61.7653H61.5144H61.2642H61.0147H60.7658H60.5176H60.2701H60.0233H59.7772H59.5317H59.287H59.043H58.7996H58.557H58.3151H58.0739H57.8334H57.5937H57.3547H57.1164H56.8789H56.6421H56.406H56.1707H55.9362H55.7024H55.4694H55.2372H55.0057H54.775H54.5451H54.316H54.0877H53.8602H53.6334H53.4075H53.1824H52.9581H52.7346H52.5119H52.2901H52.069H51.8489H51.6295H51.411H51.1933H50.9765H50.7606H50.5455H50.3312H50.1179H49.9054H49.6938H49.483H49.2732H49.0642H48.8561H48.649H48.4427H48.2373H48.0329H47.8293H47.6267H47.425H47.2242H47.0244H46.8255H46.6275H46.4305H46.2344H46.0393H45.8451H45.6519H45.4597H45.2684H45.0781H44.8888H44.7005H44.5131H44.3268H44.1414H43.9571H43.7737H43.5913H43.41H43.2297H43.0504H42.8721H42.6949H42.5187H42.3435H42.1693H41.9963H41.8242H41.6532H41.4833H41.3145H41.1467H40.9799H40.8143H40.6497H40.4863H40.3239H40.1626H40.0024H39.8433H39.6853H39.5284H39.3726H39.218H39.0645H38.9121H38.7608H38.6107H38.4617H38.3138H38.1671H38.0216H37.8772H37.734H37.5919H37.451H37.3113H37.1728H37.0354H36.8993H36.7643H36.6305H36.4979H36.3665H36.2364H36.1074H35.9797H35.8531H35.7278H35.6038H35.4809H35.3594H35.239H35.1199H35.002H34.8854H34.7701H34.656H34.5432H34.4317H34.3214H34.2124H34.1047H33.9983H33.8932H33.7894H33.6869H33.5857H33.4858H33.3872H33.2899H33.194H33.0994H33.0061H32.9142H32.8235H32.7343H32.6464H32.5598H32.4746H32.3908H32.3083H32.2272H32.1475H32.0691H31.9921H31.9166H31.8424H31.7696H31.6982H31.6282H31.5596H31.4924H31.4267H31.3623H31.2994H31.238H31.1779H31.1193H31.0621H31.0064H30.9522H30.8993H30.848H30.7981H30.7497H30.7027H30.6573H30.6133H30.5708H30.5298H30.4902H30.4522H30.4157H30.3807H30.3472H30.3152H30.2847H30.2557H30.2283H30.2024H30.1781H30.1553H30.134H30.1143H30.0961H30.0795H30.0645H30.051H30.0391H30.0287H30.02H30.0128H30.0072H30.0032H30.0008C30.0003 328 30 328 30 329.5V328C23.6547 328 18.5 333.082 18.5 339.5V339.536V339.575V339.617V339.661V339.708V339.757V339.809V339.863V339.919V339.979V340.04V340.104V340.171V340.24V340.311V340.385V340.461V340.54V340.621V340.705V340.791V340.879V340.969V341.062V341.157V341.255V341.355V341.457V341.561V341.668V341.777V341.888V342.002V342.118V342.236V342.356V342.478V342.603V342.73V342.859V342.99V343.123V343.259V343.397V343.536V343.678V343.822V343.968V344.117V344.267V344.419V344.574V344.73V344.889V345.049V345.212V345.376V345.543V345.712V345.882V346.055V346.229V346.406V346.584V346.764V346.947V347.131V347.317V347.505V347.694V347.886V348.08V348.275V348.472V348.671V348.872V349.075V349.28V349.486V349.694V349.904V350.115V350.329V350.544V350.761V350.979V351.199V351.421V351.645V351.87V352.097V352.326V352.556V352.788V353.022V353.257V353.494V353.732V353.972V354.214V354.457V354.702V354.948V355.196V355.445V355.696V355.948V356.202V356.457V356.714V356.972V357.232V357.493V357.756V358.02V358.286V358.552V358.821V359.09V359.361V359.634V359.908V360.183V360.459V360.737V361.016V361.296V361.578V361.861V362.145V362.431V362.718V363.006V363.295V363.586V363.877V364.17V364.464V364.76V365.056V365.354V365.653V365.953V366.254V366.556V366.859V367.164V367.469V367.776V368.083V368.392V368.702V369.013V369.325V369.638V369.952V370.267V370.583V370.9V371.218V371.536V371.856V372.177V372.499V372.821V373.145V373.469V373.795V374.121V374.448V374.776V375.105V375.435V375.765V376.096V376.429V376.762V377.095V377.43V377.765V378.101V378.438V378.776V379.114V379.453V379.793V380.133V380.474V380.816V381.159V381.502V381.846V382.19V382.535V382.881V383.227V383.574V383.922V384.27V384.619V384.968V385.318V385.668V386.019V386.37V386.722V387.075V387.428V387.781V388.135V388.489V388.844V389.199V389.555V389.911V390.267V390.624V390.982V391.339V391.697V392.056V392.415V392.774V393.133V393.493V393.853V394.213V394.574V394.935V395.296V395.658V396.019V396.381V396.743V397.106V397.468V397.831V398.194V398.558V398.921V399.284V399.648V400.012V400.376V400.74V401.104V401.469V401.833V402.197V402.562V402.926V403.291V403.656V404.021V404.385V404.75V405.115V405.479V405.844V406.209V406.574V406.938V407.303V407.667V408.031V408.396V408.76V409.124V409.488V409.852V410.216V410.579V410.942V411.306V411.669V412.032V412.394V412.757V413.119V413.481V413.842V414.204V414.565V414.926V415.287V415.647V416.007V416.367V416.726V417.085V417.444V417.803V418.161V418.518V418.876V419.233V419.589V419.945V420.301V420.656V421.011V421.365V421.719V422.072V422.425V422.778V423.13V423.481V423.832V424.182V424.532V424.881V425.23V425.578V425.926V426.273V426.619V426.965V427.31V427.654V427.998V428.341V428.684V429.026V429.367V429.707V430.047V430.386V430.724V431.062V431.399V431.735V432.07V432.405V432.738V433.071V433.404V433.735V434.065V434.395V434.724V435.052V435.379V435.705V436.031V436.355V436.679V437.001V437.323V437.644V437.964V438.282V438.6V438.917V439.233V439.548V439.862V440.175V440.487V440.798V441.108V441.417V441.724V442.031V442.336V442.641V442.944V443.246V443.547V443.847V444.146V444.444V444.74V445.036V445.33V445.623V445.914V446.205V446.494V446.782V447.069V447.355V447.639V447.922V448.204V448.484V448.763V449.041V449.317V449.592V449.866V450.139V450.41V450.679V450.948V451.214V451.48V451.744V452.007V452.268V452.528V452.786V453.043V453.298V453.552V453.804V454.055V454.304V454.552V454.798V455.043V455.286V455.528V455.768V456.006V456.243V456.478V456.712V456.944V457.174V457.403V457.63V457.855V458.079V458.301V458.521V458.739V458.956V459.171V459.385V459.596V459.806V460.014V460.22V460.425V460.628V460.829V461.028V461.225V461.42V461.614V461.806V461.995V462.183V462.369V462.553V462.736V462.916V463.094V463.271V463.445V463.618V463.788V463.957V464.124V464.288V464.451V464.611V464.77V464.926V465.081V465.233V465.383V465.532V465.678V465.822V465.964V466.103V466.241V466.377V466.51V466.641V466.77V466.897V467.022V467.144V467.264V467.382V467.498V467.612V467.723V467.832V467.939V468.043V468.145V468.245V468.343V468.438V468.531V468.621V468.709V468.795V468.879V468.96V469.039V469.115V469.189V469.26V469.329V469.396V469.46V469.521V469.581V469.637V469.691V469.743V469.792V469.839V469.883V469.925V469.964V470C18.5 473.259 19.6259 476.151 21.6824 478.235C23.7419 480.321 26.6399 481.5 30 481.5H230C231.549 481.5 233.297 482.236 235.298 483.587C237.282 484.926 239.315 486.728 241.45 488.619L241.455 488.623C243.553 490.482 245.752 492.429 247.952 493.903C250.138 495.366 252.521 496.5 255 496.5H370C373.341 496.5 376.241 495.38 378.311 493.311C380.38 491.241 381.5 488.341 381.5 485V355.5Z" fill="#FBD974" stroke="#2A2A2A" stroke-width="3"/>
<mask id="path-4-inside-1_1577_2321" fill="white">
<path fill-rule="evenodd" clip-rule="evenodd" d="M108 53C108 51.8954 107.105 51 106 51H44.0045C42.3229 51 41.392 52.9491 42.4489 54.2571L59.0035 74.7429C59.5961 75.4762 59.5961 76.5238 59.0035 77.2571L42.4489 97.7429C41.392 99.0509 42.3229 101 44.0045 101H106C107.105 101 108 100.105 108 99V53Z"/>
</mask>
<path fill-rule="evenodd" clip-rule="evenodd" d="M108 53C108 51.8954 107.105 51 106 51H44.0045C42.3229 51 41.392 52.9491 42.4489 54.2571L59.0035 74.7429C59.5961 75.4762 59.5961 76.5238 59.0035 77.2571L42.4489 97.7429C41.392 99.0509 42.3229 101 44.0045 101H106C107.105 101 108 100.105 108 99V53Z" fill="white"/>
<path d="M42.4489 97.7429L44.0045 99L42.4489 97.7429ZM59.0035 74.7429L57.4479 76L59.0035 74.7429ZM59.0035 77.2571L57.4479 76L59.0035 77.2571ZM44.0045 53H106V49H44.0045V53ZM40.8934 55.5141L57.4479 76L60.5591 73.4859L44.0045 53L40.8934 55.5141ZM57.4479 76L40.8934 96.4859L44.0045 99L60.5591 78.5141L57.4479 76ZM106 99H44.0045V103H106V99ZM106 53V99H110V53H106ZM106 103C108.209 103 110 101.209 110 99H106L106 99V103ZM40.8934 96.4859C38.7795 99.1017 40.6413 103 44.0045 103V99L44.0045 99L40.8934 96.4859ZM57.4479 76L57.4479 76L60.5591 78.5141C61.7442 77.0475 61.7442 74.9525 60.5591 73.4859L57.4479 76ZM106 53L106 53H110C110 50.7909 108.209 49 106 49V53ZM44.0045 49C40.6413 49 38.7795 52.8983 40.8934 55.5141L44.0045 53L44.0045 53V49Z" fill="black" mask="url(#path-4-inside-1_1577_2321)"/>
<path d="M112 77.25H81.5L107.5 99.5L112 77.25Z" fill="black" stroke="black"/>
<mask id="path-7-inside-2_1577_2321" fill="white">
<path fill-rule="evenodd" clip-rule="evenodd" d="M292 53C292 51.8954 292.895 51 294 51H355.995C357.677 51 358.608 52.9491 357.551 54.2571L340.997 74.7429C340.404 75.4762 340.404 76.5238 340.997 77.2571L357.551 97.7429C358.608 99.0509 357.677 101 355.995 101H294C292.895 101 292 100.105 292 99V53Z"/>
</mask>
<path fill-rule="evenodd" clip-rule="evenodd" d="M292 53C292 51.8954 292.895 51 294 51H355.995C357.677 51 358.608 52.9491 357.551 54.2571L340.997 74.7429C340.404 75.4762 340.404 76.5238 340.997 77.2571L357.551 97.7429C358.608 99.0509 357.677 101 355.995 101H294C292.895 101 292 100.105 292 99V53Z" fill="white"/>
<path d="M357.551 97.7429L355.995 99L357.551 97.7429ZM340.997 74.7429L342.552 76L340.997 74.7429ZM340.997 77.2571L342.552 76L340.997 77.2571ZM355.995 53H294V49H355.995V53ZM359.107 55.5141L342.552 76L339.441 73.4859L355.995 53L359.107 55.5141ZM342.552 76L359.107 96.4859L355.995 99L339.441 78.5141L342.552 76ZM294 99H355.995V103H294V99ZM294 53V99H290V53H294ZM294 103C291.791 103 290 101.209 290 99H294L294 99V103ZM359.107 96.4859C361.221 99.1017 359.359 103 355.995 103V99L355.995 99L359.107 96.4859ZM342.552 76L342.552 76L339.441 78.5141C338.256 77.0475 338.256 74.9525 339.441 73.4859L342.552 76ZM294 53L294 53H290C290 50.7909 291.791 49 294 49V53ZM355.995 49C359.359 49 361.22 52.8983 359.107 55.5141L355.995 53L355.995 53V49Z" fill="black" mask="url(#path-7-inside-2_1577_2321)"/>
<path d="M288 77.25H318.5L292.5 99.5L288 77.25Z" fill="black" stroke="black"/>
<rect x="75.7721" y="19.25" width="247.5" height="57.5" rx="8.75" fill="white" stroke="black" stroke-width="2.5"/>
<path d="M285.368 527.36C285.24 527.36 285.128 527.317 285.032 527.232C284.947 527.157 284.904 527.051 284.904 526.912V524.208H282.024C281.885 524.208 281.773 524.165 281.688 524.08C281.603 523.984 281.56 523.872 281.56 523.744C281.56 523.627 281.603 523.525 281.688 523.44C281.773 523.344 281.885 523.296 282.024 523.296H284.904V521.904H284.648C283.837 521.904 283.261 521.755 282.92 521.456C282.579 521.147 282.408 520.587 282.408 519.776V518.752C282.408 517.941 282.579 517.387 282.92 517.088C283.261 516.779 283.837 516.624 284.648 516.624H284.904V515.28H282.12C281.981 515.28 281.869 515.237 281.784 515.152C281.709 515.056 281.672 514.949 281.672 514.832C281.672 514.715 281.709 514.613 281.784 514.528C281.869 514.432 281.981 514.384 282.12 514.384H284.904V512.976C284.904 512.837 284.947 512.731 285.032 512.656C285.128 512.571 285.24 512.528 285.368 512.528C285.485 512.528 285.592 512.571 285.688 512.656C285.784 512.731 285.832 512.837 285.832 512.976V514.384H288.488C288.627 514.384 288.733 514.432 288.808 514.528C288.893 514.613 288.936 514.715 288.936 514.832C288.936 514.949 288.893 515.056 288.808 515.152C288.733 515.237 288.627 515.28 288.488 515.28H285.832V516.624H286.088C286.909 516.624 287.485 516.779 287.816 517.088C288.157 517.387 288.328 517.941 288.328 518.752V519.776C288.328 520.587 288.157 521.147 287.816 521.456C287.485 521.755 286.909 521.904 286.088 521.904H285.832V523.296H288.584C288.723 523.296 288.835 523.344 288.92 523.44C289.005 523.525 289.048 523.627 289.048 523.744C289.048 523.872 289.005 523.984 288.92 524.08C288.835 524.165 288.723 524.208 288.584 524.208H285.832V526.912C285.832 527.051 285.784 527.157 285.688 527.232C285.592 527.317 285.485 527.36 285.368 527.36ZM295.656 527.12C294.643 526.437 293.832 525.653 293.224 524.768C292.616 523.872 292.179 522.907 291.912 521.872C291.645 522.907 291.213 523.867 290.616 524.752C290.019 525.627 289.203 526.411 288.168 527.104C288.051 527.179 287.923 527.216 287.784 527.216C287.645 527.216 287.528 527.147 287.432 527.008C287.357 526.901 287.331 526.784 287.352 526.656C287.384 526.539 287.453 526.448 287.56 526.384C288.829 525.595 289.789 524.581 290.44 523.344C291.091 522.096 291.416 520.667 291.416 519.056V517.68C291.416 517.531 291.464 517.413 291.56 517.328C291.656 517.243 291.768 517.2 291.896 517.2C292.024 517.2 292.136 517.243 292.232 517.328C292.328 517.413 292.376 517.531 292.376 517.68V519.056C292.376 520.741 292.728 522.197 293.432 523.424C294.147 524.64 295.085 525.6 296.248 526.304C296.365 526.379 296.44 526.48 296.472 526.608C296.515 526.736 296.493 526.864 296.408 526.992C296.323 527.12 296.205 527.195 296.056 527.216C295.917 527.237 295.784 527.205 295.656 527.12ZM293.544 520.112C293.416 520.059 293.331 519.973 293.288 519.856C293.245 519.739 293.251 519.627 293.304 519.52C293.453 519.232 293.624 518.923 293.816 518.592C294.008 518.251 294.163 517.952 294.28 517.696C294.579 517.035 294.36 516.704 293.624 516.704H290.632C290.451 517.131 290.253 517.552 290.04 517.968C289.837 518.384 289.613 518.779 289.368 519.152C289.293 519.269 289.187 519.344 289.048 519.376C288.92 519.408 288.792 519.387 288.664 519.312C288.547 519.248 288.472 519.152 288.44 519.024C288.408 518.885 288.429 518.763 288.504 518.656C288.845 518.176 289.16 517.611 289.448 516.96C289.747 516.309 290.008 515.643 290.232 514.96C290.467 514.267 290.637 513.627 290.744 513.04C290.776 512.891 290.851 512.784 290.968 512.72C291.096 512.645 291.229 512.629 291.368 512.672C291.507 512.704 291.608 512.773 291.672 512.88C291.736 512.987 291.752 513.109 291.72 513.248C291.635 513.643 291.528 514.053 291.4 514.48C291.272 514.907 291.133 515.339 290.984 515.776H293.848C294.605 515.776 295.101 515.968 295.336 516.352C295.571 516.725 295.555 517.2 295.288 517.776C295.149 518.085 294.973 518.427 294.76 518.8C294.557 519.173 294.365 519.536 294.184 519.888C294.131 519.995 294.045 520.075 293.928 520.128C293.811 520.171 293.683 520.165 293.544 520.112ZM285.832 521.056H286.072C286.605 521.056 286.963 520.971 287.144 520.8C287.325 520.629 287.416 520.288 287.416 519.776V519.648H285.832V521.056ZM285.832 518.88H287.416V518.752C287.416 518.24 287.325 517.899 287.144 517.728C286.963 517.557 286.605 517.472 286.072 517.472H285.832V518.88ZM283.32 518.88H284.904V517.472H284.664C284.141 517.472 283.784 517.557 283.592 517.728C283.411 517.899 283.32 518.24 283.32 518.752V518.88ZM284.664 521.056H284.904V519.648H283.32V519.776C283.32 520.288 283.411 520.629 283.592 520.8C283.784 520.971 284.141 521.056 284.664 521.056ZM304.776 527.264C304.637 527.264 304.52 527.221 304.424 527.136C304.339 527.051 304.296 526.939 304.296 526.8C304.285 526.672 304.323 526.56 304.408 526.464C304.493 526.379 304.6 526.331 304.728 526.32C305.101 526.309 305.379 526.272 305.56 526.208C305.752 526.155 305.88 526.053 305.944 525.904C306.019 525.744 306.056 525.509 306.056 525.2V523.648H303.208C303.016 524.896 302.611 525.995 301.992 526.944C301.917 527.051 301.805 527.12 301.656 527.152C301.517 527.195 301.389 527.179 301.272 527.104C301.165 527.04 301.096 526.944 301.064 526.816C301.032 526.688 301.053 526.571 301.128 526.464C301.437 526.037 301.688 525.584 301.88 525.104C302.072 524.613 302.211 524.059 302.296 523.44C302.392 522.811 302.44 522.08 302.44 521.248V519.728C302.44 519.205 302.504 518.805 302.632 518.528C302.76 518.24 302.989 518.043 303.32 517.936C303.651 517.819 304.115 517.76 304.712 517.76C305.32 517.76 305.784 517.819 306.104 517.936C306.435 518.043 306.664 518.24 306.792 518.528C306.92 518.805 306.984 519.205 306.984 519.728V525.328C306.984 526.021 306.829 526.517 306.52 526.816C306.221 527.115 305.64 527.264 304.776 527.264ZM311.432 527.2C311.293 527.2 311.171 527.157 311.064 527.072C310.968 526.987 310.915 526.869 310.904 526.72C310.904 526.571 310.947 526.448 311.032 526.352C311.128 526.267 311.245 526.224 311.384 526.224C311.821 526.213 312.157 526.176 312.392 526.112C312.627 526.059 312.803 525.931 312.92 525.728C313.037 525.525 313.133 525.211 313.208 524.784C313.272 524.379 313.325 523.888 313.368 523.312C313.411 522.736 313.443 522.171 313.464 521.616C313.485 521.051 313.4 520.677 313.208 520.496C313.027 520.304 312.669 520.208 312.136 520.208H311.192C311.171 521.275 311.053 522.224 310.84 523.056C310.637 523.877 310.328 524.613 309.912 525.264C309.507 525.915 308.979 526.512 308.328 527.056C308.221 527.152 308.093 527.2 307.944 527.2C307.805 527.2 307.683 527.147 307.576 527.04C307.491 526.955 307.448 526.843 307.448 526.704C307.459 526.576 307.512 526.475 307.608 526.4C308.216 525.92 308.707 525.392 309.08 524.816C309.453 524.229 309.731 523.563 309.912 522.816C310.104 522.059 310.211 521.189 310.232 520.208H308.04C307.901 520.208 307.789 520.165 307.704 520.08C307.629 519.984 307.592 519.877 307.592 519.76C307.592 519.643 307.629 519.541 307.704 519.456C307.789 519.36 307.901 519.312 308.04 519.312H310.248V517.52C310.248 517.371 310.291 517.253 310.376 517.168C310.472 517.083 310.584 517.04 310.712 517.04C310.851 517.04 310.963 517.083 311.048 517.168C311.144 517.253 311.192 517.371 311.192 517.52V519.312H312.168C313.021 519.312 313.619 519.483 313.96 519.824C314.301 520.155 314.456 520.752 314.424 521.616C314.403 522.203 314.371 522.795 314.328 523.392C314.285 523.989 314.227 524.512 314.152 524.96C314.067 525.536 313.933 525.984 313.752 526.304C313.571 526.635 313.299 526.864 312.936 526.992C312.573 527.131 312.072 527.2 311.432 527.2ZM312.344 517.392C312.205 517.435 312.072 517.429 311.944 517.376C311.816 517.323 311.725 517.227 311.672 517.088C311.597 516.864 311.491 516.581 311.352 516.24C311.224 515.899 311.107 515.611 311 515.376H309.64C309.459 515.707 309.261 516.027 309.048 516.336C308.845 516.645 308.627 516.939 308.392 517.216C308.307 517.323 308.2 517.387 308.072 517.408C307.944 517.429 307.821 517.397 307.704 517.312C307.597 517.237 307.539 517.141 307.528 517.024C307.517 516.896 307.549 516.784 307.624 516.688C308.115 516.101 308.531 515.483 308.872 514.832C309.213 514.171 309.485 513.52 309.688 512.88C309.731 512.741 309.811 512.645 309.928 512.592C310.045 512.528 310.173 512.523 310.312 512.576C310.451 512.619 310.547 512.699 310.6 512.816C310.653 512.933 310.653 513.051 310.6 513.168C310.461 513.595 310.291 514.032 310.088 514.48H314.824C314.963 514.48 315.069 514.523 315.144 514.608C315.229 514.693 315.272 514.8 315.272 514.928C315.272 515.045 315.229 515.152 315.144 515.248C315.069 515.333 314.963 515.376 314.824 515.376H312.056C312.163 515.6 312.269 515.84 312.376 516.096C312.493 516.352 312.584 516.565 312.648 516.736C312.701 516.875 312.701 517.008 312.648 517.136C312.595 517.253 312.493 517.339 312.344 517.392ZM301.24 517.408C301.133 517.323 301.075 517.221 301.064 517.104C301.053 516.976 301.091 516.864 301.176 516.768C301.699 516.203 302.179 515.563 302.616 514.848C303.064 514.123 303.405 513.435 303.64 512.784C303.693 512.645 303.779 512.555 303.896 512.512C304.024 512.459 304.152 512.459 304.28 512.512C304.429 512.555 304.525 512.64 304.568 512.768C304.611 512.885 304.605 513.008 304.552 513.136C304.456 513.371 304.355 513.6 304.248 513.824C304.152 514.048 304.045 514.267 303.928 514.48H307.816C307.944 514.48 308.051 514.523 308.136 514.608C308.221 514.693 308.264 514.8 308.264 514.928C308.264 515.045 308.221 515.152 308.136 515.248C308.051 515.333 307.944 515.376 307.816 515.376H305.416C305.523 515.6 305.629 515.84 305.736 516.096C305.853 516.352 305.944 516.565 306.008 516.736C306.061 516.875 306.061 517.008 306.008 517.136C305.965 517.253 305.869 517.339 305.72 517.392C305.571 517.435 305.432 517.429 305.304 517.376C305.176 517.323 305.085 517.227 305.032 517.088C304.957 516.864 304.851 516.581 304.712 516.24C304.584 515.899 304.472 515.611 304.376 515.376H303.416C303 516.027 302.515 516.677 301.96 517.328C301.864 517.435 301.747 517.499 301.608 517.52C301.48 517.541 301.357 517.504 301.24 517.408ZM303.304 522.8H306.056V521.168H303.368V521.248C303.368 521.515 303.363 521.781 303.352 522.048C303.341 522.304 303.325 522.555 303.304 522.8ZM303.368 520.32H306.056V519.76C306.056 519.44 306.024 519.205 305.96 519.056C305.896 518.896 305.768 518.789 305.576 518.736C305.395 518.683 305.107 518.656 304.712 518.656C304.328 518.656 304.04 518.683 303.848 518.736C303.656 518.789 303.528 518.896 303.464 519.056C303.4 519.205 303.368 519.44 303.368 519.76V520.32ZM320.728 526.384C320.589 526.384 320.472 526.336 320.376 526.24C320.28 526.155 320.232 526.043 320.232 525.904C320.232 525.765 320.28 525.648 320.376 525.552C320.472 525.456 320.589 525.408 320.728 525.408H327.128V521.664H322.936C322.797 521.664 322.68 521.616 322.584 521.52C322.499 521.424 322.456 521.312 322.456 521.184C322.456 521.045 322.499 520.928 322.584 520.832C322.68 520.736 322.797 520.688 322.936 520.688H327.128V517.328H323.128C322.616 518.213 322.056 519.024 321.448 519.76C321.341 519.877 321.208 519.957 321.048 520C320.899 520.032 320.76 519.995 320.632 519.888C320.515 519.803 320.445 519.685 320.424 519.536C320.413 519.387 320.456 519.259 320.552 519.152C320.968 518.683 321.379 518.139 321.784 517.52C322.189 516.891 322.557 516.235 322.888 515.552C323.229 514.869 323.501 514.219 323.704 513.6C323.757 513.451 323.848 513.344 323.976 513.28C324.104 513.216 324.237 513.211 324.376 513.264C324.525 513.307 324.627 513.392 324.68 513.52C324.744 513.637 324.749 513.771 324.696 513.92C324.557 514.347 324.397 514.763 324.216 515.168C324.045 515.573 323.859 515.973 323.656 516.368H327.128V513.216C327.128 513.056 327.176 512.928 327.272 512.832C327.379 512.736 327.507 512.688 327.656 512.688C327.805 512.688 327.928 512.736 328.024 512.832C328.131 512.928 328.184 513.056 328.184 513.216V516.368H333.352C333.491 516.368 333.603 516.416 333.688 516.512C333.784 516.608 333.832 516.72 333.832 516.848C333.832 516.987 333.784 517.104 333.688 517.2C333.603 517.285 333.491 517.328 333.352 517.328H328.184V520.688H332.312C332.451 520.688 332.568 520.736 332.664 520.832C332.76 520.928 332.808 521.045 332.808 521.184C332.808 521.312 332.76 521.424 332.664 521.52C332.568 521.616 332.451 521.664 332.312 521.664H328.184V525.408H334.072C334.2 525.408 334.312 525.456 334.408 525.552C334.504 525.648 334.552 525.765 334.552 525.904C334.552 526.043 334.504 526.155 334.408 526.24C334.312 526.336 334.2 526.384 334.072 526.384H320.728ZM349.272 527.104C349.123 527.104 348.995 527.061 348.888 526.976C348.792 526.901 348.733 526.784 348.712 526.624C348.701 526.475 348.744 526.352 348.84 526.256C348.936 526.16 349.059 526.107 349.208 526.096C349.827 526.075 350.301 526.021 350.632 525.936C350.963 525.84 351.203 525.669 351.352 525.424C351.512 525.168 351.629 524.8 351.704 524.32C351.779 523.861 351.853 523.317 351.928 522.688C352.003 522.059 352.072 521.392 352.136 520.688C352.2 519.984 352.243 519.301 352.264 518.64C352.285 518.139 352.211 517.765 352.04 517.52C351.869 517.275 351.587 517.12 351.192 517.056C351 518.496 350.675 519.776 350.216 520.896C349.768 522.016 349.165 523.013 348.408 523.888C347.661 524.752 346.733 525.531 345.624 526.224C345.507 526.299 345.373 526.325 345.224 526.304C345.075 526.293 344.963 526.229 344.888 526.112C344.813 525.984 344.792 525.861 344.824 525.744C344.856 525.616 344.936 525.515 345.064 525.44C346.483 524.619 347.635 523.525 348.52 522.16C349.405 520.784 349.997 519.067 350.296 517.008H349C348.701 518.448 348.232 519.691 347.592 520.736C346.963 521.771 346.125 522.693 345.08 523.504C344.973 523.589 344.851 523.627 344.712 523.616C344.573 523.605 344.461 523.547 344.376 523.44C344.291 523.333 344.253 523.221 344.264 523.104C344.285 522.976 344.349 522.875 344.456 522.8C345.384 522.149 346.157 521.323 346.776 520.32C347.395 519.307 347.837 518.203 348.104 517.008H346.84C346.627 517.456 346.392 517.893 346.136 518.32C345.891 518.736 345.629 519.131 345.352 519.504C345.277 519.611 345.176 519.685 345.048 519.728C344.92 519.76 344.803 519.739 344.696 519.664C344.589 519.6 344.52 519.509 344.488 519.392C344.456 519.275 344.477 519.163 344.552 519.056C344.925 518.544 345.277 517.968 345.608 517.328C345.949 516.677 346.248 515.995 346.504 515.28C346.771 514.565 346.979 513.856 347.128 513.152C347.16 513.013 347.229 512.912 347.336 512.848C347.453 512.784 347.581 512.768 347.72 512.8C347.859 512.821 347.96 512.885 348.024 512.992C348.088 513.099 348.109 513.216 348.088 513.344C347.896 514.272 347.613 515.189 347.24 516.096H350.616C351.565 516.096 352.243 516.272 352.648 516.624C353.064 516.976 353.251 517.643 353.208 518.624C353.187 519.307 353.149 520.005 353.096 520.72C353.043 521.424 352.979 522.101 352.904 522.752C352.84 523.392 352.765 523.957 352.68 524.448C352.573 525.131 352.408 525.659 352.184 526.032C351.96 526.416 351.619 526.688 351.16 526.848C350.701 527.008 350.072 527.093 349.272 527.104ZM342.888 527.312C342.749 527.312 342.632 527.264 342.536 527.168C342.44 527.072 342.392 526.955 342.392 526.816V521.904C341.901 522.085 341.432 522.261 340.984 522.432C340.547 522.592 340.2 522.715 339.944 522.8C339.805 522.843 339.667 522.832 339.528 522.768C339.4 522.704 339.309 522.597 339.256 522.448C339.213 522.299 339.224 522.165 339.288 522.048C339.352 521.92 339.459 521.835 339.608 521.792C339.928 521.696 340.339 521.563 340.84 521.392C341.352 521.211 341.869 521.029 342.392 520.848V517.28H340.84C340.744 517.653 340.637 518.016 340.52 518.368C340.413 518.709 340.301 519.035 340.184 519.344C340.141 519.483 340.061 519.584 339.944 519.648C339.827 519.701 339.699 519.707 339.56 519.664C339.443 519.632 339.352 519.563 339.288 519.456C339.224 519.339 339.219 519.216 339.272 519.088C339.517 518.469 339.747 517.765 339.96 516.976C340.173 516.176 340.307 515.381 340.36 514.592C340.381 514.453 340.44 514.347 340.536 514.272C340.632 514.187 340.744 514.155 340.872 514.176C341 514.187 341.107 514.24 341.192 514.336C341.277 514.421 341.315 514.539 341.304 514.688C341.251 515.264 341.171 515.808 341.064 516.32H342.392V513.024C342.392 512.875 342.44 512.757 342.536 512.672C342.632 512.576 342.749 512.528 342.888 512.528C343.027 512.528 343.139 512.576 343.224 512.672C343.32 512.757 343.368 512.875 343.368 513.024V516.32H344.712C344.851 516.32 344.963 516.368 345.048 516.464C345.133 516.56 345.176 516.672 345.176 516.8C345.176 516.928 345.133 517.04 345.048 517.136C344.963 517.232 344.851 517.28 344.712 517.28H343.368V520.496C343.645 520.4 343.901 520.309 344.136 520.224C344.371 520.128 344.568 520.053 344.728 520C344.856 519.947 344.973 519.947 345.08 520C345.187 520.043 345.261 520.123 345.304 520.24C345.357 520.357 345.363 520.475 345.32 520.592C345.288 520.709 345.203 520.795 345.064 520.848C344.883 520.923 344.643 521.024 344.344 521.152C344.045 521.269 343.72 521.392 343.368 521.52V526.816C343.368 526.955 343.32 527.072 343.224 527.168C343.139 527.264 343.027 527.312 342.888 527.312Z" fill="#2A2A2A"/>
</g>
<defs>
<clipPath id="clip0_1577_2321">
<rect width="400" height="550" rx="20" fill="white"/>
</clipPath>
</defs>
</svg>
