<svg width="268" height="160" viewBox="0 0 268 160" fill="none" xmlns="http://www.w3.org/2000/svg">
<g clip-path="url(#clip0_1617_1583)">
<path d="M56.8948 173.727V175.903H55.913C51.5131 175.903 47.107 175.814 42.7194 175.933C39.5008 176.022 36.276 176.362 33.0758 176.638C30.5813 176.853 28.0929 177.104 25.6107 177.417C23.9293 177.631 22.2755 178.054 20.594 178.253C18.2744 178.529 15.9456 178.707 13.6168 178.866C12.1901 178.97 12.187 178.934 12.0459 177.555C11.9354 176.313 11.8372 175.069 11.7145 173.831C11.6163 172.863 11.4475 171.901 11.377 170.932C11.0855 166.949 10.8492 162.993 10.5393 159.027C10.2673 155.554 9.96044 152.088 9.61884 148.63C9.18314 144.223 8.48051 139.835 8.278 135.419C7.7564 124.124 7.35752 112.813 8.43142 101.527C8.88552 96.6788 9.48076 91.8432 10.1098 87.0168C10.3 85.5642 10.7756 84.1454 11.2113 82.7266C11.3278 82.3405 11.7758 82.0585 12.0704 81.7276L12.3527 81.8716C12.6994 83.3272 13.2731 84.7675 13.356 86.2353C13.6525 91.4068 13.6239 96.5917 13.2701 101.76C12.9142 107.116 12.9633 112.485 12.8896 117.872C12.862 119.68 12.9786 121.491 13.0522 123.299C13.0829 124.01 13.4112 124.565 14.1783 124.629C14.9454 124.694 15.3381 124.191 15.5191 123.505C15.5647 123.315 15.5934 123.123 15.605 122.929C15.7462 120.872 15.8413 118.813 16.0315 116.763C16.3936 112.911 16.7679 109.059 17.2282 105.219C17.4307 103.519 17.8418 101.848 18.1916 100.157C18.3105 99.8507 18.4772 99.5652 18.6856 99.3111L18.9709 99.3908C19.0108 100.099 19.0292 100.807 19.0937 101.511C19.2409 103.2 19.244 104.922 19.6122 106.565C20.054 108.544 22.4289 109.323 24.0888 108.146C24.7971 107.615 25.658 107.327 26.5434 107.325C27.0176 107.302 27.4874 107.223 27.9426 107.089C31.0293 106.28 34.1129 105.449 37.2057 104.637C37.6045 104.559 37.9723 104.368 38.2651 104.086C38.5578 103.805 38.7632 103.445 38.8564 103.05C39.0006 102.51 39.0497 101.95 39.2062 101.416C39.5468 100.261 39.9303 99.1181 40.3445 97.8249C40.7587 98.1313 41.0594 98.2509 41.173 98.4684C41.8818 99.7152 42.519 101.001 43.0814 102.32C43.465 103.292 43.5447 104.377 43.8025 105.403C44.723 109.102 45.6833 112.795 46.6192 116.49C46.8094 117.244 46.9628 118.022 47.1592 118.764C47.3402 119.457 47.7728 119.938 48.5276 119.837C49.2824 119.735 49.6046 119.165 49.5739 118.454C49.5432 117.744 49.4266 117.075 49.3284 116.386C48.7976 112.669 48.0582 108.964 47.7759 105.229C47.4138 100.43 47.4384 95.6032 47.2574 90.7921C47.1622 88.2425 46.9291 85.696 46.8708 83.1495C46.8964 81.9328 47.0154 80.7198 47.2267 79.5212C47.2543 79.3006 47.5335 78.9696 47.7023 78.9512C47.871 78.9329 48.1993 79.1596 48.3803 79.3466C48.5161 79.5259 48.6037 79.7368 48.635 79.9594C48.9817 81.3629 49.3284 82.7664 49.6445 84.1761C50.0065 85.8063 50.3164 87.4488 50.6846 89.0791C51.3259 91.929 52.0009 94.7697 52.6544 97.6135C52.69 97.8335 52.7116 98.0556 52.7189 98.2784C52.9459 100.571 53.1853 102.875 53.3939 105.158C53.4798 106.099 53.5013 107.046 53.5443 107.993C53.667 110.855 53.7652 113.72 53.9094 116.573C54.1334 121.047 54.4617 125.518 54.6059 129.992C54.7593 134.895 54.7501 139.798 54.8206 144.701C54.8206 145.286 54.8974 145.869 54.9403 146.454C55.1398 149.169 55.4619 151.881 55.5172 154.599C55.6184 159.272 55.4742 163.952 56.6402 168.533C56.7055 168.917 56.7322 169.308 56.7199 169.697C56.7772 171.052 56.8355 172.395 56.8948 173.727ZM31.333 118.553C31.728 118.821 32.1377 119.068 32.5603 119.291C33.0083 119.493 33.4808 119.754 33.9503 119.751C34.1474 119.73 34.337 119.664 34.5042 119.558C34.6714 119.451 34.8116 119.308 34.9137 119.138C35.0518 118.831 34.9873 118.2 34.7603 118.01C33.6956 117.125 32.6125 116.208 31.1182 116.147C30.1026 116.107 29.2773 116.551 29.1423 117.455C28.9878 118.495 28.959 119.55 29.0564 120.596C29.0637 120.753 29.1049 120.906 29.1773 121.045C29.2496 121.184 29.3513 121.305 29.4753 121.401C29.5993 121.497 29.7426 121.565 29.8954 121.6C30.0483 121.635 30.2069 121.637 30.3604 121.605C31.0599 121.519 31.3207 121.01 31.3299 120.351C31.3361 119.821 31.333 119.303 31.333 118.553ZM39.6572 111.875C39.6516 111.722 39.6149 111.572 39.5493 111.434C39.4838 111.296 39.3908 111.172 39.276 111.071C39.1612 110.97 39.027 110.893 38.8816 110.846C38.7361 110.798 38.5824 110.78 38.4299 110.793C37.6138 110.812 36.9602 111.406 36.9725 112.096C36.9774 112.256 37.0148 112.413 37.0826 112.559C37.1504 112.704 37.2472 112.834 37.3669 112.941C37.4866 113.047 37.6268 113.128 37.779 113.179C37.9312 113.23 38.0921 113.249 38.252 113.236C38.6167 113.231 38.9657 113.086 39.2271 112.832C39.4884 112.578 39.6424 112.233 39.6572 111.869V111.875ZM20.6339 114.17C20.2834 114.178 19.9501 114.324 19.7056 114.575C19.4612 114.826 19.3251 115.162 19.3268 115.513C19.3132 115.834 19.4252 116.149 19.6394 116.389C19.8535 116.63 20.1529 116.778 20.4744 116.803C20.6399 116.81 20.8051 116.783 20.9601 116.725C21.1151 116.666 21.2566 116.577 21.3762 116.463C21.4957 116.348 21.5908 116.211 21.6557 116.058C21.7206 115.906 21.754 115.742 21.7539 115.577C21.7723 114.786 21.2936 114.186 20.6186 114.164L20.6339 114.17Z" fill="#FEFEFE"/>
<path d="M132.515 170.09C132.209 170.228 131.885 170.324 131.552 170.375C128.432 170.396 125.308 170.307 122.191 170.418C120.303 170.447 118.423 170.68 116.585 171.113C114.437 171.674 112.237 171.698 110.056 171.892L100.179 172.756C99.6788 172.799 99.1818 172.887 98.6847 172.887C97.4695 172.83 96.2559 173.029 95.1224 173.47C94.0025 173.942 92.6678 173.926 91.4405 174.132C89.7683 174.41 88.0991 174.72 86.4177 174.953C86.0495 175.005 85.6445 174.794 85.2579 174.705L85.3131 174.493L86.522 174.245C87.0866 173.801 87.1879 173.221 87.105 172.538C86.9577 171.294 86.8197 170.047 86.7736 168.8C86.5834 163.734 86.4668 158.669 86.252 153.603C85.9452 146.482 85.6077 139.363 85.2794 132.244C85.1628 129.713 84.9726 127.182 84.9388 124.651C84.8897 119.279 84.8652 113.904 84.9664 108.532C85.0493 104.242 85.307 99.9516 85.531 95.6829C85.6875 92.6859 85.7979 89.6767 86.1447 86.6981C86.4515 84.0259 87.0958 81.3905 87.599 78.7306C87.6435 78.2591 87.7691 77.7989 87.9703 77.37C88.1789 77.0207 88.5839 76.6131 88.9521 76.5763C89.5658 76.5089 89.9739 76.9349 89.9769 77.6213C89.9769 77.7592 89.9769 77.9002 89.9769 78.0381C89.9278 81.7153 89.8941 85.3926 89.8235 89.0699C89.7867 91.0189 89.6824 92.9648 89.6118 94.9107C89.4062 100.586 89.173 106.249 89.0196 111.933C89.0434 113.017 89.1864 114.095 89.4461 115.148C89.6486 116.162 90.2132 116.637 90.9189 116.567C91.6246 116.496 92.045 115.89 92.0787 114.802C92.0971 114.161 92.0971 113.521 92.1493 112.883C92.5441 108.054 92.948 103.226 93.3612 98.401C93.4216 97.624 93.5457 96.8533 93.7325 96.0966C93.9166 95.5492 94.1466 95.0182 94.4198 94.5092L94.6438 94.5889C94.7696 95.2937 94.8831 96.0047 95.0304 96.7064C95.3372 98.2202 95.9938 98.7473 97.5218 98.7105C98.6049 98.6829 99.688 98.5696 100.774 98.5542C102.554 98.5297 104.333 98.5542 106.113 98.5542C106.525 98.5551 106.936 98.5941 107.34 98.6707C108.595 98.9189 109.832 99.2437 111.093 99.4521C112.246 99.6421 112.934 99.1978 113.409 98.1252C113.753 97.3652 114.155 96.6267 114.456 95.8514C114.68 95.2692 115.008 95.2907 115.41 95.5726C116.147 96.0378 116.677 96.7687 116.889 97.6135C117.466 100.108 118.068 102.595 118.696 105.075C119.076 106.586 119.54 108.075 119.923 109.586C120.338 111.262 120.69 112.957 121.083 114.633C121.243 115.323 121.654 115.804 122.409 115.801C123.163 115.798 123.578 115.335 123.734 114.636C123.825 114.286 123.869 113.925 123.866 113.564C123.805 111.848 123.78 110.125 123.614 108.415C123.335 105.538 123.489 102.654 123.124 99.7586C122.611 95.686 122.639 91.546 122.448 87.4335C122.392 86.5439 122.385 85.6518 122.427 84.7614C122.646 81.5172 122.89 78.274 123.16 75.0319C123.188 74.7254 123.492 74.4374 123.667 74.1401C123.973 74.3079 124.267 74.4962 124.547 74.704C124.683 74.8438 124.773 75.0228 124.802 75.2157C125.109 76.7142 125.504 78.2066 125.643 79.7204C125.977 83.3762 126.222 87.0413 126.437 90.7063C126.704 95.211 126.913 99.7156 127.134 104.22C127.281 107.196 127.155 110.211 127.606 113.138C128.198 117.002 128.137 120.848 128.134 124.715C128.134 125.824 128.244 126.934 128.346 128.04C128.554 130.311 128.8 132.578 129.015 134.849C129.214 136.994 129.377 139.164 129.582 141.321C129.812 143.757 130.082 146.193 130.312 148.63C130.69 152.589 131.04 156.551 131.417 160.51C131.653 162.999 131.914 165.487 132.178 167.972C132.279 168.689 132.411 169.388 132.515 170.09ZM103.941 108.569L104.247 108.477C104.585 108.927 104.929 109.372 105.26 109.828C105.502 110.162 105.653 110.646 105.978 110.815C106.362 111.017 107.006 111.146 107.319 110.953C107.492 110.797 107.623 110.601 107.702 110.383C107.782 110.164 107.806 109.93 107.773 109.699C107.382 108.292 106.494 107.074 105.272 106.27C104.959 106.054 104.591 105.931 104.21 105.916C103.83 105.901 103.453 105.996 103.124 106.188C102.041 106.745 100.872 109.172 101.13 110.352C101.265 110.983 101.621 111.434 102.318 111.434C103.014 111.434 103.29 111.008 103.434 110.401C103.579 109.794 103.772 109.179 103.941 108.569ZM113.115 105.734C113.1 105.427 112.967 105.138 112.743 104.926C112.519 104.715 112.223 104.598 111.915 104.6C111.742 104.602 111.571 104.638 111.412 104.706C111.253 104.774 111.109 104.873 110.988 104.997C110.867 105.12 110.772 105.267 110.709 105.428C110.645 105.589 110.614 105.76 110.617 105.933C110.618 106.086 110.648 106.236 110.708 106.377C110.767 106.517 110.854 106.644 110.963 106.751C111.072 106.857 111.201 106.941 111.343 106.997C111.485 107.052 111.637 107.08 111.789 107.076C112.139 107.058 112.47 106.911 112.717 106.663C112.965 106.415 113.111 106.084 113.127 105.734H113.115ZM97.5832 105.802C97.5681 105.534 97.4495 105.284 97.2525 105.102C97.0555 104.921 96.7955 104.823 96.5277 104.83C96.3887 104.823 96.2497 104.844 96.1197 104.894C95.9896 104.943 95.8714 105.019 95.7725 105.117C95.6737 105.215 95.5965 105.333 95.5458 105.462C95.4951 105.591 95.4721 105.73 95.4783 105.869C95.4723 106.008 95.4953 106.148 95.5458 106.278C95.5963 106.408 95.6733 106.527 95.7719 106.626C95.8705 106.725 95.9885 106.802 96.1186 106.853C96.2487 106.905 96.388 106.928 96.5277 106.923C96.673 106.926 96.8173 106.899 96.9512 106.843C97.0852 106.786 97.2059 106.703 97.3054 106.597C97.4049 106.491 97.481 106.366 97.5289 106.229C97.5768 106.092 97.5953 105.946 97.5832 105.802Z" fill="#FEFEFE"/>
<path d="M259.901 165.034C259.343 165.996 259.244 166.011 258.14 165.613C257.753 165.468 257.344 165.39 256.931 165.383C253.642 165.364 250.354 165.364 247.066 165.383C246.573 165.43 246.085 165.523 245.609 165.662C244.418 165.898 243.234 166.173 242.034 166.363C240.666 166.578 239.273 166.697 237.914 166.887C234.364 167.375 230.817 167.902 227.264 168.371C225.806 168.567 224.334 168.677 222.864 168.797C222.367 168.861 221.866 168.879 221.367 168.852C221.055 168.776 220.78 168.591 220.593 168.331C221.296 168.251 222.066 168.637 222.413 167.718C222.5 167.4 222.556 167.075 222.582 166.747C222.465 162.15 222.33 157.553 222.21 152.981C222.152 150.781 222.177 148.578 222.045 146.384C221.833 142.832 221.471 139.286 221.265 135.735C220.934 130.038 220.685 124.335 220.385 118.638C220.317 117.361 220.105 116.086 220.078 114.808C219.897 106.595 219.645 98.3797 219.63 90.1671C219.63 85.1323 219.964 80.0974 220.201 75.0657C220.281 74.0686 220.457 73.0814 220.725 72.1177C220.873 71.5202 221.321 71.1432 222.183 71.0697C222.37 71.8389 222.597 72.6019 222.726 73.3711C222.778 73.9252 222.8 74.4816 222.793 75.0381C223.048 78.8962 223.33 82.7512 223.563 86.6093C223.79 90.3571 223.904 94.111 224.192 97.8557C224.459 101.291 224.88 104.717 225.266 108.143C225.393 109.221 225.575 110.292 225.812 111.351C225.856 111.634 226.004 111.889 226.227 112.068C226.451 112.246 226.733 112.334 227.018 112.314C227.167 112.317 227.315 112.291 227.453 112.236C227.592 112.182 227.718 112.101 227.825 111.998C227.932 111.895 228.017 111.772 228.076 111.636C228.135 111.499 228.167 111.353 228.169 111.204C228.161 110.655 228.104 110.107 228 109.568C227.81 107.775 227.411 105.973 227.485 104.193C227.598 101.309 228.012 98.4348 228.328 95.5604C228.457 94.3868 228.666 93.2223 228.838 92.0547C229.163 92.7841 229.255 93.5165 229.473 94.2151C229.81 95.3122 230.808 95.8975 231.747 95.4072C233.416 94.5369 235.073 94.779 236.8 95.0609C238.454 95.3306 240.098 95.919 241.829 95.303C242.485 95.0732 243.246 95.11 243.977 95.0824C245.314 95.0333 246.658 95.113 247.987 94.9874C249.521 94.8434 250.061 94.1722 250.214 92.6584C250.212 92.3532 250.276 92.0509 250.402 91.7728C250.586 91.4664 250.893 91.0711 251.175 91.0465C251.357 91.065 251.532 91.1277 251.684 91.2292C251.837 91.3307 251.962 91.4679 252.049 91.6288C252.423 92.4664 252.69 93.3477 252.844 94.2519C253.194 96.7831 253.396 99.3358 253.734 101.87C254.133 104.849 254.617 107.815 255.047 110.791C255.151 111.467 255.209 112.15 255.222 112.834C255.222 113.579 255.645 114.207 256.311 114.302C256.478 114.327 256.649 114.317 256.812 114.272C256.975 114.227 257.127 114.148 257.257 114.04C257.388 113.933 257.494 113.799 257.57 113.648C257.645 113.497 257.688 113.331 257.695 113.162C257.721 112.387 257.665 111.612 257.526 110.849C257.379 109.887 257.106 108.946 256.965 107.984C256.581 105.367 256.394 102.71 255.839 100.133C255.302 97.6534 255.369 95.2111 255.673 92.7595C256.152 88.9015 256.449 85.0985 255.366 81.2558C254.624 78.648 253.952 76.0463 252.267 73.843C251.948 73.4682 251.73 73.018 251.634 72.5353C251.537 72.0526 251.566 71.5534 251.718 71.085C251.939 71.18 252.095 71.2321 252.236 71.3118C253.881 72.2311 254.802 73.8001 255.492 75.4273C256.339 77.4161 256.946 79.506 257.6 81.5745C257.998 82.7301 258.298 83.9171 258.496 85.1231C258.976 88.6185 259.398 92.1242 259.76 95.6401C260.033 98.2969 260.303 100.969 260.343 103.635C260.435 110.205 260.392 116.778 260.398 123.348C260.398 123.682 260.377 124.016 260.361 124.35C260.168 128.236 259.809 132.125 259.818 135.995C259.818 140.592 260.196 145.17 260.321 149.761C260.37 151.504 260.177 153.257 260.091 155.007C259.983 155.543 259.912 156.085 259.876 156.631C259.876 159.432 259.901 162.23 259.922 165.03L259.901 165.034ZM239.595 103.439C240.074 103.925 240.526 104.436 240.948 104.971C241.47 105.71 242.231 106.038 242.857 105.694C243.483 105.351 243.532 104.692 243.096 103.794C242.412 102.376 241.022 101.732 239.874 100.84C239.31 100.399 238.448 100.653 238.082 101.371C237.572 102.381 237.156 103.437 236.84 104.524C236.79 104.676 236.773 104.838 236.79 104.997C236.807 105.157 236.858 105.311 236.939 105.449C237.021 105.588 237.13 105.707 237.261 105.8C237.392 105.893 237.541 105.958 237.699 105.989C238.441 106.114 238.843 105.682 239.08 105.051C239.248 104.61 239.368 104.15 239.595 103.427V103.439ZM233.029 102.192C233.031 102.039 233.002 101.887 232.943 101.746C232.884 101.604 232.796 101.477 232.685 101.371C232.574 101.266 232.442 101.184 232.298 101.132C232.154 101.079 232.001 101.057 231.848 101.067C231.019 101.092 230.289 101.714 230.283 102.397C230.285 102.557 230.32 102.715 230.385 102.861C230.45 103.007 230.545 103.139 230.662 103.248C230.78 103.356 230.919 103.44 231.07 103.493C231.221 103.547 231.381 103.569 231.541 103.559C231.921 103.573 232.292 103.435 232.571 103.177C232.85 102.918 233.015 102.559 233.029 102.18V102.192ZM247.379 99.9609C247.031 99.9797 246.702 100.128 246.457 100.376C246.211 100.624 246.068 100.955 246.054 101.303C246.05 101.449 246.076 101.594 246.13 101.73C246.183 101.865 246.264 101.989 246.366 102.092C246.469 102.196 246.591 102.278 246.726 102.334C246.861 102.389 247.006 102.417 247.152 102.415C247.501 102.393 247.829 102.243 248.074 101.995C248.32 101.746 248.464 101.416 248.481 101.067C248.487 100.92 248.462 100.774 248.409 100.637C248.356 100.499 248.276 100.375 248.173 100.27C248.069 100.165 247.946 100.082 247.809 100.027C247.673 99.9719 247.527 99.9452 247.379 99.9486V99.9609Z" fill="#FEFEFE"/>
<path d="M192.954 168.885C192.973 169.155 192.994 169.428 193.019 169.805C192.733 169.829 192.448 169.872 192.16 169.872C179.491 169.872 166.819 169.872 154.147 169.909C152.962 169.909 153.199 169.124 152.956 168.539C152.895 165.842 152.735 163.14 152.797 160.446C152.898 156.076 153.199 151.712 153.318 147.346C153.475 141.695 153.539 136.044 153.647 130.39C153.647 130.032 153.711 129.67 153.73 129.309C153.918 125.556 154.105 121.803 154.291 118.05C154.432 115.268 154.383 112.461 154.779 109.715C155.764 102.909 156.927 96.1334 158.065 89.3488C159.013 83.8271 160.6 78.4342 162.796 73.2791C162.898 73.037 163.011 72.801 163.122 72.562C163.228 72.6626 163.313 72.7832 163.372 72.9167C163.432 73.0503 163.464 73.1942 163.468 73.3404C163.419 74.701 163.392 76.0646 163.257 77.4191C163.054 79.4385 162.704 81.4457 162.532 83.4713C162.035 89.4009 161.612 95.3397 161.127 101.275C161.02 102.633 160.845 103.984 160.695 105.342C160.28 109.157 159.848 112.972 159.467 116.791C159.351 117.921 159.792 118.543 160.587 118.608C161.382 118.672 161.906 118.068 162.045 116.928C162.183 115.788 162.333 114.719 162.526 113.625C163.075 110.527 163.658 107.435 164.211 104.337C164.518 102.556 164.742 100.755 165.131 98.9955C165.349 98.0333 165.865 97.1385 166.248 96.2131L166.555 96.2774C166.711 97.3714 166.825 98.4746 167.043 99.5563C167.192 100.451 167.447 101.324 167.804 102.158C168.206 103.016 168.822 103.031 169.685 102.599C170.157 102.414 170.663 102.331 171.17 102.354C171.636 102.354 172.115 102.559 172.569 102.51C173.781 102.388 174.983 102.186 176.186 101.999C177.527 101.793 178.871 101.603 180.203 101.349C181.24 101.153 181.635 100.693 181.737 99.6575C181.813 98.9097 181.783 98.1528 181.872 97.4051C181.955 97.0546 182.081 96.7158 182.249 96.3969C182.531 96.5961 182.608 96.7034 182.627 96.8474C183.095 99.9241 183.559 103.001 184.02 106.077C184.253 107.61 184.458 109.16 184.738 110.692C185.146 112.936 185.637 115.163 186.032 117.406C186.198 118.344 186.545 118.838 187.26 118.798C187.975 118.758 188.447 118.185 188.423 117.321C188.4 116.6 188.315 115.882 188.168 115.176C187.738 113.135 187.158 111.118 186.821 109.047C186.324 106.007 186.008 102.936 185.566 99.8842C185.351 98.398 185.259 96.8382 184.688 95.4776C184.24 94.2887 184.014 93.0278 184.02 91.7574C184.025 90.9783 183.984 90.1996 183.897 89.4254C183.231 85.172 183.897 80.9922 184.566 76.8154C184.612 76.509 184.873 76.2485 185.029 75.9666L185.287 76.0279C185.409 76.5611 185.569 77.0912 185.652 77.6305C185.793 78.5498 185.885 79.4539 185.995 80.364C186.229 82.2425 186.554 84.1117 186.671 85.9964C186.852 88.8738 187.591 91.7084 187.352 94.6257C187.312 95.0762 187.536 95.545 187.628 96.0108C187.738 96.5563 187.87 97.1018 187.935 97.6503C188.199 100.143 188.448 102.635 188.683 105.127C188.828 106.66 188.926 108.192 189.048 109.706C189.291 112.77 189.549 115.81 189.773 118.862C189.92 120.829 190.038 122.798 190.128 124.767C190.303 128.631 190.435 132.499 190.616 136.363C190.708 138.309 190.84 140.255 191.058 142.185C191.42 145.421 192.123 148.642 192.215 151.881C192.371 157.565 192.258 163.241 192.954 168.885ZM177.061 112.117C177.653 112.641 178.23 112.963 178.846 112.442C179.463 111.921 179.365 111.201 179.08 110.524C178.981 110.325 178.857 110.14 178.711 109.972C178.457 109.644 178.184 109.326 177.932 108.995C177.122 107.928 175.904 108.017 175.361 109.246C175.037 110.014 174.794 110.814 174.637 111.633C174.547 112.039 174.609 112.464 174.809 112.828C174.924 113.005 175.076 113.154 175.254 113.266C175.433 113.378 175.634 113.45 175.843 113.478C176.186 113.478 176.539 113.055 176.846 112.773C176.966 112.66 176.969 112.424 177.061 112.117ZM180.629 106.179C181.39 106.163 182.096 105.514 182.08 104.842C182.052 104.506 181.895 104.194 181.642 103.971C181.389 103.747 181.059 103.63 180.721 103.644C180.547 103.637 180.372 103.666 180.21 103.729C180.047 103.793 179.899 103.89 179.776 104.013C179.653 104.137 179.557 104.285 179.494 104.448C179.431 104.61 179.403 104.785 179.411 104.959C179.409 105.119 179.44 105.278 179.5 105.427C179.561 105.575 179.651 105.71 179.764 105.824C179.877 105.937 180.012 106.027 180.161 106.088C180.309 106.149 180.469 106.18 180.629 106.179ZM171.013 106.16C171.006 106 170.965 105.842 170.895 105.698C170.825 105.554 170.726 105.425 170.604 105.32C170.482 105.215 170.34 105.136 170.187 105.088C170.034 105.039 169.872 105.023 169.712 105.039C169.387 105.039 169.074 105.168 168.844 105.398C168.614 105.627 168.485 105.939 168.485 106.264C168.5 106.577 168.637 106.871 168.866 107.084C169.095 107.297 169.399 107.412 169.712 107.404C170.047 107.408 170.371 107.28 170.612 107.047C170.853 106.814 170.991 106.495 170.998 106.16H171.013Z" fill="#FEFEFE"/>
<path d="M56.8946 173.727C56.8332 172.395 56.7729 171.067 56.7136 169.743C56.7258 169.354 56.6991 168.964 56.6338 168.579C55.4678 163.982 55.612 159.318 55.5108 154.645C55.4556 151.927 55.1334 149.215 54.934 146.5C54.891 145.915 54.8235 145.332 54.8143 144.747C54.7437 139.844 54.7529 134.941 54.5995 130.038C54.4553 125.564 54.127 121.093 53.903 116.619C53.7588 113.757 53.6606 110.892 53.5379 108.039C53.4949 107.092 53.4735 106.145 53.3875 105.204C53.1789 102.909 52.9396 100.607 52.7125 98.3245C52.7052 98.1017 52.6837 97.8796 52.6481 97.6595C51.9946 94.8157 51.3195 91.975 50.6782 89.1251C50.3101 87.4979 50.0002 85.8554 49.6381 84.2221C49.3313 82.8125 48.9754 81.409 48.6286 80.0055C48.5974 79.7829 48.5097 79.5719 48.374 79.3926C48.193 79.2057 47.9107 78.9789 47.6959 78.9973C47.4811 79.0157 47.2479 79.3466 47.2203 79.5673C47.0054 80.7625 46.8823 81.9724 46.8521 83.1863C46.9104 85.7328 47.1589 88.2794 47.2387 90.8289C47.4198 95.6401 47.3952 100.467 47.7573 105.265C48.0395 109.001 48.779 112.706 49.3098 116.423C49.408 117.112 49.5246 117.799 49.5553 118.491C49.586 119.184 49.2761 119.775 48.509 119.873C47.7419 119.971 47.3216 119.493 47.1405 118.801C46.9442 118.047 46.7908 117.269 46.6005 116.527C45.6647 112.831 44.7135 109.139 43.7838 105.44C43.5261 104.413 43.4463 103.329 43.0628 102.357C42.5004 101.038 41.8632 99.752 41.1543 98.5053C41.0408 98.2877 40.7401 98.1713 40.3259 97.8618C39.9117 99.1549 39.5282 100.298 39.1876 101.453C39.0311 101.986 38.982 102.547 38.8378 103.087C38.7445 103.482 38.5392 103.841 38.2464 104.123C37.9537 104.405 37.5859 104.596 37.1871 104.674C34.0942 105.477 31.0106 106.307 27.9239 107.125C27.4687 107.26 26.999 107.339 26.5248 107.361C25.6394 107.364 24.7785 107.652 24.0702 108.183C22.4102 109.375 20.0354 108.581 19.5936 106.601C19.2254 104.959 19.2223 103.231 19.075 101.548C19.0106 100.843 18.9922 100.136 18.9523 99.4277L18.667 99.348C18.4586 99.6021 18.2918 99.8875 18.173 100.194C17.817 101.876 17.412 103.565 17.2095 105.256C16.7493 109.096 16.3749 112.948 16.0129 116.8C15.8227 118.85 15.7275 120.909 15.5864 122.965C15.5748 123.16 15.546 123.352 15.5005 123.541C15.3194 124.228 14.9298 124.73 14.1596 124.666C13.3895 124.602 13.0643 124.053 13.0336 123.336C12.96 121.528 12.8434 119.717 12.871 117.909C12.9477 112.537 12.8955 107.153 13.2514 101.796C13.6052 96.6286 13.6339 91.4436 13.3374 86.2722C13.2484 84.8043 12.6807 83.3641 12.334 81.9085L12.0517 81.7644C11.7449 82.0954 11.3092 82.3773 11.1926 82.7634C10.7569 84.17 10.2721 85.5888 10.0911 87.0536C9.47745 91.88 8.8638 96.7157 8.41276 101.564C7.35114 112.85 7.73774 124.16 8.25935 135.456C8.46186 139.872 9.17983 144.26 9.60018 148.667C9.94383 152.129 10.2507 155.595 10.5207 159.064C10.8275 163.029 11.0668 167.001 11.3583 170.969C11.4289 171.938 11.5977 172.9 11.6958 173.868C11.8186 175.094 11.9167 176.35 12.0272 177.591C11.975 177.999 11.9045 178.41 11.8738 178.817C11.8216 179.473 11.567 179.991 10.8521 180.015C10.1372 180.04 9.82419 179.55 9.69839 178.915C9.68092 178.805 9.66966 178.693 9.66464 178.581C9.35782 173.258 9.08778 167.929 8.67663 162.613C8.3698 158.758 7.83899 154.921 7.44932 151.075C6.86635 145.151 6.30896 139.219 5.77713 133.28C5.63905 131.73 5.57154 130.167 5.57768 128.607C5.59916 120.977 5.49486 113.343 5.75566 105.719C5.95916 99.3719 6.62157 93.0478 7.73776 86.7962C7.84515 86.1833 7.95865 85.5949 8.0599 84.9913C8.0599 84.9453 8.02311 84.8901 7.97095 84.7584C7.45855 84.7338 6.90626 84.7001 6.35703 84.6879C4.72778 84.645 3.90241 84.0597 3.59559 82.457C3.26728 80.6521 3.22126 78.7797 2.83159 77.0054C2.19339 74.082 2.37747 71.134 2.27621 68.1891C2.24553 67.3863 2.07371 66.5895 2.00928 65.7866C1.70245 62.0144 1.35573 58.2482 1.16243 54.4729C0.99981 51.3594 0.920044 48.2337 1.01823 45.1203C1.17778 40.0303 1.50914 34.9465 1.77301 29.8626C1.80676 29.2222 1.85585 28.5848 1.88347 27.9443C2.03074 24.8309 2.17394 21.7175 2.31303 18.604C2.36826 17.3384 4.26448 15.3588 5.75259 15.1259C7.40333 14.8655 9.06324 14.7 10.7201 14.4855C12.9231 14.2005 15.1262 13.9247 17.3261 13.6182C18.6148 13.4374 19.9035 12.9839 21.1768 13.036C23.5854 13.1371 25.9848 13.5202 28.3903 13.7745C29.139 13.8542 29.8876 13.891 30.6363 13.9615C32.7125 14.1657 34.7887 14.37 36.8649 14.5743C37.0842 14.6136 37.3054 14.6412 37.5276 14.6571C41.3016 14.5958 44.8915 15.8491 48.6041 16.1893C50.7243 16.3854 51.9424 17.6816 52.464 19.603C52.876 21.0974 53.1542 22.6254 53.2955 24.169C53.4735 26.2712 53.5287 28.3887 53.5287 30.5C53.5287 33.3928 53.3016 36.2918 53.3875 39.1815C53.5041 43.0457 53.5317 46.9467 54.1362 50.7466C54.8726 55.3646 54.9125 59.9949 55.1917 64.6252C55.4157 68.3454 55.6949 72.0625 55.925 75.7858C55.9956 76.9503 56.0048 78.1209 56.0048 79.2915C56.0048 80.98 55.339 81.8288 53.6575 82.1168C51.6448 82.4631 51.565 82.2333 52.0866 84.5684C53.0316 88.8003 53.9859 93.0323 54.9186 97.2673C54.9879 97.7344 55.031 98.205 55.0475 98.6769C55.2398 100.612 55.4351 102.545 55.6335 104.478C55.7072 105.226 55.8146 105.97 55.8483 106.721C56.0662 111.195 56.2656 115.669 56.462 120.146C56.462 120.284 56.4896 120.422 56.4926 120.563C56.6951 128.187 56.8578 135.811 57.1063 143.432C57.2198 146.736 57.542 150.033 57.766 153.331C57.7967 153.775 57.8212 154.219 57.8365 154.667L58.1771 164.926C58.174 164.954 58.174 164.981 58.1771 165.009C59.024 167.559 58.9933 170.218 59.116 172.848C59.1786 173.286 59.2908 173.716 59.4505 174.129C59.6622 174.861 59.6315 175.508 58.8859 175.943C58.0574 176.427 57.2259 176.062 57.0449 175.118C56.9958 174.662 56.9559 174.193 56.8946 173.727ZM8.66745 82.6347C9.01417 80.885 10.1494 79.8032 11.9536 79.2639C13.1349 78.9176 13.9142 79.1474 14.3345 80.3242C14.5428 80.9011 14.7059 81.4933 14.8224 82.0954C14.9206 82.6347 15.1446 82.9412 15.7214 82.9871C16.8045 83.0791 17.8692 83.2262 18.9646 83.315C21.861 83.5449 24.736 83.3395 27.6355 83.0791C32.9866 82.5949 38.3745 82.3896 43.7286 82.0893C44.2564 82.0586 44.4435 81.8625 44.5049 81.3477C44.5907 80.4626 44.7456 79.5856 44.9682 78.7246C45.3978 77.2138 46.3459 76.4783 47.7051 76.46C48.9109 76.4446 50.3377 77.4927 50.755 78.7062C50.9145 79.175 50.9298 79.8492 51.2551 80.0637C51.5803 80.2782 52.1756 79.9472 52.6726 79.9381C53.4612 79.9227 53.7435 79.5826 53.6974 78.792C53.455 74.7378 53.3078 70.6774 53.0101 66.6263C52.6174 61.2513 52.6328 55.861 51.7828 50.4983C51.1692 46.5146 51.1692 42.4052 51.0557 38.348C50.9759 35.7923 51.2091 33.2304 51.206 30.6686C51.206 28.5031 51.1242 26.3365 50.9605 24.169C50.8399 22.869 50.6193 21.5802 50.3009 20.314C50.0462 19.2353 49.3988 18.5152 48.1531 18.414C44.5478 18.1076 41.0715 16.8573 37.4141 16.9309C37.0525 16.9017 36.6929 16.8515 36.3371 16.7807C34.4287 16.5948 32.5182 16.413 30.6056 16.2352C29.7741 16.1586 28.9365 16.1341 28.108 16.0422C25.8958 15.8001 23.6928 15.4599 21.4775 15.3129C20.5079 15.2485 19.5107 15.5549 18.5289 15.6928C18.0073 15.7664 17.4857 15.8644 16.961 15.9165C15.8257 16.0299 14.6813 16.0667 13.5552 16.223C11.5209 16.5294 9.49895 16.9033 7.46775 17.1975C6.61784 17.32 5.70348 17.1975 5.38438 18.3006C5.34449 18.4355 5.12053 18.509 5.02541 18.6377C4.84494 18.8248 4.71504 19.0547 4.64798 19.3058C4.50378 21.2762 4.39334 23.2497 4.28595 25.2231C4.01594 30.1967 3.63547 35.1702 3.51581 40.1468C3.38387 45.6627 3.42067 51.1786 3.5342 56.6946C3.5925 59.4525 3.98524 62.235 4.22763 65.0052C4.35036 66.4179 4.50379 67.8275 4.58663 69.2433C4.70323 71.1555 4.72472 73.0769 4.86586 74.989C4.95177 76.178 5.17266 77.3578 5.34142 78.5438C5.48563 79.5887 5.64826 80.6367 5.78327 81.6848C5.787 81.7819 5.81053 81.8772 5.85245 81.9649C5.89436 82.0526 5.95377 82.1309 6.02702 82.1948C6.10027 82.2588 6.18583 82.3072 6.27846 82.337C6.37108 82.3668 6.46879 82.3774 6.56566 82.3681C7.24375 82.411 7.88504 82.5336 8.66745 82.6347ZM15.8319 99.489C16.1387 98.9251 16.3105 98.5696 16.5253 98.2632C17.1635 97.3071 18.5626 96.731 19.5936 96.9884C20.5539 97.2274 21.1001 97.969 21.2412 99.3419C21.3272 100.172 21.3333 101.009 21.3885 101.842C21.4714 103.034 21.5204 104.233 21.6646 105.419C21.7843 106.375 22.3427 106.608 23.1129 106.007C23.883 105.406 24.8434 105.186 25.8283 105.069C26.6779 104.945 27.5199 104.773 28.3504 104.554C29.0254 104.398 29.6882 104.187 30.3632 104.015C32.1643 103.565 33.9654 103.096 35.7726 102.682C36.5212 102.51 36.6931 102.023 36.8925 101.343C37.3324 99.7054 37.8924 98.1025 38.5678 96.5471C39.1998 95.1436 40.2983 95.0333 41.59 95.8638C42.8818 96.6942 43.7378 97.8679 44.3944 99.207C44.5386 99.4981 44.7258 99.7678 44.9713 100.178C45.0176 100.031 45.0514 99.8807 45.0725 99.728C45.0357 96.1671 45.0265 92.6032 44.9375 89.0393C44.9068 87.7952 44.6583 86.5541 44.554 85.3069C44.4957 84.599 44.1797 84.36 43.477 84.409C41.2556 84.5653 39.0311 84.6787 36.8097 84.8074C36.1438 84.8442 35.475 84.8717 34.8091 84.9177C30.532 85.2058 26.2609 85.5582 21.9807 85.7543C20.2655 85.834 18.535 85.5612 16.8106 85.4662C15.6938 85.408 15.6999 85.4233 15.7122 86.5051C15.7572 90.3172 15.8012 94.1293 15.8441 97.9414C15.8349 98.3796 15.8319 98.8148 15.8319 99.4951V99.489Z" fill="#2A2A2A"/>
<path d="M192.954 168.885C192.258 163.241 192.371 157.566 192.212 151.899C192.12 148.66 191.417 145.44 191.055 142.204C190.837 140.27 190.705 138.324 190.613 136.381C190.423 132.517 190.306 128.65 190.125 124.786C190.037 122.814 189.919 120.846 189.77 118.88C189.546 115.816 189.288 112.776 189.045 109.724C188.923 108.192 188.824 106.66 188.68 105.146C188.447 102.651 188.198 100.159 187.932 97.6687C187.873 97.1201 187.741 96.5747 187.625 96.0292C187.533 95.5665 187.318 95.0946 187.349 94.6441C187.594 91.7268 186.849 88.8922 186.667 86.0148C186.551 84.1301 186.226 82.2609 185.992 80.3824C185.882 79.4631 185.79 78.5437 185.649 77.6489C185.566 77.1096 185.406 76.5795 185.284 76.0462L185.026 75.985C184.866 76.2669 184.609 76.5335 184.563 76.8338C183.9 81.0106 183.228 85.1904 183.894 89.4438C183.981 90.218 184.022 90.9967 184.017 91.7758C184.011 93.0462 184.237 94.3071 184.685 95.496C185.247 96.8566 185.348 98.4164 185.563 99.9026C186.005 102.967 186.321 106.031 186.818 109.065C187.155 111.121 187.738 113.138 188.165 115.194C188.312 115.9 188.397 116.618 188.419 117.339C188.444 118.194 187.941 118.776 187.257 118.816C186.572 118.856 186.204 118.363 186.029 117.425C185.633 115.182 185.143 112.954 184.734 110.711C184.455 109.179 184.25 107.646 184.017 106.096C183.554 103.019 183.09 99.9425 182.624 96.8658C182.605 96.7371 182.528 96.6145 182.246 96.4153C182.078 96.7342 181.952 97.073 181.869 97.4235C181.78 98.1712 181.81 98.9281 181.734 99.6759C181.629 100.712 181.234 101.171 180.2 101.367C178.868 101.622 177.524 101.812 176.183 102.017C174.98 102.204 173.778 102.406 172.566 102.529C172.112 102.578 171.645 102.363 171.167 102.373C170.66 102.349 170.154 102.433 169.682 102.618C168.819 103.05 168.203 103.034 167.801 102.176C167.444 101.343 167.189 100.469 167.04 99.5747C166.822 98.493 166.708 97.3898 166.552 96.2958L166.245 96.2315C165.862 97.1508 165.346 98.0517 165.128 99.0139C164.723 100.773 164.515 102.575 164.208 104.355C163.655 107.453 163.072 110.545 162.523 113.643C162.33 114.737 162.177 115.841 162.042 116.947C161.907 118.053 161.403 118.69 160.584 118.626C159.765 118.562 159.357 117.94 159.464 116.809C159.851 112.991 160.283 109.176 160.691 105.36C160.842 104.003 161.017 102.651 161.124 101.294C161.6 95.3581 162.045 89.4193 162.529 83.4897C162.701 81.4641 163.051 79.4569 163.253 77.4375C163.388 76.083 163.416 74.7194 163.465 73.3588C163.461 73.2126 163.429 73.0687 163.369 72.9351C163.31 72.8016 163.225 72.681 163.118 72.5804C163.008 72.8194 162.894 73.0554 162.793 73.2975C160.597 78.4526 159.01 83.8455 158.062 89.3672C156.933 96.1518 155.761 102.927 154.776 109.733C154.38 112.491 154.429 115.286 154.288 118.068C154.094 121.819 153.907 125.572 153.726 129.327C153.708 129.689 153.653 130.05 153.644 130.409C153.536 136.063 153.472 141.713 153.315 147.364C153.196 151.731 152.895 156.095 152.794 160.464C152.732 163.158 152.892 165.861 152.953 168.558C153.067 169.655 153.177 170.752 153.3 171.849C153.325 172.069 153.404 172.281 153.438 172.498C153.539 173.157 153.46 173.773 152.699 173.951C151.938 174.129 151.499 173.644 151.333 173.032C151.045 171.938 150.867 170.816 150.643 169.704C150.575 168.876 150.511 168.052 150.447 167.225C150.447 164.942 150.312 162.649 150.489 160.379C150.968 154.25 150.925 148.139 151.045 142.014C151.174 135.578 151.616 129.171 151.892 122.745C152.002 120.213 152.039 117.679 152.094 115.148C152.195 110.484 152.855 105.887 153.684 101.306C154.604 96.2376 155.304 91.1262 156.365 86.0914C157.077 82.7205 158.234 79.4569 159.237 76.1596C159.519 75.2403 159.544 74.9339 158.577 74.6642C157.301 74.3179 155.976 74.1463 154.668 73.9226C153.874 73.7908 153.058 73.7571 152.275 73.5825C151.137 73.3312 150.379 72.6631 150.278 71.4221C150.072 68.897 149.808 66.375 149.695 63.8469C149.286 54.8069 148.917 45.7659 148.59 36.7238C148.36 30.3437 148.639 23.9728 149.011 17.602C149.185 14.5713 149.228 11.5344 149.296 8.50067C149.317 7.65796 149.679 7.08491 150.235 6.46591C151.364 5.16481 152.758 4.11997 154.325 3.4015C155.914 2.69056 157.589 2.17574 159.234 1.56286C160.28 1.17981 161.302 0.72015 162.373 0.429032C163.257 0.186363 164.168 0.0556113 165.085 0.0398513C168.798 -0.0183724 172.529 0.0980761 176.131 1.0082C179.003 1.7314 181.936 1.57205 184.814 2.08381C187.797 2.61395 190.828 2.85604 193.81 3.37392C195.839 3.72327 197.83 4.29324 199.453 5.6998C199.784 5.95308 200.148 6.15934 200.536 6.31269C201.509 6.76315 202.009 7.52006 201.929 8.57115C201.76 10.7591 201.536 12.9441 201.34 15.129C201.168 17.0075 200.785 18.8951 200.867 20.7644C201.09 25.7908 200.866 30.8271 200.196 35.8137C199.495 40.8325 199.142 45.8937 199.14 50.961C199.171 56.7221 198.931 62.4863 198.793 68.2473C198.76 69.6662 198.64 71.0819 198.594 72.4977C198.56 73.6131 198.054 74.4099 196.98 74.6611C195.173 75.0871 193.326 75.3476 191.522 75.7796C190.422 76.0724 189.345 76.4442 188.3 76.892C188.122 76.9656 187.972 77.3977 187.993 77.6459C188.177 79.4447 188.41 81.2373 188.625 83.0331C188.754 84.1087 188.867 85.1782 188.999 86.263C189.116 87.1976 189.245 88.1323 189.374 89.0669C189.444 89.5633 189.635 90.0659 189.588 90.5501C189.282 93.6696 190.184 96.6789 190.414 99.7433C190.828 105.293 191.414 110.83 191.923 116.374C191.985 117.039 192.04 117.704 192.083 118.372C192.279 121.479 192.482 124.583 192.654 127.694C192.764 129.667 192.915 131.644 192.893 133.617C192.876 137.403 193.171 141.184 193.777 144.922C194.38 148.55 194.662 152.224 194.62 155.902C194.553 158.764 194.685 161.632 194.795 164.497C194.863 166.216 195.078 167.932 195.182 169.652C195.2 169.958 195.075 170.491 194.909 170.54C194.731 170.588 194.544 170.595 194.363 170.561C194.182 170.527 194.011 170.453 193.863 170.344C193.479 169.943 193.252 169.382 192.954 168.885ZM150.839 39.3347C151.115 45.5646 151.364 51.7976 151.677 58.0276C151.879 62.0572 152.156 66.0869 152.441 70.1136C152.533 71.373 152.616 71.4558 153.914 71.5354C155.917 71.6611 157.927 71.6856 159.796 72.5682C160.228 72.7704 160.55 72.6264 160.679 72.1361C160.986 70.9563 161.87 70.1902 162.735 69.467C163.122 69.1452 163.873 68.9307 164.303 69.087C164.732 69.2433 165.042 69.896 165.272 70.3924C165.472 70.8507 165.577 71.345 165.579 71.8449C165.604 73.3465 166.398 73.9318 167.822 74.0115C169.313 74.0973 170.786 74.4558 172.283 73.9655C173.06 73.7142 173.894 73.4415 174.689 73.4813C177.266 73.6131 179.838 73.8613 182.406 74.1126C183.096 74.18 183.446 73.9962 183.75 73.3496C184.363 72.0166 185.676 71.9185 186.625 73.0646C186.729 73.1933 186.79 73.3863 186.931 73.466C187.484 73.7908 187.913 74.6152 188.674 74.2321C190.239 73.4384 191.939 73.371 193.611 73.1228C194.353 73.0194 195.084 72.8502 195.796 72.6172C195.925 72.5392 196.036 72.4327 196.118 72.3058C196.2 72.1789 196.253 72.0349 196.271 71.8848C196.385 70.5824 196.471 69.277 196.498 67.9685C196.639 61.7048 196.685 55.4412 196.909 49.1806C197.063 44.8721 197.406 40.5697 197.765 36.2734C197.965 33.8617 198.526 31.4776 198.643 29.0659C198.775 26.4029 198.502 23.7216 198.56 21.0494C198.609 18.9472 198.867 16.845 199.076 14.749C199.223 13.2811 199.435 11.8225 199.625 10.3608C199.781 9.135 199.625 8.09617 198.247 7.65796C198.17 7.62531 198.101 7.57614 198.045 7.51393C196.753 6.39849 195.167 5.91125 193.556 5.63852C190.598 5.13596 187.594 4.8908 184.658 4.36066C181.721 3.83052 178.678 4.01745 175.723 3.26054C172.21 2.36267 168.559 2.26461 164.929 2.29832C164.4 2.29117 163.873 2.36559 163.367 2.51896C161.37 3.19313 159.421 4.05116 157.393 4.59662C155.273 5.17273 153.711 6.49962 152.22 7.94908C151.924 8.2678 151.738 8.67259 151.689 9.10436C151.591 9.95933 151.616 10.8296 151.588 11.6907C151.269 20.9023 150.419 30.1016 150.839 39.3347ZM169.479 99.9517C170.136 99.9517 170.768 99.9179 171.391 99.9517C172.105 100.001 172.827 100.258 173.538 100.181C175.083 100.043 176.619 99.8233 178.141 99.5226C179.543 99.2499 179.546 99.1856 179.552 97.7514C179.552 96.2345 179.966 94.9628 181.427 94.1936C181.629 94.0833 181.761 93.6359 181.749 93.3509C181.675 91.6563 181.565 89.9617 181.442 88.2701C181.201 84.7688 181.417 81.251 182.083 77.8052C182.347 76.4078 182.317 76.4508 180.936 76.3833C179.804 76.3282 178.681 76.1351 177.561 75.9942C177.091 75.939 176.64 75.8195 176.159 75.8011C174.996 75.7582 173.891 75.7766 172.731 76.2301C171.044 76.892 169.206 76.5519 167.445 76.2883C166.291 76.1167 165.791 76.322 165.638 77.4344C165.401 79.1444 165.147 80.8543 165.009 82.5704C164.702 86.5388 164.432 90.5102 164.156 94.4786C164.185 94.6774 164.236 94.8725 164.306 95.0609C164.473 94.7994 164.662 94.5523 164.87 94.3223C166.316 93.0384 167.905 93.403 168.583 95.2141C168.777 95.7649 168.921 96.332 169.013 96.9087C169.178 97.923 169.319 98.9404 169.479 99.9517Z" fill="#2A2A2A"/>
<path d="M132.515 170.09C132.411 169.388 132.279 168.689 132.209 167.981C131.945 165.496 131.684 163.008 131.448 160.52C131.07 156.56 130.72 152.598 130.343 148.639C130.113 146.203 129.843 143.767 129.613 141.33C129.407 139.185 129.245 137.013 129.045 134.858C128.83 132.588 128.585 130.32 128.376 128.049C128.275 126.943 128.165 125.834 128.165 124.724C128.165 120.857 128.229 117.011 127.637 113.147C127.186 110.22 127.312 107.205 127.164 104.23C126.943 99.7249 126.735 95.2202 126.468 90.7156C126.253 87.0383 126.008 83.3855 125.673 79.7297C125.535 78.2159 125.13 76.7235 124.832 75.225C124.803 75.032 124.714 74.8531 124.578 74.7132C124.297 74.5055 124.003 74.3171 123.697 74.1494C123.522 74.4558 123.218 74.7316 123.191 75.0411C122.917 78.2833 122.672 81.5264 122.458 84.7706C122.416 85.6611 122.423 86.5531 122.479 87.4428C122.669 91.5552 122.642 95.6952 123.154 99.7678C123.519 102.664 123.366 105.547 123.645 108.425C123.811 110.135 123.835 111.857 123.897 113.573C123.9 113.935 123.856 114.295 123.765 114.645C123.608 115.344 123.185 115.807 122.439 115.81C121.694 115.813 121.273 115.332 121.114 114.642C120.721 112.963 120.368 111.272 119.954 109.595C119.58 108.085 119.116 106.595 118.727 105.085C118.113 102.602 117.51 100.115 116.919 97.6227C116.707 96.7779 116.178 96.0471 115.44 95.5818C115.038 95.2999 114.71 95.2754 114.486 95.8607C114.179 96.636 113.784 97.3745 113.44 98.1345C112.958 99.207 112.277 99.6514 111.123 99.4614C109.862 99.253 108.626 98.9282 107.371 98.6799C106.966 98.6034 106.555 98.5644 106.144 98.5635C104.364 98.5635 102.584 98.5329 100.805 98.5635C99.7186 98.5788 98.6355 98.6922 97.5524 98.7198C96.0182 98.7566 95.377 98.2295 95.0609 96.7157C94.9136 96.0139 94.8001 95.303 94.6743 94.5982L94.4503 94.5185C94.1771 95.0274 93.9472 95.5584 93.763 96.1058C93.5763 96.8625 93.4521 97.6333 93.3918 98.4103C92.9827 103.238 92.5787 108.065 92.1798 112.893C92.1276 113.53 92.1277 114.171 92.1092 114.811C92.0755 115.899 91.6827 116.503 90.9494 116.576C90.2161 116.65 89.6792 116.172 89.4767 115.157C89.2169 114.105 89.0739 113.027 89.0502 111.943C89.2036 106.267 89.4368 100.604 89.6424 94.9199C89.7129 92.974 89.8172 91.0281 89.8541 89.0792C89.9246 85.4019 89.9584 81.7246 90.0075 78.0473C90.0075 77.9094 90.0075 77.7685 90.0075 77.6306C90.0075 76.9441 89.5994 76.5182 88.9827 76.5856C88.6237 76.6224 88.2095 77.0299 88.0008 77.3793C87.7997 77.8081 87.6741 78.2684 87.6296 78.7399C87.1264 81.3906 86.4974 84.026 86.1752 86.7073C85.8193 89.6859 85.7088 92.6952 85.5615 95.6922C85.3376 99.9823 85.0798 104.254 84.997 108.541C84.8957 113.913 84.9203 119.288 84.9694 124.66C84.9908 127.191 85.1934 129.722 85.31 132.254C85.6383 139.372 85.988 146.491 86.2826 153.612C86.4912 158.678 86.614 163.743 86.8042 168.809C86.8502 170.056 86.9883 171.303 87.1356 172.547C87.2184 173.231 87.1172 173.81 86.5526 174.254C85.3253 174.218 85.0185 174.015 84.8528 172.786C84.6411 171.021 84.4938 169.244 84.4263 167.467C84.1655 160.593 83.963 153.72 83.7022 146.846C83.5948 144.067 83.3677 141.29 83.2297 138.508C83.0486 134.831 82.8369 131.153 82.751 127.495C82.6344 122.457 82.5393 117.416 82.5914 112.378C82.6313 108.679 82.9596 104.983 83.0977 101.285C83.1959 98.585 83.0578 95.873 83.2695 93.1855C83.5242 89.9219 84.009 86.6705 84.4416 83.4223C84.6472 81.8901 84.9909 80.3579 85.2118 78.8257C85.2425 78.6142 84.9724 78.271 84.7515 78.1362C84.4719 78.0107 84.1682 77.948 83.8617 77.9523C82.5853 77.8267 81.9839 77.2996 81.9042 76.0095C81.6587 72.1514 81.4623 68.2903 81.2445 64.4291C81.0768 61.426 80.908 58.4249 80.7382 55.4259C80.6124 53.1766 80.4529 50.9243 80.3854 48.6842C80.2504 43.9252 80.1583 39.1631 80.0785 34.4041C80.0455 33.8756 80.0952 33.3452 80.2258 32.832C80.9039 30.5644 80.7014 28.26 80.6431 25.9494C80.6001 24.2824 80.7474 22.6123 80.7351 20.9452C80.7229 19.2782 80.6585 17.5529 80.5541 15.8583C80.4682 14.4272 80.9867 13.1892 81.6157 11.9665C81.7415 11.7183 81.8796 11.4762 81.987 11.2188C82.4626 10.085 83.288 9.68661 84.4662 10.0451C84.8964 10.1591 85.3195 10.2983 85.7334 10.4619C87.9855 11.418 90.3358 11.4517 92.6953 11.1636C92.7783 11.1489 92.8625 11.1417 92.9469 11.1422C94.883 11.2188 96.8191 11.2586 98.7521 11.3904C101.109 11.5528 103.462 11.7919 105.809 12.0033C106.002 12.0217 106.199 12.0217 106.392 12.0431C109.374 12.3894 112.354 12.7541 115.339 13.0758C115.978 13.1274 116.621 13.113 117.257 13.0329C118.276 12.9088 119.31 13.0007 120.291 13.3026C121.414 13.6581 122.648 13.655 123.835 13.8021C126.443 14.1239 128.401 15.5549 128.769 18.2853C129.272 22.0086 129.996 25.7196 130.193 29.4612C130.542 35.7126 130.558 41.9824 130.739 48.2429C130.791 50.0203 130.951 51.7915 131.024 53.5658C131.119 55.8764 131.208 58.1839 131.242 60.4944C131.31 64.9501 131.343 69.4057 131.374 73.8583C131.374 75.798 130.886 76.3527 128.947 76.653C128.697 76.6521 128.449 76.6989 128.217 76.7909C128.106 76.8573 128.011 76.9462 127.937 77.0517C127.863 77.1573 127.812 77.2773 127.787 77.4038C127.947 80.4038 128.119 83.4039 128.343 86.4009C128.545 89.119 128.867 91.8279 129.048 94.5491C129.254 97.6319 129.355 100.724 129.515 103.81C129.754 107.999 129.84 112.194 130.364 116.374C130.696 119.037 130.457 121.767 130.53 124.467C130.567 125.797 130.714 127.124 130.837 128.451C130.981 130.032 131.165 131.607 131.3 133.188C131.5 135.483 131.656 137.785 131.865 140.08C132.098 142.657 132.38 145.228 132.623 147.802C132.979 151.541 133.307 155.279 133.672 159.018C133.862 160.979 134.111 162.937 134.332 164.896C134.599 167.289 134.856 169.682 135.133 172.075C135.209 172.737 135.062 173.249 134.359 173.436C133.709 173.611 133.117 173.231 132.93 172.489C132.825 172.06 132.838 171.607 132.77 171.165C132.681 170.779 132.589 170.436 132.515 170.09ZM120.445 101.53C120.629 102.489 120.81 103.451 120.994 104.41L121.264 104.371C121.169 103.421 121.077 102.471 120.982 101.524C120.709 97.8066 120.307 94.0956 120.196 90.3754C120.089 86.6981 120.273 83.0208 120.344 79.3589C120.362 78.2741 120.344 78.1178 119.23 78.0443C117.257 77.9125 115.278 77.9186 113.302 77.8144C110.384 77.6643 107.472 77.4283 104.548 77.3088C102.572 77.2291 100.59 77.2291 98.614 77.3088C96.8681 77.3701 95.1284 77.6612 93.3826 77.6888C92.5173 77.6888 92.3209 77.9217 92.3117 78.7583C92.2626 82.7634 92.1338 86.7686 92.0448 90.7768C92.0233 91.7237 92.0448 92.6737 92.0448 93.8198C92.4805 93.3142 92.7321 92.9802 93.0267 92.689C93.3501 92.3562 93.7603 92.1204 94.2109 92.0083C94.6614 91.8962 95.1345 91.9123 95.5764 92.0547C96.4324 92.2937 96.7577 93.02 96.9142 93.8229C97.0307 94.4357 97.1382 95.0272 97.1995 95.6339C97.2609 96.2407 97.5646 96.4399 98.1476 96.3939C99.0681 96.3204 99.9886 96.256 100.909 96.2438C102.633 96.2254 104.358 96.2254 106.079 96.2591C106.743 96.2758 107.405 96.3465 108.058 96.4705C108.979 96.636 109.899 96.8965 110.82 97.0436C110.957 97.0435 111.092 97.0109 111.214 96.9486C111.336 96.8863 111.442 96.796 111.522 96.685C111.871 96.0823 112.168 95.4507 112.409 94.7974C113.293 92.3765 113.455 92.2661 115.784 93.2008C116.624 93.5118 117.372 94.0273 117.961 94.7005C118.551 95.3737 118.963 96.1833 119.159 97.0558C119.543 98.5512 120.015 100.037 120.445 101.53ZM128.346 40.7382C128.404 33.3622 127.575 26.0628 126.489 18.7848C126.253 17.1821 125.428 16.4681 123.912 16.1219C122.191 15.7296 120.423 15.509 118.674 15.2362C118.535 15.2271 118.396 15.2271 118.257 15.2362C116.594 15.1841 114.928 15.1535 113.268 15.0769C111.608 15.0003 110.04 14.9329 108.432 14.7705C105.475 14.464 102.526 14.0687 99.5651 13.8052C98.1323 13.6765 96.6533 13.9369 95.245 13.7163C93.9224 13.5489 92.5869 13.5058 91.2563 13.5876C89.0563 13.6397 86.8656 13.5631 84.7914 12.6499C84.5245 12.5304 83.8893 12.6499 83.8126 12.8062C83.4168 13.7071 82.9136 14.6448 82.8922 15.5978C82.8032 17.7429 82.9965 19.888 83.021 22.0331C83.0456 24.1782 83.0732 26.262 82.9781 28.3703C82.9075 29.976 82.6436 31.5695 82.4657 33.1661C82.4128 33.4393 82.3779 33.7157 82.3613 33.9935C82.4074 36.9996 82.4166 40.0089 82.5332 43.0151C82.7265 48.0468 82.9934 53.0786 83.2297 58.1103C83.3892 61.5302 83.5365 64.9531 83.7114 68.373C83.8249 70.5395 83.9875 72.703 84.1685 74.8665C84.19 75.1515 84.4109 75.6172 84.6104 75.6571C85.1351 75.7705 85.6996 76.319 86.2488 75.5529C87.4762 73.846 88.8446 73.6346 91.1765 74.8665C91.5253 75.0753 91.9123 75.2128 92.3148 75.271C93.3405 75.3527 94.3702 75.3731 95.3984 75.3323C96.9326 75.2587 98.5005 74.9584 100.044 74.9982C104.22 75.1055 108.39 75.3506 112.565 75.5222C114.876 75.6172 117.189 75.6418 119.497 75.7674C120.617 75.8256 120.681 75.9053 120.785 74.7776C120.926 73.2454 121.887 72.2954 123.053 71.56C123.461 71.3056 124.329 71.2535 124.667 71.5171C125.528 72.1593 126.257 72.9615 126.814 73.8797C127.293 74.7255 127.852 74.4007 128.435 74.3762C129.107 74.3516 129.021 73.8399 129.018 73.3986C128.978 69.0809 128.959 64.7662 128.886 60.4485C128.846 58.1103 128.726 55.7752 128.616 53.4402C128.548 51.9968 128.367 50.5566 128.346 49.1132C128.315 46.3093 128.346 43.5238 128.346 40.7382Z" fill="#2A2A2A"/>
<path d="M260.07 155.019C260.156 153.269 260.349 151.516 260.3 149.773C260.174 145.176 259.806 140.579 259.797 136.007C259.797 132.122 260.146 128.233 260.34 124.363C260.355 124.029 260.38 123.695 260.377 123.361C260.377 116.79 260.413 110.217 260.321 103.647C260.281 100.981 260.014 98.3091 259.738 95.6522C259.378 92.1404 258.957 88.6348 258.474 85.1352C258.276 83.9293 257.976 82.7422 257.578 81.5866C256.925 79.5182 256.317 77.4282 255.47 75.4394C254.78 73.8122 253.859 72.2494 252.215 71.3239C252.074 71.2443 251.908 71.1922 251.696 71.0972C251.545 71.5655 251.516 72.0648 251.612 72.5475C251.708 73.0302 251.926 73.4803 252.246 73.8551C253.93 76.0676 254.602 78.6601 255.345 81.2679C256.434 85.1015 256.136 88.9289 255.651 92.7717C255.345 95.2232 255.28 97.6747 255.817 100.145C256.372 102.722 256.56 105.379 256.943 107.996C257.084 108.958 257.357 109.899 257.505 110.861C257.643 111.624 257.7 112.399 257.673 113.175C257.666 113.343 257.624 113.509 257.548 113.66C257.473 113.811 257.366 113.945 257.236 114.053C257.105 114.16 256.954 114.239 256.791 114.284C256.628 114.329 256.457 114.34 256.29 114.314C255.624 114.219 255.206 113.591 255.2 112.847C255.188 112.162 255.129 111.479 255.025 110.803C254.596 107.827 254.105 104.861 253.712 101.882C253.375 99.3479 253.172 96.7953 252.822 94.2641C252.669 93.3598 252.402 92.4785 252.028 91.6409C251.941 91.48 251.815 91.3428 251.663 91.2414C251.51 91.1399 251.336 91.0772 251.153 91.0587C250.871 91.0832 250.564 91.4847 250.38 91.785C250.254 92.0631 250.19 92.3653 250.193 92.6706C250.039 94.1844 249.487 94.8555 247.965 94.9995C246.637 95.1252 245.293 95.0455 243.955 95.0945C243.24 95.1221 242.479 95.0945 241.807 95.3152C240.077 95.928 238.432 95.3427 236.778 95.0731C235.051 94.7911 233.403 94.5491 231.725 95.4193C230.786 95.9097 229.789 95.3243 229.451 94.2273C229.234 93.5286 229.145 92.7962 228.816 92.0669C228.644 93.2344 228.436 94.3989 228.307 95.5726C228 98.447 227.577 101.321 227.463 104.205C227.389 105.985 227.788 107.787 227.979 109.58C228.083 110.119 228.139 110.667 228.147 111.216C228.145 111.365 228.114 111.511 228.055 111.648C227.996 111.784 227.91 111.907 227.803 112.01C227.697 112.114 227.57 112.195 227.432 112.249C227.293 112.303 227.145 112.329 226.997 112.326C226.711 112.346 226.429 112.258 226.206 112.08C225.982 111.902 225.834 111.646 225.791 111.363C225.56 110.297 225.385 109.219 225.266 108.134C224.88 104.708 224.459 101.282 224.192 97.8464C223.904 94.1017 223.79 90.3478 223.563 86.6C223.33 82.7419 223.048 78.8869 222.793 75.0288C222.8 74.4723 222.777 73.9159 222.726 73.3618C222.597 72.5865 222.37 71.8296 222.183 71.0604C221.32 71.1339 220.872 71.5109 220.725 72.1084C220.457 73.0721 220.281 74.0593 220.201 75.0564C219.964 80.0881 219.621 85.123 219.63 90.1578C219.645 98.3704 219.897 106.586 220.078 114.799C220.105 116.076 220.317 117.351 220.385 118.629C220.691 124.326 220.934 130.029 221.265 135.725C221.471 139.277 221.833 142.823 222.045 146.374C222.176 148.568 222.152 150.772 222.21 152.972C222.33 157.569 222.465 162.147 222.582 166.737C222.556 167.066 222.5 167.391 222.413 167.709C221.21 168.447 220.339 168.015 220.24 166.52C220.087 164.218 219.952 161.923 219.906 159.603C219.826 155.454 219.906 151.302 219.749 147.156C219.63 143.742 219.265 140.334 219.047 136.921C218.823 133.421 218.645 129.918 218.449 126.416C218.258 123.045 218.062 119.692 217.884 116.328C217.764 114.078 217.614 111.826 217.577 109.571C217.451 102.523 217.298 95.4745 217.304 88.4264C217.304 84.7859 217.611 81.1423 217.81 77.5018C217.912 75.5651 218.05 73.6314 218.179 71.5997C217.283 71.5997 216.322 71.5599 215.365 71.5997C214.53 71.6457 213.978 71.3209 213.812 70.4383C213.685 69.7251 213.617 69.0024 213.61 68.2779C213.52 59.5914 213.441 50.9017 213.374 42.209C213.346 38.2835 213.309 34.355 213.398 30.4325C213.444 28.5204 213.822 26.6174 213.96 24.7021C214.359 19.2628 214.702 13.8204 215.086 8.3811C215.156 7.43758 215.277 6.49852 215.448 5.56798C215.48 5.27077 215.625 4.99726 215.853 4.80434C216.082 4.61143 216.376 4.51396 216.675 4.53221C216.925 4.53922 217.175 4.50717 217.415 4.43721C219.289 3.79369 221.256 3.84579 223.186 3.80595C226.518 3.73853 229.859 3.78143 233.189 3.9561C234.664 4.03271 236.11 4.56898 237.576 4.85397C239.15 5.16041 240.733 5.66911 242.314 5.66911C243.92 5.71633 245.522 5.85651 247.112 6.08893C248.662 6.26666 250.214 6.39537 251.767 6.51182C254.099 6.7247 256.38 7.32111 258.517 8.27691C259.502 8.6998 259.806 9.64057 259.849 10.6242C259.987 13.7377 260.076 16.8511 260.205 19.9645C260.226 20.5437 260.346 21.1198 260.413 21.699C260.594 23.2312 260.993 24.791 260.898 26.3171C260.756 29.1247 260.796 31.9386 261.018 34.7411C261.325 39.4327 261.325 44.1458 261.463 48.8374C261.496 49.9742 261.638 51.1081 261.72 52.245C261.89 54.4922 262.055 56.7394 262.214 58.9867L262.905 68.6334C262.939 69.1053 262.948 69.5803 262.994 70.0492C263.159 71.7591 262.221 72.7611 260.8 73.42C260.121 73.7421 259.423 74.0235 258.71 74.2627C257.815 74.5691 257.821 74.6029 258.097 75.4885C258.965 78.1882 259.975 80.8634 260.551 83.6245C261.499 88.0311 261.862 92.5357 262.224 97.0312C262.939 105.875 262.687 114.731 262.675 123.584C262.675 126.532 262.675 129.505 262.346 132.425C261.855 136.59 262.267 140.699 262.484 144.833C262.681 148.51 262.896 152.227 262.303 155.923C262.11 157.115 262.254 158.374 262.273 159.6C262.303 161.408 262.359 163.216 262.405 165.024C262.4 165.076 262.4 165.128 262.405 165.18C262.187 165.554 262.049 166.039 261.73 166.271C261.411 166.504 260.809 166.679 260.484 166.535C260.159 166.391 260.064 165.824 259.892 165.426C259.863 165.292 259.863 165.154 259.892 165.021C259.99 164.742 260.057 164.454 260.091 164.16C260.097 161.117 260.097 158.062 260.07 155.019ZM256.636 72.4271C257.103 72.3137 257.557 72.2249 258.011 72.0839C258.486 71.9266 258.953 71.7445 259.41 71.5384C260.637 70.9991 260.794 70.7662 260.653 69.4332C260.521 68.2074 260.275 67.0093 260.199 65.7927C260.042 63.3197 259.996 60.8437 259.855 58.3707C259.741 56.4003 259.548 54.4329 259.395 52.4625C259.312 51.439 259.174 50.4155 259.143 49.3981C258.99 44.4951 258.968 39.592 258.689 34.7074C258.548 32.1762 258.25 29.6664 258.572 27.1322C258.809 25.4696 258.669 23.775 258.161 22.174C258.006 21.6981 257.917 21.2031 257.897 20.7031C257.768 17.5345 257.66 14.3679 257.572 11.2034C257.554 10.612 257.357 10.2841 256.793 10.0972C254.676 9.38929 252.555 8.73657 250.279 8.80399C249.528 8.79766 248.779 8.73311 248.039 8.61093C246.578 8.42707 245.103 7.96128 243.67 8.08079C241.433 8.27078 239.393 7.44339 237.226 7.28098C237.094 7.28098 236.972 7.16147 236.84 7.13389C235.49 6.84277 234.149 6.41375 232.784 6.31263C230.875 6.1686 228.951 6.27586 227.034 6.26666C226.395 6.26666 225.757 6.19618 225.119 6.20844C223.312 6.24521 221.508 6.3157 219.703 6.3586C218.538 6.38618 217.399 7.2963 217.341 8.43626C217.056 13.8817 216.66 19.321 216.264 24.7603C216.123 26.7032 215.739 28.6337 215.696 30.5827C215.607 34.6461 215.644 38.7126 215.675 42.779C215.736 51.2736 215.831 59.7681 215.896 68.2595C215.896 68.8571 216.006 69.2064 216.693 69.2187C218.188 69.2493 219.676 69.3321 221.112 68.7529C222.486 68.2013 223.588 68.471 223.978 69.5435C224.426 70.7846 225.318 71.1033 226.487 71.1769C227.176 71.2529 227.859 71.3686 228.534 71.5231C230.28 71.8296 232.016 72.326 233.775 72.4179C236.889 72.5804 240.019 72.4425 243.136 72.5497C244.314 72.5895 245.486 72.9328 246.649 73.1932C247.517 73.3894 248.367 73.5426 249.18 73.3097C249.18 72.5129 249.134 71.8173 249.18 71.1278C249.377 68.7621 250.948 67.9255 253.031 69.0471C253.105 69.0839 253.175 69.1329 253.249 69.1697C254.731 69.8745 255.716 71.1094 256.636 72.4179V72.4271ZM253.629 89.4652C253.656 89.4248 253.676 89.3803 253.688 89.3334C253.706 89.1404 253.706 88.9443 253.724 88.7512C253.971 86.1113 253.675 83.4489 252.853 80.9278C252.359 79.3956 251.782 77.894 251.15 76.417C251 76.0646 250.448 75.611 250.132 75.6478C248.202 75.8715 246.394 75.3414 244.529 75.0349C242.568 74.704 240.54 74.7285 238.533 74.7591C234.741 74.7867 230.952 74.8756 227.31 73.5518C227.011 73.4672 226.7 73.43 226.389 73.4414C224.981 73.3924 224.892 73.5089 225.101 74.9399C225.3 76.0348 225.44 77.1396 225.521 78.2495C225.677 82.5397 225.766 86.8298 225.895 91.0985C225.914 91.7114 226.027 92.3243 226.095 92.9219H226.316C226.475 92.0853 226.543 91.215 226.825 90.4213C227.046 89.8084 227.414 89.0975 227.93 88.7573C229.326 87.838 230.918 88.7573 231.228 90.5316C231.332 91.1445 231.326 91.7574 231.458 92.3519C231.498 92.5327 231.894 92.8115 232.041 92.7656C233.759 92.2262 235.456 92.4867 237.165 92.8054C238.874 93.1241 240.608 93.501 242.338 92.7778C242.717 92.6814 243.111 92.6605 243.498 92.7165C244.474 92.7349 245.446 92.7932 246.422 92.7993C247.701 92.7993 247.701 92.7993 247.999 91.5582C248.502 89.4744 249.73 88.4723 251.681 88.7144C252.335 88.7819 252.945 89.1802 253.629 89.456V89.4652Z" fill="#2A2A2A"/>
<path d="M31.3329 118.553C31.3329 119.309 31.3329 119.827 31.3329 120.348C31.3329 121.007 31.0629 121.516 30.3633 121.602C30.2099 121.634 30.0512 121.632 29.8984 121.597C29.7456 121.562 29.6022 121.494 29.4782 121.398C29.3542 121.302 29.2525 121.181 29.1802 121.042C29.1079 120.903 29.0666 120.75 29.0593 120.593C28.9619 119.547 28.9908 118.492 29.1452 117.452C29.2925 116.548 30.1056 116.104 31.1212 116.144C32.6154 116.205 33.6985 117.121 34.7632 118.007C34.9903 118.197 35.0547 118.834 34.9166 119.135C34.8146 119.305 34.6744 119.448 34.5072 119.555C34.34 119.661 34.1504 119.727 33.9532 119.748C33.4899 119.748 33.0112 119.49 32.5633 119.288C32.1397 119.066 31.729 118.82 31.3329 118.553Z" fill="#2A2A2A"/>
<path d="M39.6572 111.869C39.6407 112.233 39.4853 112.577 39.2227 112.83C38.9602 113.083 38.6106 113.226 38.2458 113.23C38.0859 113.243 37.925 113.224 37.7728 113.173C37.6206 113.122 37.4804 113.041 37.3607 112.934C37.2409 112.828 37.1442 112.698 37.0764 112.553C37.0086 112.407 36.9712 112.25 36.9663 112.09C36.9663 111.388 37.6076 110.806 38.4237 110.787C38.5767 110.773 38.731 110.79 38.8772 110.837C39.0234 110.885 39.1584 110.962 39.2738 111.063C39.3893 111.164 39.4829 111.288 39.5488 111.426C39.6147 111.565 39.6516 111.716 39.6572 111.869Z" fill="#2A2A2A"/>
<path d="M20.6185 114.164C21.2935 114.186 21.7722 114.777 21.7384 115.556C21.7386 115.721 21.7052 115.885 21.6403 116.037C21.5754 116.189 21.4803 116.327 21.3607 116.441C21.2412 116.556 21.0996 116.645 20.9447 116.703C20.7897 116.762 20.6245 116.788 20.459 116.781C20.1375 116.757 19.8381 116.609 19.6239 116.368C19.4098 116.127 19.2978 115.813 19.3114 115.491C19.3137 115.144 19.4515 114.811 19.6955 114.563C19.9396 114.315 20.2706 114.172 20.6185 114.164Z" fill="#2A2A2A"/>
<path d="M103.941 108.569C103.772 109.182 103.585 109.795 103.437 110.407C103.29 111.02 102.98 111.44 102.321 111.44C101.661 111.44 101.268 110.99 101.133 110.358C100.875 109.179 102.054 106.752 103.127 106.194C103.456 106.002 103.833 105.907 104.213 105.922C104.594 105.937 104.962 106.06 105.275 106.277C106.497 107.08 107.385 108.298 107.776 109.706C107.809 109.936 107.785 110.17 107.705 110.389C107.626 110.607 107.494 110.803 107.322 110.959C107.015 111.152 106.364 111.023 105.981 110.821C105.656 110.653 105.505 110.168 105.263 109.834C104.932 109.378 104.588 108.933 104.25 108.483L103.941 108.569Z" fill="#2A2A2A"/>
<path d="M113.127 105.734C113.111 106.082 112.967 106.411 112.722 106.659C112.477 106.907 112.149 107.056 111.801 107.076C111.649 107.08 111.497 107.053 111.355 106.997C111.214 106.941 111.084 106.857 110.975 106.751C110.866 106.644 110.779 106.517 110.72 106.377C110.661 106.236 110.63 106.086 110.629 105.933C110.626 105.761 110.657 105.589 110.721 105.428C110.784 105.267 110.879 105.121 111 104.997C111.121 104.873 111.265 104.774 111.424 104.706C111.583 104.638 111.754 104.602 111.927 104.6C112.235 104.598 112.532 104.715 112.755 104.927C112.979 105.138 113.112 105.427 113.127 105.734Z" fill="#2A2A2A"/>
<path d="M97.5831 105.802C97.5952 105.946 97.5767 106.092 97.5288 106.229C97.481 106.366 97.4048 106.491 97.3053 106.597C97.2058 106.703 97.0852 106.786 96.9512 106.843C96.8172 106.899 96.6729 106.926 96.5276 106.923C96.3879 106.928 96.2486 106.905 96.1185 106.853C95.9884 106.802 95.8704 106.725 95.7718 106.626C95.6733 106.527 95.5963 106.408 95.5458 106.278C95.4952 106.148 95.4723 106.008 95.4783 105.869C95.4721 105.73 95.4951 105.592 95.5457 105.462C95.5964 105.333 95.6736 105.215 95.7725 105.117C95.8713 105.019 95.9896 104.943 96.1196 104.894C96.2497 104.844 96.3887 104.823 96.5276 104.83C96.7955 104.823 97.0554 104.921 97.2524 105.102C97.4495 105.284 97.5681 105.534 97.5831 105.802Z" fill="#2A2A2A"/>
<path d="M239.595 103.427C239.368 104.156 239.249 104.61 239.086 105.045C238.85 105.673 238.448 106.108 237.705 105.982C237.545 105.953 237.393 105.888 237.26 105.795C237.126 105.701 237.015 105.579 236.933 105.439C236.851 105.298 236.8 105.141 236.784 104.979C236.768 104.817 236.787 104.653 236.84 104.499C237.157 103.412 237.573 102.357 238.083 101.346C238.448 100.629 239.31 100.375 239.875 100.816C241.022 101.708 242.412 102.348 243.096 103.77C243.532 104.668 243.489 105.327 242.857 105.67C242.225 106.013 241.47 105.685 240.948 104.947C240.525 104.416 240.074 103.908 239.595 103.427Z" fill="#2A2A2A"/>
<path d="M233.029 102.18C233.012 102.557 232.845 102.913 232.567 103.169C232.288 103.425 231.919 103.56 231.541 103.546C231.381 103.557 231.221 103.534 231.07 103.481C230.919 103.428 230.78 103.344 230.662 103.235C230.545 103.127 230.45 102.995 230.385 102.849C230.32 102.703 230.285 102.545 230.283 102.385C230.283 101.701 231.019 101.079 231.848 101.055C232.001 101.045 232.154 101.067 232.298 101.119C232.442 101.172 232.574 101.253 232.685 101.359C232.796 101.465 232.884 101.592 232.943 101.733C233.002 101.874 233.031 102.026 233.029 102.18Z" fill="#2A2A2A"/>
<path d="M247.379 99.9487C247.525 99.9453 247.671 99.9716 247.806 100.026C247.942 100.081 248.065 100.162 248.168 100.266C248.271 100.369 248.352 100.492 248.406 100.628C248.459 100.764 248.485 100.909 248.481 101.055C248.464 101.403 248.319 101.734 248.074 101.982C247.829 102.231 247.501 102.381 247.152 102.403C247.006 102.405 246.861 102.377 246.726 102.322C246.591 102.266 246.469 102.184 246.366 102.08C246.264 101.976 246.183 101.853 246.13 101.717C246.076 101.582 246.05 101.437 246.054 101.291C246.068 100.942 246.211 100.612 246.457 100.364C246.702 100.115 247.031 99.9674 247.379 99.9487Z" fill="#2A2A2A"/>
<path d="M260.071 155.019C260.086 158.083 260.104 161.126 260.101 164.182C260.067 164.475 260 164.764 259.901 165.043C259.88 162.242 259.849 159.444 259.855 156.643C259.89 156.098 259.962 155.555 260.071 155.019Z" fill="#B3B3B3"/>
<path d="M177.061 112.117C176.969 112.424 176.966 112.66 176.846 112.773C176.539 113.055 176.186 113.469 175.843 113.478C175.634 113.45 175.433 113.378 175.254 113.266C175.076 113.154 174.924 113.005 174.809 112.828C174.609 112.464 174.547 112.039 174.637 111.633C174.794 110.814 175.037 110.014 175.361 109.246C175.904 108.02 177.122 107.928 177.932 108.995C178.184 109.326 178.457 109.644 178.711 109.972C178.857 110.14 178.981 110.325 179.08 110.524C179.365 111.201 179.482 111.906 178.846 112.442C178.211 112.978 177.653 112.641 177.061 112.117Z" fill="#2A2A2A"/>
<path d="M180.629 106.178C180.467 106.181 180.307 106.151 180.157 106.09C180.006 106.03 179.87 105.939 179.756 105.825C179.641 105.711 179.551 105.575 179.49 105.425C179.429 105.275 179.399 105.114 179.402 104.953C179.394 104.778 179.422 104.604 179.485 104.441C179.547 104.279 179.644 104.131 179.767 104.007C179.89 103.883 180.038 103.787 180.2 103.723C180.363 103.66 180.537 103.631 180.712 103.638C181.049 103.624 181.379 103.741 181.633 103.964C181.886 104.188 182.043 104.5 182.071 104.836C182.08 105.514 181.375 106.163 180.629 106.178Z" fill="#2A2A2A"/>
<path d="M170.998 106.16C170.986 106.496 170.842 106.814 170.597 107.044C170.351 107.274 170.024 107.397 169.688 107.386C169.374 107.393 169.071 107.278 168.841 107.065C168.612 106.852 168.475 106.558 168.46 106.246C168.46 105.921 168.59 105.609 168.82 105.379C169.05 105.149 169.362 105.02 169.688 105.02C169.85 105.003 170.014 105.019 170.169 105.068C170.325 105.117 170.469 105.197 170.592 105.304C170.715 105.411 170.814 105.543 170.884 105.69C170.954 105.837 170.993 105.997 170.998 106.16Z" fill="#2A2A2A"/>
<path d="M8.66754 82.6347C7.89433 82.5336 7.24385 82.411 6.58724 82.3742C6.49037 82.3835 6.39262 82.3729 6.3 82.3431C6.20738 82.3133 6.12182 82.2649 6.04857 82.2009C5.97532 82.137 5.91594 82.0587 5.87403 81.971C5.83212 81.8833 5.80855 81.788 5.80481 81.6909C5.6606 80.6428 5.498 79.5948 5.363 78.5498C5.19731 77.3639 4.97331 76.1841 4.8874 74.9951C4.74626 73.0829 4.72477 71.1616 4.60818 69.2494C4.52534 67.8336 4.37195 66.424 4.24921 65.0113C4.00682 62.2533 3.61408 59.4739 3.55578 56.7007C3.44226 51.1847 3.40542 45.6688 3.53735 40.1529C3.65702 35.1763 4.03749 30.2028 4.30749 25.2292C4.41488 23.2558 4.52536 21.2823 4.66957 19.3119C4.73662 19.0608 4.86648 18.8309 5.04696 18.6438C5.14208 18.5151 5.3538 18.4416 5.40596 18.3067C5.71279 17.2097 6.63325 17.3261 7.48929 17.2036C9.52049 16.8971 11.5425 16.5202 13.5768 16.2291C14.7028 16.0667 15.8473 16.0299 16.9826 15.9226C17.5072 15.8705 18.0288 15.7725 18.5504 15.6989C19.5323 15.561 20.5295 15.2546 21.499 15.3189C23.7143 15.466 25.9174 15.8062 28.1296 16.0483C28.958 16.1402 29.7957 16.1647 30.6272 16.2413C32.5397 16.415 34.4502 16.5968 36.3587 16.7868C36.7145 16.8576 37.0741 16.9078 37.4357 16.937C41.0961 16.8634 44.5725 18.1259 48.1746 18.4201C49.4019 18.5213 50.0555 19.2414 50.3224 20.3201C50.6409 21.5863 50.8615 22.8751 50.9821 24.1751C51.1458 26.3385 51.2276 28.5051 51.2276 30.6747C51.2276 33.2365 50.9975 35.7984 51.0772 38.3541C51.203 42.4113 51.1815 46.5146 51.8044 50.5044C52.642 55.8671 52.6267 61.2574 53.0317 66.6324C53.3385 70.6835 53.4766 74.7439 53.719 78.7981C53.765 79.5887 53.4827 79.9288 52.6942 79.9442C52.2094 79.9442 51.5835 80.2751 51.2767 80.0698C50.9698 79.8645 50.9361 79.1811 50.7765 78.7123C50.3592 77.4865 48.9356 76.4507 47.7267 76.4661C46.3674 76.4844 45.4193 77.2199 44.9898 78.7306C44.7672 79.5916 44.6123 80.4687 44.5264 81.3538C44.4651 81.8686 44.2779 82.0647 43.7502 82.0954C38.3838 82.4018 33.0112 82.601 27.6571 83.0852C24.7576 83.3456 21.8826 83.551 18.9861 83.3211C17.903 83.2323 16.8383 83.0852 15.743 82.9932C15.1661 82.9473 14.9422 82.6408 14.844 82.1015C14.7275 81.4994 14.5644 80.9072 14.3561 80.3303C13.9357 79.1535 13.1564 78.9237 11.9751 79.27C10.1495 79.8032 9.01425 80.8849 8.66754 82.6347Z" fill="#FEFEFE"/>
<path d="M150.839 39.3347C150.419 30.1017 151.269 20.9023 151.56 11.6907C151.588 10.8296 151.56 9.95935 151.662 9.10438C151.711 8.67261 151.897 8.26782 152.192 7.9491C153.693 6.49964 155.245 5.17275 157.365 4.59664C159.394 4.04199 161.354 3.19315 163.339 2.51898C163.845 2.36561 164.372 2.29119 164.901 2.29834C168.531 2.26463 172.182 2.36269 175.695 3.26056C178.65 4.01747 181.669 3.82748 184.63 4.36068C187.591 4.89389 190.586 5.13598 193.528 5.63854C195.139 5.91127 196.725 6.39851 198.017 7.51395C198.073 7.57616 198.142 7.62533 198.22 7.65798C199.594 8.09619 199.754 9.14422 199.597 10.3608C199.407 11.8225 199.195 13.2812 199.048 14.749C198.842 16.8451 198.582 18.9472 198.532 21.0494C198.474 23.7216 198.747 26.4029 198.615 29.0659C198.499 31.4776 197.937 33.8617 197.738 36.2734C197.379 40.5635 197.035 44.8721 196.882 49.1806C196.658 55.4412 196.612 61.7049 196.471 67.9685C196.443 69.277 196.357 70.5824 196.244 71.8848C196.225 72.0349 196.173 72.1789 196.09 72.3058C196.008 72.4327 195.898 72.5392 195.768 72.6172C195.056 72.8502 194.325 73.0194 193.583 73.1228C191.911 73.3711 190.208 73.4293 188.646 74.2321C187.886 74.6152 187.456 73.7909 186.904 73.466C186.775 73.3864 186.713 73.1933 186.597 73.0646C185.649 71.9185 184.345 72.0166 183.722 73.3496C183.415 73.9962 183.068 74.1801 182.378 74.1126C179.81 73.8614 177.239 73.6131 174.661 73.4814C173.867 73.4415 173.032 73.7143 172.256 73.9655C170.758 74.4558 169.286 74.0973 167.794 74.0115C166.371 73.9318 165.576 73.3465 165.552 71.845C165.549 71.345 165.445 70.8508 165.245 70.3924C165.015 69.896 164.705 69.2464 164.275 69.087C163.846 68.9277 163.094 69.1452 162.707 69.467C161.842 70.1902 160.955 70.9563 160.652 72.1361C160.523 72.6264 160.201 72.7704 159.768 72.5682C157.899 71.6856 155.89 71.6489 153.886 71.5355C152.588 71.4558 152.505 71.3731 152.413 70.1136C152.128 66.087 151.852 62.0573 151.649 58.0276C151.364 51.7976 151.115 45.5646 150.839 39.3347Z" fill="#FEFEFE"/>
<path d="M128.346 40.7382C128.346 43.5237 128.315 46.3093 128.346 49.0917C128.367 50.5351 128.548 51.9754 128.616 53.4187C128.726 55.7538 128.846 58.0888 128.886 60.427C128.959 64.7447 128.978 69.0594 129.018 73.3771C129.018 73.8184 129.107 74.3302 128.435 74.3547C127.852 74.3792 127.293 74.704 126.814 73.8583C126.257 72.94 125.528 72.1378 124.667 71.4956C124.329 71.2321 123.461 71.2842 123.053 71.5385C121.887 72.274 120.926 73.2209 120.785 74.7561C120.681 75.8838 120.617 75.8042 119.497 75.7459C117.189 75.6203 114.876 75.5958 112.565 75.5008C108.39 75.3292 104.22 75.084 100.044 74.9768C98.5097 74.9369 96.9479 75.2372 95.3984 75.3108C94.3702 75.3516 93.3405 75.3312 92.3148 75.2495C91.9123 75.1913 91.5253 75.0538 91.1765 74.845C88.8446 73.6192 87.4731 73.8245 86.2488 75.5314C85.6996 76.2975 85.1351 75.749 84.6104 75.6356C84.4109 75.5958 84.19 75.13 84.1685 74.845C83.9875 72.6815 83.8249 70.5181 83.7114 68.3515C83.5303 64.9316 83.4045 61.5087 83.2297 58.0888C82.9934 53.0571 82.7265 48.0253 82.5332 42.9936C82.4166 39.9874 82.4074 36.9782 82.3613 33.972C82.3779 33.6942 82.4128 33.4178 82.4657 33.1446C82.6436 31.548 82.9075 29.9545 82.9781 28.3488C83.0732 26.2405 83.0486 24.123 83.021 22.0116C82.9934 19.9002 82.8032 17.7215 82.8922 15.5764C82.929 14.6295 83.4322 13.6856 83.8126 12.7847C83.8893 12.6131 84.5245 12.5089 84.7914 12.6284C86.8656 13.5477 89.0563 13.6182 91.2563 13.5661C92.5869 13.4844 93.9224 13.5275 95.245 13.6948C96.6533 13.9155 98.1323 13.655 99.5651 13.7837C102.526 14.0472 105.475 14.4548 108.432 14.749C110.04 14.9114 111.654 14.9819 113.268 15.0554C114.882 15.129 116.594 15.1627 118.257 15.2148C118.396 15.2056 118.535 15.2056 118.674 15.2148C120.423 15.4998 122.191 15.7081 123.912 16.1004C125.428 16.4467 126.253 17.1607 126.489 18.7633C127.575 26.0628 128.404 33.3622 128.346 40.7382Z" fill="#FEFEFE"/>
<path d="M120.445 101.53H120.982C121.077 102.477 121.169 103.427 121.264 104.377L120.994 104.416C120.798 103.451 120.629 102.489 120.445 101.53Z" fill="#B3B3B3"/>
<path d="M256.636 72.418C255.716 71.1095 254.731 69.8746 253.261 69.133C253.188 69.0962 253.117 69.0472 253.043 69.0104C250.96 67.8888 249.389 68.7254 249.193 71.0911C249.137 71.7806 249.193 72.4762 249.193 73.273C248.38 73.5059 247.53 73.3527 246.661 73.1565C245.499 72.8961 244.326 72.5437 243.148 72.513C240.031 72.4058 236.901 72.5437 233.787 72.3813C232.029 72.2893 230.292 71.799 228.546 71.4864C227.871 71.3319 227.188 71.2163 226.5 71.1402C225.331 71.0666 224.438 70.7479 223.99 69.5068C223.6 68.4343 222.499 68.1646 221.124 68.7162C219.688 69.2954 218.2 69.2127 216.706 69.182C216.019 69.182 215.911 68.8204 215.908 68.2229C215.844 59.7314 215.749 51.2369 215.687 42.7423C215.656 38.6759 215.62 34.6094 215.709 30.546C215.752 28.6062 216.135 26.6757 216.276 24.7236C216.672 19.2843 217.068 13.845 217.353 8.39957C217.412 7.25961 218.55 6.34949 219.716 6.32191C221.52 6.279 223.324 6.20853 225.131 6.17175C225.77 6.17175 226.408 6.22691 227.046 6.22998C228.964 6.22998 230.887 6.13191 232.796 6.27594C234.161 6.37707 235.502 6.80608 236.852 7.0972C236.984 7.12478 237.107 7.2351 237.239 7.24429C239.387 7.40671 241.433 8.2341 243.682 8.0441C245.115 7.92459 246.591 8.39038 248.051 8.57424C248.792 8.69643 249.541 8.76098 250.291 8.7673C252.568 8.69989 254.688 9.3526 256.805 10.0605C257.37 10.2505 257.566 10.5753 257.584 11.1667C257.666 14.3353 257.775 17.5019 257.91 20.6664C257.93 21.1665 258.018 21.6614 258.174 22.1373C258.677 23.7457 258.81 25.4469 258.563 27.1139C258.241 29.6481 258.539 32.1579 258.68 34.6891C258.959 39.5921 258.987 44.4952 259.134 49.3798C259.165 50.4064 259.303 51.4299 259.386 52.4442C259.545 54.4147 259.732 56.382 259.846 58.3524C259.987 60.8254 260.033 63.3014 260.189 65.7744C260.266 67.0002 260.496 68.1983 260.644 69.4149C260.785 70.7479 260.644 70.9808 259.401 71.5202C258.944 71.7262 258.477 71.9083 258.002 72.0656C257.566 72.2158 257.103 72.3046 256.636 72.418Z" fill="#FEFEFE"/>
<path d="M18.1111 45.6622L18 45.6837C18.2962 45.5312 20.7983 44.3739 21.9183 43.8469C22.8515 43.3847 24.4898 42.5618 24.8492 42.3584C24.8168 42.3938 24.7952 42.4154 24.786 42.4262C24.7767 42.4354 24.7181 42.4817 24.6857 42.5079" stroke="#2A2A2A" stroke-width="2.5" stroke-linecap="round" stroke-linejoin="round"/>
<path d="M19.0104 50.5654C18.9117 50.6009 18.8592 50.681 18.8377 50.8967C18.7975 51.2897 18.6834 54.3469 18.6402 55.6135C18.6356 55.8077 18.6294 56.1914 18.6417 56.2915C18.651 56.3593 18.6788 56.5304 18.7281 56.8047L18.8022 56.8247" stroke="#2A2A2A" stroke-width="2.5" stroke-linecap="round" stroke-linejoin="round"/>
<path d="M19.0999 50.3959C19.1292 50.2603 19.1539 50.1724 19.1724 50.1339C19.2727 49.9382 20.027 49.5191 20.8184 49.1708C22.1882 48.5837 24.6981 47.8071 25.0899 47.935C25.258 47.9951 25.4231 48.3187 25.4431 48.536C25.494 49.3095 25.2025 51.419 24.9804 52.4253C24.7089 53.6488 24.3263 54.7968 24.28 54.8985C24.2615 54.9401 24.2229 55.0125 24.1658 55.1173" stroke="#2A2A2A" stroke-width="2.5" stroke-linecap="round" stroke-linejoin="round"/>
<path d="M19.6012 53.7968L19.3405 53.8045C19.3683 53.7737 19.4439 53.7367 19.7478 53.6134C20.1998 53.4254 21.2611 52.9863 21.8689 52.7366C22.5507 52.4623 23.7478 52.0386 23.8651 52.0309C23.8974 52.0293 23.9376 52.0432 23.9869 52.074" stroke="#2A2A2A" stroke-width="2.5" stroke-linecap="round" stroke-linejoin="round"/>
<path d="M19.3498 56.9988L19.2079 57.0989C21.3429 56.6829 23.1755 55.6119 23.3544 55.4979C23.3899 55.4763 23.4516 55.4378 23.5426 55.3823" stroke="#2A2A2A" stroke-width="2.5" stroke-linecap="round" stroke-linejoin="round"/>
<path d="M18.0739 62.5539C18.1078 62.5261 18.1926 62.4799 18.512 62.315C20.9246 61.0777 25.3782 58.7894 25.4615 58.7616C25.5155 58.7447 25.6265 58.7185 25.7947 58.6815" stroke="#2A2A2A" stroke-width="2.5" stroke-linecap="round" stroke-linejoin="round"/>
<path d="M22.3733 41.9392L22.3733 41.8868C22.3672 43.8223 22.2576 47.6453 22.0772 50.6255C21.7285 55.7414 21.2349 63.295 21.0914 65.7343C21.0343 66.8792 20.9464 67.8685 20.9171 67.9455C20.9017 67.984 20.8662 68.0133 20.8091 68.0318L20.7659 67.944" stroke="#2A2A2A" stroke-width="2.5" stroke-linecap="round" stroke-linejoin="round"/>
<path d="M33.3148 43.793C33.3148 43.8238 33.3164 43.8546 33.3179 43.887C33.3472 44.3046 33.4133 45.3354 33.4133 46.0597C33.4118 46.6791 33.3087 48.8025 33.2825 49.2664C33.2564 49.6408 33.2148 50.1986 33.1994 50.3804C33.1964 50.4128 33.1964 50.4467 33.1979 50.4837" stroke="#2A2A2A" stroke-width="2.5" stroke-linecap="round" stroke-linejoin="round"/>
<path d="M33.4632 48.1909C33.6237 48.1339 34.1589 47.9459 34.307 47.8888C34.9349 47.6485 37.9877 46.2832 38.5786 46.1476C39.2141 46.0028 39.4116 46.0043 39.6892 46.0505C39.6692 46.4496 39.2558 47.4327 39.0136 48.0121C38.7575 48.6254 38.3657 49.6686 38.2577 49.9984C38.2376 50.0554 38.2006 50.174 38.1466 50.3528" stroke="#2A2A2A" stroke-width="2.5" stroke-linecap="round" stroke-linejoin="round"/>
<path d="M33.8165 53.6349L33.8011 53.5872C33.7887 53.7074 33.761 54.7259 33.6653 55.2236C33.3121 57.008 32.1381 59.8079 31.4625 61.2363C30.7899 62.58 30.4798 63.0485 30.4243 63.1086C30.4058 63.1286 30.3718 63.161 30.3209 63.2041" stroke="#2A2A2A" stroke-width="2.5" stroke-linecap="round" stroke-linejoin="round"/>
<path d="M33.8165 56.5304L33.6684 56.4764C33.9492 56.5674 35.0861 57.1221 36.3078 57.8571C40.7968 60.5876 46.0988 63.7835 46.9118 64.2504C47.9469 64.8144 49.3445 65.571 49.707 65.7636" stroke="#2A2A2A" stroke-width="2.5" stroke-linecap="round" stroke-linejoin="round"/>
<path d="M92.2772 42.0749L92.1275 42.1334C92.126 42.1334 92.1244 42.1288 92.126 42.1273C92.9281 41.7282 94.6682 41.121 96.5903 40.5278C97.1703 40.3567 98.082 40.0825 98.1684 40.0671C98.2548 40.0516 98.4461 40.027 98.7454 39.9946" stroke="#2A2A2A" stroke-width="2.5" stroke-linecap="round" stroke-linejoin="round"/>
<path d="M93.4125 46.2292C93.3154 46.4203 93.1642 49.1447 93.1009 50.3959C93.0901 50.6147 93.0639 51.2111 93.0485 51.5902C93.0439 51.7535 93.0361 52.2343 93.0346 52.4515C93.033 52.5594 93.0315 52.6657 93.03 52.772" stroke="#2A2A2A" stroke-width="2.5" stroke-linecap="round" stroke-linejoin="round"/>
<path d="M93.8846 46.5821C93.9818 46.314 94.0635 46.1352 94.1715 46.0243C94.6142 45.5774 97.3447 43.8762 97.8167 43.907C98.0898 43.9317 98.406 44.1505 98.5078 44.3755C98.7099 44.864 98.8318 45.8578 98.8333 46.4496C98.8318 47.086 98.7701 48.0845 98.696 48.7147C98.6297 49.2679 98.4507 50.2125 98.3674 50.5207C98.315 50.718 98.2116 51.0539 98.1484 51.2403" stroke="#2A2A2A" stroke-width="2.5" stroke-linecap="round" stroke-linejoin="round"/>
<path d="M93.9448 49.704C94.3027 49.5961 95.2868 49.2217 95.8669 49.0013C96.4515 48.7779 97.3632 48.4312 97.445 48.3973C97.5221 48.3649 97.6918 48.2925 97.9525 48.1785" stroke="#2A2A2A" stroke-width="2.5" stroke-linecap="round" stroke-linejoin="round"/>
<path d="M93.485 53.2805C94.0219 53.1388 94.5587 52.9431 95.256 52.6118C96.3713 52.0601 97.6625 51.4191 97.8399 51.3297C97.9077 51.2958 97.9756 51.2619 98.0435 51.228" stroke="#2A2A2A" stroke-width="2.5" stroke-linecap="round" stroke-linejoin="round"/>
<path d="M92.5363 59.5537C92.9559 59.3811 94.8564 58.1314 96.3883 57.0173C97.4064 56.2499 98.7562 55.2298 99.0894 54.9786C99.1835 54.9108 99.2776 54.8415 99.3732 54.7737" stroke="#2A2A2A" stroke-width="2.5" stroke-linecap="round" stroke-linejoin="round"/>
<path d="M96.5394 38L96.5394 38.3828C96.5394 38.3797 96.5394 38.3905 96.5394 38.3905C96.4993 39.9222 96.1707 45.2338 96.0026 47.8749C95.6987 53.017 95.4781 59.8988 95.4303 62.3319C95.4087 63.0762 95.3933 63.2211 95.3825 63.238" stroke="#2A2A2A" stroke-width="2.5" stroke-linecap="round" stroke-linejoin="round"/>
<path d="M107.644 39.2381C107.646 39.2334 107.66 40.3568 107.658 41.0872C107.652 42.2321 107.641 43.867 107.637 44.357C107.626 45.0258 107.606 45.6144 107.6 45.8163" stroke="#2A2A2A" stroke-width="2.5" stroke-linecap="round" stroke-linejoin="round"/>
<path d="M108.544 44.9255L108.49 44.9101C108.823 44.5079 109.357 44.135 110.867 43.4231C112.447 42.7004 112.725 42.6295 113.172 42.5325C113.383 42.7497 113.476 42.9131 113.477 43.1319C113.476 43.5711 113.248 44.5295 113.069 44.9733C112.726 45.8039 112.132 46.8286 112.001 47.052" stroke="#2A2A2A" stroke-width="2.5" stroke-linecap="round" stroke-linejoin="round"/>
<path d="M108.396 50.1802C108.396 50.1817 108.353 50.9137 108.216 51.4746C107.963 52.4823 107.248 54.3561 106.58 55.5719C106.003 56.5982 105.066 58.2038 104.792 58.6645C104.63 58.9404 104.427 59.2609 104.212 59.5768C104.162 59.6507 104.092 59.7494 104.004 59.8726" stroke="#2A2A2A" stroke-width="2.5" stroke-linecap="round" stroke-linejoin="round"/>
<path d="M109.001 53.2944L108.89 53.2112C109.783 53.5379 114.091 56.3516 116.174 57.723C118.36 59.1453 121.369 61.0807 122.756 61.8496C122.79 61.8666 122.806 61.8805 122.804 61.8897" stroke="#2A2A2A" stroke-width="2.5" stroke-linecap="round" stroke-linejoin="round"/>
<path d="M165.803 32.8511C165.803 33.0052 165.794 35.0885 165.785 37.0193C165.74 39.8207 165.53 45.2771 165.41 47.8505C165.259 50.3175 164.812 56.4566 164.58 57.865C164.514 58.2518 164.387 59.013 164.29 59.4737C164.247 59.6725 164.204 59.8559 164.187 59.9114" stroke="#2A2A2A" stroke-width="2.5" stroke-linecap="round" stroke-linejoin="round"/>
<path d="M168.045 35.5261L167.991 35.503C168.193 35.372 170.698 34.3611 171.895 33.922C173.058 33.529 175.331 32.7817 176.486 32.4319C177.406 32.1715 179.746 31.6106 180.983 31.4087C182.191 31.2238 185.575 31.0127 185.676 31.005C185.905 30.9896 186.575 31.0096 186.728 31.0682C187.052 31.2022 187.261 31.5073 187.343 31.9326C187.524 32.8926 187.991 36.9746 188.114 40.4725C188.156 42.9965 188.187 48.0076 188.128 50.7274C188.027 53.0881 187.815 58.9991 187.778 59.4352C187.652 60.9083 187.318 62.0702 187.102 62.4816C186.831 62.4723 186.445 62.4292 186.317 62.3645C186.294 62.3521 185.676 61.5185 185.089 60.8883C184.48 60.2565 184.209 59.9945 183.988 59.7988C183.939 59.7557 183.897 59.7218 183.861 59.6956" stroke="#2A2A2A" stroke-width="2.5" stroke-linecap="round" stroke-linejoin="round"/>
<path d="M170.478 62.5093L170.439 62.517C170.67 62.3706 171.571 61.9854 172.95 61.6094C175.287 61.0161 179.496 60.1101 182.012 59.6617C182.541 59.5723 183.446 59.4182 183.968 59.4136L184.04 59.523" stroke="#2A2A2A" stroke-width="2.5" stroke-linecap="round" stroke-linejoin="round"/>
<path d="M174.149 35.1378C174.149 35.2965 174.15 35.6556 174.152 35.8559C174.158 36.4507 174.175 37.6418 174.186 38.2382C174.201 38.7621 174.225 39.5695 174.229 39.6466C174.234 39.7098 174.245 39.8454 174.263 40.0518" stroke="#2A2A2A" stroke-width="2.5" stroke-linecap="round" stroke-linejoin="round"/>
<path d="M174.636 37.0146C174.883 36.7927 175.863 36.3212 176.103 36.2549C176.381 36.1779 176.825 36.1116 177.091 36.0931C177.367 36.4707 177.55 37.2812 177.5 38.0948C177.438 38.9731 177.094 40.6266 176.987 40.9424" stroke="#2A2A2A" stroke-width="2.5" stroke-linecap="round" stroke-linejoin="round"/>
<path d="M175.639 41.4402C175.486 41.4402 175.17 41.4402 175.007 41.4402C174.968 41.4402 174.923 41.4402 174.874 41.4386L176.407 40.9039C176.461 40.9933 176.478 41.1381 176.466 41.5373C176.454 41.9256 176.446 42.3956 176.448 42.7993C176.448 42.9487 176.449 43.0982 176.451 43.2477" stroke="#2A2A2A" stroke-width="2.5" stroke-linecap="round" stroke-linejoin="round"/>
<path d="M168.634 48.5053C168.654 48.4205 168.768 48.3004 169.024 48.1216C169.752 47.6193 171.863 46.6886 172.953 46.2216C174.211 45.6962 176.73 44.6499 177.992 44.126C179.116 43.6606 181.574 42.6513 182.164 42.4864C182.619 42.3616 182.72 42.434 182.755 42.4895" stroke="#2A2A2A" stroke-width="2.5" stroke-linecap="round" stroke-linejoin="round"/>
<path d="M173.25 49.8906C173.109 50.2866 173.063 50.4839 173.044 50.8136C173.043 50.8321 172.907 52.6443 172.859 53.3577C172.822 53.9679 172.737 55.4195 172.728 56.005C172.727 56.1807 172.742 56.6615 172.747 56.8063" stroke="#2A2A2A" stroke-width="2.5" stroke-linecap="round" stroke-linejoin="round"/>
<path d="M173.472 49.7211C173.532 49.5994 174.269 49.3004 174.71 49.1556C175.804 48.8027 178.184 47.778 178.309 47.7287C178.545 47.6393 178.888 47.5622 179.007 47.5915C179.236 47.6609 179.599 48.3281 179.787 48.872C180.049 49.641 180.46 51.5471 180.617 52.7983C180.771 54.1066 180.728 55.6367 180.62 56.0651C180.565 56.2654 180.39 56.5428 180.258 56.6229C180.14 56.6892 179.639 56.834 179.508 56.8525C179.465 56.8587 179.403 56.8618 179.324 56.8602" stroke="#2A2A2A" stroke-width="2.5" stroke-linecap="round" stroke-linejoin="round"/>
<path d="M175.187 52C175.194 52.1495 175.216 52.5624 175.231 52.829C175.247 53.0663 175.284 53.5794 175.304 53.8537C175.324 54.1481 175.347 54.5764 175.356 54.8168C175.358 54.88 175.359 54.9678 175.361 55.0819" stroke="#2A2A2A" stroke-width="2.5" stroke-linecap="round" stroke-linejoin="round"/>
<path d="M175.875 51.6273C176.043 51.4578 176.284 51.3053 176.511 51.2498C176.619 51.2251 177.119 51.1912 177.176 51.2035C177.458 51.276 177.629 51.5379 177.674 51.9709C177.743 52.7553 177.737 53.3023 177.699 53.8786C177.679 54.139 177.652 54.344 177.603 54.6568" stroke="#2A2A2A" stroke-width="2.5" stroke-linecap="round" stroke-linejoin="round"/>
<path d="M175.801 55.4672L176.62 55.2854" stroke="#2A2A2A" stroke-width="2.5" stroke-linecap="round" stroke-linejoin="round"/>
<path d="M173.53 57.9435C173.607 57.8742 173.731 57.7987 173.941 57.7016C174.808 57.3025 177.185 56.7508 178.106 56.643C178.183 56.6353 178.325 56.6245 178.53 56.6152C178.564 56.6137 178.598 56.6121 178.632 56.6106" stroke="#2A2A2A" stroke-width="2.5" stroke-linecap="round" stroke-linejoin="round"/>
<path d="M229.177 35.0938L229.187 35C229.037 35.4215 228.438 37.5596 227.503 40.571C226.774 42.8721 225.402 47.2203 224.759 49.2688C224.052 51.5902 223.412 54.0255 223.311 54.4601C223.276 54.6145 223.214 54.8831 223.187 55" stroke="#2A2A2A" stroke-width="2.5" stroke-linecap="round" stroke-linejoin="round"/>
<path d="M229.187 37C229.593 37.1028 230.547 37.348 231.095 37.4905C231.623 37.627 232.44 37.8399 232.528 37.859C232.669 37.8928 232.829 37.928 233.01 37.9662C233.065 37.978 233.124 37.9883 233.187 38" stroke="#2A2A2A" stroke-width="2.5" stroke-linecap="round" stroke-linejoin="round"/>
<path d="M228.242 47L228.187 46.9983C228.361 46.9196 228.507 46.8604 228.66 46.8181C229.088 46.7014 231.213 46.2267 231.33 46.1988C231.634 46.1278 232.108 46.0085 232.187 46" stroke="#2A2A2A" stroke-width="2.5" stroke-linecap="round" stroke-linejoin="round"/>
<path d="M230.187 46C230.187 46.1288 230.191 46.2223 230.344 48.0639C230.56 50.6737 230.877 54.567 230.978 55.8474C231.049 56.9192 231.154 58.4955 231.187 59" stroke="#2A2A2A" stroke-width="2.5" stroke-linecap="round" stroke-linejoin="round"/>
<path d="M228.238 51L228.187 51C228.782 50.6673 230.591 49.5434 231.546 48.946C231.743 48.8259 232.342 48.4643 232.556 48.3414C232.681 48.2705 233.07 48.0636 233.187 48" stroke="#2A2A2A" stroke-width="2.5" stroke-linecap="round" stroke-linejoin="round"/>
<path d="M229.187 56C229.311 56.395 230.216 58.1214 230.509 58.6717C230.613 58.8707 230.83 59.2868 230.941 59.504C230.999 59.6216 231.122 59.8703 231.187 60" stroke="#2A2A2A" stroke-width="2.5" stroke-linecap="round" stroke-linejoin="round"/>
<path d="M233.187 51C233.187 50.9969 233.07 51.9715 233.019 52.4082C232.945 53.0349 232.801 54.2545 232.73 54.846C232.657 55.4528 232.52 56.5254 232.459 56.9927C232.4 57.4279 232.288 58.2446 232.237 58.6246C232.221 58.7502 232.203 58.8759 232.187 59" stroke="#2A2A2A" stroke-width="2.5" stroke-linecap="round" stroke-linejoin="round"/>
<path d="M228.187 62C228.243 61.7894 228.794 61.2652 229.182 60.9818C230.121 60.3009 232.105 58.882 233.148 58.1425C234.129 57.4632 235.721 56.361 235.749 56.3389C235.812 56.293 235.958 56.1789 236.187 56" stroke="#2A2A2A" stroke-width="2.5" stroke-linecap="round" stroke-linejoin="round"/>
<path d="M238.187 36C238.589 35.7002 239.544 35.1956 240.106 34.8986C240.721 34.5815 241.901 34.0323 242.015 34.0063C242.054 33.9977 242.11 33.9977 242.187 34.0078" stroke="#2A2A2A" stroke-width="2.5" stroke-linecap="round" stroke-linejoin="round"/>
<path d="M239.428 36C239.273 36.1441 239.229 36.7492 239.219 37.144C239.174 39.1857 239.184 45.7083 239.2 45.7645C239.252 45.9258 239.412 46.0152 239.602 45.9979C240.977 45.8898 243.15 44.7127 243.49 44.5225C243.7 44.4101 244.049 44.2271 244.187 44.1551" stroke="#2A2A2A" stroke-width="2.5" stroke-linecap="round" stroke-linejoin="round"/>
<path d="M240.217 39.9116L240.187 39.894C240.376 39.6716 241.018 39.2694 241.397 39.0306C242.661 38.2627 242.989 38.0842 243.154 38C243.227 38.0742 243.16 39.1198 243.136 39.3335C243.078 39.8048 242.868 40.5249 242.771 40.7499C242.752 40.7926 242.712 40.8768 242.651 41" stroke="#2A2A2A" stroke-width="2.5" stroke-linecap="round" stroke-linejoin="round"/>
<path d="M240.691 41.8981C240.566 41.9247 240.482 41.9421 240.439 41.9495C240.375 41.9614 240.309 41.9669 240.245 41.9789C240.226 41.9835 240.206 41.9899 240.187 42C240.59 41.9054 241.026 41.7842 241.522 41.6107C241.99 41.4408 242.622 41.2103 242.787 41.1497C242.898 41.1074 243.008 41.0643 243.119 41.022C243.151 41.0092 243.174 41.0018 243.187 41" stroke="#2A2A2A" stroke-width="2.5" stroke-linecap="round" stroke-linejoin="round"/>
<path d="M241.187 35.3141L241.187 35C241.187 35.0306 241.187 35.124 241.187 35.4511C241.187 36.0294 241.187 37.1442 241.187 37.6806C241.187 38.0576 241.187 38.7165 241.187 39" stroke="#2A2A2A" stroke-width="2.5" stroke-linecap="round" stroke-linejoin="round"/>
<path d="M242.187 42.059L242.187 42C242.187 42.1137 242.187 42.4162 242.187 42.6037C242.187 43.1542 242.187 44.493 242.187 44.8059C242.187 45.1661 242.187 45.8421 242.187 46" stroke="#2A2A2A" stroke-width="2.5" stroke-linecap="round" stroke-linejoin="round"/>
<path d="M248.187 32.1214L248.182 32.0004C248.136 31.9945 248.112 32.0514 247.952 32.7895C247.679 34.0134 247.073 36.3386 246.769 37.4429C246.644 37.9155 246.362 38.9687 246.283 39.3713C246.259 39.4909 246.204 39.8818 246.187 40" stroke="#2A2A2A" stroke-width="2.5" stroke-linecap="round" stroke-linejoin="round"/>
<path d="M248.187 38C248.189 37.9876 248.204 37.9628 248.24 37.9333C248.67 37.5873 249.919 36.7587 250.919 36.1536C251.062 36.0667 251.137 36.0217 251.141 36.0186C251.162 36.0062 251.177 36 251.187 36" stroke="#2A2A2A" stroke-width="2.5" stroke-linecap="round" stroke-linejoin="round"/>
<path d="M247.187 43.9998C247.186 44.0013 247.188 43.9938 247.191 43.9923C247.984 43.3977 249.607 42.1755 250.438 41.5494C250.593 41.432 250.901 41.1896 250.94 41.1626C250.976 41.137 251.057 41.0828 251.187 41" stroke="#2A2A2A" stroke-width="2.5" stroke-linecap="round" stroke-linejoin="round"/>
<path d="M243.187 52.0531L243.065 52C243.152 52.5684 243.169 53.1009 243.111 53.9334C242.977 55.1448 242.762 56.8657 242.681 57.3767C242.512 58.2192 242.245 58.8565 242.187 59" stroke="#2A2A2A" stroke-width="2.5" stroke-linecap="round" stroke-linejoin="round"/>
<path d="M244.241 52.5375L244.187 52.5195C244.645 52.0983 246.186 50.7884 247.898 49.9491C248.835 49.5039 250.108 49.0543 250.47 49.0046C250.696 48.9791 250.951 49.0618 251.037 49.1941C251.267 49.5852 251.199 51.793 251.052 53.0654C250.984 53.6444 250.816 54.7454 250.68 55.371C250.576 55.8433 250.272 56.9878 250.133 57.5097C250.052 57.806 250.024 57.9037 249.987 58" stroke="#2A2A2A" stroke-width="2.5" stroke-linecap="round" stroke-linejoin="round"/>
<path d="M246.187 52C246.187 52.033 246.187 52.0661 246.187 52.1006C246.187 52.1652 246.187 55.3086 246.187 56.2743C246.187 56.8195 246.187 57.6831 246.187 58" stroke="#2A2A2A" stroke-width="2.5" stroke-linecap="round" stroke-linejoin="round"/>
<path d="M248.187 51C248.187 51.0272 248.187 51.0573 248.187 51.0888C248.187 51.5056 248.187 52.3736 248.187 53.256C248.187 54.4033 248.187 56.3485 248.187 56.4659C248.187 56.8541 248.187 57.3927 248.187 57.5202C248.187 57.6792 248.187 57.8396 248.187 58" stroke="#2A2A2A" stroke-width="2.5" stroke-linecap="round" stroke-linejoin="round"/>
<path d="M239.277 61L239.187 61C239.187 61 245.313 60.0914 247.672 59.7437C249.494 59.4912 254.226 58.91 256.684 58.6156C257.852 58.4659 258.793 58.2375 259.187 58.0459C259.163 58.0218 259.144 58.0065 259.129 58.0027C259.116 57.9989 259.085 57.9989 259.04 58.004" stroke="#2A2A2A" stroke-width="2.5" stroke-linecap="round" stroke-linejoin="round"/>
</g>
<defs>
<clipPath id="clip0_1617_1583">
<rect width="268" height="160" fill="white"/>
</clipPath>
</defs>
</svg>
