<svg width="272" height="163" viewBox="0 0 272 163" fill="none" xmlns="http://www.w3.org/2000/svg">
<g clip-path="url(#clip0_782_756)" filter="url(#filter0_d_782_756)">
<path d="M60.8948 173.727V175.903H59.913C55.5131 175.903 51.107 175.814 46.7194 175.934C43.5008 176.022 40.276 176.363 37.0758 176.638C34.5813 176.853 32.0929 177.104 29.6107 177.417C27.9293 177.631 26.2755 178.054 24.594 178.253C22.2744 178.529 19.9456 178.707 17.6168 178.866C16.1901 178.97 16.187 178.934 16.0459 177.555C15.9354 176.314 15.8372 175.069 15.7145 173.831C15.6163 172.863 15.4475 171.901 15.377 170.932C15.0855 166.949 14.8492 162.993 14.5393 159.027C14.2673 155.554 13.9604 152.088 13.6188 148.63C13.1831 144.223 12.4805 139.835 12.278 135.419C11.7564 124.124 11.3575 112.813 12.4314 101.527C12.8855 96.6789 13.4808 91.8432 14.1098 87.0168C14.3 85.5643 14.7756 84.1455 15.2113 82.7266C15.3278 82.3405 15.7758 82.0586 16.0704 81.7276L16.3527 81.8717C16.6994 83.3273 17.2731 84.7675 17.356 86.2354C17.6525 91.4068 17.6239 96.5918 17.2701 101.76C16.9142 107.116 16.9633 112.485 16.8896 117.872C16.862 119.68 16.9786 121.491 17.0522 123.299C17.0829 124.01 17.4112 124.565 18.1783 124.629C18.9454 124.694 19.3381 124.191 19.5191 123.505C19.5647 123.316 19.5934 123.123 19.605 122.929C19.7462 120.872 19.8413 118.813 20.0315 116.763C20.3936 112.911 20.7679 109.059 21.2282 105.219C21.4307 103.519 21.8418 101.849 22.1916 100.157C22.3105 99.8507 22.4772 99.5653 22.6856 99.3112L22.9709 99.3909C23.0108 100.099 23.0292 100.807 23.0937 101.511C23.2409 103.2 23.244 104.922 23.6122 106.565C24.054 108.544 26.4289 109.323 28.0888 108.146C28.7971 107.615 29.658 107.327 30.5434 107.325C31.0176 107.302 31.4874 107.223 31.9426 107.089C35.0293 106.28 38.1129 105.449 41.2057 104.637C41.6045 104.559 41.9723 104.368 42.2651 104.086C42.5578 103.805 42.7632 103.445 42.8564 103.05C43.0006 102.51 43.0497 101.95 43.2062 101.416C43.5468 100.261 43.9303 99.1181 44.3445 97.825C44.7587 98.1314 45.0594 98.2509 45.173 98.4685C45.8818 99.7152 46.519 101.001 47.0814 102.32C47.465 103.292 47.5447 104.377 47.8025 105.403C48.723 109.102 49.6833 112.795 50.6192 116.49C50.8094 117.244 50.9628 118.022 51.1592 118.764C51.3402 119.457 51.7728 119.938 52.5276 119.837C53.2824 119.735 53.6046 119.165 53.5739 118.455C53.5432 117.744 53.4266 117.076 53.3284 116.386C52.7976 112.669 52.0582 108.964 51.7759 105.229C51.4138 100.43 51.4384 95.6033 51.2574 90.7921C51.1622 88.2426 50.9291 85.696 50.8708 83.1495C50.8964 81.9328 51.0154 80.7198 51.2267 79.5213C51.2543 79.3006 51.5335 78.9697 51.7023 78.9513C51.871 78.9329 52.1993 79.1597 52.3803 79.3466C52.5161 79.5259 52.6037 79.7369 52.635 79.9595C52.9817 81.363 53.3284 82.7665 53.6445 84.1761C54.0065 85.8064 54.3164 87.4489 54.6846 89.0791C55.3259 91.929 56.0009 94.7697 56.6544 97.6135C56.69 97.8336 56.7116 98.0557 56.7189 98.2785C56.9459 100.571 57.1853 102.875 57.3939 105.158C57.4798 106.099 57.5013 107.046 57.5443 107.993C57.667 110.855 57.7652 113.72 57.9094 116.573C58.1334 121.047 58.4617 125.518 58.6059 129.992C58.7593 134.895 58.7501 139.798 58.8206 144.701C58.8206 145.286 58.8974 145.869 58.9403 146.454C59.1398 149.169 59.4619 151.881 59.5172 154.599C59.6184 159.272 59.4742 163.952 60.6402 168.533C60.7055 168.918 60.7322 169.308 60.7199 169.697C60.7772 171.052 60.8355 172.395 60.8948 173.727ZM35.333 118.553C35.728 118.821 36.1377 119.068 36.5603 119.291C37.0083 119.493 37.4808 119.754 37.9503 119.751C38.1474 119.73 38.337 119.664 38.5042 119.558C38.6714 119.451 38.8116 119.308 38.9137 119.138C39.0518 118.831 38.9873 118.2 38.7603 118.01C37.6956 117.125 36.6125 116.208 35.1182 116.147C34.1026 116.107 33.2773 116.552 33.1423 117.456C32.9878 118.495 32.959 119.55 33.0564 120.597C33.0637 120.753 33.1049 120.906 33.1773 121.045C33.2496 121.184 33.3513 121.306 33.4753 121.401C33.5993 121.497 33.7426 121.565 33.8954 121.6C34.0483 121.635 34.2069 121.637 34.3604 121.605C35.0599 121.519 35.3207 121.01 35.3299 120.351C35.3361 119.821 35.333 119.303 35.333 118.553ZM43.6572 111.875C43.6516 111.722 43.6149 111.572 43.5493 111.434C43.4838 111.296 43.3908 111.173 43.276 111.071C43.1612 110.97 43.027 110.893 42.8816 110.846C42.7361 110.798 42.5824 110.78 42.4299 110.794C41.6138 110.812 40.9602 111.406 40.9725 112.096C40.9774 112.256 41.0148 112.414 41.0826 112.559C41.1504 112.704 41.2472 112.834 41.3669 112.941C41.4866 113.047 41.6268 113.128 41.779 113.179C41.9312 113.23 42.0921 113.249 42.252 113.236C42.6167 113.231 42.9657 113.086 43.2271 112.832C43.4884 112.578 43.6424 112.233 43.6572 111.869V111.875ZM24.6339 114.17C24.2834 114.179 23.9501 114.324 23.7056 114.575C23.4612 114.826 23.3251 115.163 23.3268 115.513C23.3132 115.834 23.4252 116.149 23.6394 116.39C23.8535 116.63 24.1529 116.778 24.4744 116.803C24.6399 116.81 24.8051 116.783 24.9601 116.725C25.1151 116.666 25.2566 116.577 25.3762 116.463C25.4957 116.348 25.5908 116.211 25.6557 116.058C25.7206 115.906 25.754 115.742 25.7539 115.577C25.7723 114.786 25.2936 114.186 24.6186 114.164L24.6339 114.17Z" fill="#FEFEFE"/>
<path d="M136.515 170.09C136.209 170.228 135.885 170.324 135.552 170.375C132.432 170.396 129.308 170.307 126.191 170.418C124.303 170.447 122.423 170.68 120.585 171.113C118.437 171.674 116.237 171.699 114.056 171.892L104.179 172.756C103.679 172.799 103.182 172.888 102.685 172.888C101.47 172.83 100.256 173.029 99.1224 173.47C98.0025 173.942 96.6678 173.926 95.4405 174.132C93.7683 174.411 92.0991 174.72 90.4177 174.953C90.0495 175.005 89.6445 174.794 89.2579 174.705L89.3131 174.493L90.522 174.245C91.0866 173.801 91.1879 173.222 91.105 172.538C90.9577 171.294 90.8197 170.047 90.7736 168.8C90.5834 163.734 90.4668 158.669 90.252 153.603C89.9452 146.482 89.6077 139.363 89.2794 132.244C89.1628 129.713 88.9726 127.182 88.9388 124.651C88.8897 119.279 88.8652 113.904 88.9664 108.532C89.0493 104.242 89.307 99.9516 89.531 95.6829C89.6875 92.6859 89.7979 89.6767 90.1447 86.6981C90.4515 84.0259 91.0958 81.3905 91.599 78.7306C91.6435 78.2592 91.7691 77.7989 91.9703 77.37C92.1789 77.0207 92.5839 76.6131 92.9521 76.5764C93.5658 76.5089 93.9739 76.9349 93.9769 77.6213C93.9769 77.7592 93.9769 77.9002 93.9769 78.0381C93.9278 81.7154 93.8941 85.3927 93.8235 89.0699C93.7867 91.0189 93.6824 92.9648 93.6118 94.9107C93.4062 100.586 93.173 106.249 93.0196 111.933C93.0434 113.017 93.1864 114.095 93.4461 115.148C93.6486 116.162 94.2132 116.637 94.9189 116.567C95.6246 116.496 96.045 115.89 96.0787 114.802C96.0971 114.161 96.0971 113.521 96.1493 112.883C96.5441 108.054 96.948 103.226 97.3612 98.401C97.4216 97.624 97.5457 96.8533 97.7325 96.0966C97.9166 95.5492 98.1466 95.0182 98.4198 94.5093L98.6438 94.5889C98.7696 95.2937 98.8831 96.0047 99.0304 96.7064C99.3372 98.2202 99.9938 98.7473 101.522 98.7106C102.605 98.683 103.688 98.5696 104.774 98.5543C106.554 98.5297 108.333 98.5543 110.113 98.5543C110.525 98.5552 110.936 98.5942 111.34 98.6707C112.595 98.9189 113.832 99.2438 115.093 99.4521C116.246 99.6421 116.934 99.1978 117.409 98.1253C117.753 97.3653 118.155 96.6268 118.456 95.8515C118.68 95.2692 119.008 95.2907 119.41 95.5726C120.147 96.0378 120.677 96.7687 120.889 97.6135C121.466 100.108 122.068 102.595 122.696 105.075C123.076 106.586 123.54 108.075 123.923 109.586C124.338 111.262 124.69 112.957 125.083 114.633C125.243 115.323 125.654 115.804 126.409 115.801C127.163 115.798 127.578 115.335 127.734 114.636C127.825 114.286 127.869 113.925 127.866 113.564C127.805 111.848 127.78 110.125 127.614 108.416C127.335 105.538 127.489 102.654 127.124 99.7586C126.611 95.686 126.639 91.546 126.448 87.4336C126.392 86.5439 126.385 85.6518 126.427 84.7614C126.646 81.5172 126.89 78.274 127.16 75.0319C127.188 74.7255 127.492 74.4374 127.667 74.1402C127.973 74.3079 128.267 74.4963 128.547 74.704C128.683 74.8439 128.773 75.0228 128.802 75.2158C129.109 76.7143 129.504 78.2066 129.643 79.7204C129.977 83.3763 130.222 87.0413 130.437 90.7063C130.704 95.211 130.913 99.7157 131.134 104.22C131.281 107.196 131.155 110.211 131.606 113.138C132.198 117.002 132.137 120.848 132.134 124.715C132.134 125.824 132.244 126.934 132.346 128.04C132.554 130.311 132.8 132.578 133.015 134.849C133.214 136.994 133.377 139.164 133.582 141.321C133.812 143.757 134.082 146.193 134.312 148.63C134.69 152.589 135.04 156.551 135.417 160.51C135.653 162.999 135.914 165.487 136.178 167.972C136.279 168.689 136.411 169.388 136.515 170.09ZM107.941 108.569L108.247 108.477C108.585 108.927 108.929 109.372 109.26 109.828C109.502 110.162 109.653 110.646 109.978 110.815C110.362 111.017 111.006 111.146 111.319 110.953C111.492 110.797 111.623 110.601 111.702 110.383C111.782 110.164 111.806 109.93 111.773 109.699C111.382 108.292 110.494 107.074 109.272 106.27C108.959 106.054 108.591 105.931 108.21 105.916C107.83 105.901 107.453 105.996 107.124 106.188C106.041 106.745 104.872 109.172 105.13 110.352C105.265 110.983 105.621 111.434 106.318 111.434C107.014 111.434 107.29 111.008 107.434 110.401C107.579 109.794 107.772 109.179 107.941 108.569ZM117.115 105.734C117.1 105.427 116.967 105.138 116.743 104.927C116.519 104.715 116.223 104.598 115.915 104.6C115.742 104.602 115.571 104.638 115.412 104.706C115.253 104.774 115.109 104.873 114.988 104.997C114.867 105.121 114.772 105.267 114.709 105.428C114.645 105.589 114.614 105.76 114.617 105.933C114.618 106.086 114.648 106.236 114.708 106.377C114.767 106.517 114.854 106.644 114.963 106.751C115.072 106.857 115.201 106.941 115.343 106.997C115.485 107.052 115.637 107.08 115.789 107.076C116.139 107.058 116.47 106.911 116.717 106.663C116.965 106.415 117.111 106.084 117.127 105.734H117.115ZM101.583 105.802C101.568 105.534 101.45 105.284 101.253 105.102C101.055 104.921 100.796 104.823 100.528 104.83C100.389 104.823 100.25 104.844 100.12 104.894C99.9896 104.943 99.8714 105.02 99.7725 105.117C99.6737 105.215 99.5965 105.333 99.5458 105.462C99.4951 105.592 99.4721 105.73 99.4783 105.869C99.4723 106.009 99.4953 106.148 99.5458 106.278C99.5963 106.408 99.6733 106.527 99.7719 106.626C99.8705 106.725 99.9885 106.802 100.119 106.853C100.249 106.905 100.388 106.928 100.528 106.923C100.673 106.926 100.817 106.899 100.951 106.843C101.085 106.786 101.206 106.703 101.305 106.597C101.405 106.491 101.481 106.366 101.529 106.229C101.577 106.092 101.595 105.946 101.583 105.802Z" fill="#FEFEFE"/>
<path d="M263.901 165.033C263.343 165.996 263.244 166.011 262.14 165.613C261.753 165.468 261.344 165.39 260.931 165.383C257.642 165.364 254.354 165.364 251.066 165.383C250.573 165.43 250.085 165.523 249.609 165.662C248.418 165.898 247.234 166.173 246.034 166.363C244.666 166.578 243.273 166.697 241.914 166.887C238.364 167.375 234.817 167.902 231.264 168.371C229.806 168.567 228.334 168.677 226.864 168.797C226.367 168.861 225.866 168.879 225.367 168.852C225.055 168.776 224.78 168.591 224.593 168.331C225.296 168.251 226.066 168.637 226.413 167.718C226.5 167.4 226.556 167.075 226.582 166.746C226.465 162.15 226.33 157.553 226.21 152.981C226.152 150.781 226.177 148.578 226.045 146.383C225.833 142.832 225.471 139.286 225.265 135.735C224.934 130.038 224.685 124.335 224.385 118.638C224.317 117.361 224.105 116.086 224.078 114.808C223.897 106.595 223.645 98.3796 223.63 90.167C223.63 85.1322 223.964 80.0974 224.201 75.0656C224.281 74.0685 224.457 73.0814 224.725 72.1177C224.873 71.5201 225.321 71.1432 226.183 71.0696C226.37 71.8388 226.597 72.6018 226.726 73.371C226.778 73.9251 226.8 74.4816 226.793 75.038C227.048 78.8961 227.33 82.7512 227.563 86.6092C227.79 90.357 227.904 94.1109 228.192 97.8556C228.459 101.291 228.88 104.717 229.266 108.143C229.393 109.221 229.575 110.292 229.812 111.351C229.856 111.634 230.004 111.889 230.227 112.068C230.451 112.246 230.733 112.334 231.018 112.313C231.167 112.317 231.315 112.291 231.453 112.236C231.592 112.182 231.718 112.101 231.825 111.998C231.932 111.895 232.017 111.772 232.076 111.636C232.135 111.499 232.167 111.353 232.169 111.204C232.161 110.655 232.104 110.107 232 109.568C231.81 107.775 231.411 105.973 231.485 104.193C231.598 101.309 232.012 98.4348 232.328 95.5604C232.457 94.3867 232.666 93.2222 232.838 92.0547C233.163 92.784 233.255 93.5164 233.473 94.2151C233.81 95.3121 234.808 95.8974 235.747 95.4071C237.416 94.5368 239.073 94.7789 240.8 95.0609C242.454 95.3305 244.098 95.9189 245.829 95.3029C246.485 95.0731 247.246 95.1099 247.977 95.0823C249.314 95.0333 250.658 95.113 251.987 94.9873C253.521 94.8433 254.061 94.1722 254.214 92.6584C254.212 92.3531 254.276 92.0509 254.402 91.7728C254.586 91.4663 254.893 91.071 255.175 91.0465C255.357 91.0649 255.532 91.1277 255.684 91.2291C255.837 91.3306 255.962 91.4678 256.049 91.6287C256.423 92.4663 256.69 93.3476 256.844 94.2519C257.194 96.7831 257.396 99.3357 257.734 101.87C258.133 104.849 258.617 107.815 259.047 110.79C259.151 111.467 259.209 112.15 259.222 112.834C259.222 113.579 259.645 114.207 260.311 114.302C260.478 114.327 260.649 114.317 260.812 114.272C260.975 114.227 261.127 114.148 261.257 114.04C261.388 113.933 261.494 113.799 261.57 113.648C261.645 113.497 261.688 113.331 261.695 113.162C261.721 112.387 261.665 111.612 261.526 110.849C261.379 109.886 261.106 108.946 260.965 107.983C260.581 105.366 260.394 102.71 259.839 100.132C259.302 97.6533 259.369 95.211 259.673 92.7595C260.152 88.9014 260.449 85.0985 259.366 81.2557C258.624 78.6479 257.952 76.0462 256.267 73.8429C255.948 73.4681 255.73 73.018 255.634 72.5353C255.537 72.0525 255.566 71.5533 255.718 71.085C255.939 71.18 256.095 71.2321 256.236 71.3117C257.881 72.2311 258.802 73.8 259.492 75.4272C260.339 77.416 260.946 79.5059 261.6 81.5744C261.998 82.73 262.298 83.9171 262.496 85.123C262.976 88.6185 263.398 92.1241 263.76 95.64C264.033 98.2969 264.303 100.969 264.343 103.635C264.435 110.205 264.392 116.778 264.398 123.348C264.398 123.682 264.377 124.016 264.361 124.35C264.168 128.236 263.809 132.125 263.818 135.995C263.818 140.592 264.196 145.17 264.321 149.76C264.37 151.504 264.177 153.257 264.091 155.007C263.983 155.543 263.912 156.085 263.876 156.631C263.876 159.432 263.901 162.23 263.922 165.03L263.901 165.033ZM243.595 103.439C244.074 103.924 244.526 104.436 244.948 104.971C245.47 105.71 246.231 106.038 246.857 105.694C247.483 105.351 247.532 104.692 247.096 103.794C246.412 102.376 245.022 101.732 243.874 100.84C243.31 100.399 242.448 100.653 242.082 101.37C241.572 102.381 241.156 103.437 240.84 104.524C240.79 104.676 240.773 104.838 240.79 104.997C240.807 105.157 240.858 105.311 240.939 105.449C241.021 105.588 241.13 105.707 241.261 105.8C241.392 105.893 241.541 105.957 241.699 105.989C242.441 106.114 242.843 105.682 243.08 105.051C243.248 104.61 243.368 104.15 243.595 103.427V103.439ZM237.029 102.192C237.031 102.039 237.002 101.887 236.943 101.746C236.884 101.604 236.796 101.477 236.685 101.371C236.574 101.266 236.442 101.184 236.298 101.132C236.154 101.079 236.001 101.057 235.848 101.067C235.019 101.092 234.289 101.714 234.283 102.397C234.285 102.557 234.32 102.715 234.385 102.861C234.45 103.007 234.545 103.139 234.662 103.248C234.78 103.356 234.919 103.44 235.07 103.493C235.221 103.547 235.381 103.569 235.541 103.558C235.921 103.573 236.292 103.435 236.571 103.177C236.85 102.918 237.015 102.559 237.029 102.179V102.192ZM251.379 99.9608C251.031 99.9796 250.702 100.128 250.457 100.376C250.211 100.624 250.068 100.955 250.054 101.303C250.05 101.449 250.076 101.594 250.13 101.73C250.183 101.865 250.264 101.989 250.366 102.092C250.469 102.196 250.591 102.278 250.726 102.334C250.861 102.389 251.006 102.417 251.152 102.415C251.501 102.393 251.829 102.243 252.074 101.995C252.32 101.746 252.464 101.416 252.481 101.067C252.487 100.92 252.462 100.774 252.409 100.636C252.356 100.499 252.276 100.374 252.173 100.27C252.069 100.165 251.946 100.082 251.809 100.027C251.673 99.9718 251.527 99.9451 251.379 99.9486V99.9608Z" fill="#FEFEFE"/>
<path d="M196.954 168.885C196.973 169.155 196.994 169.428 197.019 169.805C196.733 169.829 196.448 169.872 196.16 169.872C183.491 169.872 170.819 169.872 158.147 169.909C156.962 169.909 157.199 169.124 156.956 168.539C156.895 165.842 156.735 163.14 156.797 160.446C156.898 156.076 157.199 151.712 157.318 147.346C157.475 141.695 157.539 136.044 157.647 130.39C157.647 130.032 157.711 129.67 157.73 129.309C157.918 125.556 158.105 121.803 158.291 118.05C158.432 115.268 158.383 112.461 158.779 109.715C159.764 102.909 160.927 96.1334 162.065 89.3488C163.013 83.8271 164.6 78.4342 166.796 73.2791C166.898 73.037 167.011 72.801 167.122 72.562C167.228 72.6626 167.313 72.7832 167.372 72.9167C167.432 73.0503 167.464 73.1942 167.468 73.3404C167.419 74.701 167.392 76.0646 167.257 77.4191C167.054 79.4385 166.704 81.4457 166.532 83.4713C166.035 89.4009 165.612 95.3397 165.127 101.275C165.02 102.633 164.845 103.984 164.695 105.342C164.28 109.157 163.848 112.972 163.467 116.791C163.351 117.921 163.792 118.543 164.587 118.608C165.382 118.672 165.906 118.068 166.045 116.928C166.183 115.788 166.333 114.719 166.526 113.625C167.075 110.527 167.658 107.435 168.211 104.337C168.518 102.556 168.742 100.755 169.131 98.9955C169.349 98.0333 169.865 97.1385 170.248 96.2131L170.555 96.2774C170.711 97.3714 170.825 98.4746 171.043 99.5563C171.192 100.451 171.447 101.324 171.804 102.158C172.206 103.016 172.822 103.031 173.685 102.599C174.157 102.414 174.663 102.331 175.17 102.354C175.636 102.354 176.115 102.559 176.569 102.51C177.781 102.388 178.983 102.186 180.186 101.999C181.527 101.793 182.871 101.603 184.203 101.349C185.24 101.153 185.635 100.693 185.737 99.6575C185.813 98.9097 185.783 98.1528 185.872 97.4051C185.955 97.0546 186.081 96.7158 186.249 96.3969C186.531 96.5961 186.608 96.7034 186.627 96.8474C187.095 99.9241 187.559 103.001 188.02 106.077C188.253 107.61 188.458 109.16 188.738 110.692C189.146 112.936 189.637 115.163 190.032 117.406C190.198 118.344 190.545 118.838 191.26 118.798C191.975 118.758 192.447 118.185 192.423 117.321C192.4 116.6 192.315 115.882 192.168 115.176C191.738 113.135 191.158 111.118 190.821 109.047C190.324 106.007 190.008 102.936 189.566 99.8842C189.351 98.398 189.259 96.8382 188.688 95.4776C188.24 94.2887 188.014 93.0278 188.02 91.7574C188.025 90.9783 187.984 90.1996 187.897 89.4254C187.231 85.172 187.897 80.9922 188.566 76.8154C188.612 76.509 188.873 76.2485 189.029 75.9666L189.287 76.0279C189.409 76.5611 189.569 77.0912 189.652 77.6305C189.793 78.5498 189.885 79.4539 189.995 80.364C190.229 82.2425 190.554 84.1117 190.671 85.9964C190.852 88.8738 191.591 91.7084 191.352 94.6257C191.312 95.0762 191.536 95.545 191.628 96.0108C191.738 96.5563 191.87 97.1018 191.935 97.6503C192.199 100.143 192.448 102.635 192.683 105.127C192.828 106.66 192.926 108.192 193.048 109.706C193.291 112.77 193.549 115.81 193.773 118.862C193.92 120.829 194.038 122.798 194.128 124.767C194.303 128.631 194.435 132.499 194.616 136.363C194.708 138.309 194.84 140.255 195.058 142.185C195.42 145.421 196.123 148.642 196.215 151.881C196.371 157.565 196.258 163.241 196.954 168.885ZM181.061 112.117C181.653 112.641 182.23 112.963 182.846 112.442C183.463 111.921 183.365 111.201 183.08 110.524C182.981 110.325 182.857 110.14 182.711 109.972C182.457 109.644 182.184 109.326 181.932 108.995C181.122 107.928 179.904 108.017 179.361 109.246C179.037 110.014 178.794 110.814 178.637 111.633C178.547 112.039 178.609 112.464 178.809 112.828C178.924 113.005 179.076 113.154 179.254 113.266C179.433 113.378 179.634 113.45 179.843 113.478C180.186 113.478 180.539 113.055 180.846 112.773C180.966 112.66 180.969 112.424 181.061 112.117ZM184.629 106.179C185.39 106.163 186.096 105.514 186.08 104.842C186.052 104.506 185.895 104.194 185.642 103.971C185.389 103.747 185.059 103.63 184.721 103.644C184.547 103.637 184.372 103.666 184.21 103.729C184.047 103.793 183.899 103.89 183.776 104.013C183.653 104.137 183.557 104.285 183.494 104.448C183.431 104.61 183.403 104.785 183.411 104.959C183.409 105.119 183.44 105.278 183.5 105.427C183.561 105.575 183.651 105.71 183.764 105.824C183.877 105.937 184.012 106.027 184.161 106.088C184.309 106.149 184.469 106.18 184.629 106.179ZM175.013 106.16C175.006 106 174.965 105.842 174.895 105.698C174.825 105.554 174.726 105.425 174.604 105.32C174.482 105.215 174.34 105.136 174.187 105.088C174.034 105.039 173.872 105.023 173.712 105.039C173.387 105.039 173.074 105.168 172.844 105.398C172.614 105.627 172.485 105.939 172.485 106.264C172.5 106.577 172.637 106.871 172.866 107.084C173.095 107.297 173.399 107.412 173.712 107.404C174.047 107.408 174.371 107.28 174.612 107.047C174.853 106.814 174.991 106.495 174.998 106.16H175.013Z" fill="#FEFEFE"/>
<path d="M60.8946 173.727C60.8332 172.395 60.7729 171.067 60.7136 169.743C60.7258 169.354 60.6991 168.964 60.6338 168.579C59.4678 163.982 59.612 159.318 59.5108 154.645C59.4556 151.927 59.1334 149.215 58.934 146.5C58.891 145.915 58.8235 145.332 58.8143 144.747C58.7437 139.844 58.7529 134.941 58.5995 130.038C58.4553 125.564 58.127 121.093 57.903 116.619C57.7588 113.757 57.6606 110.892 57.5379 108.039C57.4949 107.092 57.4735 106.145 57.3875 105.204C57.1789 102.909 56.9396 100.607 56.7125 98.3244C56.7052 98.1016 56.6837 97.8795 56.6481 97.6595C55.9946 94.8157 55.3195 91.975 54.6782 89.1251C54.3101 87.4979 54.0002 85.8554 53.6381 84.2221C53.3313 82.8124 52.9754 81.4089 52.6286 80.0054C52.5974 79.7828 52.5097 79.5719 52.374 79.3926C52.193 79.2056 51.9107 78.9789 51.6959 78.9973C51.4811 79.0156 51.2479 79.3466 51.2203 79.5672C51.0054 80.7624 50.8823 81.9723 50.8521 83.1863C50.9104 85.7328 51.1589 88.2793 51.2387 90.8289C51.4198 95.64 51.3952 100.466 51.7573 105.265C52.0395 109.001 52.779 112.706 53.3098 116.423C53.408 117.112 53.5246 117.799 53.5553 118.491C53.586 119.184 53.2761 119.775 52.509 119.873C51.7419 119.971 51.3216 119.493 51.1405 118.801C50.9442 118.047 50.7908 117.269 50.6005 116.527C49.6647 112.831 48.7135 109.139 47.7838 105.44C47.5261 104.413 47.4463 103.329 47.0628 102.357C46.5004 101.038 45.8632 99.752 45.1543 98.5052C45.0408 98.2877 44.7401 98.1712 44.3259 97.8617C43.9117 99.1549 43.5282 100.298 43.1876 101.453C43.0311 101.986 42.982 102.547 42.8378 103.087C42.7445 103.482 42.5392 103.841 42.2464 104.123C41.9537 104.404 41.5859 104.596 41.1871 104.674C38.0942 105.477 35.0106 106.307 31.9239 107.125C31.4687 107.26 30.999 107.339 30.5248 107.361C29.6394 107.364 28.7785 107.652 28.0702 108.183C26.4102 109.375 24.0354 108.581 23.5936 106.601C23.2254 104.959 23.2223 103.231 23.075 101.548C23.0106 100.843 22.9922 100.136 22.9523 99.4276L22.667 99.348C22.4586 99.602 22.2918 99.8875 22.173 100.194C21.817 101.876 21.412 103.565 21.2095 105.256C20.7493 109.096 20.3749 112.948 20.0129 116.8C19.8227 118.85 19.7275 120.909 19.5864 122.965C19.5748 123.16 19.546 123.352 19.5005 123.541C19.3194 124.228 18.9298 124.73 18.1596 124.666C17.3895 124.602 17.0643 124.053 17.0336 123.336C16.96 121.528 16.8434 119.717 16.871 117.909C16.9477 112.537 16.8955 107.153 17.2514 101.796C17.6052 96.6286 17.6339 91.4436 17.3374 86.2721C17.2484 84.8043 16.6807 83.364 16.334 81.9084L16.0517 81.7644C15.7449 82.0954 15.3092 82.3773 15.1926 82.7634C14.7569 84.17 14.2721 85.5888 14.0911 87.0536C13.4774 91.88 12.8638 96.7156 12.4128 101.564C11.3511 112.85 11.7377 124.16 12.2594 135.456C12.4619 139.872 13.1798 144.26 13.6002 148.666C13.9438 152.129 14.2507 155.595 14.5207 159.064C14.8275 163.029 15.0668 167.001 15.3583 170.969C15.4289 171.938 15.5977 172.9 15.6958 173.868C15.8186 175.094 15.9167 176.35 16.0272 177.591C15.975 177.999 15.9045 178.41 15.8738 178.817C15.8216 179.473 15.567 179.991 14.8521 180.015C14.1372 180.04 13.8242 179.55 13.6984 178.915C13.6809 178.805 13.6697 178.693 13.6646 178.581C13.3578 173.258 13.0878 167.929 12.6766 162.613C12.3698 158.758 11.839 154.921 11.4493 151.075C10.8663 145.151 10.309 139.219 9.77713 133.28C9.63905 131.73 9.57154 130.167 9.57768 128.607C9.59916 120.977 9.49486 113.343 9.75566 105.719C9.95916 99.3718 10.6216 93.0478 11.7378 86.7962C11.8451 86.1833 11.9587 85.5949 12.0599 84.9912C12.0599 84.9453 12.0231 84.8901 11.971 84.7583C11.4585 84.7338 10.9063 84.7001 10.357 84.6878C8.72778 84.6449 7.90241 84.0596 7.59559 82.457C7.26728 80.652 7.22126 78.7797 6.83159 77.0054C6.19339 74.082 6.37747 71.134 6.27621 68.1891C6.24553 67.3862 6.07371 66.5895 6.00928 65.7866C5.70245 62.0143 5.35573 58.2482 5.16243 54.4728C4.99981 51.3594 4.92004 48.2337 5.01823 45.1203C5.17778 40.0303 5.50914 34.9465 5.77301 29.8626C5.80676 29.2221 5.85585 28.5848 5.88347 27.9443C6.03074 24.8309 6.17394 21.7174 6.31303 18.604C6.36826 17.3384 8.26448 15.3588 9.75259 15.1259C11.4033 14.8654 13.0632 14.6999 14.7201 14.4854C16.9231 14.2004 19.1262 13.9246 21.3261 13.6182C22.6148 13.4374 23.9035 12.9839 25.1768 13.036C27.5854 13.1371 29.9848 13.5201 32.3903 13.7745C33.139 13.8542 33.8876 13.8909 34.6363 13.9614C36.7125 14.1657 38.7887 14.37 40.8649 14.5743C41.0842 14.6136 41.3054 14.6412 41.5276 14.657C45.3016 14.5958 48.8915 15.8491 52.6041 16.1892C54.7243 16.3854 55.9424 17.6816 56.464 19.603C56.876 21.0974 57.1542 22.6254 57.2955 24.1689C57.4735 26.2711 57.5287 28.3886 57.5287 30.5C57.5287 33.3928 57.3016 36.2917 57.3875 39.1815C57.5041 43.0457 57.5317 46.9467 58.1362 50.7465C58.8726 55.3646 58.9125 59.9949 59.1917 64.6252C59.4157 68.3454 59.6949 72.0625 59.925 75.7858C59.9956 76.9502 60.0048 78.1208 60.0048 79.2914C60.0048 80.9799 59.339 81.8288 57.6575 82.1168C55.6448 82.4631 55.565 82.2333 56.0866 84.5683C57.0316 88.8003 57.9859 93.0322 58.9186 97.2672C58.9879 97.7343 59.031 98.2049 59.0475 98.6769C59.2398 100.612 59.4351 102.545 59.6335 104.478C59.7072 105.225 59.8146 105.97 59.8483 106.721C60.0662 111.195 60.2656 115.669 60.462 120.146C60.462 120.284 60.4896 120.422 60.4926 120.563C60.6951 128.187 60.8578 135.811 61.1063 143.432C61.2198 146.736 61.542 150.033 61.766 153.33C61.7967 153.775 61.8212 154.219 61.8365 154.667L62.1771 164.926C62.174 164.954 62.174 164.981 62.1771 165.009C63.024 167.559 62.9933 170.218 63.116 172.848C63.1786 173.286 63.2908 173.716 63.4505 174.129C63.6622 174.861 63.6315 175.508 62.8859 175.943C62.0574 176.427 61.2259 176.062 61.0449 175.118C60.9958 174.662 60.9559 174.193 60.8946 173.727ZM12.6675 82.6347C13.0142 80.8849 14.1494 79.8032 15.9536 79.2639C17.1349 78.9176 17.9142 79.1474 18.3345 80.3241C18.5428 80.901 18.7059 81.4932 18.8224 82.0954C18.9206 82.6347 19.1446 82.9411 19.7214 82.9871C20.8045 83.079 21.8692 83.2261 22.9646 83.315C25.861 83.5448 28.736 83.3395 31.6355 83.079C36.9866 82.5949 42.3745 82.3896 47.7286 82.0892C48.2564 82.0586 48.4435 81.8625 48.5049 81.3477C48.5907 80.4626 48.7456 79.5855 48.9682 78.7245C49.3978 77.2138 50.3459 76.4783 51.7051 76.4599C52.9109 76.4446 54.3377 77.4926 54.755 78.7061C54.9145 79.175 54.9298 79.8492 55.2551 80.0637C55.5803 80.2782 56.1756 79.9472 56.6726 79.938C57.4612 79.9227 57.7435 79.5826 57.6974 78.7919C57.455 74.7377 57.3078 70.6774 57.0101 66.6263C56.6174 61.2513 56.6328 55.861 55.7828 50.4983C55.1692 46.5146 55.1692 42.4052 55.0557 38.3479C54.9759 35.7922 55.2091 33.2304 55.206 30.6685C55.206 28.503 55.1242 26.3365 54.9605 24.1689C54.8399 22.869 54.6193 21.5801 54.3009 20.3139C54.0462 19.2353 53.3988 18.5151 52.1531 18.414C48.5478 18.1076 45.0715 16.8573 41.4141 16.9308C41.0525 16.9017 40.6929 16.8515 40.3371 16.7807C38.4287 16.5948 36.5182 16.4129 34.6056 16.2352C33.7741 16.1586 32.9365 16.1341 32.108 16.0421C29.8958 15.8001 27.6928 15.4599 25.4775 15.3128C24.5079 15.2485 23.5107 15.5549 22.5289 15.6928C22.0073 15.7664 21.4857 15.8644 20.961 15.9165C19.8257 16.0299 18.6813 16.0667 17.5552 16.223C15.5209 16.5294 13.4989 16.9032 11.4677 17.1974C10.6178 17.32 9.70348 17.1974 9.38438 18.3006C9.34449 18.4355 9.12053 18.509 9.02541 18.6377C8.84494 18.8248 8.71504 19.0547 8.64798 19.3057C8.50378 21.2762 8.39334 23.2496 8.28595 25.2231C8.01594 30.1966 7.63547 35.1702 7.51581 40.1468C7.38387 45.6627 7.42067 51.1786 7.5342 56.6945C7.5925 59.4525 7.98524 62.235 8.22763 65.0052C8.35036 66.4179 8.50379 67.8275 8.58663 69.2433C8.70323 71.1554 8.72472 73.0768 8.86586 74.989C8.95177 76.178 9.17266 77.3578 9.34142 78.5437C9.48563 79.5887 9.64826 80.6367 9.78327 81.6847C9.787 81.7819 9.81053 81.8772 9.85245 81.9649C9.89436 82.0526 9.95377 82.1308 10.027 82.1948C10.1003 82.2588 10.1858 82.3072 10.2785 82.337C10.3711 82.3667 10.4688 82.3774 10.5657 82.3681C11.2437 82.411 11.885 82.5336 12.6675 82.6347ZM19.8319 99.4889C20.1387 98.9251 20.3105 98.5696 20.5253 98.2632C21.1635 97.3071 22.5626 96.731 23.5936 96.9884C24.5539 97.2274 25.1001 97.969 25.2412 99.3418C25.3272 100.172 25.3333 101.009 25.3885 101.842C25.4714 103.034 25.5204 104.233 25.6646 105.419C25.7843 106.375 26.3427 106.608 27.1129 106.007C27.883 105.406 28.8434 105.186 29.8283 105.069C30.6779 104.945 31.5199 104.773 32.3504 104.554C33.0254 104.398 33.6882 104.187 34.3632 104.015C36.1643 103.565 37.9654 103.096 39.7726 102.682C40.5212 102.51 40.6931 102.023 40.8925 101.343C41.3324 99.7054 41.8924 98.1025 42.5678 96.5471C43.1998 95.1436 44.2983 95.0333 45.59 95.8637C46.8818 96.6942 47.7378 97.8679 48.3944 99.207C48.5386 99.4981 48.7258 99.7678 48.9713 100.178C49.0176 100.031 49.0514 99.8807 49.0725 99.7279C49.0357 96.1671 49.0265 92.6032 48.9375 89.0393C48.9068 87.7952 48.6583 86.5541 48.554 85.3069C48.4957 84.599 48.1797 84.36 47.477 84.409C45.2556 84.5653 43.0311 84.6787 40.8097 84.8074C40.1438 84.8441 39.475 84.8717 38.8091 84.9177C34.532 85.2057 30.2609 85.5581 25.9807 85.7543C24.2655 85.8339 22.535 85.5612 20.8106 85.4662C19.6938 85.408 19.6999 85.4233 19.7122 86.505C19.7572 90.3172 19.8012 94.1293 19.8441 97.9414C19.8349 98.3796 19.8319 98.8148 19.8319 99.495V99.4889Z" fill="#2A2A2A"/>
<path d="M196.954 168.885C196.258 163.241 196.371 157.565 196.212 151.899C196.12 148.66 195.417 145.44 195.055 142.204C194.837 140.27 194.705 138.324 194.613 136.381C194.423 132.517 194.306 128.65 194.125 124.786C194.037 122.814 193.919 120.846 193.77 118.88C193.546 115.816 193.288 112.776 193.045 109.724C192.923 108.192 192.824 106.66 192.68 105.146C192.447 102.651 192.198 100.159 191.932 97.6687C191.873 97.1201 191.741 96.5747 191.625 96.0292C191.533 95.5665 191.318 95.0946 191.349 94.6441C191.594 91.7268 190.849 88.8922 190.667 86.0147C190.551 84.1301 190.226 82.2608 189.992 80.3824C189.882 79.463 189.79 78.5437 189.649 77.6489C189.566 77.1096 189.406 76.5794 189.284 76.0462L189.026 75.9849C188.866 76.2669 188.609 76.5335 188.563 76.8338C187.9 81.0106 187.228 85.1904 187.894 89.4438C187.981 90.218 188.022 90.9967 188.017 91.7758C188.011 93.0462 188.237 94.307 188.685 95.496C189.247 96.8566 189.348 98.4164 189.563 99.9026C190.005 102.967 190.321 106.031 190.818 109.065C191.155 111.121 191.738 113.138 192.165 115.194C192.312 115.9 192.397 116.618 192.419 117.339C192.444 118.194 191.941 118.776 191.257 118.816C190.572 118.856 190.204 118.363 190.029 117.425C189.633 115.182 189.143 112.954 188.734 110.711C188.455 109.179 188.25 107.646 188.017 106.096C187.554 103.019 187.09 99.9425 186.624 96.8658C186.605 96.7371 186.528 96.6145 186.246 96.4153C186.078 96.7342 185.952 97.073 185.869 97.4235C185.78 98.1712 185.81 98.9281 185.734 99.6758C185.629 100.712 185.234 101.171 184.2 101.367C182.868 101.622 181.524 101.812 180.183 102.017C178.98 102.204 177.778 102.406 176.566 102.529C176.112 102.578 175.645 102.363 175.167 102.373C174.66 102.349 174.154 102.433 173.682 102.618C172.819 103.05 172.203 103.034 171.801 102.176C171.444 101.342 171.189 100.469 171.04 99.5747C170.822 98.493 170.708 97.3898 170.552 96.2958L170.245 96.2315C169.862 97.1508 169.346 98.0517 169.128 99.0139C168.723 100.773 168.515 102.575 168.208 104.355C167.655 107.453 167.072 110.545 166.523 113.643C166.33 114.737 166.177 115.841 166.042 116.947C165.907 118.053 165.403 118.69 164.584 118.626C163.765 118.562 163.357 117.94 163.464 116.809C163.851 112.991 164.283 109.175 164.691 105.36C164.842 104.003 165.017 102.651 165.124 101.294C165.6 95.3581 166.045 89.4193 166.529 83.4897C166.701 81.4641 167.051 79.4569 167.253 77.4375C167.388 76.083 167.416 74.7193 167.465 73.3587C167.461 73.2126 167.429 73.0687 167.369 72.9351C167.31 72.8016 167.225 72.681 167.118 72.5804C167.008 72.8194 166.894 73.0554 166.793 73.2975C164.597 78.4526 163.01 83.8455 162.062 89.3672C160.933 96.1518 159.761 102.927 158.776 109.733C158.38 112.491 158.429 115.286 158.288 118.068C158.094 121.819 157.907 125.572 157.726 129.327C157.708 129.689 157.653 130.05 157.644 130.409C157.536 136.063 157.472 141.713 157.315 147.364C157.196 151.731 156.895 156.095 156.794 160.464C156.732 163.158 156.892 165.861 156.953 168.557C157.067 169.655 157.177 170.752 157.3 171.849C157.325 172.069 157.404 172.281 157.438 172.498C157.539 173.157 157.46 173.773 156.699 173.951C155.938 174.129 155.499 173.644 155.333 173.032C155.045 171.938 154.867 170.816 154.643 169.704C154.575 168.876 154.511 168.052 154.447 167.224C154.447 164.942 154.312 162.649 154.489 160.379C154.968 154.25 154.925 148.139 155.045 142.014C155.174 135.578 155.616 129.171 155.892 122.745C156.002 120.213 156.039 117.679 156.094 115.148C156.195 110.484 156.855 105.887 157.684 101.306C158.604 96.2376 159.304 91.1262 160.365 86.0913C161.077 82.7205 162.234 79.4569 163.237 76.1596C163.519 75.2403 163.544 74.9339 162.577 74.6642C161.301 74.3179 159.976 74.1463 158.668 73.9226C157.874 73.7908 157.058 73.7571 156.275 73.5825C155.137 73.3312 154.379 72.6631 154.278 71.4221C154.072 68.897 153.808 66.375 153.695 63.8468C153.286 54.8069 152.917 45.7658 152.59 36.7238C152.36 30.3437 152.639 23.9728 153.011 17.6019C153.185 14.5712 153.228 11.5344 153.296 8.50065C153.317 7.65794 153.679 7.0849 154.235 6.46589C155.364 5.1648 156.758 4.11995 158.325 3.40149C159.914 2.69055 161.589 2.17573 163.234 1.56284C164.28 1.17979 165.302 0.720135 166.373 0.429017C167.257 0.186348 168.168 0.0555961 169.085 0.039836C172.798 -0.0183876 176.529 0.0980608 180.131 1.00819C183.003 1.73139 185.936 1.57204 188.814 2.08379C191.797 2.61393 194.828 2.85602 197.81 3.37391C199.839 3.72325 201.83 4.29323 203.453 5.69979C203.784 5.95307 204.148 6.15932 204.536 6.31267C205.509 6.76314 206.009 7.52005 205.929 8.57114C205.76 10.7591 205.536 12.944 205.34 15.129C205.168 17.0074 204.785 18.8951 204.867 20.7644C205.09 25.7908 204.866 30.8271 204.196 35.8137C203.495 40.8325 203.142 45.8937 203.14 50.961C203.171 56.7221 202.931 62.4862 202.793 68.2473C202.76 69.6661 202.64 71.0819 202.594 72.4977C202.56 73.6131 202.054 74.4098 200.98 74.6611C199.173 75.0871 197.326 75.3476 195.522 75.7796C194.422 76.0724 193.345 76.4441 192.3 76.892C192.122 76.9655 191.972 77.3976 191.993 77.6459C192.177 79.4447 192.41 81.2373 192.625 83.0331C192.754 84.1087 192.867 85.1782 192.999 86.263C193.116 87.1976 193.245 88.1322 193.374 89.0669C193.444 89.5633 193.635 90.0659 193.588 90.5501C193.282 93.6696 194.184 96.6789 194.414 99.7433C194.828 105.293 195.414 110.83 195.923 116.374C195.985 117.039 196.04 117.704 196.083 118.372C196.279 121.479 196.482 124.583 196.654 127.694C196.764 129.667 196.915 131.644 196.893 133.617C196.876 137.403 197.171 141.184 197.777 144.922C198.38 148.55 198.662 152.224 198.62 155.902C198.553 158.764 198.685 161.632 198.795 164.497C198.863 166.216 199.078 167.932 199.182 169.651C199.2 169.958 199.075 170.491 198.909 170.54C198.731 170.588 198.544 170.595 198.363 170.561C198.182 170.527 198.011 170.453 197.863 170.344C197.479 169.943 197.252 169.382 196.954 168.885ZM154.839 39.3347C155.115 45.5646 155.364 51.7976 155.677 58.0275C155.879 62.0572 156.156 66.0869 156.441 70.1135C156.533 71.373 156.616 71.4558 157.914 71.5354C159.917 71.6611 161.927 71.6856 163.796 72.5681C164.228 72.7704 164.55 72.6264 164.679 72.1361C164.986 70.9563 165.87 70.1902 166.735 69.467C167.122 69.1452 167.873 68.9307 168.303 69.087C168.732 69.2433 169.042 69.896 169.272 70.3924C169.472 70.8507 169.577 71.345 169.579 71.8449C169.604 73.3465 170.398 73.9318 171.822 74.0115C173.313 74.0973 174.786 74.4558 176.283 73.9655C177.06 73.7142 177.894 73.4415 178.689 73.4813C181.266 73.6131 183.838 73.8613 186.406 74.1126C187.096 74.18 187.446 73.9961 187.75 73.3496C188.363 72.0165 189.676 71.9185 190.625 73.0646C190.729 73.1933 190.79 73.3863 190.931 73.466C191.484 73.7908 191.913 74.6152 192.674 74.2321C194.239 73.4384 195.939 73.371 197.611 73.1228C198.353 73.0194 199.084 72.8502 199.796 72.6172C199.925 72.5392 200.036 72.4327 200.118 72.3058C200.2 72.1789 200.253 72.0349 200.271 71.8848C200.385 70.5824 200.471 69.277 200.498 67.9685C200.639 61.7048 200.685 55.4412 200.909 49.1806C201.063 44.8721 201.406 40.5696 201.765 36.2733C201.965 33.8617 202.526 31.4775 202.643 29.0659C202.775 26.4029 202.502 23.7215 202.56 21.0494C202.609 18.9472 202.867 16.845 203.076 14.749C203.223 13.2811 203.435 11.8225 203.625 10.3607C203.781 9.13499 203.625 8.09615 202.247 7.65794C202.17 7.62529 202.101 7.57613 202.045 7.51392C200.753 6.39847 199.167 5.91123 197.556 5.6385C194.598 5.13594 191.594 4.89079 188.658 4.36065C185.721 3.8305 182.678 4.01743 179.723 3.26053C176.21 2.36266 172.559 2.2646 168.929 2.2983C168.4 2.29115 167.873 2.36557 167.367 2.51894C165.37 3.19311 163.421 4.05114 161.393 4.59661C159.273 5.17271 157.711 6.4996 156.22 7.94906C155.924 8.26779 155.738 8.67257 155.689 9.10434C155.591 9.95931 155.616 10.8296 155.588 11.6907C155.269 20.9023 154.419 30.1016 154.839 39.3347ZM173.479 99.9516C174.136 99.9516 174.768 99.9179 175.391 99.9516C176.105 100.001 176.827 100.258 177.538 100.181C179.083 100.043 180.619 99.8233 182.141 99.5226C183.543 99.2499 183.546 99.1855 183.552 97.7514C183.552 96.2345 183.966 94.9628 185.427 94.1936C185.629 94.0833 185.761 93.6359 185.749 93.3509C185.675 91.6563 185.565 89.9617 185.442 88.2701C185.201 84.7688 185.417 81.251 186.083 77.8052C186.347 76.4078 186.317 76.4507 184.936 76.3833C183.804 76.3282 182.681 76.1351 181.561 75.9941C181.091 75.939 180.64 75.8195 180.159 75.8011C178.996 75.7582 177.891 75.7766 176.731 76.2301C175.044 76.892 173.206 76.5519 171.445 76.2883C170.291 76.1167 169.791 76.322 169.638 77.4344C169.401 79.1443 169.147 80.8543 169.009 82.5703C168.702 86.5387 168.432 90.5102 168.156 94.4786C168.185 94.6774 168.236 94.8725 168.306 95.0609C168.473 94.7994 168.662 94.5523 168.87 94.3223C170.316 93.0383 171.905 93.403 172.583 95.2141C172.777 95.7648 172.921 96.332 173.013 96.9087C173.178 97.923 173.319 98.9404 173.479 99.9516Z" fill="#2A2A2A"/>
<path d="M136.515 170.09C136.411 169.388 136.279 168.689 136.209 167.981C135.945 165.496 135.684 163.008 135.448 160.52C135.07 156.56 134.72 152.598 134.343 148.639C134.113 146.203 133.843 143.766 133.613 141.33C133.407 139.185 133.245 137.013 133.045 134.858C132.83 132.588 132.585 130.32 132.376 128.049C132.275 126.943 132.165 125.834 132.165 124.724C132.165 120.857 132.229 117.011 131.637 113.147C131.186 110.22 131.312 107.205 131.164 104.23C130.943 99.7249 130.735 95.2202 130.468 90.7155C130.253 87.0383 130.008 83.3855 129.673 79.7296C129.535 78.2158 129.13 76.7235 128.832 75.225C128.803 75.032 128.714 74.8531 128.578 74.7132C128.297 74.5055 128.003 74.3171 127.697 74.1494C127.522 74.4558 127.218 74.7316 127.191 75.0411C126.917 78.2833 126.672 81.5264 126.458 84.7706C126.416 85.661 126.423 86.5531 126.479 87.4428C126.669 91.5552 126.642 95.6952 127.154 99.7678C127.519 102.664 127.366 105.547 127.645 108.425C127.811 110.135 127.835 111.857 127.897 113.573C127.9 113.935 127.856 114.295 127.765 114.645C127.608 115.344 127.185 115.807 126.439 115.81C125.694 115.813 125.273 115.332 125.114 114.642C124.721 112.963 124.368 111.272 123.954 109.595C123.58 108.085 123.116 106.595 122.727 105.085C122.113 102.602 121.51 100.115 120.919 97.6227C120.707 96.7779 120.178 96.0471 119.44 95.5818C119.038 95.2999 118.71 95.2754 118.486 95.8607C118.179 96.636 117.784 97.3745 117.44 98.1345C116.958 99.207 116.277 99.6513 115.123 99.4613C113.862 99.253 112.626 98.9281 111.371 98.6799C110.966 98.6034 110.555 98.5644 110.144 98.5635C108.364 98.5635 106.584 98.5328 104.805 98.5635C103.719 98.5788 102.635 98.6922 101.552 98.7198C100.018 98.7565 99.377 98.2294 99.0609 96.7156C98.9136 96.0139 98.8001 95.3029 98.6743 94.5981L98.4503 94.5185C98.1771 95.0274 97.9472 95.5584 97.763 96.1058C97.5763 96.8625 97.4521 97.6332 97.3918 98.4102C96.9827 103.238 96.5787 108.065 96.1798 112.893C96.1276 113.53 96.1277 114.17 96.1092 114.811C96.0755 115.899 95.6827 116.502 94.9494 116.576C94.2161 116.65 93.6792 116.172 93.4767 115.157C93.2169 114.105 93.0739 113.027 93.0502 111.943C93.2036 106.267 93.4368 100.604 93.6424 94.9199C93.7129 92.974 93.8172 91.0281 93.8541 89.0791C93.9246 85.4019 93.9584 81.7246 94.0075 78.0473C94.0075 77.9094 94.0075 77.7684 94.0075 77.6305C94.0075 76.9441 93.5994 76.5181 92.9827 76.5856C92.6237 76.6223 92.2095 77.0299 92.0008 77.3793C91.7997 77.8081 91.6741 78.2684 91.6296 78.7398C91.1264 81.3905 90.4974 84.0259 90.1752 86.7073C89.8193 89.6859 89.7088 92.6951 89.5615 95.6921C89.3376 99.9823 89.0798 104.254 88.997 108.541C88.8957 113.913 88.9203 119.288 88.9694 124.66C88.9908 127.191 89.1934 129.722 89.31 132.254C89.6383 139.372 89.988 146.491 90.2826 153.612C90.4912 158.678 90.614 163.743 90.8042 168.809C90.8502 170.056 90.9883 171.303 91.1356 172.547C91.2184 173.231 91.1172 173.81 90.5526 174.254C89.3253 174.217 89.0185 174.015 88.8528 172.786C88.6411 171.021 88.4938 169.244 88.4263 167.467C88.1655 160.593 87.963 153.72 87.7022 146.846C87.5948 144.067 87.3677 141.29 87.2297 138.508C87.0486 134.831 86.8369 131.153 86.751 127.495C86.6344 122.457 86.5393 117.416 86.5914 112.378C86.6313 108.679 86.9596 104.983 87.0977 101.285C87.1959 98.5849 87.0578 95.8729 87.2695 93.1854C87.5242 89.9219 88.009 86.6705 88.4416 83.4222C88.6472 81.89 88.9909 80.3578 89.2118 78.8256C89.2425 78.6142 88.9724 78.271 88.7515 78.1362C88.4719 78.0107 88.1682 77.948 87.8617 77.9523C86.5853 77.8267 85.9839 77.2996 85.9042 76.0095C85.6587 72.1514 85.4623 68.2902 85.2445 64.4291C85.0768 61.426 84.908 58.4249 84.7382 55.4259C84.6124 53.1766 84.4529 50.9243 84.3854 48.6842C84.2504 43.9252 84.1583 39.1631 84.0785 34.4041C84.0455 33.8756 84.0952 33.3452 84.2258 32.832C84.9039 30.5644 84.7014 28.2599 84.6431 25.9494C84.6001 24.2823 84.7474 22.6122 84.7351 20.9452C84.7229 19.2782 84.6585 17.5529 84.5541 15.8583C84.4682 14.4272 84.9867 13.1892 85.6157 11.9665C85.7415 11.7183 85.8796 11.4762 85.987 11.2188C86.4626 10.0849 87.288 9.68658 88.4662 10.0451C88.8964 10.1591 89.3195 10.2982 89.7334 10.4619C91.9855 11.418 94.3358 11.4517 96.6953 11.1636C96.7783 11.1489 96.8625 11.1417 96.9469 11.1422C98.883 11.2188 100.819 11.2586 102.752 11.3904C105.109 11.5528 107.462 11.7918 109.809 12.0033C110.002 12.0217 110.199 12.0216 110.392 12.0431C113.374 12.3894 116.354 12.754 119.339 13.0758C119.978 13.1274 120.621 13.113 121.257 13.0329C122.276 12.9088 123.31 13.0007 124.291 13.3026C125.414 13.658 126.648 13.655 127.835 13.8021C130.443 14.1238 132.401 15.5549 132.769 18.2853C133.272 22.0085 133.996 25.7195 134.193 29.4612C134.542 35.7126 134.558 41.9823 134.739 48.2429C134.791 50.0203 134.951 51.7915 135.024 53.5658C135.119 55.8763 135.208 58.1838 135.242 60.4944C135.31 64.95 135.343 69.4057 135.374 73.8582C135.374 75.798 134.886 76.3527 132.947 76.653C132.697 76.652 132.449 76.6988 132.217 76.7909C132.106 76.8573 132.011 76.9461 131.937 77.0517C131.863 77.1573 131.812 77.2772 131.787 77.4038C131.947 80.4038 132.119 83.4039 132.343 86.4008C132.545 89.119 132.867 91.8279 133.048 94.5491C133.254 97.6319 133.355 100.724 133.515 103.81C133.754 107.999 133.84 112.194 134.364 116.374C134.696 119.037 134.457 121.767 134.53 124.467C134.567 125.797 134.714 127.124 134.837 128.451C134.981 130.032 135.165 131.607 135.3 133.188C135.5 135.483 135.656 137.785 135.865 140.08C136.098 142.657 136.38 145.228 136.623 147.802C136.979 151.541 137.307 155.279 137.672 159.018C137.862 160.979 138.111 162.937 138.332 164.896C138.599 167.289 138.856 169.682 139.133 172.075C139.209 172.737 139.062 173.249 138.359 173.436C137.709 173.611 137.117 173.231 136.93 172.489C136.825 172.06 136.838 171.607 136.77 171.165C136.681 170.779 136.589 170.436 136.515 170.09ZM124.445 101.53C124.629 102.489 124.81 103.451 124.994 104.41L125.264 104.371C125.169 103.421 125.077 102.471 124.982 101.524C124.709 97.8066 124.307 94.0956 124.196 90.3754C124.089 86.6981 124.273 83.0208 124.344 79.3589C124.362 78.2741 124.344 78.1178 123.23 78.0442C121.257 77.9125 119.278 77.9186 117.302 77.8144C114.384 77.6642 111.472 77.4283 108.548 77.3088C106.572 77.2291 104.59 77.2291 102.614 77.3088C100.868 77.3701 99.1284 77.6612 97.3826 77.6888C96.5173 77.6888 96.3209 77.9217 96.3117 78.7582C96.2626 82.7634 96.1338 86.7686 96.0448 90.7768C96.0233 91.7237 96.0448 92.6737 96.0448 93.8198C96.4805 93.3142 96.7321 92.9801 97.0267 92.689C97.3501 92.3562 97.7603 92.1204 98.2109 92.0083C98.6614 91.8962 99.1345 91.9123 99.5764 92.0547C100.432 92.2937 100.758 93.02 100.914 93.8228C101.031 94.4357 101.138 95.0271 101.2 95.6339C101.261 96.2407 101.565 96.4398 102.148 96.3939C103.068 96.3203 103.989 96.256 104.909 96.2437C106.633 96.2253 108.358 96.2253 110.079 96.259C110.743 96.2757 111.405 96.3464 112.058 96.4705C112.979 96.636 113.899 96.8964 114.82 97.0435C114.957 97.0434 115.092 97.0109 115.214 96.9486C115.336 96.8862 115.442 96.7959 115.522 96.685C115.871 96.0822 116.168 95.4507 116.409 94.7973C117.293 92.3764 117.455 92.2661 119.784 93.2008C120.624 93.5117 121.372 94.0273 121.961 94.7005C122.551 95.3737 122.963 96.1833 123.159 97.0558C123.543 98.5512 124.015 100.037 124.445 101.53ZM132.346 40.7382C132.404 33.3622 131.575 26.0627 130.489 18.7848C130.253 17.1821 129.428 16.4681 127.912 16.1218C126.191 15.7296 124.423 15.5089 122.674 15.2362C122.535 15.227 122.396 15.227 122.257 15.2362C120.594 15.1841 118.928 15.1535 117.268 15.0769C115.608 15.0003 114.04 14.9328 112.432 14.7704C109.475 14.464 106.526 14.0687 103.565 13.8051C102.132 13.6764 100.653 13.9369 99.245 13.7163C97.9224 13.5489 96.5869 13.5058 95.2563 13.5876C93.0563 13.6397 90.8656 13.563 88.7914 12.6499C88.5245 12.5303 87.8893 12.6499 87.8126 12.8061C87.4168 13.7071 86.9136 14.6448 86.8922 15.5978C86.8032 17.7429 86.9965 19.888 87.021 22.0331C87.0456 24.1781 87.0732 26.2619 86.9781 28.3702C86.9075 29.976 86.6436 31.5695 86.4657 33.166C86.4128 33.4393 86.3779 33.7156 86.3613 33.9934C86.4074 36.9996 86.4166 40.0088 86.5332 43.015C86.7265 48.0468 86.9934 53.0785 87.2297 58.1103C87.3892 61.5302 87.5365 64.9531 87.7114 68.373C87.8249 70.5395 87.9875 72.703 88.1685 74.8664C88.19 75.1514 88.4109 75.6172 88.6104 75.6571C89.1351 75.7704 89.6996 76.319 90.2488 75.5529C91.4762 73.846 92.8446 73.6345 95.1765 74.8664C95.5253 75.0753 95.9123 75.2128 96.3148 75.2709C97.3405 75.3526 98.3702 75.3731 99.3984 75.3322C100.933 75.2587 102.5 74.9584 104.044 74.9982C108.22 75.1055 112.39 75.3506 116.565 75.5222C118.876 75.6172 121.189 75.6417 123.497 75.7674C124.617 75.8256 124.681 75.9053 124.785 74.7776C124.926 73.2454 125.887 72.2954 127.053 71.5599C127.461 71.3056 128.329 71.2535 128.667 71.517C129.528 72.1593 130.257 72.9615 130.814 73.8797C131.293 74.7255 131.852 74.4006 132.435 74.3761C133.107 74.3516 133.021 73.8399 133.018 73.3986C132.978 69.0808 132.959 64.7662 132.886 60.4484C132.846 58.1103 132.726 55.7752 132.616 53.4401C132.548 51.9968 132.367 50.5565 132.346 49.1132C132.315 46.3093 132.346 43.5237 132.346 40.7382Z" fill="#2A2A2A"/>
<path d="M264.07 155.019C264.156 153.269 264.349 151.516 264.3 149.773C264.174 145.176 263.806 140.58 263.797 136.007C263.797 132.122 264.146 128.233 264.34 124.363C264.355 124.029 264.38 123.695 264.377 123.361C264.377 116.791 264.413 110.217 264.321 103.647C264.281 100.981 264.014 98.3091 263.738 95.6523C263.378 92.1405 262.957 88.6348 262.474 85.1353C262.276 83.9293 261.976 82.7423 261.578 81.5867C260.925 79.5182 260.317 77.4283 259.47 75.4395C258.78 73.8123 257.859 72.2494 256.215 71.324C256.074 71.2443 255.908 71.1922 255.696 71.0972C255.545 71.5656 255.516 72.0648 255.612 72.5475C255.708 73.0302 255.926 73.4804 256.246 73.8552C257.93 76.0677 258.602 78.6602 259.345 81.268C260.434 85.1015 260.136 88.929 259.651 92.7717C259.345 95.2233 259.28 97.6748 259.817 100.145C260.372 102.722 260.56 105.379 260.943 107.996C261.084 108.958 261.357 109.899 261.505 110.861C261.643 111.624 261.7 112.4 261.673 113.175C261.666 113.343 261.624 113.509 261.548 113.66C261.473 113.811 261.366 113.945 261.236 114.053C261.105 114.16 260.954 114.239 260.791 114.284C260.628 114.329 260.457 114.34 260.29 114.315C259.624 114.22 259.206 113.591 259.2 112.847C259.188 112.162 259.129 111.479 259.025 110.803C258.596 107.827 258.105 104.861 257.712 101.882C257.375 99.348 257.172 96.7953 256.822 94.2641C256.669 93.3599 256.402 92.4786 256.028 91.641C255.941 91.4801 255.815 91.3429 255.663 91.2414C255.51 91.1399 255.336 91.0772 255.153 91.0587C254.871 91.0833 254.564 91.4847 254.38 91.785C254.254 92.0631 254.19 92.3654 254.193 92.6706C254.039 94.1844 253.487 94.8555 251.965 94.9996C250.637 95.1252 249.293 95.0455 247.955 95.0946C247.24 95.1221 246.479 95.0946 245.807 95.3152C244.077 95.9281 242.432 95.3428 240.778 95.0731C239.051 94.7912 237.403 94.5491 235.725 95.4194C234.786 95.9097 233.789 95.3244 233.451 94.2273C233.234 93.5287 233.145 92.7963 232.816 92.0669C232.644 93.2345 232.436 94.3989 232.307 95.5726C232 98.447 231.577 101.321 231.463 104.205C231.389 105.985 231.788 107.787 231.979 109.58C232.083 110.119 232.139 110.667 232.147 111.216C232.145 111.365 232.114 111.511 232.055 111.648C231.996 111.784 231.91 111.907 231.803 112.01C231.697 112.114 231.57 112.195 231.432 112.249C231.293 112.303 231.145 112.329 230.997 112.326C230.711 112.346 230.429 112.258 230.206 112.08C229.982 111.902 229.834 111.646 229.791 111.363C229.56 110.297 229.385 109.219 229.266 108.134C228.88 104.708 228.459 101.282 228.192 97.8464C227.904 94.1017 227.79 90.3478 227.563 86.6C227.33 82.742 227.048 78.8869 226.793 75.0289C226.8 74.4724 226.777 73.9159 226.726 73.3618C226.597 72.5865 226.37 71.8296 226.183 71.0604C225.32 71.134 224.872 71.5109 224.725 72.1085C224.457 73.0722 224.281 74.0593 224.201 75.0564C223.964 80.0882 223.621 85.123 223.63 90.1578C223.645 98.3704 223.897 106.586 224.078 114.799C224.105 116.077 224.317 117.351 224.385 118.629C224.691 124.326 224.934 130.029 225.265 135.725C225.471 139.277 225.833 142.823 226.045 146.374C226.176 148.568 226.152 150.772 226.21 152.972C226.33 157.569 226.465 162.147 226.582 166.737C226.556 167.066 226.5 167.391 226.413 167.709C225.21 168.447 224.339 168.015 224.24 166.52C224.087 164.218 223.952 161.923 223.906 159.603C223.826 155.454 223.906 151.302 223.749 147.156C223.63 143.742 223.265 140.334 223.047 136.921C222.823 133.421 222.645 129.918 222.449 126.416C222.258 123.045 222.062 119.693 221.884 116.328C221.764 114.079 221.614 111.826 221.577 109.571C221.451 102.523 221.298 95.4746 221.304 88.4264C221.304 84.7859 221.611 81.1423 221.81 77.5018C221.912 75.5651 222.05 73.6315 222.179 71.5998C221.283 71.5998 220.322 71.5599 219.365 71.5998C218.53 71.6458 217.978 71.3209 217.812 70.4384C217.685 69.7251 217.617 69.0025 217.61 68.278C217.52 59.5914 217.441 50.9018 217.374 42.2091C217.346 38.2836 217.309 34.355 217.398 30.4326C217.444 28.5204 217.822 26.6174 217.96 24.7022C218.359 19.2628 218.702 13.8205 219.086 8.38115C219.156 7.43763 219.277 6.49856 219.448 5.56803C219.48 5.27082 219.625 4.99731 219.853 4.80439C220.082 4.61147 220.376 4.514 220.675 4.53226C220.925 4.53926 221.175 4.50721 221.415 4.43726C223.289 3.79374 225.256 3.84583 227.186 3.80599C230.518 3.73858 233.859 3.78148 237.189 3.95615C238.664 4.03276 240.11 4.56903 241.576 4.85402C243.15 5.16046 244.733 5.66915 246.314 5.66915C247.92 5.71638 249.522 5.85655 251.112 6.08897C252.662 6.26671 254.214 6.39542 255.767 6.51186C258.099 6.72475 260.38 7.32115 262.517 8.27696C263.502 8.69985 263.806 9.64062 263.849 10.6243C263.987 13.7377 264.076 16.8512 264.205 19.9646C264.226 20.5438 264.346 21.1199 264.413 21.699C264.594 23.2312 264.993 24.791 264.898 26.3171C264.756 29.1248 264.796 31.9386 265.018 34.7411C265.325 39.4327 265.325 44.1458 265.463 48.8374C265.496 49.9743 265.638 51.1081 265.72 52.245C265.89 54.4922 266.055 56.7395 266.214 58.9867L266.905 68.6334C266.939 69.1054 266.948 69.5803 266.994 70.0492C267.159 71.7591 266.221 72.7612 264.8 73.42C264.121 73.7421 263.423 74.0235 262.71 74.2628C261.815 74.5692 261.821 74.6029 262.097 75.4885C262.965 78.1883 263.975 80.8635 264.551 83.6245C265.499 88.0311 265.862 92.5358 266.224 97.0313C266.939 105.875 266.687 114.731 266.675 123.584C266.675 126.532 266.675 129.505 266.346 132.425C265.855 136.59 266.267 140.699 266.484 144.833C266.681 148.51 266.896 152.227 266.303 155.923C266.11 157.115 266.254 158.374 266.273 159.6C266.303 161.408 266.359 163.216 266.405 165.024C266.4 165.076 266.4 165.129 266.405 165.181C266.187 165.554 266.049 166.039 265.73 166.271C265.411 166.504 264.809 166.679 264.484 166.535C264.159 166.391 264.064 165.824 263.892 165.426C263.863 165.292 263.863 165.154 263.892 165.021C263.99 164.743 264.057 164.454 264.091 164.16C264.097 161.117 264.097 158.062 264.07 155.019ZM260.636 72.4272C261.103 72.3138 261.557 72.2249 262.011 72.084C262.486 71.9266 262.953 71.7446 263.41 71.5385C264.637 70.9992 264.794 70.7663 264.653 69.4333C264.521 68.2075 264.275 67.0093 264.199 65.7927C264.042 63.3198 263.996 60.8437 263.855 58.3708C263.741 56.4003 263.548 54.433 263.395 52.4626C263.312 51.4391 263.174 50.4156 263.143 49.3982C262.99 44.4951 262.968 39.5921 262.689 34.7074C262.548 32.1762 262.25 29.6665 262.572 27.1322C262.809 25.4696 262.669 23.7751 262.161 22.174C262.006 21.6981 261.917 21.2032 261.897 20.7031C261.768 17.5345 261.66 14.368 261.572 11.2035C261.554 10.612 261.357 10.2841 260.793 10.0972C258.676 9.38934 256.555 8.73662 254.279 8.80404C253.528 8.79771 252.779 8.73316 252.039 8.61098C250.578 8.42711 249.103 7.96132 247.67 8.08084C245.433 8.27083 243.393 7.44344 241.226 7.28103C241.094 7.28103 240.972 7.16152 240.84 7.13394C239.49 6.84282 238.149 6.4138 236.784 6.31267C234.875 6.16865 232.951 6.2759 231.034 6.26671C230.395 6.26671 229.757 6.19623 229.119 6.20849C227.312 6.24526 225.508 6.31574 223.703 6.35864C222.538 6.38622 221.399 7.29635 221.341 8.43631C221.056 13.8818 220.66 19.3211 220.264 24.7604C220.123 26.7032 219.739 28.6338 219.696 30.5827C219.607 34.6461 219.644 38.7126 219.675 42.7791C219.736 51.2736 219.831 59.7681 219.896 68.2596C219.896 68.8571 220.006 69.2065 220.693 69.2187C222.188 69.2494 223.676 69.3321 225.112 68.753C226.486 68.2014 227.588 68.471 227.978 69.5436C228.426 70.7847 229.318 71.1034 230.487 71.1769C231.176 71.253 231.859 71.3686 232.534 71.5232C234.28 71.8296 236.016 72.3261 237.775 72.418C240.889 72.5804 244.019 72.4425 247.136 72.5498C248.314 72.5896 249.486 72.9328 250.649 73.1933C251.517 73.3894 252.367 73.5426 253.18 73.3097C253.18 72.513 253.134 71.8174 253.18 71.1279C253.377 68.7621 254.948 67.9256 257.031 69.0471C257.105 69.0839 257.175 69.1329 257.249 69.1697C258.731 69.8745 259.716 71.1095 260.636 72.418V72.4272ZM257.629 89.4653C257.656 89.4248 257.676 89.3803 257.688 89.3335C257.706 89.1404 257.706 88.9443 257.724 88.7513C257.971 86.1114 257.675 83.449 256.853 80.9278C256.359 79.3956 255.782 77.8941 255.15 76.417C255 76.0646 254.448 75.6111 254.132 75.6479C252.202 75.8716 250.394 75.3414 248.529 75.035C246.568 74.704 244.54 74.7285 242.533 74.7592C238.741 74.7868 234.952 74.8756 231.31 73.5518C231.011 73.4672 230.7 73.43 230.389 73.4415C228.981 73.3925 228.892 73.5089 229.101 74.94C229.3 76.0349 229.44 77.1396 229.521 78.2495C229.677 82.5397 229.766 86.8299 229.895 91.0986C229.914 91.7115 230.027 92.3243 230.095 92.9219H230.316C230.475 92.0853 230.543 91.215 230.825 90.4214C231.046 89.8085 231.414 89.0975 231.93 88.7574C233.326 87.8381 234.918 88.7574 235.228 90.5317C235.332 91.1445 235.326 91.7574 235.458 92.3519C235.498 92.5327 235.894 92.8116 236.041 92.7656C237.759 92.2263 239.456 92.4868 241.165 92.8055C242.874 93.1242 244.608 93.5011 246.338 92.7779C246.717 92.6814 247.111 92.6606 247.498 92.7166C248.474 92.735 249.446 92.7932 250.422 92.7993C251.701 92.7993 251.701 92.7993 251.999 91.5582C252.502 89.4745 253.73 88.4724 255.681 88.7145C256.335 88.7819 256.945 89.1803 257.629 89.4561V89.4653Z" fill="#2A2A2A"/>
<path d="M35.3329 118.553C35.3329 119.309 35.3329 119.827 35.3329 120.348C35.3329 121.007 35.0629 121.516 34.3633 121.602C34.2099 121.634 34.0512 121.632 33.8984 121.597C33.7456 121.562 33.6022 121.494 33.4782 121.398C33.3542 121.302 33.2525 121.181 33.1802 121.042C33.1079 120.903 33.0666 120.75 33.0593 120.593C32.9619 119.547 32.9908 118.492 33.1452 117.452C33.2925 116.548 34.1056 116.104 35.1212 116.144C36.6154 116.205 37.6985 117.121 38.7632 118.007C38.9903 118.197 39.0547 118.834 38.9166 119.135C38.8146 119.305 38.6744 119.448 38.5072 119.555C38.34 119.661 38.1504 119.727 37.9532 119.748C37.4899 119.748 37.0112 119.49 36.5633 119.288C36.1397 119.066 35.729 118.82 35.3329 118.553Z" fill="#2A2A2A"/>
<path d="M43.6572 111.869C43.6407 112.233 43.4853 112.577 43.2227 112.83C42.9602 113.083 42.6106 113.226 42.2458 113.23C42.0859 113.243 41.925 113.224 41.7728 113.173C41.6206 113.122 41.4804 113.041 41.3607 112.934C41.2409 112.828 41.1442 112.698 41.0764 112.553C41.0086 112.407 40.9712 112.25 40.9663 112.09C40.9663 111.388 41.6076 110.806 42.4237 110.787C42.5767 110.773 42.731 110.79 42.8772 110.838C43.0234 110.885 43.1584 110.962 43.2738 111.063C43.3893 111.164 43.4829 111.288 43.5488 111.426C43.6147 111.565 43.6516 111.716 43.6572 111.869Z" fill="#2A2A2A"/>
<path d="M24.6185 114.164C25.2935 114.186 25.7722 114.777 25.7384 115.556C25.7386 115.721 25.7052 115.885 25.6403 116.037C25.5754 116.189 25.4803 116.327 25.3607 116.441C25.2412 116.556 25.0996 116.645 24.9447 116.703C24.7897 116.762 24.6245 116.788 24.459 116.781C24.1375 116.757 23.8381 116.609 23.6239 116.368C23.4098 116.127 23.2978 115.813 23.3114 115.491C23.3137 115.144 23.4515 114.811 23.6955 114.563C23.9396 114.315 24.2706 114.172 24.6185 114.164Z" fill="#2A2A2A"/>
<path d="M107.941 108.569C107.772 109.182 107.585 109.795 107.437 110.407C107.29 111.02 106.98 111.44 106.321 111.44C105.661 111.44 105.268 110.99 105.133 110.358C104.875 109.179 106.054 106.752 107.127 106.194C107.456 106.002 107.833 105.907 108.213 105.922C108.594 105.937 108.962 106.06 109.275 106.277C110.497 107.08 111.385 108.298 111.776 109.706C111.809 109.936 111.785 110.17 111.705 110.389C111.626 110.607 111.494 110.803 111.322 110.959C111.015 111.152 110.364 111.023 109.981 110.821C109.656 110.653 109.505 110.168 109.263 109.834C108.932 109.378 108.588 108.933 108.25 108.483L107.941 108.569Z" fill="#2A2A2A"/>
<path d="M117.127 105.734C117.111 106.082 116.967 106.411 116.722 106.659C116.477 106.907 116.149 107.056 115.801 107.076C115.649 107.08 115.497 107.052 115.355 106.997C115.214 106.941 115.084 106.857 114.975 106.751C114.866 106.644 114.779 106.517 114.72 106.377C114.661 106.236 114.63 106.086 114.629 105.933C114.626 105.76 114.657 105.589 114.721 105.428C114.784 105.267 114.879 105.121 115 104.997C115.121 104.873 115.265 104.774 115.424 104.706C115.583 104.638 115.754 104.602 115.927 104.6C116.235 104.598 116.532 104.715 116.755 104.927C116.979 105.138 117.112 105.427 117.127 105.734Z" fill="#2A2A2A"/>
<path d="M101.583 105.802C101.595 105.946 101.577 106.092 101.529 106.229C101.481 106.366 101.405 106.491 101.305 106.597C101.206 106.703 101.085 106.786 100.951 106.843C100.817 106.899 100.673 106.926 100.528 106.923C100.388 106.928 100.249 106.905 100.119 106.853C99.9884 106.802 99.8704 106.725 99.7718 106.626C99.6733 106.527 99.5963 106.408 99.5458 106.278C99.4952 106.148 99.4723 106.009 99.4783 105.869C99.4721 105.73 99.4951 105.592 99.5457 105.462C99.5964 105.333 99.6736 105.215 99.7725 105.117C99.8713 105.02 99.9896 104.943 100.12 104.894C100.25 104.844 100.389 104.823 100.528 104.83C100.795 104.823 101.055 104.921 101.252 105.102C101.449 105.284 101.568 105.534 101.583 105.802Z" fill="#2A2A2A"/>
<path d="M243.595 103.427C243.368 104.156 243.249 104.61 243.086 105.045C242.85 105.673 242.448 106.108 241.705 105.982C241.545 105.953 241.393 105.888 241.26 105.795C241.126 105.701 241.015 105.579 240.933 105.439C240.851 105.298 240.8 105.141 240.784 104.979C240.768 104.817 240.787 104.653 240.84 104.499C241.157 103.412 241.573 102.357 242.083 101.346C242.448 100.629 243.31 100.375 243.875 100.816C245.022 101.708 246.412 102.348 247.096 103.77C247.532 104.668 247.489 105.327 246.857 105.67C246.225 106.013 245.47 105.685 244.948 104.947C244.525 104.416 244.074 103.908 243.595 103.427Z" fill="#2A2A2A"/>
<path d="M237.029 102.179C237.012 102.557 236.845 102.913 236.567 103.169C236.288 103.425 235.919 103.56 235.541 103.546C235.381 103.557 235.221 103.534 235.07 103.481C234.919 103.427 234.78 103.344 234.662 103.235C234.545 103.127 234.45 102.995 234.385 102.849C234.32 102.703 234.285 102.545 234.283 102.385C234.283 101.701 235.019 101.079 235.848 101.055C236.001 101.045 236.154 101.067 236.298 101.119C236.442 101.172 236.574 101.253 236.685 101.359C236.796 101.465 236.884 101.592 236.943 101.733C237.002 101.874 237.031 102.026 237.029 102.179Z" fill="#2A2A2A"/>
<path d="M251.379 99.9486C251.525 99.9452 251.671 99.9716 251.806 100.026C251.942 100.081 252.065 100.162 252.168 100.265C252.271 100.369 252.352 100.492 252.406 100.628C252.459 100.764 252.485 100.909 252.481 101.055C252.464 101.403 252.319 101.734 252.074 101.982C251.829 102.231 251.501 102.381 251.152 102.403C251.006 102.405 250.861 102.377 250.726 102.322C250.591 102.266 250.469 102.184 250.366 102.08C250.264 101.976 250.183 101.853 250.13 101.717C250.076 101.582 250.05 101.437 250.054 101.291C250.068 100.942 250.211 100.612 250.457 100.364C250.702 100.115 251.031 99.9674 251.379 99.9486Z" fill="#2A2A2A"/>
<path d="M181.061 112.117C180.969 112.424 180.966 112.66 180.846 112.773C180.539 113.055 180.186 113.469 179.843 113.478C179.634 113.45 179.433 113.378 179.254 113.266C179.076 113.154 178.924 113.005 178.809 112.828C178.609 112.464 178.547 112.039 178.637 111.633C178.794 110.814 179.037 110.014 179.361 109.246C179.904 108.02 181.122 107.928 181.932 108.995C182.184 109.326 182.457 109.644 182.711 109.972C182.857 110.14 182.981 110.325 183.08 110.524C183.365 111.201 183.482 111.906 182.846 112.442C182.211 112.978 181.653 112.641 181.061 112.117Z" fill="#2A2A2A"/>
<path d="M184.629 106.179C184.467 106.181 184.307 106.151 184.157 106.09C184.006 106.03 183.87 105.939 183.756 105.825C183.641 105.711 183.551 105.575 183.49 105.425C183.429 105.275 183.399 105.114 183.402 104.953C183.394 104.778 183.422 104.604 183.485 104.442C183.547 104.279 183.644 104.131 183.767 104.007C183.89 103.883 184.038 103.787 184.2 103.723C184.363 103.66 184.537 103.631 184.712 103.638C185.049 103.624 185.379 103.741 185.633 103.965C185.886 104.188 186.043 104.5 186.071 104.836C186.08 105.514 185.375 106.163 184.629 106.179Z" fill="#2A2A2A"/>
<path d="M174.998 106.16C174.986 106.496 174.842 106.814 174.597 107.044C174.351 107.274 174.024 107.397 173.688 107.386C173.374 107.393 173.071 107.278 172.841 107.065C172.612 106.852 172.475 106.558 172.46 106.246C172.46 105.921 172.59 105.609 172.82 105.379C173.05 105.149 173.362 105.02 173.688 105.02C173.85 105.003 174.014 105.019 174.169 105.068C174.325 105.117 174.469 105.197 174.592 105.304C174.715 105.411 174.814 105.543 174.884 105.69C174.954 105.837 174.993 105.997 174.998 106.16Z" fill="#2A2A2A"/>
<path d="M12.6675 82.6347C11.8943 82.5336 11.2438 82.411 10.5872 82.3742C10.4904 82.3835 10.3926 82.3729 10.3 82.3431C10.2074 82.3133 10.1218 82.2649 10.0486 82.2009C9.97532 82.137 9.91594 82.0587 9.87403 81.971C9.83212 81.8833 9.80855 81.788 9.80481 81.6909C9.6606 80.6428 9.498 79.5948 9.363 78.5498C9.19731 77.3639 8.97331 76.1841 8.8874 74.9951C8.74626 73.0829 8.72477 71.1616 8.60818 69.2494C8.52534 67.8336 8.37195 66.424 8.24921 65.0113C8.00682 62.2533 7.61408 59.4739 7.55578 56.7007C7.44226 51.1847 7.40542 45.6688 7.53735 40.1529C7.65702 35.1763 8.03749 30.2028 8.30749 25.2292C8.41488 23.2558 8.52536 21.2823 8.66957 19.3119C8.73662 19.0608 8.86648 18.8309 9.04696 18.6438C9.14208 18.5151 9.3538 18.4416 9.40596 18.3067C9.71279 17.2097 10.6332 17.3261 11.4893 17.2036C13.5205 16.8971 15.5425 16.5202 17.5768 16.2291C18.7028 16.0667 19.8473 16.0299 20.9826 15.9226C21.5072 15.8705 22.0288 15.7725 22.5504 15.6989C23.5323 15.561 24.5295 15.2546 25.499 15.3189C27.7143 15.466 29.9174 15.8062 32.1296 16.0483C32.958 16.1402 33.7957 16.1647 34.6272 16.2413C36.5397 16.415 38.4502 16.5968 40.3587 16.7868C40.7145 16.8576 41.0741 16.9078 41.4357 16.937C45.0961 16.8634 48.5725 18.1259 52.1746 18.4201C53.4019 18.5213 54.0555 19.2414 54.3224 20.3201C54.6409 21.5863 54.8615 22.8751 54.9821 24.1751C55.1458 26.3385 55.2276 28.5051 55.2276 30.6747C55.2276 33.2365 54.9975 35.7984 55.0772 38.3541C55.203 42.4113 55.1815 46.5146 55.8044 50.5044C56.642 55.8671 56.6267 61.2574 57.0317 66.6324C57.3385 70.6835 57.4766 74.7439 57.719 78.7981C57.765 79.5887 57.4827 79.9288 56.6942 79.9442C56.2094 79.9442 55.5835 80.2751 55.2767 80.0698C54.9698 79.8645 54.9361 79.1811 54.7765 78.7123C54.3592 77.4865 52.9356 76.4507 51.7267 76.4661C50.3674 76.4844 49.4193 77.2199 48.9898 78.7306C48.7672 79.5916 48.6123 80.4687 48.5264 81.3538C48.4651 81.8686 48.2779 82.0647 47.7502 82.0954C42.3838 82.4018 37.0112 82.601 31.6571 83.0852C28.7576 83.3456 25.8826 83.551 22.9861 83.3211C21.903 83.2323 20.8383 83.0852 19.743 82.9932C19.1661 82.9473 18.9422 82.6408 18.844 82.1015C18.7275 81.4994 18.5644 80.9072 18.3561 80.3303C17.9357 79.1535 17.1564 78.9237 15.9751 79.27C14.1495 79.8032 13.0143 80.8849 12.6675 82.6347Z" fill="#FEFEFE"/>
<path d="M154.839 39.3347C154.419 30.1016 155.269 20.9023 155.56 11.6907C155.588 10.8296 155.56 9.95932 155.662 9.10435C155.711 8.67258 155.897 8.26779 156.192 7.94907C157.693 6.49961 159.245 5.17272 161.365 4.59661C163.394 4.04195 165.354 3.19312 167.339 2.51895C167.845 2.36558 168.372 2.29116 168.901 2.29831C172.531 2.2646 176.182 2.36266 179.695 3.26053C182.65 4.01744 185.669 3.82745 188.63 4.36065C191.591 4.89386 194.586 5.13594 197.528 5.63851C199.139 5.91124 200.725 6.39848 202.017 7.51392C202.073 7.57613 202.142 7.6253 202.22 7.65795C203.594 8.09616 203.754 9.14419 203.597 10.3608C203.407 11.8225 203.195 13.2811 203.048 14.749C202.842 16.845 202.582 18.9472 202.532 21.0494C202.474 23.7216 202.747 26.4029 202.615 29.0659C202.499 31.4776 201.937 33.8617 201.738 36.2734C201.379 40.5635 201.035 44.8721 200.882 49.1806C200.658 55.4412 200.612 61.7048 200.471 67.9685C200.443 69.277 200.357 70.5824 200.244 71.8848C200.225 72.0349 200.173 72.1789 200.09 72.3058C200.008 72.4327 199.898 72.5392 199.768 72.6172C199.056 72.8502 198.325 73.0194 197.583 73.1228C195.911 73.371 194.208 73.4292 192.646 74.2321C191.886 74.6152 191.456 73.7908 190.904 73.466C190.775 73.3863 190.713 73.1933 190.597 73.0646C189.649 71.9185 188.345 72.0166 187.722 73.3496C187.415 73.9962 187.068 74.18 186.378 74.1126C183.81 73.8613 181.239 73.6131 178.661 73.4813C177.867 73.4415 177.032 73.7142 176.256 73.9655C174.758 74.4558 173.286 74.0973 171.794 74.0115C170.371 73.9318 169.576 73.3465 169.552 71.8449C169.549 71.345 169.445 70.8507 169.245 70.3924C169.015 69.896 168.705 69.2463 168.275 69.087C167.846 68.9276 167.094 69.1452 166.707 69.467C165.842 70.1902 164.955 70.9563 164.652 72.1361C164.523 72.6264 164.201 72.7704 163.768 72.5681C161.899 71.6856 159.89 71.6488 157.886 71.5354C156.588 71.4558 156.505 71.373 156.413 70.1136C156.128 66.0869 155.852 62.0572 155.649 58.0275C155.364 51.7976 155.115 45.5646 154.839 39.3347Z" fill="#FEFEFE"/>
<path d="M132.346 40.7382C132.346 43.5237 132.315 46.3093 132.346 49.0917C132.367 50.5351 132.548 51.9754 132.616 53.4187C132.726 55.7538 132.846 58.0888 132.886 60.427C132.959 64.7447 132.978 69.0594 133.018 73.3771C133.018 73.8184 133.107 74.3302 132.435 74.3547C131.852 74.3792 131.293 74.704 130.814 73.8583C130.257 72.94 129.528 72.1378 128.667 71.4956C128.329 71.2321 127.461 71.2842 127.053 71.5385C125.887 72.274 124.926 73.2209 124.785 74.7561C124.681 75.8838 124.617 75.8042 123.497 75.7459C121.189 75.6203 118.876 75.5958 116.565 75.5008C112.39 75.3292 108.22 75.084 104.044 74.9768C102.51 74.9369 100.948 75.2372 99.3984 75.3108C98.3702 75.3516 97.3405 75.3312 96.3148 75.2495C95.9123 75.1913 95.5253 75.0538 95.1765 74.845C92.8446 73.6192 91.4731 73.8245 90.2488 75.5314C89.6996 76.2975 89.1351 75.749 88.6104 75.6356C88.4109 75.5958 88.19 75.13 88.1685 74.845C87.9875 72.6815 87.8249 70.5181 87.7114 68.3515C87.5303 64.9316 87.4045 61.5087 87.2297 58.0888C86.9934 53.0571 86.7265 48.0253 86.5332 42.9936C86.4166 39.9874 86.4074 36.9782 86.3613 33.972C86.3779 33.6942 86.4128 33.4178 86.4657 33.1446C86.6436 31.548 86.9075 29.9545 86.9781 28.3488C87.0732 26.2405 87.0486 24.123 87.021 22.0116C86.9934 19.9002 86.8032 17.7215 86.8922 15.5764C86.929 14.6295 87.4322 13.6856 87.8126 12.7847C87.8893 12.6131 88.5245 12.5089 88.7914 12.6284C90.8656 13.5477 93.0563 13.6182 95.2563 13.5661C96.5869 13.4844 97.9224 13.5275 99.245 13.6948C100.653 13.9155 102.132 13.655 103.565 13.7837C106.526 14.0472 109.475 14.4548 112.432 14.749C114.04 14.9114 115.654 14.9819 117.268 15.0554C118.882 15.129 120.594 15.1627 122.257 15.2148C122.396 15.2056 122.535 15.2056 122.674 15.2148C124.423 15.4998 126.191 15.7081 127.912 16.1004C129.428 16.4467 130.253 17.1607 130.489 18.7633C131.575 26.0628 132.404 33.3622 132.346 40.7382Z" fill="#FEFEFE"/>
<path d="M124.445 101.53H124.982C125.077 102.477 125.169 103.427 125.264 104.377L124.994 104.416C124.798 103.451 124.629 102.489 124.445 101.53Z" fill="#B3B3B3"/>
<path d="M260.636 72.418C259.716 71.1095 258.731 69.8745 257.261 69.1329C257.188 69.0962 257.117 69.0471 257.043 69.0104C254.96 67.8888 253.389 68.7254 253.193 71.0911C253.137 71.7806 253.193 72.4762 253.193 73.2729C252.38 73.5058 251.53 73.3526 250.661 73.1565C249.499 72.896 248.326 72.5436 247.148 72.513C244.031 72.4057 240.901 72.5436 237.787 72.3812C236.029 72.2893 234.292 71.799 232.546 71.4864C231.871 71.3318 231.188 71.2162 230.5 71.1401C229.331 71.0666 228.438 70.7479 227.99 69.5068C227.6 68.4343 226.499 68.1646 225.124 68.7162C223.688 69.2954 222.2 69.2126 220.706 69.182C220.019 69.182 219.911 68.8204 219.908 68.2228C219.844 59.7314 219.749 51.2368 219.687 42.7423C219.656 38.6758 219.62 34.6094 219.709 30.546C219.752 28.6062 220.135 26.6756 220.276 24.7236C220.672 19.2843 221.068 13.845 221.353 8.39953C221.412 7.25957 222.55 6.34944 223.716 6.32186C225.52 6.27896 227.324 6.20848 229.131 6.17171C229.77 6.17171 230.408 6.22687 231.046 6.22993C232.964 6.22993 234.887 6.13187 236.796 6.2759C238.161 6.37702 239.502 6.80604 240.852 7.09715C240.984 7.12473 241.107 7.23506 241.239 7.24425C243.387 7.40666 245.433 8.23405 247.682 8.04406C249.115 7.92455 250.591 8.39033 252.051 8.5742C252.792 8.69638 253.541 8.76093 254.291 8.76726C256.568 8.69984 258.688 9.35256 260.805 10.0604C261.37 10.2504 261.566 10.5753 261.584 11.1667C261.666 14.3353 261.775 17.5018 261.91 20.6663C261.93 21.1664 262.018 21.6613 262.174 22.1372C262.677 23.7457 262.81 25.4468 262.563 27.1138C262.241 29.6481 262.539 32.1578 262.68 34.689C262.959 39.5921 262.987 44.4951 263.134 49.3798C263.165 50.4064 263.303 51.4299 263.386 52.4442C263.545 54.4146 263.732 56.382 263.846 58.3524C263.987 60.8253 264.033 63.3014 264.189 65.7744C264.266 67.0001 264.496 68.1983 264.644 69.4149C264.785 70.7479 264.644 70.9808 263.401 71.5201C262.944 71.7262 262.477 71.9083 262.002 72.0656C261.566 72.2157 261.103 72.3046 260.636 72.418Z" fill="#FEFEFE"/>
</g>
<path d="M22.1111 45.6621L22 45.6837C22.2962 45.5312 24.7983 44.3739 25.9183 43.8469C26.8515 43.3846 28.4898 42.5618 28.8492 42.3584C28.8168 42.3938 28.7952 42.4154 28.786 42.4262C28.7767 42.4354 28.7181 42.4817 28.6857 42.5079" stroke="#2A2A2A" stroke-width="2.5" stroke-linecap="round" stroke-linejoin="round"/>
<path d="M23.0105 50.5654C22.9117 50.6008 22.8593 50.681 22.8377 50.8967C22.7976 51.2896 22.6834 54.3468 22.6402 55.6135C22.6356 55.8076 22.6294 56.1913 22.6418 56.2915C22.651 56.3593 22.6788 56.5303 22.7282 56.8046L22.8022 56.8246" stroke="#2A2A2A" stroke-width="2.5" stroke-linecap="round" stroke-linejoin="round"/>
<path d="M23.0999 50.3959C23.1292 50.2603 23.1538 50.1725 23.1724 50.1339C23.2726 49.9382 24.027 49.5191 24.8183 49.1709C26.1882 48.5838 28.698 47.8071 29.0899 47.935C29.258 47.9951 29.4231 48.3187 29.4431 48.536C29.494 49.3095 29.2025 51.4191 28.9803 52.4253C28.7088 53.6488 28.3263 54.7968 28.28 54.8985C28.2615 54.9401 28.2229 55.0125 28.1658 55.1173" stroke="#2A2A2A" stroke-width="2.5" stroke-linecap="round" stroke-linejoin="round"/>
<path d="M23.6013 53.7967L23.3406 53.8044C23.3683 53.7736 23.4439 53.7366 23.7478 53.6133C24.1998 53.4254 25.2611 52.9862 25.8689 52.7366C26.5508 52.4623 27.7478 52.0385 27.8651 52.0308C27.8975 52.0293 27.9376 52.0431 27.9869 52.074" stroke="#2A2A2A" stroke-width="2.5" stroke-linecap="round" stroke-linejoin="round"/>
<path d="M23.3497 56.9988L23.2078 57.0989C25.3428 56.6829 27.1754 55.6119 27.3543 55.4979C27.3898 55.4763 27.4515 55.4378 27.5425 55.3823" stroke="#2A2A2A" stroke-width="2.5" stroke-linecap="round" stroke-linejoin="round"/>
<path d="M22.074 62.5538C22.1079 62.5261 22.1928 62.4799 22.5121 62.315C24.9247 61.0776 29.3783 58.7894 29.4616 58.7616C29.5156 58.7447 29.6266 58.7185 29.7948 58.6815" stroke="#2A2A2A" stroke-width="2.5" stroke-linecap="round" stroke-linejoin="round"/>
<path d="M26.3733 41.9393L26.3733 41.8869C26.3671 43.8223 26.2576 47.6453 26.0771 50.6255C25.7285 55.7414 25.2348 63.295 25.0914 65.7343C25.0343 66.8792 24.9464 67.8685 24.917 67.9456C24.9016 67.9841 24.8661 68.0134 24.8091 68.0318L24.7659 67.944" stroke="#2A2A2A" stroke-width="2.5" stroke-linecap="round" stroke-linejoin="round"/>
<path d="M37.3147 43.793C37.3147 43.8238 37.3163 43.8546 37.3178 43.887C37.347 44.3046 37.4132 45.3355 37.4132 46.0597C37.4117 46.6792 37.3086 48.8026 37.2824 49.2664C37.2563 49.6408 37.2147 50.1986 37.1993 50.3805C37.1962 50.4128 37.1963 50.4467 37.1978 50.4837" stroke="#2A2A2A" stroke-width="2.5" stroke-linecap="round" stroke-linejoin="round"/>
<path d="M37.4631 48.1908C37.6236 48.1338 38.1589 47.9458 38.3069 47.8888C38.9348 47.6484 41.9876 46.2832 42.5785 46.1476C43.214 46.0027 43.4115 46.0042 43.6891 46.0505C43.6691 46.4496 43.2557 47.4327 43.0135 48.0121C42.7574 48.6254 42.3656 49.6686 42.2576 49.9983C42.2375 50.0554 42.2005 50.174 42.1465 50.3527" stroke="#2A2A2A" stroke-width="2.5" stroke-linecap="round" stroke-linejoin="round"/>
<path d="M37.8164 53.6349L37.801 53.5872C37.7886 53.7074 37.7608 54.7259 37.6652 55.2236C37.3119 57.008 36.138 59.8079 35.4623 61.2363C34.7898 62.58 34.4797 63.0485 34.4242 63.1086C34.4056 63.1286 34.3717 63.161 34.3208 63.2041" stroke="#2A2A2A" stroke-width="2.5" stroke-linecap="round" stroke-linejoin="round"/>
<path d="M37.8165 56.5303L37.6685 56.4764C37.9492 56.5673 39.0861 57.122 40.3079 57.8571C44.7969 60.5876 50.0989 63.7835 50.9119 64.2504C51.947 64.8144 53.3446 65.571 53.7071 65.7636" stroke="#2A2A2A" stroke-width="2.5" stroke-linecap="round" stroke-linejoin="round"/>
<path d="M96.2771 42.0749L96.1274 42.1334C96.1259 42.1334 96.1243 42.1288 96.1259 42.1272C96.928 41.7281 98.6681 41.121 100.59 40.5278C101.17 40.3567 102.082 40.0824 102.168 40.067C102.255 40.0516 102.446 40.027 102.745 39.9946" stroke="#2A2A2A" stroke-width="2.5" stroke-linecap="round" stroke-linejoin="round"/>
<path d="M97.4126 46.2292C97.3154 46.4203 97.1642 49.1446 97.101 50.3959C97.0902 50.6147 97.064 51.211 97.0485 51.5901C97.0439 51.7534 97.0362 52.2342 97.0347 52.4515C97.0331 52.5593 97.0316 52.6657 97.03 52.772" stroke="#2A2A2A" stroke-width="2.5" stroke-linecap="round" stroke-linejoin="round"/>
<path d="M97.8845 46.5821C97.9817 46.314 98.0635 46.1352 98.1714 46.0243C98.6142 45.5774 101.345 43.8762 101.817 43.907C102.09 43.9317 102.406 44.1505 102.508 44.3755C102.71 44.8639 102.832 45.8578 102.833 46.4496C102.832 47.086 102.77 48.0845 102.696 48.7147C102.63 49.2679 102.451 50.2125 102.367 50.5207C102.315 50.7179 102.212 51.0539 102.148 51.2403" stroke="#2A2A2A" stroke-width="2.5" stroke-linecap="round" stroke-linejoin="round"/>
<path d="M97.9448 49.704C98.3027 49.5961 99.2869 49.2217 99.8669 49.0013C100.452 48.7779 101.363 48.4312 101.445 48.3973C101.522 48.3649 101.692 48.2925 101.953 48.1785" stroke="#2A2A2A" stroke-width="2.5" stroke-linecap="round" stroke-linejoin="round"/>
<path d="M97.4851 53.2805C98.0219 53.1387 98.5588 52.943 99.256 52.6117C100.371 52.0601 101.663 51.4191 101.84 51.3297C101.908 51.2958 101.976 51.2619 102.044 51.228" stroke="#2A2A2A" stroke-width="2.5" stroke-linecap="round" stroke-linejoin="round"/>
<path d="M96.5364 59.5536C96.956 59.3811 98.8565 58.1314 100.388 57.0173C101.406 56.2499 102.756 55.2298 103.089 54.9786C103.184 54.9108 103.278 54.8415 103.373 54.7737" stroke="#2A2A2A" stroke-width="2.5" stroke-linecap="round" stroke-linejoin="round"/>
<path d="M100.54 38L100.54 38.3828C100.54 38.3797 100.54 38.3905 100.54 38.3905C100.499 39.9222 100.171 45.2338 100.003 47.8749C99.6988 53.017 99.4782 59.8988 99.4304 62.3319C99.4088 63.0762 99.3934 63.2211 99.3826 63.238" stroke="#2A2A2A" stroke-width="2.5" stroke-linecap="round" stroke-linejoin="round"/>
<path d="M111.644 39.238C111.646 39.2334 111.66 40.3567 111.658 41.0871C111.652 42.232 111.641 43.867 111.637 44.357C111.626 45.0257 111.606 45.6144 111.6 45.8162" stroke="#2A2A2A" stroke-width="2.5" stroke-linecap="round" stroke-linejoin="round"/>
<path d="M112.544 44.9256L112.49 44.9102C112.823 44.508 113.357 44.1351 114.867 43.4232C116.447 42.7005 116.725 42.6296 117.172 42.5325C117.383 42.7498 117.476 42.9131 117.478 43.1319C117.476 43.5711 117.248 44.5296 117.069 44.9734C116.726 45.8039 116.132 46.8286 116.001 47.0521" stroke="#2A2A2A" stroke-width="2.5" stroke-linecap="round" stroke-linejoin="round"/>
<path d="M112.396 50.1802C112.396 50.1817 112.353 50.9136 112.216 51.4745C111.963 52.4823 111.248 54.3561 110.58 55.5719C110.003 56.5981 109.065 58.2038 108.792 58.6645C108.63 58.9404 108.427 59.2609 108.212 59.5768C108.162 59.6507 108.092 59.7493 108.004 59.8726" stroke="#2A2A2A" stroke-width="2.5" stroke-linecap="round" stroke-linejoin="round"/>
<path d="M113.001 53.2944L112.89 53.2112C113.783 53.5378 118.091 56.3516 120.174 57.723C122.36 59.1453 125.369 61.0807 126.756 61.8496C126.79 61.8666 126.806 61.8804 126.804 61.8897" stroke="#2A2A2A" stroke-width="2.5" stroke-linecap="round" stroke-linejoin="round"/>
<path d="M169.803 32.851C169.803 33.0051 169.794 35.0885 169.785 37.0192C169.74 39.8207 169.53 45.2771 169.41 47.8504C169.259 50.3175 168.812 56.4566 168.58 57.865C168.514 58.2517 168.387 59.013 168.29 59.4737C168.247 59.6725 168.204 59.8558 168.187 59.9113" stroke="#2A2A2A" stroke-width="2.5" stroke-linecap="round" stroke-linejoin="round"/>
<path d="M172.045 35.5261L171.991 35.503C172.193 35.372 174.698 34.3611 175.895 33.922C177.058 33.529 179.331 32.7817 180.486 32.4319C181.406 32.1715 183.746 31.6106 184.983 31.4087C186.191 31.2238 189.575 31.0127 189.676 31.005C189.905 30.9896 190.575 31.0096 190.728 31.0682C191.052 31.2022 191.261 31.5073 191.343 31.9326C191.524 32.8926 191.991 36.9746 192.114 40.4725C192.156 42.9965 192.187 48.0076 192.128 50.7274C192.027 53.0881 191.815 58.9991 191.778 59.4352C191.652 60.9083 191.318 62.0702 191.102 62.4816C190.831 62.4723 190.445 62.4292 190.317 62.3645C190.294 62.3521 189.676 61.5185 189.089 60.8883C188.48 60.2565 188.209 59.9945 187.988 59.7988C187.939 59.7557 187.897 59.7218 187.861 59.6956" stroke="#2A2A2A" stroke-width="2.5" stroke-linecap="round" stroke-linejoin="round"/>
<path d="M174.478 62.5093L174.439 62.517C174.67 62.3707 175.571 61.9854 176.95 61.6094C179.287 61.0162 183.496 60.1101 186.012 59.6617C186.541 59.5723 187.446 59.4182 187.968 59.4136L188.04 59.523" stroke="#2A2A2A" stroke-width="2.5" stroke-linecap="round" stroke-linejoin="round"/>
<path d="M178.149 35.1378C178.149 35.2965 178.15 35.6555 178.152 35.8558C178.158 36.4506 178.175 37.6418 178.186 38.2381C178.201 38.762 178.225 39.5695 178.229 39.6465C178.234 39.7097 178.245 39.8453 178.263 40.0518" stroke="#2A2A2A" stroke-width="2.5" stroke-linecap="round" stroke-linejoin="round"/>
<path d="M178.636 37.0146C178.883 36.7927 179.863 36.3212 180.103 36.255C180.381 36.1779 180.825 36.1116 181.091 36.0932C181.367 36.4707 181.55 37.2812 181.5 38.0948C181.438 38.9732 181.094 40.6266 180.987 40.9425" stroke="#2A2A2A" stroke-width="2.5" stroke-linecap="round" stroke-linejoin="round"/>
<path d="M179.639 41.4402C179.486 41.4402 179.17 41.4402 179.007 41.4402C178.968 41.4402 178.923 41.4402 178.874 41.4386L180.407 40.9039C180.461 40.9933 180.478 41.1382 180.466 41.5373C180.454 41.9256 180.446 42.3956 180.448 42.7993C180.448 42.9488 180.449 43.0982 180.451 43.2477" stroke="#2A2A2A" stroke-width="2.5" stroke-linecap="round" stroke-linejoin="round"/>
<path d="M172.634 48.5053C172.654 48.4206 172.768 48.3004 173.024 48.1217C173.752 47.6193 175.863 46.6886 176.953 46.2217C178.211 45.6962 180.73 44.6499 181.992 44.126C183.116 43.6607 185.574 42.6513 186.164 42.4865C186.619 42.3617 186.72 42.4341 186.755 42.4896" stroke="#2A2A2A" stroke-width="2.5" stroke-linecap="round" stroke-linejoin="round"/>
<path d="M177.25 49.8907C177.109 50.2867 177.063 50.4839 177.044 50.8137C177.043 50.8322 176.907 52.6443 176.859 53.3578C176.822 53.968 176.737 55.4195 176.728 56.0051C176.727 56.1807 176.742 56.6615 176.747 56.8064" stroke="#2A2A2A" stroke-width="2.5" stroke-linecap="round" stroke-linejoin="round"/>
<path d="M177.472 49.7211C177.532 49.5994 178.269 49.3005 178.71 49.1556C179.804 48.8027 182.184 47.778 182.309 47.7287C182.545 47.6393 182.888 47.5623 183.007 47.5916C183.236 47.6609 183.599 48.3281 183.787 48.8721C184.049 49.641 184.46 51.5471 184.617 52.7984C184.771 54.1066 184.728 55.6368 184.62 56.0652C184.565 56.2655 184.39 56.5428 184.258 56.623C184.14 56.6892 183.639 56.8341 183.508 56.8526C183.465 56.8587 183.403 56.8618 183.324 56.8603" stroke="#2A2A2A" stroke-width="2.5" stroke-linecap="round" stroke-linejoin="round"/>
<path d="M179.187 52C179.194 52.1495 179.216 52.5624 179.231 52.829C179.247 53.0663 179.284 53.5794 179.304 53.8537C179.324 54.1481 179.347 54.5764 179.356 54.8168C179.358 54.88 179.359 54.9678 179.361 55.0819" stroke="#2A2A2A" stroke-width="2.5" stroke-linecap="round" stroke-linejoin="round"/>
<path d="M179.875 51.6273C180.043 51.4578 180.284 51.3052 180.511 51.2497C180.619 51.2251 181.119 51.1912 181.176 51.2035C181.458 51.2759 181.629 51.5379 181.674 51.9709C181.743 52.7552 181.737 53.3023 181.699 53.8786C181.679 54.139 181.652 54.3439 181.603 54.6567" stroke="#2A2A2A" stroke-width="2.5" stroke-linecap="round" stroke-linejoin="round"/>
<path d="M179.801 55.4673L180.62 55.2854" stroke="#2A2A2A" stroke-width="2.5" stroke-linecap="round" stroke-linejoin="round"/>
<path d="M177.53 57.9435C177.607 57.8742 177.731 57.7987 177.941 57.7016C178.808 57.3025 181.185 56.7509 182.106 56.643C182.183 56.6353 182.325 56.6245 182.53 56.6153C182.564 56.6137 182.598 56.6122 182.632 56.6106" stroke="#2A2A2A" stroke-width="2.5" stroke-linecap="round" stroke-linejoin="round"/>
<path d="M233.177 35.0938L233.187 35C233.037 35.4215 232.438 37.5596 231.503 40.571C230.774 42.8721 229.402 47.2203 228.759 49.2688C228.052 51.5902 227.412 54.0255 227.311 54.4601C227.276 54.6145 227.214 54.8831 227.187 55" stroke="#2A2A2A" stroke-width="2.5" stroke-linecap="round" stroke-linejoin="round"/>
<path d="M233.187 37C233.593 37.1028 234.547 37.348 235.095 37.4905C235.623 37.627 236.44 37.8399 236.528 37.859C236.669 37.8928 236.829 37.928 237.01 37.9662C237.065 37.978 237.124 37.9883 237.187 38" stroke="#2A2A2A" stroke-width="2.5" stroke-linecap="round" stroke-linejoin="round"/>
<path d="M232.242 47L232.187 46.9983C232.361 46.9196 232.507 46.8604 232.66 46.8181C233.088 46.7014 235.213 46.2267 235.33 46.1988C235.634 46.1278 236.108 46.0085 236.187 46" stroke="#2A2A2A" stroke-width="2.5" stroke-linecap="round" stroke-linejoin="round"/>
<path d="M234.187 46C234.187 46.1288 234.191 46.2223 234.344 48.0639C234.56 50.6737 234.877 54.567 234.978 55.8474C235.049 56.9192 235.154 58.4955 235.187 59" stroke="#2A2A2A" stroke-width="2.5" stroke-linecap="round" stroke-linejoin="round"/>
<path d="M232.238 51L232.187 51C232.782 50.6673 234.591 49.5434 235.546 48.946C235.743 48.8259 236.342 48.4643 236.556 48.3414C236.681 48.2705 237.07 48.0636 237.187 48" stroke="#2A2A2A" stroke-width="2.5" stroke-linecap="round" stroke-linejoin="round"/>
<path d="M233.187 56C233.311 56.395 234.216 58.1214 234.509 58.6717C234.613 58.8707 234.83 59.2868 234.941 59.504C234.999 59.6216 235.122 59.8703 235.187 60" stroke="#2A2A2A" stroke-width="2.5" stroke-linecap="round" stroke-linejoin="round"/>
<path d="M237.187 51C237.187 50.9969 237.07 51.9715 237.019 52.4082C236.945 53.0349 236.801 54.2545 236.73 54.846C236.657 55.4528 236.52 56.5254 236.459 56.9927C236.4 57.4279 236.288 58.2446 236.237 58.6246C236.221 58.7502 236.203 58.8759 236.187 59" stroke="#2A2A2A" stroke-width="2.5" stroke-linecap="round" stroke-linejoin="round"/>
<path d="M232.187 62C232.243 61.7894 232.794 61.2652 233.182 60.9818C234.121 60.3009 236.105 58.882 237.148 58.1425C238.129 57.4632 239.721 56.361 239.749 56.3389C239.812 56.293 239.958 56.1789 240.187 56" stroke="#2A2A2A" stroke-width="2.5" stroke-linecap="round" stroke-linejoin="round"/>
<path d="M242.187 36C242.589 35.7002 243.544 35.1956 244.106 34.8986C244.721 34.5815 245.901 34.0323 246.015 34.0063C246.054 33.9977 246.11 33.9977 246.187 34.0078" stroke="#2A2A2A" stroke-width="2.5" stroke-linecap="round" stroke-linejoin="round"/>
<path d="M243.428 36C243.273 36.1441 243.229 36.7492 243.219 37.144C243.174 39.1857 243.184 45.7083 243.2 45.7645C243.252 45.9258 243.412 46.0152 243.602 45.9979C244.977 45.8898 247.15 44.7127 247.49 44.5225C247.7 44.4101 248.049 44.2271 248.187 44.1551" stroke="#2A2A2A" stroke-width="2.5" stroke-linecap="round" stroke-linejoin="round"/>
<path d="M244.217 39.9116L244.187 39.894C244.376 39.6716 245.018 39.2694 245.397 39.0306C246.661 38.2627 246.989 38.0842 247.154 38C247.227 38.0742 247.16 39.1198 247.136 39.3335C247.078 39.8048 246.868 40.5249 246.771 40.7499C246.752 40.7926 246.712 40.8768 246.651 41" stroke="#2A2A2A" stroke-width="2.5" stroke-linecap="round" stroke-linejoin="round"/>
<path d="M244.691 41.8981C244.566 41.9247 244.482 41.9421 244.439 41.9495C244.375 41.9614 244.309 41.9669 244.245 41.9789C244.226 41.9835 244.206 41.9899 244.187 42C244.59 41.9054 245.026 41.7842 245.522 41.6107C245.99 41.4408 246.622 41.2103 246.787 41.1497C246.898 41.1074 247.008 41.0643 247.119 41.022C247.151 41.0092 247.174 41.0018 247.187 41" stroke="#2A2A2A" stroke-width="2.5" stroke-linecap="round" stroke-linejoin="round"/>
<path d="M245.187 35.3141L245.187 35C245.187 35.0306 245.187 35.124 245.187 35.4511C245.187 36.0294 245.187 37.1442 245.187 37.6806C245.187 38.0576 245.187 38.7165 245.187 39" stroke="#2A2A2A" stroke-width="2.5" stroke-linecap="round" stroke-linejoin="round"/>
<path d="M246.187 42.059L246.187 42C246.187 42.1137 246.187 42.4162 246.187 42.6037C246.187 43.1542 246.187 44.493 246.187 44.8059C246.187 45.1661 246.187 45.8421 246.187 46" stroke="#2A2A2A" stroke-width="2.5" stroke-linecap="round" stroke-linejoin="round"/>
<path d="M252.187 32.1214L252.182 32.0004C252.136 31.9945 252.112 32.0514 251.952 32.7895C251.679 34.0134 251.073 36.3386 250.769 37.4429C250.644 37.9155 250.362 38.9687 250.283 39.3713C250.259 39.4909 250.204 39.8818 250.187 40" stroke="#2A2A2A" stroke-width="2.5" stroke-linecap="round" stroke-linejoin="round"/>
<path d="M252.187 38C252.189 37.9876 252.204 37.9628 252.24 37.9333C252.67 37.5873 253.919 36.7587 254.919 36.1536C255.062 36.0667 255.137 36.0217 255.141 36.0186C255.162 36.0062 255.177 36 255.187 36" stroke="#2A2A2A" stroke-width="2.5" stroke-linecap="round" stroke-linejoin="round"/>
<path d="M251.187 43.9998C251.186 44.0013 251.188 43.9938 251.191 43.9923C251.984 43.3977 253.607 42.1755 254.438 41.5494C254.593 41.432 254.901 41.1896 254.94 41.1626C254.976 41.137 255.057 41.0828 255.187 41" stroke="#2A2A2A" stroke-width="2.5" stroke-linecap="round" stroke-linejoin="round"/>
<path d="M247.187 52.0531L247.065 52C247.152 52.5684 247.169 53.1009 247.111 53.9334C246.977 55.1448 246.762 56.8657 246.681 57.3767C246.512 58.2192 246.245 58.8565 246.187 59" stroke="#2A2A2A" stroke-width="2.5" stroke-linecap="round" stroke-linejoin="round"/>
<path d="M248.241 52.5375L248.187 52.5195C248.645 52.0983 250.186 50.7884 251.898 49.9491C252.835 49.5039 254.108 49.0543 254.47 49.0046C254.696 48.9791 254.951 49.0618 255.037 49.1941C255.267 49.5852 255.199 51.793 255.052 53.0654C254.984 53.6444 254.816 54.7454 254.68 55.371C254.576 55.8433 254.272 56.9878 254.133 57.5097C254.052 57.806 254.024 57.9037 253.987 58" stroke="#2A2A2A" stroke-width="2.5" stroke-linecap="round" stroke-linejoin="round"/>
<path d="M250.187 52C250.187 52.033 250.187 52.0661 250.187 52.1006C250.187 52.1652 250.187 55.3086 250.187 56.2743C250.187 56.8195 250.187 57.6831 250.187 58" stroke="#2A2A2A" stroke-width="2.5" stroke-linecap="round" stroke-linejoin="round"/>
<path d="M252.187 51C252.187 51.0272 252.187 51.0573 252.187 51.0888C252.187 51.5056 252.187 52.3736 252.187 53.256C252.187 54.4033 252.187 56.3485 252.187 56.4659C252.187 56.8541 252.187 57.3927 252.187 57.5202C252.187 57.6792 252.187 57.8396 252.187 58" stroke="#2A2A2A" stroke-width="2.5" stroke-linecap="round" stroke-linejoin="round"/>
<path d="M243.277 61L243.187 61C243.187 61 249.313 60.0914 251.672 59.7437C253.494 59.4912 258.226 58.91 260.684 58.6156C261.852 58.4659 262.793 58.2375 263.187 58.0459C263.163 58.0218 263.144 58.0065 263.129 58.0027C263.116 57.9989 263.085 57.9989 263.04 58.004" stroke="#2A2A2A" stroke-width="2.5" stroke-linecap="round" stroke-linejoin="round"/>
<defs>
<filter id="filter0_d_782_756" x="0" y="0" width="276" height="163" filterUnits="userSpaceOnUse" color-interpolation-filters="sRGB">
<feFlood flood-opacity="0" result="BackgroundImageFix"/>
<feColorMatrix in="SourceAlpha" type="matrix" values="0 0 0 0 0 0 0 0 0 0 0 0 0 0 0 0 0 0 127 0" result="hardAlpha"/>
<feOffset dy="4"/>
<feGaussianBlur stdDeviation="2"/>
<feComposite in2="hardAlpha" operator="out"/>
<feColorMatrix type="matrix" values="0 0 0 0 0 0 0 0 0 0 0 0 0 0 0 0 0 0 0.25 0"/>
<feBlend mode="normal" in2="BackgroundImageFix" result="effect1_dropShadow_782_756"/>
<feBlend mode="normal" in="SourceGraphic" in2="effect1_dropShadow_782_756" result="shape"/>
</filter>
<clipPath id="clip0_782_756">
<rect width="268" height="155" fill="white" transform="translate(4)"/>
</clipPath>
</defs>
</svg>
