<svg width="368" height="43" viewBox="0 0 368 43" fill="none" xmlns="http://www.w3.org/2000/svg">
<path d="M47.112 9.648C47.624 9.648 47.9547 10.448 48.104 12.048L48.232 13.776C48.232 15.0773 47.9973 18.4693 47.528 23.952H47.72V24.048L47.848 23.952H48.104L51.848 24.24H52.104L53.704 23.76H53.928C54.2693 23.9733 54.504 24.272 54.632 24.656C54.632 25.4667 53.7253 25.968 51.912 26.16L48.648 25.84H48.04L46.504 26.256C45.928 26.0427 45.64 25.7013 45.64 25.232L46.312 14.256V13.776L46.12 10.576C46.12 10.0427 46.4507 9.73333 47.112 9.648ZM64.9817 14.512C65.8351 14.5333 67.2751 16.0267 69.3018 18.992L69.3657 19.536C69.3657 20.1333 67.9044 20.592 64.9817 20.912L64.8857 21.008V21.136C65.3337 23.056 65.8031 24.016 66.2937 24.016H66.6777C67.3604 24.016 68.3951 23.28 69.7817 21.808H69.9738C70.4004 21.808 70.7311 22.1173 70.9657 22.736C70.9657 23.248 70.0697 24.1333 68.2778 25.392C67.8084 25.6693 67.2431 25.872 66.5817 26C64.8537 26 63.6484 24.3787 62.9657 21.136C61.9844 20.9867 61.4937 20.5813 61.4937 19.92C61.4937 19.4507 61.8564 19.1413 62.5817 18.992V19.12L62.9017 18.992V18.192C62.9017 15.7387 63.5951 14.512 64.9817 14.512ZM65.1737 16.816H64.8857L64.7577 18V18.992H64.8857C66.0804 18.9493 66.6777 18.8213 66.6777 18.608C66.1231 17.776 65.6217 17.1787 65.1737 16.816ZM84.5795 13.648C85.5182 13.648 85.9875 14.0213 85.9875 14.768L85.6995 15.376L85.5075 21.232C85.5075 23.8773 86.0408 25.52 87.1075 26.16L87.1715 26.64C87.1075 27.2587 86.8195 27.568 86.3075 27.568H86.1155C84.5155 26.48 83.7155 24.816 83.7155 22.576H83.4915C82.6382 24.9653 81.6035 26.16 80.3875 26.16C79.2568 25.84 78.6915 24.9973 78.6915 23.632C78.6915 20.624 79.8968 17.6267 82.3075 14.64C83.1182 13.9787 83.8755 13.648 84.5795 13.648ZM80.7075 22.352L80.5795 23.248V23.856H80.8995C82.4995 19.8667 83.2995 17.4347 83.2995 16.56H83.1715C81.9342 17.9467 81.1128 19.8773 80.7075 22.352ZM98.5633 13.392C99.9073 13.392 100.707 14.3307 100.963 16.208V16.496C100.963 18.5653 99.8966 20.464 97.7633 22.192C99.0006 23.408 101.166 24.016 104.259 24.016C104.729 24.1653 104.963 24.496 104.963 25.008C104.963 25.584 104.59 25.872 103.843 25.872C101.753 25.872 99.5553 25.3387 97.2513 24.272V25.2C97.2513 27.3973 96.7819 28.496 95.8433 28.496C95.1819 28.496 94.8513 27.2267 94.8513 24.688V22.192L94.7553 21.296L94.9793 20.272L94.7553 17.2V17.072C94.7553 16.496 95.0539 16.1013 95.6513 15.888C96.4833 14.224 97.4539 13.392 98.5633 13.392ZM96.9633 20.4C97.5819 20.4 98.2753 19.2907 99.0433 17.072V15.696L98.6593 15.28H98.3713C97.4326 15.92 96.9633 17.6267 96.9633 20.4ZM116.587 15.216C118.4 15.3653 119.307 16.2507 119.307 17.872L119.371 18.288L119.307 23.28C119.307 23.856 119.637 24.6347 120.299 25.616V25.68C120.128 26.2987 119.819 26.608 119.371 26.608C118.048 26.0533 117.387 24.88 117.387 23.088V22.672L117.291 22.608L117.387 22.48V22.416L117.483 18C117.483 17.3813 117.216 17.072 116.683 17.072H116.299C115.232 17.4987 114.699 19.8347 114.699 24.08C114.699 25.552 114.325 26.288 113.579 26.288C113.003 26.288 112.704 25.9253 112.683 25.2V22C112.683 17.8613 113.045 15.792 113.771 15.792L114.091 15.696L114.763 15.792C115.339 15.408 115.947 15.216 116.587 15.216ZM152.82 6.992L153.62 6.736C154.346 6.736 154.708 7.696 154.708 9.616L155.7 17.008L155.828 17.136L159.508 15.792C159.999 15.792 160.266 16.1653 160.308 16.912C160.308 17.4667 158.954 18.1387 156.244 18.928L156.116 18.992V19.12C156.116 19.568 156.82 21.904 158.228 26.128V26.192C158.228 26.5973 157.898 26.9387 157.236 27.216C156.618 27.216 156.212 26.48 156.02 25.008C155.53 23.9413 154.932 22.1813 154.228 19.728H154.1C151.306 20.304 149.908 20.7947 149.908 21.2C148.372 24.528 147.21 26.192 146.42 26.192C145.972 26.192 145.706 25.904 145.62 25.328C145.62 24.816 146.186 23.8133 147.316 22.32L147.828 21.2H147.028L146.42 21.328C145.631 21.136 145.236 20.7307 145.236 20.112C145.556 19.3653 146.026 18.992 146.644 18.992L147.444 19.312C148.639 19.312 149.236 18.8747 149.236 18C150.324 15.44 151.519 11.7707 152.82 6.992ZM153.108 12.816L151.22 18.512C152.97 18.1707 153.844 17.84 153.844 17.52C153.524 14.384 153.279 12.816 153.108 12.816ZM167.914 10.8C169.023 10.8 169.738 12.976 170.058 17.328L170.25 18.32C171.231 16.3147 172.031 15.312 172.65 15.312C172.65 15.2267 172.874 15.1627 173.322 15.12H173.45C174.858 15.12 175.754 16.2187 176.138 18.416V18.512C176.138 20.3893 175.199 22.4587 173.322 24.72C172.533 25.5733 171.669 26 170.73 26C169.663 25.7653 169.13 25.232 169.13 24.4L167.53 12.912L167.05 11.728C167.05 11.344 167.338 11.0347 167.914 10.8ZM171.242 23.792H171.338C172.447 23.344 173.418 21.8187 174.25 19.216V18C174.058 17.3387 173.813 17.008 173.514 17.008H173.258C172.319 17.5627 171.647 19.824 171.242 23.792ZM189.272 13.936C190.85 13.936 192.045 15.1093 192.856 17.456L192.984 18.128C192.984 20.4107 191.917 22.7467 189.784 25.136C188.93 25.9253 188.066 26.32 187.192 26.32C185.912 26.32 185.005 25.584 184.472 24.112C184.28 23.4293 184.184 22.832 184.184 22.32V21.936C184.184 18.5653 185.41 16.0053 187.864 14.256C188.29 14.0427 188.76 13.936 189.272 13.936ZM186.072 22.256C186.072 23.7067 186.445 24.432 187.192 24.432C188.749 24.432 190.04 22.4373 191.064 18.448V17.84C190.701 16.5173 190.029 15.856 189.048 15.856C188.664 15.856 188.472 16.1227 188.472 16.656C188.472 17.0187 188.045 17.3067 187.192 17.52C186.445 18.7787 186.072 20.3573 186.072 22.256ZM202.082 16.368L202.658 16.048C203.17 16.048 203.543 16.3573 203.778 16.976C203.436 18.5547 203.266 20.176 203.266 21.84C203.266 22.672 203.511 23.5787 204.002 24.56H204.194C204.812 24.56 205.548 22.1173 206.402 17.232C206.7 16.976 206.988 16.848 207.266 16.848C207.927 16.848 208.258 18.0213 208.258 20.368C208.535 22.9493 208.844 24.24 209.186 24.24L209.666 24.048C210.284 24.2827 210.594 24.6133 210.594 25.04C210.21 25.8507 209.676 26.256 208.994 26.256C208.226 26.256 207.49 25.488 206.786 23.952C205.932 25.744 205.068 26.64 204.194 26.64C202.892 26.64 201.986 25.2853 201.474 22.576L201.378 21.552V21.232C201.378 19.5253 201.612 17.904 202.082 16.368ZM221.447 6.576C222.044 6.704 222.343 7.00267 222.343 7.472L222.151 8.88V9.296C222.151 10.2347 222.257 11.2267 222.471 12.272H222.535C225.009 11.5253 226.545 11.152 227.143 11.152C227.761 11.3227 228.071 11.632 228.071 12.08C228.071 12.8053 227.335 13.168 225.863 13.168L222.535 14.352C222.535 17.232 222.844 21.1467 223.463 26.096C223.335 26.672 223.025 26.96 222.535 26.96H222.471C221.724 26.96 221.351 26 221.351 24.08C221.073 22.6507 220.839 19.5467 220.647 14.768H220.071C218.065 14.64 217.062 14.1707 217.062 13.36C217.062 13.1253 217.287 12.8373 217.735 12.496H218.055L219.527 12.88H220.551L220.263 8.88C220.263 7.344 220.657 6.576 221.447 6.576ZM263.604 7.056H263.924C264.521 7.056 264.863 7.408 264.948 8.112C264.948 8.73067 264.105 9.04 262.42 9.04C259.711 10.064 257.887 11.5573 256.948 13.52L256.724 14.448V14.64C256.724 15.5787 257.353 16.048 258.612 16.048L262.132 15.856C264.5 15.856 266.1 17.008 266.932 19.312L267.124 20.432C267.124 22.6507 265.332 24.6773 261.748 26.512C260.681 26.8107 259.743 27.0133 258.932 27.12C256.756 27.12 255.22 25.8933 254.324 23.44C254.068 22.608 253.94 21.7653 253.94 20.912C253.94 20.656 254.143 20.3893 254.548 20.112H254.932C255.593 20.112 255.924 20.9547 255.924 22.64C256.479 24.304 257.353 25.136 258.548 25.136H259.412C261.14 25.136 262.847 24.1333 264.532 22.128C264.98 21.488 265.204 20.7947 265.204 20.048C265.204 19.0027 264.383 18.2667 262.74 17.84H262.612L258.42 17.936C256.095 17.6587 254.932 16.6987 254.932 15.056L254.804 14.64C254.804 12.4427 256.447 10.3093 259.732 8.24C261.161 7.45067 262.452 7.056 263.604 7.056ZM279.99 13.936C281.569 13.936 282.764 15.1093 283.574 17.456L283.702 18.128C283.702 20.4107 282.636 22.7467 280.502 25.136C279.649 25.9253 278.785 26.32 277.91 26.32C276.63 26.32 275.724 25.584 275.19 24.112C274.998 23.4293 274.902 22.832 274.902 22.32V21.936C274.902 18.5653 276.129 16.0053 278.582 14.256C279.009 14.0427 279.478 13.936 279.99 13.936ZM276.79 22.256C276.79 23.7067 277.164 24.432 277.91 24.432C279.468 24.432 280.758 22.4373 281.782 18.448V17.84C281.42 16.5173 280.748 15.856 279.766 15.856C279.382 15.856 279.19 16.1227 279.19 16.656C279.19 17.0187 278.764 17.3067 277.91 17.52C277.164 18.7787 276.79 20.3573 276.79 22.256ZM296.513 11.6C297.515 11.6 298.209 12.6667 298.593 14.8V14.928C298.593 15.4187 298.262 15.7067 297.601 15.792C297.067 15.792 296.705 15.1307 296.513 13.808L296.385 13.712H296.001C295.531 14.3947 295.297 15.2907 295.297 16.4L295.393 18C296.246 18 297.174 17.776 298.177 17.328C298.582 17.328 298.955 17.616 299.297 18.192C299.297 19.0667 298.102 19.6427 295.713 19.92L296.513 25.136C296.513 25.584 296.139 25.872 295.393 26C294.731 26 294.401 24.976 294.401 22.928L293.793 20.208L291.713 20.528C291.265 20.528 290.998 20.1973 290.913 19.536C290.913 18.896 291.777 18.4907 293.505 18.32L293.377 16.336C293.718 13.1787 294.763 11.6 296.513 11.6ZM310.322 6.576C310.919 6.704 311.218 7.00267 311.218 7.472L311.026 8.88V9.296C311.026 10.2347 311.132 11.2267 311.346 12.272H311.41C313.884 11.5253 315.42 11.152 316.018 11.152C316.636 11.3227 316.946 11.632 316.946 12.08C316.946 12.8053 316.21 13.168 314.738 13.168L311.41 14.352C311.41 17.232 311.719 21.1467 312.338 26.096C312.21 26.672 311.9 26.96 311.41 26.96H311.346C310.599 26.96 310.226 26 310.226 24.08C309.948 22.6507 309.714 19.5467 309.522 14.768H308.946C306.94 14.64 305.938 14.1707 305.938 13.36C305.938 13.1253 306.162 12.8373 306.61 12.496H306.93L308.402 12.88H309.426L309.138 8.88C309.138 7.344 309.532 6.576 310.322 6.576Z" fill="#ECFF5F"/>
<path d="M2 33.654C11.0854 31.9891 24.049 30.1662 32.3285 35.8982C34.9136 37.6879 29.505 39.9053 28.2569 40.2263C27.1949 40.4994 25.8329 40.6845 24.7624 40.3224C23.2387 39.8071 21.7207 36.6992 23.6083 35.5776C26.2492 34.0084 33.9147 33.9578 35.5345 33.9105C44.3858 33.6517 78.9553 33.668 83.3035 33.654C132.058 33.4969 317.783 34.9707 366.5 33.654" stroke="white" stroke-width="3" stroke-linecap="round"/>
</svg>
