<svg xmlns="http://www.w3.org/2000/svg" xmlns:xlink="http://www.w3.org/1999/xlink" width="40" height="40" fill="none"><g stroke-miterlimit="10" stroke-width="2" clip-path="url(#a)"><path stroke="#2A5070" d="M38.897 19.994c0-10.433-8.458-18.891-18.891-18.891-10.434 0-18.892 8.458-18.892 18.891 0 10.434 8.458 18.892 18.892 18.892 10.433 0 18.891-8.458 18.891-18.892Z"/><path stroke="url(#b)" d="M38.897 19.994c0-10.433-8.458-18.891-18.891-18.891-10.434 0-18.892 8.458-18.892 18.891 0 10.434 8.458 18.892 18.892 18.892 10.433 0 18.891-8.458 18.891-18.892Z"/><path stroke="#2A5070" d="M22.39 32.036 13.744 20.15l8.867-12.186"/><path stroke="url(#c)" d="M22.39 32.036 13.744 20.15l8.867-12.186"/></g><defs><pattern id="b" width=".813" height=".813" patternContentUnits="objectBoundingBox"><use xlink:href="#d" transform="scale(.0008)"/></pattern><pattern id="c" width="1.276" height="3.465" patternContentUnits="objectBoundingBox"><use xlink:href="#d" transform="scale(.00125 .00338)"/></pattern><clipPath id="a"><path fill="#fff" d="M0 40V0h40v40z"/></clipPath></defs></svg>