<svg width="24" height="24" viewBox="0 0 24 24" fill="none" xmlns="http://www.w3.org/2000/svg">
<path fill-rule="evenodd" clip-rule="evenodd" d="M3.03998 2.29199C2.85221 2.22609 2.64595 2.23747 2.46657 2.32365C2.28719 2.40982 2.14939 2.56372 2.08348 2.75149C2.01758 2.93927 2.02896 3.14553 2.11513 3.32491C2.20131 3.50429 2.35521 3.64209 2.54298 3.70799L2.80398 3.79899C3.47198 4.03399 3.91098 4.18899 4.23398 4.34799C4.53698 4.49699 4.66998 4.61799 4.75798 4.74599C4.84798 4.87799 4.91798 5.05999 4.95798 5.42299C4.99798 5.80299 4.99998 6.29799 4.99998 7.03799V9.63999C4.99998 12.582 5.06298 13.552 5.92998 14.466C6.79598 15.38 8.18998 15.38 10.98 15.38H16.282C17.843 15.38 18.624 15.38 19.175 14.93C19.727 14.48 19.885 13.716 20.2 12.188L20.7 9.76299C21.047 8.02299 21.22 7.15399 20.776 6.57699C20.332 5.99999 18.816 5.99999 17.131 5.99999H6.49198C6.48776 5.75351 6.47342 5.5073 6.44898 5.26199C6.39498 4.76499 6.27898 4.31199 5.99698 3.89999C5.71298 3.48399 5.33498 3.21799 4.89398 3.00099C4.48198 2.79899 3.95798 2.61499 3.34198 2.39799L3.03998 2.29199ZM13 8.24999C13.1989 8.24999 13.3897 8.32901 13.5303 8.46966C13.671 8.61032 13.75 8.80108 13.75 8.99999V10.25H15C15.1989 10.25 15.3897 10.329 15.5303 10.4697C15.671 10.6103 15.75 10.8011 15.75 11C15.75 11.1989 15.671 11.3897 15.5303 11.5303C15.3897 11.671 15.1989 11.75 15 11.75H13.75V13C13.75 13.1989 13.671 13.3897 13.5303 13.5303C13.3897 13.671 13.1989 13.75 13 13.75C12.8011 13.75 12.6103 13.671 12.4697 13.5303C12.329 13.3897 12.25 13.1989 12.25 13V11.75H11C10.8011 11.75 10.6103 11.671 10.4697 11.5303C10.329 11.3897 10.25 11.1989 10.25 11C10.25 10.8011 10.329 10.6103 10.4697 10.4697C10.6103 10.329 10.8011 10.25 11 10.25H12.25V8.99999C12.25 8.80108 12.329 8.61032 12.4697 8.46966C12.6103 8.32901 12.8011 8.24999 13 8.24999Z" fill="#FDDA75"/>
<path d="M7.5 18C7.89782 18 8.27936 18.158 8.56066 18.4393C8.84196 18.7206 9 19.1022 9 19.5C9 19.8978 8.84196 20.2794 8.56066 20.5607C8.27936 20.842 7.89782 21 7.5 21C7.10218 21 6.72064 20.842 6.43934 20.5607C6.15804 20.2794 6 19.8978 6 19.5C6 19.1022 6.15804 18.7206 6.43934 18.4393C6.72064 18.158 7.10218 18 7.5 18ZM16.5 18C16.8978 18 17.2794 18.158 17.5607 18.4393C17.842 18.7206 18 19.1022 18 19.5C18 19.8978 17.842 20.2794 17.5607 20.5607C17.2794 20.842 16.8978 21 16.5 21C16.1022 21 15.7206 20.842 15.4393 20.5607C15.158 20.2794 15 19.8978 15 19.5C15 19.1022 15.158 18.7206 15.4393 18.4393C15.7206 18.158 16.1022 18 16.5 18Z" fill="#FDDA75"/>
</svg>
