<svg width="21" height="22" viewBox="0 0 21 22" fill="none" xmlns="http://www.w3.org/2000/svg">
<path d="M5.10126 0.989136C3.57472 0.989136 2.33203 2.36991 2.33203 4.06606V17.9122C2.33203 19.6084 3.57472 20.9891 5.10126 20.9891H14.1013C14.8372 20.9891 15.859 19.8084 17.0436 18.4653C17.2097 18.2776 17.369 18.1014 17.5413 17.9122C17.7116 17.7214 17.8916 17.5199 18.0606 17.3353C19.27 16.0184 20.332 14.8838 20.332 14.0661V4.06606C20.332 2.36991 19.0893 0.989136 17.5628 0.989136H5.10126ZM5.10126 2.5276H17.5628C17.93 2.5276 18.2822 2.68968 18.5419 2.9782C18.8015 3.26672 18.9474 3.65803 18.9474 4.06606V14.0661C18.9474 14.8314 18.2537 14.8353 17.5628 14.8353H15.4859C15.1044 14.8353 14.7936 15.1807 14.7936 15.6045V17.9607C14.7936 18.643 14.795 19.3091 14.2958 19.4507H5.10126C4.73404 19.4507 4.38186 19.2886 4.12219 19.0001C3.86253 18.7116 3.71665 18.3202 3.71665 17.9122V4.06606C3.71665 3.65803 3.86253 3.26672 4.12219 2.9782C4.38186 2.68968 4.73404 2.5276 5.10126 2.5276ZM7.04872 7.14298C6.86511 7.16206 6.69584 7.26139 6.57815 7.41914C6.46045 7.57689 6.40398 7.78012 6.42115 7.98414C6.43831 8.18815 6.52772 8.37623 6.66969 8.507C6.81166 8.63777 6.99457 8.70052 7.17819 8.68144H15.4859C15.6695 8.68144 15.8456 8.6004 15.9754 8.45614C16.1052 8.31188 16.1782 8.11623 16.1782 7.91221C16.1782 7.7082 16.1052 7.51254 15.9754 7.36828C15.8456 7.22403 15.6695 7.14298 15.4859 7.14298H7.17819C7.15651 7.14185 7.13479 7.14185 7.11311 7.14298C7.09166 7.14187 7.07017 7.14187 7.04872 7.14298ZM7.04872 10.9891C6.86511 11.0082 6.69584 11.1075 6.57815 11.2653C6.46045 11.423 6.40398 11.6263 6.42115 11.8303C6.43831 12.0343 6.52772 12.2224 6.66969 12.3532C6.81166 12.4839 6.99457 12.5467 7.17819 12.5276H14.1013C14.2849 12.5276 14.461 12.4466 14.5908 12.3023C14.7206 12.158 14.7936 11.9624 14.7936 11.7584C14.7936 11.5544 14.7206 11.3587 14.5908 11.2144C14.461 11.0702 14.2849 10.9891 14.1013 10.9891H7.17819C7.15651 10.988 7.13479 10.988 7.11311 10.9891C7.09166 10.988 7.07017 10.988 7.04872 10.9891Z" fill="white"/>
</svg>
