<svg width="25" height="24" viewBox="0 0 25 24" fill="none" xmlns="http://www.w3.org/2000/svg">
<path d="M17.332 18C16.222 18 15.332 18.89 15.332 20C15.332 20.5304 15.5427 21.0391 15.9178 21.4142C16.2929 21.7893 16.8016 22 17.332 22C17.8625 22 18.3712 21.7893 18.7462 21.4142C19.1213 21.0391 19.332 20.5304 19.332 20C19.332 19.4696 19.1213 18.9609 18.7462 18.5858C18.3712 18.2107 17.8625 18 17.332 18ZM1.33203 2V4H3.33203L6.93203 11.59L5.57203 14.04C5.42203 14.32 5.33203 14.65 5.33203 15C5.33203 15.5304 5.54274 16.0391 5.91782 16.4142C6.29289 16.7893 6.8016 17 7.33203 17H19.332V15H7.75203C7.68573 15 7.62214 14.9737 7.57525 14.9268C7.52837 14.8799 7.50203 14.8163 7.50203 14.75C7.50203 14.7 7.51203 14.66 7.53203 14.63L8.43203 13H15.882C16.632 13 17.292 12.58 17.632 11.97L21.212 5.5C21.282 5.34 21.332 5.17 21.332 5C21.332 4.73478 21.2267 4.48043 21.0391 4.29289C20.8516 4.10536 20.5972 4 20.332 4H5.54203L4.60203 2M7.33203 18C6.22203 18 5.33203 18.89 5.33203 20C5.33203 20.5304 5.54274 21.0391 5.91782 21.4142C6.29289 21.7893 6.8016 22 7.33203 22C7.86246 22 8.37117 21.7893 8.74624 21.4142C9.12132 21.0391 9.33203 20.5304 9.33203 20C9.33203 19.4696 9.12132 18.9609 8.74624 18.5858C8.37117 18.2107 7.86246 18 7.33203 18Z" fill="white"/>
</svg>
