<svg width="21" height="22" viewBox="0 0 21 22" fill="none" xmlns="http://www.w3.org/2000/svg">
<path d="M10.332 3C14.743 3 18.332 6.589 18.332 11C18.332 15.411 14.743 19 10.332 19C5.92103 19 2.33203 15.411 2.33203 11C2.33203 6.589 5.92103 3 10.332 3ZM10.332 1C4.80903 1 0.332031 5.477 0.332031 11C0.332031 16.523 4.80903 21 10.332 21C15.855 21 20.332 16.523 20.332 11C20.332 5.477 15.855 1 10.332 1ZM11.332 14H9.33203V16H11.332V14ZM9.33203 12H11.332L11.832 6H8.83203L9.33203 12Z" fill="white"/>
</svg>
