<svg width="103" height="24" viewBox="0 0 103 24" fill="none" xmlns="http://www.w3.org/2000/svg">
<g clip-path="url(#clip0_1315_1121)">
<path d="M97.8365 1.18658C97.544 1.511 97.0386 2.06731 97.0175 2.12352C96.9918 2.19731 97.0362 2.28163 97.0175 2.35776C96.959 2.47487 96.883 2.67163 96.9005 2.94334" stroke="white" stroke-width="1.5" stroke-linecap="round" stroke-linejoin="round"/>
<path d="M94.2095 1.30371C94.4283 1.55551 94.6833 3.07335 94.8167 3.22209C94.9243 3.33335 95.7398 3.16822 95.9715 3.19515C96.12 3.21155 96.3575 3.08623 96.5178 2.99605C96.7331 2.90822 97.0151 2.97029 97.1707 3.14362C97.2701 3.25605 97.6047 3.67767 97.7194 3.76317C97.8844 3.88614 98.1464 3.98101 98.3044 3.9974" stroke="white" stroke-width="1.5" stroke-linecap="round" stroke-linejoin="round"/>
<path d="M14.8852 2.82623C14.8361 2.9047 14.7975 2.94335 14.7682 2.94335C14.6816 2.94452 14.4839 2.80866 14.2511 2.80866C13.1291 2.79226 12.667 2.94569 12.6623 2.94335C12.6155 2.91407 12.6003 2.8274 12.5453 2.82623C12.5137 2.82506 12.4353 2.86488 12.3113 2.94335" stroke="white" stroke-width="1.5" stroke-linecap="round" stroke-linejoin="round"/>
<path d="M41.3265 2.94333C41.1791 3.11081 40.7743 3.57225 40.7415 3.64603C40.7111 3.71747 40.7555 3.80297 40.7415 3.88027C40.7286 3.96693 40.5999 4.17657 40.5368 4.46702C40.4853 4.70946 40.3706 5.24 40.3905 5.28567C40.4127 5.33603 40.5414 5.35946 40.5075 5.40279C40.4186 5.51171 40.2595 5.54216 40.1565 5.63702C40.0922 5.69558 40.0114 5.92045 39.8383 6.09963C39.6944 6.2472 39.3855 6.56342 39.3375 6.57396C39.2615 6.59153 39.1714 6.53648 39.1035 6.57396C39.0392 6.60909 38.6601 7.0963 38.5186 7.27666" stroke="white" stroke-width="1.5" stroke-linecap="round" stroke-linejoin="round"/>
<path d="M18.044 3.29468C17.4122 3.78306 15.9369 4.92026 15.0945 5.56909C14.5575 5.97315 14.1176 6.18864 14.0661 6.22261C13.9982 6.26711 13.7361 6.49783 13.5981 6.57396C13.4869 6.63486 12.5755 6.94288 12.3918 7.07756C12.2316 7.19819 11.677 7.93252 11.4921 7.97936C11.4664 7.98522 10.6872 8.08008 10.5562 8.09648" stroke="white" stroke-width="1.5" stroke-linecap="round" stroke-linejoin="round"/>
<path d="M40.5076 5.40281C41.6331 5.31029 42.7188 5.0538 43.0815 4.81722C43.6314 4.45065 44.0315 4.2047 44.331 4.09812C44.4305 4.06299 45.2167 3.76668 45.6344 3.53479C45.8298 3.4247 45.9503 3.39894 46.1235 3.41182" stroke="white" stroke-width="1.5" stroke-linecap="round" stroke-linejoin="round"/>
<path d="M61.6841 4.1145C61.5718 4.1754 61.2688 4.3382 61.2161 4.34874C61.1401 4.36513 60.9178 4.35693 60.6159 4.44594C60.4182 4.50567 60.3059 4.55135 60.2801 4.58297C60.2322 4.64504 60.2942 4.74108 60.2801 4.8172C60.2684 4.90387 60.1163 5.22829 60.1631 5.40279C60.1854 5.48711 60.2953 5.68504 60.2872 5.92982C60.2836 6.13946 60.2766 6.55522 60.2731 6.76252C60.2661 7.00729 60.3737 7.10919 60.3971 7.15955C60.4416 7.25675 60.2965 8.02036 60.2801 8.09648C60.2684 8.1527 60.1058 8.45486 60.0461 8.56495" stroke="white" stroke-width="1.5" stroke-linecap="round" stroke-linejoin="round"/>
<path d="M68.1189 4.46585C68.1236 4.79261 68.1306 5.73189 68.1189 5.87126C68.0944 6.16171 67.9142 7.0518 68.0019 7.27666C68.0441 7.38207 68.2219 7.539 68.3529 7.62801" stroke="white" stroke-width="1.5" stroke-linecap="round" stroke-linejoin="round"/>
<path d="M91.1675 4.58298C90.9803 4.65325 90.8633 4.86054 90.8165 4.93433C90.7767 4.99991 90.5474 5.23298 90.4655 5.4028C90.4093 5.51991 90.2947 5.95325 90.2385 6.16289C90.1765 6.37604 90.0209 6.57397 89.8887 6.60091C89.8583 6.60559 89.1972 6.5564 88.9246 6.63487C88.7421 6.68874 88.5526 6.67469 88.4765 6.69109C88.4204 6.7028 88.1197 6.86559 88.0085 6.92532" stroke="white" stroke-width="1.5" stroke-linecap="round" stroke-linejoin="round"/>
<path d="M87.7746 5.28568C87.777 5.59721 87.7805 6.20856 87.7477 6.5318C87.7348 6.64775 87.9712 6.82108 88.0086 6.92531C88.0285 6.98036 87.7582 7.45117 87.6869 7.57649C87.557 7.79784 87.5254 7.92667 87.5406 8.09649" stroke="white" stroke-width="1.5" stroke-linecap="round" stroke-linejoin="round"/>
<path d="M57.4723 6.57397C57.4536 6.40415 57.4899 6.28118 57.6349 6.08208C57.7285 5.95559 57.7905 5.88532 57.8233 5.87127C57.8958 5.84082 58.1263 5.8619 58.2936 5.76001C58.4586 5.66046 59.1419 5.53046 59.2273 5.51992C59.2905 5.51172 59.8333 5.50469 60.1633 5.4028" stroke="white" stroke-width="1.5" stroke-linecap="round" stroke-linejoin="round"/>
<path d="M68.353 7.62802C68.47 7.49333 68.5484 7.41486 68.587 7.39378C68.6561 7.35747 68.9123 7.3891 69.1521 7.30711C69.3826 7.22865 69.6611 7.08928 69.8003 6.9827C69.8951 6.90892 70.1911 6.59856 70.225 6.57396C70.2659 6.54585 71.3353 6.23315 71.395 6.22261C71.4429 6.21441 71.5213 6.21441 71.629 6.22261" stroke="white" stroke-width="1.5" stroke-linecap="round" stroke-linejoin="round"/>
<path d="M71.629 6.22263C71.7261 6.39596 71.7658 6.52127 71.7658 6.69461C71.7658 6.86794 71.5307 7.54254 71.512 7.62803C71.4944 7.70416 71.5365 7.78848 71.512 7.86227C71.4991 7.89857 70.7234 8.74884 70.459 9.03344" stroke="white" stroke-width="1.5" stroke-linecap="round" stroke-linejoin="round"/>
<path d="M90.1145 6.45685C90.2678 6.60559 90.5614 6.87613 90.5825 6.92532C90.6129 6.99676 90.5907 7.21811 90.7089 7.42775C91.0388 8.02973 91.0657 8.17847 91.0505 8.44784" stroke="white" stroke-width="1.5" stroke-linecap="round" stroke-linejoin="round"/>
<path d="M19.682 6.6911C19.6341 6.6138 19.5955 6.57398 19.565 6.57398C19.4785 6.57281 19.2714 6.71452 19.1123 6.70515C18.6981 6.68173 18.4021 6.67939 18.1412 6.74146C17.9821 6.78128 17.3971 7.05533 17.2251 7.04245C17.011 7.03074 16.9443 7.07173 16.6822 7.38677C16.4272 7.69948 16.4049 7.7475 16.4061 7.97939C16.4061 7.98524 16.1616 8.89759 16.1171 9.27119C16.0879 9.50191 16.075 9.81461 16.0551 9.85326C15.9486 10.0453 15.0197 10.4072 14.8851 10.556C14.7787 10.6766 14.7401 10.8874 14.7681 11.0244" stroke="white" stroke-width="1.5" stroke-linecap="round" stroke-linejoin="round"/>
<path d="M5.17443 6.8082C5.06212 7.22045 5.02702 7.62685 4.98724 7.73576C4.92523 7.89973 5.04574 8.20775 5.05744 8.33072C5.06329 8.39396 4.86205 8.70198 4.82344 8.79919C4.79536 8.86477 4.72867 9.20676 4.70644 9.26766C4.67018 9.36838 4.48298 9.70099 4.47245 9.73612C4.46543 9.75838 4.59179 10.2116 4.59764 10.8476C4.59413 11.8384 4.58828 13.2859 4.62104 14.3435C4.62689 14.6105 4.22675 15.5662 4.23845 15.592C4.28525 15.6927 4.41161 15.7349 4.47245 15.8262C4.64678 16.0839 4.33673 17.7774 4.34726 18.3407C4.36481 19.0938 4.2677 19.7356 4.23845 19.8082C4.22909 19.8328 3.9366 20.0705 3.88746 20.1595C3.81609 20.2907 3.93543 20.8388 4.00446 21.0965" stroke="white" stroke-width="1.5" stroke-linecap="round" stroke-linejoin="round"/>
<path d="M34.3068 8.68208C34.2986 8.49469 34.3244 8.36352 34.4332 8.28857C34.7034 8.10118 37.0294 7.36685 37.1756 7.3528C37.6986 7.30361 38.2485 7.14316 38.2847 7.15956C38.4205 7.22748 38.5515 7.45469 38.5421 7.60694C38.5269 7.81893 38.4696 8.05316 38.4591 8.15154C38.4427 8.33658 38.6018 8.56379 38.8569 8.73244C39.1014 8.89055 39.381 8.89055 39.4547 8.91631C39.5179 8.93857 39.8595 9.29694 39.9227 9.38478C40.0444 9.56514 40.0257 10.5173 40.0397 10.556C40.083 10.6801 40.1918 10.7785 40.2152 10.9073C40.2175 10.9167 39.9988 11.254 39.9227 11.4929C39.8724 11.6475 39.8057 12.8198 39.8057 12.8983C39.8057 13.3656 39.6758 13.786 39.6887 13.8352C39.7098 13.9196 39.7975 13.9828 39.8057 14.0695C39.8092 14.1105 39.5986 14.5239 39.5717 14.6551C39.5483 14.7651 39.5752 15.3109 39.5717 15.3578C39.5682 15.4128 39.4372 16.2373 39.4606 16.7409C39.4723 16.9623 39.1997 17.6673 39.2207 18.8678C39.2313 19.4721 39.1107 19.9886 39.1037 20.0424C38.9762 21.0028 38.9785 21.0696 38.9867 21.2136" stroke="white" stroke-width="1.5" stroke-linecap="round" stroke-linejoin="round"/>
<path d="M60.3972 7.15955C61.6619 7.14784 62.158 7.19703 62.2691 7.27667C62.4552 7.4219 62.5289 7.56244 62.5183 7.78496C62.5043 8.02622 62.4973 8.77694 62.3861 8.91631C62.3253 8.99009 61.7076 9.54406 61.4724 9.93992C61.38 10.0945 60.8371 11.0994 60.5914 11.4015C60.5411 11.4648 60.2907 11.7213 60.2521 11.7927C60.1468 12.0035 60.1491 12.5352 60.1632 13.0154" stroke="white" stroke-width="1.5" stroke-linecap="round" stroke-linejoin="round"/>
<path d="M11.7262 7.86227C11.8257 8.03561 11.8713 8.19254 11.8432 8.33074C11.828 8.4057 11.7344 8.70318 11.7262 8.79921C11.7215 8.8484 11.7414 9.19741 11.7262 9.26768C11.7075 9.35435 11.4361 10.1859 11.3378 10.8289C11.3085 11.0596 11.243 11.5421 11.2582 11.61C11.2851 11.7307 11.3682 11.8384 11.3752 11.9614C11.3787 12.0152 10.9786 12.8679 10.9072 13.0154" stroke="white" stroke-width="1.5" stroke-linecap="round" stroke-linejoin="round"/>
<path d="M5.75936 8.0965L5.05737 8.33073" stroke="white" stroke-width="1.5" stroke-linecap="round" stroke-linejoin="round"/>
<path d="M38.5187 8.44785C38.2636 8.72658 37.275 10.5712 36.8725 11.1579C36.7169 11.3828 36.1319 12.1464 35.9447 12.4298C35.7376 12.746 35.3047 13.5483 35.1257 13.8352C34.942 14.1304 34.1991 15.2043 34.1898 15.2406C34.1898 15.3578 34.1313 15.592 34.0728 15.7091C34.054 15.7852 34.0599 15.9878 33.9136 16.1612C33.7136 16.3978 33.4843 16.9037 33.3076 17.1473C33.1824 17.3206 33.1005 17.371 33.0198 17.3487" stroke="white" stroke-width="1.5" stroke-linecap="round" stroke-linejoin="round"/>
<path d="M61.6842 9.61903C61.5871 9.56633 61.3824 9.50894 61.2162 9.50191C61.0969 9.49606 60.5669 9.56281 60.5365 9.56515C60.3493 9.57101 60.1773 9.39299 60.1551 9.17398C60.1598 8.9866 60.1422 8.58606 60.0463 8.56497C59.9609 8.54975 59.7538 8.70669 59.542 8.70317C59.1138 8.70083 58.4902 8.65398 58.4083 8.68209C58.2398 8.75119 58.1497 9.3157 58.1462 9.89074C58.1497 10.0898 58.1544 10.5197 58.1743 10.556C58.2012 10.604 58.296 10.618 58.2913 10.6731C58.2901 10.686 57.9953 11.0268 57.9403 11.1416C57.9146 11.1966 57.9427 12.1652 57.9508 12.2343C57.9754 12.4006 58.1392 12.6852 58.2819 12.8116C58.4352 12.9393 58.7932 13.1033 58.9933 13.1325C59.2004 13.1595 59.6145 13.1173 59.8602 13.0576C60.1188 12.9979 60.2639 13.0599 60.2803 13.2497C60.2885 13.3703 60.2264 13.8587 60.2803 13.9524C60.3341 14.0496 60.4569 14.0929 60.5143 14.1866C60.5739 14.2838 60.1679 15.1118 60.1633 15.1235C60.1258 15.2313 60.0428 15.6154 60.003 15.8028C59.9597 16.0218 59.79 16.1272 59.8123 16.1776C59.8591 16.2783 59.9866 16.3193 60.0463 16.4118C60.1013 16.4973 60.0392 18.6031 59.9293 19.574" stroke="white" stroke-width="1.5" stroke-linecap="round" stroke-linejoin="round"/>
<path d="M99.2404 8.91632C99.1105 9.89542 99.1456 10.7351 99.0637 11.0045C98.9958 11.2259 99.0169 11.9953 98.9514 12.2155C98.8087 12.6957 99.0146 13.3398 99.0064 13.3668C98.99 13.4195 98.8788 13.5003 98.8508 13.683C98.8005 13.9805 98.4214 14.4126 98.4214 14.4208C98.419 14.4759 98.5138 14.4888 98.5384 14.5379C98.5513 14.5625 98.5255 15.7665 98.5267 16.0605C98.5302 16.5488 98.6823 17.2867 98.6554 17.3488C98.5875 17.5057 98.2389 17.8289 98.1874 17.9343C98.1535 18.0046 98.1032 18.5047 98.0704 18.8713C98.0669 18.9146 97.4374 21.7055 97.3684 22.3848" stroke="white" stroke-width="1.5" stroke-linecap="round" stroke-linejoin="round"/>
<path d="M19.7992 9.15054C19.7126 9.31802 19.4716 9.78298 19.4482 9.85325C19.4072 9.97856 19.5406 10.2386 19.5652 10.3217C19.5792 10.3639 19.5535 10.7 19.5652 10.7902C19.5734 10.8558 19.6752 11.1954 19.6822 11.2587C19.6915 11.3359 19.6623 11.6838 19.6822 11.7271C19.7184 11.8068 19.8179 11.8759 19.7992 11.9614C19.7699 12.0996 19.633 12.1897 19.5652 12.3127C19.5266 12.383 19.4377 13.4312 19.4564 13.7568C19.4657 13.909 19.6424 14.2779 19.6822 14.4208C19.6986 14.4817 19.6892 15.7513 19.6822 16.1776" stroke="white" stroke-width="1.5" stroke-linecap="round" stroke-linejoin="round"/>
<path d="M40.3906 10.9073C40.7042 10.7855 41.3067 10.5536 41.6191 10.4927C41.7501 10.4658 42.2146 10.0828 42.6183 9.9493C43.2126 9.7584 43.7274 9.71273 43.9006 9.85327C44.0374 9.97155 44.1158 10.0489 44.1345 10.0875C44.1673 10.1589 44.248 10.7059 44.2515 11.7271C44.2515 11.8981 44.2621 12.253 44.2668 12.4252C44.2738 12.6102 44.1404 12.8116 44.1345 12.8983C44.1345 12.9089 44.3264 13.3832 44.3685 13.601C44.4036 13.779 44.3487 14.5005 44.3685 14.538C44.3943 14.5871 44.4844 14.6 44.4855 14.6551C44.4879 14.7429 44.3545 14.9303 44.3217 15.2219C44.2714 15.6424 44.0012 16.0265 44.0175 16.0605C44.0667 16.16 44.1895 16.2034 44.2515 16.2947C44.2902 16.3509 44.2632 17.1778 44.1884 17.59C44.1205 17.9566 44.1474 18.7448 44.1345 18.8713C44.1205 19.0107 44.0199 19.5318 44.0175 19.574C44.0164 19.5927 44.0526 19.9628 44.0175 20.0425C43.9719 20.149 43.6689 20.4805 43.6666 20.5109C43.6607 20.5976 43.7602 20.6608 43.7836 20.7452C43.8105 20.8342 43.7964 21.2511 43.7836 21.565" stroke="white" stroke-width="1.5" stroke-linecap="round" stroke-linejoin="round"/>
<path d="M0.845459 12.3127C0.877048 12.1651 0.916827 11.8934 0.962457 11.8442C0.981176 11.8243 1.89727 11.1521 2.22954 10.8839C2.40855 10.7363 2.92919 10.3123 3.25561 10.1987C3.59373 10.084 4.29455 9.99262 4.47238 9.97037" stroke="white" stroke-width="1.5" stroke-linecap="round" stroke-linejoin="round"/>
<path d="M16.0552 9.85324C16.1394 9.95279 16.3757 10.2397 16.4436 10.2948C16.5817 10.4037 16.9362 10.4716 17.1468 10.4318C17.5375 10.3182 18.1143 10.1659 18.3951 10.2046C18.7344 10.2514 19.2164 10.0734 19.4481 10.0875" stroke="white" stroke-width="1.5" stroke-linecap="round" stroke-linejoin="round"/>
<path d="M16.7571 10.4388C16.5874 10.5841 16.5067 10.9951 16.5067 11.6405C16.5137 11.8806 16.5242 12.3139 16.5266 12.5083C16.5359 12.7496 16.4295 12.8479 16.4061 12.8983C16.3897 12.9323 16.4248 13.3024 16.4061 13.3668C16.3827 13.4511 16.2727 13.656 16.2891 13.8352C16.3136 14.1233 16.2306 14.5379 16.1721 14.7722C16.1686 14.7991 16.192 15.7899 16.1721 15.9433C16.1545 16.0769 16.0551 16.646 16.0551 16.8803C16.0422 16.9787 15.9369 17.3663 15.8854 17.5514C15.8258 17.7563 15.8363 17.9753 15.8211 18.0515C15.8117 18.103 15.5473 18.6288 15.3917 19.2589C15.3449 19.4604 15.2665 19.793 15.2361 19.9253" stroke="white" stroke-width="1.5" stroke-linecap="round" stroke-linejoin="round"/>
<path d="M58.2913 10.6731C59.1418 10.6977 60.086 10.5852 60.1632 10.6731C60.2545 10.782 60.2943 11.4554 60.3972 11.61" stroke="white" stroke-width="1.5" stroke-linecap="round" stroke-linejoin="round"/>
<path d="M68.119 11.1415C68.1389 11.4917 68.0032 11.9871 68.002 12.0785C67.9997 12.1944 68.0488 12.6723 68.002 12.7812C67.9494 12.9053 67.5399 13.2368 67.534 13.2496C67.4989 13.3199 67.5282 13.5342 67.4276 13.7076C67.2895 13.9535 67.1936 14.4033 67.0836 14.7136C66.8929 15.243 66.5863 15.9047 66.3442 16.153C66.2716 16.2279 65.9358 16.4751 65.8961 16.5289C65.8715 16.5629 65.8329 16.6402 65.7791 16.7632" stroke="white" stroke-width="1.5" stroke-linecap="round" stroke-linejoin="round"/>
<path d="M88.2427 21.4478C88.2251 21.3014 88.2158 21.0742 88.2427 20.9794C88.2637 20.9056 88.4615 20.5683 88.4767 20.5109C88.4977 20.4359 88.472 20.0764 88.4767 20.0424C88.4814 20.005 88.5948 19.6641 88.5937 19.574C88.5948 19.458 88.534 18.9849 88.5937 18.8713C88.6393 18.7834 89.126 18.3782 89.1787 18.2857C89.2512 18.1557 89.2477 17.6814 89.1787 17.583C89.1143 17.4928 88.9915 17.4495 88.9447 17.3487C88.9236 17.3054 89.0804 16.5067 89.0617 16.0101C89.0488 15.6564 89.1541 15.0123 89.284 14.7511C89.3448 14.6258 89.6373 14.251 89.6467 14.1866C89.6642 14.0648 89.5601 13.9547 89.5297 13.8352C89.5133 13.772 89.6677 13.2578 89.6467 12.8983C89.642 12.7718 89.6303 12.4814 89.6467 12.4298C89.6747 12.3467 89.7952 12.1171 89.8093 11.959C89.8292 11.7693 89.9497 11.6744 90.2316 11.61C90.4142 11.5737 91.0998 11.6697 91.3747 11.7822C91.5385 11.8524 91.7292 12.0726 91.755 12.2225C91.7643 12.2811 91.7865 13.7802 91.7526 13.8352C91.6953 13.9289 91.4625 14.1362 91.5186 14.1866C91.5736 14.2358 91.7947 14.4454 91.8696 14.655C91.9269 14.819 91.9328 15.7489 91.8696 16.0605C91.7783 16.4985 91.4964 17.0688 91.5186 17.1145C91.5666 17.2141 91.6941 17.255 91.7526 17.3487C91.8017 17.4249 91.7596 18.5867 91.6859 18.8385C91.6695 18.8888 91.6602 19.1488 91.6356 19.2226C91.6146 19.2894 91.308 19.6337 91.2846 19.6911C91.2484 19.7801 91.3665 20.2404 91.4016 20.3938" stroke="white" stroke-width="1.5" stroke-linecap="round" stroke-linejoin="round"/>
<path d="M11.3752 11.9614C11.566 11.9403 11.656 11.986 11.6865 12.1605C11.7134 12.3198 11.7368 12.5458 11.7426 12.6852C11.7473 12.8234 11.518 13.6701 11.6092 13.9524C11.6373 14.0355 11.7274 14.0999 11.7262 14.1866C11.7262 14.2744 11.5894 14.4782 11.5952 14.7101C11.5987 14.9045 11.6057 15.2278 11.6092 15.3578" stroke="white" stroke-width="1.5" stroke-linecap="round" stroke-linejoin="round"/>
<path d="M20.8521 12.0785C20.5982 12.2143 19.8892 12.5364 19.6821 12.547C19.5827 12.5516 19.2446 12.4334 19.2141 12.4298C19.1907 12.4275 18.3928 12.643 18.0442 12.6641C17.9131 12.6723 17.6101 12.6512 17.5762 12.6641C17.4943 12.6945 17.2614 12.7999 16.9198 12.7917C16.7876 12.7882 16.6554 12.7847 16.5232 12.7812" stroke="white" stroke-width="1.5" stroke-linecap="round" stroke-linejoin="round"/>
<path d="M63.2051 12.1956C62.9746 12.5071 62.4376 13.2297 62.2422 13.4288C62.0679 13.6033 61.6291 13.8247 61.339 13.8868C61.0968 13.9383 60.6113 14.203 60.5142 14.1866" stroke="white" stroke-width="1.5" stroke-linecap="round" stroke-linejoin="round"/>
<path d="M68.002 12.7812C68.3483 12.9733 68.849 13.0986 68.9379 13.1325C69.021 13.1642 69.6902 13.5331 70.1957 13.7287C71.1141 14.073 72.8258 14.7125 73.6178 15.0064C74.1385 15.2079 76.0994 16.4739 76.4258 16.6461C76.8458 16.8651 77.515 17.0829 77.5958 17.1145C77.8297 17.1731 78.4592 17.4436 78.5317 17.4659C78.623 17.4963 78.9611 17.5279 78.9997 17.583C79.0266 17.6216 79.0652 17.7388 79.1167 17.9343" stroke="white" stroke-width="1.5" stroke-linecap="round" stroke-linejoin="round"/>
<path d="M18.98 14.4208C18.8817 14.3225 18.6372 14.0777 18.491 13.9313C18.3845 13.8247 18.161 13.601 18.044 13.4839C17.7913 13.2309 17.4403 12.8796 17.342 12.7812" stroke="white" stroke-width="1.5" stroke-linecap="round" stroke-linejoin="round"/>
<path d="M39.8057 14.0695C40.7557 13.9605 41.3676 13.8516 41.4436 13.8352C41.467 13.8294 42.5879 13.2391 42.8476 13.1325C43.1904 12.9943 43.7625 12.8948 44.1346 12.8983" stroke="white" stroke-width="1.5" stroke-linecap="round" stroke-linejoin="round"/>
<path d="M9.73724 13.9524C9.70917 13.7849 9.79925 13.5788 9.97124 13.4839C10.004 13.4652 10.3386 13.4218 10.4392 13.3668C10.5422 13.3129 10.8663 13.0166 10.9072 13.0154C10.995 13.0143 11.0581 13.1079 11.1412 13.1325C11.2161 13.156 11.4384 13.1466 11.6092 13.2497" stroke="white" stroke-width="1.5" stroke-linecap="round" stroke-linejoin="round"/>
<path d="M99.0065 13.3668C99.9998 13.1267 100.94 13.1103 101.322 13.1138C101.541 13.1138 101.693 13.1934 101.814 13.3668C101.934 13.5506 101.93 14.1374 101.824 14.7675C101.741 15.2231 101.508 16.2607 101.463 16.4118C101.311 16.9166 100.997 17.3686 100.745 17.5713C100.742 17.5748 100.145 17.8008 100.059 17.8172C100.003 17.8277 99.2733 17.6743 98.9936 17.5268C98.8813 17.467 98.7678 17.4085 98.6555 17.3487" stroke="white" stroke-width="1.5" stroke-linecap="round" stroke-linejoin="round"/>
<path d="M16.4062 13.3668C16.6344 13.5928 17.0275 13.984 17.1082 14.0695C17.2662 14.2334 17.5306 14.5239 17.5762 14.5379C17.6546 14.5379 17.7318 14.5379 17.8102 14.5379C17.8956 14.5578 17.9588 14.6375 18.0442 14.655C18.3086 14.7031 18.8948 14.436 18.9802 14.4208C19.0574 14.4068 19.1428 14.4524 19.2142 14.4208C19.3827 14.3423 19.6483 13.7193 19.6822 13.601C19.7126 13.4968 19.7781 12.9522 19.7992 12.8983C19.8296 12.8163 19.9115 12.7519 19.9162 12.6641C19.9185 12.6149 19.7594 12.3396 19.6822 12.1956" stroke="white" stroke-width="1.5" stroke-linecap="round" stroke-linejoin="round"/>
<path d="M11.7263 14.1866C11.8469 14.2592 12.3944 14.3342 12.4283 14.4208C12.4447 14.4653 12.2049 14.8249 12.1943 14.8893C12.1815 14.9666 12.2341 15.0568 12.1943 15.1235C12.1393 15.2196 11.9943 15.2524 11.9603 15.3578C11.9346 15.4409 12.0481 15.51 12.0773 15.592C12.1113 15.6892 11.9709 16.8018 11.8632 17.1087C11.8293 17.2035 11.3777 18.2107 11.3133 18.3396C11.1589 18.6476 10.4113 19.5002 10.3481 19.5798C10.1913 19.7824 10.1141 20.1256 10.0884 20.2767" stroke="white" stroke-width="1.5" stroke-linecap="round" stroke-linejoin="round"/>
<path d="M89.7637 14.1866H91.5186" stroke="white" stroke-width="1.5" stroke-linecap="round" stroke-linejoin="round"/>
<path d="M96.7834 14.5379L98.4214 14.4208" stroke="white" stroke-width="1.5" stroke-linecap="round" stroke-linejoin="round"/>
<path d="M27.0529 15.1235C26.6375 15.3472 26.2351 15.3964 26.1777 15.4152C25.9215 15.4913 25.0534 15.462 24.9469 15.4749C24.8112 15.4913 24.5421 15.5826 24.4789 15.592C24.4473 15.5967 23.9583 15.5979 23.3136 15.7232C22.545 15.8813 21.8243 16.0148 21.437 16.0605C20.9035 16.1225 19.7967 16.1272 19.682 16.1776C19.5112 16.2549 19.2819 16.5734 19.214 16.6461C19.1544 16.7116 18.4688 17.0208 18.3951 17.2316C18.3658 17.3218 18.3752 17.5467 18.3951 17.7001" stroke="white" stroke-width="1.5" stroke-linecap="round" stroke-linejoin="round"/>
<path d="M11.9603 15.3578C11.6116 15.3285 10.9798 15.6213 10.7903 15.7091" stroke="white" stroke-width="1.5" stroke-linecap="round" stroke-linejoin="round"/>
<path d="M4.23829 15.592C3.10459 16.0277 2.44004 16.4013 2.26922 16.6273C2.0949 16.8697 2.06448 17.4096 2.13234 17.8172C2.17562 18.0667 2.35346 18.7506 2.49854 19.0165C2.62957 19.2531 2.67286 19.6583 2.71732 19.6911C2.81677 19.7637 3.15957 19.8386 3.31284 19.93C3.48834 20.0342 3.81593 20.0565 3.8873 20.1595" stroke="white" stroke-width="1.5" stroke-linecap="round" stroke-linejoin="round"/>
<path d="M39.4546 16.9974C39.6617 17.0068 41.2645 16.796 41.6658 16.6648C41.8039 16.6179 42.7984 16.2607 43.1377 16.208C43.236 16.1928 43.8911 16.0886 44.0175 16.0605" stroke="white" stroke-width="1.5" stroke-linecap="round" stroke-linejoin="round"/>
<path d="M59.8123 16.1776C59.576 16.3052 58.8471 16.4762 58.6423 16.5289C58.3779 16.6004 57.1916 17.5186 56.9517 17.6099C56.802 17.6638 56.7201 17.7587 56.5364 18.0515" stroke="white" stroke-width="1.5" stroke-linecap="round" stroke-linejoin="round"/>
<path d="M91.5187 17.1145C91.1454 17.2937 90.6119 17.3827 90.1346 17.3359C90.0012 17.3218 89.917 17.3265 89.8807 17.3487C89.7883 17.4085 89.7438 17.5314 89.6467 17.583C89.5788 17.6204 89.3495 17.5947 89.1787 17.7001" stroke="white" stroke-width="1.5" stroke-linecap="round" stroke-linejoin="round"/>
<path d="M89.6465 17.583L89.5295 18.2857" stroke="white" stroke-width="1.5" stroke-linecap="round" stroke-linejoin="round"/>
<path d="M89.1787 18.2857C89.4513 18.2646 89.6175 18.3115 89.7707 18.4836C89.938 18.671 90.3417 19.2484 90.5651 19.3526C90.8916 19.4885 91.1419 19.6161 91.2847 19.6911" stroke="white" stroke-width="1.5" stroke-linecap="round" stroke-linejoin="round"/>
<path d="M42.3796 19.574C42.6054 19.9277 42.8266 20.1291 43.1986 20.2767C43.2829 20.3118 43.5672 20.4594 43.6666 20.5109" stroke="white" stroke-width="1.5" stroke-linecap="round" stroke-linejoin="round"/>
</g>
<defs>
<clipPath id="clip0_1315_1121">
<rect width="103" height="24" fill="white"/>
</clipPath>
</defs>
</svg>
