<svg width="215" height="301" viewBox="0 0 215 301" fill="none" xmlns="http://www.w3.org/2000/svg">
<mask id="path-1-inside-1_1315_795" fill="white">
<path fill-rule="evenodd" clip-rule="evenodd" d="M9.61039 0C4.30272 0 0 4.47715 0 10V23V291C0 296.523 4.47716 301 10 301H205C210.523 301 215 296.523 215 291V33C215 27.4772 210.523 23 205 23H119C118.009 21.2879 117.056 19.4459 116.089 17.5764C111.69 9.07252 106.996 0 97.0649 0H9.61039Z"/>
</mask>
<path fill-rule="evenodd" clip-rule="evenodd" d="M9.61039 0C4.30272 0 0 4.47715 0 10V23V291C0 296.523 4.47716 301 10 301H205C210.523 301 215 296.523 215 291V33C215 27.4772 210.523 23 205 23H119C118.009 21.2879 117.056 19.4459 116.089 17.5764C111.69 9.07252 106.996 0 97.0649 0H9.61039Z" fill="#F6F6F6"/>
<path d="M119 23L117.269 24.0021L117.847 25H119V23ZM116.089 17.5764L117.865 16.6575V16.6575L116.089 17.5764ZM2 10C2 5.50607 5.48145 2 9.61039 2V-2C3.12398 -2 -2 3.44824 -2 10H2ZM2 23V10H-2V23H2ZM2 291V23H-2V291H2ZM10 299C5.58172 299 2 295.418 2 291H-2C-2 297.627 3.37259 303 10 303V299ZM205 299H10V303H205V299ZM213 291C213 295.418 209.418 299 205 299V303C211.627 303 217 297.627 217 291H213ZM213 33V291H217V33H213ZM205 25C209.418 25 213 28.5817 213 33H217C217 26.3726 211.627 21 205 21V25ZM119 25H205V21H119V25ZM114.312 18.4954C115.275 20.3562 116.25 22.2416 117.269 24.0021L120.731 21.9979C119.768 20.3342 118.837 18.5356 117.865 16.6575L114.312 18.4954ZM97.0649 2C101.31 2 104.46 3.89753 107.157 6.92889C109.923 10.0369 112.085 14.1892 114.312 18.4954L117.865 16.6575C115.694 12.4597 113.309 7.82382 110.145 4.2696C106.914 0.638731 102.751 -2 97.0649 -2V2ZM9.61039 2H97.0649V-2H9.61039V2Z" fill="black" mask="url(#path-1-inside-1_1315_795)"/>
</svg>
