<svg width="605" height="57" viewBox="0 0 605 57" fill="none" xmlns="http://www.w3.org/2000/svg">
<rect x="2" y="37" width="589" height="4" fill="#736262"/>
<g clip-path="url(#clip0_1156_1266)">
<circle cx="10" cy="10" r="10" transform="matrix(1 0 0 -1 0 49)" fill="#736262"/>
<circle cx="10" cy="10" r="10" transform="matrix(1 0 0 -1 96.6667 49)" fill="#736262"/>
<circle cx="10" cy="10" r="10" transform="matrix(1 0 0 -1 193.333 49)" fill="#736262"/>
<circle cx="10" cy="10" r="10" transform="matrix(1 0 0 -1 290 49)" fill="#736262"/>
<circle cx="10" cy="10" r="10" transform="matrix(1 0 0 -1 386.667 49)" fill="#736262"/>
<circle cx="10" cy="10" r="10" transform="matrix(1 0 0 -1 483.333 49)" fill="#736262"/>
<circle cx="10" cy="10" r="10" transform="matrix(1 0 0 -1 580 49)" fill="#736262"/>
</g>
<path d="M589.635 2C589.635 4.18432 589.523 5.32246 589.635 7.5C589.828 11.2279 589.39 15.4039 589.054 19.116C588.765 22.3115 588.47 25.5077 588.217 28.7064C588.146 29.6113 588.252 30.5847 588 31.466" stroke="#736262" stroke-width="3" stroke-linecap="round"/>
<path d="M589.593 17.0182L589.194 3.0445C589.17 2.21257 590.113 1.71736 590.785 2.20954L596.635 6.5L602.722 10.1268C603.366 10.5106 603.375 11.4405 602.737 11.8357L597.696 14.9623C597.656 14.9874 597.613 15.0096 597.57 15.0287L590.993 17.9058C590.344 18.19 589.613 17.7268 589.593 17.0182Z" fill="#736262" stroke="#736262" stroke-width="3"/>
<g clip-path="url(#clip1_1156_1266)">
<path fill-rule="evenodd" clip-rule="evenodd" d="M14.8189 15.1838C12.7071 14.9441 10.8506 15.8183 8.93946 16.4754C7.51796 16.9642 6.37766 17.8409 5.24335 18.7841C3.93016 19.8759 2.82807 21.1123 1.90412 22.5332C1.3987 23.3101 1.1707 24.1761 0.858581 25.0203C0.289164 26.562 0.0120337 28.1474 0.0878393 29.7868C0.171225 31.5919 0.863681 33.1551 2.07657 34.4977C2.43752 34.8973 2.80766 35.2921 3.20418 35.6568C4.85514 37.1757 6.80626 38.0104 9.07154 38.104C9.26994 38.1123 9.46981 38.1204 9.66749 38.1054C10.2124 38.0636 10.7054 38.0665 11.1604 38.4989C11.3804 38.7082 11.8285 38.7717 12.1667 38.7567C13.3559 38.7041 14.5412 38.5705 15.7299 38.5026C16.7856 38.4424 17.8605 38.2958 18.8984 38.4193C21.9742 38.7855 25.0556 38.7761 28.1423 38.7843C31.0286 38.7919 33.9158 38.9308 36.8007 38.8877C38.4181 38.8634 40.0639 38.9147 41.6493 38.4414C41.7951 38.3977 41.977 38.3841 42.1186 38.4286C42.9819 38.7007 43.8423 38.5626 44.6655 38.3335C45.7887 38.0208 46.9378 37.98 48.0804 37.8555C48.6724 37.7911 49.2667 37.7476 49.8602 37.6976C51.4161 37.5665 52.9728 37.4431 54.5279 37.3035C54.9883 37.2621 55.4529 37.2108 55.9009 37.1042C56.5834 36.9415 56.9714 36.4031 56.9084 35.7927C56.8445 35.1746 56.3181 34.6983 55.6114 34.7069C54.9777 34.7147 54.345 34.8025 53.712 34.8567C51.7344 35.0261 49.7567 35.1955 47.7792 35.3671C47.5286 35.3888 47.2795 35.4265 47.029 35.4503C46.8066 35.4715 46.6965 35.3921 46.7723 35.154C46.8239 34.992 46.8331 34.8056 46.923 34.6703C47.0188 34.526 47.1709 34.3575 47.327 34.322C49.0084 33.9402 50.71 33.7065 52.4401 33.6903C52.7805 33.6871 53.1201 33.5953 53.4601 33.5446C54.0221 33.4608 54.5842 33.377 55.1463 33.2935C55.3163 33.2682 55.4911 33.2604 55.6557 33.216C56.3019 33.0414 56.7043 32.4834 56.6362 31.8745C56.5693 31.2755 56.0839 30.8172 55.4192 30.7919C54.985 30.7754 54.5306 30.7695 54.1147 30.8731C52.8712 31.1831 51.5949 31.1745 50.3359 31.3254C49.378 31.4405 48.4228 31.5848 47.4722 31.7482C47.122 31.8084 46.9209 31.7401 46.7259 31.4282C46.0727 30.383 45.0444 29.8382 43.9017 29.4552C42.5928 29.0165 41.2687 28.6602 39.8741 28.6299C39.7696 28.6277 39.6639 28.6008 39.5616 28.5747C36.176 27.7141 32.7204 27.6863 29.2608 27.7606C28.1773 27.7838 27.0969 27.9273 26.0142 28.0044C25.5007 28.0409 25.4746 27.9947 25.53 27.4852C25.7307 25.6419 25.7469 23.8145 25.1673 22.0158C24.8916 21.1608 24.5325 20.3591 24.0258 19.6144C21.9607 16.5806 18.9779 15.2958 15.3755 15.184C15.1902 15.1788 15.0046 15.1838 14.8189 15.1838ZM15.4112 35.8764C15.387 35.8256 15.3628 35.7748 15.3386 35.7238C15.8828 35.1963 16.4076 34.6471 16.9762 34.1464C17.6915 33.5165 18.1688 32.7564 18.4287 31.8544C18.8579 30.3662 18.9298 28.845 18.8513 27.3115C18.8147 26.5959 18.4867 25.9949 17.978 25.5142C16.6275 24.2386 14.9422 23.6268 13.1311 23.5116C11.2044 23.3891 9.46893 24.0903 7.90573 25.192C6.31585 26.3124 5.70387 27.8551 5.94339 29.7335C6.0673 30.7037 6.53788 31.4876 7.45061 31.9532C7.99379 32.2305 8.57778 32.1426 8.9501 31.7484C9.32577 31.3508 9.38117 30.7706 9.08597 30.257C9.0211 30.144 8.9482 30.0298 8.85593 29.939C8.36669 29.4571 8.38185 28.892 8.56553 28.2989C8.74338 27.7251 9.1609 27.3426 9.6685 27.0651C10.1889 26.7807 10.7177 26.4897 11.2778 26.3052C11.6876 26.1702 12.1552 26.1596 12.5949 26.1714C13.1204 26.1856 13.6646 26.2146 14.1635 26.3609C14.7867 26.5439 15.3961 26.8115 15.9607 27.13C16.1598 27.2423 16.3149 27.6144 16.3092 27.8639C16.2879 28.775 16.2234 29.6883 16.1094 30.5927C16.0394 31.1477 15.8688 31.7055 15.4303 32.1087C14.4068 33.0495 13.4655 34.069 12.2396 34.7982C10.6041 35.7708 8.93858 35.8039 7.20511 35.2144C5.9689 34.7937 5.02847 33.9704 4.15481 33.0306C3.16803 31.9696 2.59657 30.7724 2.62558 29.3266C2.63636 28.7798 2.64672 28.2207 2.76538 27.6907C3.08508 26.2648 3.459 24.8606 4.24432 23.5823C5.17381 22.0697 6.54109 21 7.86856 19.8821C8.12878 19.6631 8.40722 19.439 8.71656 19.307C10.8829 18.3819 13.0411 17.4648 15.5058 17.6698C18.0022 17.8776 20.1597 18.6429 21.711 20.7176C22.5458 21.8343 22.9628 23.0876 23.0785 24.4233C23.2456 26.3522 22.9427 28.2515 22.4686 30.1255C22.16 31.3455 21.4506 32.3597 20.4874 33.0831C19.2298 34.0279 17.8202 34.7793 16.4546 35.5782C16.1532 35.7547 15.7614 35.781 15.4112 35.8764ZM20.8794 36.0647C20.8692 36.0133 20.8589 35.9617 20.8488 35.9102C21.0312 35.7902 21.222 35.6813 21.394 35.5483C21.8295 35.2113 22.3025 34.9062 22.6784 34.5122C23.6274 33.5167 24.4593 32.436 24.8247 31.0795C24.9107 30.7603 25.1162 30.6262 25.4531 30.5894C27.7321 30.3409 30.016 30.1626 32.3099 30.2353C34.4664 30.3038 36.6192 30.4283 38.7248 30.9645C39.1827 31.0812 39.6636 31.1312 40.1373 31.1614C41.5089 31.2486 42.7851 31.6639 44.0028 32.2542C44.5489 32.5189 44.6801 33.1258 44.3837 33.7458C43.7044 33.3862 42.9851 33.1469 42.3763 33.8331C41.8576 34.4179 42.0995 35.0218 42.5036 35.5949C42.4423 35.6362 42.4127 35.6698 42.3772 35.6781C41.208 35.9499 40.0629 36.3757 38.834 36.2722C38.6876 36.2599 38.4999 36.0848 38.4319 35.9397C38.2835 35.6219 38.228 35.2626 38.0838 34.9425C37.8239 34.364 37.269 34.0826 36.7001 34.1974C36.1344 34.3118 35.7478 34.7944 35.7388 35.4283C35.7357 35.6481 35.7713 35.8705 35.8098 36.0881C35.8487 36.3074 35.7723 36.4138 35.5468 36.4158C35.4012 36.4171 35.2554 36.4208 35.1097 36.419C31.561 36.3757 28.0123 36.3314 24.4636 36.2889C23.9867 36.2833 23.5077 36.3133 23.033 36.2801C22.3135 36.23 21.5971 36.1387 20.8794 36.0647Z" fill="#736262"/>
<path fill-rule="evenodd" clip-rule="evenodd" d="M15.4112 35.8765C15.7613 35.7811 16.1532 35.7548 16.4547 35.5786C17.8203 34.7795 19.2299 34.0282 20.4875 33.0835C21.4505 32.36 22.1601 31.3458 22.4687 30.1258C22.9428 28.2518 23.2457 26.3525 23.0786 24.4236C22.9629 23.088 22.5459 21.8345 21.7111 20.718C20.1597 18.6432 18.0023 17.8779 15.5059 17.6701C13.0412 17.4651 10.883 18.3822 8.71666 19.3073C8.40732 19.4394 8.12887 19.6634 7.86866 19.8824C6.54118 21.0004 5.17391 22.07 4.24442 23.5826C3.4591 24.8609 3.08532 26.2651 2.76548 27.6911C2.64682 28.2211 2.63647 28.7801 2.62568 29.3269C2.59667 30.7728 3.16827 31.9701 4.15491 33.031C5.02857 33.9707 5.96885 34.7942 7.20521 35.2147C8.93883 35.8044 10.6042 35.7712 12.2397 34.7985C13.4656 34.0693 14.4067 33.0498 15.4304 32.1091C15.8689 31.7058 16.0395 31.1481 16.1095 30.5931C16.2235 29.6887 16.288 28.7754 16.3093 27.8642C16.315 27.6148 16.16 27.2427 15.9608 27.1303C15.3962 26.8118 14.7868 26.5444 14.1636 26.3613C13.6647 26.2148 13.1207 26.1858 12.595 26.1717C12.1552 26.16 11.6875 26.1704 11.2779 26.3055C10.7178 26.4901 10.189 26.7812 9.66861 27.0655C9.161 27.343 8.74334 27.7254 8.56563 28.2993C8.38195 28.8924 8.36679 29.4576 8.85603 29.9393C8.94831 30.0301 9.0212 30.1444 9.08607 30.2573C9.38127 30.771 9.32602 31.3511 8.9502 31.7488C8.57788 32.143 7.99374 32.2308 7.45071 31.9536C6.53798 31.488 6.0674 30.704 5.94349 29.7338C5.70382 27.8556 6.31595 26.3127 7.90583 25.1923C9.46903 24.0906 11.2045 23.3895 13.1312 23.5119C14.9423 23.6272 16.6276 24.2389 17.9781 25.5145C18.4868 25.9953 18.8148 26.5961 18.8514 27.3118C18.9297 28.8454 18.858 30.3666 18.4288 31.8547C18.1689 32.7568 17.6916 33.5169 16.9763 34.1468C16.4077 34.6473 15.8829 35.1966 15.3387 35.7242C15.3628 35.7749 15.387 35.8256 15.4112 35.8765Z" fill="white"/>
<path fill-rule="evenodd" clip-rule="evenodd" d="M20.8795 36.0647C21.5973 36.1387 22.3136 36.2298 23.0331 36.2802C23.5077 36.3133 23.9866 36.2832 24.4636 36.289C28.0125 36.3315 31.5612 36.3758 35.1098 36.4191C35.2554 36.4209 35.4012 36.417 35.5468 36.4159C35.7724 36.4137 35.8486 36.3075 35.8098 36.0882C35.7712 35.8706 35.7356 35.6482 35.7388 35.4284C35.7479 34.7945 36.1345 34.3118 36.7001 34.1975C37.2691 34.0826 37.8239 34.364 38.0838 34.9426C38.2279 35.2629 38.2836 35.6222 38.432 35.9398C38.4999 36.0851 38.6877 36.2601 38.834 36.2723C40.0631 36.3758 41.2081 35.95 42.3772 35.6782C42.4128 35.6699 42.4424 35.6363 42.5036 35.595C42.0995 35.022 41.8576 34.4181 42.3763 33.8332C42.9851 33.147 43.7044 33.3863 44.3837 33.7459C44.6801 33.126 44.5489 32.519 44.0028 32.2543C42.7851 31.6642 41.5089 31.2488 40.1373 31.1615C39.6635 31.1313 39.1826 31.0811 38.7248 30.9646C36.6192 30.4284 34.4665 30.3038 32.3099 30.2354C30.0161 30.1627 27.7321 30.341 25.4532 30.5895C25.1163 30.6263 24.9107 30.7604 24.8247 31.0796C24.4594 32.4359 23.6274 33.5168 22.6784 34.5123C22.3027 34.9063 21.8297 35.2114 21.3941 35.5484C21.2219 35.6814 21.0312 35.7903 20.8489 35.9103C20.8589 35.9616 20.8691 36.0132 20.8795 36.0647ZM39.8297 34.1185C39.1645 34.1133 38.6202 33.5684 38.6224 32.9102C38.625 32.2364 39.1921 31.6964 39.88 31.7128C40.5362 31.7281 41.0664 32.2561 41.0681 32.8958C41.0701 33.5707 40.5098 34.1237 39.8297 34.1185Z" fill="white"/>
<path fill-rule="evenodd" clip-rule="evenodd" d="M39.8296 34.1185C40.5096 34.1237 41.0699 33.5705 41.0681 32.8958C41.0664 32.2561 40.5362 31.7281 39.88 31.7128C39.1921 31.6964 38.625 32.2366 38.6224 32.9102C38.62 33.5684 39.1644 34.1133 39.8296 34.1185Z" fill="#736262"/>
</g>
<defs>
<clipPath id="clip0_1156_1266">
<rect width="600" height="20" fill="white" transform="translate(0 29)"/>
</clipPath>
<clipPath id="clip1_1156_1266">
<rect width="57" height="24" fill="white" transform="matrix(-1 0 0 1 57 15)"/>
</clipPath>
</defs>
</svg>
