<svg width="605" height="57" viewBox="0 0 605 57" fill="none" xmlns="http://www.w3.org/2000/svg">
<rect x="2" y="37" width="589" height="4" fill="#736262"/>
<g clip-path="url(#clip0_1156_1266)">
<circle cx="10" cy="10" r="10" transform="matrix(1 0 0 -1 0 49)" fill="#736262"/>
<circle cx="10" cy="10" r="10" transform="matrix(1 0 0 -1 96.6667 49)" fill="#736262"/>
<circle cx="10" cy="10" r="10" transform="matrix(1 0 0 -1 193.333 49)" fill="#736262"/>
<circle cx="10" cy="10" r="10" transform="matrix(1 0 0 -1 290 49)" fill="#736262"/>
<circle cx="10" cy="10" r="10" transform="matrix(1 0 0 -1 386.667 49)" fill="#736262"/>
<circle cx="10" cy="10" r="10" transform="matrix(1 0 0 -1 483.333 49)" fill="#736262"/>
<circle cx="10" cy="10" r="10" transform="matrix(1 0 0 -1 580 49)" fill="#736262"/>
</g>
<path d="M589.635 2C589.635 4.18432 589.523 5.32246 589.635 7.5C589.828 11.2279 589.39 15.4039 589.054 19.116C588.765 22.3115 588.47 25.5077 588.217 28.7064C588.146 29.6113 588.252 30.5847 588 31.466" stroke="#736262" stroke-width="3" stroke-linecap="round"/>
<path d="M589.593 17.0182L589.194 3.0445C589.17 2.21257 590.113 1.71736 590.785 2.20954L596.635 6.5L602.722 10.1268C603.366 10.5106 603.375 11.4405 602.737 11.8357L597.696 14.9623C597.656 14.9874 597.613 15.0096 597.57 15.0287L590.993 17.9058C590.344 18.19 589.613 17.7268 589.593 17.0182Z" fill="#736262" stroke="#736262" stroke-width="3"/>
<g clip-path="url(#clip1_1156_1266)">
<path fill-rule="evenodd" clip-rule="evenodd" d="M14.8189 17.1838C12.7071 16.9441 10.8506 17.8183 8.93946 18.4754C7.51796 18.9642 6.37766 19.8409 5.24335 20.7841C3.93016 21.8759 2.82807 23.1123 1.90411 24.5332C1.3987 25.3101 1.1707 26.1761 0.858582 27.0203C0.289165 28.562 0.0120354 30.1474 0.087841 31.7868C0.171227 33.5919 0.863682 35.1551 2.07657 36.4977C2.43752 36.8973 2.80766 37.2921 3.20418 37.6568C4.85514 39.1757 6.80626 40.0104 9.07154 40.104C9.26994 40.1123 9.46981 40.1204 9.66748 40.1054C10.2124 40.0636 10.7054 40.0665 11.1604 40.4989C11.3804 40.7082 11.8285 40.7717 12.1667 40.7567C13.3559 40.7041 14.5412 40.5705 15.7299 40.5026C16.7856 40.4424 17.8605 40.2958 18.8984 40.4193C21.9742 40.7855 25.0556 40.7761 28.1423 40.7843C31.0286 40.7919 33.9158 40.9308 36.8007 40.8877C38.4181 40.8634 40.0639 40.9147 41.6493 40.4414C41.7951 40.3977 41.977 40.3841 42.1186 40.4286C42.9819 40.7007 43.8423 40.5626 44.6655 40.3335C45.7887 40.0208 46.9378 39.98 48.0804 39.8555C48.6724 39.7911 49.2667 39.7476 49.8602 39.6976C51.4161 39.5665 52.9728 39.4431 54.5279 39.3035C54.9883 39.2621 55.4529 39.2108 55.9009 39.1042C56.5834 38.9415 56.9714 38.4032 56.9084 37.7927C56.8445 37.1746 56.3181 36.6983 55.6114 36.7069C54.9777 36.7147 54.345 36.8025 53.712 36.8567C51.7344 37.0261 49.7567 37.1955 47.7792 37.3671C47.5286 37.3888 47.2795 37.4265 47.029 37.4503C46.8066 37.4715 46.6965 37.3921 46.7723 37.154C46.8239 36.992 46.8331 36.8056 46.923 36.6703C47.0188 36.526 47.1709 36.3575 47.327 36.322C49.0084 35.9402 50.71 35.7065 52.4401 35.6903C52.7805 35.6871 53.1201 35.5953 53.4601 35.5446C54.0221 35.4608 54.5842 35.377 55.1463 35.2935C55.3163 35.2682 55.4911 35.2604 55.6557 35.216C56.3019 35.0414 56.7043 34.4834 56.6362 33.8745C56.5693 33.2755 56.0839 32.8172 55.4192 32.7919C54.985 32.7754 54.5306 32.7695 54.1147 32.8731C52.8712 33.1831 51.5949 33.1745 50.3359 33.3254C49.378 33.4405 48.4228 33.5848 47.4722 33.7482C47.122 33.8084 46.9209 33.7401 46.7259 33.4282C46.0727 32.383 45.0444 31.8382 43.9017 31.4552C42.5928 31.0165 41.2687 30.6602 39.8741 30.6299C39.7696 30.6277 39.6639 30.6008 39.5616 30.5747C36.176 29.7141 32.7204 29.6863 29.2608 29.7606C28.1773 29.7838 27.0969 29.9273 26.0142 30.0044C25.5007 30.0409 25.4746 29.9947 25.53 29.4852C25.7307 27.6419 25.7469 25.8145 25.1673 24.0158C24.8916 23.1608 24.5325 22.3591 24.0258 21.6144C21.9607 18.5806 18.9779 17.2958 15.3755 17.184C15.1902 17.1788 15.0046 17.1838 14.8189 17.1838ZM15.4112 37.8764C15.387 37.8256 15.3628 37.7748 15.3386 37.7238C15.8828 37.1963 16.4076 36.6471 16.9762 36.1464C17.6915 35.5165 18.1688 34.7564 18.4287 33.8544C18.8579 32.3662 18.9298 30.845 18.8513 29.3115C18.8147 28.5959 18.4867 27.9949 17.978 27.5142C16.6275 26.2386 14.9422 25.6268 13.1311 25.5116C11.2044 25.3891 9.46893 26.0903 7.90573 27.192C6.31585 28.3124 5.70387 29.8551 5.94339 31.7335C6.0673 32.7037 6.53788 33.4876 7.45061 33.9532C7.99379 34.2305 8.57778 34.1426 8.9501 33.7484C9.32578 33.3508 9.38117 32.7706 9.08597 32.257C9.0211 32.144 8.9482 32.0298 8.85593 31.939C8.36669 31.4571 8.38185 30.892 8.56553 30.2989C8.74338 29.7251 9.1609 29.3426 9.66851 29.0651C10.1889 28.7807 10.7177 28.4897 11.2778 28.3052C11.6876 28.1702 12.1552 28.1596 12.5949 28.1714C13.1204 28.1856 13.6646 28.2146 14.1635 28.3609C14.7867 28.5439 15.3961 28.8115 15.9607 29.13C16.1598 29.2423 16.3149 29.6144 16.3092 29.8639C16.2879 30.775 16.2234 31.6883 16.1094 32.5927C16.0394 33.1477 15.8688 33.7055 15.4303 34.1087C14.4068 35.0495 13.4655 36.069 12.2396 36.7982C10.6041 37.7708 8.93858 37.8039 7.20511 37.2144C5.9689 36.7937 5.02847 35.9704 4.15481 35.0306C3.16803 33.9696 2.59657 32.7724 2.62558 31.3266C2.63636 30.7798 2.64672 30.2207 2.76538 29.6907C3.08508 28.2648 3.459 26.8606 4.24432 25.5823C5.17381 24.0697 6.54109 23 7.86856 21.8821C8.12878 21.6631 8.40722 21.439 8.71656 21.307C10.8829 20.3819 13.0411 19.4648 15.5058 19.6698C18.0022 19.8776 20.1597 20.6429 21.711 22.7176C22.5458 23.8343 22.9628 25.0876 23.0785 26.4233C23.2456 28.3522 22.9427 30.2515 22.4686 32.1255C22.16 33.3455 21.4506 34.3597 20.4874 35.0831C19.2298 36.0279 17.8202 36.7793 16.4546 37.5782C16.1532 37.7547 15.7614 37.781 15.4112 37.8764ZM20.8794 38.0647C20.8692 38.0133 20.8589 37.9617 20.8488 37.9102C21.0312 37.7902 21.222 37.6813 21.394 37.5483C21.8295 37.2113 22.3025 36.9062 22.6784 36.5122C23.6274 35.5167 24.4594 34.436 24.8247 33.0795C24.9107 32.7603 25.1162 32.6262 25.4531 32.5894C27.7321 32.3409 30.0161 32.1626 32.3099 32.2353C34.4664 32.3038 36.6192 32.4283 38.7248 32.9645C39.1827 33.0812 39.6636 33.1312 40.1373 33.1614C41.5089 33.2486 42.7851 33.6639 44.0028 34.2542C44.5489 34.5189 44.6801 35.1258 44.3837 35.7458C43.7044 35.3862 42.9851 35.1469 42.3763 35.8331C41.8576 36.4179 42.0995 37.0218 42.5036 37.5949C42.4423 37.6362 42.4127 37.6698 42.3772 37.6781C41.208 37.9499 40.0629 38.3757 38.834 38.2722C38.6876 38.2599 38.4999 38.0848 38.4319 37.9397C38.2835 37.6219 38.228 37.2626 38.0838 36.9425C37.8239 36.364 37.269 36.0826 36.7001 36.1974C36.1344 36.3118 35.7478 36.7944 35.7388 37.4283C35.7357 37.6481 35.7713 37.8705 35.8098 38.0881C35.8487 38.3074 35.7723 38.4138 35.5468 38.4158C35.4012 38.4171 35.2554 38.4208 35.1097 38.419C31.561 38.3757 28.0123 38.3314 24.4636 38.2889C23.9867 38.2833 23.5077 38.3133 23.033 38.2801C22.3135 38.23 21.5971 38.1387 20.8794 38.0647Z" fill="#736262"/>
<path fill-rule="evenodd" clip-rule="evenodd" d="M15.4112 37.8765C15.7613 37.7811 16.1532 37.7548 16.4547 37.5786C17.8203 36.7795 19.2299 36.0282 20.4875 35.0835C21.4505 34.36 22.1601 33.3458 22.4687 32.1258C22.9428 30.2518 23.2457 28.3525 23.0786 26.4236C22.9629 25.088 22.5459 23.8345 21.7111 22.718C20.1597 20.6432 18.0023 19.8779 15.5059 19.6701C13.0412 19.4651 10.883 20.3822 8.71666 21.3073C8.40732 21.4394 8.12887 21.6634 7.86866 21.8824C6.54118 23.0004 5.17391 24.07 4.24442 25.5826C3.4591 26.8609 3.08533 28.2651 2.76548 29.6911C2.64682 30.2211 2.63647 30.7801 2.62568 31.3269C2.59667 32.7728 3.16827 33.9701 4.15491 35.031C5.02857 35.9707 5.96885 36.7942 7.20521 37.2147C8.93883 37.8044 10.6042 37.7712 12.2397 36.7985C13.4656 36.0693 14.4067 35.0498 15.4304 34.1091C15.8689 33.7058 16.0395 33.1481 16.1095 32.5931C16.2235 31.6887 16.288 30.7754 16.3093 29.8642C16.315 29.6148 16.16 29.2427 15.9608 29.1303C15.3962 28.8118 14.7868 28.5444 14.1636 28.3613C13.6647 28.2148 13.1207 28.1858 12.595 28.1717C12.1552 28.16 11.6875 28.1704 11.2779 28.3055C10.7178 28.4901 10.189 28.7812 9.66861 29.0655C9.161 29.343 8.74334 29.7254 8.56563 30.2993C8.38195 30.8924 8.36679 31.4576 8.85603 31.9393C8.94831 32.0301 9.0212 32.1444 9.08607 32.2573C9.38127 32.771 9.32602 33.3511 8.9502 33.7488C8.57788 34.143 7.99374 34.2308 7.45071 33.9536C6.53798 33.488 6.0674 32.704 5.94349 31.7338C5.70382 29.8556 6.31595 28.3127 7.90583 27.1923C9.46903 26.0906 11.2045 25.3895 13.1312 25.5119C14.9423 25.6272 16.6276 26.2389 17.9781 27.5145C18.4868 27.9953 18.8148 28.5961 18.8514 29.3118C18.9297 30.8454 18.858 32.3666 18.4288 33.8547C18.1689 34.7568 17.6916 35.5169 16.9763 36.1468C16.4077 36.6473 15.8829 37.1966 15.3387 37.7242C15.3628 37.7749 15.387 37.8256 15.4112 37.8765Z" fill="white"/>
<path fill-rule="evenodd" clip-rule="evenodd" d="M20.8795 38.0647C21.5973 38.1387 22.3136 38.2298 23.0331 38.2802C23.5077 38.3133 23.9866 38.2832 24.4636 38.289C28.0125 38.3315 31.5612 38.3758 35.1098 38.4191C35.2554 38.4209 35.4012 38.417 35.5468 38.4159C35.7724 38.4137 35.8486 38.3075 35.8098 38.0882C35.7712 37.8706 35.7356 37.6482 35.7388 37.4284C35.7479 36.7945 36.1345 36.3118 36.7001 36.1975C37.2691 36.0826 37.8239 36.364 38.0838 36.9426C38.2279 37.2629 38.2836 37.6222 38.432 37.9398C38.4999 38.0851 38.6877 38.2601 38.834 38.2723C40.0631 38.3758 41.2081 37.95 42.3772 37.6782C42.4128 37.6699 42.4424 37.6363 42.5036 37.595C42.0995 37.022 41.8576 36.4181 42.3763 35.8332C42.9851 35.147 43.7044 35.3863 44.3837 35.7459C44.6801 35.126 44.5489 34.519 44.0028 34.2543C42.7851 33.6642 41.5089 33.2488 40.1373 33.1615C39.6635 33.1313 39.1826 33.0811 38.7248 32.9646C36.6192 32.4284 34.4665 32.3038 32.3099 32.2354C30.0161 32.1627 27.7321 32.341 25.4532 32.5895C25.1163 32.6263 24.9107 32.7604 24.8247 33.0796C24.4594 34.4359 23.6274 35.5168 22.6784 36.5123C22.3027 36.9063 21.8297 37.2114 21.3941 37.5484C21.2219 37.6814 21.0312 37.7903 20.8489 37.9103C20.8589 37.9616 20.8691 38.0132 20.8795 38.0647ZM39.8297 36.1185C39.1645 36.1133 38.6202 35.5684 38.6224 34.9102C38.625 34.2364 39.1921 33.6964 39.88 33.7128C40.5362 33.7281 41.0664 34.2561 41.0681 34.8958C41.0701 35.5707 40.5098 36.1237 39.8297 36.1185Z" fill="white"/>
<path fill-rule="evenodd" clip-rule="evenodd" d="M39.8296 36.1185C40.5096 36.1237 41.0699 35.5705 41.0681 34.8958C41.0664 34.2561 40.5362 33.7281 39.88 33.7128C39.1921 33.6964 38.625 34.2366 38.6224 34.9102C38.62 35.5684 39.1644 36.1133 39.8296 36.1185Z" fill="#736262"/>
</g>
<defs>
<clipPath id="clip0_1156_1266">
<rect width="600" height="20" fill="white" transform="translate(0 29)"/>
</clipPath>
<clipPath id="clip1_1156_1266">
<rect width="57" height="24" fill="white" transform="matrix(-1 0 0 1 57 17)"/>
</clipPath>
</defs>
</svg>
