<svg width="627" height="57" viewBox="0 0 627 57" fill="none" xmlns="http://www.w3.org/2000/svg">
<rect x="2" y="37" width="589" height="4" fill="#736262"/>
<g clip-path="url(#clip0_1156_1266)">
<circle cx="10" cy="10" r="10" transform="matrix(1 0 0 -1 0 49)" fill="#736262"/>
<circle cx="10" cy="10" r="10" transform="matrix(1 0 0 -1 96.6667 49)" fill="#736262"/>
<circle cx="10" cy="10" r="10" transform="matrix(1 0 0 -1 193.333 49)" fill="#736262"/>
<circle cx="10" cy="10" r="10" transform="matrix(1 0 0 -1 290 49)" fill="#736262"/>
<circle cx="10" cy="10" r="10" transform="matrix(1 0 0 -1 386.667 49)" fill="#736262"/>
<circle cx="10" cy="10" r="10" transform="matrix(1 0 0 -1 483.333 49)" fill="#736262"/>
<circle cx="10" cy="10" r="10" transform="matrix(1 0 0 -1 580 49)" fill="#736262"/>
</g>
<path d="M589.635 2C589.635 4.18432 589.523 5.32246 589.635 7.5C589.828 11.2279 589.39 15.4039 589.054 19.116C588.765 22.3115 588.47 25.5077 588.217 28.7064C588.146 29.6113 588.252 30.5847 588 31.466" stroke="#736262" stroke-width="3" stroke-linecap="round"/>
<path d="M589.593 17.0182L589.194 3.0445C589.17 2.21257 590.113 1.71736 590.785 2.20954L596.635 6.5L602.722 10.1268C603.366 10.5106 603.375 11.4405 602.737 11.8357L597.696 14.9623C597.656 14.9874 597.613 15.0096 597.57 15.0287L590.993 17.9058C590.344 18.19 589.613 17.7268 589.593 17.0182Z" fill="#736262" stroke="#736262" stroke-width="3"/>
<g clip-path="url(#clip1_1156_1266)">
<path fill-rule="evenodd" clip-rule="evenodd" d="M109.819 17.1838C107.707 16.9441 105.851 17.8183 103.939 18.4754C102.518 18.9642 101.378 19.8409 100.243 20.7841C98.9302 21.8759 97.8281 23.1123 96.9041 24.5332C96.3987 25.3101 96.1707 26.1761 95.8586 27.0203C95.2892 28.562 95.012 30.1474 95.0878 31.7868C95.1712 33.5919 95.8637 35.1551 97.0766 36.4977C97.4375 36.8973 97.8077 37.2921 98.2042 37.6568C99.8551 39.1757 101.806 40.0104 104.072 40.104C104.27 40.1123 104.47 40.1204 104.667 40.1054C105.212 40.0636 105.705 40.0665 106.16 40.4989C106.38 40.7082 106.829 40.7717 107.167 40.7567C108.356 40.7041 109.541 40.5705 110.73 40.5026C111.786 40.4424 112.86 40.2958 113.898 40.4193C116.974 40.7855 120.056 40.7761 123.142 40.7843C126.029 40.7919 128.916 40.9308 131.801 40.8877C133.418 40.8634 135.064 40.9147 136.649 40.4414C136.795 40.3977 136.977 40.3841 137.119 40.4286C137.982 40.7007 138.842 40.5626 139.665 40.3335C140.789 40.0208 141.938 39.98 143.08 39.8555C143.672 39.7911 144.267 39.7476 144.86 39.6976C146.416 39.5665 147.973 39.4431 149.528 39.3035C149.988 39.2621 150.453 39.2108 150.901 39.1042C151.583 38.9415 151.971 38.4031 151.908 37.7927C151.845 37.1746 151.318 36.6983 150.611 36.7069C149.978 36.7147 149.345 36.8025 148.712 36.8567C146.734 37.0261 144.757 37.1955 142.779 37.3671C142.529 37.3888 142.279 37.4265 142.029 37.4503C141.807 37.4715 141.696 37.3921 141.772 37.154C141.824 36.992 141.833 36.8056 141.923 36.6703C142.019 36.526 142.171 36.3575 142.327 36.322C144.008 35.9402 145.71 35.7065 147.44 35.6903C147.78 35.6871 148.12 35.5953 148.46 35.5446C149.022 35.4608 149.584 35.377 150.146 35.2935C150.316 35.2682 150.491 35.2604 150.656 35.216C151.302 35.0414 151.704 34.4834 151.636 33.8745C151.569 33.2755 151.084 32.8172 150.419 32.7919C149.985 32.7754 149.531 32.7695 149.115 32.8731C147.871 33.1831 146.595 33.1745 145.336 33.3254C144.378 33.4405 143.423 33.5848 142.472 33.7482C142.122 33.8084 141.921 33.7401 141.726 33.4282C141.073 32.383 140.044 31.8382 138.902 31.4552C137.593 31.0165 136.269 30.6602 134.874 30.6299C134.77 30.6277 134.664 30.6008 134.562 30.5747C131.176 29.7141 127.72 29.6863 124.261 29.7606C123.177 29.7838 122.097 29.9273 121.014 30.0044C120.501 30.0409 120.475 29.9947 120.53 29.4852C120.731 27.6419 120.747 25.8145 120.167 24.0158C119.892 23.1608 119.533 22.3591 119.026 21.6144C116.961 18.5806 113.978 17.2958 110.376 17.184C110.19 17.1788 110.005 17.1838 109.819 17.1838ZM110.411 37.8764C110.387 37.8256 110.363 37.7748 110.339 37.7238C110.883 37.1963 111.408 36.6471 111.976 36.1464C112.692 35.5165 113.169 34.7564 113.429 33.8544C113.858 32.3662 113.93 30.845 113.851 29.3115C113.815 28.5959 113.487 27.9949 112.978 27.5142C111.627 26.2386 109.942 25.6268 108.131 25.5116C106.204 25.3891 104.469 26.0903 102.906 27.192C101.316 28.3124 100.704 29.8551 100.943 31.7335C101.067 32.7037 101.538 33.4876 102.451 33.9532C102.994 34.2305 103.578 34.1426 103.95 33.7484C104.326 33.3508 104.381 32.7706 104.086 32.257C104.021 32.144 103.948 32.0298 103.856 31.939C103.367 31.4571 103.382 30.892 103.566 30.2989C103.743 29.7251 104.161 29.3426 104.669 29.0651C105.189 28.7807 105.718 28.4897 106.278 28.3052C106.688 28.1702 107.155 28.1596 107.595 28.1714C108.12 28.1856 108.665 28.2146 109.163 28.3609C109.787 28.5439 110.396 28.8115 110.961 29.13C111.16 29.2423 111.315 29.6144 111.309 29.8639C111.288 30.775 111.223 31.6883 111.109 32.5927C111.039 33.1477 110.869 33.7055 110.43 34.1087C109.407 35.0495 108.465 36.069 107.24 36.7982C105.604 37.7708 103.939 37.8039 102.205 37.2144C100.969 36.7937 100.028 35.9704 99.1548 35.0306C98.168 33.9696 97.5966 32.7724 97.6256 31.3266C97.6364 30.7798 97.6467 30.2207 97.7654 29.6907C98.0851 28.2648 98.459 26.8606 99.2443 25.5823C100.174 24.0697 101.541 23 102.869 21.8821C103.129 21.6631 103.407 21.439 103.717 21.307C105.883 20.3819 108.041 19.4648 110.506 19.6698C113.002 19.8776 115.16 20.6429 116.711 22.7176C117.546 23.8343 117.963 25.0876 118.079 26.4233C118.246 28.3522 117.943 30.2515 117.469 32.1255C117.16 33.3455 116.451 34.3597 115.487 35.0831C114.23 36.0279 112.82 36.7793 111.455 37.5782C111.153 37.7547 110.761 37.781 110.411 37.8764ZM115.879 38.0647C115.869 38.0133 115.859 37.9617 115.849 37.9102C116.031 37.7902 116.222 37.6813 116.394 37.5483C116.829 37.2113 117.303 36.9062 117.678 36.5122C118.627 35.5167 119.459 34.436 119.825 33.0795C119.911 32.7603 120.116 32.6262 120.453 32.5894C122.732 32.3409 125.016 32.1626 127.31 32.2353C129.466 32.3038 131.619 32.4283 133.725 32.9645C134.183 33.0812 134.664 33.1312 135.137 33.1614C136.509 33.2486 137.785 33.6639 139.003 34.2542C139.549 34.5189 139.68 35.1258 139.384 35.7458C138.704 35.3862 137.985 35.1469 137.376 35.8331C136.858 36.4179 137.099 37.0218 137.504 37.5949C137.442 37.6362 137.413 37.6698 137.377 37.6781C136.208 37.9499 135.063 38.3757 133.834 38.2722C133.688 38.2599 133.5 38.0848 133.432 37.9397C133.284 37.6219 133.228 37.2626 133.084 36.9425C132.824 36.364 132.269 36.0826 131.7 36.1974C131.134 36.3118 130.748 36.7944 130.739 37.4283C130.736 37.6481 130.771 37.8705 130.81 38.0881C130.849 38.3074 130.772 38.4138 130.547 38.4158C130.401 38.4171 130.255 38.4208 130.11 38.419C126.561 38.3757 123.012 38.3314 119.464 38.2889C118.987 38.2833 118.508 38.3133 118.033 38.2801C117.313 38.23 116.597 38.1387 115.879 38.0647Z" fill="#736262"/>
<path fill-rule="evenodd" clip-rule="evenodd" d="M110.411 37.8765C110.761 37.7811 111.153 37.7548 111.455 37.5786C112.82 36.7795 114.23 36.0282 115.488 35.0835C116.451 34.36 117.16 33.3458 117.469 32.1258C117.943 30.2518 118.246 28.3525 118.079 26.4236C117.963 25.088 117.546 23.8345 116.711 22.718C115.16 20.6432 113.002 19.8779 110.506 19.6701C108.041 19.4651 105.883 20.3822 103.717 21.3073C103.407 21.4394 103.129 21.6634 102.869 21.8824C101.541 23.0004 100.174 24.07 99.2444 25.5826C98.4591 26.8609 98.0853 28.2651 97.7655 29.6911C97.6468 30.2211 97.6365 30.7801 97.6257 31.3269C97.5967 32.7728 98.1683 33.9701 99.1549 35.031C100.029 35.9707 100.969 36.7942 102.205 37.2147C103.939 37.8044 105.604 37.7712 107.24 36.7985C108.466 36.0693 109.407 35.0498 110.43 34.1091C110.869 33.7058 111.039 33.1481 111.109 32.5931C111.223 31.6887 111.288 30.7754 111.309 29.8642C111.315 29.6148 111.16 29.2427 110.961 29.1303C110.396 28.8118 109.787 28.5444 109.164 28.3613C108.665 28.2148 108.121 28.1858 107.595 28.1717C107.155 28.16 106.688 28.1704 106.278 28.3055C105.718 28.4901 105.189 28.7812 104.669 29.0655C104.161 29.343 103.743 29.7254 103.566 30.2993C103.382 30.8924 103.367 31.4576 103.856 31.9393C103.948 32.0301 104.021 32.1444 104.086 32.2573C104.381 32.771 104.326 33.3511 103.95 33.7488C103.578 34.143 102.994 34.2308 102.451 33.9536C101.538 33.488 101.067 32.704 100.943 31.7338C100.704 29.8556 101.316 28.3127 102.906 27.1923C104.469 26.0906 106.205 25.3895 108.131 25.5119C109.942 25.6272 111.628 26.2389 112.978 27.5145C113.487 27.9953 113.815 28.5961 113.851 29.3118C113.93 30.8454 113.858 32.3666 113.429 33.8547C113.169 34.7568 112.692 35.5169 111.976 36.1468C111.408 36.6473 110.883 37.1966 110.339 37.7242C110.363 37.7749 110.387 37.8256 110.411 37.8765Z" fill="white"/>
<path fill-rule="evenodd" clip-rule="evenodd" d="M115.879 38.0647C116.597 38.1387 117.314 38.2298 118.033 38.2802C118.508 38.3133 118.987 38.2832 119.464 38.289C123.012 38.3315 126.561 38.3758 130.11 38.4191C130.255 38.4209 130.401 38.417 130.547 38.4159C130.772 38.4137 130.849 38.3075 130.81 38.0882C130.771 37.8706 130.736 37.6482 130.739 37.4284C130.748 36.7945 131.134 36.3118 131.7 36.1975C132.269 36.0826 132.824 36.364 133.084 36.9426C133.228 37.2629 133.284 37.6222 133.432 37.9398C133.5 38.0851 133.688 38.2601 133.834 38.2723C135.063 38.3758 136.208 37.95 137.377 37.6782C137.413 37.6699 137.442 37.6363 137.504 37.595C137.099 37.022 136.858 36.4181 137.376 35.8332C137.985 35.147 138.704 35.3863 139.384 35.7459C139.68 35.126 139.549 34.519 139.003 34.2543C137.785 33.6642 136.509 33.2488 135.137 33.1615C134.664 33.1313 134.183 33.0811 133.725 32.9646C131.619 32.4284 129.466 32.3038 127.31 32.2354C125.016 32.1627 122.732 32.341 120.453 32.5895C120.116 32.6263 119.911 32.7604 119.825 33.0796C119.459 34.4359 118.627 35.5168 117.678 36.5123C117.303 36.9063 116.83 37.2114 116.394 37.5484C116.222 37.6814 116.031 37.7903 115.849 37.9103C115.859 37.9616 115.869 38.0132 115.879 38.0647ZM134.83 36.1185C134.165 36.1133 133.62 35.5684 133.622 34.9102C133.625 34.2364 134.192 33.6964 134.88 33.7128C135.536 33.7281 136.066 34.2561 136.068 34.8958C136.07 35.5707 135.51 36.1237 134.83 36.1185Z" fill="white"/>
<path fill-rule="evenodd" clip-rule="evenodd" d="M134.83 36.1185C135.51 36.1237 136.07 35.5705 136.068 34.8958C136.066 34.2561 135.536 33.7281 134.88 33.7128C134.192 33.6964 133.625 34.2366 133.622 34.9102C133.62 35.5684 134.164 36.1133 134.83 36.1185Z" fill="#736262"/>
</g>
<defs>
<clipPath id="clip0_1156_1266">
<rect width="600" height="20" fill="white" transform="translate(0 29)"/>
</clipPath>
<clipPath id="clip1_1156_1266">
<rect width="57" height="24" fill="white" transform="matrix(-1 0 0 1 152 17)"/>
</clipPath>
</defs>
</svg>
