<svg width="627" height="57" viewBox="0 0 627 57" fill="none" xmlns="http://www.w3.org/2000/svg">
<rect x="2" y="37" width="589" height="4" fill="#736262"/>
<g clip-path="url(#clip0_1156_1266)">
<circle cx="10" cy="10" r="10" transform="matrix(1 0 0 -1 0 49)" fill="#736262"/>
<circle cx="10" cy="10" r="10" transform="matrix(1 0 0 -1 96.6667 49)" fill="#736262"/>
<circle cx="10" cy="10" r="10" transform="matrix(1 0 0 -1 193.333 49)" fill="#736262"/>
<circle cx="10" cy="10" r="10" transform="matrix(1 0 0 -1 290 49)" fill="#736262"/>
<circle cx="10" cy="10" r="10" transform="matrix(1 0 0 -1 386.667 49)" fill="#736262"/>
<circle cx="10" cy="10" r="10" transform="matrix(1 0 0 -1 483.333 49)" fill="#736262"/>
<circle cx="10" cy="10" r="10" transform="matrix(1 0 0 -1 580 49)" fill="#736262"/>
</g>
<path d="M589.635 2C589.635 4.18432 589.523 5.32246 589.635 7.5C589.828 11.2279 589.39 15.4039 589.054 19.116C588.765 22.3115 588.47 25.5077 588.217 28.7064C588.146 29.6113 588.252 30.5847 588 31.466" stroke="#736262" stroke-width="3" stroke-linecap="round"/>
<path d="M589.593 17.0182L589.194 3.0445C589.17 2.21257 590.113 1.71736 590.785 2.20954L596.635 6.5L602.722 10.1268C603.366 10.5106 603.375 11.4405 602.737 11.8357L597.696 14.9623C597.656 14.9874 597.613 15.0096 597.57 15.0287L590.993 17.9058C590.344 18.19 589.613 17.7268 589.593 17.0182Z" fill="#736262" stroke="#736262" stroke-width="3"/>
<g clip-path="url(#clip1_1156_1266)">
<path fill-rule="evenodd" clip-rule="evenodd" d="M204.819 17.1838C202.707 16.9441 200.851 17.8183 198.939 18.4754C197.518 18.9642 196.378 19.8409 195.243 20.7841C193.93 21.8759 192.828 23.1123 191.904 24.5332C191.399 25.3101 191.171 26.1761 190.859 27.0203C190.289 28.562 190.012 30.1474 190.088 31.7868C190.171 33.5919 190.864 35.1551 192.077 36.4977C192.438 36.8973 192.808 37.2921 193.204 37.6568C194.855 39.1757 196.806 40.0104 199.072 40.104C199.27 40.1123 199.47 40.1204 199.667 40.1054C200.212 40.0636 200.705 40.0665 201.16 40.4989C201.38 40.7082 201.829 40.7717 202.167 40.7567C203.356 40.7041 204.541 40.5705 205.73 40.5026C206.786 40.4424 207.86 40.2958 208.898 40.4193C211.974 40.7855 215.056 40.7761 218.142 40.7843C221.029 40.7919 223.916 40.9308 226.801 40.8877C228.418 40.8634 230.064 40.9147 231.649 40.4414C231.795 40.3977 231.977 40.3841 232.119 40.4286C232.982 40.7007 233.842 40.5626 234.665 40.3335C235.789 40.0208 236.938 39.98 238.08 39.8555C238.672 39.7911 239.267 39.7476 239.86 39.6976C241.416 39.5665 242.973 39.4431 244.528 39.3035C244.988 39.2621 245.453 39.2108 245.901 39.1042C246.583 38.9415 246.971 38.4031 246.908 37.7927C246.845 37.1746 246.318 36.6983 245.611 36.7069C244.978 36.7147 244.345 36.8025 243.712 36.8567C241.734 37.0261 239.757 37.1955 237.779 37.3671C237.529 37.3888 237.279 37.4265 237.029 37.4503C236.807 37.4715 236.696 37.3921 236.772 37.154C236.824 36.992 236.833 36.8056 236.923 36.6703C237.019 36.526 237.171 36.3575 237.327 36.322C239.008 35.9402 240.71 35.7065 242.44 35.6903C242.78 35.6871 243.12 35.5953 243.46 35.5446C244.022 35.4608 244.584 35.377 245.146 35.2935C245.316 35.2682 245.491 35.2604 245.656 35.216C246.302 35.0414 246.704 34.4834 246.636 33.8745C246.569 33.2755 246.084 32.8172 245.419 32.7919C244.985 32.7754 244.531 32.7695 244.115 32.8731C242.871 33.1831 241.595 33.1745 240.336 33.3254C239.378 33.4405 238.423 33.5848 237.472 33.7482C237.122 33.8084 236.921 33.7401 236.726 33.4282C236.073 32.383 235.044 31.8382 233.902 31.4552C232.593 31.0165 231.269 30.6602 229.874 30.6299C229.77 30.6277 229.664 30.6008 229.562 30.5747C226.176 29.7141 222.72 29.6863 219.261 29.7606C218.177 29.7838 217.097 29.9273 216.014 30.0044C215.501 30.0409 215.475 29.9947 215.53 29.4852C215.731 27.6419 215.747 25.8145 215.167 24.0158C214.892 23.1608 214.533 22.3591 214.026 21.6144C211.961 18.5806 208.978 17.2958 205.376 17.184C205.19 17.1788 205.005 17.1838 204.819 17.1838ZM205.411 37.8764C205.387 37.8256 205.363 37.7748 205.339 37.7238C205.883 37.1963 206.408 36.6471 206.976 36.1464C207.692 35.5165 208.169 34.7564 208.429 33.8544C208.858 32.3662 208.93 30.845 208.851 29.3115C208.815 28.5959 208.487 27.9949 207.978 27.5142C206.627 26.2386 204.942 25.6268 203.131 25.5116C201.204 25.3891 199.469 26.0903 197.906 27.192C196.316 28.3124 195.704 29.8551 195.943 31.7335C196.067 32.7037 196.538 33.4876 197.451 33.9532C197.994 34.2305 198.578 34.1426 198.95 33.7484C199.326 33.3508 199.381 32.7706 199.086 32.257C199.021 32.144 198.948 32.0298 198.856 31.939C198.367 31.4571 198.382 30.892 198.566 30.2989C198.743 29.7251 199.161 29.3426 199.669 29.0651C200.189 28.7807 200.718 28.4897 201.278 28.3052C201.688 28.1702 202.155 28.1596 202.595 28.1714C203.12 28.1856 203.665 28.2146 204.163 28.3609C204.787 28.5439 205.396 28.8115 205.961 29.13C206.16 29.2423 206.315 29.6144 206.309 29.8639C206.288 30.775 206.223 31.6883 206.109 32.5927C206.039 33.1477 205.869 33.7055 205.43 34.1087C204.407 35.0495 203.465 36.069 202.24 36.7982C200.604 37.7708 198.939 37.8039 197.205 37.2144C195.969 36.7937 195.028 35.9704 194.155 35.0306C193.168 33.9696 192.597 32.7724 192.626 31.3266C192.636 30.7798 192.647 30.2207 192.765 29.6907C193.085 28.2648 193.459 26.8606 194.244 25.5823C195.174 24.0697 196.541 23 197.869 21.8821C198.129 21.6631 198.407 21.439 198.717 21.307C200.883 20.3819 203.041 19.4648 205.506 19.6698C208.002 19.8776 210.16 20.6429 211.711 22.7176C212.546 23.8343 212.963 25.0876 213.079 26.4233C213.246 28.3522 212.943 30.2515 212.469 32.1255C212.16 33.3455 211.451 34.3597 210.487 35.0831C209.23 36.0279 207.82 36.7793 206.455 37.5782C206.153 37.7547 205.761 37.781 205.411 37.8764ZM210.879 38.0647C210.869 38.0133 210.859 37.9617 210.849 37.9102C211.031 37.7902 211.222 37.6813 211.394 37.5483C211.829 37.2113 212.303 36.9062 212.678 36.5122C213.627 35.5167 214.459 34.436 214.825 33.0795C214.911 32.7603 215.116 32.6262 215.453 32.5894C217.732 32.3409 220.016 32.1626 222.31 32.2353C224.466 32.3038 226.619 32.4283 228.725 32.9645C229.183 33.0812 229.664 33.1312 230.137 33.1614C231.509 33.2486 232.785 33.6639 234.003 34.2542C234.549 34.5189 234.68 35.1258 234.384 35.7458C233.704 35.3862 232.985 35.1469 232.376 35.8331C231.858 36.4179 232.099 37.0218 232.504 37.5949C232.442 37.6362 232.413 37.6698 232.377 37.6781C231.208 37.9499 230.063 38.3757 228.834 38.2722C228.688 38.2599 228.5 38.0848 228.432 37.9397C228.284 37.6219 228.228 37.2626 228.084 36.9425C227.824 36.364 227.269 36.0826 226.7 36.1974C226.134 36.3118 225.748 36.7944 225.739 37.4283C225.736 37.6481 225.771 37.8705 225.81 38.0881C225.849 38.3074 225.772 38.4138 225.547 38.4158C225.401 38.4171 225.255 38.4208 225.11 38.419C221.561 38.3757 218.012 38.3314 214.464 38.2889C213.987 38.2833 213.508 38.3133 213.033 38.2801C212.313 38.23 211.597 38.1387 210.879 38.0647Z" fill="#736262"/>
<path fill-rule="evenodd" clip-rule="evenodd" d="M205.411 37.8765C205.761 37.7811 206.153 37.7548 206.455 37.5786C207.82 36.7795 209.23 36.0282 210.488 35.0835C211.451 34.36 212.16 33.3458 212.469 32.1258C212.943 30.2518 213.246 28.3525 213.079 26.4236C212.963 25.088 212.546 23.8345 211.711 22.718C210.16 20.6432 208.002 19.8779 205.506 19.6701C203.041 19.4651 200.883 20.3822 198.717 21.3073C198.407 21.4394 198.129 21.6634 197.869 21.8824C196.541 23.0004 195.174 24.07 194.244 25.5826C193.459 26.8609 193.085 28.2651 192.765 29.6911C192.647 30.2211 192.636 30.7801 192.626 31.3269C192.597 32.7728 193.168 33.9701 194.155 35.031C195.029 35.9707 195.969 36.7942 197.205 37.2147C198.939 37.8044 200.604 37.7712 202.24 36.7985C203.466 36.0693 204.407 35.0498 205.43 34.1091C205.869 33.7058 206.039 33.1481 206.109 32.5931C206.223 31.6887 206.288 30.7754 206.309 29.8642C206.315 29.6148 206.16 29.2427 205.961 29.1303C205.396 28.8118 204.787 28.5444 204.164 28.3613C203.665 28.2148 203.121 28.1858 202.595 28.1717C202.155 28.16 201.688 28.1704 201.278 28.3055C200.718 28.4901 200.189 28.7812 199.669 29.0655C199.161 29.343 198.743 29.7254 198.566 30.2993C198.382 30.8924 198.367 31.4576 198.856 31.9393C198.948 32.0301 199.021 32.1444 199.086 32.2573C199.381 32.771 199.326 33.3511 198.95 33.7488C198.578 34.143 197.994 34.2308 197.451 33.9536C196.538 33.488 196.067 32.704 195.943 31.7338C195.704 29.8556 196.316 28.3127 197.906 27.1923C199.469 26.0906 201.205 25.3895 203.131 25.5119C204.942 25.6272 206.628 26.2389 207.978 27.5145C208.487 27.9953 208.815 28.5961 208.851 29.3118C208.93 30.8454 208.858 32.3666 208.429 33.8547C208.169 34.7568 207.692 35.5169 206.976 36.1468C206.408 36.6473 205.883 37.1966 205.339 37.7242C205.363 37.7749 205.387 37.8256 205.411 37.8765Z" fill="white"/>
<path fill-rule="evenodd" clip-rule="evenodd" d="M210.879 38.0647C211.597 38.1387 212.314 38.2298 213.033 38.2802C213.508 38.3133 213.987 38.2832 214.464 38.289C218.012 38.3315 221.561 38.3758 225.11 38.4191C225.255 38.4209 225.401 38.417 225.547 38.4159C225.772 38.4137 225.849 38.3075 225.81 38.0882C225.771 37.8706 225.736 37.6482 225.739 37.4284C225.748 36.7945 226.134 36.3118 226.7 36.1975C227.269 36.0826 227.824 36.364 228.084 36.9426C228.228 37.2629 228.284 37.6222 228.432 37.9398C228.5 38.0851 228.688 38.2601 228.834 38.2723C230.063 38.3758 231.208 37.95 232.377 37.6782C232.413 37.6699 232.442 37.6363 232.504 37.595C232.099 37.022 231.858 36.4181 232.376 35.8332C232.985 35.147 233.704 35.3863 234.384 35.7459C234.68 35.126 234.549 34.519 234.003 34.2543C232.785 33.6642 231.509 33.2488 230.137 33.1615C229.664 33.1313 229.183 33.0811 228.725 32.9646C226.619 32.4284 224.466 32.3038 222.31 32.2354C220.016 32.1627 217.732 32.341 215.453 32.5895C215.116 32.6263 214.911 32.7604 214.825 33.0796C214.459 34.4359 213.627 35.5168 212.678 36.5123C212.303 36.9063 211.83 37.2114 211.394 37.5484C211.222 37.6814 211.031 37.7903 210.849 37.9103C210.859 37.9616 210.869 38.0132 210.879 38.0647ZM229.83 36.1185C229.165 36.1133 228.62 35.5684 228.622 34.9102C228.625 34.2364 229.192 33.6964 229.88 33.7128C230.536 33.7281 231.066 34.2561 231.068 34.8958C231.07 35.5707 230.51 36.1237 229.83 36.1185Z" fill="white"/>
<path fill-rule="evenodd" clip-rule="evenodd" d="M229.83 36.1185C230.51 36.1237 231.07 35.5705 231.068 34.8958C231.066 34.2561 230.536 33.7281 229.88 33.7128C229.192 33.6964 228.625 34.2366 228.622 34.9102C228.62 35.5684 229.164 36.1133 229.83 36.1185Z" fill="#736262"/>
</g>
<defs>
<clipPath id="clip0_1156_1266">
<rect width="600" height="20" fill="white" transform="translate(0 29)"/>
</clipPath>
<clipPath id="clip1_1156_1266">
<rect width="57" height="24" fill="white" transform="matrix(-1 0 0 1 247 17)"/>
</clipPath>
</defs>
</svg>
