<svg width="627" height="57" viewBox="0 0 627 57" fill="none" xmlns="http://www.w3.org/2000/svg">
<rect x="2" y="37" width="589" height="4" fill="#736262"/>
<g clip-path="url(#clip0_1156_1266)">
<circle cx="10" cy="10" r="10" transform="matrix(1 0 0 -1 0 49)" fill="#736262"/>
<circle cx="10" cy="10" r="10" transform="matrix(1 0 0 -1 96.6667 49)" fill="#736262"/>
<circle cx="10" cy="10" r="10" transform="matrix(1 0 0 -1 193.333 49)" fill="#736262"/>
<circle cx="10" cy="10" r="10" transform="matrix(1 0 0 -1 290 49)" fill="#736262"/>
<circle cx="10" cy="10" r="10" transform="matrix(1 0 0 -1 386.667 49)" fill="#736262"/>
<circle cx="10" cy="10" r="10" transform="matrix(1 0 0 -1 483.333 49)" fill="#736262"/>
<circle cx="10" cy="10" r="10" transform="matrix(1 0 0 -1 580 49)" fill="#736262"/>
</g>
<path d="M589.635 2C589.635 4.18432 589.523 5.32246 589.635 7.5C589.828 11.2279 589.39 15.4039 589.054 19.116C588.765 22.3115 588.47 25.5077 588.217 28.7064C588.146 29.6113 588.252 30.5847 588 31.466" stroke="#736262" stroke-width="3" stroke-linecap="round"/>
<path d="M589.593 17.0182L589.194 3.0445C589.17 2.21257 590.113 1.71736 590.785 2.20954L596.635 6.5L602.722 10.1268C603.366 10.5106 603.375 11.4405 602.737 11.8357L597.696 14.9623C597.656 14.9874 597.613 15.0096 597.57 15.0287L590.993 17.9058C590.344 18.19 589.613 17.7268 589.593 17.0182Z" fill="#736262" stroke="#736262" stroke-width="3"/>
<g clip-path="url(#clip1_1156_1266)">
<path fill-rule="evenodd" clip-rule="evenodd" d="M299.819 17.1838C297.707 16.9441 295.851 17.8183 293.939 18.4754C292.518 18.9642 291.378 19.8409 290.243 20.7841C288.93 21.8759 287.828 23.1123 286.904 24.5332C286.399 25.3101 286.171 26.1761 285.859 27.0203C285.289 28.562 285.012 30.1474 285.088 31.7868C285.171 33.5919 285.864 35.1551 287.077 36.4977C287.438 36.8973 287.808 37.2921 288.204 37.6568C289.855 39.1757 291.806 40.0104 294.072 40.104C294.27 40.1123 294.47 40.1204 294.667 40.1054C295.212 40.0636 295.705 40.0665 296.16 40.4989C296.38 40.7082 296.829 40.7717 297.167 40.7567C298.356 40.7041 299.541 40.5705 300.73 40.5026C301.786 40.4424 302.86 40.2958 303.898 40.4193C306.974 40.7855 310.056 40.7761 313.142 40.7843C316.029 40.7919 318.916 40.9308 321.801 40.8877C323.418 40.8634 325.064 40.9147 326.649 40.4414C326.795 40.3977 326.977 40.3841 327.119 40.4286C327.982 40.7007 328.842 40.5626 329.665 40.3335C330.789 40.0208 331.938 39.98 333.08 39.8555C333.672 39.7911 334.267 39.7476 334.86 39.6976C336.416 39.5665 337.973 39.4431 339.528 39.3035C339.988 39.2621 340.453 39.2108 340.901 39.1042C341.583 38.9415 341.971 38.4031 341.908 37.7927C341.845 37.1746 341.318 36.6983 340.611 36.7069C339.978 36.7147 339.345 36.8025 338.712 36.8567C336.734 37.0261 334.757 37.1955 332.779 37.3671C332.529 37.3888 332.279 37.4265 332.029 37.4503C331.807 37.4715 331.696 37.3921 331.772 37.154C331.824 36.992 331.833 36.8056 331.923 36.6703C332.019 36.526 332.171 36.3575 332.327 36.322C334.008 35.9402 335.71 35.7065 337.44 35.6903C337.78 35.6871 338.12 35.5953 338.46 35.5446C339.022 35.4608 339.584 35.377 340.146 35.2935C340.316 35.2682 340.491 35.2604 340.656 35.216C341.302 35.0414 341.704 34.4834 341.636 33.8745C341.569 33.2755 341.084 32.8172 340.419 32.7919C339.985 32.7754 339.531 32.7695 339.115 32.8731C337.871 33.1831 336.595 33.1745 335.336 33.3254C334.378 33.4405 333.423 33.5848 332.472 33.7482C332.122 33.8084 331.921 33.7401 331.726 33.4282C331.073 32.383 330.044 31.8382 328.902 31.4552C327.593 31.0165 326.269 30.6602 324.874 30.6299C324.77 30.6277 324.664 30.6008 324.562 30.5747C321.176 29.7141 317.72 29.6863 314.261 29.7606C313.177 29.7838 312.097 29.9273 311.014 30.0044C310.501 30.0409 310.475 29.9947 310.53 29.4852C310.731 27.6419 310.747 25.8145 310.167 24.0158C309.892 23.1608 309.533 22.3591 309.026 21.6144C306.961 18.5806 303.978 17.2958 300.376 17.184C300.19 17.1788 300.005 17.1838 299.819 17.1838ZM300.411 37.8764C300.387 37.8256 300.363 37.7748 300.339 37.7238C300.883 37.1963 301.408 36.6471 301.976 36.1464C302.692 35.5165 303.169 34.7564 303.429 33.8544C303.858 32.3662 303.93 30.845 303.851 29.3115C303.815 28.5959 303.487 27.9949 302.978 27.5142C301.627 26.2386 299.942 25.6268 298.131 25.5116C296.204 25.3891 294.469 26.0903 292.906 27.192C291.316 28.3124 290.704 29.8551 290.943 31.7335C291.067 32.7037 291.538 33.4876 292.451 33.9532C292.994 34.2305 293.578 34.1426 293.95 33.7484C294.326 33.3508 294.381 32.7706 294.086 32.257C294.021 32.144 293.948 32.0298 293.856 31.939C293.367 31.4571 293.382 30.892 293.566 30.2989C293.743 29.7251 294.161 29.3426 294.669 29.0651C295.189 28.7807 295.718 28.4897 296.278 28.3052C296.688 28.1702 297.155 28.1596 297.595 28.1714C298.12 28.1856 298.665 28.2146 299.163 28.3609C299.787 28.5439 300.396 28.8115 300.961 29.13C301.16 29.2423 301.315 29.6144 301.309 29.8639C301.288 30.775 301.223 31.6883 301.109 32.5927C301.039 33.1477 300.869 33.7055 300.43 34.1087C299.407 35.0495 298.465 36.069 297.24 36.7982C295.604 37.7708 293.939 37.8039 292.205 37.2144C290.969 36.7937 290.028 35.9704 289.155 35.0306C288.168 33.9696 287.597 32.7724 287.626 31.3266C287.636 30.7798 287.647 30.2207 287.765 29.6907C288.085 28.2648 288.459 26.8606 289.244 25.5823C290.174 24.0697 291.541 23 292.869 21.8821C293.129 21.6631 293.407 21.439 293.717 21.307C295.883 20.3819 298.041 19.4648 300.506 19.6698C303.002 19.8776 305.16 20.6429 306.711 22.7176C307.546 23.8343 307.963 25.0876 308.079 26.4233C308.246 28.3522 307.943 30.2515 307.469 32.1255C307.16 33.3455 306.451 34.3597 305.487 35.0831C304.23 36.0279 302.82 36.7793 301.455 37.5782C301.153 37.7547 300.761 37.781 300.411 37.8764ZM305.879 38.0647C305.869 38.0133 305.859 37.9617 305.849 37.9102C306.031 37.7902 306.222 37.6813 306.394 37.5483C306.829 37.2113 307.303 36.9062 307.678 36.5122C308.627 35.5167 309.459 34.436 309.825 33.0795C309.911 32.7603 310.116 32.6262 310.453 32.5894C312.732 32.3409 315.016 32.1626 317.31 32.2353C319.466 32.3038 321.619 32.4283 323.725 32.9645C324.183 33.0812 324.664 33.1312 325.137 33.1614C326.509 33.2486 327.785 33.6639 329.003 34.2542C329.549 34.5189 329.68 35.1258 329.384 35.7458C328.704 35.3862 327.985 35.1469 327.376 35.8331C326.858 36.4179 327.099 37.0218 327.504 37.5949C327.442 37.6362 327.413 37.6698 327.377 37.6781C326.208 37.9499 325.063 38.3757 323.834 38.2722C323.688 38.2599 323.5 38.0848 323.432 37.9397C323.284 37.6219 323.228 37.2626 323.084 36.9425C322.824 36.364 322.269 36.0826 321.7 36.1974C321.134 36.3118 320.748 36.7944 320.739 37.4283C320.736 37.6481 320.771 37.8705 320.81 38.0881C320.849 38.3074 320.772 38.4138 320.547 38.4158C320.401 38.4171 320.255 38.4208 320.11 38.419C316.561 38.3757 313.012 38.3314 309.464 38.2889C308.987 38.2833 308.508 38.3133 308.033 38.2801C307.313 38.23 306.597 38.1387 305.879 38.0647Z" fill="#736262"/>
<path fill-rule="evenodd" clip-rule="evenodd" d="M300.411 37.8765C300.761 37.7811 301.153 37.7548 301.455 37.5786C302.82 36.7795 304.23 36.0282 305.488 35.0835C306.451 34.36 307.16 33.3458 307.469 32.1258C307.943 30.2518 308.246 28.3525 308.079 26.4236C307.963 25.088 307.546 23.8345 306.711 22.718C305.16 20.6432 303.002 19.8779 300.506 19.6701C298.041 19.4651 295.883 20.3822 293.717 21.3073C293.407 21.4394 293.129 21.6634 292.869 21.8824C291.541 23.0004 290.174 24.07 289.244 25.5826C288.459 26.8609 288.085 28.2651 287.765 29.6911C287.647 30.2211 287.636 30.7801 287.626 31.3269C287.597 32.7728 288.168 33.9701 289.155 35.031C290.029 35.9707 290.969 36.7942 292.205 37.2147C293.939 37.8044 295.604 37.7712 297.24 36.7985C298.466 36.0693 299.407 35.0498 300.43 34.1091C300.869 33.7058 301.039 33.1481 301.109 32.5931C301.223 31.6887 301.288 30.7754 301.309 29.8642C301.315 29.6148 301.16 29.2427 300.961 29.1303C300.396 28.8118 299.787 28.5444 299.164 28.3613C298.665 28.2148 298.121 28.1858 297.595 28.1717C297.155 28.16 296.688 28.1704 296.278 28.3055C295.718 28.4901 295.189 28.7812 294.669 29.0655C294.161 29.343 293.743 29.7254 293.566 30.2993C293.382 30.8924 293.367 31.4576 293.856 31.9393C293.948 32.0301 294.021 32.1444 294.086 32.2573C294.381 32.771 294.326 33.3511 293.95 33.7488C293.578 34.143 292.994 34.2308 292.451 33.9536C291.538 33.488 291.067 32.704 290.943 31.7338C290.704 29.8556 291.316 28.3127 292.906 27.1923C294.469 26.0906 296.205 25.3895 298.131 25.5119C299.942 25.6272 301.628 26.2389 302.978 27.5145C303.487 27.9953 303.815 28.5961 303.851 29.3118C303.93 30.8454 303.858 32.3666 303.429 33.8547C303.169 34.7568 302.692 35.5169 301.976 36.1468C301.408 36.6473 300.883 37.1966 300.339 37.7242C300.363 37.7749 300.387 37.8256 300.411 37.8765Z" fill="white"/>
<path fill-rule="evenodd" clip-rule="evenodd" d="M305.879 38.0647C306.597 38.1387 307.314 38.2298 308.033 38.2802C308.508 38.3133 308.987 38.2832 309.464 38.289C313.012 38.3315 316.561 38.3758 320.11 38.4191C320.255 38.4209 320.401 38.417 320.547 38.4159C320.772 38.4137 320.849 38.3075 320.81 38.0882C320.771 37.8706 320.736 37.6482 320.739 37.4284C320.748 36.7945 321.134 36.3118 321.7 36.1975C322.269 36.0826 322.824 36.364 323.084 36.9426C323.228 37.2629 323.284 37.6222 323.432 37.9398C323.5 38.0851 323.688 38.2601 323.834 38.2723C325.063 38.3758 326.208 37.95 327.377 37.6782C327.413 37.6699 327.442 37.6363 327.504 37.595C327.099 37.022 326.858 36.4181 327.376 35.8332C327.985 35.147 328.704 35.3863 329.384 35.7459C329.68 35.126 329.549 34.519 329.003 34.2543C327.785 33.6642 326.509 33.2488 325.137 33.1615C324.664 33.1313 324.183 33.0811 323.725 32.9646C321.619 32.4284 319.466 32.3038 317.31 32.2354C315.016 32.1627 312.732 32.341 310.453 32.5895C310.116 32.6263 309.911 32.7604 309.825 33.0796C309.459 34.4359 308.627 35.5168 307.678 36.5123C307.303 36.9063 306.83 37.2114 306.394 37.5484C306.222 37.6814 306.031 37.7903 305.849 37.9103C305.859 37.9616 305.869 38.0132 305.879 38.0647ZM324.83 36.1185C324.165 36.1133 323.62 35.5684 323.622 34.9102C323.625 34.2364 324.192 33.6964 324.88 33.7128C325.536 33.7281 326.066 34.2561 326.068 34.8958C326.07 35.5707 325.51 36.1237 324.83 36.1185Z" fill="white"/>
<path fill-rule="evenodd" clip-rule="evenodd" d="M324.83 36.1185C325.51 36.1237 326.07 35.5705 326.068 34.8958C326.066 34.2561 325.536 33.7281 324.88 33.7128C324.192 33.6964 323.625 34.2366 323.622 34.9102C323.62 35.5684 324.164 36.1133 324.83 36.1185Z" fill="#736262"/>
</g>
<defs>
<clipPath id="clip0_1156_1266">
<rect width="600" height="20" fill="white" transform="translate(0 29)"/>
</clipPath>
<clipPath id="clip1_1156_1266">
<rect width="57" height="24" fill="white" transform="matrix(-1 0 0 1 342 17)"/>
</clipPath>
</defs>
</svg>
