<svg width="627" height="57" viewBox="0 0 627 57" fill="none" xmlns="http://www.w3.org/2000/svg">
<rect x="2" y="37" width="589" height="4" fill="#736262"/>
<g clip-path="url(#clip0_1156_1266)">
<circle cx="10" cy="10" r="10" transform="matrix(1 0 0 -1 0 49)" fill="#736262"/>
<circle cx="10" cy="10" r="10" transform="matrix(1 0 0 -1 96.6667 49)" fill="#736262"/>
<circle cx="10" cy="10" r="10" transform="matrix(1 0 0 -1 193.333 49)" fill="#736262"/>
<circle cx="10" cy="10" r="10" transform="matrix(1 0 0 -1 290 49)" fill="#736262"/>
<circle cx="10" cy="10" r="10" transform="matrix(1 0 0 -1 386.667 49)" fill="#736262"/>
<circle cx="10" cy="10" r="10" transform="matrix(1 0 0 -1 483.333 49)" fill="#736262"/>
<circle cx="10" cy="10" r="10" transform="matrix(1 0 0 -1 580 49)" fill="#736262"/>
</g>
<path d="M589.635 2C589.635 4.18432 589.523 5.32246 589.635 7.5C589.828 11.2279 589.39 15.4039 589.054 19.116C588.765 22.3115 588.47 25.5077 588.217 28.7064C588.146 29.6113 588.252 30.5847 588 31.466" stroke="#736262" stroke-width="3" stroke-linecap="round"/>
<path d="M589.593 17.0182L589.194 3.0445C589.17 2.21257 590.113 1.71736 590.785 2.20954L596.635 6.5L602.722 10.1268C603.366 10.5106 603.375 11.4405 602.737 11.8357L597.696 14.9623C597.656 14.9874 597.613 15.0096 597.57 15.0287L590.993 17.9058C590.344 18.19 589.613 17.7268 589.593 17.0182Z" fill="#736262" stroke="#736262" stroke-width="3"/>
<g clip-path="url(#clip1_1156_1266)">
<path fill-rule="evenodd" clip-rule="evenodd" d="M394.819 17.1838C392.707 16.9441 390.851 17.8183 388.939 18.4754C387.518 18.9642 386.378 19.8409 385.243 20.7841C383.93 21.8759 382.828 23.1123 381.904 24.5332C381.399 25.3101 381.171 26.1761 380.859 27.0203C380.289 28.562 380.012 30.1474 380.088 31.7868C380.171 33.5919 380.864 35.1551 382.077 36.4977C382.438 36.8973 382.808 37.2921 383.204 37.6568C384.855 39.1757 386.806 40.0104 389.072 40.104C389.27 40.1123 389.47 40.1204 389.667 40.1054C390.212 40.0636 390.705 40.0665 391.16 40.4989C391.38 40.7082 391.829 40.7717 392.167 40.7567C393.356 40.7041 394.541 40.5705 395.73 40.5026C396.786 40.4424 397.86 40.2958 398.898 40.4193C401.974 40.7855 405.056 40.7761 408.142 40.7843C411.029 40.7919 413.916 40.9308 416.801 40.8877C418.418 40.8634 420.064 40.9147 421.649 40.4414C421.795 40.3977 421.977 40.3841 422.119 40.4286C422.982 40.7007 423.842 40.5626 424.665 40.3335C425.789 40.0208 426.938 39.98 428.08 39.8555C428.672 39.7911 429.267 39.7476 429.86 39.6976C431.416 39.5665 432.973 39.4431 434.528 39.3035C434.988 39.2621 435.453 39.2108 435.901 39.1042C436.583 38.9415 436.971 38.4031 436.908 37.7927C436.845 37.1746 436.318 36.6983 435.611 36.7069C434.978 36.7147 434.345 36.8025 433.712 36.8567C431.734 37.0261 429.757 37.1955 427.779 37.3671C427.529 37.3888 427.279 37.4265 427.029 37.4503C426.807 37.4715 426.696 37.3921 426.772 37.154C426.824 36.992 426.833 36.8056 426.923 36.6703C427.019 36.526 427.171 36.3575 427.327 36.322C429.008 35.9402 430.71 35.7065 432.44 35.6903C432.78 35.6871 433.12 35.5953 433.46 35.5446C434.022 35.4608 434.584 35.377 435.146 35.2935C435.316 35.2682 435.491 35.2604 435.656 35.216C436.302 35.0414 436.704 34.4834 436.636 33.8745C436.569 33.2755 436.084 32.8172 435.419 32.7919C434.985 32.7754 434.531 32.7695 434.115 32.8731C432.871 33.1831 431.595 33.1745 430.336 33.3254C429.378 33.4405 428.423 33.5848 427.472 33.7482C427.122 33.8084 426.921 33.7401 426.726 33.4282C426.073 32.383 425.044 31.8382 423.902 31.4552C422.593 31.0165 421.269 30.6602 419.874 30.6299C419.77 30.6277 419.664 30.6008 419.562 30.5747C416.176 29.7141 412.72 29.6863 409.261 29.7606C408.177 29.7838 407.097 29.9273 406.014 30.0044C405.501 30.0409 405.475 29.9947 405.53 29.4852C405.731 27.6419 405.747 25.8145 405.167 24.0158C404.892 23.1608 404.533 22.3591 404.026 21.6144C401.961 18.5806 398.978 17.2958 395.376 17.184C395.19 17.1788 395.005 17.1838 394.819 17.1838ZM395.411 37.8764C395.387 37.8256 395.363 37.7748 395.339 37.7238C395.883 37.1963 396.408 36.6471 396.976 36.1464C397.692 35.5165 398.169 34.7564 398.429 33.8544C398.858 32.3662 398.93 30.845 398.851 29.3115C398.815 28.5959 398.487 27.9949 397.978 27.5142C396.627 26.2386 394.942 25.6268 393.131 25.5116C391.204 25.3891 389.469 26.0903 387.906 27.192C386.316 28.3124 385.704 29.8551 385.943 31.7335C386.067 32.7037 386.538 33.4876 387.451 33.9532C387.994 34.2305 388.578 34.1426 388.95 33.7484C389.326 33.3508 389.381 32.7706 389.086 32.257C389.021 32.144 388.948 32.0298 388.856 31.939C388.367 31.4571 388.382 30.892 388.566 30.2989C388.743 29.7251 389.161 29.3426 389.669 29.0651C390.189 28.7807 390.718 28.4897 391.278 28.3052C391.688 28.1702 392.155 28.1596 392.595 28.1714C393.12 28.1856 393.665 28.2146 394.163 28.3609C394.787 28.5439 395.396 28.8115 395.961 29.13C396.16 29.2423 396.315 29.6144 396.309 29.8639C396.288 30.775 396.223 31.6883 396.109 32.5927C396.039 33.1477 395.869 33.7055 395.43 34.1087C394.407 35.0495 393.465 36.069 392.24 36.7982C390.604 37.7708 388.939 37.8039 387.205 37.2144C385.969 36.7937 385.028 35.9704 384.155 35.0306C383.168 33.9696 382.597 32.7724 382.626 31.3266C382.636 30.7798 382.647 30.2207 382.765 29.6907C383.085 28.2648 383.459 26.8606 384.244 25.5823C385.174 24.0697 386.541 23 387.869 21.8821C388.129 21.6631 388.407 21.439 388.717 21.307C390.883 20.3819 393.041 19.4648 395.506 19.6698C398.002 19.8776 400.16 20.6429 401.711 22.7176C402.546 23.8343 402.963 25.0876 403.079 26.4233C403.246 28.3522 402.943 30.2515 402.469 32.1255C402.16 33.3455 401.451 34.3597 400.487 35.0831C399.23 36.0279 397.82 36.7793 396.455 37.5782C396.153 37.7547 395.761 37.781 395.411 37.8764ZM400.879 38.0647C400.869 38.0133 400.859 37.9617 400.849 37.9102C401.031 37.7902 401.222 37.6813 401.394 37.5483C401.829 37.2113 402.303 36.9062 402.678 36.5122C403.627 35.5167 404.459 34.436 404.825 33.0795C404.911 32.7603 405.116 32.6262 405.453 32.5894C407.732 32.3409 410.016 32.1626 412.31 32.2353C414.466 32.3038 416.619 32.4283 418.725 32.9645C419.183 33.0812 419.664 33.1312 420.137 33.1614C421.509 33.2486 422.785 33.6639 424.003 34.2542C424.549 34.5189 424.68 35.1258 424.384 35.7458C423.704 35.3862 422.985 35.1469 422.376 35.8331C421.858 36.4179 422.099 37.0218 422.504 37.5949C422.442 37.6362 422.413 37.6698 422.377 37.6781C421.208 37.9499 420.063 38.3757 418.834 38.2722C418.688 38.2599 418.5 38.0848 418.432 37.9397C418.284 37.6219 418.228 37.2626 418.084 36.9425C417.824 36.364 417.269 36.0826 416.7 36.1974C416.134 36.3118 415.748 36.7944 415.739 37.4283C415.736 37.6481 415.771 37.8705 415.81 38.0881C415.849 38.3074 415.772 38.4138 415.547 38.4158C415.401 38.4171 415.255 38.4208 415.11 38.419C411.561 38.3757 408.012 38.3314 404.464 38.2889C403.987 38.2833 403.508 38.3133 403.033 38.2801C402.313 38.23 401.597 38.1387 400.879 38.0647Z" fill="#736262"/>
<path fill-rule="evenodd" clip-rule="evenodd" d="M395.411 37.8765C395.761 37.7811 396.153 37.7548 396.455 37.5786C397.82 36.7795 399.23 36.0282 400.488 35.0835C401.451 34.36 402.16 33.3458 402.469 32.1258C402.943 30.2518 403.246 28.3525 403.079 26.4236C402.963 25.088 402.546 23.8345 401.711 22.718C400.16 20.6432 398.002 19.8779 395.506 19.6701C393.041 19.4651 390.883 20.3822 388.717 21.3073C388.407 21.4394 388.129 21.6634 387.869 21.8824C386.541 23.0004 385.174 24.07 384.244 25.5826C383.459 26.8609 383.085 28.2651 382.765 29.6911C382.647 30.2211 382.636 30.7801 382.626 31.3269C382.597 32.7728 383.168 33.9701 384.155 35.031C385.029 35.9707 385.969 36.7942 387.205 37.2147C388.939 37.8044 390.604 37.7712 392.24 36.7985C393.466 36.0693 394.407 35.0498 395.43 34.1091C395.869 33.7058 396.039 33.1481 396.109 32.5931C396.223 31.6887 396.288 30.7754 396.309 29.8642C396.315 29.6148 396.16 29.2427 395.961 29.1303C395.396 28.8118 394.787 28.5444 394.164 28.3613C393.665 28.2148 393.121 28.1858 392.595 28.1717C392.155 28.16 391.688 28.1704 391.278 28.3055C390.718 28.4901 390.189 28.7812 389.669 29.0655C389.161 29.343 388.743 29.7254 388.566 30.2993C388.382 30.8924 388.367 31.4576 388.856 31.9393C388.948 32.0301 389.021 32.1444 389.086 32.2573C389.381 32.771 389.326 33.3511 388.95 33.7488C388.578 34.143 387.994 34.2308 387.451 33.9536C386.538 33.488 386.067 32.704 385.943 31.7338C385.704 29.8556 386.316 28.3127 387.906 27.1923C389.469 26.0906 391.205 25.3895 393.131 25.5119C394.942 25.6272 396.628 26.2389 397.978 27.5145C398.487 27.9953 398.815 28.5961 398.851 29.3118C398.93 30.8454 398.858 32.3666 398.429 33.8547C398.169 34.7568 397.692 35.5169 396.976 36.1468C396.408 36.6473 395.883 37.1966 395.339 37.7242C395.363 37.7749 395.387 37.8256 395.411 37.8765Z" fill="white"/>
<path fill-rule="evenodd" clip-rule="evenodd" d="M400.879 38.0647C401.597 38.1387 402.314 38.2298 403.033 38.2802C403.508 38.3133 403.987 38.2832 404.464 38.289C408.012 38.3315 411.561 38.3758 415.11 38.4191C415.255 38.4209 415.401 38.417 415.547 38.4159C415.772 38.4137 415.849 38.3075 415.81 38.0882C415.771 37.8706 415.736 37.6482 415.739 37.4284C415.748 36.7945 416.134 36.3118 416.7 36.1975C417.269 36.0826 417.824 36.364 418.084 36.9426C418.228 37.2629 418.284 37.6222 418.432 37.9398C418.5 38.0851 418.688 38.2601 418.834 38.2723C420.063 38.3758 421.208 37.95 422.377 37.6782C422.413 37.6699 422.442 37.6363 422.504 37.595C422.099 37.022 421.858 36.4181 422.376 35.8332C422.985 35.147 423.704 35.3863 424.384 35.7459C424.68 35.126 424.549 34.519 424.003 34.2543C422.785 33.6642 421.509 33.2488 420.137 33.1615C419.664 33.1313 419.183 33.0811 418.725 32.9646C416.619 32.4284 414.466 32.3038 412.31 32.2354C410.016 32.1627 407.732 32.341 405.453 32.5895C405.116 32.6263 404.911 32.7604 404.825 33.0796C404.459 34.4359 403.627 35.5168 402.678 36.5123C402.303 36.9063 401.83 37.2114 401.394 37.5484C401.222 37.6814 401.031 37.7903 400.849 37.9103C400.859 37.9616 400.869 38.0132 400.879 38.0647ZM419.83 36.1185C419.165 36.1133 418.62 35.5684 418.622 34.9102C418.625 34.2364 419.192 33.6964 419.88 33.7128C420.536 33.7281 421.066 34.2561 421.068 34.8958C421.07 35.5707 420.51 36.1237 419.83 36.1185Z" fill="white"/>
<path fill-rule="evenodd" clip-rule="evenodd" d="M419.83 36.1185C420.51 36.1237 421.07 35.5705 421.068 34.8958C421.066 34.2561 420.536 33.7281 419.88 33.7128C419.192 33.6964 418.625 34.2366 418.622 34.9102C418.62 35.5684 419.164 36.1133 419.83 36.1185Z" fill="#736262"/>
</g>
<defs>
<clipPath id="clip0_1156_1266">
<rect width="600" height="20" fill="white" transform="translate(0 29)"/>
</clipPath>
<clipPath id="clip1_1156_1266">
<rect width="57" height="24" fill="white" transform="matrix(-1 0 0 1 437 17)"/>
</clipPath>
</defs>
</svg>
