<svg width="627" height="57" viewBox="0 0 627 57" fill="none" xmlns="http://www.w3.org/2000/svg">
<rect x="2" y="37" width="589" height="4" fill="#736262"/>
<g clip-path="url(#clip0_1156_1266)">
<circle cx="10" cy="10" r="10" transform="matrix(1 0 0 -1 0 49)" fill="#736262"/>
<circle cx="10" cy="10" r="10" transform="matrix(1 0 0 -1 96.6667 49)" fill="#736262"/>
<circle cx="10" cy="10" r="10" transform="matrix(1 0 0 -1 193.333 49)" fill="#736262"/>
<circle cx="10" cy="10" r="10" transform="matrix(1 0 0 -1 290 49)" fill="#736262"/>
<circle cx="10" cy="10" r="10" transform="matrix(1 0 0 -1 386.667 49)" fill="#736262"/>
<circle cx="10" cy="10" r="10" transform="matrix(1 0 0 -1 483.333 49)" fill="#736262"/>
<circle cx="10" cy="10" r="10" transform="matrix(1 0 0 -1 580 49)" fill="#736262"/>
</g>
<path d="M589.635 2C589.635 4.18432 589.523 5.32246 589.635 7.5C589.828 11.2279 589.39 15.4039 589.054 19.116C588.765 22.3115 588.47 25.5077 588.217 28.7064C588.146 29.6113 588.252 30.5847 588 31.466" stroke="#736262" stroke-width="3" stroke-linecap="round"/>
<path d="M589.593 17.0182L589.194 3.0445C589.17 2.21257 590.113 1.71736 590.785 2.20954L596.635 6.5L602.722 10.1268C603.366 10.5106 603.375 11.4405 602.737 11.8357L597.696 14.9623C597.656 14.9874 597.613 15.0096 597.57 15.0287L590.993 17.9058C590.344 18.19 589.613 17.7268 589.593 17.0182Z" fill="#736262" stroke="#736262" stroke-width="3"/>
<g clip-path="url(#clip1_1156_1266)">
<path fill-rule="evenodd" clip-rule="evenodd" d="M489.819 17.1838C487.707 16.9441 485.851 17.8183 483.939 18.4754C482.518 18.9642 481.378 19.8409 480.243 20.7841C478.93 21.8759 477.828 23.1123 476.904 24.5332C476.399 25.3101 476.171 26.1761 475.859 27.0203C475.289 28.562 475.012 30.1474 475.088 31.7868C475.171 33.5919 475.864 35.1551 477.077 36.4977C477.438 36.8973 477.808 37.2921 478.204 37.6568C479.855 39.1757 481.806 40.0104 484.072 40.104C484.27 40.1123 484.47 40.1204 484.667 40.1054C485.212 40.0636 485.705 40.0665 486.16 40.4989C486.38 40.7082 486.829 40.7717 487.167 40.7567C488.356 40.7041 489.541 40.5705 490.73 40.5026C491.786 40.4424 492.86 40.2958 493.898 40.4193C496.974 40.7855 500.056 40.7761 503.142 40.7843C506.029 40.7919 508.916 40.9308 511.801 40.8877C513.418 40.8634 515.064 40.9147 516.649 40.4414C516.795 40.3977 516.977 40.3841 517.119 40.4286C517.982 40.7007 518.842 40.5626 519.665 40.3335C520.789 40.0208 521.938 39.98 523.08 39.8555C523.672 39.7911 524.267 39.7476 524.86 39.6976C526.416 39.5665 527.973 39.4431 529.528 39.3035C529.988 39.2621 530.453 39.2108 530.901 39.1042C531.583 38.9415 531.971 38.4031 531.908 37.7927C531.845 37.1746 531.318 36.6983 530.611 36.7069C529.978 36.7147 529.345 36.8025 528.712 36.8567C526.734 37.0261 524.757 37.1955 522.779 37.3671C522.529 37.3888 522.279 37.4265 522.029 37.4503C521.807 37.4715 521.696 37.3921 521.772 37.154C521.824 36.992 521.833 36.8056 521.923 36.6703C522.019 36.526 522.171 36.3575 522.327 36.322C524.008 35.9402 525.71 35.7065 527.44 35.6903C527.78 35.6871 528.12 35.5953 528.46 35.5446C529.022 35.4608 529.584 35.377 530.146 35.2935C530.316 35.2682 530.491 35.2604 530.656 35.216C531.302 35.0414 531.704 34.4834 531.636 33.8745C531.569 33.2755 531.084 32.8172 530.419 32.7919C529.985 32.7754 529.531 32.7695 529.115 32.8731C527.871 33.1831 526.595 33.1745 525.336 33.3254C524.378 33.4405 523.423 33.5848 522.472 33.7482C522.122 33.8084 521.921 33.7401 521.726 33.4282C521.073 32.383 520.044 31.8382 518.902 31.4552C517.593 31.0165 516.269 30.6602 514.874 30.6299C514.77 30.6277 514.664 30.6008 514.562 30.5747C511.176 29.7141 507.72 29.6863 504.261 29.7606C503.177 29.7838 502.097 29.9273 501.014 30.0044C500.501 30.0409 500.475 29.9947 500.53 29.4852C500.731 27.6419 500.747 25.8145 500.167 24.0158C499.892 23.1608 499.533 22.3591 499.026 21.6144C496.961 18.5806 493.978 17.2958 490.376 17.184C490.19 17.1788 490.005 17.1838 489.819 17.1838ZM490.411 37.8764C490.387 37.8256 490.363 37.7748 490.339 37.7238C490.883 37.1963 491.408 36.6471 491.976 36.1464C492.692 35.5165 493.169 34.7564 493.429 33.8544C493.858 32.3662 493.93 30.845 493.851 29.3115C493.815 28.5959 493.487 27.9949 492.978 27.5142C491.627 26.2386 489.942 25.6268 488.131 25.5116C486.204 25.3891 484.469 26.0903 482.906 27.192C481.316 28.3124 480.704 29.8551 480.943 31.7335C481.067 32.7037 481.538 33.4876 482.451 33.9532C482.994 34.2305 483.578 34.1426 483.95 33.7484C484.326 33.3508 484.381 32.7706 484.086 32.257C484.021 32.144 483.948 32.0298 483.856 31.939C483.367 31.4571 483.382 30.892 483.566 30.2989C483.743 29.7251 484.161 29.3426 484.669 29.0651C485.189 28.7807 485.718 28.4897 486.278 28.3052C486.688 28.1702 487.155 28.1596 487.595 28.1714C488.12 28.1856 488.665 28.2146 489.163 28.3609C489.787 28.5439 490.396 28.8115 490.961 29.13C491.16 29.2423 491.315 29.6144 491.309 29.8639C491.288 30.775 491.223 31.6883 491.109 32.5927C491.039 33.1477 490.869 33.7055 490.43 34.1087C489.407 35.0495 488.465 36.069 487.24 36.7982C485.604 37.7708 483.939 37.8039 482.205 37.2144C480.969 36.7937 480.028 35.9704 479.155 35.0306C478.168 33.9696 477.597 32.7724 477.626 31.3266C477.636 30.7798 477.647 30.2207 477.765 29.6907C478.085 28.2648 478.459 26.8606 479.244 25.5823C480.174 24.0697 481.541 23 482.869 21.8821C483.129 21.6631 483.407 21.439 483.717 21.307C485.883 20.3819 488.041 19.4648 490.506 19.6698C493.002 19.8776 495.16 20.6429 496.711 22.7176C497.546 23.8343 497.963 25.0876 498.079 26.4233C498.246 28.3522 497.943 30.2515 497.469 32.1255C497.16 33.3455 496.451 34.3597 495.487 35.0831C494.23 36.0279 492.82 36.7793 491.455 37.5782C491.153 37.7547 490.761 37.781 490.411 37.8764ZM495.879 38.0647C495.869 38.0133 495.859 37.9617 495.849 37.9102C496.031 37.7902 496.222 37.6813 496.394 37.5483C496.829 37.2113 497.303 36.9062 497.678 36.5122C498.627 35.5167 499.459 34.436 499.825 33.0795C499.911 32.7603 500.116 32.6262 500.453 32.5894C502.732 32.3409 505.016 32.1626 507.31 32.2353C509.466 32.3038 511.619 32.4283 513.725 32.9645C514.183 33.0812 514.664 33.1312 515.137 33.1614C516.509 33.2486 517.785 33.6639 519.003 34.2542C519.549 34.5189 519.68 35.1258 519.384 35.7458C518.704 35.3862 517.985 35.1469 517.376 35.8331C516.858 36.4179 517.099 37.0218 517.504 37.5949C517.442 37.6362 517.413 37.6698 517.377 37.6781C516.208 37.9499 515.063 38.3757 513.834 38.2722C513.688 38.2599 513.5 38.0848 513.432 37.9397C513.284 37.6219 513.228 37.2626 513.084 36.9425C512.824 36.364 512.269 36.0826 511.7 36.1974C511.134 36.3118 510.748 36.7944 510.739 37.4283C510.736 37.6481 510.771 37.8705 510.81 38.0881C510.849 38.3074 510.772 38.4138 510.547 38.4158C510.401 38.4171 510.255 38.4208 510.11 38.419C506.561 38.3757 503.012 38.3314 499.464 38.2889C498.987 38.2833 498.508 38.3133 498.033 38.2801C497.313 38.23 496.597 38.1387 495.879 38.0647Z" fill="#736262"/>
<path fill-rule="evenodd" clip-rule="evenodd" d="M490.411 37.8765C490.761 37.7811 491.153 37.7548 491.455 37.5786C492.82 36.7795 494.23 36.0282 495.488 35.0835C496.451 34.36 497.16 33.3458 497.469 32.1258C497.943 30.2518 498.246 28.3525 498.079 26.4236C497.963 25.088 497.546 23.8345 496.711 22.718C495.16 20.6432 493.002 19.8779 490.506 19.6701C488.041 19.4651 485.883 20.3822 483.717 21.3073C483.407 21.4394 483.129 21.6634 482.869 21.8824C481.541 23.0004 480.174 24.07 479.244 25.5826C478.459 26.8609 478.085 28.2651 477.765 29.6911C477.647 30.2211 477.636 30.7801 477.626 31.3269C477.597 32.7728 478.168 33.9701 479.155 35.031C480.029 35.9707 480.969 36.7942 482.205 37.2147C483.939 37.8044 485.604 37.7712 487.24 36.7985C488.466 36.0693 489.407 35.0498 490.43 34.1091C490.869 33.7058 491.039 33.1481 491.109 32.5931C491.223 31.6887 491.288 30.7754 491.309 29.8642C491.315 29.6148 491.16 29.2427 490.961 29.1303C490.396 28.8118 489.787 28.5444 489.164 28.3613C488.665 28.2148 488.121 28.1858 487.595 28.1717C487.155 28.16 486.688 28.1704 486.278 28.3055C485.718 28.4901 485.189 28.7812 484.669 29.0655C484.161 29.343 483.743 29.7254 483.566 30.2993C483.382 30.8924 483.367 31.4576 483.856 31.9393C483.948 32.0301 484.021 32.1444 484.086 32.2573C484.381 32.771 484.326 33.3511 483.95 33.7488C483.578 34.143 482.994 34.2308 482.451 33.9536C481.538 33.488 481.067 32.704 480.943 31.7338C480.704 29.8556 481.316 28.3127 482.906 27.1923C484.469 26.0906 486.205 25.3895 488.131 25.5119C489.942 25.6272 491.628 26.2389 492.978 27.5145C493.487 27.9953 493.815 28.5961 493.851 29.3118C493.93 30.8454 493.858 32.3666 493.429 33.8547C493.169 34.7568 492.692 35.5169 491.976 36.1468C491.408 36.6473 490.883 37.1966 490.339 37.7242C490.363 37.7749 490.387 37.8256 490.411 37.8765Z" fill="white"/>
<path fill-rule="evenodd" clip-rule="evenodd" d="M495.879 38.0647C496.597 38.1387 497.314 38.2298 498.033 38.2802C498.508 38.3133 498.987 38.2832 499.464 38.289C503.012 38.3315 506.561 38.3758 510.11 38.4191C510.255 38.4209 510.401 38.417 510.547 38.4159C510.772 38.4137 510.849 38.3075 510.81 38.0882C510.771 37.8706 510.736 37.6482 510.739 37.4284C510.748 36.7945 511.134 36.3118 511.7 36.1975C512.269 36.0826 512.824 36.364 513.084 36.9426C513.228 37.2629 513.284 37.6222 513.432 37.9398C513.5 38.0851 513.688 38.2601 513.834 38.2723C515.063 38.3758 516.208 37.95 517.377 37.6782C517.413 37.6699 517.442 37.6363 517.504 37.595C517.099 37.022 516.858 36.4181 517.376 35.8332C517.985 35.147 518.704 35.3863 519.384 35.7459C519.68 35.126 519.549 34.519 519.003 34.2543C517.785 33.6642 516.509 33.2488 515.137 33.1615C514.664 33.1313 514.183 33.0811 513.725 32.9646C511.619 32.4284 509.466 32.3038 507.31 32.2354C505.016 32.1627 502.732 32.341 500.453 32.5895C500.116 32.6263 499.911 32.7604 499.825 33.0796C499.459 34.4359 498.627 35.5168 497.678 36.5123C497.303 36.9063 496.83 37.2114 496.394 37.5484C496.222 37.6814 496.031 37.7903 495.849 37.9103C495.859 37.9616 495.869 38.0132 495.879 38.0647ZM514.83 36.1185C514.165 36.1133 513.62 35.5684 513.622 34.9102C513.625 34.2364 514.192 33.6964 514.88 33.7128C515.536 33.7281 516.066 34.2561 516.068 34.8958C516.07 35.5707 515.51 36.1237 514.83 36.1185Z" fill="white"/>
<path fill-rule="evenodd" clip-rule="evenodd" d="M514.83 36.1185C515.51 36.1237 516.07 35.5705 516.068 34.8958C516.066 34.2561 515.536 33.7281 514.88 33.7128C514.192 33.6964 513.625 34.2366 513.622 34.9102C513.62 35.5684 514.164 36.1133 514.83 36.1185Z" fill="#736262"/>
</g>
<defs>
<clipPath id="clip0_1156_1266">
<rect width="600" height="20" fill="white" transform="translate(0 29)"/>
</clipPath>
<clipPath id="clip1_1156_1266">
<rect width="57" height="24" fill="white" transform="matrix(-1 0 0 1 532 17)"/>
</clipPath>
</defs>
</svg>
