<svg width="627" height="57" viewBox="0 0 627 57" fill="none" xmlns="http://www.w3.org/2000/svg">
<rect x="2" y="37" width="589" height="4" fill="#736262"/>
<g clip-path="url(#clip0_1156_1266)">
<circle cx="10" cy="10" r="10" transform="matrix(1 0 0 -1 0 49)" fill="#736262"/>
<circle cx="10" cy="10" r="10" transform="matrix(1 0 0 -1 96.6667 49)" fill="#736262"/>
<circle cx="10" cy="10" r="10" transform="matrix(1 0 0 -1 193.333 49)" fill="#736262"/>
<circle cx="10" cy="10" r="10" transform="matrix(1 0 0 -1 290 49)" fill="#736262"/>
<circle cx="10" cy="10" r="10" transform="matrix(1 0 0 -1 386.667 49)" fill="#736262"/>
<circle cx="10" cy="10" r="10" transform="matrix(1 0 0 -1 483.333 49)" fill="#736262"/>
<circle cx="10" cy="10" r="10" transform="matrix(1 0 0 -1 580 49)" fill="#736262"/>
</g>
<path d="M589.635 2C589.635 4.18432 589.523 5.32246 589.635 7.5C589.828 11.2279 589.39 15.4039 589.054 19.116C588.765 22.3115 588.47 25.5077 588.217 28.7064C588.146 29.6113 588.252 30.5847 588 31.466" stroke="#736262" stroke-width="3" stroke-linecap="round"/>
<path d="M589.593 17.0182L589.194 3.0445C589.17 2.21257 590.113 1.71736 590.785 2.20954L596.635 6.5L602.722 10.1268C603.366 10.5106 603.375 11.4405 602.737 11.8357L597.696 14.9623C597.656 14.9874 597.613 15.0096 597.57 15.0287L590.993 17.9058C590.344 18.19 589.613 17.7268 589.593 17.0182Z" fill="#736262" stroke="#736262" stroke-width="3"/>
<g clip-path="url(#clip1_1156_1266)">
<path fill-rule="evenodd" clip-rule="evenodd" d="M584.819 17.1838C582.707 16.9441 580.851 17.8183 578.939 18.4754C577.518 18.9642 576.378 19.8409 575.243 20.7841C573.93 21.8759 572.828 23.1123 571.904 24.5332C571.399 25.3101 571.171 26.1761 570.859 27.0203C570.289 28.562 570.012 30.1474 570.088 31.7868C570.171 33.5919 570.864 35.1551 572.077 36.4977C572.438 36.8973 572.808 37.2921 573.204 37.6568C574.855 39.1757 576.806 40.0104 579.072 40.104C579.27 40.1123 579.47 40.1204 579.667 40.1054C580.212 40.0636 580.705 40.0665 581.16 40.4989C581.38 40.7082 581.829 40.7717 582.167 40.7567C583.356 40.7041 584.541 40.5705 585.73 40.5026C586.786 40.4424 587.86 40.2958 588.898 40.4193C591.974 40.7855 595.056 40.7761 598.142 40.7843C601.029 40.7919 603.916 40.9308 606.801 40.8877C608.418 40.8634 610.064 40.9147 611.649 40.4414C611.795 40.3977 611.977 40.3841 612.119 40.4286C612.982 40.7007 613.842 40.5626 614.665 40.3335C615.789 40.0208 616.938 39.98 618.08 39.8555C618.672 39.7911 619.267 39.7476 619.86 39.6976C621.416 39.5665 622.973 39.4431 624.528 39.3035C624.988 39.2621 625.453 39.2108 625.901 39.1042C626.583 38.9415 626.971 38.4031 626.908 37.7927C626.845 37.1746 626.318 36.6983 625.611 36.7069C624.978 36.7147 624.345 36.8025 623.712 36.8567C621.734 37.0261 619.757 37.1955 617.779 37.3671C617.529 37.3888 617.279 37.4265 617.029 37.4503C616.807 37.4715 616.696 37.3921 616.772 37.154C616.824 36.992 616.833 36.8056 616.923 36.6703C617.019 36.526 617.171 36.3575 617.327 36.322C619.008 35.9402 620.71 35.7065 622.44 35.6903C622.78 35.6871 623.12 35.5953 623.46 35.5446C624.022 35.4608 624.584 35.377 625.146 35.2935C625.316 35.2682 625.491 35.2604 625.656 35.216C626.302 35.0414 626.704 34.4834 626.636 33.8745C626.569 33.2755 626.084 32.8172 625.419 32.7919C624.985 32.7754 624.531 32.7695 624.115 32.8731C622.871 33.1831 621.595 33.1745 620.336 33.3254C619.378 33.4405 618.423 33.5848 617.472 33.7482C617.122 33.8084 616.921 33.7401 616.726 33.4282C616.073 32.383 615.044 31.8382 613.902 31.4552C612.593 31.0165 611.269 30.6602 609.874 30.6299C609.77 30.6277 609.664 30.6008 609.562 30.5747C606.176 29.7141 602.72 29.6863 599.261 29.7606C598.177 29.7838 597.097 29.9273 596.014 30.0044C595.501 30.0409 595.475 29.9947 595.53 29.4852C595.731 27.6419 595.747 25.8145 595.167 24.0158C594.892 23.1608 594.533 22.3591 594.026 21.6144C591.961 18.5806 588.978 17.2958 585.376 17.184C585.19 17.1788 585.005 17.1838 584.819 17.1838ZM585.411 37.8764C585.387 37.8256 585.363 37.7748 585.339 37.7238C585.883 37.1963 586.408 36.6471 586.976 36.1464C587.692 35.5165 588.169 34.7564 588.429 33.8544C588.858 32.3662 588.93 30.845 588.851 29.3115C588.815 28.5959 588.487 27.9949 587.978 27.5142C586.627 26.2386 584.942 25.6268 583.131 25.5116C581.204 25.3891 579.469 26.0903 577.906 27.192C576.316 28.3124 575.704 29.8551 575.943 31.7335C576.067 32.7037 576.538 33.4876 577.451 33.9532C577.994 34.2305 578.578 34.1426 578.95 33.7484C579.326 33.3508 579.381 32.7706 579.086 32.257C579.021 32.144 578.948 32.0298 578.856 31.939C578.367 31.4571 578.382 30.892 578.566 30.2989C578.743 29.7251 579.161 29.3426 579.669 29.0651C580.189 28.7807 580.718 28.4897 581.278 28.3052C581.688 28.1702 582.155 28.1596 582.595 28.1714C583.12 28.1856 583.665 28.2146 584.163 28.3609C584.787 28.5439 585.396 28.8115 585.961 29.13C586.16 29.2423 586.315 29.6144 586.309 29.8639C586.288 30.775 586.223 31.6883 586.109 32.5927C586.039 33.1477 585.869 33.7055 585.43 34.1087C584.407 35.0495 583.465 36.069 582.24 36.7982C580.604 37.7708 578.939 37.8039 577.205 37.2144C575.969 36.7937 575.028 35.9704 574.155 35.0306C573.168 33.9696 572.597 32.7724 572.626 31.3266C572.636 30.7798 572.647 30.2207 572.765 29.6907C573.085 28.2648 573.459 26.8606 574.244 25.5823C575.174 24.0697 576.541 23 577.869 21.8821C578.129 21.6631 578.407 21.439 578.717 21.307C580.883 20.3819 583.041 19.4648 585.506 19.6698C588.002 19.8776 590.16 20.6429 591.711 22.7176C592.546 23.8343 592.963 25.0876 593.079 26.4233C593.246 28.3522 592.943 30.2515 592.469 32.1255C592.16 33.3455 591.451 34.3597 590.487 35.0831C589.23 36.0279 587.82 36.7793 586.455 37.5782C586.153 37.7547 585.761 37.781 585.411 37.8764ZM590.879 38.0647C590.869 38.0133 590.859 37.9617 590.849 37.9102C591.031 37.7902 591.222 37.6813 591.394 37.5483C591.829 37.2113 592.303 36.9062 592.678 36.5122C593.627 35.5167 594.459 34.436 594.825 33.0795C594.911 32.7603 595.116 32.6262 595.453 32.5894C597.732 32.3409 600.016 32.1626 602.31 32.2353C604.466 32.3038 606.619 32.4283 608.725 32.9645C609.183 33.0812 609.664 33.1312 610.137 33.1614C611.509 33.2486 612.785 33.6639 614.003 34.2542C614.549 34.5189 614.68 35.1258 614.384 35.7458C613.704 35.3862 612.985 35.1469 612.376 35.8331C611.858 36.4179 612.099 37.0218 612.504 37.5949C612.442 37.6362 612.413 37.6698 612.377 37.6781C611.208 37.9499 610.063 38.3757 608.834 38.2722C608.688 38.2599 608.5 38.0848 608.432 37.9397C608.284 37.6219 608.228 37.2626 608.084 36.9425C607.824 36.364 607.269 36.0826 606.7 36.1974C606.134 36.3118 605.748 36.7944 605.739 37.4283C605.736 37.6481 605.771 37.8705 605.81 38.0881C605.849 38.3074 605.772 38.4138 605.547 38.4158C605.401 38.4171 605.255 38.4208 605.11 38.419C601.561 38.3757 598.012 38.3314 594.464 38.2889C593.987 38.2833 593.508 38.3133 593.033 38.2801C592.313 38.23 591.597 38.1387 590.879 38.0647Z" fill="#736262"/>
<path fill-rule="evenodd" clip-rule="evenodd" d="M585.411 37.8765C585.761 37.7811 586.153 37.7548 586.455 37.5786C587.82 36.7795 589.23 36.0282 590.488 35.0835C591.451 34.36 592.16 33.3458 592.469 32.1258C592.943 30.2518 593.246 28.3525 593.079 26.4236C592.963 25.088 592.546 23.8345 591.711 22.718C590.16 20.6432 588.002 19.8779 585.506 19.6701C583.041 19.4651 580.883 20.3822 578.717 21.3073C578.407 21.4394 578.129 21.6634 577.869 21.8824C576.541 23.0004 575.174 24.07 574.244 25.5826C573.459 26.8609 573.085 28.2651 572.765 29.6911C572.647 30.2211 572.636 30.7801 572.626 31.3269C572.597 32.7728 573.168 33.9701 574.155 35.031C575.029 35.9707 575.969 36.7942 577.205 37.2147C578.939 37.8044 580.604 37.7712 582.24 36.7985C583.466 36.0693 584.407 35.0498 585.43 34.1091C585.869 33.7058 586.039 33.1481 586.109 32.5931C586.223 31.6887 586.288 30.7754 586.309 29.8642C586.315 29.6148 586.16 29.2427 585.961 29.1303C585.396 28.8118 584.787 28.5444 584.164 28.3613C583.665 28.2148 583.121 28.1858 582.595 28.1717C582.155 28.16 581.688 28.1704 581.278 28.3055C580.718 28.4901 580.189 28.7812 579.669 29.0655C579.161 29.343 578.743 29.7254 578.566 30.2993C578.382 30.8924 578.367 31.4576 578.856 31.9393C578.948 32.0301 579.021 32.1444 579.086 32.2573C579.381 32.771 579.326 33.3511 578.95 33.7488C578.578 34.143 577.994 34.2308 577.451 33.9536C576.538 33.488 576.067 32.704 575.943 31.7338C575.704 29.8556 576.316 28.3127 577.906 27.1923C579.469 26.0906 581.205 25.3895 583.131 25.5119C584.942 25.6272 586.628 26.2389 587.978 27.5145C588.487 27.9953 588.815 28.5961 588.851 29.3118C588.93 30.8454 588.858 32.3666 588.429 33.8547C588.169 34.7568 587.692 35.5169 586.976 36.1468C586.408 36.6473 585.883 37.1966 585.339 37.7242C585.363 37.7749 585.387 37.8256 585.411 37.8765Z" fill="white"/>
<path fill-rule="evenodd" clip-rule="evenodd" d="M590.879 38.0647C591.597 38.1387 592.314 38.2298 593.033 38.2802C593.508 38.3133 593.987 38.2832 594.464 38.289C598.012 38.3315 601.561 38.3758 605.11 38.4191C605.255 38.4209 605.401 38.417 605.547 38.4159C605.772 38.4137 605.849 38.3075 605.81 38.0882C605.771 37.8706 605.736 37.6482 605.739 37.4284C605.748 36.7945 606.134 36.3118 606.7 36.1975C607.269 36.0826 607.824 36.364 608.084 36.9426C608.228 37.2629 608.284 37.6222 608.432 37.9398C608.5 38.0851 608.688 38.2601 608.834 38.2723C610.063 38.3758 611.208 37.95 612.377 37.6782C612.413 37.6699 612.442 37.6363 612.504 37.595C612.099 37.022 611.858 36.4181 612.376 35.8332C612.985 35.147 613.704 35.3863 614.384 35.7459C614.68 35.126 614.549 34.519 614.003 34.2543C612.785 33.6642 611.509 33.2488 610.137 33.1615C609.664 33.1313 609.183 33.0811 608.725 32.9646C606.619 32.4284 604.466 32.3038 602.31 32.2354C600.016 32.1627 597.732 32.341 595.453 32.5895C595.116 32.6263 594.911 32.7604 594.825 33.0796C594.459 34.4359 593.627 35.5168 592.678 36.5123C592.303 36.9063 591.83 37.2114 591.394 37.5484C591.222 37.6814 591.031 37.7903 590.849 37.9103C590.859 37.9616 590.869 38.0132 590.879 38.0647ZM609.83 36.1185C609.165 36.1133 608.62 35.5684 608.622 34.9102C608.625 34.2364 609.192 33.6964 609.88 33.7128C610.536 33.7281 611.066 34.2561 611.068 34.8958C611.07 35.5707 610.51 36.1237 609.83 36.1185Z" fill="white"/>
<path fill-rule="evenodd" clip-rule="evenodd" d="M609.83 36.1185C610.51 36.1237 611.07 35.5705 611.068 34.8958C611.066 34.2561 610.536 33.7281 609.88 33.7128C609.192 33.6964 608.625 34.2366 608.622 34.9102C608.62 35.5684 609.164 36.1133 609.83 36.1185Z" fill="#736262"/>
</g>
<defs>
<clipPath id="clip0_1156_1266">
<rect width="600" height="20" fill="white" transform="translate(0 29)"/>
</clipPath>
<clipPath id="clip1_1156_1266">
<rect width="57" height="24" fill="white" transform="matrix(-1 0 0 1 627 17)"/>
</clipPath>
</defs>
</svg>
