<svg width="285" height="95" viewBox="0 0 285 95" fill="none" xmlns="http://www.w3.org/2000/svg">
<path d="M267.561 17.3342C256.334 8.99508 240.276 7.44894 223.625 7.87294C215.85 8.0709 207.855 8.70388 200.062 9.32086C199.472 9.36759 198.883 9.41423 198.295 9.46058C189.926 10.1206 181.834 10.7218 174.436 10.7218C169.713 10.7218 158.171 9.42136 144.434 7.87334C141.458 7.53805 138.379 7.19114 135.245 6.84333C117.749 4.90208 98.6044 2.94651 86.5 2.94651C82.6535 2.94651 78.3816 2.63389 73.7645 2.29603C73.192 2.25413 72.6142 2.21184 72.0312 2.16972C66.7736 1.78982 61.1365 1.42673 55.3729 1.51278C43.8437 1.68492 31.6792 3.65369 20.7603 10.976C12.0127 16.8422 5.93127 26.0464 3.17505 35.3537C0.431 44.6199 0.90672 54.2936 5.7434 60.9341C11.4163 68.7226 22.8014 75.4954 35.2181 80.6828C47.6996 85.8973 61.5101 89.6262 72.3286 91.1834C90.0301 93.7314 108.07 93.7275 125.41 93.0943C131.678 92.8654 137.839 92.5555 143.86 92.2526C154.554 91.7145 164.807 91.1987 174.436 91.1987H174.474C189.53 91.1987 206.728 91.1987 223.135 89.3425C239.539 87.4866 255.32 83.7602 267.46 76.1978C276.367 70.6491 282.526 60.5065 283.394 49.4663C284.268 38.3606 279.785 26.4141 267.561 17.3342Z" fill="#FDDA75" stroke="#2A2A2A" stroke-width="3"/>
</svg>
