<svg width="57" height="24" viewBox="0 0 57 24" fill="none" xmlns="http://www.w3.org/2000/svg">
<g clip-path="url(#clip0_1165_1306)">
<path fill-rule="evenodd" clip-rule="evenodd" d="M14.7 0.184264C12.5823 -0.0579448 10.7206 0.825363 8.80398 1.48926C7.37846 1.98312 6.23495 2.86904 5.09743 3.82205C3.78054 4.9252 2.67533 6.17444 1.74877 7.61012C1.24192 8.39512 1.01328 9.27015 0.700281 10.1231C0.129256 11.6809 -0.148657 13.2829 -0.0726374 14.9393C0.0109843 16.7632 0.705395 18.3427 1.92171 19.6992C2.28368 20.1031 2.65486 20.5019 3.05251 20.8705C4.70813 22.4052 6.66475 23.2486 8.93643 23.3431C9.13539 23.3515 9.33583 23.3597 9.53406 23.3446C10.0805 23.3023 10.5749 23.3052 11.0312 23.7421C11.2518 23.9536 11.7012 24.0178 12.0404 24.0027C13.2329 23.9495 14.4215 23.8145 15.6136 23.7459C16.6723 23.6851 17.7502 23.537 18.7911 23.6617C21.8756 24.0317 24.9656 24.0223 28.0611 24.0305C30.9555 24.0382 33.8509 24.1785 36.7439 24.1349C38.3658 24.1104 40.0164 24.1622 41.6062 23.6841C41.7524 23.6399 41.9348 23.6261 42.0768 23.6711C42.9425 23.946 43.8054 23.8065 44.6309 23.575C45.7573 23.259 46.9096 23.2178 48.0554 23.092C48.6491 23.027 49.2451 22.983 49.8403 22.9325C51.4006 22.8 52.9616 22.6753 54.5212 22.5343C54.9829 22.4925 55.4488 22.4406 55.898 22.3329C56.5825 22.1685 56.9715 21.6246 56.9084 21.0077C56.8443 20.3832 56.3164 19.9019 55.6077 19.9107C54.9722 19.9185 54.3377 20.0072 53.703 20.062C51.7197 20.2332 49.7365 20.4044 47.7534 20.5777C47.5021 20.5997 47.2523 20.6377 47.0011 20.6618C46.778 20.6832 46.6676 20.603 46.7437 20.3624C46.7954 20.1987 46.8046 20.0104 46.8948 19.8736C46.9909 19.7278 47.1433 19.5576 47.2999 19.5218C48.9861 19.136 50.6924 18.8998 52.4274 18.8834C52.7688 18.8802 53.1094 18.7875 53.4503 18.7362C54.0139 18.6515 54.5776 18.5669 55.1413 18.4825C55.3118 18.457 55.4871 18.4491 55.6521 18.4043C56.3002 18.2278 56.7037 17.664 56.6354 17.0487C56.5683 16.4435 56.0815 15.9804 55.415 15.9549C54.9795 15.9382 54.5238 15.9322 54.1068 16.0369C52.8597 16.3501 51.5798 16.3414 50.3173 16.4939C49.3567 16.6102 48.3988 16.756 47.4455 16.9211C47.0944 16.9819 46.8926 16.913 46.6972 16.5978C46.0421 15.5417 45.0108 14.9913 43.865 14.6043C42.5523 14.1609 41.2245 13.801 39.826 13.7703C39.7212 13.7682 39.6152 13.741 39.5126 13.7146C36.1174 12.8451 32.6521 12.8169 29.1827 12.892C28.0962 12.9155 27.0127 13.0604 25.927 13.1384C25.4119 13.1753 25.3858 13.1285 25.4413 12.6137C25.6426 10.7513 25.6589 8.90481 25.0776 7.08737C24.8012 6.22352 24.4411 5.4134 23.9329 4.66092C21.862 1.59555 18.8707 0.297383 15.2582 0.18441C15.0724 0.179183 14.8863 0.184264 14.7 0.184264ZM15.294 21.0924C15.2697 21.041 15.2455 20.9897 15.2212 20.9382C15.7669 20.4051 16.2932 19.8502 16.8634 19.3443C17.5807 18.7079 18.0594 17.9399 18.32 17.0284C18.7504 15.5248 18.8225 13.9877 18.7438 12.4382C18.7072 11.7152 18.3782 11.1079 17.868 10.6222C16.5137 9.33332 14.8237 8.71517 13.0074 8.59871C11.0754 8.47499 9.33495 9.18347 7.76733 10.2966C6.17296 11.4287 5.55925 12.9875 5.79944 14.8854C5.92371 15.8657 6.39562 16.6578 7.31092 17.1283C7.85563 17.4084 8.44128 17.3197 8.81465 16.9214C9.19139 16.5196 9.24694 15.9334 8.9509 15.4144C8.88585 15.3003 8.81275 15.1848 8.72021 15.093C8.22959 14.6062 8.24479 14.0352 8.429 13.4359C8.60735 12.8561 9.02604 12.4697 9.53508 12.1893C10.057 11.9019 10.5872 11.6079 11.1489 11.4214C11.5598 11.2851 12.0288 11.2743 12.4697 11.2862C12.9968 11.3006 13.5425 11.3299 14.0428 11.4778C14.6677 11.6626 15.2788 11.933 15.845 12.2548C16.0447 12.3683 16.2003 12.7443 16.1946 12.9964C16.1732 13.917 16.1084 14.8398 15.9941 15.7536C15.924 16.3144 15.7529 16.878 15.3132 17.2854C14.2868 18.236 13.3428 19.2661 12.1135 20.0029C10.4733 20.9856 8.8031 21.019 7.06473 20.4234C5.82503 19.9984 4.88195 19.1665 4.00582 18.2169C3.01625 17.1449 2.44317 15.9351 2.47227 14.4743C2.48308 13.9218 2.49347 13.3569 2.61247 12.8214C2.93307 11.3806 3.30805 9.96179 4.09558 8.67015C5.0277 7.14182 6.39883 6.06103 7.73006 4.93145C7.99101 4.71015 8.27023 4.48377 8.58045 4.35032C10.7529 3.41561 12.9172 2.48903 15.3889 2.69609C17.8923 2.90607 20.0559 3.67931 21.6115 5.77569C22.4488 6.90397 22.8669 8.17034 22.983 9.51992C23.1505 11.4689 22.8467 13.388 22.3713 15.2815C22.0618 16.5142 21.3504 17.539 20.3846 18.2699C19.1234 19.2245 17.7098 19.9838 16.3403 20.7911C16.0381 20.9694 15.6452 20.9959 15.294 21.0924ZM20.7777 21.2826C20.7674 21.2306 20.7571 21.1785 20.747 21.1265C20.9299 21.0052 21.1212 20.8952 21.2937 20.7609C21.7304 20.4203 22.2048 20.1121 22.5817 19.7139C23.5334 18.708 24.3677 17.6161 24.7341 16.2454C24.8203 15.9229 25.0264 15.7874 25.3643 15.7503C27.6497 15.4992 29.9401 15.319 32.2404 15.3925C34.403 15.4617 36.5618 15.5875 38.6734 16.1293C39.1326 16.2472 39.6149 16.2977 40.0899 16.3282C41.4654 16.4163 42.7452 16.836 43.9663 17.4324C44.5139 17.6998 44.6455 18.3131 44.3483 18.9395C43.6671 18.5762 42.9457 18.3344 42.3352 19.0278C41.8151 19.6186 42.0576 20.2288 42.4629 20.8079C42.4015 20.8496 42.3718 20.8836 42.3361 20.892C41.1637 21.1666 40.0153 21.5968 38.7829 21.4923C38.6362 21.4798 38.4479 21.3029 38.3797 21.1563C38.2309 20.8352 38.1752 20.4722 38.0306 20.1487C37.77 19.5642 37.2136 19.2799 36.643 19.3959C36.0758 19.5115 35.6881 19.9991 35.679 20.6396C35.6759 20.8616 35.7116 21.0864 35.7502 21.3063C35.7892 21.5278 35.7126 21.6353 35.4865 21.6373C35.3404 21.6386 35.1942 21.6424 35.0482 21.6405C31.4894 21.5968 27.9307 21.5521 24.3719 21.5091C23.8937 21.5035 23.4134 21.5338 22.9374 21.5003C22.2158 21.4496 21.4974 21.3574 20.7777 21.2826Z" fill="#736262"/>
<path fill-rule="evenodd" clip-rule="evenodd" d="M15.2939 21.0924C15.6451 20.996 16.038 20.9694 16.3404 20.7914C17.7099 19.984 19.1234 19.2249 20.3846 18.2703C21.3504 17.5393 22.0619 16.5145 22.3714 15.2819C22.8468 13.3883 23.1506 11.4693 22.983 9.52026C22.867 8.17068 22.4488 6.90416 21.6116 5.77603C20.0558 3.67965 17.8923 2.90641 15.389 2.69644C12.9173 2.48922 10.7529 3.41595 8.58051 4.35066C8.27029 4.48411 7.99107 4.71049 7.73011 4.93179C6.39889 6.06137 5.02776 7.14216 4.09564 8.67049C3.30811 9.96212 2.93327 11.381 2.61253 12.8217C2.49353 13.3573 2.48315 13.9221 2.47233 14.4746C2.44324 15.9356 3.01646 17.1453 4.00588 18.2173C4.88201 19.1668 5.82494 19.9988 7.0648 20.4237C8.80331 21.0195 10.4734 20.986 12.1135 20.0032C13.3429 19.2664 14.2867 18.2363 15.3132 17.2858C15.753 16.8783 15.924 16.3147 15.9942 15.7539C16.1085 14.8401 16.1733 13.9173 16.1946 12.9967C16.2003 12.7446 16.0449 12.3687 15.8451 12.2551C15.2789 11.9333 14.6678 11.6631 14.0428 11.4781C13.5426 11.3301 12.997 11.3008 12.4698 11.2866C12.0287 11.2747 11.5598 11.2853 11.149 11.4218C10.5873 11.6082 10.0571 11.9024 9.53515 12.1896C9.02611 12.47 8.60727 12.8564 8.42906 13.4363C8.24486 14.0355 8.22965 14.6066 8.72027 15.0934C8.81281 15.1852 8.88591 15.3006 8.95096 15.4147C9.247 15.9337 9.19159 16.5199 8.81471 16.9217C8.44134 17.32 7.85555 17.4088 7.31098 17.1286C6.39568 16.6582 5.92377 15.866 5.79951 14.8857C5.55917 12.988 6.17303 11.429 7.76739 10.297C9.33501 9.18381 11.0754 8.47533 13.0075 8.59905C14.8238 8.71551 16.5138 9.33366 17.8681 10.6225C18.3783 11.1083 18.7072 11.7154 18.7439 12.4385C18.8224 13.9881 18.7505 15.5251 18.3201 17.0287C18.0594 17.9402 17.5808 18.7082 16.8634 19.3447C16.2933 19.8504 15.767 20.4054 15.2213 20.9385C15.2454 20.9898 15.2697 21.041 15.2939 21.0924Z" fill="white"/>
<path fill-rule="evenodd" clip-rule="evenodd" d="M20.7777 21.2825C21.4976 21.3573 22.216 21.4494 22.9374 21.5003C23.4134 21.5337 23.8937 21.5034 24.372 21.5092C27.9309 21.5522 31.4896 21.5969 35.0482 21.6406C35.1943 21.6425 35.3405 21.6386 35.4865 21.6374C35.7127 21.6352 35.7891 21.5279 35.7503 21.3063C35.7115 21.0865 35.6758 20.8617 35.6791 20.6397C35.6881 19.9992 36.0758 19.5114 36.6431 19.396C37.2136 19.2798 37.77 19.5641 38.0307 20.1487C38.1751 20.4724 38.231 20.8354 38.3798 21.1563C38.4479 21.3031 38.6362 21.48 38.783 21.4924C40.0155 21.5969 41.1637 21.1666 42.3362 20.8921C42.3719 20.8836 42.4015 20.8497 42.4629 20.808C42.0577 20.229 41.8152 19.6189 42.3353 19.0279C42.9458 18.3345 43.6671 18.5763 44.3484 18.9396C44.6456 18.3133 44.514 17.6999 43.9664 17.4324C42.7452 16.8362 41.4655 16.4166 40.09 16.3283C39.6148 16.2978 39.1326 16.2471 38.6735 16.1293C36.5619 15.5876 34.4031 15.4617 32.2405 15.3925C29.9402 15.3191 27.6498 15.4993 25.3644 15.7503C25.0265 15.7875 24.8204 15.923 24.7341 16.2455C24.3678 17.616 23.5335 18.7081 22.5817 19.714C22.205 20.1121 21.7306 20.4204 21.2938 20.7609C21.1211 20.8952 20.9299 21.0053 20.747 21.1266C20.7571 21.1784 20.7674 21.2305 20.7777 21.2825ZM39.7815 19.3161C39.1144 19.3109 38.5685 18.7602 38.5707 18.0952C38.5734 17.4144 39.1421 16.8687 39.8319 16.8853C40.4899 16.9008 41.0216 17.4343 41.0234 18.0807C41.0254 18.7626 40.4635 19.3213 39.7815 19.3161Z" fill="white"/>
<path fill-rule="evenodd" clip-rule="evenodd" d="M39.7814 19.3162C40.4634 19.3214 41.0252 18.7625 41.0234 18.0807C41.0217 17.4344 40.49 16.9009 39.832 16.8854C39.1421 16.8688 38.5734 17.4147 38.5708 18.0953C38.5684 18.7603 39.1143 19.311 39.7814 19.3162Z" fill="#736262"/>
</g>
<defs>
<clipPath id="clip0_1165_1306">
<rect width="57" height="24" fill="white" transform="matrix(-1 0 0 1 57 0)"/>
</clipPath>
</defs>
</svg>
