<svg width="211" height="164" viewBox="0 0 211 164" fill="none" xmlns="http://www.w3.org/2000/svg">
<g clip-path="url(#clip0_807_6241)">
<path d="M45.0262 153.947V155.876H44.2532C40.7891 155.876 37.3202 155.797 33.8657 155.903C31.3317 155.981 28.7928 156.283 26.2732 156.527C24.3092 156.717 22.3501 156.94 20.3958 157.217C19.072 157.407 17.77 157.782 16.4462 157.959C14.6199 158.203 12.7864 158.361 10.9529 158.502C9.8296 158.594 9.82718 158.562 9.71606 157.339C9.62909 156.239 9.55177 155.137 9.45514 154.04C9.37784 153.181 9.24499 152.328 9.18942 151.47C8.95993 147.94 8.77393 144.433 8.52994 140.919C8.31575 137.841 8.07418 134.769 7.80524 131.704C7.46221 127.798 6.90902 123.909 6.74958 119.995C6.33891 109.984 6.02487 99.96 6.87036 89.9572C7.22789 85.6606 7.69652 81.3748 8.19174 77.0973C8.34151 75.8099 8.71594 74.5524 9.05897 73.295C9.15076 72.9527 9.50347 72.7029 9.73537 72.4096L9.95763 72.5372C10.2306 73.8273 10.6823 75.1038 10.7475 76.4047C10.981 80.9881 10.9585 85.5834 10.6799 90.1636C10.3997 94.911 10.4384 99.6694 10.3804 104.444C10.3586 106.046 10.4504 107.651 10.5084 109.254C10.5325 109.884 10.791 110.376 11.395 110.433C11.9989 110.49 12.3081 110.044 12.4506 109.436C12.4865 109.268 12.5091 109.097 12.5183 108.925C12.6294 107.103 12.7043 105.278 12.854 103.461C13.1391 100.047 13.4338 96.6329 13.7962 93.2299C13.9556 91.7225 14.2793 90.2424 14.5547 88.7432C14.6483 88.4718 14.7795 88.2187 14.9436 87.9936L15.1683 88.0642C15.1997 88.6916 15.2142 89.3189 15.2649 89.9436C15.3809 91.4401 15.3833 92.9664 15.6731 94.4222C16.021 96.1767 17.8908 96.8665 19.1976 95.8236C19.7553 95.3534 20.4331 95.0981 21.1302 95.0957C21.5035 95.076 21.8734 95.0058 22.2318 94.8866C24.6619 94.1696 27.0897 93.4336 29.5247 92.7139C29.8387 92.6446 30.1283 92.4751 30.3588 92.2256C30.5893 91.9761 30.7509 91.6571 30.8244 91.307C30.9379 90.829 30.9766 90.332 31.0998 89.8594C31.3679 88.8355 31.6699 87.8225 31.996 86.6763C32.3221 86.9479 32.5588 87.0539 32.6482 87.2467C33.2063 88.3517 33.708 89.4915 34.1508 90.6606C34.4528 91.5216 34.5156 92.483 34.7185 93.3928C35.4432 96.671 36.1993 99.9437 36.9361 103.219C37.0859 103.887 37.2066 104.577 37.3612 105.234C37.5038 105.848 37.8444 106.274 38.4387 106.185C39.0329 106.095 39.2866 105.59 39.2624 104.96C39.2382 104.33 39.1464 103.738 39.0691 103.127C38.6512 99.8323 38.0691 96.5487 37.8468 93.238C37.5618 88.9849 37.5811 84.7073 37.4386 80.4433C37.3637 78.1836 37.1801 75.9267 37.1342 73.6698C37.1543 72.5914 37.248 71.5164 37.4144 70.4541C37.4361 70.2585 37.656 69.9652 37.7888 69.9489C37.9217 69.9326 38.1802 70.1336 38.3227 70.2993C38.4295 70.4582 38.4986 70.6452 38.5232 70.8425C38.7962 72.0864 39.0691 73.3303 39.318 74.5796C39.603 76.0245 39.847 77.4802 40.1369 78.9251C40.6418 81.4509 41.1732 83.9686 41.6877 86.4889C41.7158 86.684 41.7327 86.8808 41.7385 87.0783C41.9172 89.1098 42.1057 91.1522 42.2699 93.1756C42.3376 94.0094 42.3545 94.8486 42.3883 95.6878C42.4849 98.2245 42.5622 100.764 42.6758 103.292C42.8521 107.258 43.1106 111.22 43.2241 115.185C43.3449 119.531 43.3377 123.876 43.3932 128.222C43.3932 128.741 43.4536 129.257 43.4874 129.775C43.6445 132.182 43.8981 134.585 43.9416 136.994C44.0213 141.136 43.9078 145.283 44.8257 149.344C44.8772 149.684 44.8982 150.03 44.8885 150.376C44.9336 151.576 44.9795 152.767 45.0262 153.947ZM24.9011 105.047C25.2121 105.285 25.5347 105.504 25.8674 105.701C26.2201 105.881 26.5921 106.112 26.9617 106.109C27.1169 106.091 27.2662 106.032 27.3978 105.938C27.5295 105.843 27.6399 105.716 27.7202 105.566C27.8289 105.294 27.7782 104.735 27.5994 104.566C26.7612 103.781 25.9084 102.969 24.732 102.915C23.9324 102.88 23.2826 103.273 23.1763 104.075C23.0547 104.996 23.032 105.931 23.1087 106.858C23.1144 106.997 23.1469 107.133 23.2038 107.256C23.2608 107.379 23.3408 107.487 23.4385 107.572C23.5361 107.657 23.649 107.717 23.7693 107.748C23.8896 107.779 24.0145 107.78 24.1353 107.752C24.6861 107.676 24.8914 107.225 24.8987 106.641C24.9035 106.171 24.9011 105.712 24.9011 105.047ZM31.4549 99.1289C31.4504 98.9934 31.4215 98.8604 31.3699 98.738C31.3183 98.6155 31.2451 98.5061 31.1547 98.4164C31.0643 98.3267 30.9587 98.2586 30.8442 98.2163C30.7297 98.174 30.6087 98.1583 30.4886 98.1702C29.846 98.1864 29.3315 98.7133 29.3411 99.3244C29.345 99.4664 29.3745 99.606 29.4278 99.7347C29.4812 99.8634 29.5574 99.9785 29.6516 100.073C29.7459 100.168 29.8563 100.24 29.9761 100.285C30.0959 100.33 30.2226 100.347 30.3485 100.335C30.6357 100.33 30.9104 100.202 31.1162 99.9768C31.322 99.7515 31.4432 99.4461 31.4549 99.1234V99.1289ZM16.4776 101.163C16.2016 101.17 15.9392 101.299 15.7467 101.521C15.5542 101.744 15.4471 102.042 15.4485 102.353C15.4377 102.638 15.526 102.916 15.6945 103.13C15.8631 103.343 16.0989 103.474 16.352 103.496C16.4823 103.502 16.6123 103.479 16.7344 103.427C16.8564 103.375 16.9678 103.296 17.0619 103.195C17.156 103.093 17.2309 102.971 17.282 102.836C17.3331 102.701 17.3594 102.556 17.3593 102.41C17.3738 101.709 16.9969 101.177 16.4655 101.158L16.4776 101.163Z" fill="#FEFEFE"/>
<path d="M104.563 150.724C104.322 150.846 104.067 150.931 103.805 150.976C101.348 150.995 98.8888 150.916 96.4345 151.014C94.9479 151.04 93.4681 151.247 92.021 151.631C90.33 152.128 88.598 152.149 86.8804 152.32L79.1043 153.086C78.7105 153.124 78.3192 153.203 77.9279 153.203C76.9712 153.152 76.0157 153.328 75.1232 153.719C74.2415 154.137 73.1907 154.124 72.2244 154.306C70.9079 154.553 69.5937 154.827 68.2699 155.034C67.98 155.08 67.6612 154.892 67.3568 154.814L67.4003 154.626L68.352 154.406C68.7965 154.013 68.8763 153.499 68.811 152.894C68.6951 151.791 68.5864 150.685 68.5501 149.58C68.4004 145.091 68.3086 140.601 68.1395 136.112C67.8979 129.8 67.6322 123.491 67.3737 117.182C67.2819 114.938 67.1321 112.695 67.1055 110.452C67.0669 105.691 67.0476 100.927 67.1273 96.1659C67.1925 92.3636 67.3954 88.5613 67.5718 84.778C67.695 82.1219 67.7819 79.4548 68.0549 76.8149C68.2965 74.4466 68.8038 72.1109 69.2 69.7535C69.235 69.3357 69.3339 68.9277 69.4923 68.5476C69.6565 68.238 69.9754 67.8768 70.2653 67.8442C70.7484 67.7845 71.0697 68.162 71.0721 68.7704C71.0721 68.8926 71.0721 69.0175 71.0721 69.1397C71.0335 72.3988 71.0069 75.658 70.9513 78.9171C70.9223 80.6444 70.8402 82.369 70.7846 84.0936C70.6228 89.1235 70.4392 94.1426 70.3184 99.1806C70.3371 100.141 70.4497 101.097 70.6542 102.03C70.8136 102.929 71.2581 103.35 71.8137 103.287C72.3693 103.225 72.7003 102.687 72.7269 101.723C72.7414 101.155 72.7414 100.587 72.7824 100.023C73.0932 95.7422 73.4113 91.4638 73.7366 87.1871C73.7841 86.4984 73.8819 85.8153 74.0289 85.1447C74.1739 84.6595 74.3549 84.1889 74.57 83.7378L74.7464 83.8085C74.8454 84.4331 74.9348 85.0632 75.0508 85.6852C75.2923 87.0268 75.8093 87.494 77.0123 87.4614C77.8651 87.4369 78.7178 87.3364 79.5729 87.3229C80.974 87.3011 82.3752 87.3229 83.7763 87.3229C84.1005 87.3237 84.424 87.3582 84.7425 87.4261C85.7306 87.6461 86.7041 87.934 87.6969 88.1186C88.6052 88.287 89.1463 87.8932 89.5208 86.9426C89.7913 86.2691 90.1078 85.6146 90.3445 84.9274C90.5209 84.4114 90.7793 84.4304 91.0958 84.6803C91.6762 85.0926 92.0932 85.7403 92.2602 86.4891C92.7143 88.6998 93.1886 90.9043 93.683 93.1024C93.9826 94.4413 94.3473 95.7613 94.6493 97.1002C94.9754 98.5858 95.2532 100.088 95.5624 101.573C95.688 102.184 96.0117 102.611 96.606 102.608C97.2003 102.605 97.5264 102.195 97.6496 101.576C97.7212 101.266 97.7562 100.946 97.7535 100.625C97.7051 99.1046 97.6858 97.5782 97.5554 96.0627C97.3355 93.5125 97.4563 90.9568 97.1689 88.3902C96.7654 84.7808 96.7872 81.1115 96.6374 77.4668C96.5931 76.6783 96.5875 75.8877 96.6205 75.0985C96.7928 72.2232 96.9853 69.3488 97.1978 66.4754C97.2196 66.2038 97.4587 65.9485 97.5964 65.6851C97.8374 65.8337 98.069 66.0007 98.2897 66.1848C98.397 66.3087 98.4672 66.4673 98.4902 66.6383C98.7318 67.9664 99.0434 69.2891 99.1521 70.6308C99.4154 73.8709 99.6087 77.1191 99.7778 80.3674C99.988 84.3598 100.152 88.3522 100.326 92.3446C100.442 94.9818 100.343 97.6543 100.698 100.248C101.164 103.673 101.116 107.081 101.114 110.509C101.114 111.492 101.201 112.475 101.28 113.456C101.445 115.468 101.638 117.478 101.807 119.49C101.964 121.391 102.092 123.314 102.254 125.226C102.435 127.386 102.648 129.545 102.829 131.704C103.126 135.213 103.401 138.725 103.698 142.234C103.884 144.439 104.09 146.644 104.298 148.847C104.377 149.482 104.481 150.102 104.563 150.724ZM82.0659 96.1985L82.3075 96.117C82.5732 96.5163 82.8438 96.9101 83.1047 97.3148C83.2955 97.6108 83.4139 98.0399 83.67 98.1893C83.9719 98.3686 84.4792 98.4826 84.7256 98.3115C84.8616 98.1734 84.9653 97.9999 85.0276 97.8062C85.09 97.6126 85.109 97.4046 85.0831 97.2007C84.7755 95.9532 84.076 94.8735 83.1144 94.1616C82.868 93.9694 82.578 93.8604 82.2784 93.8474C81.9788 93.8344 81.6821 93.918 81.4234 94.0882C80.5706 94.5825 79.6503 96.7336 79.8532 97.7792C79.9595 98.3387 80.2397 98.7379 80.788 98.7379C81.3364 98.7379 81.5538 98.3604 81.6673 97.8226C81.7809 97.2849 81.9331 96.739 82.0659 96.1985ZM89.2889 93.6863C89.277 93.4142 89.1722 93.1577 88.9962 92.9705C88.8202 92.7832 88.5866 92.6797 88.3443 92.6814C88.208 92.6828 88.0734 92.7146 87.9481 92.7748C87.8228 92.8351 87.7093 92.9227 87.6143 93.0326C87.5193 93.1424 87.4446 93.2723 87.3945 93.4149C87.3444 93.5574 87.3199 93.7096 87.3225 93.8628C87.3228 93.9978 87.347 94.1314 87.3938 94.2558C87.4405 94.3801 87.5089 94.4928 87.5948 94.5871C87.6807 94.6814 87.7825 94.7555 87.8942 94.8051C88.0059 94.8547 88.1252 94.8788 88.2453 94.8759C88.5209 94.86 88.7814 94.7294 88.9761 94.5096C89.1707 94.2897 89.2857 93.9962 89.2985 93.6863H89.2889ZM77.0606 93.746C77.0488 93.5093 76.9554 93.287 76.8003 93.1263C76.6452 92.9656 76.4405 92.8791 76.2296 92.8851C76.1202 92.8785 76.0108 92.8978 75.9084 92.9416C75.806 92.9855 75.7129 93.0529 75.6351 93.1396C75.5573 93.2263 75.4965 93.3304 75.4566 93.4451C75.4167 93.5599 75.3986 93.6827 75.4035 93.8058C75.3987 93.9294 75.4168 94.0529 75.4566 94.1683C75.4963 94.2837 75.557 94.3886 75.6346 94.4763C75.7122 94.5641 75.8051 94.6329 75.9075 94.6782C76.0099 94.7236 76.1196 94.7447 76.2296 94.7401C76.344 94.7428 76.4576 94.7185 76.5631 94.6687C76.6686 94.6189 76.7635 94.5447 76.8419 94.451C76.9202 94.3573 76.9802 94.2461 77.0179 94.1246C77.0556 94.0032 77.0701 93.8742 77.0606 93.746Z" fill="#FEFEFE"/>
<path d="M204.856 146.242C204.416 147.095 204.339 147.109 203.469 146.756C203.164 146.627 202.843 146.558 202.517 146.552C199.928 146.536 197.339 146.536 194.751 146.552C194.362 146.594 193.978 146.676 193.603 146.799C192.666 147.008 191.734 147.253 190.789 147.421C189.712 147.611 188.615 147.717 187.545 147.885C184.75 148.317 181.957 148.784 179.16 149.2C178.012 149.374 176.853 149.471 175.696 149.577C175.305 149.634 174.91 149.651 174.517 149.626C174.271 149.559 174.055 149.396 173.908 149.165C174.461 149.094 175.068 149.436 175.341 148.621C175.409 148.34 175.454 148.051 175.474 147.76C175.382 143.687 175.275 139.613 175.181 135.56C175.135 133.61 175.155 131.658 175.051 129.713C174.884 126.565 174.599 123.423 174.437 120.275C174.176 115.226 173.981 110.172 173.744 105.123C173.691 103.99 173.524 102.861 173.502 101.728C173.36 94.4494 173.162 87.168 173.15 79.8893C173.15 75.427 173.413 70.9648 173.599 66.5052C173.662 65.6215 173.801 64.7466 174.012 63.8925C174.128 63.3629 174.481 63.0288 175.16 62.9636C175.307 63.6453 175.486 64.3216 175.587 65.0033C175.628 65.4944 175.646 65.9876 175.64 66.4808C175.841 69.9001 176.063 73.3168 176.247 76.7361C176.425 80.0577 176.515 83.3847 176.742 86.7036C176.952 89.7481 177.283 92.7845 177.587 95.8209C177.687 96.7765 177.83 97.7256 178.017 98.6645C178.051 98.9148 178.168 99.1414 178.344 99.2994C178.52 99.4575 178.742 99.5353 178.967 99.5173C179.084 99.5202 179.2 99.497 179.309 99.4491C179.418 99.4011 179.518 99.3294 179.602 99.2379C179.686 99.1465 179.753 99.0373 179.8 98.9165C179.846 98.7957 179.871 98.6658 179.873 98.5342C179.866 98.0473 179.822 97.562 179.74 97.0839C179.59 95.495 179.276 93.8981 179.334 92.3201C179.423 89.7644 179.749 87.2169 179.998 84.6693C180.1 83.6291 180.264 82.5971 180.399 81.5623C180.655 82.2087 180.728 82.8578 180.899 83.477C181.165 84.4493 181.95 84.9681 182.689 84.5335C184.003 83.7622 185.308 83.9768 186.668 84.2266C187.97 84.4656 189.265 84.9871 190.627 84.4412C191.144 84.2375 191.743 84.2701 192.318 84.2457C193.371 84.2022 194.43 84.2728 195.476 84.1615C196.683 84.0338 197.109 83.439 197.229 82.0974C197.227 81.8268 197.277 81.5589 197.377 81.3124C197.522 81.0409 197.763 80.6905 197.985 80.6688C198.129 80.6851 198.267 80.7407 198.387 80.8307C198.507 80.9206 198.605 81.0422 198.674 81.1848C198.968 81.9272 199.179 82.7082 199.3 83.5096C199.575 85.753 199.734 88.0154 200 90.2614C200.314 92.9013 200.696 95.5303 201.034 98.1675C201.116 98.7672 201.162 99.3724 201.172 99.979C201.172 100.639 201.505 101.196 202.029 101.28C202.161 101.302 202.295 101.293 202.424 101.253C202.552 101.213 202.672 101.143 202.774 101.048C202.877 100.953 202.961 100.834 203.02 100.7C203.08 100.566 203.113 100.419 203.119 100.27C203.14 99.5828 203.095 98.8953 202.986 98.2191C202.87 97.3663 202.655 96.5325 202.544 95.6797C202.242 93.3603 202.095 91.0056 201.657 88.7215C201.235 86.5243 201.288 84.3597 201.527 82.187C201.904 78.7676 202.138 75.3972 201.285 71.9914C200.701 69.6801 200.172 67.3743 198.845 65.4215C198.594 65.0893 198.422 64.6904 198.347 64.2626C198.271 63.8348 198.294 63.3923 198.413 62.9772C198.587 63.0614 198.71 63.1076 198.821 63.1782C200.116 63.993 200.841 65.3835 201.384 66.8257C202.051 68.5883 202.529 70.4406 203.044 72.2738C203.357 73.298 203.593 74.3501 203.749 75.4189C204.128 78.5169 204.459 81.6239 204.745 84.74C204.96 87.0947 205.172 89.463 205.204 91.8258C205.276 97.6488 205.242 103.474 205.247 109.297C205.247 109.593 205.23 109.889 205.218 110.185C205.066 113.629 204.783 117.076 204.79 120.506C204.79 124.58 205.088 128.638 205.187 132.706C205.225 134.251 205.073 135.805 205.005 137.356C204.92 137.831 204.864 138.312 204.836 138.795C204.836 141.277 204.856 143.757 204.873 146.239L204.856 146.242ZM188.869 91.652C189.246 92.0823 189.601 92.5357 189.934 93.01C190.345 93.6645 190.944 93.9551 191.436 93.6509C191.929 93.3467 191.968 92.7628 191.625 91.967C191.086 90.7096 189.992 90.1392 189.088 89.3489C188.644 88.9578 187.965 89.1832 187.678 89.8187C187.276 90.7146 186.949 91.6501 186.699 92.6134C186.66 92.7486 186.647 92.8916 186.66 93.033C186.674 93.1744 186.714 93.311 186.778 93.4337C186.842 93.5564 186.928 93.6625 187.031 93.7449C187.134 93.8273 187.252 93.8841 187.376 93.9116C187.96 94.023 188.277 93.6401 188.463 93.0806C188.596 92.6895 188.69 92.2821 188.869 91.6411V91.652ZM183.699 90.5466C183.701 90.4109 183.678 90.2763 183.631 90.1511C183.585 90.026 183.515 89.913 183.428 89.8194C183.341 89.7258 183.237 89.6535 183.124 89.6071C183.01 89.5607 182.889 89.5412 182.769 89.5499C182.117 89.5716 181.542 90.1229 181.537 90.7286C181.539 90.8704 181.566 91.0104 181.617 91.14C181.669 91.2696 181.743 91.386 181.836 91.4823C181.928 91.5786 182.037 91.6527 182.156 91.7001C182.275 91.7475 182.401 91.7671 182.527 91.7579C182.827 91.7704 183.119 91.6487 183.338 91.4195C183.558 91.1903 183.688 90.8725 183.699 90.5358V90.5466ZM194.997 88.5694C194.723 88.5861 194.464 88.7172 194.271 88.9372C194.078 89.1572 193.965 89.4502 193.954 89.759C193.951 89.8882 193.971 90.0168 194.013 90.137C194.056 90.2572 194.119 90.3666 194.2 90.4586C194.28 90.5506 194.377 90.6234 194.483 90.6726C194.589 90.7218 194.703 90.7464 194.818 90.7449C195.093 90.7252 195.351 90.5924 195.544 90.372C195.737 90.1515 195.851 89.8588 195.864 89.5499C195.869 89.4197 195.85 89.2898 195.808 89.1682C195.766 89.0467 195.703 88.936 195.622 88.8431C195.54 88.7502 195.443 88.677 195.336 88.6281C195.228 88.5791 195.113 88.5555 194.997 88.5586V88.5694Z" fill="#FEFEFE"/>
<path d="M152.148 149.656C152.162 149.895 152.179 150.137 152.198 150.471C151.974 150.493 151.749 150.531 151.522 150.531C141.548 150.531 131.571 150.531 121.594 150.563C120.662 150.563 120.848 149.868 120.657 149.349C120.608 146.959 120.483 144.564 120.531 142.177C120.611 138.304 120.848 134.436 120.942 130.566C121.065 125.558 121.116 120.55 121.2 115.539C121.2 115.221 121.251 114.9 121.266 114.58C121.414 111.254 121.561 107.928 121.708 104.602C121.819 102.136 121.78 99.6478 122.092 97.2143C122.867 91.1822 123.783 85.1773 124.679 79.1642C125.425 74.2704 126.675 69.4908 128.404 64.9219C128.484 64.7073 128.573 64.4982 128.66 64.2864C128.744 64.3756 128.811 64.4824 128.858 64.6008C128.904 64.7191 128.93 64.8467 128.933 64.9762C128.894 66.1821 128.873 67.3907 128.766 68.5911C128.607 70.3809 128.331 72.1599 128.196 73.9551C127.805 79.2104 127.471 84.4739 127.09 89.7346C127.005 90.9378 126.868 92.1355 126.749 93.3387C126.423 96.72 126.082 100.101 125.783 103.485C125.691 104.488 126.039 105.039 126.665 105.096C127.29 105.153 127.703 104.618 127.812 103.608C127.921 102.597 128.039 101.649 128.191 100.68C128.624 97.934 129.083 95.1936 129.518 92.4478C129.759 90.8699 129.935 89.2729 130.242 87.714C130.414 86.8612 130.82 86.0681 131.122 85.2479L131.363 85.305C131.486 86.2745 131.576 87.2523 131.747 88.211C131.865 89.0037 132.066 89.7777 132.346 90.5168C132.663 91.2773 133.148 91.2909 133.827 90.9079C134.199 90.744 134.597 90.6699 134.996 90.6906C135.363 90.6906 135.74 90.8726 136.098 90.8292C137.052 90.7205 137.999 90.5413 138.946 90.3756C140.002 90.1936 141.06 90.0252 142.108 89.7998C142.925 89.626 143.236 89.2186 143.316 88.3006C143.376 87.6379 143.352 86.9671 143.422 86.3044C143.488 85.9937 143.587 85.6935 143.719 85.4109C143.942 85.5874 144.002 85.6825 144.017 85.8101C144.385 88.5369 144.751 91.2637 145.113 93.9905C145.297 95.3485 145.459 96.7227 145.679 98.0807C146 100.069 146.386 102.043 146.698 104.031C146.828 104.862 147.101 105.3 147.664 105.264C148.227 105.229 148.599 104.721 148.58 103.955C148.562 103.316 148.495 102.68 148.379 102.054C148.041 100.245 147.584 98.4582 147.319 96.6222C146.927 93.928 146.679 91.2067 146.331 88.5016C146.162 87.1844 146.089 85.802 145.64 84.5961C145.287 83.5423 145.109 82.4249 145.113 81.299C145.118 80.6085 145.085 79.9183 145.017 79.2321C144.492 75.4624 145.017 71.7579 145.543 68.0561C145.579 67.7845 145.785 67.5536 145.908 67.3038L146.111 67.3581C146.208 67.8307 146.333 68.3005 146.398 68.7785C146.51 69.5933 146.582 70.3945 146.669 71.2011C146.853 72.866 147.109 74.5227 147.2 76.193C147.343 78.7433 147.925 81.2555 147.737 83.8411C147.705 84.2403 147.882 84.6558 147.954 85.0687C148.041 85.5521 148.145 86.0355 148.196 86.5217C148.403 88.7306 148.6 90.9396 148.785 93.1486C148.899 94.5065 148.976 95.8645 149.073 97.2062C149.263 99.9221 149.466 102.616 149.643 105.321C149.759 107.065 149.852 108.81 149.923 110.555C150.061 113.98 150.164 117.407 150.307 120.832C150.379 122.557 150.483 124.281 150.655 125.992C150.94 128.86 151.493 131.715 151.566 134.586C151.689 139.624 151.599 144.653 152.148 149.656ZM139.634 99.3436C140.101 99.808 140.555 100.093 141.04 99.6315C141.526 99.1698 141.449 98.5315 141.224 97.9313C141.146 97.755 141.049 97.5907 140.934 97.4424C140.734 97.1518 140.519 96.8694 140.32 96.5761C139.683 95.6309 138.724 95.7097 138.296 96.7988C138.041 97.4797 137.85 98.1888 137.726 98.9145C137.656 99.2743 137.704 99.6506 137.861 99.9737C137.952 100.13 138.072 100.262 138.212 100.362C138.353 100.461 138.511 100.525 138.675 100.549C138.946 100.549 139.224 100.175 139.465 99.9248C139.56 99.8243 139.562 99.6152 139.634 99.3436ZM142.444 94.0801C143.043 94.0665 143.599 93.4908 143.587 92.896C143.564 92.598 143.441 92.3212 143.241 92.1233C143.042 91.9254 142.782 91.8218 142.516 91.8341C142.379 91.8275 142.242 91.8531 142.114 91.9094C141.986 91.9657 141.869 92.0514 141.772 92.161C141.675 92.2706 141.6 92.4018 141.55 92.5461C141.501 92.6904 141.478 92.8447 141.485 92.9992C141.484 93.1413 141.507 93.2823 141.555 93.4139C141.603 93.5455 141.673 93.6652 141.763 93.7658C141.852 93.8664 141.958 93.946 142.075 94C142.192 94.054 142.317 94.0812 142.444 94.0801ZM134.873 94.0638C134.867 93.9216 134.836 93.7823 134.78 93.6543C134.725 93.5263 134.647 93.4124 134.551 93.3194C134.455 93.2264 134.343 93.1563 134.223 93.1134C134.102 93.0704 133.975 93.0556 133.849 93.0698C133.593 93.0698 133.347 93.1843 133.166 93.388C132.984 93.5917 132.883 93.868 132.883 94.1562C132.894 94.433 133.002 94.6937 133.183 94.8825C133.363 95.0713 133.602 95.1732 133.849 95.1665C134.113 95.1701 134.367 95.0562 134.557 94.8497C134.747 94.6431 134.856 94.3606 134.861 94.0638H134.873Z" fill="#FEFEFE"/>
<path d="M45.026 153.947C44.9776 152.767 44.9301 151.59 44.8834 150.417C44.8931 150.071 44.8721 149.725 44.8206 149.384C43.9027 145.311 44.0162 141.177 43.9365 137.035C43.893 134.626 43.6394 132.223 43.4823 129.816C43.4485 129.297 43.3954 128.781 43.3881 128.263C43.3326 123.917 43.3398 119.572 43.219 115.226C43.1055 111.261 42.847 107.298 42.6707 103.333C42.5571 100.796 42.4798 98.2571 42.3832 95.7286C42.3494 94.8893 42.3325 94.0501 42.2648 93.2163C42.1006 91.1821 41.9121 89.1424 41.7334 87.1191C41.7276 86.9216 41.7107 86.7247 41.6826 86.5297C41.1681 84.0093 40.6366 81.4917 40.1318 78.9658C39.8419 77.5237 39.5979 76.0679 39.3129 74.6204C39.0713 73.371 38.7911 72.1271 38.5181 70.8832C38.4935 70.6859 38.4244 70.499 38.3176 70.34C38.1751 70.1744 37.9528 69.9734 37.7837 69.9897C37.6146 70.006 37.431 70.2993 37.4093 70.4949C37.24 71.5541 37.1431 72.6264 37.1194 73.7024C37.1653 75.9593 37.361 78.2162 37.4238 80.4759C37.5663 84.7399 37.547 89.0175 37.832 93.2706C38.0543 96.5814 38.6365 99.8649 39.0544 103.159C39.1317 103.77 39.2235 104.379 39.2476 104.993C39.2718 105.606 39.0278 106.131 38.4239 106.217C37.82 106.304 37.489 105.881 37.3465 105.267C37.1919 104.599 37.0711 103.909 36.9213 103.252C36.1845 99.9763 35.4357 96.7036 34.7037 93.4254C34.5008 92.5156 34.438 91.5542 34.136 90.6932C33.6932 89.5241 33.1915 88.3843 32.6335 87.2793C32.5441 87.0865 32.3073 86.9833 31.9812 86.709C31.6551 87.8551 31.3531 88.8681 31.085 89.892C30.9618 90.3646 30.9231 90.8616 30.8096 91.3396C30.7362 91.6898 30.5745 92.0087 30.344 92.2582C30.1135 92.5077 29.824 92.6772 29.51 92.7465C27.0749 93.458 24.6472 94.1941 22.217 94.9192C21.8586 95.0384 21.4888 95.1086 21.1154 95.1283C20.4183 95.1307 19.7405 95.386 19.1829 95.8562C17.876 96.9127 16.0062 96.2093 15.6584 94.4548C15.3685 92.999 15.3661 91.4673 15.2501 89.9762C15.1994 89.3516 15.1849 88.7242 15.1535 88.0968L14.9288 88.0262C14.7648 88.2514 14.6335 88.5044 14.5399 88.7758C14.2597 90.2668 13.9408 91.7633 13.7814 93.2625C13.419 96.6655 13.1243 100.079 12.8393 103.493C12.6895 105.31 12.6146 107.135 12.5035 108.958C12.4943 109.13 12.4717 109.301 12.4358 109.468C12.2933 110.077 11.9865 110.522 11.3802 110.465C10.7738 110.408 10.5178 109.922 10.4936 109.286C10.4357 107.684 10.3439 106.079 10.3656 104.477C10.426 99.7155 10.3849 94.9437 10.6651 90.1962C10.9437 85.616 10.9663 81.0207 10.7328 76.4373C10.6627 75.1364 10.2158 73.8599 9.94285 72.5698L9.72059 72.4422C9.47902 72.7355 9.13601 72.9854 9.04422 73.3276C8.70119 74.5742 8.31949 75.8317 8.17696 77.1299C7.69382 81.4075 7.21069 85.6932 6.85558 89.9898C6.01975 99.9926 6.32413 110.017 6.7348 120.028C6.89423 123.942 7.4595 127.831 7.79045 131.736C8.06101 134.805 8.30258 137.877 8.51516 140.952C8.75673 144.466 8.94515 147.986 9.17464 151.503C9.2302 152.361 9.36309 153.214 9.44039 154.072C9.53702 155.159 9.61431 156.272 9.70128 157.372C9.66021 157.733 9.60465 158.097 9.58049 158.458C9.53943 159.04 9.33893 159.499 8.77608 159.52C8.21322 159.542 7.96682 159.107 7.86777 158.545C7.85402 158.447 7.84515 158.348 7.8412 158.249C7.59963 153.532 7.38703 148.809 7.06333 144.097C6.82176 140.68 6.40384 137.28 6.09705 133.871C5.63807 128.62 5.19923 123.363 4.78051 118.1C4.6718 116.725 4.61865 115.34 4.62348 113.958C4.64039 107.195 4.55828 100.43 4.76361 93.6726C4.92382 88.0473 5.44535 82.4425 6.32414 76.9017C6.40869 76.3585 6.49805 75.8371 6.57777 75.3021C6.57777 75.2613 6.5488 75.2124 6.50774 75.0956C6.10432 75.0739 5.66949 75.044 5.23708 75.0332C3.95435 74.9951 3.30452 74.4764 3.06295 73.056C2.80448 71.4563 2.76824 69.7969 2.46145 68.2243C1.95898 65.6333 2.10391 63.0206 2.02419 60.4106C2.00004 59.699 1.86476 58.9929 1.81403 58.2813C1.57246 54.938 1.29948 51.6001 1.1473 48.2541C1.01926 45.4947 0.956463 42.7245 1.03377 39.9651C1.15938 35.4539 1.42027 30.9482 1.62802 26.4425C1.65459 25.8748 1.69324 25.3099 1.71498 24.7423C1.83093 21.9829 1.94367 19.2235 2.05318 16.4641C2.09666 15.3425 3.58958 13.588 4.76119 13.3816C6.06084 13.1507 7.36771 13.0041 8.67219 12.8139C10.4067 12.5614 12.1411 12.3169 13.8732 12.0453C14.8878 11.8851 15.9024 11.4831 16.9049 11.5293C18.8012 11.6189 20.6903 11.9584 22.5842 12.1838C23.1736 12.2545 23.763 12.287 24.3525 12.3495C25.9871 12.5306 27.6217 12.7116 29.2563 12.8927C29.429 12.9275 29.6031 12.952 29.7781 12.966C32.7494 12.9117 35.5758 14.0225 38.4988 14.324C40.168 14.4978 41.127 15.6467 41.5377 17.3495C41.8621 18.674 42.0811 20.0282 42.1924 21.3963C42.3325 23.2594 42.376 25.1361 42.376 27.0074C42.376 29.5712 42.1972 32.1405 42.2648 34.7016C42.3566 38.1264 42.3784 41.5838 42.8543 44.9515C43.434 49.0444 43.4654 53.1482 43.6853 57.252C43.8616 60.5491 44.0814 63.8435 44.2626 67.1434C44.3182 68.1755 44.3254 69.2129 44.3254 70.2504C44.3254 71.7469 43.8012 72.4992 42.4774 72.7545C40.8927 73.0614 40.8299 72.8577 41.2406 74.9273C41.9846 78.678 42.7359 82.4287 43.4703 86.1821C43.5248 86.596 43.5587 87.0131 43.5717 87.4314C43.7231 89.1461 43.8769 90.8598 44.0331 92.5726C44.0911 93.2353 44.1756 93.8953 44.2022 94.5607C44.3737 98.526 44.5308 102.491 44.6854 106.459C44.6854 106.581 44.7071 106.704 44.7095 106.829C44.8689 113.586 44.997 120.343 45.1926 127.098C45.282 130.025 45.5357 132.948 45.712 135.87C45.7362 136.264 45.7555 136.658 45.7676 137.054L46.0357 146.147C46.0333 146.171 46.0333 146.196 46.0357 146.22C46.7025 148.48 46.6783 150.837 46.7749 153.168C46.8242 153.556 46.9125 153.937 47.0382 154.303C47.2049 154.952 47.1808 155.525 46.5937 155.911C45.9415 156.34 45.2869 156.017 45.1443 155.18C45.1057 154.776 45.0743 154.36 45.026 153.947ZM7.0561 73.2135C7.32908 71.6627 8.22287 70.704 9.6433 70.226C10.5733 69.9191 11.1869 70.1228 11.5179 71.1657C11.6819 71.677 11.8103 72.2018 11.902 72.7355C11.9793 73.2135 12.1556 73.4851 12.6098 73.5258C13.4625 73.6073 14.3008 73.7377 15.1632 73.8164C17.4436 74.0201 19.7071 73.8382 21.9899 73.6073C26.2029 73.1782 30.4448 72.9962 34.6602 72.7301C35.0757 72.7029 35.2231 72.5291 35.2714 72.0728C35.339 71.2884 35.4609 70.5111 35.6362 69.748C35.9744 68.409 36.7208 67.7572 37.791 67.7409C38.7403 67.7273 39.8636 68.6562 40.1922 69.7317C40.3178 70.1472 40.3299 70.7447 40.5859 70.9348C40.842 71.1249 41.3106 70.8316 41.702 70.8235C42.3228 70.8099 42.545 70.5084 42.5088 69.8077C42.318 66.2145 42.202 62.6159 41.9677 59.0255C41.6585 54.2617 41.6706 49.4844 41.0014 44.7315C40.5183 41.2008 40.5183 37.5588 40.4289 33.9629C40.3661 31.6978 40.5497 29.4273 40.5473 27.1568C40.5473 25.2375 40.4829 23.3173 40.354 21.3963C40.259 20.2441 40.0854 19.1019 39.8346 17.9796C39.6341 17.0236 39.1244 16.3854 38.1437 16.2958C35.3052 16.0242 32.5682 14.9161 29.6887 14.9813C29.404 14.9554 29.1209 14.911 28.8408 14.8482C27.3383 14.6834 25.8341 14.5223 24.3283 14.3647C23.6736 14.2968 23.0142 14.2751 22.3619 14.1936C20.6202 13.9791 18.8857 13.6776 17.1416 13.5472C16.3783 13.4902 15.5932 13.7618 14.8201 13.884C14.4095 13.9492 13.9988 14.0361 13.5857 14.0823C12.6919 14.1828 11.7908 14.2154 10.9043 14.3539C9.30268 14.6255 7.71075 14.9568 6.11156 15.2175C5.44241 15.3262 4.72253 15.2175 4.47129 16.1953C4.43989 16.3148 4.26356 16.38 4.18868 16.494C4.04659 16.6599 3.94431 16.8636 3.89152 17.0861C3.77798 18.8324 3.69103 20.5815 3.60649 22.3306C3.3939 26.7385 3.09436 31.1465 3.00014 35.5571C2.89627 40.4458 2.92524 45.3345 3.01462 50.2232C3.06052 52.6675 3.36973 55.1336 3.56057 57.5888C3.6572 58.8408 3.778 60.0901 3.84322 61.3449C3.93502 63.0396 3.95193 64.7425 4.06306 66.4373C4.13069 67.491 4.30461 68.5367 4.43747 69.5877C4.55101 70.5139 4.67905 71.4427 4.78535 72.3716C4.78829 72.4576 4.80681 72.5421 4.83981 72.6199C4.87281 72.6976 4.91959 72.7669 4.97726 72.8236C5.03493 72.8803 5.10229 72.9232 5.17521 72.9496C5.24813 72.976 5.32507 72.9854 5.40133 72.9772C5.9352 73.0152 6.4401 73.1239 7.0561 73.2135ZM12.6967 88.1511C12.9383 87.6514 13.0736 87.3363 13.2427 87.0647C13.7451 86.2174 14.8467 85.7068 15.6584 85.9349C16.4145 86.1468 16.8445 86.804 16.9556 88.0207C17.0233 88.7568 17.0281 89.4982 17.0716 90.2369C17.1368 91.2934 17.1754 92.3554 17.289 93.4064C17.3832 94.2538 17.8228 94.4602 18.4292 93.9279C19.0355 93.3956 19.7916 93.2 20.5671 93.0968C21.236 92.9863 21.8989 92.834 22.5528 92.6405C23.0842 92.502 23.606 92.3146 24.1375 92.1625C25.5555 91.7633 26.9735 91.3478 28.3963 90.9811C28.9858 90.829 29.121 90.3972 29.2781 89.7942C29.6244 88.343 30.0653 86.9223 30.597 85.5438C31.0947 84.2999 31.9595 84.2021 32.9765 84.9382C33.9935 85.6742 34.6675 86.7144 35.1844 87.9012C35.298 88.1593 35.4453 88.3983 35.6386 88.7622C35.675 88.6319 35.7017 88.4983 35.7183 88.363C35.6893 85.207 35.6821 82.0484 35.612 78.8898C35.5879 77.7871 35.3922 76.6872 35.31 75.5818C35.2641 74.9544 35.0153 74.7426 34.4621 74.786C32.7132 74.9245 30.9618 75.025 29.2128 75.1391C28.6886 75.1717 28.162 75.1961 27.6378 75.2369C24.2703 75.4922 20.9077 75.8045 17.5378 75.9783C16.1874 76.0489 14.825 75.8072 13.4674 75.723C12.588 75.6714 12.5929 75.685 12.6025 76.6437C12.638 80.0223 12.6726 83.4009 12.7064 86.7796C12.6991 87.1679 12.6967 87.5536 12.6967 88.1565V88.1511Z" fill="#736262"/>
<path d="M152.148 149.656C151.599 144.653 151.689 139.623 151.563 134.602C151.491 131.731 150.937 128.877 150.652 126.009C150.481 124.295 150.377 122.57 150.304 120.848C150.155 117.423 150.063 113.996 149.92 110.571C149.851 108.824 149.758 107.079 149.64 105.338C149.464 102.622 149.261 99.9274 149.07 97.2224C148.973 95.8644 148.896 94.5064 148.783 93.1648C148.599 90.954 148.403 88.7451 148.193 86.5379C148.147 86.0518 148.043 85.5683 147.952 85.0849C147.879 84.6748 147.71 84.2565 147.734 83.8573C147.927 81.2717 147.34 78.7595 147.198 76.2092C147.106 74.5389 146.85 72.8822 146.666 71.2173C146.579 70.4026 146.507 69.5878 146.396 68.7947C146.331 68.3167 146.205 67.8469 146.108 67.3743L145.906 67.32C145.78 67.5698 145.577 67.8061 145.541 68.0723C145.019 71.7741 144.49 75.4786 145.014 79.2483C145.083 79.9345 145.115 80.6247 145.111 81.3152C145.106 82.4411 145.285 83.5586 145.637 84.6123C146.079 85.8182 146.159 87.2006 146.328 88.5178C146.676 91.2337 146.925 93.9497 147.316 96.6384C147.582 98.4608 148.041 100.248 148.377 102.07C148.493 102.696 148.56 103.332 148.577 103.971C148.597 104.729 148.2 105.245 147.662 105.281C147.123 105.316 146.833 104.879 146.695 104.048C146.384 102.059 145.997 100.085 145.676 98.0969C145.456 96.7389 145.294 95.381 145.111 94.0067C144.747 91.2799 144.381 88.5531 144.014 85.8263C144 85.7123 143.939 85.6036 143.717 85.4271C143.585 85.7097 143.485 86.0099 143.42 86.3206C143.35 86.9833 143.374 87.6541 143.313 88.3168C143.231 89.2348 142.92 89.6422 142.106 89.816C141.057 90.0415 139.999 90.2098 138.943 90.3918C137.997 90.5575 137.05 90.7367 136.095 90.8454C135.738 90.8888 135.371 90.6987 134.994 90.7069C134.595 90.6862 134.196 90.7602 133.825 90.9241C133.146 91.3071 132.66 91.2935 132.344 90.533C132.063 89.794 131.862 89.0199 131.745 88.2272C131.573 87.2685 131.484 86.2908 131.361 85.3212L131.119 85.2641C130.817 86.0789 130.411 86.8774 130.24 87.7302C129.921 89.2891 129.757 90.8861 129.515 92.4641C129.08 95.2099 128.621 97.9502 128.189 100.696C128.037 101.666 127.916 102.643 127.81 103.624C127.703 104.604 127.307 105.169 126.662 105.112C126.017 105.055 125.696 104.504 125.78 103.502C126.085 100.118 126.425 96.7362 126.747 93.3549C126.865 92.1517 127.003 90.954 127.087 89.7508C127.462 84.4901 127.812 79.2266 128.194 73.9713C128.329 72.1761 128.604 70.3971 128.764 68.6073C128.87 67.4069 128.892 66.1983 128.93 64.9924C128.927 64.8629 128.902 64.7353 128.855 64.617C128.808 64.4986 128.741 64.3918 128.657 64.3026C128.57 64.5144 128.481 64.7236 128.401 64.9381C126.673 69.507 125.422 74.2866 124.676 79.1805C123.787 85.1935 122.865 91.1984 122.089 97.2305C121.778 99.6749 121.816 102.152 121.705 104.618C121.552 107.942 121.405 111.268 121.263 114.596C121.249 114.917 121.205 115.237 121.198 115.555C121.113 120.566 121.063 125.574 120.939 130.582C120.845 134.452 120.608 138.32 120.529 142.193C120.48 144.58 120.606 146.975 120.654 149.366C120.744 150.338 120.831 151.31 120.927 152.282C120.947 152.478 121.009 152.665 121.036 152.858C121.116 153.442 121.053 153.988 120.454 154.146C119.855 154.303 119.509 153.874 119.379 153.331C119.152 152.361 119.012 151.367 118.835 150.381C118.782 149.648 118.731 148.917 118.681 148.184C118.681 146.161 118.574 144.129 118.714 142.117C119.091 136.685 119.057 131.269 119.152 125.84C119.253 120.137 119.601 114.458 119.818 108.762C119.905 106.519 119.934 104.273 119.978 102.03C120.058 97.8959 120.577 93.822 121.229 89.7617C121.954 85.2696 122.505 80.7394 123.341 76.2771C123.901 73.2896 124.812 70.3971 125.602 67.4748C125.824 66.66 125.843 66.3884 125.082 66.1494C124.077 65.8425 123.034 65.6904 122.005 65.4922C121.379 65.3754 120.736 65.3455 120.12 65.1907C119.224 64.968 118.628 64.3759 118.548 63.276C118.386 61.038 118.178 58.8028 118.089 56.5622C117.767 48.5502 117.477 40.5373 117.219 32.5235C117.038 26.8689 117.258 21.2225 117.55 15.5761C117.688 12.89 117.722 10.1985 117.775 7.50977C117.792 6.76289 118.077 6.25501 118.514 5.70639C119.403 4.55325 120.501 3.62723 121.734 2.99046C122.985 2.36037 124.304 1.90409 125.599 1.3609C126.423 1.02141 127.227 0.614023 128.07 0.35601C128.767 0.140936 129.484 0.0250531 130.206 0.0110852C133.129 -0.0405174 136.066 0.0626889 138.902 0.86932C141.164 1.51028 143.473 1.36905 145.739 1.82261C148.087 2.29247 150.474 2.50703 152.822 2.96602C154.418 3.27563 155.986 3.7808 157.264 5.02741C157.525 5.25188 157.812 5.43468 158.117 5.57059C158.883 5.96984 159.276 6.64067 159.214 7.57224C159.081 9.51141 158.904 11.4479 158.75 13.3843C158.614 15.0492 158.313 16.7222 158.378 18.3789C158.553 22.8337 158.376 27.2973 157.849 31.7169C157.297 36.165 157.019 40.6506 157.018 45.1417C157.042 50.2476 156.853 55.3563 156.745 60.4623C156.718 61.7197 156.624 62.9745 156.588 64.2293C156.561 65.2178 156.163 65.924 155.317 66.1467C153.894 66.5242 152.44 66.7551 151.02 67.138C150.154 67.3975 149.306 67.727 148.483 68.1239C148.343 68.1891 148.225 68.572 148.241 68.792C148.386 70.3863 148.57 71.9751 148.739 73.5666C148.841 74.5199 148.93 75.4678 149.034 76.4292C149.126 77.2576 149.227 78.0859 149.329 78.9143C149.384 79.3543 149.534 79.7997 149.498 80.2288C149.256 82.9936 149.966 85.6607 150.147 88.3766C150.474 93.2951 150.935 98.2028 151.336 103.116C151.384 103.705 151.428 104.295 151.462 104.887C151.616 107.641 151.776 110.392 151.911 113.149C151.998 114.898 152.116 116.649 152.099 118.398C152.086 121.754 152.318 125.105 152.795 128.418C153.27 131.633 153.492 134.889 153.459 138.149C153.406 140.685 153.51 143.228 153.597 145.767C153.65 147.291 153.819 148.811 153.901 150.335C153.916 150.607 153.817 151.079 153.686 151.123C153.546 151.165 153.4 151.172 153.257 151.141C153.114 151.111 152.98 151.046 152.863 150.949C152.561 150.593 152.382 150.096 152.148 149.656ZM118.99 34.8375C119.207 40.3589 119.403 45.8831 119.649 51.4046C119.809 54.9761 120.026 58.5475 120.251 62.1163C120.323 63.2325 120.389 63.3058 121.41 63.3765C122.988 63.4878 124.57 63.5095 126.041 64.2917C126.382 64.471 126.636 64.3433 126.737 63.9088C126.979 62.8631 127.674 62.1842 128.355 61.5432C128.66 61.258 129.252 61.0679 129.59 61.2064C129.928 61.3449 130.172 61.9234 130.353 62.3634C130.511 62.7696 130.593 63.2076 130.595 63.6508C130.614 64.9816 131.24 65.5003 132.361 65.5709C133.535 65.647 134.694 65.9647 135.873 65.5302C136.484 65.3075 137.141 65.0658 137.767 65.1011C139.796 65.2179 141.821 65.4378 143.843 65.6606C144.386 65.7203 144.661 65.5573 144.901 64.9843C145.384 63.8028 146.418 63.7159 147.164 64.7317C147.246 64.8458 147.295 65.0169 147.406 65.0875C147.84 65.3754 148.179 66.106 148.778 65.7665C150.01 65.063 151.348 65.0033 152.665 64.7833C153.249 64.6916 153.824 64.5417 154.385 64.3352C154.487 64.266 154.574 64.1717 154.638 64.0592C154.703 63.9467 154.745 63.8191 154.759 63.6861C154.848 62.5318 154.916 61.3748 154.938 60.2151C155.049 54.6637 155.085 49.1124 155.262 43.5637C155.382 39.7451 155.653 35.932 155.935 32.1242C156.093 29.9868 156.535 27.8738 156.626 25.7364C156.73 23.3762 156.515 20.9998 156.561 18.6315C156.6 16.7684 156.803 14.9052 156.967 13.0475C157.083 11.7466 157.25 10.4538 157.399 9.15834C157.523 8.07197 157.399 7.15127 156.315 6.76289C156.254 6.73395 156.2 6.69038 156.155 6.63524C155.138 5.64664 153.889 5.21481 152.621 4.97309C150.292 4.52768 147.927 4.3104 145.616 3.84055C143.304 3.37069 140.907 3.53637 138.581 2.86553C135.815 2.06976 132.94 1.98285 130.083 2.01273C129.666 2.00639 129.252 2.07235 128.853 2.20828C127.281 2.80578 125.747 3.56624 124.15 4.04968C122.481 4.56027 121.251 5.73627 120.077 7.0209C119.844 7.30338 119.698 7.66214 119.659 8.04481C119.582 8.80255 119.601 9.57388 119.579 10.3371C119.328 18.5011 118.659 26.6544 118.99 34.8375ZM133.665 88.5613C134.182 88.5613 134.68 88.5314 135.17 88.5613C135.733 88.6047 136.301 88.8329 136.861 88.765C138.077 88.6424 139.287 88.4475 140.485 88.181C141.589 87.9393 141.591 87.8823 141.596 86.6112C141.596 85.2668 141.922 84.1397 143.072 83.458C143.231 83.3603 143.335 82.9637 143.326 82.7112C143.268 81.2093 143.181 79.7073 143.084 78.2081C142.894 75.105 143.064 71.9872 143.589 68.9332C143.797 67.6948 143.772 67.7328 142.685 67.6731C141.794 67.6242 140.91 67.4531 140.028 67.3281C139.659 67.2792 139.303 67.1733 138.924 67.157C138.009 67.119 137.139 67.1353 136.226 67.5373C134.897 68.1239 133.45 67.8224 132.064 67.5889C131.155 67.4368 130.762 67.6187 130.641 68.6046C130.455 70.1201 130.254 71.6356 130.146 73.1565C129.904 76.6736 129.691 80.1935 129.474 83.7106C129.497 83.8868 129.537 84.0597 129.592 84.2266C129.724 83.9949 129.873 83.7759 130.037 83.5721C131.175 82.4341 132.426 82.7573 132.96 84.3624C133.113 84.8506 133.226 85.3533 133.298 85.8644C133.428 86.7633 133.54 87.665 133.665 88.5613Z" fill="#736262"/>
<path d="M104.563 150.723C104.481 150.101 104.377 149.482 104.322 148.855C104.114 146.652 103.909 144.447 103.723 142.242C103.425 138.733 103.15 135.221 102.853 131.712C102.672 129.553 102.459 127.394 102.278 125.234C102.116 123.333 101.988 121.408 101.831 119.498C101.662 117.486 101.469 115.476 101.305 113.464C101.225 112.483 101.138 111.5 101.138 110.517C101.138 107.089 101.189 103.681 100.722 100.256C100.367 97.6623 100.466 94.9898 100.35 92.3526C100.176 88.3602 100.012 84.3678 99.8019 80.3754C99.6328 77.1163 99.4396 73.8789 99.1763 70.6388C99.0676 69.2971 98.7487 67.9744 98.5144 66.6463C98.4913 66.4753 98.4212 66.3167 98.3139 66.1928C98.0932 66.0087 97.8615 65.8417 97.6206 65.6931C97.4829 65.9647 97.2437 66.2091 97.222 66.4834C97.0062 69.3569 96.8137 72.2312 96.6446 75.1065C96.6116 75.8957 96.6173 76.6863 96.6615 77.4748C96.8113 81.1195 96.7896 84.7888 97.193 88.3982C97.4805 90.9648 97.3597 93.5205 97.5795 96.0707C97.71 97.5862 97.7293 99.1126 97.7776 100.633C97.7803 100.954 97.7454 101.274 97.6737 101.584C97.5505 102.203 97.2171 102.613 96.6301 102.616C96.0431 102.619 95.7122 102.192 95.5866 101.581C95.2774 100.093 94.9995 98.5938 94.6734 97.1082C94.3787 95.7693 94.0139 94.4493 93.7071 93.1104C93.224 90.9105 92.7497 88.706 92.2843 86.4971C92.1173 85.7483 91.7004 85.1006 91.1199 84.6883C90.8035 84.4384 90.545 84.4167 90.3687 84.9354C90.1271 85.6226 89.8155 86.2771 89.5449 86.9506C89.1656 87.9012 88.6293 88.295 87.721 88.1266C86.7282 87.942 85.7547 87.6541 84.7667 87.4341C84.4481 87.3662 84.1246 87.3317 83.8004 87.3309C82.3993 87.3309 80.9982 87.3037 79.5971 87.3309C78.7419 87.3444 77.8892 87.4449 77.0364 87.4694C75.8286 87.502 75.3237 87.0348 75.0749 85.6932C74.9589 85.0712 74.8696 84.4411 74.7705 83.8165L74.5942 83.7458C74.379 84.1969 74.198 84.6675 74.0531 85.1527C73.906 85.8233 73.8082 86.5064 73.7608 87.1951C73.4387 91.4736 73.1206 95.7521 72.8066 100.031C72.7655 100.595 72.7655 101.163 72.751 101.731C72.7244 102.695 72.4152 103.23 71.8379 103.295C71.2605 103.36 70.8378 102.937 70.6783 102.038C70.4738 101.105 70.3612 100.149 70.3426 99.1886C70.4633 94.1587 70.6469 89.1397 70.8088 84.1016C70.8643 82.377 70.9465 80.6524 70.9755 78.9251C71.031 75.666 71.0576 72.4068 71.0963 69.1477C71.0963 69.0255 71.0963 68.9006 71.0963 68.7784C71.0963 68.17 70.775 67.7925 70.2894 67.8522C70.0068 67.8848 69.6806 68.246 69.5164 68.5557C69.358 68.9357 69.2591 69.3437 69.2241 69.7615C68.8279 72.1108 68.3327 74.4465 68.079 76.8229C67.7988 79.4628 67.7119 82.1299 67.5959 84.786C67.4196 88.5883 67.2166 92.3743 67.1514 96.1739C67.0717 100.935 67.091 105.699 67.1297 110.46C67.1466 112.703 67.306 114.946 67.3978 117.19C67.6563 123.499 67.9317 129.808 68.1636 136.12C68.3279 140.609 68.4245 145.099 68.5743 149.588C68.6105 150.694 68.7192 151.799 68.8352 152.902C68.9004 153.507 68.8207 154.021 68.3762 154.414C67.4099 154.382 67.1683 154.202 67.0379 153.113C66.8712 151.549 66.7553 149.974 66.7021 148.399C66.4968 142.307 66.3373 136.215 66.132 130.123C66.0474 127.66 65.8687 125.199 65.76 122.733C65.6175 119.474 65.4508 116.215 65.3831 112.972C65.2913 108.507 65.2164 104.039 65.2575 99.5743C65.2889 96.2962 65.5474 93.0207 65.6561 89.7426C65.7334 87.3499 65.6247 84.9463 65.7914 82.5644C65.9919 79.6719 66.3736 76.7903 66.7142 73.9115C66.876 72.5535 67.1466 71.1955 67.3205 69.8376C67.3447 69.6502 67.1321 69.346 66.9582 69.2265C66.738 69.1153 66.4989 69.0597 66.2576 69.0635C65.2527 68.9522 64.7792 68.485 64.7164 67.3416C64.5231 63.9223 64.3685 60.5002 64.197 57.0781C64.065 54.4165 63.9321 51.7567 63.7984 49.0987C63.6994 47.1052 63.5738 45.109 63.5206 43.1237C63.4143 38.9058 63.3419 34.6853 63.2791 30.4674C63.253 29.9991 63.2921 29.529 63.395 29.0742C63.9289 27.0644 63.7694 25.022 63.7236 22.9742C63.6897 21.4967 63.8057 20.0165 63.796 18.5391C63.7864 17.0616 63.7356 15.5326 63.6535 14.0306C63.5859 12.7623 63.9941 11.6651 64.4893 10.5814C64.5884 10.3614 64.6971 10.1469 64.7816 9.91873C65.1561 8.91383 65.8059 8.56076 66.7335 8.87852C67.0722 8.97952 67.4054 9.10285 67.7312 9.24789C69.5043 10.0953 71.3547 10.1251 73.2124 9.86984C73.2778 9.85677 73.3441 9.85041 73.4105 9.85083C74.9348 9.91873 76.4591 9.95403 77.981 10.0708C79.8362 10.2148 81.6891 10.4266 83.5371 10.614C83.6893 10.6303 83.8439 10.6303 83.9961 10.6493C86.3441 10.9562 88.6898 11.2794 91.0402 11.5646C91.5433 11.6103 92.0493 11.5975 92.55 11.5266C93.3525 11.4166 94.1666 11.498 94.9391 11.7656C95.8233 12.0806 96.7944 12.0779 97.7293 12.2083C99.7826 12.4934 101.324 13.7618 101.614 16.1817C102.01 19.4815 102.58 22.7705 102.735 26.0867C103.01 31.6272 103.022 37.1839 103.165 42.7326C103.206 44.3078 103.331 45.8776 103.389 47.4502C103.464 49.498 103.534 51.5431 103.561 53.5909C103.614 57.5398 103.64 61.4888 103.665 65.435C103.665 67.1542 103.281 67.6458 101.754 67.912C101.557 67.9111 101.362 67.9526 101.179 68.0342C101.092 68.093 101.017 68.1718 100.958 68.2654C100.9 68.3589 100.86 68.4652 100.841 68.5774C100.966 71.2363 101.102 73.8952 101.278 76.5513C101.437 78.9604 101.691 81.3613 101.834 83.773C101.995 86.5052 102.075 89.2456 102.201 91.9805C102.389 95.6932 102.457 99.4113 102.87 103.116C103.131 105.476 102.942 107.896 103 110.289C103.029 111.467 103.145 112.643 103.242 113.819C103.355 115.221 103.5 116.617 103.607 118.018C103.764 120.052 103.887 122.092 104.051 124.126C104.235 126.41 104.457 128.689 104.648 130.97C104.928 134.284 105.187 137.597 105.474 140.911C105.624 142.649 105.819 144.384 105.993 146.12C106.204 148.241 106.406 150.362 106.624 152.483C106.684 153.07 106.568 153.524 106.015 153.689C105.503 153.844 105.037 153.507 104.889 152.85C104.807 152.47 104.817 152.068 104.764 151.677C104.694 151.334 104.621 151.03 104.563 150.723ZM95.0599 89.9599C95.2049 90.81 95.3474 91.6628 95.4923 92.5129L95.7049 92.4776C95.63 91.6356 95.5576 90.7937 95.4827 89.9545C95.2677 86.66 94.9512 83.371 94.8643 80.0739C94.7797 76.8148 94.9247 73.5557 94.9802 70.3101C94.9947 69.3487 94.9802 69.2102 94.1033 69.145C92.55 69.0282 90.9919 69.0337 89.4362 68.9413C87.1389 68.8082 84.8464 68.5991 82.5442 68.4932C80.9885 68.4226 79.428 68.4226 77.8723 68.4932C76.4977 68.5475 75.128 68.8055 73.7535 68.83C73.0723 68.83 72.9177 69.0364 72.9104 69.7778C72.8718 73.3275 72.7703 76.8773 72.7003 80.4297C72.6834 81.2689 72.7003 82.1109 72.7003 83.1266C73.0433 82.6785 73.2414 82.3824 73.4733 82.1244C73.7279 81.8295 74.0509 81.6205 74.4056 81.5211C74.7604 81.4218 75.1328 81.436 75.4807 81.5622C76.1547 81.7741 76.4108 82.4178 76.534 83.1293C76.6258 83.6725 76.7103 84.1967 76.7586 84.7344C76.807 85.2722 77.0461 85.4487 77.5051 85.408C78.2298 85.3428 78.9545 85.2858 79.6792 85.2749C81.0368 85.2586 82.3945 85.2586 83.7497 85.2885C84.2727 85.3033 84.7938 85.366 85.3078 85.4759C86.0325 85.6226 86.7572 85.8534 87.4819 85.9838C87.5899 85.9837 87.6963 85.9548 87.7925 85.8996C87.8886 85.8444 87.9718 85.7643 88.0351 85.666C88.3099 85.1318 88.5435 84.5721 88.7332 83.993C89.4289 81.8474 89.557 81.7496 91.3905 82.578C92.0515 82.8536 92.6407 83.3105 93.1048 83.9072C93.5688 84.5038 93.893 85.2214 94.0477 85.9946C94.3497 87.32 94.7217 88.6372 95.0599 89.9599ZM101.28 36.0813C101.326 29.544 100.674 23.0747 99.8188 16.6244C99.6328 15.2039 98.983 14.5711 97.7897 14.2642C96.4345 13.9166 95.043 13.721 93.6661 13.4793C93.5567 13.4712 93.4469 13.4712 93.3375 13.4793C92.0282 13.4331 90.7165 13.406 89.4096 13.3381C88.1027 13.2702 86.8683 13.2104 85.6025 13.0665C83.2738 12.7949 80.9523 12.4445 78.6211 12.211C77.493 12.0969 76.3286 12.3278 75.2198 12.1322C74.1785 11.9839 73.1271 11.9457 72.0794 12.0181C70.3474 12.0643 68.6226 11.9964 66.9896 11.1871C66.7794 11.0811 66.2794 11.1871 66.219 11.3256C65.9073 12.1241 65.5112 12.9551 65.4943 13.7998C65.4242 15.7009 65.5764 17.6021 65.5957 19.5032C65.615 21.4044 65.6368 23.2512 65.5619 25.1198C65.5063 26.5429 65.2986 27.9552 65.1585 29.3702C65.1169 29.6124 65.0894 29.8573 65.0763 30.1035C65.1126 32.7678 65.1198 35.4349 65.2116 38.0992C65.3638 42.5588 65.574 47.0183 65.76 51.4779C65.8856 54.5089 66.0016 57.5426 66.1392 60.5735C66.2286 62.4937 66.3567 64.4111 66.4992 66.3286C66.5161 66.5812 66.69 66.994 66.847 67.0293C67.2601 67.1298 67.7046 67.6159 68.137 66.937C69.1033 65.4242 70.1807 65.2368 72.0166 66.3286C72.2913 66.5137 72.5959 66.6356 72.9128 66.6871C73.7204 66.7595 74.5311 66.7776 75.3406 66.7414C76.5485 66.6762 77.7829 66.4101 78.998 66.4454C82.2857 66.5404 85.5687 66.7577 88.8564 66.9098C90.6754 66.994 92.4969 67.0157 94.3135 67.1271C95.1952 67.1787 95.2459 67.2493 95.3281 66.2498C95.4392 64.8919 96.1953 64.0499 97.1133 63.3981C97.4346 63.1727 98.1182 63.1265 98.3839 63.3601C99.0622 63.9293 99.6363 64.6403 100.075 65.4541C100.452 66.2037 100.891 65.9158 101.35 65.894C101.879 65.8723 101.812 65.4187 101.809 65.0277C101.778 61.2009 101.763 57.3769 101.706 53.5501C101.674 51.4779 101.58 49.4083 101.493 47.3388C101.44 46.0596 101.297 44.7831 101.28 43.5039C101.256 41.0188 101.28 38.5501 101.28 36.0813Z" fill="#736262"/>
<path d="M204.989 137.366C205.056 135.816 205.208 134.262 205.17 132.717C205.071 128.643 204.781 124.569 204.774 120.517C204.774 117.073 205.049 113.627 205.201 110.196C205.213 109.9 205.233 109.604 205.23 109.308C205.23 103.485 205.259 97.6595 205.187 91.8366C205.155 89.4737 204.945 87.1054 204.728 84.7507C204.444 81.6383 204.112 78.5313 203.732 75.4297C203.576 74.3609 203.34 73.3088 203.027 72.2846C202.512 70.4514 202.034 68.5991 201.367 66.8365C200.824 65.3943 200.099 64.0092 198.804 63.189C198.693 63.1184 198.563 63.0722 198.396 62.988C198.277 63.4031 198.254 63.8455 198.33 64.2734C198.405 64.7012 198.577 65.1001 198.829 65.4323C200.155 67.3932 200.684 69.6909 201.268 72.0022C202.126 75.3998 201.892 78.792 201.51 82.1978C201.268 84.3705 201.218 86.5432 201.64 88.7323C202.078 91.0164 202.225 93.3711 202.527 95.6905C202.638 96.5433 202.853 97.3771 202.969 98.2299C203.078 98.9061 203.123 99.5935 203.102 100.28C203.096 100.43 203.063 100.577 203.003 100.711C202.944 100.845 202.86 100.963 202.757 101.059C202.655 101.154 202.535 101.224 202.407 101.264C202.279 101.304 202.144 101.313 202.012 101.291C201.488 101.207 201.16 100.65 201.155 99.9898C201.145 99.3832 201.099 98.778 201.017 98.1783C200.679 95.5411 200.292 92.9121 199.983 90.2722C199.717 88.0261 199.558 85.7638 199.283 83.5204C199.162 82.719 198.952 81.9379 198.657 81.1956C198.588 81.053 198.49 80.9314 198.37 80.8414C198.25 80.7515 198.112 80.6959 197.969 80.6796C197.746 80.7013 197.505 81.0571 197.36 81.3232C197.261 81.5697 197.21 81.8376 197.212 82.1081C197.092 83.4498 196.657 84.0446 195.459 84.1722C194.413 84.2836 193.355 84.213 192.301 84.2564C191.738 84.2809 191.139 84.2564 190.61 84.452C189.248 84.9952 187.953 84.4764 186.651 84.2374C185.291 83.9876 183.994 83.773 182.672 84.5443C181.933 84.9789 181.148 84.4601 180.882 83.4878C180.711 82.8686 180.641 82.2195 180.382 81.5731C180.247 82.6079 180.083 83.6399 179.981 84.6801C179.74 87.2277 179.406 89.7752 179.317 92.3309C179.259 93.9088 179.573 95.5058 179.723 97.0946C179.805 97.5728 179.849 98.0581 179.856 98.5449C179.854 98.6765 179.829 98.8065 179.783 98.9273C179.736 99.0481 179.669 99.1573 179.585 99.2487C179.501 99.3401 179.401 99.4119 179.292 99.4598C179.183 99.5078 179.067 99.531 178.95 99.5281C178.725 99.546 178.503 99.4682 178.327 99.3102C178.151 99.1522 178.034 98.9255 178 98.6753C177.819 97.7298 177.681 96.7743 177.587 95.8127C177.283 92.7763 176.952 89.7399 176.742 86.6953C176.515 83.3765 176.425 80.0495 176.247 76.7279C176.063 73.3085 175.841 69.8919 175.64 66.4725C175.646 65.9793 175.628 65.4862 175.587 64.9951C175.486 64.3079 175.307 63.6371 175.16 62.9554C174.481 63.0206 174.128 63.3546 174.012 63.8842C173.801 64.7384 173.662 65.6133 173.599 66.497C173.413 70.9565 173.142 75.4188 173.15 79.8811C173.162 87.1598 173.36 94.4412 173.502 101.72C173.524 102.852 173.691 103.982 173.744 105.115C173.986 110.164 174.176 115.218 174.437 120.267C174.599 123.415 174.884 126.557 175.051 129.705C175.155 131.649 175.135 133.602 175.181 135.552C175.275 139.626 175.382 143.684 175.474 147.752C175.454 148.043 175.409 148.332 175.341 148.613C174.394 149.268 173.708 148.885 173.63 147.559C173.51 145.52 173.403 143.485 173.367 141.429C173.304 137.752 173.367 134.072 173.244 130.397C173.15 127.372 172.862 124.352 172.691 121.326C172.514 118.225 172.374 115.12 172.22 112.016C172.07 109.028 171.915 106.057 171.775 103.075C171.681 101.082 171.563 99.0854 171.534 97.0865C171.435 90.8398 171.314 84.5932 171.319 78.3466C171.319 75.12 171.56 71.8908 171.717 68.6643C171.797 66.9478 171.906 65.2341 172.007 63.4334C171.302 63.4334 170.546 63.3981 169.792 63.4334C169.135 63.4741 168.7 63.1862 168.57 62.4041C168.469 61.7719 168.416 61.1314 168.41 60.4893C168.339 52.7906 168.277 45.0891 168.224 37.3849C168.202 33.9058 168.173 30.424 168.243 26.9476C168.28 25.2529 168.577 23.5663 168.685 21.8688C169 17.048 169.27 12.2245 169.572 7.40377C169.627 6.56754 169.722 5.73527 169.857 4.91055C169.882 4.64714 169.997 4.40473 170.177 4.23375C170.356 4.06277 170.588 3.97638 170.823 3.99256C171.02 3.99877 171.217 3.97037 171.406 3.90837C172.882 3.33802 174.43 3.3842 175.949 3.34889C178.573 3.28914 181.204 3.32716 183.825 3.48197C184.987 3.54986 186.124 4.02515 187.279 4.27774C188.518 4.54933 189.765 5.00017 191.009 5.00017C192.274 5.04203 193.535 5.16627 194.787 5.37225C196.007 5.52978 197.229 5.64385 198.452 5.74705C200.288 5.93573 202.083 6.46431 203.766 7.31143C204.542 7.68623 204.781 8.52002 204.815 9.39183C204.923 12.1512 204.993 14.9106 205.095 17.67C205.112 18.1833 205.206 18.6939 205.259 19.2072C205.402 20.5652 205.716 21.9476 205.641 23.3001C205.529 25.7885 205.561 28.2824 205.735 30.7662C205.977 34.9243 205.977 39.1014 206.085 43.2595C206.112 44.2671 206.223 45.272 206.288 46.2796C206.422 48.2713 206.551 50.263 206.677 52.2546L207.221 60.8044C207.247 61.2226 207.254 61.6436 207.291 62.0591C207.421 63.5746 206.682 64.4627 205.563 65.0467C205.029 65.3321 204.479 65.5815 203.918 65.7935C203.213 66.0651 203.218 66.095 203.435 66.8799C204.119 69.2727 204.914 71.6437 205.368 74.0907C206.114 77.9962 206.399 81.9886 206.684 85.9729C207.247 93.8111 207.049 101.66 207.039 109.506C207.039 112.119 207.039 114.754 206.781 117.342C206.394 121.033 206.718 124.675 206.89 128.339C207.044 131.598 207.213 134.892 206.747 138.168C206.595 139.224 206.708 140.34 206.723 141.427C206.747 143.029 206.791 144.632 206.827 146.234C206.823 146.28 206.823 146.326 206.827 146.372C206.655 146.704 206.547 147.133 206.295 147.339C206.044 147.546 205.571 147.701 205.315 147.573C205.059 147.445 204.984 146.943 204.848 146.59C204.826 146.472 204.826 146.349 204.848 146.231C204.926 145.984 204.979 145.728 205.005 145.468C205.01 142.771 205.01 140.063 204.989 137.366ZM202.285 64.1667C202.653 64.0662 203.01 63.9874 203.368 63.8625C203.742 63.7231 204.11 63.5617 204.469 63.3791C205.435 62.9011 205.559 62.6947 205.448 61.5132C205.344 60.4269 205.15 59.3649 205.09 58.2867C204.967 56.095 204.931 53.9005 204.819 51.7087C204.73 49.9624 204.578 48.2188 204.457 46.4724C204.392 45.5653 204.283 44.6582 204.259 43.7565C204.138 39.411 204.121 35.0655 203.901 30.7363C203.79 28.493 203.556 26.2686 203.81 24.0225C203.996 22.549 203.886 21.0471 203.486 19.6282C203.364 19.2064 203.294 18.7677 203.278 18.3245C203.177 15.5163 203.091 12.7098 203.022 9.90514C203.008 9.38097 202.853 9.09036 202.409 8.92469C200.742 8.29731 199.072 7.71882 197.28 7.77857C196.689 7.77296 196.1 7.71575 195.517 7.60746C194.367 7.44451 193.205 7.03169 192.077 7.13761C190.316 7.306 188.709 6.5727 187.004 6.42875C186.9 6.42875 186.803 6.32283 186.699 6.29839C185.636 6.04037 184.581 5.66014 183.506 5.57052C182.003 5.44287 180.489 5.53793 178.979 5.52978C178.476 5.52978 177.974 5.46731 177.471 5.47818C176.049 5.51077 174.628 5.57324 173.208 5.61126C172.29 5.6357 171.393 6.44233 171.348 7.45266C171.123 12.2789 170.811 17.0996 170.5 21.9204C170.389 23.6423 170.087 25.3533 170.053 27.0807C169.983 30.682 170.012 34.286 170.036 37.8901C170.084 45.4186 170.159 52.9472 170.21 60.473C170.21 61.0026 170.297 61.3123 170.838 61.3231C172.014 61.3503 173.186 61.4236 174.316 60.9103C175.399 60.4214 176.266 60.6604 176.573 61.611C176.925 62.711 177.628 62.9934 178.549 63.0586C179.091 63.126 179.629 63.2285 180.16 63.3655C181.535 63.6371 182.902 64.0771 184.286 64.1586C186.738 64.3025 189.202 64.1803 191.656 64.2753C192.584 64.3106 193.507 64.6148 194.422 64.8457C195.106 65.0195 195.775 65.1553 196.415 64.9489C196.415 64.2427 196.379 63.6262 196.415 63.0151C196.57 60.9184 197.807 60.177 199.447 61.171C199.505 61.2036 199.56 61.2471 199.618 61.2797C200.785 61.9043 201.561 62.9989 202.285 64.1586V64.1667ZM199.918 79.2673C199.939 79.2315 199.954 79.192 199.964 79.1505C199.978 78.9794 199.978 78.8056 199.993 78.6345C200.187 76.2948 199.954 73.9351 199.307 71.7007C198.918 70.3427 198.464 69.0119 197.966 67.7028C197.848 67.3905 197.413 66.9886 197.164 67.0211C195.645 67.2194 194.222 66.7495 192.753 66.478C191.209 66.1846 189.613 66.2064 188.033 66.2335C185.047 66.258 182.064 66.3367 179.196 65.1634C178.961 65.0885 178.716 65.0555 178.471 65.0657C177.363 65.0222 177.293 65.1254 177.457 66.3938C177.614 67.3641 177.724 68.3433 177.788 69.327C177.911 73.1293 177.981 76.9316 178.083 80.7149C178.097 81.258 178.186 81.8012 178.24 82.3308H178.413C178.539 81.5894 178.592 80.8181 178.814 80.1146C178.988 79.5715 179.278 78.9414 179.684 78.6399C180.783 77.8251 182.037 78.6399 182.281 80.2124C182.363 80.7556 182.358 81.2988 182.462 81.8257C182.494 81.9859 182.805 82.2331 182.921 82.1923C184.274 81.7143 185.61 81.9452 186.955 82.2276C188.301 82.5101 189.666 82.8442 191.028 82.2032C191.326 82.1177 191.637 82.0992 191.941 82.1489C192.71 82.1652 193.475 82.2168 194.244 82.2222C195.251 82.2222 195.251 82.2222 195.485 81.1223C195.881 79.2754 196.848 78.3873 198.384 78.6019C198.899 78.6616 199.379 79.0147 199.918 79.2591V79.2673Z" fill="#736262"/>
<path d="M24.9008 105.047C24.9008 105.718 24.9008 106.177 24.9008 106.639C24.9008 107.223 24.6882 107.673 24.1375 107.749C24.0166 107.778 23.8917 107.776 23.7714 107.745C23.6511 107.714 23.5382 107.654 23.4406 107.569C23.343 107.484 23.2629 107.376 23.206 107.253C23.149 107.13 23.1166 106.995 23.1108 106.856C23.0341 105.928 23.0568 104.994 23.1784 104.072C23.2944 103.271 23.9345 102.877 24.7341 102.912C25.9106 102.967 26.7633 103.779 27.6016 104.564C27.7803 104.732 27.8311 105.297 27.7223 105.563C27.642 105.714 27.5316 105.841 27.4 105.935C27.2684 106.029 27.1191 106.088 26.9638 106.106C26.5991 106.106 26.2222 105.878 25.8695 105.699C25.536 105.502 25.2126 105.284 24.9008 105.047Z" fill="#736262"/>
<path d="M31.4547 99.1235C31.4418 99.4461 31.3194 99.7509 31.1127 99.9752C30.906 100.199 30.6308 100.326 30.3435 100.329C30.2176 100.341 30.0909 100.324 29.9711 100.279C29.8513 100.234 29.7409 100.162 29.6467 100.068C29.5524 99.9731 29.4763 99.858 29.4229 99.7292C29.3695 99.6005 29.34 99.461 29.3362 99.319C29.3362 98.6971 29.8411 98.181 30.4836 98.1647C30.6041 98.1521 30.7256 98.1672 30.8407 98.2092C30.9558 98.2511 31.062 98.3191 31.1529 98.4088C31.2438 98.4986 31.3175 98.6083 31.3694 98.7312C31.4213 98.854 31.4503 98.9875 31.4547 99.1235Z" fill="#736262"/>
<path d="M16.4653 101.158C16.9967 101.177 17.3736 101.701 17.347 102.391C17.3471 102.537 17.3208 102.683 17.2697 102.817C17.2186 102.952 17.1438 103.074 17.0496 103.176C16.9555 103.277 16.8441 103.356 16.7221 103.408C16.6 103.46 16.47 103.483 16.3396 103.477C16.0865 103.456 15.8508 103.324 15.6822 103.111C15.5137 102.898 15.4254 102.619 15.4362 102.334C15.438 102.026 15.5465 101.731 15.7386 101.511C15.9307 101.292 16.1914 101.165 16.4653 101.158Z" fill="#736262"/>
<path d="M82.0658 96.1986C81.9329 96.7418 81.7856 97.2849 81.6696 97.8281C81.5536 98.3713 81.3097 98.7434 80.7903 98.7434C80.2709 98.7434 79.9617 98.3442 79.8554 97.7847C79.6525 96.739 80.5801 94.588 81.4256 94.0937C81.6844 93.9235 81.981 93.8399 82.2806 93.8529C82.5802 93.8659 82.8703 93.9749 83.1166 94.1671C84.0783 94.879 84.7778 95.9587 85.0854 97.2062C85.1113 97.4101 85.0922 97.618 85.0299 97.8117C84.9675 98.0054 84.8638 98.1789 84.7279 98.317C84.4863 98.4881 83.9742 98.374 83.6722 98.1948C83.4162 98.0454 83.2978 97.6163 83.1069 97.3202C82.846 96.9156 82.5755 96.5218 82.3098 96.1225L82.0658 96.1986Z" fill="#736262"/>
<path d="M89.2986 93.6863C89.286 93.9945 89.1724 94.2865 88.9797 94.5061C88.787 94.7257 88.5289 94.8574 88.255 94.8759C88.135 94.8788 88.0156 94.8547 87.9039 94.8051C87.7922 94.7556 87.6904 94.6814 87.6045 94.5871C87.5186 94.4928 87.4502 94.3802 87.4035 94.2558C87.3567 94.1314 87.3325 93.9979 87.3322 93.8628C87.3297 93.7096 87.3541 93.5574 87.4042 93.4149C87.4543 93.2724 87.529 93.1424 87.624 93.0326C87.719 92.9227 87.8325 92.8351 87.9578 92.7749C88.0831 92.7146 88.2178 92.6828 88.3541 92.6814C88.5964 92.6797 88.8299 92.7833 89.0059 92.9705C89.1819 93.1578 89.2868 93.4142 89.2986 93.6863Z" fill="#736262"/>
<path d="M77.0605 93.746C77.07 93.8742 77.0555 94.0032 77.0178 94.1246C76.9801 94.246 76.9202 94.3572 76.8418 94.4509C76.7635 94.5447 76.6685 94.6188 76.563 94.6686C76.4575 94.7184 76.3439 94.7427 76.2295 94.74C76.1195 94.7446 76.0099 94.7236 75.9074 94.6782C75.805 94.6328 75.7121 94.5641 75.6345 94.4763C75.5569 94.3885 75.4963 94.2836 75.4565 94.1682C75.4167 94.0528 75.3986 93.9294 75.4034 93.8057C75.3985 93.6827 75.4166 93.5598 75.4565 93.4451C75.4964 93.3304 75.5572 93.2263 75.635 93.1396C75.7128 93.0529 75.8059 92.9854 75.9083 92.9416C76.0107 92.8977 76.1201 92.8785 76.2295 92.885C76.4404 92.879 76.6451 92.9655 76.8002 93.1262C76.9553 93.2869 77.0487 93.5092 77.0605 93.746Z" fill="#736262"/>
<path d="M188.869 91.6413C188.69 92.2876 188.596 92.6896 188.468 93.0753C188.282 93.632 187.965 94.0177 187.381 93.9063C187.254 93.8798 187.135 93.8231 187.03 93.7399C186.925 93.6568 186.837 93.5491 186.772 93.4244C186.708 93.2997 186.668 93.1607 186.655 93.0171C186.643 92.8734 186.658 92.7284 186.699 92.5918C186.949 91.6285 187.276 90.693 187.678 89.7971C187.965 89.1616 188.644 88.9362 189.089 89.3273C189.992 90.1176 191.086 90.6852 191.625 91.9454C191.968 92.7412 191.934 93.3251 191.437 93.6293C190.939 93.9335 190.345 93.6429 189.934 92.9884C189.601 92.5178 189.245 92.0681 188.869 91.6413Z" fill="#736262"/>
<path d="M183.699 90.5359C183.685 90.8706 183.554 91.1857 183.335 91.4126C183.115 91.6394 182.825 91.7597 182.527 91.7472C182.401 91.7564 182.275 91.7367 182.156 91.6893C182.037 91.642 181.928 91.5679 181.836 91.4716C181.743 91.3753 181.669 91.2588 181.617 91.1292C181.566 90.9996 181.539 90.8597 181.537 90.7178C181.537 90.1122 182.117 89.5608 182.769 89.5391C182.889 89.5305 183.01 89.55 183.123 89.5963C183.237 89.6427 183.341 89.715 183.428 89.8086C183.515 89.9023 183.584 90.0152 183.631 90.1404C183.678 90.2655 183.701 90.4002 183.699 90.5359Z" fill="#736262"/>
<path d="M194.997 88.5586C195.112 88.5556 195.227 88.579 195.333 88.6272C195.44 88.6755 195.537 88.7477 195.618 88.8394C195.699 88.9312 195.763 89.0405 195.805 89.1608C195.848 89.281 195.868 89.4097 195.864 89.5391C195.851 89.848 195.737 90.1407 195.544 90.3612C195.351 90.5816 195.093 90.7144 194.818 90.7341C194.703 90.7356 194.589 90.711 194.483 90.6618C194.377 90.6126 194.28 90.5398 194.2 90.4478C194.119 90.3558 194.056 90.2464 194.013 90.1262C193.971 90.006 193.951 89.8774 193.954 89.7482C193.965 89.4394 194.078 89.1464 194.271 88.9264C194.464 88.7064 194.723 88.5753 194.997 88.5586Z" fill="#736262"/>
<path d="M204.99 137.366C205.002 140.082 205.017 142.779 205.014 145.487C204.987 145.747 204.934 146.003 204.856 146.25C204.839 143.768 204.815 141.288 204.819 138.806C204.847 138.322 204.904 137.841 204.99 137.366Z" fill="#B3B3B3"/>
<path d="M139.634 99.3437C139.562 99.6152 139.559 99.8244 139.465 99.9249C139.224 100.175 138.946 100.541 138.675 100.55C138.511 100.525 138.353 100.461 138.212 100.362C138.072 100.262 137.952 100.13 137.861 99.9738C137.704 99.6507 137.656 99.2744 137.726 98.9145C137.85 98.1888 138.041 97.4797 138.296 96.7988C138.724 95.7125 139.683 95.631 140.32 96.5761C140.518 96.8694 140.733 97.1519 140.934 97.4425C141.049 97.5908 141.146 97.7551 141.224 97.9314C141.448 98.5316 141.54 99.1563 141.04 99.6315C140.54 100.107 140.101 99.8081 139.634 99.3437Z" fill="#736262"/>
<path d="M142.444 94.0802C142.317 94.0824 142.19 94.0558 142.072 94.0019C141.954 93.9481 141.846 93.8682 141.756 93.7669C141.666 93.6655 141.595 93.5449 141.547 93.4121C141.499 93.2793 141.476 93.1371 141.478 92.9938C141.471 92.8393 141.493 92.685 141.543 92.5407C141.592 92.3964 141.668 92.2652 141.765 92.1556C141.862 92.046 141.978 91.9603 142.106 91.904C142.235 91.8477 142.372 91.8221 142.509 91.8286C142.775 91.8164 143.035 91.92 143.234 92.1179C143.433 92.3158 143.557 92.5926 143.579 92.8906C143.587 93.4908 143.031 94.0666 142.444 94.0802Z" fill="#736262"/>
<path d="M134.861 94.0637C134.852 94.3615 134.738 94.6431 134.545 94.8468C134.352 95.0505 134.094 95.1596 133.829 95.15C133.583 95.1567 133.344 95.0548 133.163 94.866C132.983 94.6773 132.875 94.4166 132.863 94.1397C132.863 93.8516 132.965 93.5753 133.146 93.3715C133.327 93.1678 133.573 93.0533 133.829 93.0533C133.957 93.0379 134.086 93.0524 134.209 93.0957C134.331 93.1391 134.444 93.2104 134.541 93.3053C134.638 93.4001 134.717 93.5165 134.772 93.647C134.826 93.7775 134.857 93.9193 134.861 94.0637Z" fill="#736262"/>
<path d="M7.05611 73.2135C6.44736 73.1239 5.93522 73.0153 5.41827 72.9827C5.342 72.9909 5.26504 72.9815 5.19212 72.9551C5.1192 72.9286 5.05183 72.8858 4.99416 72.8291C4.93649 72.7724 4.88975 72.703 4.85675 72.6253C4.82375 72.5476 4.80519 72.4631 4.80225 72.377C4.68871 71.4482 4.5607 70.5193 4.45441 69.5932C4.32396 68.5421 4.1476 67.4965 4.07996 66.4427C3.96884 64.748 3.95192 63.0451 3.86013 61.3503C3.7949 60.0956 3.67414 58.8462 3.57751 57.5942C3.38667 55.1499 3.07746 52.6865 3.03156 50.2286C2.94218 45.3399 2.91318 40.4513 3.01705 35.5626C3.11126 31.1519 3.41081 26.744 3.62339 22.336C3.70794 20.587 3.79492 18.8379 3.90846 17.0915C3.96125 16.8691 4.06349 16.6653 4.20558 16.4995C4.28047 16.3854 4.44716 16.3202 4.48823 16.2007C4.7298 15.2284 5.45449 15.3316 6.12847 15.223C7.72765 14.9514 9.31962 14.6173 10.9212 14.3593C11.8078 14.2154 12.7088 14.1828 13.6026 14.0877C14.0157 14.0416 14.4264 13.9547 14.8371 13.8895C15.6101 13.7673 16.3952 13.4957 17.1585 13.5527C18.9027 13.6831 20.6371 13.9845 22.3788 14.1991C23.0311 14.2806 23.6906 14.3023 24.3452 14.3702C25.851 14.5241 27.3552 14.6852 28.8577 14.8536C29.1378 14.9164 29.421 14.9608 29.7056 14.9867C32.5876 14.9215 35.3246 16.0405 38.1606 16.3012C39.1269 16.3908 39.6414 17.0291 39.8516 17.9851C40.1023 19.1073 40.276 20.2496 40.3709 21.4017C40.4998 23.3192 40.5642 25.2393 40.5642 27.1622C40.5642 29.4327 40.383 31.7033 40.4458 33.9683C40.5449 37.5642 40.528 41.2009 41.0183 44.737C41.6778 49.4899 41.6658 54.2672 41.9846 59.0309C42.2262 62.6214 42.3349 66.22 42.5257 69.8132C42.562 70.5139 42.3397 70.8154 41.7189 70.8289C41.3372 70.8289 40.8444 71.1223 40.6028 70.9403C40.3613 70.7583 40.3347 70.1527 40.2091 69.7371C39.8805 68.6508 38.7597 67.7328 37.8079 67.7464C36.7377 67.7626 35.9913 68.4145 35.6531 69.7534C35.4779 70.5165 35.3559 71.2938 35.2883 72.0783C35.24 72.5345 35.0927 72.7084 34.6772 72.7355C30.4521 73.0071 26.2222 73.1836 22.0068 73.6128C19.724 73.8436 17.4605 74.0256 15.1801 73.8219C14.3273 73.7431 13.4891 73.6128 12.6267 73.5313C12.1725 73.4905 11.9962 73.2189 11.9189 72.7409C11.8272 72.2073 11.6988 71.6824 11.5348 71.1711C11.2038 70.1282 10.5903 69.9245 9.66021 70.2314C8.22287 70.704 7.32909 71.6627 7.05611 73.2135Z" fill="#FEFEFE"/>
<path d="M118.99 34.8374C118.659 26.6543 119.328 18.5011 119.558 10.337C119.579 9.57383 119.558 8.8025 119.637 8.04476C119.676 7.66209 119.822 7.30333 120.055 7.02086C121.236 5.73622 122.459 4.56022 124.128 4.04963C125.725 3.55805 127.268 2.80573 128.831 2.20823C129.23 2.0723 129.645 2.00634 130.061 2.01268C132.919 1.98281 135.793 2.06972 138.559 2.86548C140.886 3.53632 143.263 3.36793 145.594 3.8405C147.925 4.31307 150.283 4.52763 152.599 4.97304C153.868 5.21476 155.117 5.64659 156.134 6.63519C156.178 6.69033 156.232 6.7339 156.293 6.76284C157.375 7.15122 157.501 8.08007 157.378 9.15829C157.228 10.4538 157.061 11.7466 156.945 13.0475C156.783 14.9052 156.578 16.7683 156.539 18.6315C156.494 20.9997 156.709 23.3762 156.605 25.7363C156.513 27.8738 156.071 29.9868 155.914 32.1242C155.631 35.9265 155.361 39.7451 155.24 43.5637C155.063 49.1123 155.027 54.6637 154.916 60.2151C154.894 61.3748 154.827 62.5317 154.737 63.686C154.723 63.8191 154.682 63.9467 154.617 64.0591C154.552 64.1716 154.465 64.266 154.363 64.3351C153.803 64.5416 153.227 64.6916 152.643 64.7832C151.326 65.0032 149.986 65.0548 148.756 65.7664C148.157 66.1059 147.819 65.3753 147.384 65.0874C147.282 65.0168 147.234 64.8457 147.142 64.7316C146.396 63.7159 145.369 63.8028 144.879 64.9842C144.637 65.5573 144.364 65.7202 143.821 65.6605C141.799 65.4378 139.775 65.2178 137.745 65.101C137.12 65.0657 136.463 65.3074 135.851 65.5301C134.673 65.9647 133.513 65.6469 132.339 65.5709C131.218 65.5003 130.592 64.9815 130.573 63.6507C130.571 63.2076 130.489 62.7695 130.332 62.3634C130.15 61.9234 129.906 61.3476 129.568 61.2064C129.23 61.0651 128.638 61.258 128.334 61.5431C127.653 62.1841 126.954 62.8631 126.715 63.9087C126.614 64.3433 126.36 64.4709 126.02 64.2917C124.548 63.5095 122.966 63.4769 121.389 63.3764C120.367 63.3058 120.302 63.2325 120.229 62.1162C120.004 58.5475 119.787 54.976 119.628 51.4046C119.403 45.8831 119.207 40.3589 118.99 34.8374Z" fill="#FEFEFE"/>
<path d="M101.28 36.0813C101.28 38.5501 101.256 41.0189 101.28 43.4849C101.297 44.7641 101.44 46.0406 101.493 47.3198C101.58 49.3894 101.674 51.4589 101.705 53.5312C101.763 57.3579 101.778 61.1819 101.809 65.0087C101.809 65.3998 101.879 65.8533 101.35 65.8751C100.891 65.8968 100.452 66.1847 100.075 65.4351C99.6362 64.6213 99.062 63.9103 98.3838 63.3411C98.118 63.1075 97.4344 63.1537 97.1131 63.3791C96.1951 64.031 95.439 64.8702 95.3279 66.2309C95.2458 67.2303 95.195 67.1597 94.3133 67.1081C92.4967 66.9968 90.6753 66.975 88.8563 66.8908C85.5685 66.7387 82.2856 66.5215 78.9978 66.4264C77.79 66.3911 76.5604 66.6573 75.3405 66.7225C74.531 66.7587 73.7203 66.7405 72.9127 66.6681C72.5958 66.6166 72.2911 66.4947 72.0165 66.3096C70.1805 65.2233 69.1007 65.4052 68.1369 66.918C67.7045 67.597 67.26 67.1108 66.8469 67.0103C66.6899 66.975 66.5159 66.5622 66.499 66.3096C66.3565 64.3922 66.2285 62.4747 66.1391 60.5546C65.9966 57.5236 65.8975 54.4899 65.7598 51.4589C65.5738 46.9994 65.3636 42.5398 65.2115 38.0802C65.1197 35.4159 65.1124 32.7489 65.0762 30.0846C65.0893 29.8384 65.1167 29.5934 65.1583 29.3512C65.2984 27.9362 65.5062 26.524 65.5617 25.1008C65.6366 23.2323 65.6173 21.3556 65.5956 19.4843C65.5738 17.613 65.424 15.682 65.4941 13.7808C65.5231 12.9416 65.9193 12.1051 66.2188 11.3066C66.2792 11.1545 66.7792 11.0622 66.9894 11.1681C68.6224 11.9829 70.3472 12.0453 72.0793 11.9992C73.1269 11.9267 74.1783 11.9649 75.2197 12.1132C76.3285 12.3088 77.4928 12.0779 78.621 12.192C80.9521 12.4256 83.2736 12.7868 85.6023 13.0475C86.8682 13.1915 88.1388 13.2539 89.4095 13.3191C90.6801 13.3843 92.0281 13.4142 93.3374 13.4603C93.4468 13.4522 93.5565 13.4522 93.6659 13.4603C95.0429 13.7129 96.4343 13.8976 97.7895 14.2452C98.9829 14.5521 99.6327 15.185 99.8187 16.6054C100.674 23.0747 101.326 29.5441 101.28 36.0813Z" fill="#FEFEFE"/>
<path d="M95.0598 89.96H95.4826C95.5574 90.7992 95.6299 91.6411 95.7048 92.4831L95.4922 92.5184C95.3376 91.6628 95.2048 90.81 95.0598 89.96Z" fill="#B3B3B3"/>
<path d="M202.285 64.1585C201.561 62.9988 200.785 61.9043 199.628 61.2471C199.57 61.2145 199.515 61.171 199.457 61.1384C197.816 60.1444 196.58 60.8858 196.425 62.9825C196.381 63.5936 196.425 64.2101 196.425 64.9163C195.785 65.1227 195.116 64.9869 194.432 64.8131C193.516 64.5822 192.594 64.2699 191.666 64.2427C189.212 64.1477 186.748 64.2699 184.296 64.1259C182.912 64.0445 181.544 63.6099 180.17 63.3329C179.638 63.1959 179.1 63.0934 178.558 63.026C177.638 62.9608 176.935 62.6783 176.582 61.5784C176.276 60.6278 175.408 60.3888 174.326 60.8777C173.196 61.391 172.024 61.3177 170.848 61.2905C170.306 61.2905 170.222 60.97 170.22 60.4404C170.169 52.9146 170.094 45.386 170.046 37.8575C170.021 34.2534 169.992 30.6494 170.062 27.0481C170.096 25.3289 170.398 23.6178 170.509 21.8878C170.821 17.067 171.133 12.2462 171.357 7.42003C171.403 6.40971 172.299 5.60308 173.217 5.57863C174.638 5.54061 176.058 5.47815 177.481 5.44556C177.984 5.44556 178.486 5.49444 178.988 5.49716C180.498 5.49716 182.013 5.41025 183.515 5.5379C184.59 5.62752 185.646 6.00775 186.709 6.26576C186.813 6.29021 186.91 6.38798 187.013 6.39613C188.704 6.54008 190.316 7.27338 192.086 7.10499C193.214 6.99907 194.376 7.41189 195.526 7.57484C196.109 7.68313 196.699 7.74034 197.29 7.74595C199.082 7.6862 200.751 8.26469 202.418 8.89207C202.863 9.06046 203.017 9.34835 203.032 9.87252C203.096 12.6808 203.182 15.4873 203.288 18.2919C203.304 18.7351 203.374 19.1738 203.496 19.5955C203.892 21.0211 203.997 22.5288 203.802 24.0062C203.549 26.2523 203.783 28.4766 203.894 30.72C204.114 35.0655 204.136 39.411 204.252 43.7402C204.276 44.65 204.385 45.5571 204.45 46.4561C204.575 48.2024 204.723 49.9461 204.812 51.6924C204.923 53.8842 204.96 56.0786 205.083 58.2704C205.143 59.3568 205.324 60.4187 205.44 61.4969C205.551 62.6783 205.44 62.8848 204.462 63.3628C204.103 63.5454 203.735 63.7068 203.36 63.8462C203.017 63.9793 202.653 64.058 202.285 64.1585Z" fill="#FEFEFE"/>
</g>
<path d="M150.105 26.1672C150.105 28.2444 150.11 31.2756 150.118 32.2311C150.115 32.3987 149.975 33.2883 149.972 33.6851C149.976 35.7995 149.997 39.5197 149.98 39.6329C149.966 39.7245 149.862 40.1357 149.854 40.2059C149.843 40.319 149.854 46.7124 149.857 49.0187C149.859 49.4456 149.71 50.0386 149.679 50.2507C149.65 50.4598 149.392 50.679 149.353 50.8065M149.353 50.8065C149.323 50.9025 149.437 51.5514 149.478 51.8092M149.353 50.8065C149.065 50.8136 148.885 50.7993 148.27 50.6317C148.039 50.5701 147.907 50.467 147.723 50.2335M182.222 26.7465C181.868 27.109 181.55 27.5631 181.47 27.8925C181.408 28.126 181.307 28.2091 180.999 28.2621C180.729 28.3065 179.27 28.6188 178.962 28.7521C178.487 28.9641 178.267 29.368 178.21 29.4683M190.999 26.8898V27.7493M190.999 27.7493C191.092 27.7593 191.299 27.9112 191.556 27.9026C191.976 27.9011 193.492 27.8797 193.758 28.0358M190.999 27.7493C190.9 27.7393 190.595 28.1031 190.498 28.1791C190.422 28.2421 190.315 28.2478 190.247 28.3223C190.162 28.4197 189.012 30.5183 188.491 31.4738C188.343 31.7517 187.964 32.8405 187.946 32.8963C187.847 33.19 187.658 33.4951 187.488 33.6226C187.447 33.6527 186.652 33.8919 186.485 34.0524C186.445 34.0925 186.361 34.187 186.234 34.3389M194.134 27.6061C194.019 27.7364 193.798 27.9799 193.758 28.0358M193.758 28.0358C193.652 28.1834 193.62 28.4169 193.632 28.7521M18.6189 32.8277C18.1813 33.1014 17.676 33.2145 17.6158 33.2575M17.6158 33.2575C17.5757 33.2876 17.4503 33.3821 17.2396 33.544M17.6158 33.2575C17.4415 33.1214 17.1443 33.0942 17.1142 33.2575C17.1067 33.3019 17.1481 33.3964 17.2396 33.544M17.2396 33.544C17.1431 33.736 17.0917 33.9079 17.0302 34.2817C16.9763 34.6155 17.0879 34.8748 17.1142 34.9765C17.128 35.0309 17.103 36.9319 17.1142 36.982C17.1393 37.0852 17.2635 37.3574 17.2635 37.6811C17.2647 38.0349 17.1142 38.3085 17.1142 38.4145M77.7595 32.4465C77.3219 32.7201 76.8166 32.8333 76.7564 32.8763M76.7564 32.8763C76.7163 32.9063 76.5909 33.0009 76.3803 33.1628M76.7564 32.8763C76.5821 32.7402 76.285 32.713 76.2549 32.8763C76.2473 32.9207 76.2887 33.0152 76.3803 33.1628M76.3803 33.1628C76.2837 33.3547 76.2323 33.5266 76.1709 33.9005C76.117 34.2343 76.2285 34.4936 76.2549 34.5953C76.2687 34.6497 76.2436 36.5507 76.2549 36.6008C76.28 36.7039 76.4041 36.9761 76.4041 37.2999C76.4053 37.6537 76.2549 37.9273 76.2549 38.0333M181.344 28.1791C181.451 28.381 181.486 28.5386 181.476 28.8839C181.471 29.1804 181.462 29.772 181.458 30.0657C181.45 30.4009 181.589 30.6516 181.595 30.7576M181.595 30.7576C181.599 30.8149 181.363 31.2346 181.344 31.3306C181.325 31.4237 181.209 32.1299 181.244 32.4866C181.259 32.6771 181.17 32.8634 180.993 33.0066C180.677 33.2502 180.342 33.3433 179.896 33.339C178.679 33.3246 178.226 33.4206 178.21 33.4794C178.187 33.571 178.065 34.3632 178.084 34.6497C178.099 34.8603 177.979 35.0938 177.959 35.1984C177.94 35.2915 177.944 35.5407 177.782 35.7599C177.537 36.0923 177.496 36.3086 177.415 37.0005C177.334 37.7096 177.322 38.1193 177.273 38.3127C177.229 38.4889 177.188 38.7696 177.183 38.9544C177.179 39.1335 177.317 39.3913 177.332 39.4959M181.595 30.7576C181.743 30.7447 182.989 30.6602 183.1 30.7576C183.26 30.9123 183.255 31.3234 183.1 31.6171C182.984 31.8248 182.222 32.5482 181.846 32.9063C181.703 33.0367 180.532 34.0022 180.515 34.0194C180.394 34.1512 180.309 34.4649 180.314 34.7056C180.319 34.8775 180.359 35.429 180.341 35.4849C180.33 35.5207 180.287 35.5694 180.216 35.6281M177.332 39.4959C177.343 39.5761 177.243 40.0417 177.206 40.2122M177.332 39.4959C177.766 39.4214 178.969 39.2395 179.087 39.2094C179.242 39.1664 179.351 39.0533 179.56 38.7381C179.645 38.6049 180.074 37.9889 180.09 37.9201C180.11 37.827 180.05 37.7167 180.09 37.6336C180.148 37.5162 180.3 37.4746 180.341 37.3471C180.36 37.2827 180.22 37.2712 180.216 37.2039C180.21 37.0979 180.331 37.0234 180.341 36.9174C180.346 36.8501 180.245 36.8329 180.216 36.7741C180.193 36.7254 180.232 35.6625 180.216 35.6281M26.7692 33.544C26.7905 34.1929 26.6613 34.8447 26.6438 34.9765C26.6338 35.0582 26.5961 36.2744 26.6087 36.8989C26.6237 37.376 26.8858 37.6453 27.02 37.6983C27.0977 37.5851 27.1692 37.5407 27.8237 37.3659C28.2387 37.2556 28.5648 37.0708 28.9108 36.7442C29.0951 36.5709 29.3208 36.5723 29.4023 36.5523C29.4939 36.5308 29.7296 36.3718 29.9064 36.3431C30.097 36.3087 30.1735 36.2514 30.4055 35.9793M85.9098 33.1628C85.9311 33.8117 85.802 34.4635 85.7844 34.5953C85.7744 34.6769 85.7368 35.8931 85.7493 36.5177C85.7643 36.9947 86.0264 37.2641 86.1606 37.3171C86.2383 37.2039 86.3098 37.1595 86.9643 36.9847C87.3794 36.8744 87.7054 36.6896 88.0515 36.363C88.2358 36.1897 88.4615 36.1911 88.543 36.171C88.6345 36.1496 88.8702 35.9905 89.047 35.9619C89.2376 35.9275 89.3141 35.8702 89.5461 35.598M17.1142 38.4145C17.1142 38.522 17.2685 38.7985 17.2609 39.1022C17.2572 39.4216 17.197 39.9187 17.197 39.9187C17.2233 40.0605 17.4403 40.1679 17.6672 40.1694C17.9243 40.1651 18.4233 40.1436 18.5525 40.1336C18.8082 40.1164 18.9386 40.1536 19.1205 40.2768M17.1142 38.4145C16.97 38.6294 16.7381 38.9159 16.6127 38.9875C16.4697 39.0678 15.6058 38.9503 15.1644 38.9503C15.0215 38.9546 14.6115 39.0449 14.5337 39.1537C14.3482 39.4288 14.3093 40.7238 14.3181 41.1793C14.3256 41.4157 14.3356 41.9443 14.3557 41.9958C14.3933 42.0932 14.5024 42.1792 14.4811 42.2823M76.2549 38.0333C76.2549 38.1408 76.4091 38.4172 76.4016 38.7209C76.3978 39.0404 76.3376 39.5375 76.3376 39.5375C76.364 39.6793 76.5809 39.7867 76.8078 39.7881C77.0649 39.7838 77.5639 39.7624 77.6931 39.7523C77.9489 39.7351 78.0793 39.7724 78.2611 39.8956M76.2549 38.0333C76.1107 38.2482 75.8787 38.5347 75.7533 38.6063C75.6104 38.6865 74.7464 38.5691 74.3051 38.5691C74.1621 38.5734 73.7521 38.6636 73.6744 38.7725C73.4888 39.0475 73.4499 40.3425 73.4587 40.7981C73.4662 41.0344 73.4763 41.563 73.4963 41.6146C73.5339 41.712 73.643 41.798 73.6217 41.9011M133.93 43.3574C133.926 43.2027 133.919 42.813 133.915 42.5795C133.909 42.3031 134.057 41.9335 134.055 41.7816C134.055 41.6756 133.913 41.4307 133.953 41.1628C134.045 40.478 134.071 38.8378 134.181 38.6301C134.26 38.484 134.435 38.3723 134.432 38.2003M133.93 43.3574C134.024 43.3517 134.245 43.5336 134.407 43.5236C134.503 43.5178 134.819 43.4906 134.954 43.4792C135.126 43.4648 135.334 43.6826 135.435 43.7155C135.517 43.7428 135.746 43.6281 135.97 43.6396C136.556 43.6597 136.972 43.6095 137.19 43.5007M133.93 43.3574C133.871 43.3617 133.5 43.7599 133.429 43.7872C133.35 43.8187 133.11 43.8029 132.927 43.9304M134.432 38.2003C134.429 38.0657 134.252 38.0213 134.181 37.9138C134.156 37.8766 134.321 36.7764 134.325 36.3481C134.325 36.2063 134.289 35.1649 134.306 35.0488C134.32 34.9643 134.43 34.5345 134.432 34.4758C134.435 34.3798 134.46 34.0833 134.628 33.8312C134.746 33.6521 134.807 33.5318 134.808 33.4731C134.813 33.3226 134.664 32.9702 134.669 32.6852C134.667 32.201 134.666 30.2427 134.682 30.1783C134.725 30.0322 134.927 29.7027 135.059 29.6053C135.403 29.3603 136.123 29.2901 136.287 29.1798C136.557 28.9993 137.057 29.0308 137.312 29.0122C137.474 29.005 137.692 29.0738 137.831 29.187C137.976 29.3116 138.158 29.6182 138.231 29.8631C138.336 30.2399 138.306 31.1882 138.393 31.4718C138.479 31.7569 138.295 32.4144 138.319 32.4703M134.432 38.2003C134.677 38.0471 135.734 37.7634 135.882 37.7276C136.137 37.6646 136.231 37.5944 136.438 37.3408C136.623 37.1102 137.321 36.6805 137.692 36.6246C137.856 36.6017 138.211 36.6088 138.444 36.6246M138.319 32.4703C138.37 32.5921 138.508 32.6422 138.569 32.7568C138.615 32.8399 138.593 35.3038 138.584 35.8267C138.584 36.1289 138.444 36.4742 138.444 36.6246M138.319 32.4703C138.094 32.6121 135.101 33.3069 135.059 33.3298C135.025 33.3499 134.983 33.3971 134.933 33.4731M138.444 36.6246C138.444 36.732 138.598 36.9813 138.593 37.1589C138.588 37.3408 138.432 38.3321 138.43 38.7404C138.43 38.9266 138.44 39.428 138.444 39.4896C138.458 39.7231 138.339 39.958 138.319 40.0626C138.3 40.1557 138.344 40.2574 138.319 40.3491C138.282 40.4723 137.262 41.4622 137.19 41.6384C137.171 41.6871 137.13 43.2471 137.13 43.2829C137.13 43.4792 137.253 43.8072 137.376 43.9419C137.469 44.0407 138.294 44.916 138.66 45.4374C138.887 45.7626 139.487 46.6923 139.527 46.9544C139.569 47.2281 139.971 48.0904 140.058 48.493C140.084 48.6205 140.172 49.0846 140.2 49.2307M178.21 33.3361C178.103 33.1284 178.07 32.9937 178.072 32.6943C178.058 31.3592 178.078 30.08 178.156 29.8107C178.211 29.6187 178.186 29.4626 178.084 29.4683C177.991 29.4783 177.924 29.5815 177.833 29.6116C177.753 29.6388 177.496 29.6288 177.206 29.7548M13.7287 35.6928C13.8541 35.465 14.3996 35.1742 14.9864 35.0095C15.5657 34.8533 16.224 34.8376 16.2365 34.8333C16.3243 34.7975 16.9826 34.5511 16.9889 34.5468M72.8694 35.3115C72.9948 35.0838 73.5402 34.793 74.127 34.6282C74.7063 34.4721 75.3646 34.4563 75.3772 34.452C75.4649 34.4162 76.1232 34.1698 76.1295 34.1655M31.1578 36.1225C31.2205 35.942 31.4274 35.3676 31.4086 35.263C31.3735 35.0825 31.2895 34.988 31.1578 34.9765C31.1001 34.9751 30.8619 35.4349 30.7816 35.5495C30.7189 35.6441 30.408 35.9764 30.4055 35.9793M30.4055 35.9793C30.5823 36.1053 30.8518 36.1068 30.9484 36.1211C31.1051 36.1497 31.1904 36.346 31.1365 36.568C31.1365 36.568 30.9396 37.2399 30.907 37.4118C30.8531 37.6868 30.8029 38.2312 30.7816 38.2713C30.7214 38.3873 30.1785 39.138 29.8124 39.4617C29.7647 39.5047 29.6694 39.5849 29.5277 39.7038M90.2984 35.7413C90.3611 35.5608 90.568 34.9864 90.5492 34.8818C90.5141 34.7013 90.4301 34.6067 90.2984 34.5953C90.2407 34.5938 90.0025 35.0537 89.9223 35.1683C89.8596 35.2628 89.5486 35.5952 89.5461 35.598M89.5461 35.598C89.7229 35.7241 89.9925 35.7255 90.089 35.7399C90.2458 35.7685 90.331 35.9648 90.2771 36.1868C90.2771 36.1868 90.0802 36.8587 90.0476 37.0306C89.9937 37.3056 89.9436 37.85 89.9223 37.8901C89.8621 38.0061 89.3191 38.7567 88.953 39.0805C88.9054 39.1235 88.8101 39.2037 88.6684 39.3226M180.216 35.6281C180.137 35.4748 179.556 35.4935 177.959 35.4849M192.629 31.6171C192.296 31.9007 191.568 32.521 191.304 32.7717C191.17 32.8992 190.954 32.8791 190.874 32.9063C190.834 32.9192 190.494 33.2559 190.372 33.3361C190.221 33.4364 188.656 33.9234 188.617 33.9091M188.617 33.9091C188.562 33.8862 188.548 33.7845 188.491 33.7659C188.412 33.7372 188.317 33.806 188.241 33.7659C188.194 33.7401 188.11 33.6455 187.99 33.4794M188.617 33.9091L188.491 34.7686M125.529 31.754C125.954 31.9045 126.708 32.1695 127.095 32.2468C127.263 32.2841 127.782 32.8198 127.786 32.9001C127.79 33.0075 127.667 33.0805 127.661 33.1866C127.653 33.2926 127.807 33.5289 127.786 33.6163M14.4811 42.2823C14.4472 42.4499 14.2968 42.5574 14.2303 42.7121C14.2165 42.745 14.2265 44.2678 14.2366 44.3538C14.2642 44.5486 14.4485 44.8809 14.6102 45.0256C14.9425 45.3092 15.6535 45.5169 16.1049 45.4797C16.3055 45.4625 16.5199 45.2978 16.6127 45.2906M14.4811 42.2823C15.2334 42.2823 16.7168 42.2752 16.7757 42.2866C16.9136 42.321 17.0603 42.5373 17.0653 42.7164C17.0653 42.7551 16.9575 44.0243 16.9738 44.4196C16.9776 44.6503 17.029 44.9482 16.9889 45.0041C16.9525 45.0542 16.8271 45.1488 16.6127 45.2906M16.6127 45.2906C16.6666 45.2863 16.9563 45.4797 17.1142 45.5771M73.6217 41.9011C73.5878 42.0687 73.4374 42.1761 73.3709 42.3309C73.3571 42.3638 73.3672 43.8866 73.3772 43.9725C73.4048 44.1673 73.5891 44.4997 73.7509 44.6444C74.0831 44.928 74.7941 45.1357 75.2455 45.0985C75.4461 45.0813 75.6605 44.9165 75.7533 44.9094M73.6217 41.9011C74.374 41.9011 75.8574 41.8939 75.9163 41.9054C76.0542 41.9398 76.201 42.1561 76.206 42.3352C76.206 42.3738 76.0981 43.643 76.1144 44.0384C76.1182 44.269 76.1696 44.567 76.1295 44.6229C76.0931 44.673 75.9677 44.7676 75.7533 44.9094M75.7533 44.9094C75.8072 44.9051 76.0969 45.0985 76.2549 45.1959M144.212 36.0516C144.191 36.4842 144.319 37.0157 144.337 37.1976C144.52 38.9768 144.197 40.14 144.087 40.3491M194.385 36.2011C194.613 36.2656 194.891 36.4977 195.012 36.7741M195.012 36.7741C195.093 36.9661 195.039 38.2611 195.012 38.6364C194.993 38.973 195.02 39.1722 195.137 39.2094C195.249 39.2424 195.614 39.2323 195.889 39.2094M195.012 36.7741C195.186 36.6538 195.336 36.6094 195.649 36.6166C195.908 36.6194 196.342 36.628 196.516 36.6309C196.599 36.6911 196.64 36.7383 196.642 36.7741C196.644 36.8816 196.488 37.1337 196.441 37.3916C196.312 38.0677 196.017 38.7582 196.015 38.7797C196.005 38.8742 196.057 38.9845 196.015 39.0662C195.976 39.1407 195.853 39.1292 195.827 39.2094C195.798 39.3025 195.894 39.3985 195.889 39.4959C195.884 39.6034 195.743 39.8397 195.75 40.0002C195.767 40.4213 195.784 41.3424 195.764 41.5014C195.744 41.6733 195.639 42.03 195.639 42.0744C195.635 42.242 195.686 42.4182 195.639 42.5758C195.612 42.6589 194.859 43.0571 194.706 43.2992C194.432 43.7433 193.499 45.5239 193.382 45.6557C193.26 45.7875 192.567 46.0669 192.379 46.2287M192.379 46.2287C192.284 46.3104 192.113 46.5152 192.002 46.6585M192.379 46.2287L190.999 46.0855M180.467 37.0606C180.879 37.0091 181.71 36.9074 182.169 36.9203C182.482 36.9289 182.974 36.7512 183.259 36.8128C183.386 36.8443 183.458 36.8801 183.476 36.9174C183.512 37.0033 183.458 37.1108 183.476 37.2039C183.493 37.3085 183.628 37.572 183.623 37.7654C183.618 37.9889 183.463 38.6063 183.462 38.9773C183.462 39.1535 183.493 40.4958 183.476 40.6419C183.472 40.6763 183.328 41.3639 183.272 42.1489C183.234 42.6417 183.083 43.6101 182.974 43.7935C182.858 43.9911 182.515 44.2648 182.473 44.3665M182.473 44.3665C182.436 44.4524 182.468 44.7303 182.374 45.0011C182.291 45.2403 182.153 45.6385 182.097 45.799M182.473 44.3665C182.393 44.2476 182.298 44.1989 182.108 44.1989C181.916 44.1989 181.779 44.2476 181.595 44.3665M182.097 45.799C182.063 45.6701 181.906 45.6285 181.846 45.5125C181.803 45.4308 181.86 45.3205 181.846 45.226C181.828 45.1214 181.698 44.7475 181.687 44.653C181.656 44.4453 181.436 44.2605 181.357 44.2046C181.184 44.0814 181.026 43.8278 180.972 43.5729C180.947 43.4482 180.867 42.9468 180.843 42.7907M182.097 45.799C182.123 45.9021 182.005 45.9866 181.971 46.0855C181.941 46.1743 181.855 47.2344 181.781 47.74C181.744 47.9922 181.21 49.9805 180.917 50.4575C180.826 50.5979 180.701 50.6796 180.45 50.7956C180.173 50.9231 180.105 51.3285 180.09 51.529M188.742 43.6502C188.748 43.5442 188.653 43.4625 188.617 43.3637C188.606 43.3365 188.623 42.3022 188.491 42.2177C188.436 42.1833 188.039 42.2363 187.99 42.2177C187.818 42.1489 187.882 41.4842 188.034 40.8969C188.132 40.4901 188.399 38.2224 188.638 37.913C188.721 37.8141 188.992 37.7497 189.251 37.7454C189.517 37.7454 189.698 37.8027 189.871 37.9201C189.547 38.4645 189.344 38.9645 189.318 39.5618C189.304 39.9457 189.359 41.0287 189.443 41.3453C189.51 41.5988 189.477 42.8852 189.495 43.0772C189.521 43.3236 189.624 43.5628 189.745 43.6502M188.742 43.6502C188.74 43.686 188.379 44.1344 188.241 44.3665C188.147 44.5226 187.76 45.501 187.547 45.8061C187.34 46.1012 186.989 46.9894 186.861 47.2315C186.715 47.508 185.421 49.4204 185.357 49.5235C185.24 49.7169 185.229 49.8501 185.295 50.1037C185.31 50.161 185.332 50.2541 185.357 50.383M188.742 43.6502L189.745 43.6502M26.7692 42.7121C26.7905 43.1175 26.6513 43.7865 26.6438 43.8581C26.6363 43.9297 26.6563 44.348 26.6438 44.4311C26.6325 44.5171 26.5008 44.9611 26.5184 45.0041C26.5422 45.0657 26.6563 45.0814 26.6438 45.1473M26.6438 45.1473C26.6425 45.1559 26.2313 45.4453 26.1422 45.5771C26.0557 45.7046 25.8413 46.6472 25.6394 47.2431C25.5253 47.5755 25.2633 48.1356 25.2131 48.4335C25.1592 48.7387 24.7642 49.3045 24.5874 49.5924C24.4056 49.8847 24.0508 50.1783 23.8852 50.3044M26.6438 45.1473C26.8996 45.3064 27.672 45.4811 27.8977 45.5771C28.0594 45.6459 28.714 46.0713 29.2331 46.3019C31.0725 47.0855 34.0894 48.3648 34.4179 48.5854C34.6875 48.7687 35.7144 49.5853 35.9226 49.7314C37.1526 50.588 39.4159 51.5965 39.6805 51.6553C39.8497 51.6954 40.0541 51.7985 40.1582 51.9102C40.3488 52.1251 40.3325 52.5549 40.3112 52.7397M85.9098 42.3309C85.9311 42.7363 85.7919 43.4052 85.7844 43.4769C85.7769 43.5485 85.797 43.9668 85.7844 44.0499C85.7731 44.1358 85.6415 44.5799 85.659 44.6229C85.6829 44.6845 85.797 44.7002 85.7844 44.7661M85.7844 44.7661C85.7832 44.7747 85.3719 45.0641 85.2829 45.1959C85.1964 45.3234 84.9819 46.266 84.7801 46.8619C84.666 47.1942 84.4039 47.7544 84.3537 48.0523C84.2998 48.3574 83.9048 48.9233 83.728 49.2112C83.5462 49.5035 83.1914 49.7971 83.0259 49.9232M85.7844 44.7661C86.0402 44.9251 86.8126 45.0999 87.0383 45.1959C87.2001 45.2646 87.8546 45.6901 88.3737 45.9207C90.2132 46.7043 93.23 47.9836 93.5585 48.2042C93.8281 48.3875 94.855 49.2041 95.0632 49.3502C96.2933 50.2068 98.5565 51.2153 98.8211 51.274C98.9904 51.3142 99.1948 51.4173 99.2988 51.529C99.4894 51.7439 99.4731 52.1737 99.4518 52.3585M189.745 43.6502C189.871 43.7376 190.217 43.9023 190.247 43.9367C190.256 43.9482 190.658 44.822 190.648 45.1099C190.646 45.1859 190.597 45.5841 190.623 45.6557C190.644 45.713 190.883 45.958 190.999 46.0855M190.999 46.0855C191.1 46.3047 191.273 46.6026 191.375 46.6585C191.486 46.7215 191.905 46.627 191.94 46.6585C192.162 46.8562 192.13 47.4994 192.128 47.6612M20.6251 44.2879C20.3781 44.6689 19.8026 45.5527 19.5932 45.7963C19.4038 46.0126 18.8734 46.3163 18.6039 46.3693C18.3142 46.4294 17.9606 46.7532 17.4415 47.3491C17.375 47.4265 17.3073 47.5053 17.2396 47.5826M17.2396 47.5826C17.2334 47.4766 17.0854 47.2159 17.0867 47.0139C17.0854 46.8048 17.2396 46.544 17.2396 46.4366M17.2396 47.5826C17.2434 47.6499 17.0039 48.074 16.9889 48.1556C16.9713 48.2487 16.9262 48.5854 16.8635 48.7286C16.8434 48.8217 16.8584 49.0409 16.718 49.369C16.6127 49.6239 16.6127 49.7715 16.7168 49.9563C16.8885 50.26 16.8898 50.9891 16.8697 51.6037C16.8559 52.0907 16.8898 53.0204 16.8635 53.1694C16.8196 53.4129 16.6428 53.9014 16.6127 54.0289C16.5876 54.1378 16.6992 54.8841 16.7381 55.1749M79.7658 43.9066C79.5187 44.2877 78.9432 45.1715 78.7338 45.4151C78.5445 45.6314 78.0141 45.9351 77.7445 45.9881C77.4549 46.0482 77.1012 46.372 76.5821 46.9679C76.5157 47.0453 76.448 47.124 76.3803 47.2014M76.3803 47.2014C76.374 47.0954 76.226 46.8347 76.2273 46.6327C76.226 46.4236 76.3803 46.1628 76.3803 46.0554M76.3803 47.2014C76.384 47.2687 76.1445 47.6928 76.1295 47.7744C76.1119 47.8675 76.0668 48.2042 76.0041 48.3474C75.984 48.4405 75.9991 48.6597 75.8586 48.9877C75.7533 49.2427 75.7533 49.3903 75.8574 49.5751C76.0292 49.8788 76.0304 50.6079 76.0104 51.2225C75.9966 51.7095 76.0304 52.6392 76.0041 52.7882C75.9602 53.0317 75.7834 53.5202 75.7533 53.6477C75.7282 53.7566 75.8398 54.5029 75.8787 54.7937M127.911 39.3464C127.701 39.7145 127.277 40.2388 126.783 40.6356C126.612 40.7717 125.738 41.3691 125.465 41.6169C125.295 41.7745 125.242 41.7988 125.153 41.7816M17.2396 37.2685C17.4214 37.1496 17.5418 37.1081 17.8064 37.0966C17.9506 37.0909 19.3662 37.0508 19.4966 37.1253C19.6509 37.2198 19.7462 37.3359 19.7825 37.472C19.7913 37.5092 19.7863 38.9618 19.7474 39.1308C19.6947 39.3485 19.4716 39.8671 19.3712 39.9903C19.291 40.0892 19.1129 40.2911 18.9951 40.7066C18.9549 40.8484 18.4434 42.0904 18.2427 42.4256C18.0158 42.7995 17.2961 43.6117 17.2409 43.8868C17.2334 43.9283 17.2384 44.719 17.2522 45.0284C17.2622 45.2405 17.0215 45.8837 17.1142 46.1501C17.1494 46.2489 17.2396 46.3306 17.2396 46.4366M17.2396 46.4366L17.992 46.7231M76.3803 36.8873C76.5621 36.7684 76.6825 36.7269 76.947 36.7154C77.0912 36.7097 78.5069 36.6696 78.6373 36.7441C78.7915 36.8386 78.8868 36.9546 78.9231 37.0907C78.9319 37.128 78.9269 38.5805 78.888 38.7496C78.8354 38.9673 78.6122 39.4859 78.5119 39.6091C78.4316 39.7079 78.2536 39.9099 78.1357 40.3253C78.0956 40.4672 77.584 41.7091 77.3834 42.0444C77.1564 42.4182 76.4367 43.2305 76.3815 43.5055C76.374 43.5471 76.379 44.3378 76.3928 44.6472C76.4028 44.8592 76.1621 45.5024 76.2549 45.7689C76.29 45.8677 76.3803 45.9494 76.3803 46.0554M76.3803 46.0554L77.1326 46.3419M137.817 40.9221C137.633 40.7803 137.51 40.7789 137.278 40.9637C137.148 41.0682 136.109 41.8561 135.956 41.849C135.864 41.8418 134.917 41.7573 134.481 41.763C134.222 41.763 134.132 41.8046 134.055 41.9249M195.639 42.6474C196.081 42.9225 196.42 42.9339 196.659 43.0715C197.849 43.7261 201.232 45.8119 201.407 45.9422C201.547 46.0497 202.327 46.7702 202.787 47.0438C203.038 47.1928 203.779 47.5896 203.914 47.6612M129.541 42.9276C129.256 43.3015 126.584 48.5961 126.315 48.9929C125.994 49.4628 125.182 50.6303 125.153 50.6632C124.907 50.9383 124.872 51.0242 124.902 51.2362M172.442 49.237C172.394 49.0823 172.376 48.5852 172.618 48.0581C172.702 47.8747 173.021 47.2243 173.069 47.0882C173.129 46.9206 173.17 46.5869 173.194 46.5152C173.205 46.4794 173.426 46.0368 173.445 45.9422C173.461 45.8649 173.43 45.4466 173.445 45.3692C173.462 45.2818 173.678 44.8507 173.696 44.7962C173.713 44.7446 173.778 44.3221 173.821 44.2232C173.87 44.1086 174.062 43.8307 174.197 43.6502C174.374 43.7734 174.524 43.8135 174.815 43.7877C175.133 43.7619 175.58 43.749 175.702 43.7935C175.882 43.8608 176.037 44.0656 176.078 44.2232M176.078 44.2232C176.517 44.1989 177.731 44.1487 177.833 44.2232C177.955 44.3163 177.932 44.5885 177.833 44.7962M176.078 44.2232C176.05 44.3607 176.05 44.4553 176.078 44.5097C176.136 44.6272 176.285 44.6716 176.329 44.7962M133.679 48.0847C133.655 47.8741 133.704 47.7237 133.914 47.463C134.553 46.6565 134.853 46.2654 134.933 46.0792C134.944 46.0505 135.343 44.0894 135.435 43.6439M177.833 44.7962H176.329M177.833 44.7962C177.978 44.9409 178.062 45.0369 178.084 45.0827C178.124 45.1672 178.177 46.0239 178.21 46.2287M176.329 44.7962C176.355 44.8764 176.211 44.9022 176.158 44.9624C176.029 45.1099 175.917 45.4838 175.921 45.7445C175.927 46.0096 175.958 46.6599 175.963 46.7244C175.984 47.0023 175.916 47.1871 175.702 47.518M16.4873 49.7314C16.3619 49.8976 16.2779 49.9935 16.2365 50.0179C16.1625 50.0623 15.9205 50.0279 15.5983 50.1697C15.3149 50.2915 15.0641 50.2815 14.9826 50.3044C14.9588 50.3116 13.4604 51.5048 12.9802 51.8085C12.6705 52.0162 12.5049 52.4302 12.4749 52.5964M75.6279 49.3502C75.5025 49.5163 75.4185 49.6123 75.3772 49.6367C75.3032 49.6811 75.0612 49.6467 74.7389 49.7885C74.4555 49.9103 74.2048 49.9003 74.1233 49.9232C74.0994 49.9303 72.6011 51.1236 72.1208 51.4273C71.8111 51.635 71.6456 52.049 71.6155 52.2152" stroke="#736262" stroke-width="3" stroke-linecap="round" stroke-linejoin="round"/>
<defs>
<clipPath id="clip0_807_6241">
<rect width="206" height="150" fill="white" transform="translate(1)"/>
</clipPath>
</defs>
</svg>
