<svg xmlns="http://www.w3.org/2000/svg" width="1920" height="1024" fill="none"><path fill="#D9D9D9" d="m614 402 15.963-30.737 24.903-12.167L677.215 329l75.285 7 133-7h106.513L1015 402H614Z"/><path fill="#1D4F6E" d="M624.368 362.408a.643.643 0 0 1-.448-.176.534.534 0 0 1-.192-.432v-2.336h-2.56a.628.628 0 0 1-.464-.176.676.676 0 0 1-.16-.448.6.6 0 0 1 .624-.64h2.56v-1.12h-.08c-.853 0-1.467-.155-1.84-.464-.363-.32-.544-.901-.544-1.744v-1.136c0-.853.181-1.435.544-1.744.373-.32.987-.48 1.84-.48h.08v-1.072h-2.512a.608.608 0 0 1-.448-.176.616.616 0 0 1-.16-.432c0-.16.053-.299.16-.416a.608.608 0 0 1 .448-.176h2.512v-1.136c0-.181.064-.325.192-.432a.643.643 0 0 1 .448-.176c.171 0 .32.059.448.176a.534.534 0 0 1 .192.432v1.136h2.352c.181 0 .325.059.432.176a.57.57 0 0 1 .176.416.588.588 0 0 1-.176.432.557.557 0 0 1-.432.176h-2.352v1.072h.08c.768 0 1.333.128 1.696.384.373.245.597.688.672 1.328.309-.459.597-.981.864-1.568.277-.587.517-1.184.72-1.792.213-.619.373-1.195.48-1.728.053-.213.165-.363.336-.448a.777.777 0 0 1 .56-.048c.192.053.325.16.4.32a.615.615 0 0 1 .048.496 17.663 17.663 0 0 1-.608 2.064h2.592c.821 0 1.365.203 1.632.608.277.405.283.923.016 1.552-.128.299-.283.629-.464.992l-.512 1.088a.7.7 0 0 1-.352.368.749.749 0 0 1-.528 0 .583.583 0 0 1-.384-.32.618.618 0 0 1 .016-.496c.117-.235.256-.507.416-.816.16-.32.283-.587.368-.8.139-.32.16-.549.064-.688-.096-.139-.315-.208-.656-.208h-2.704c-.171.384-.352.763-.544 1.136-.192.363-.395.709-.608 1.04a.746.746 0 0 1-.448.336.715.715 0 0 1-.544-.096.996.996 0 0 1-.144-.112v.768c0 .843-.187 1.424-.56 1.744-.363.309-.971.464-1.824.464h-.08v1.12h2.384a.6.6 0 0 1 .464.192.608.608 0 0 1 .176.448c0 .171-.059.32-.176.448a.628.628 0 0 1-.464.176h-2.384v2.336a.534.534 0 0 1-.192.432.643.643 0 0 1-.448.176Zm3.12-.336c-.171.107-.357.16-.56.16-.192 0-.357-.091-.496-.272a.597.597 0 0 1-.096-.496.664.664 0 0 1 .272-.4c1.205-.757 2.107-1.728 2.704-2.912.597-1.195.896-2.544.896-4.048v-1.136c0-.203.064-.363.192-.48a.724.724 0 0 1 .48-.176c.181 0 .336.059.464.176a.618.618 0 0 1 .192.48v1.136c0 1.536.32 2.885.96 4.048a7.522 7.522 0 0 0 2.64 2.752.746.746 0 0 1 .336.432.638.638 0 0 1-.096.544.731.731 0 0 1-.496.32.8.8 0 0 1-.576-.128 8.649 8.649 0 0 1-2.112-2.016 9.171 9.171 0 0 1-1.296-2.528 8.814 8.814 0 0 1-1.264 2.512c-.555.757-1.269 1.435-2.144 2.032Zm-4.96-8.272h1.2v-1.136h-.064c-.459 0-.763.069-.912.208-.149.128-.224.411-.224.848v.08Zm2.48 0h1.2v-.08c0-.437-.075-.72-.224-.848-.149-.139-.453-.208-.912-.208h-.064v1.136Zm-1.344 2.128h.064v-1.12h-1.2v.064c0 .427.075.709.224.848.149.139.453.208.912.208Zm1.344 0h.064c.459 0 .763-.069.912-.208.149-.139.224-.421.224-.848v-.064h-1.2v1.12Zm18.128 6.384a.685.685 0 0 1-.48-.176c-.117-.107-.181-.261-.192-.464a.636.636 0 0 1 .144-.464.61.61 0 0 1 .432-.192c.459-.021.752-.085.88-.192.128-.117.192-.368.192-.752v-1.28h-2.48c-.171 1.173-.539 2.197-1.104 3.072a.746.746 0 0 1-.432.336.703.703 0 0 1-.544-.064.585.585 0 0 1-.304-.4.546.546 0 0 1 .08-.464 6.523 6.523 0 0 0 1.072-2.896c.085-.597.128-1.296.128-2.096v-1.472c0-.555.069-.981.208-1.28.139-.309.384-.523.736-.64.352-.128.848-.192 1.488-.192s1.136.064 1.488.192c.352.117.597.331.736.64.139.299.208.725.208 1.28v5.504c0 .672-.155 1.173-.464 1.504-.309.331-.907.496-1.792.496Zm6.704-.08a.83.83 0 0 1-.528-.176c-.139-.107-.213-.267-.224-.48-.011-.213.043-.384.16-.512a.712.712 0 0 1 .48-.208c.363-.021.64-.059.832-.112a.685.685 0 0 0 .432-.336c.096-.171.176-.437.24-.8.064-.373.117-.821.16-1.344.043-.533.069-1.056.08-1.568.021-.533-.053-.88-.224-1.04-.16-.171-.485-.256-.976-.256h-.688c-.021 1.035-.128 1.952-.32 2.752a7.7 7.7 0 0 1-.848 2.144 7.579 7.579 0 0 1-1.44 1.744.748.748 0 0 1-.528.208.69.69 0 0 1-.736-.656.56.56 0 0 1 .208-.448 5.792 5.792 0 0 0 1.312-1.456 6.035 6.035 0 0 0 .736-1.84c.171-.704.267-1.52.288-2.448h-1.808a.557.557 0 0 1-.432-.176.616.616 0 0 1-.16-.432c0-.171.053-.315.16-.432a.557.557 0 0 1 .432-.176h1.824v-1.472c0-.213.064-.379.192-.496a.664.664 0 0 1 .464-.176c.181 0 .336.059.464.176.139.117.208.283.208.496v1.472h.752c.939 0 1.589.181 1.952.544.373.363.539 1.019.496 1.968a24.416 24.416 0 0 1-.096 1.712 21.883 21.883 0 0 1-.16 1.52c-.075.576-.213 1.029-.416 1.36a1.574 1.574 0 0 1-.832.72c-.363.149-.848.224-1.456.224Zm.8-9.824a.819.819 0 0 1-.576-.016.585.585 0 0 1-.336-.416 9.216 9.216 0 0 0-.256-.72 15.548 15.548 0 0 0-.288-.752h-1.104a10.622 10.622 0 0 1-1.12 1.696.864.864 0 0 1-.464.288.684.684 0 0 1-.528-.096.62.62 0 0 1-.272-.432.607.607 0 0 1 .144-.48c.437-.533.821-1.115 1.152-1.744.331-.629.592-1.232.784-1.808a.63.63 0 0 1 .352-.384.645.645 0 0 1 .544-.016.58.58 0 0 1 .368.336.61.61 0 0 1 0 .512c-.053.149-.112.304-.176.464a7.545 7.545 0 0 1-.176.448h4.288c.181 0 .325.059.432.176a.588.588 0 0 1 .176.432.588.588 0 0 1-.176.432.557.557 0 0 1-.432.176h-2.336c.085.181.165.368.24.56.075.181.133.336.176.464a.61.61 0 0 1 0 .512c-.064.171-.203.293-.416.368Zm-6.624 0a.819.819 0 0 1-.576-.016.632.632 0 0 1-.352-.416 13.577 13.577 0 0 0-.24-.72 15.548 15.548 0 0 0-.288-.752h-.784a10.05 10.05 0 0 1-.592.896c-.213.277-.437.555-.672.832a.909.909 0 0 1-.48.304c-.171.032-.347-.016-.528-.144a.62.62 0 0 1-.272-.432.659.659 0 0 1 .16-.48c.469-.512.901-1.099 1.296-1.76.405-.672.72-1.301.944-1.888a.688.688 0 0 1 .368-.384.647.647 0 0 1 .544.016.627.627 0 0 1 .368.368.584.584 0 0 1-.032.496 9.04 9.04 0 0 1-.208.48 9.04 9.04 0 0 1-.208.48h3.36c.181 0 .325.059.432.176a.588.588 0 0 1 .176.432.588.588 0 0 1-.176.432.557.557 0 0 1-.432.176h-1.808c.085.181.165.368.24.56.075.181.133.336.176.464a.61.61 0 0 1 0 .512.684.684 0 0 1-.416.368Zm-2.272 5.264h2.368v-1.312h-2.32c0 .459-.016.896-.048 1.312Zm.048-2.432h2.32v-.368c0-.288-.027-.496-.08-.624a.439.439 0 0 0-.32-.272c-.16-.043-.411-.064-.752-.064s-.597.021-.768.064a.439.439 0 0 0-.32.272c-.053.128-.08.336-.08.624v.368Zm16.48 6.256a.66.66 0 0 1-.48-.208.625.625 0 0 1-.208-.48c0-.192.069-.352.208-.48a.66.66 0 0 1 .48-.208h6v-3.344h-3.776a.707.707 0 0 1-.496-.192.707.707 0 0 1-.192-.496c0-.181.064-.341.192-.48a.676.676 0 0 1 .496-.208h3.776v-2.912h-3.68c-.235.395-.48.779-.736 1.152-.245.373-.496.725-.752 1.056a.967.967 0 0 1-.544.336.665.665 0 0 1-.592-.128.689.689 0 0 1-.16-1.008c.363-.437.731-.955 1.104-1.552.384-.597.736-1.216 1.056-1.856.331-.651.592-1.259.784-1.824.075-.224.203-.373.384-.448a.866.866 0 0 1 .592-.016.68.68 0 0 1 .432.944 16.474 16.474 0 0 1-.864 2.016h2.976v-2.752c0-.235.075-.421.224-.56a.806.806 0 0 1 .544-.208c.213 0 .395.069.544.208a.728.728 0 0 1 .224.56v2.752h4.864c.181 0 .336.069.464.208a.633.633 0 0 1 .192.464.633.633 0 0 1-.192.464.633.633 0 0 1-.464.192h-4.864v2.912h3.728c.192 0 .352.069.48.208a.676.676 0 0 1 0 .976.651.651 0 0 1-.48.192h-3.728v3.344h5.488c.192 0 .352.069.48.208a.625.625 0 0 1 .208.48.625.625 0 0 1-.208.48.625.625 0 0 1-.48.208h-13.024Zm27.824.672a.984.984 0 0 1-.56-.16c-.149-.107-.235-.277-.256-.512a.732.732 0 0 1 .144-.544.708.708 0 0 1 .528-.24c.544-.032.955-.085 1.232-.16.288-.085.496-.24.624-.464.128-.224.229-.549.304-.976.075-.416.149-.933.224-1.552a45.52 45.52 0 0 0 .192-1.952c.064-.693.107-1.344.128-1.952.021-.416-.032-.736-.16-.96-.128-.235-.336-.4-.624-.496-.277 2.155-.859 3.963-1.744 5.424-.875 1.461-2.091 2.683-3.648 3.664a.876.876 0 0 1-.592.112.604.604 0 0 1-.48-.288.724.724 0 0 1-.08-.528.746.746 0 0 1 .336-.416 9.518 9.518 0 0 0 3.296-3.184c.832-1.323 1.392-2.949 1.68-4.88h-1.024c-.256 1.333-.688 2.533-1.296 3.6a9.323 9.323 0 0 1-2.368 2.768.76.76 0 0 1-.528.16.716.716 0 0 1-.48-.256.66.66 0 0 1-.128-.48.672.672 0 0 1 .256-.432 7.434 7.434 0 0 0 2.112-2.336c.565-.949.965-1.957 1.2-3.024h-.912c-.171.363-.357.72-.56 1.072-.203.341-.416.667-.64.976a.64.64 0 0 1-.416.32.659.659 0 0 1-.512-.048.714.714 0 0 1-.32-.384.484.484 0 0 1 .08-.464c.32-.469.624-1.003.912-1.6.299-.597.565-1.221.8-1.872.235-.661.416-1.301.544-1.92a.598.598 0 0 1 .304-.432.76.76 0 0 1 .528-.064.603.603 0 0 1 .416.288.618.618 0 0 1 .08.496c-.075.384-.171.773-.288 1.168-.117.395-.251.789-.4 1.184h3.152c.704 0 1.264.085 1.68.256.427.16.736.443.928.848.192.405.277.965.256 1.68a47.174 47.174 0 0 1-.304 4.032 34.152 34.152 0 0 1-.208 1.68c-.107.715-.283 1.275-.528 1.68a1.998 1.998 0 0 1-1.056.88c-.448.181-1.056.277-1.824.288Zm-6.624.16a.707.707 0 0 1-.496-.192.67.67 0 0 1-.192-.496v-4.592c-.405.149-.789.293-1.152.432-.363.128-.656.235-.88.32a.751.751 0 0 1-.608-.032.737.737 0 0 1-.368-.448.761.761 0 0 1 .032-.576c.085-.181.24-.304.464-.368a23.37 23.37 0 0 0 1.136-.352c.448-.149.907-.304 1.376-.464v-3.248h-1.248a16.636 16.636 0 0 1-.496 1.712.652.652 0 0 1-.304.448.744.744 0 0 1-.528.064.664.664 0 0 1-.4-.272.66.66 0 0 1-.064-.496c.224-.555.416-1.2.576-1.936.16-.736.267-1.445.32-2.128a.624.624 0 0 1 .24-.448.61.61 0 0 1 .464-.128c.181.011.331.08.448.208.117.128.165.293.144.496-.032.395-.08.784-.144 1.168h.992v-2.816c0-.213.064-.384.192-.512a.707.707 0 0 1 .496-.192.67.67 0 0 1 .496.192.663.663 0 0 1 .208.512V351h.96c.203 0 .363.064.48.192a.664.664 0 0 1 .176.464.664.664 0 0 1-.176.464.618.618 0 0 1-.48.192h-.96v2.752c.181-.075.352-.139.512-.192.171-.064.32-.117.448-.16a.574.574 0 0 1 .496 0 .584.584 0 0 1 .32.352.77.77 0 0 1 .016.512c-.053.16-.176.283-.368.368-.171.075-.379.16-.624.256s-.512.203-.8.32v5.12a.643.643 0 0 1-.208.496.67.67 0 0 1-.496.192Zm32.116-.384c-1.205 0-2.234-.091-3.088-.272-.853-.181-1.584-.469-2.192-.864a6.092 6.092 0 0 1-1.6-1.584c-.288.491-.608.96-.96 1.408-.341.437-.704.837-1.088 1.2a.888.888 0 0 1-.528.24.642.642 0 0 1-.544-.16.66.66 0 0 1-.24-.48.539.539 0 0 1 .192-.464 9.462 9.462 0 0 0 1.696-2c.502-.779.891-1.563 1.168-2.352.075-.203.198-.336.368-.4a.777.777 0 0 1 .56-.016c.192.075.32.197.384.368.075.171.08.347.016.528a7.545 7.545 0 0 1-.384.896c.331.523.699.955 1.104 1.296.406.331.864.597 1.376.8v-4.48h-5.984a.59.59 0 0 1-.432-.176.643.643 0 0 1-.176-.448c0-.171.059-.315.176-.432a.59.59 0 0 1 .432-.176h13.264c.171 0 .315.059.432.176a.562.562 0 0 1 .192.432c0 .171-.064.32-.192.448a.588.588 0 0 1-.432.176h-5.84v1.568h4.16a.604.604 0 0 1 .608.624c0 .171-.058.32-.176.448a.588.588 0 0 1-.432.176h-4.16v2.048c.342.064.704.107 1.088.128.395.021.806.032 1.232.032.534 0 1.094-.005 1.68-.016a26.353 26.353 0 0 0 1.664-.08c.246-.021.432.037.56.176a.688.688 0 0 1 .192.48c0 .48-.277.72-.832.72a66.72 66.72 0 0 1-1.6.016c-.608.011-1.162.016-1.664.016Zm-4.672-8.432c-.789 0-1.402-.08-1.84-.24-.437-.16-.746-.421-.928-.784-.17-.363-.256-.853-.256-1.472v-.56c0-.619.086-1.109.256-1.472.182-.363.491-.624.928-.784.438-.16 1.051-.24 1.84-.24h3.168c.79 0 1.403.08 1.84.24.438.16.742.421.912.784.182.363.272.853.272 1.472v.56c0 .619-.09 1.109-.272 1.472-.17.363-.474.624-.912.784-.437.16-1.05.24-1.84.24h-3.168Zm0-1.216h3.168c.587 0 .982-.059 1.184-.176.214-.128.331-.405.352-.832h-6.24c.022.427.134.704.336.832.214.117.614.176 1.2.176Zm-1.536-2.144h6.24c-.021-.427-.138-.699-.352-.816-.213-.117-.608-.176-1.184-.176h-3.168c-.576 0-.97.059-1.184.176-.213.117-.33.389-.352.816Zm22.464 11.584c-.938 0-1.674-.107-2.208-.32-.533-.213-.912-.565-1.136-1.056-.224-.491-.336-1.152-.336-1.984v-6.8c0-.832.112-1.488.336-1.968.224-.491.603-.843 1.136-1.056.534-.213 1.27-.32 2.208-.32h1.92c.939 0 1.68.107 2.224.32.544.213.934.565 1.168 1.056.235.48.352 1.136.352 1.968v6.8c0 .832-.117 1.493-.352 1.984-.234.491-.624.843-1.168 1.056-.544.213-1.285.32-2.224.32h-1.92Zm-.016-1.248h2.032c.854 0 1.446-.149 1.776-.448.342-.299.512-.843.512-1.632v-6.848c0-.779-.165-1.317-.496-1.616-.32-.309-.917-.464-1.792-.464h-2.032c-.874 0-1.477.155-1.808.464-.33.299-.496.837-.496 1.616v6.848c0 .789.171 1.333.512 1.632.342.299.939.448 1.792.448Zm1.008-1.408c-.597 0-1.066-.059-1.408-.176a1.224 1.224 0 0 1-.704-.656c-.128-.32-.192-.763-.192-1.328 0-.725.112-1.243.336-1.552.235-.32.667-.512 1.296-.576v-1.472h-2a.517.517 0 0 1-.416-.192.66.66 0 0 1 0-.864.486.486 0 0 1 .4-.208h2.016v-1.328c0-.192.07-.341.208-.448a.768.768 0 0 1 .48-.176.7.7 0 0 1 .464.176.532.532 0 0 1 .208.448v1.328h2c.182 0 .32.069.416.208.107.128.16.272.16.432 0 .16-.053.304-.16.432a.487.487 0 0 1-.416.192h-2v1.472c.63.064 1.056.256 1.28.576.224.309.336.827.336 1.552 0 .565-.069 1.008-.208 1.328a1.162 1.162 0 0 1-.688.656c-.33.117-.8.176-1.408.176Zm-6.768 3.232a.707.707 0 0 1-.496-.192.67.67 0 0 1-.192-.496v-8.24a18.599 18.599 0 0 1-1.056 1.632.67.67 0 0 1-.464.272.8.8 0 0 1-.544-.128.606.606 0 0 1-.272-.432.705.705 0 0 1 .144-.528c.278-.352.571-.789.88-1.312.31-.533.608-1.093.896-1.68.299-.597.56-1.173.784-1.728.235-.565.416-1.061.544-1.488.064-.213.182-.357.352-.432a.768.768 0 0 1 .576-.032.578.578 0 0 1 .4.336.73.73 0 0 1 .048.544 20.763 20.763 0 0 1-.912 2.288v10.928a.643.643 0 0 1-.208.496.651.651 0 0 1-.48.192Zm6.768-4.464c.31 0 .534-.021.672-.064.15-.043.246-.128.288-.256.054-.139.08-.341.08-.608 0-.277-.026-.48-.08-.608-.042-.128-.138-.208-.288-.24-.138-.043-.362-.064-.672-.064-.298 0-.522.021-.672.064a.393.393 0 0 0-.288.272c-.042.128-.064.331-.064.608 0 .267.022.464.064.592.043.128.139.213.288.256.15.032.374.048.672.048Zm14.88 4.56a.707.707 0 0 1-.496-.192.67.67 0 0 1-.192-.496v-3.12a17.16 17.16 0 0 1-1.824 1.632c-.672.523-1.322.965-1.952 1.328a1.033 1.033 0 0 1-.592.144.6.6 0 0 1-.496-.288.746.746 0 0 1-.112-.576.723.723 0 0 1 .384-.464c.395-.203.827-.464 1.296-.784.48-.32.95-.661 1.408-1.024.459-.373.859-.731 1.2-1.072h-2.096a.554.554 0 0 1-.4-.176.581.581 0 0 1 0-.8.554.554 0 0 1 .4-.176h2.784v-1.088h-4.56a.59.59 0 0 1-.432-.176.588.588 0 0 1-.176-.432.57.57 0 0 1 .176-.416.59.59 0 0 1 .432-.176h4.56v-1.008h-2.784a.554.554 0 0 1-.4-.176.581.581 0 0 1 0-.8.554.554 0 0 1 .4-.176h2.784v-1.136h-4.048a.62.62 0 0 1-.432-.16.588.588 0 0 1-.176-.432.57.57 0 0 1 .176-.416.59.59 0 0 1 .432-.176h3.536c-.117-.192-.24-.389-.368-.592a33.324 33.324 0 0 0-.272-.464.709.709 0 0 1-.096-.544.68.68 0 0 1 .352-.432.85.85 0 0 1 .56-.064.615.615 0 0 1 .448.336c.086.139.187.32.304.544.118.213.235.432.352.656.128.224.23.411.304.56h2.24c.086-.149.187-.331.304-.544l.352-.672c.128-.235.235-.421.32-.56a.669.669 0 0 1 .448-.352.787.787 0 0 1 .56.048.623.623 0 0 1 .368.432.689.689 0 0 1-.064.544 8.5 8.5 0 0 1-.304.512c-.128.203-.25.4-.368.592h3.696c.171 0 .315.059.432.176a.566.566 0 0 1 .176.416.584.584 0 0 1-.176.432.616.616 0 0 1-.432.16h-4.208v1.136h.736c.662 0 1.179.064 1.552.192.374.128.64.347.8.656.16.309.24.731.24 1.264v.048h1.344c.171 0 .315.059.432.176a.566.566 0 0 1 .176.416.584.584 0 0 1-.176.432.588.588 0 0 1-.432.176h-1.344v.128c0 .533-.08.955-.24 1.264-.16.309-.426.528-.8.656-.373.128-.89.192-1.552.192.352.341.758.688 1.216 1.04a23.495 23.495 0 0 0 2.8 1.792.626.626 0 0 1 .352.432.65.65 0 0 1-.08.576.687.687 0 0 1-.496.32.829.829 0 0 1-.592-.096 27.859 27.859 0 0 1-1.312-.816c-.469-.32-.933-.667-1.392-1.04a14.245 14.245 0 0 1-1.232-1.152v3.168a.643.643 0 0 1-.208.496.705.705 0 0 1-.496.192.707.707 0 0 1-.496-.192.67.67 0 0 1-.192-.496v-4.224h-1.648v4.224a.643.643 0 0 1-.208.496.651.651 0 0 1-.48.192Zm3.728-6.064h.736c.438 0 .731-.064.88-.192.15-.139.224-.395.224-.768v-.128h-1.84v1.088Zm-3.04-4.448h1.648v-1.136h-1.648v1.136Zm0 4.448h1.648v-1.088h-1.648v1.088Zm3.04-2.288h1.84v-.048c0-.373-.074-.624-.224-.752-.149-.139-.442-.208-.88-.208h-.736v1.008Zm-3.04 0h1.648v-1.008h-1.648v1.008Zm14.48 8.304a.676.676 0 0 1-.496-.208.67.67 0 0 1-.192-.496v-7.712a9.024 9.024 0 0 1-.48.768l-.48.704a.802.802 0 0 1-.512.304.8.8 0 0 1-.544-.128.712.712 0 0 1-.272-.448.68.68 0 0 1 .144-.512 17.76 17.76 0 0 0 1.344-2.112c.427-.789.806-1.579 1.136-2.368a19.59 19.59 0 0 0 .768-2.128c.054-.213.166-.357.336-.432a.74.74 0 0 1 .544-.048.7.7 0 0 1 .432.32c.096.16.112.341.048.544-.138.448-.304.912-.496 1.392-.181.48-.378.965-.592 1.456v10.032a.784.784 0 0 1 .08-.224c.47-.864.79-1.824.96-2.88.182-1.056.272-2.245.272-3.568 0-.629.07-1.131.208-1.504.15-.373.4-.645.752-.816.352-.181.832-.283 1.44-.304v-1.456h-2.048a.615.615 0 0 1-.448-.192.643.643 0 0 1-.176-.448c0-.171.059-.315.176-.432a.615.615 0 0 1 .448-.192h2.048v-1.056c0-.213.07-.379.208-.496a.707.707 0 0 1 .496-.192c.192 0 .358.064.496.192.139.117.208.283.208.496v1.056h1.856v-1.056c0-.213.064-.379.192-.496a.707.707 0 0 1 .496-.192.67.67 0 0 1 .496.192c.139.117.208.283.208.496v1.056h2.144a.58.58 0 0 1 .448.192.584.584 0 0 1 .176.432c0 .171-.058.32-.176.448a.58.58 0 0 1-.448.192h-2.144v1.44h2.448a.604.604 0 0 1 .624.624.584.584 0 0 1-.176.432.607.607 0 0 1-.448.176h-6.624c-.618 0-1.04.096-1.264.288-.213.181-.32.555-.32 1.12 0 1.419-.09 2.725-.272 3.92-.181 1.184-.522 2.219-1.024 3.104a.747.747 0 0 1-.416.352.694.694 0 0 1-.544-.032.604.604 0 0 1-.352-.496v.192a.643.643 0 0 1-.208.496.625.625 0 0 1-.48.208Zm4.848.016a.645.645 0 0 1-.448-.176.551.551 0 0 1-.192-.448v-5.472c0-.576.075-1.024.224-1.344.15-.32.4-.544.752-.672.363-.128.864-.192 1.504-.192h2.064c.64 0 1.136.064 1.488.192.363.128.614.352.752.672.139.32.208.768.208 1.344v4.176c0 .629-.138 1.093-.416 1.392-.266.299-.698.453-1.296.464a.85.85 0 0 1-.496-.144c-.138-.096-.218-.245-.24-.448a.655.655 0 0 1 .16-.496c.118-.128.283-.197.496-.208.214-.021.358-.069.432-.144.075-.085.112-.256.112-.512v-.784h-1.616v1.84a.534.534 0 0 1-.192.432.588.588 0 0 1-.432.176.645.645 0 0 1-.448-.176.534.534 0 0 1-.192-.432v-1.84h-1.568v2.176a.551.551 0 0 1-.192.448.663.663 0 0 1-.464.176Zm.96-10.4h1.856v-1.44h-1.856v1.44Zm2.528 6.496h1.616V357.4h-1.616v1.072Zm-2.832 0h1.568V357.4h-1.568v1.072Zm2.832-2.176h1.616v-.016c0-.437-.074-.72-.224-.848-.149-.128-.474-.192-.976-.192h-.416v1.056Zm-2.832 0h1.568v-1.056h-.384c-.501 0-.826.064-.976.192-.138.128-.208.411-.208.848v.016Zm15.664 5.584c-.864 0-1.594-.059-2.192-.176-.597-.117-1.082-.331-1.456-.64-.362-.299-.629-.72-.8-1.264-.16-.544-.24-1.248-.24-2.112v-5.52c0-.864.08-1.568.24-2.112.171-.544.438-.965.8-1.264.374-.309.859-.523 1.456-.64.598-.117 1.328-.176 2.192-.176h4.064c.864 0 1.595.059 2.192.176.598.117 1.078.331 1.44.64.374.299.64.72.8 1.264.171.544.256 1.248.256 2.112v5.52c0 .864-.085 1.568-.256 2.112-.16.544-.426.965-.8 1.264-.362.309-.842.523-1.44.64-.597.117-1.328.176-2.192.176h-4.064Zm0-1.312h4.064c.811 0 1.451-.075 1.92-.224.47-.149.806-.427 1.008-.832.203-.416.304-1.024.304-1.824v-5.52c0-.8-.101-1.408-.304-1.824-.202-.416-.538-.693-1.008-.832-.469-.149-1.109-.224-1.92-.224h-4.064c-.8 0-1.44.075-1.92.224-.469.139-.805.416-1.008.832-.202.416-.304 1.024-.304 1.824v5.52c0 .8.102 1.408.304 1.824.203.405.539.683 1.008.832.48.149 1.12.224 1.92.224Zm1.312-1.344c-.629 0-1.136-.069-1.52-.208a1.5 1.5 0 0 1-.816-.736c-.16-.352-.24-.832-.24-1.44s.08-1.083.24-1.424c.171-.352.443-.597.816-.736.384-.149.891-.224 1.52-.224h.016v-1.616h-3.488a.61.61 0 0 1-.448-.176.62.62 0 0 1-.16-.432.62.62 0 0 1 .16-.432.582.582 0 0 1 .448-.192h3.488v-1.328c0-.181.064-.336.192-.464a.676.676 0 0 1 .496-.208c.192 0 .352.069.48.208a.608.608 0 0 1 .208.464v1.328h3.376c.182 0 .326.064.432.192a.584.584 0 0 1 .176.432.584.584 0 0 1-.176.432.554.554 0 0 1-.432.176h-3.376v1.616h.032c.63 0 1.131.075 1.504.224.384.139.656.384.816.736.171.341.256.816.256 1.424s-.085 1.088-.256 1.44c-.16.341-.432.587-.816.736-.373.139-.874.208-1.504.208h-1.424Zm0-1.28h1.424c.47 0 .779-.069.928-.208.16-.149.24-.448.24-.896s-.08-.741-.24-.88c-.149-.149-.458-.224-.928-.224h-1.424c-.458 0-.768.075-.928.224-.16.139-.24.432-.24.88s.08.747.24.896c.16.139.47.208.928.208Zm13.488.08a.664.664 0 0 1-.464-.176.618.618 0 0 1-.192-.48v-4c0-.693.16-1.179.48-1.456.331-.288.912-.432 1.744-.432h1.2c.832 0 1.414.144 1.744.432.331.277.496.763.496 1.456v2.72c0 .64-.154 1.104-.464 1.392-.298.288-.805.432-1.52.432a.663.663 0 0 1-.464-.16.723.723 0 0 1-.208-.432.653.653 0 0 1 .144-.448.645.645 0 0 1 .48-.224c.32-.021.518-.069.592-.144.075-.075.112-.235.112-.48v-.192h-3.024v1.536a.618.618 0 0 1-.192.48.663.663 0 0 1-.464.176Zm9.408-5.504c-.768 0-1.37-.064-1.808-.192-.426-.128-.73-.341-.912-.64-.181-.309-.272-.725-.272-1.248v-2.192c0-.213.064-.379.192-.496a.724.724 0 0 1 .48-.176c.182 0 .336.059.464.176.139.117.208.283.208.496v.864c.32-.075.672-.165 1.056-.272.395-.107.779-.219 1.152-.336.374-.117.694-.229.96-.336.203-.075.384-.075.544 0 .16.075.267.192.32.352.064.192.054.357-.032.496a.657.657 0 0 1-.384.304 22.88 22.88 0 0 1-1.168.352c-.426.107-.853.203-1.28.288-.426.085-.816.16-1.168.224v.016c0 .299.043.528.128.688.086.16.251.267.496.32.256.053.624.08 1.104.08a6.41 6.41 0 0 0 1.04-.064c.256-.053.448-.149.576-.288.139-.139.251-.347.336-.624.054-.181.16-.299.32-.352a.68.68 0 0 1 .48-.016c.192.064.326.171.4.32a.61.61 0 0 1 .032.48c-.128.459-.304.821-.528 1.088-.224.256-.549.437-.976.544-.426.096-1.013.144-1.76.144Zm0 5.248c-.768 0-1.37-.064-1.808-.192-.426-.128-.73-.341-.912-.64-.181-.309-.272-.725-.272-1.248v-2.224c0-.203.064-.363.192-.48a.688.688 0 0 1 .48-.192c.182 0 .336.064.464.192a.594.594 0 0 1 .208.48v.864c.32-.075.672-.165 1.056-.272.395-.107.774-.219 1.136-.336.374-.117.694-.224.96-.32.203-.085.384-.091.544-.016.16.075.267.197.32.368.064.192.054.357-.032.496-.074.128-.202.224-.384.288a19.2 19.2 0 0 1-1.152.352c-.426.107-.853.203-1.28.288-.426.085-.816.16-1.168.224v.064c0 .299.043.528.128.688.086.149.251.251.496.304.256.053.624.08 1.104.08a6.41 6.41 0 0 0 1.04-.064c.256-.043.448-.133.576-.272.139-.149.251-.363.336-.64.054-.181.16-.299.32-.352a.68.68 0 0 1 .48-.016c.192.064.326.171.4.32a.61.61 0 0 1 .032.48c-.128.459-.304.821-.528 1.088-.224.256-.549.437-.976.544-.426.096-1.013.144-1.76.144Zm-3.904-6.496a.603.603 0 0 1-.48.112.694.694 0 0 1-.4-.304 4.406 4.406 0 0 0-.16-.224 2 2 0 0 0-.176-.24c-.33.032-.736.069-1.216.112s-.981.091-1.504.144c-.522.043-1.013.08-1.472.112l-1.152.08c-.192.011-.346-.032-.464-.128a.554.554 0 0 1-.192-.416c-.01-.171.032-.304.128-.4a.623.623 0 0 1 .416-.176h.432l.464-.032c.118-.181.251-.4.4-.656.16-.256.31-.512.448-.768.139-.267.251-.491.336-.672.096-.192.224-.315.384-.368a.655.655 0 0 1 .512.016.634.634 0 0 1 .352.352c.064.16.054.32-.032.48-.096.171-.234.405-.416.704-.181.288-.357.565-.528.832.406-.021.811-.048 1.216-.08.406-.032.779-.064 1.12-.096a5.626 5.626 0 0 0-.256-.272 2.498 2.498 0 0 0-.208-.24.496.496 0 0 1-.128-.416.614.614 0 0 1 .224-.4.649.649 0 0 1 .416-.112c.16 0 .294.059.4.176.16.149.347.352.56.608.224.245.443.496.656.752.214.256.379.475.496.656a.53.53 0 0 1 .112.48.571.571 0 0 1-.288.384Zm.352 10.992c-.885 0-1.573-.069-2.064-.208-.49-.139-.832-.384-1.024-.736-.181-.341-.272-.821-.272-1.44v-.928c0-.203.064-.363.192-.48a.724.724 0 0 1 .48-.176c.182 0 .336.059.464.176a.594.594 0 0 1 .208.48v.816c0 .341.048.603.144.784.096.181.288.309.576.384.288.064.726.096 1.312.096.576 0 1.008-.032 1.296-.096.288-.064.496-.176.624-.336.139-.16.256-.384.352-.672.064-.203.182-.336.352-.4a.648.648 0 0 1 .528 0c.182.075.31.187.384.336a.653.653 0 0 1 .032.496c-.149.491-.346.875-.592 1.152-.234.277-.586.469-1.056.576-.469.117-1.114.176-1.936.176Zm-7.2-.464a.662.662 0 0 1-.24-.432.538.538 0 0 1 .144-.448 7.35 7.35 0 0 0 .56-.64c.203-.256.395-.512.576-.768.192-.267.347-.491.464-.672a.623.623 0 0 1 .384-.32.676.676 0 0 1 .512.08c.15.085.251.213.304.384a.592.592 0 0 1-.064.496c-.202.341-.458.72-.768 1.136-.309.416-.597.773-.864 1.072a.889.889 0 0 1-.496.256.62.62 0 0 1-.512-.144Zm14.064-.24a.63.63 0 0 1-.496.144.669.669 0 0 1-.448-.24 9.687 9.687 0 0 0-.544-.64 17.489 17.489 0 0 0-1.312-1.392.435.435 0 0 1-.144-.4.656.656 0 0 1 .208-.416.614.614 0 0 1 .448-.16.7.7 0 0 1 .464.176c.192.171.411.379.656.624.246.245.48.491.704.736.235.245.427.459.576.64a.576.576 0 0 1 .144.464.701.701 0 0 1-.256.464Zm-5.728-1.664a.698.698 0 0 1-.464.16.6.6 0 0 1-.432-.224 5.581 5.581 0 0 0-.56-.576 5.523 5.523 0 0 0-.576-.512.454.454 0 0 1-.128-.4.611.611 0 0 1 .192-.384c.278-.235.56-.235.848 0 .182.149.379.32.592.512.214.181.406.357.576.528a.585.585 0 0 1 .192.464c-.01.16-.09.304-.24.432Zm-6.336-5.088h3.024v-.64h-3.024v.64Zm0-1.648h3.024c-.021-.277-.112-.453-.272-.528-.149-.075-.41-.112-.784-.112h-.912c-.362 0-.624.037-.784.112-.16.075-.25.251-.272.528Zm29.664 8.848a12.624 12.624 0 0 1-3.056-2.032 10.46 10.46 0 0 1-1.36 1.088c-.48.341-.997.651-1.552.928a.828.828 0 0 1-.576.08.577.577 0 0 1-.416-.352c-.085-.203-.09-.389-.016-.56a.912.912 0 0 1 .432-.384c1.003-.469 1.856-1.04 2.56-1.712a21.105 21.105 0 0 1-.864-1.056 10.9 10.9 0 0 1-.752-1.12l-.256.32-.256.288a.74.74 0 0 1-.48.24.623.623 0 0 1-.512-.176.611.611 0 0 1-.208-.464.759.759 0 0 1 .208-.48c.416-.459.822-.981 1.216-1.568.395-.597.752-1.205 1.072-1.824.32-.619.582-1.189.784-1.712a.578.578 0 0 1 .352-.368.694.694 0 0 1 .528-.016.578.578 0 0 1 .368.336c.075.149.08.315.016.496a7.259 7.259 0 0 1-.192.48c-.064.16-.133.325-.208.496h1.2c1.632 0 2.23.752 1.792 2.256a10.531 10.531 0 0 1-2 3.808c.438.363.891.699 1.36 1.008.48.299.982.555 1.504.768a.624.624 0 0 1 .368.384.689.689 0 0 1-.032.544.62.62 0 0 1-.448.368.773.773 0 0 1-.576-.064Zm-7.984.352a.688.688 0 0 1-.48-.192.67.67 0 0 1-.192-.496v-5.856a8.868 8.868 0 0 1-.416.48c-.138.149-.277.293-.416.432a.8.8 0 0 1-.416.224.647.647 0 0 1-.448-.064.74.74 0 0 1-.032.432 21.68 21.68 0 0 1-.56 1.376 47.481 47.481 0 0 1-.72 1.536c-.234.501-.448.917-.64 1.248a.748.748 0 0 1-.448.352.687.687 0 0 1-.56-.048c-.192-.107-.309-.251-.352-.432a.648.648 0 0 1 .096-.512c.203-.341.422-.752.656-1.232a35.454 35.454 0 0 0 1.264-2.752.69.69 0 0 1 .352-.384.578.578 0 0 1 .528 0 .124.124 0 0 0 .048.016c.022 0 .038.011.048.032-.085-.267-.032-.496.16-.688.395-.395.795-.848 1.2-1.36.416-.512.8-1.035 1.152-1.568.363-.533.656-1.029.88-1.488a.639.639 0 0 1 .4-.32.694.694 0 0 1 .528.048c.182.096.294.229.336.4a.682.682 0 0 1-.064.496c-.17.32-.357.651-.56.992-.202.341-.426.683-.672 1.024v7.616a.643.643 0 0 1-.208.496.631.631 0 0 1-.464.192Zm-1.504-11.344a.645.645 0 0 1-.448-.176.643.643 0 0 1-.176-.448c0-.171.059-.315.176-.432a.615.615 0 0 1 .448-.192h4.08v-1.536a.71.71 0 0 1 .224-.544.751.751 0 0 1 .528-.208c.214 0 .39.069.528.208.15.139.224.32.224.544v1.536h4.384c.171 0 .315.064.432.192a.562.562 0 0 1 .192.432c0 .171-.064.32-.192.448a.588.588 0 0 1-.432.176h-9.968Zm6.384 7.104c.374-.459.694-.939.96-1.44a9.885 9.885 0 0 0 .656-1.568c.118-.373.128-.624.032-.752s-.33-.192-.704-.192h-1.648a16.104 16.104 0 0 1-1.008 1.632c.47.843 1.04 1.616 1.712 2.32Zm-8.064-7.584a33.09 33.09 0 0 0-.544-.368l-.672-.448a9.735 9.735 0 0 0-.56-.352.578.578 0 0 1-.304-.384.714.714 0 0 1 .064-.512.628.628 0 0 1 .416-.32.758.758 0 0 1 .528.064 9.1 9.1 0 0 1 .592.352c.246.139.486.288.72.448.235.149.422.277.56.384.15.117.24.272.272.464a.644.644 0 0 1-.128.512.66.66 0 0 1-.448.272.632.632 0 0 1-.496-.112Zm-.304 3.76a33.09 33.09 0 0 0-.544-.368l-.672-.448a9.735 9.735 0 0 0-.56-.352.65.65 0 0 1-.304-.384.714.714 0 0 1 .064-.512.682.682 0 0 1 .416-.32.758.758 0 0 1 .528.064 9.1 9.1 0 0 1 .592.352c.246.139.486.288.72.448.235.149.422.277.56.384a.64.64 0 0 1 .272.464.644.644 0 0 1-.128.512.649.649 0 0 1-.432.272.679.679 0 0 1-.512-.112Zm8.512 2.256a20.407 20.407 0 0 0-.976-.72.609.609 0 0 1-.16-.816.555.555 0 0 1 .368-.24.545.545 0 0 1 .464.08c.15.107.326.235.528.384.203.139.358.251.464.336a.58.58 0 0 1 .24.384.641.641 0 0 1-.112.448.545.545 0 0 1-.384.256.549.549 0 0 1-.432-.112Zm9.44 1.472a.664.664 0 0 1-.464-.176.618.618 0 0 1-.192-.48v-4c0-.693.16-1.179.48-1.456.331-.288.912-.432 1.744-.432h1.2c.832 0 1.414.144 1.744.432.331.277.496.763.496 1.456v2.72c0 .64-.154 1.104-.464 1.392-.298.288-.805.432-1.52.432a.663.663 0 0 1-.464-.16.723.723 0 0 1-.208-.432.653.653 0 0 1 .144-.448.645.645 0 0 1 .48-.224c.32-.021.518-.069.592-.144.075-.075.112-.235.112-.48v-.192h-3.024v1.536a.618.618 0 0 1-.192.48.663.663 0 0 1-.464.176Zm9.408-5.504c-.768 0-1.37-.064-1.808-.192-.426-.128-.73-.341-.912-.64-.181-.309-.272-.725-.272-1.248v-2.192c0-.213.064-.379.192-.496a.724.724 0 0 1 .48-.176c.182 0 .336.059.464.176.139.117.208.283.208.496v.864c.32-.075.672-.165 1.056-.272.395-.107.779-.219 1.152-.336.374-.117.694-.229.96-.336.203-.075.384-.075.544 0 .16.075.267.192.32.352.064.192.054.357-.032.496a.657.657 0 0 1-.384.304 22.88 22.88 0 0 1-1.168.352c-.426.107-.853.203-1.28.288-.426.085-.816.16-1.168.224v.016c0 .299.043.528.128.688.086.16.251.267.496.32.256.053.624.08 1.104.08a6.41 6.41 0 0 0 1.04-.064c.256-.053.448-.149.576-.288.139-.139.251-.347.336-.624.054-.181.16-.299.32-.352a.68.68 0 0 1 .48-.016c.192.064.326.171.4.32a.61.61 0 0 1 .032.48c-.128.459-.304.821-.528 1.088-.224.256-.549.437-.976.544-.426.096-1.013.144-1.76.144Zm0 5.248c-.768 0-1.37-.064-1.808-.192-.426-.128-.73-.341-.912-.64-.181-.309-.272-.725-.272-1.248v-2.224c0-.203.064-.363.192-.48a.688.688 0 0 1 .48-.192c.182 0 .336.064.464.192a.594.594 0 0 1 .208.48v.864c.32-.075.672-.165 1.056-.272.395-.107.774-.219 1.136-.336.374-.117.694-.224.96-.32.203-.085.384-.091.544-.016.16.075.267.197.32.368.064.192.054.357-.032.496-.074.128-.202.224-.384.288a19.2 19.2 0 0 1-1.152.352c-.426.107-.853.203-1.28.288-.426.085-.816.16-1.168.224v.064c0 .299.043.528.128.688.086.149.251.251.496.304.256.053.624.08 1.104.08a6.41 6.41 0 0 0 1.04-.064c.256-.043.448-.133.576-.272.139-.149.251-.363.336-.64.054-.181.16-.299.32-.352a.68.68 0 0 1 .48-.016c.192.064.326.171.4.32a.61.61 0 0 1 .032.48c-.128.459-.304.821-.528 1.088-.224.256-.549.437-.976.544-.426.096-1.013.144-1.76.144Zm-3.904-6.496a.603.603 0 0 1-.48.112.694.694 0 0 1-.4-.304 4.406 4.406 0 0 0-.16-.224 2 2 0 0 0-.176-.24c-.33.032-.736.069-1.216.112s-.981.091-1.504.144c-.522.043-1.013.08-1.472.112l-1.152.08c-.192.011-.346-.032-.464-.128a.554.554 0 0 1-.192-.416c-.01-.171.032-.304.128-.4a.623.623 0 0 1 .416-.176h.432l.464-.032c.118-.181.251-.4.4-.656.16-.256.31-.512.448-.768.139-.267.251-.491.336-.672.096-.192.224-.315.384-.368a.655.655 0 0 1 .512.016.634.634 0 0 1 .352.352c.064.16.054.32-.032.48-.096.171-.234.405-.416.704-.181.288-.357.565-.528.832.406-.021.811-.048 1.216-.08.406-.032.779-.064 1.12-.096a5.626 5.626 0 0 0-.256-.272 2.498 2.498 0 0 0-.208-.24.496.496 0 0 1-.128-.416.614.614 0 0 1 .224-.4.649.649 0 0 1 .416-.112c.16 0 .294.059.4.176.16.149.347.352.56.608.224.245.443.496.656.752.214.256.379.475.496.656a.53.53 0 0 1 .112.48.571.571 0 0 1-.288.384Zm.352 10.992c-.885 0-1.573-.069-2.064-.208-.49-.139-.832-.384-1.024-.736-.181-.341-.272-.821-.272-1.44v-.928c0-.203.064-.363.192-.48a.724.724 0 0 1 .48-.176c.182 0 .336.059.464.176a.594.594 0 0 1 .208.48v.816c0 .341.048.603.144.784.096.181.288.309.576.384.288.064.726.096 1.312.096.576 0 1.008-.032 1.296-.096.288-.064.496-.176.624-.336.139-.16.256-.384.352-.672.064-.203.182-.336.352-.4a.648.648 0 0 1 .528 0c.182.075.31.187.384.336a.653.653 0 0 1 .032.496c-.149.491-.346.875-.592 1.152-.234.277-.586.469-1.056.576-.469.117-1.114.176-1.936.176Zm-7.2-.464a.662.662 0 0 1-.24-.432.538.538 0 0 1 .144-.448 7.35 7.35 0 0 0 .56-.64c.203-.256.395-.512.576-.768.192-.267.347-.491.464-.672a.623.623 0 0 1 .384-.32.676.676 0 0 1 .512.08c.15.085.251.213.304.384a.592.592 0 0 1-.064.496c-.202.341-.458.72-.768 1.136-.309.416-.597.773-.864 1.072a.889.889 0 0 1-.496.256.62.62 0 0 1-.512-.144Zm14.064-.24a.63.63 0 0 1-.496.144.669.669 0 0 1-.448-.24 9.687 9.687 0 0 0-.544-.64 17.489 17.489 0 0 0-1.312-1.392.435.435 0 0 1-.144-.4.656.656 0 0 1 .208-.416.614.614 0 0 1 .448-.16.7.7 0 0 1 .464.176c.192.171.411.379.656.624.246.245.48.491.704.736.235.245.427.459.576.64a.576.576 0 0 1 .144.464.701.701 0 0 1-.256.464Zm-5.728-1.664a.698.698 0 0 1-.464.16.6.6 0 0 1-.432-.224 5.581 5.581 0 0 0-.56-.576 5.523 5.523 0 0 0-.576-.512.454.454 0 0 1-.128-.4.611.611 0 0 1 .192-.384c.278-.235.56-.235.848 0 .182.149.379.32.592.512.214.181.406.357.576.528a.585.585 0 0 1 .192.464c-.01.16-.09.304-.24.432Zm-6.336-5.088h3.024v-.64h-3.024v.64Zm0-1.648h3.024c-.021-.277-.112-.453-.272-.528-.149-.075-.41-.112-.784-.112h-.912c-.362 0-.624.037-.784.112-.16.075-.25.251-.272.528Zm16.976 6.928a.726.726 0 0 1-.528-.224.722.722 0 0 1-.224-.528c0-.213.075-.389.224-.528a.726.726 0 0 1 .528-.224h12.784c.214 0 .39.075.528.224.15.139.224.315.224.528a.719.719 0 0 1-.224.528.688.688 0 0 1-.528.224h-12.784Zm1.488-8.544a.726.726 0 0 1-.528-.224.722.722 0 0 1-.224-.528c0-.213.075-.395.224-.544a.726.726 0 0 1 .528-.224h9.808c.214 0 .39.075.528.224.15.149.224.331.224.544a.719.719 0 0 1-.224.528.688.688 0 0 1-.528.224h-9.808Zm21.36 10.288a.49.49 0 0 1-.4-.176.576.576 0 0 1-.144-.4c0-.149.048-.283.144-.4a.49.49 0 0 1 .4-.176h3.888v-1.104h-3.12a.49.49 0 0 1-.384-.16.592.592 0 0 1-.144-.384c0-.149.048-.277.144-.384a.472.472 0 0 1 .384-.176h3.12v-.88h-.72c-.874 0-1.482-.165-1.824-.496-.341-.331-.512-.869-.512-1.616v-.944c0-.757.171-1.296.512-1.616.342-.32.95-.48 1.824-.48h.72v-.768h-3.44a.539.539 0 0 1-.416-.176.636.636 0 0 1-.144-.416c0-.149.048-.283.144-.4a.539.539 0 0 1 .416-.176h3.44v-1.024a65.658 65.658 0 0 1-2.576.128c-.234 0-.41-.048-.528-.144a.656.656 0 0 1-.208-.416.626.626 0 0 1 .128-.448c.107-.128.272-.197.496-.208.459 0 .971-.016 1.536-.048a53.445 53.445 0 0 0 1.76-.128 35.47 35.47 0 0 0 1.712-.192 17.33 17.33 0 0 0 1.472-.256c.214-.053.39-.032.528.064.15.096.24.229.272.4a.63.63 0 0 1-.08.464c-.074.139-.213.229-.416.272-.362.075-.778.144-1.248.208-.458.064-.944.123-1.456.176v1.152h3.44c.171 0 .304.059.4.176.107.117.16.251.16.4 0 .16-.053.299-.16.416a.489.489 0 0 1-.4.176h-3.44v.768h.72c.875 0 1.483.16 1.824.48.352.32.528.859.528 1.616v.944c0 .747-.176 1.285-.528 1.616-.341.331-.949.496-1.824.496h-.72v.88h3.184c.171 0 .299.059.384.176a.555.555 0 0 1 .144.384.592.592 0 0 1-.144.384c-.085.107-.213.16-.384.16h-3.184v1.104h3.744c.171 0 .304.059.4.176a.614.614 0 0 1 .144.4c0 .16-.048.293-.144.4a.489.489 0 0 1-.4.176h-9.024Zm-2.24.528a.651.651 0 0 1-.48-.192.67.67 0 0 1-.192-.496v-5.856c-.234.501-.49.981-.768 1.44-.277.459-.538.853-.784 1.184a.746.746 0 0 1-.448.272.622.622 0 0 1-.48-.096.653.653 0 0 1-.272-.432.607.607 0 0 1 .144-.48c.224-.267.459-.592.704-.976.246-.395.486-.816.72-1.264.246-.448.47-.891.672-1.328.203-.448.363-.859.48-1.232h-1.92a.6.6 0 0 1-.464-.192.643.643 0 0 1-.176-.448c0-.181.059-.331.176-.448a.6.6 0 0 1 .464-.192h1.952v-1.792c-.298.075-.592.144-.88.208-.277.053-.538.101-.784.144-.213.043-.394.021-.544-.064-.138-.096-.224-.245-.256-.448-.032-.181 0-.331.096-.448.096-.128.246-.208.448-.24.416-.064.88-.155 1.392-.272a20.187 20.187 0 0 0 1.488-.432c.491-.16.902-.315 1.232-.464a.658.658 0 0 1 .512-.016c.16.053.278.16.352.32.086.16.096.32.032.48a.573.573 0 0 1-.352.352 12.11 12.11 0 0 1-1.392.512v2.16h1.36a.6.6 0 0 1 .464.192.604.604 0 0 1 .176.448c0 .171-.058.32-.176.448a.6.6 0 0 1-.464.192h-1.36v.976c.16.213.358.464.592.752.235.277.475.549.72.816.256.267.475.485.656.656a.581.581 0 0 1 .192.448c0 .171-.058.32-.176.448a.533.533 0 0 1-.448.176.654.654 0 0 1-.432-.192 22.893 22.893 0 0 1-1.104-1.296v5.984a.643.643 0 0 1-.208.496.631.631 0 0 1-.464.192Zm7.52-5.824h.624c.459 0 .763-.069.912-.208.16-.149.246-.427.256-.832h-1.792v1.04Zm-2 0h.608v-1.04h-1.776c.011.405.091.683.24.832.16.139.47.208.928.208Zm2-2.064h1.792c-.01-.384-.096-.64-.256-.768-.16-.139-.464-.208-.912-.208h-.624v.976Zm-3.168 0h1.776v-.976h-.608c-.448 0-.752.069-.912.208-.16.128-.245.384-.256.768Zm16.608 2.176a.707.707 0 0 1-.496-.192.67.67 0 0 1-.192-.496v-3.168h-1.472c-.096.896-.32 1.632-.672 2.208-.341.565-.837 1.088-1.488 1.568a.933.933 0 0 1-.576.192.687.687 0 0 1-.512-.272.625.625 0 0 1-.16-.496.585.585 0 0 1 .272-.432c.544-.363.955-.747 1.232-1.152.288-.416.475-.955.56-1.616H885.7a.61.61 0 0 1-.448-.176.643.643 0 0 1-.176-.448c0-.181.059-.331.176-.448a.582.582 0 0 1 .448-.192h1.712v-1.984h-1.28a.61.61 0 0 1-.448-.176.643.643 0 0 1-.176-.448c0-.171.059-.315.176-.432a.582.582 0 0 1 .448-.192h6.56a.55.55 0 0 1 .448.192.584.584 0 0 1 .176.432c0 .171-.058.32-.176.448-.106.117-.256.176-.448.176h-1.136v1.984h1.472a.55.55 0 0 1 .448.192.604.604 0 0 1 .176.448c0 .171-.058.32-.176.448-.106.117-.256.176-.448.176h-1.472v3.168a.643.643 0 0 1-.208.496.705.705 0 0 1-.496.192Zm-4.976 5.104a.615.615 0 0 1-.448-.192.613.613 0 0 1-.192-.448c0-.181.064-.331.192-.448a.615.615 0 0 1 .448-.192h5.872v-1.712h-3.792a.645.645 0 0 1-.448-.176.613.613 0 0 1-.192-.448c0-.181.064-.331.192-.448a.615.615 0 0 1 .448-.192h3.792v-1.184c0-.224.075-.4.224-.528a.751.751 0 0 1 .528-.208c.203 0 .374.069.512.208.15.128.224.304.224.528v1.184h3.728a.58.58 0 0 1 .448.192.581.581 0 0 1 .192.448c0 .171-.064.32-.192.448a.607.607 0 0 1-.448.176h-3.728v1.712h5.824c.171 0 .315.064.432.192a.581.581 0 0 1 .192.448c0 .171-.064.32-.192.448a.562.562 0 0 1-.432.192h-13.184Zm10.496-5.104a.696.696 0 0 1-.512-.208.76.76 0 0 1-.224-.512.815.815 0 0 1 .144-.528.642.642 0 0 1 .496-.24 3.41 3.41 0 0 0 .752-.112.536.536 0 0 0 .368-.304c.064-.16.096-.389.096-.688v-5.76c0-.213.064-.384.192-.512a.707.707 0 0 1 .496-.192c.192 0 .358.064.496.192a.663.663 0 0 1 .208.512v6c0 .576-.08 1.04-.24 1.392a1.37 1.37 0 0 1-.768.736c-.362.149-.864.224-1.504.224Zm-1.504-1.968a.688.688 0 0 1-.48-.192.646.646 0 0 1-.208-.496v-4.896c0-.213.07-.379.208-.496a.688.688 0 0 1 .48-.192c.192 0 .352.064.48.192.139.117.208.283.208.496v4.896a.643.643 0 0 1-.208.496.651.651 0 0 1-.48.192Zm-6.112-3.152h1.408v-1.984h-1.408v1.984Zm16.496 6.496a.664.664 0 0 1-.464-.176.618.618 0 0 1-.192-.48v-4c0-.693.16-1.179.48-1.456.331-.288.912-.432 1.744-.432h1.2c.832 0 1.414.144 1.744.432.331.277.496.763.496 1.456v2.72c0 .64-.154 1.104-.464 1.392-.298.288-.805.432-1.52.432a.663.663 0 0 1-.464-.16.723.723 0 0 1-.208-.432.653.653 0 0 1 .144-.448.645.645 0 0 1 .48-.224c.32-.021.518-.069.592-.144.075-.075.112-.235.112-.48v-.192h-3.024v1.536a.618.618 0 0 1-.192.48.663.663 0 0 1-.464.176Zm9.408-5.504c-.768 0-1.37-.064-1.808-.192-.426-.128-.73-.341-.912-.64-.181-.309-.272-.725-.272-1.248v-2.192c0-.213.064-.379.192-.496a.724.724 0 0 1 .48-.176c.182 0 .336.059.464.176.139.117.208.283.208.496v.864c.32-.075.672-.165 1.056-.272.395-.107.779-.219 1.152-.336.374-.117.694-.229.96-.336.203-.075.384-.075.544 0 .16.075.267.192.32.352.064.192.054.357-.032.496a.657.657 0 0 1-.384.304 22.88 22.88 0 0 1-1.168.352c-.426.107-.853.203-1.28.288-.426.085-.816.16-1.168.224v.016c0 .299.043.528.128.688.086.16.251.267.496.32.256.053.624.08 1.104.08a6.41 6.41 0 0 0 1.04-.064c.256-.053.448-.149.576-.288.139-.139.251-.347.336-.624.054-.181.16-.299.32-.352a.68.68 0 0 1 .48-.016c.192.064.326.171.4.32a.61.61 0 0 1 .032.48c-.128.459-.304.821-.528 1.088-.224.256-.549.437-.976.544-.426.096-1.013.144-1.76.144Zm0 5.248c-.768 0-1.37-.064-1.808-.192-.426-.128-.73-.341-.912-.64-.181-.309-.272-.725-.272-1.248v-2.224c0-.203.064-.363.192-.48a.688.688 0 0 1 .48-.192c.182 0 .336.064.464.192a.594.594 0 0 1 .208.48v.864c.32-.075.672-.165 1.056-.272.395-.107.774-.219 1.136-.336.374-.117.694-.224.96-.32.203-.085.384-.091.544-.016.16.075.267.197.32.368.064.192.054.357-.032.496-.074.128-.202.224-.384.288a19.2 19.2 0 0 1-1.152.352c-.426.107-.853.203-1.28.288-.426.085-.816.16-1.168.224v.064c0 .299.043.528.128.688.086.149.251.251.496.304.256.053.624.08 1.104.08a6.41 6.41 0 0 0 1.04-.064c.256-.043.448-.133.576-.272.139-.149.251-.363.336-.64.054-.181.16-.299.32-.352a.68.68 0 0 1 .48-.016c.192.064.326.171.4.32a.61.61 0 0 1 .032.48c-.128.459-.304.821-.528 1.088-.224.256-.549.437-.976.544-.426.096-1.013.144-1.76.144Zm-3.904-6.496a.603.603 0 0 1-.48.112.694.694 0 0 1-.4-.304 4.406 4.406 0 0 0-.16-.224 2 2 0 0 0-.176-.24c-.33.032-.736.069-1.216.112s-.981.091-1.504.144c-.522.043-1.013.08-1.472.112l-1.152.08c-.192.011-.346-.032-.464-.128a.554.554 0 0 1-.192-.416c-.01-.171.032-.304.128-.4a.623.623 0 0 1 .416-.176h.432l.464-.032c.118-.181.251-.4.4-.656.16-.256.31-.512.448-.768.139-.267.251-.491.336-.672.096-.192.224-.315.384-.368a.655.655 0 0 1 .512.016.634.634 0 0 1 .352.352c.064.16.054.32-.032.48-.096.171-.234.405-.416.704-.181.288-.357.565-.528.832.406-.021.811-.048 1.216-.08.406-.032.779-.064 1.12-.096a5.626 5.626 0 0 0-.256-.272 2.498 2.498 0 0 0-.208-.24.496.496 0 0 1-.128-.416.614.614 0 0 1 .224-.4.649.649 0 0 1 .416-.112c.16 0 .294.059.4.176.16.149.347.352.56.608.224.245.443.496.656.752.214.256.379.475.496.656a.53.53 0 0 1 .112.48.571.571 0 0 1-.288.384Zm.352 10.992c-.885 0-1.573-.069-2.064-.208-.49-.139-.832-.384-1.024-.736-.181-.341-.272-.821-.272-1.44v-.928c0-.203.064-.363.192-.48a.724.724 0 0 1 .48-.176c.182 0 .336.059.464.176a.594.594 0 0 1 .208.48v.816c0 .341.048.603.144.784.096.181.288.309.576.384.288.064.726.096 1.312.096.576 0 1.008-.032 1.296-.096.288-.064.496-.176.624-.336.139-.16.256-.384.352-.672.064-.203.182-.336.352-.4a.648.648 0 0 1 .528 0c.182.075.31.187.384.336a.653.653 0 0 1 .032.496c-.149.491-.346.875-.592 1.152-.234.277-.586.469-1.056.576-.469.117-1.114.176-1.936.176Zm-7.2-.464a.662.662 0 0 1-.24-.432.538.538 0 0 1 .144-.448 7.35 7.35 0 0 0 .56-.64c.203-.256.395-.512.576-.768.192-.267.347-.491.464-.672a.623.623 0 0 1 .384-.32.676.676 0 0 1 .512.08c.15.085.251.213.304.384a.592.592 0 0 1-.064.496c-.202.341-.458.72-.768 1.136-.309.416-.597.773-.864 1.072a.889.889 0 0 1-.496.256.62.62 0 0 1-.512-.144Zm14.064-.24a.63.63 0 0 1-.496.144.669.669 0 0 1-.448-.24 9.687 9.687 0 0 0-.544-.64 17.489 17.489 0 0 0-1.312-1.392.435.435 0 0 1-.144-.4.656.656 0 0 1 .208-.416.614.614 0 0 1 .448-.16.7.7 0 0 1 .464.176c.192.171.411.379.656.624.246.245.48.491.704.736.235.245.427.459.576.64a.576.576 0 0 1 .144.464.701.701 0 0 1-.256.464Zm-5.728-1.664a.698.698 0 0 1-.464.16.6.6 0 0 1-.432-.224 5.581 5.581 0 0 0-.56-.576 5.523 5.523 0 0 0-.576-.512.454.454 0 0 1-.128-.4.611.611 0 0 1 .192-.384c.278-.235.56-.235.848 0 .182.149.379.32.592.512.214.181.406.357.576.528a.585.585 0 0 1 .192.464c-.01.16-.09.304-.24.432Zm-6.336-5.088h3.024v-.64h-3.024v.64Zm0-1.648h3.024c-.021-.277-.112-.453-.272-.528-.149-.075-.41-.112-.784-.112h-.912c-.362 0-.624.037-.784.112-.16.075-.25.251-.272.528Zm17.504 9.68a.62.62 0 0 1-.416.016.435.435 0 0 1-.304-.24.56.56 0 0 1-.032-.416.432.432 0 0 1 .272-.288c1.056-.448 1.584-1.093 1.584-1.936 0-.256-.042-.448-.128-.576a1.006 1.006 0 0 1-.368.432.968.968 0 0 1-.56.176 1.11 1.11 0 0 1-.768-.288c-.202-.203-.304-.469-.304-.8 0-.32.118-.576.352-.768.235-.192.518-.293.848-.304.534-.021.982.171 1.344.576.374.395.56.923.56 1.584 0 1.323-.693 2.267-2.08 2.832Zm-293.46 27.184a1 1 0 0 1-.656-.224.779.779 0 0 1-.288-.56.724.724 0 0 1 .224-.592.983.983 0 0 1 .656-.256c.608-.021 1.013-.107 1.216-.256.203-.16.304-.459.304-.896v-8.944h-10.256a.707.707 0 0 1-.496-.192.688.688 0 0 1-.192-.48c0-.192.064-.352.192-.48a.676.676 0 0 1 .496-.208H634.8c.192 0 .352.069.48.208a.625.625 0 0 1 .208.48.66.66 0 0 1-.208.48.651.651 0 0 1-.48.192h-1.856v9.104c0 .939-.224 1.611-.672 2.016-.437.405-1.211.608-2.32.608Zm-4.096-3.984c-.725 0-1.301-.08-1.728-.24a1.6 1.6 0 0 1-.928-.88c-.181-.427-.272-1.035-.272-1.824 0-.8.091-1.408.272-1.824a1.6 1.6 0 0 1 .928-.88c.427-.16 1.003-.24 1.728-.24.725 0 1.296.08 1.712.24.427.16.731.453.912.88.192.416.288 1.024.288 1.824 0 .789-.096 1.397-.288 1.824-.181.427-.485.72-.912.88-.416.16-.987.24-1.712.24Zm0-1.376c.373 0 .661-.037.864-.112a.674.674 0 0 0 .416-.448c.075-.235.112-.571.112-1.008 0-.448-.037-.784-.112-1.008-.075-.235-.213-.389-.416-.464-.203-.075-.491-.112-.864-.112s-.661.037-.864.112c-.203.075-.347.229-.432.464-.075.224-.112.56-.112 1.008 0 .437.037.773.112 1.008a.72.72 0 0 0 .432.448c.203.075.491.112.864.112Zm18.8 5.088c-.256.075-.485.08-.688.016a.67.67 0 0 1-.416-.4c-.085-.235-.075-.448.032-.64s.293-.325.56-.4c1.088-.309 2.021-.699 2.8-1.168a5.853 5.853 0 0 0 1.936-1.856c.501-.768.869-1.733 1.104-2.896.245-1.163.368-2.587.368-4.272v-1.184c0-.235.075-.421.224-.56a.828.828 0 0 1 .56-.208c.213 0 .395.069.544.208.16.139.24.325.24.56v1.184c0 1.589-.117 2.981-.352 4.176-.224 1.195-.565 2.229-1.024 3.104.288.224.613.496.976.816.373.32.731.635 1.072.944.352.309.635.571.848.784a.861.861 0 0 1 .272.576.761.761 0 0 1-.224.576.847.847 0 0 1-.576.256.732.732 0 0 1-.576-.224 14.32 14.32 0 0 0-.8-.8 38.026 38.026 0 0 0-.928-.896 25.03 25.03 0 0 0-.864-.8 7.527 7.527 0 0 1-2.16 1.888c-.853.491-1.829.896-2.928 1.216Zm-4.56-1.328a.938.938 0 0 1-.64 0c-.192-.085-.331-.245-.416-.48a.72.72 0 0 1 .048-.576.872.872 0 0 1 .496-.384l.624-.224.752-.272V377a.71.71 0 0 1 .224-.544.797.797 0 0 1 .56-.224c.213 0 .395.075.544.224a.71.71 0 0 1 .224.544v8.88a171.51 171.51 0 0 0 1.76-.72 58.711 58.711 0 0 0 1.456-.64.724.724 0 0 1 .576-.016.577.577 0 0 1 .368.368c.075.203.08.389.016.56-.064.171-.219.315-.464.432-.363.171-.805.373-1.328.608s-1.077.475-1.664.72-1.152.475-1.696.688c-.544.213-1.024.395-1.44.544Zm7.04-7.28a14.765 14.765 0 0 0-.864-.784 39.05 39.05 0 0 0-1.024-.896 15.774 15.774 0 0 0-.864-.688.672.672 0 0 1-.256-.48.67.67 0 0 1 .16-.528.744.744 0 0 1 .512-.256.842.842 0 0 1 .56.144c.267.171.581.405.944.704.363.299.715.603 1.056.912.352.299.635.555.848.768.16.149.24.331.24.544a.666.666 0 0 1-.224.544.742.742 0 0 1-.544.224.769.769 0 0 1-.544-.208Zm16.72 8.704c-.853 0-1.557-.053-2.112-.16-.555-.107-.992-.304-1.312-.592-.32-.288-.549-.688-.688-1.2-.128-.523-.192-1.195-.192-2.016v-4.112c0-.971.091-1.733.272-2.288.192-.555.523-.955.992-1.2.48-.245 1.147-.395 2-.448l.256-.624c.096-.235.187-.464.272-.688.096-.224.171-.411.224-.56a.85.85 0 0 1 .416-.464c.192-.096.416-.101.672-.016a.672.672 0 0 1 .448.4.679.679 0 0 1 .016.592c-.075.171-.171.384-.288.64-.107.245-.213.475-.32.688h1.28c.853 0 1.557.053 2.112.16.555.107.992.304 1.312.592.32.288.544.693.672 1.216.139.512.208 1.179.208 2v4.112c0 .821-.069 1.493-.208 2.016-.128.512-.352.912-.672 1.2-.32.288-.757.485-1.312.592-.555.107-1.259.16-2.112.16h-1.936Zm-2.816-4.96h7.552v-2.208h-7.552v2.208Zm2.816 3.584h1.936c.757 0 1.333-.048 1.728-.144.405-.096.683-.304.832-.624.149-.32.229-.805.24-1.456h-7.552c.021.651.107 1.136.256 1.456.149.32.421.528.816.624.405.096.987.144 1.744.144Zm-2.816-7.136h7.552c-.011-.64-.096-1.115-.256-1.424-.149-.309-.421-.512-.816-.608-.395-.096-.971-.144-1.728-.144h-1.936c-.747 0-1.323.048-1.728.144-.395.096-.672.299-.832.608-.149.309-.235.784-.256 1.424Zm20.688 8.512c-1.141 0-2.053-.117-2.736-.352-.683-.224-1.173-.635-1.472-1.232-.299-.608-.448-1.467-.448-2.576v-2.416c0-1.12.149-1.979.448-2.576.299-.597.789-1.008 1.472-1.232.683-.235 1.595-.352 2.736-.352h.704v-3.008c0-.235.075-.421.224-.56a.806.806 0 0 1 .544-.208c.213 0 .395.069.544.208a.728.728 0 0 1 .224.56v3.008h.672c1.152 0 2.069.117 2.752.352.683.224 1.173.635 1.472 1.232.299.597.448 1.456.448 2.576v2.416c0 1.109-.149 1.968-.448 2.576-.299.597-.789 1.008-1.472 1.232-.683.235-1.6.352-2.752.352h-2.912Zm-.016-1.36h.72v-3.408h-3.84v.64c0 .768.091 1.355.272 1.76.192.395.512.661.96.8.459.139 1.088.208 1.888.208Zm2.256 0h.704c.8 0 1.424-.069 1.872-.208.459-.139.779-.405.96-.8.181-.405.272-.992.272-1.76v-.64h-3.808v3.408Zm-5.376-4.768h3.84v-3.248h-.72c-.8 0-1.429.069-1.888.208-.448.139-.768.411-.96.816-.181.395-.272.976-.272 1.744v.48Zm5.376 0h3.808v-.48c0-.768-.091-1.349-.272-1.744-.181-.405-.501-.677-.96-.816-.448-.139-1.072-.208-1.872-.208h-.704v3.248Zm11.456 6.64c-.235 0-.416-.064-.544-.192a.792.792 0 0 1-.224-.496.776.776 0 0 1 .144-.512.693.693 0 0 1 .464-.256c.427-.021.699-.08.816-.176.117-.107.176-.325.176-.656v-3.232l-.656.24a7.614 7.614 0 0 0-.48.192.85.85 0 0 1-.608 0 .723.723 0 0 1-.416-.464c-.064-.213-.048-.4.048-.56a.817.817 0 0 1 .464-.368c.213-.064.464-.144.752-.24s.587-.197.896-.304v-3.152h-1.488a.618.618 0 0 1-.48-.192.724.724 0 0 1-.176-.48c0-.181.059-.336.176-.464a.618.618 0 0 1 .48-.192h1.488v-2.688a.67.67 0 0 1 .192-.496.707.707 0 0 1 .496-.192c.181 0 .336.064.464.192a.643.643 0 0 1 .208.496v2.688h.864c.203 0 .363.064.48.192a.664.664 0 0 1 .176.464.724.724 0 0 1-.176.48.618.618 0 0 1-.48.192h-.864v2.688c.181-.064.341-.117.48-.16.149-.053.277-.101.384-.144a.685.685 0 0 1 .544 0c.181.075.293.192.336.352a.843.843 0 0 1 0 .512c-.053.149-.176.267-.368.352l-.608.24c-.235.096-.491.197-.768.304v4.016c0 .704-.16 1.216-.48 1.536-.32.32-.891.48-1.712.48Zm4.144-.528a.6.6 0 0 1-.464-.192.643.643 0 0 1-.176-.448c0-.181.059-.331.176-.448a.6.6 0 0 1 .464-.192h3.6v-2.672h-2.704a.6.6 0 0 1-.464-.192.643.643 0 0 1-.176-.448c0-.181.059-.331.176-.448a.6.6 0 0 1 .464-.192h7.04a.6.6 0 0 1 .464.192.608.608 0 0 1 .176.448c0 .171-.059.32-.176.448a.6.6 0 0 1-.464.192h-2.896v2.672h3.728c.203 0 .357.064.464.192a.608.608 0 0 1 .176.448c0 .171-.059.32-.176.448-.107.128-.261.192-.464.192h-8.768Zm.432-8.752a.724.724 0 0 1-.48-.176.594.594 0 0 1-.208-.48v-.688c0-.725.176-1.232.528-1.52.363-.299.965-.448 1.808-.448h1.536v-1.472c0-.213.069-.384.208-.512a.748.748 0 0 1 .528-.208c.203 0 .373.069.512.208a.642.642 0 0 1 .224.512v1.472h1.808c.843 0 1.44.149 1.792.448.363.288.544.795.544 1.52v.576a.578.578 0 0 1-.224.48.724.724 0 0 1-.48.176.724.724 0 0 1-.48-.176.594.594 0 0 1-.208-.48v-.416c0-.331-.069-.56-.208-.688-.128-.139-.389-.208-.784-.208h-4.736c-.395 0-.661.069-.8.208-.128.128-.192.357-.192.688v.528a.594.594 0 0 1-.208.48.724.724 0 0 1-.48.176Zm6.368 2.528c-.821 0-1.403-.128-1.744-.384-.331-.256-.496-.704-.496-1.344v-1.824c0-.224.064-.389.192-.496a.745.745 0 0 1 .496-.176c.192 0 .352.059.48.176.139.107.208.272.208.496v1.536c0 .299.053.491.16.576.107.085.357.128.752.128.352 0 .597-.048.736-.144.139-.107.261-.309.368-.608a.698.698 0 0 1 .352-.384.68.68 0 0 1 .56-.016.577.577 0 0 1 .384.336c.085.16.101.331.048.512-.171.608-.448 1.029-.832 1.264-.373.235-.928.352-1.664.352Zm-5.824.448a.952.952 0 0 1-.56.112c-.181-.021-.331-.128-.448-.32a.557.557 0 0 1-.08-.496c.053-.171.176-.304.368-.4.693-.32 1.205-.715 1.536-1.184.331-.469.565-1.12.704-1.952a.555.555 0 0 1 .272-.416.79.79 0 0 1 .528-.08c.192.032.331.117.416.256.085.139.112.309.08.512-.16.981-.464 1.787-.912 2.416-.448.619-1.083 1.136-1.904 1.552Zm16.72 6.336a.744.744 0 0 1-.496-.192.594.594 0 0 1-.208-.48v-5.088h-.384c-.363 0-.64.032-.832.096a.576.576 0 0 0-.384.352c-.064.171-.096.427-.096.768v2.736a.643.643 0 0 1-.208.496.676.676 0 0 1-.496.208.676.676 0 0 1-.496-.208.67.67 0 0 1-.192-.496v-2.88c0-.619.075-1.104.224-1.456.16-.352.421-.597.784-.736.363-.149.853-.224 1.472-.224h.608v-1.312h-3.296a.633.633 0 0 1-.464-.192.633.633 0 0 1-.192-.464c0-.181.064-.336.192-.464a.633.633 0 0 1 .464-.192h3.296v-1.584h-1.936c-.075.139-.155.283-.24.432a5.098 5.098 0 0 1-.24.4.958.958 0 0 1-.464.384.653.653 0 0 1-.544-.048.79.79 0 0 1-.336-.4c-.075-.192-.048-.384.08-.576.299-.437.56-.891.784-1.36a9.16 9.16 0 0 0 .56-1.424.63.63 0 0 1 .336-.416.74.74 0 0 1 .544-.048.64.64 0 0 1 .416.32c.085.16.101.336.048.528a5.925 5.925 0 0 1-.16.448l-.16.448h1.312v-1.504c0-.203.069-.363.208-.48a.744.744 0 0 1 .496-.192c.181 0 .341.064.48.192a.578.578 0 0 1 .224.48v1.504h2.592c.181 0 .336.064.464.192a.633.633 0 0 1 .192.464.633.633 0 0 1-.192.464.633.633 0 0 1-.464.192h-2.592v1.584h3.008c.181 0 .336.064.464.192a.633.633 0 0 1 .192.464.633.633 0 0 1-.192.464.633.633 0 0 1-.464.192h-3.008v1.312h.688c.629 0 1.12.075 1.472.224.363.139.619.384.768.736.16.352.24.837.24 1.456v1.424c0 .672-.149 1.168-.448 1.488-.299.32-.811.48-1.536.48a.786.786 0 0 1-.496-.176.754.754 0 0 1-.24-.496.705.705 0 0 1 .16-.512.666.666 0 0 1 .464-.224c.331-.043.528-.112.592-.208.075-.096.112-.309.112-.64v-.992c0-.341-.037-.597-.112-.768a.534.534 0 0 0-.384-.352c-.181-.064-.453-.096-.816-.096h-.464v5.088a.578.578 0 0 1-.224.48.688.688 0 0 1-.48.192Zm6.704-.096a.742.742 0 0 1-.544-.224.755.755 0 0 1-.224-.512.847.847 0 0 1 .16-.56c.117-.149.288-.229.512-.24.395-.021.683-.059.864-.112.192-.064.315-.176.368-.336.064-.16.096-.4.096-.72v-11.328c0-.213.064-.384.192-.512a.727.727 0 0 1 .512-.192c.203 0 .373.064.512.192a.663.663 0 0 1 .208.512v11.552c0 .619-.08 1.109-.24 1.472a1.352 1.352 0 0 1-.8.768c-.384.16-.923.24-1.616.24Zm-1.008-3.68a.707.707 0 0 1-.496-.192.67.67 0 0 1-.192-.496v-8.24c0-.213.064-.379.192-.496a.745.745 0 0 1 .496-.176c.181 0 .336.059.464.176.139.117.208.283.208.496v8.24a.643.643 0 0 1-.208.496.633.633 0 0 1-.464.192Zm17.296-5.04c-.768 0-1.301-.139-1.6-.416-.299-.277-.448-.784-.448-1.52v-.864c0-.725.144-1.227.432-1.504.299-.277.821-.421 1.568-.432v-.992c0-.149.048-.267.144-.352a.516.516 0 0 1 .352-.144c.139 0 .256.048.352.144a.447.447 0 0 1 .144.352v.992h.912v-.992c0-.149.048-.267.144-.352a.516.516 0 0 1 .352-.144c.139 0 .256.048.352.144a.447.447 0 0 1 .144.352v.992h.016c.768 0 1.301.139 1.6.416.299.277.448.784.448 1.52v.864c0 .736-.149 1.243-.448 1.52-.299.277-.832.416-1.6.416h-2.864Zm-7.6 8.752a.596.596 0 0 1-.416-.16.561.561 0 0 1-.16-.416v-6.016c0-.597.123-1.013.368-1.248.245-.235.688-.352 1.328-.352h1.056c.64 0 1.083.117 1.328.352.245.235.368.651.368 1.248v4.976c0 .523-.123.912-.368 1.168-.235.256-.64.389-1.216.4a.68.68 0 0 1-.464-.128.563.563 0 0 1-.224-.4.612.612 0 0 1 .096-.432.515.515 0 0 1 .4-.208c.245-.021.405-.075.48-.16.085-.085.128-.245.128-.48v-1.312h-2.112v2.592a.537.537 0 0 1-.176.416.561.561 0 0 1-.416.16Zm-1.008-7.216a.596.596 0 0 1-.416-.16.608.608 0 0 1-.176-.448v-.96c0-.437.069-.757.208-.96.149-.213.405-.352.768-.416v-2.544c0-.629.128-1.067.384-1.312.256-.256.688-.384 1.296-.384h1.296c.619 0 1.056.128 1.312.384.256.245.384.683.384 1.312v2.576c.309.064.528.203.656.416.139.213.208.523.208.928v.96a.608.608 0 0 1-.176.448.616.616 0 0 1-.432.16.596.596 0 0 1-.416-.16.639.639 0 0 1-.16-.448v-.608c0-.309-.048-.501-.144-.576-.096-.075-.304-.112-.624-.112h-2.592c-.32 0-.533.043-.64.128-.096.085-.144.283-.144.592v.576a.608.608 0 0 1-.176.448.561.561 0 0 1-.416.16Zm6.368 6.816a.49.49 0 0 1-.384-.16.534.534 0 0 1-.144-.368c0-.149.048-.277.144-.384a.49.49 0 0 1 .384-.16h2.048a.327.327 0 0 1-.096-.16 67.701 67.701 0 0 1-.208-.48 2.806 2.806 0 0 0-.208-.448.553.553 0 0 1 .016-.432.537.537 0 0 1 .336-.272.545.545 0 0 1 .448.032.53.53 0 0 1 .304.32c.064.16.123.309.176.448.064.139.123.288.176.448a.587.587 0 0 1 .016.304.341.341 0 0 1-.144.24h1.216c.085-.213.181-.475.288-.784.117-.309.208-.555.272-.736a.527.527 0 0 1 .304-.336h-2.656c-.576 0-.987-.112-1.232-.336-.245-.224-.368-.619-.368-1.184s.123-.955.368-1.168c.245-.224.656-.336 1.232-.336h2.816c.576 0 .987.112 1.232.336.245.213.368.603.368 1.168 0 .512-.101.885-.304 1.12-.192.224-.523.352-.992.384a.49.49 0 0 1 .32.256.473.473 0 0 1 .032.416c-.043.139-.117.32-.224.544-.096.224-.187.443-.272.656h1.936a.49.49 0 0 1 .384.16.555.555 0 0 1 .144.384.534.534 0 0 1-.144.368.49.49 0 0 1-.384.16h-7.2Zm.128-6.64a.49.49 0 0 1-.384-.16.534.534 0 0 1-.144-.368c0-.149.048-.277.144-.384a.49.49 0 0 1 .384-.16h7.024a.49.49 0 0 1 .384.16.555.555 0 0 1 .144.384.534.534 0 0 1-.144.368.49.49 0 0 1-.384.16h-7.024Zm2.464 2.816h2.208c.245 0 .416-.043.512-.128.107-.085.16-.251.16-.496s-.053-.405-.16-.48c-.096-.085-.267-.128-.512-.128h-2.208c-.235 0-.405.043-.512.128-.107.075-.16.235-.16.48s.053.411.16.496c.107.085.277.128.512.128Zm-7.536-5.968h.768v-.96c0-.512.096-.853.288-1.024.203-.181.56-.272 1.072-.272h.432v-.048c0-.341-.059-.565-.176-.672-.117-.117-.341-.176-.672-.176h-.848c-.331 0-.56.059-.688.176-.117.107-.176.331-.176.672v2.304Zm.176 6.096h2.112v-1.088h-2.112v1.088Zm0-2.016h2.112v-.304c0-.32-.048-.523-.144-.608-.096-.096-.315-.144-.656-.144h-.512c-.331 0-.549.048-.656.144-.096.085-.144.288-.144.608v.304Zm1.536-4.08h.848v-1.344h-.304c-.213 0-.357.037-.432.112-.075.064-.112.203-.112.416v.816Zm6.416.496h.912v-1.024h-.912v1.024Zm1.904 0c.395-.011.656-.069.784-.176.128-.117.192-.373.192-.768v-.08h-.976v1.024Zm-1.904-1.904h.912v-.928h-.912v.928Zm-.992 1.904v-1.024h-.928v.08c0 .373.064.624.192.752.128.117.373.181.736.192Zm2.896-1.904h.976c0-.395-.064-.645-.192-.752-.128-.117-.389-.176-.784-.176v.928Zm-3.824 0h.928v-.928c-.363.011-.608.075-.736.192s-.192.363-.192.736Zm11.264.416h11.968v1.184H751.76v9.968h-1.216v-11.152Zm11.376 0h1.216v9.584c0 .752-.16 1.136-.704 1.344-.544.192-1.488.208-2.832.208-.048-.352-.24-.896-.416-1.232a41.09 41.09 0 0 0 2.368.016c.288-.016.368-.096.368-.352v-9.568Zm-8.576-2.864h3.424v1.072h-3.424v-1.072Zm2.608 0h1.328c.192 4.608 1.328 7.84 4.464 9.184-.256.256-.656.72-.848 1.04-3.216-1.6-4.448-4.976-4.688-9.632h-.256v-.592Zm.128 3.184 1.136.192c-.544 3.296-1.92 5.6-4.496 6.928-.176-.272-.56-.736-.816-.928 2.416-1.184 3.76-3.184 4.176-6.192Zm19.392 10.608c-.555 0-.859-.245-.912-.736a.66.66 0 0 1 .224-.56.922.922 0 0 1 .608-.24c.544-.011.965-.048 1.264-.112.299-.075.523-.229.672-.464.149-.235.267-.597.352-1.088.053-.309.101-.64.144-.992.053-.352.096-.725.128-1.12.032-.384.016-.672-.048-.864-.064-.203-.208-.336-.432-.4-.213-.075-.539-.112-.976-.112h-1.616a8.326 8.326 0 0 1-.688 2.768 6.916 6.916 0 0 1-1.648 2.288c-.704.661-1.589 1.189-2.656 1.584a.913.913 0 0 1-.608.016c-.192-.064-.336-.203-.432-.416a.647.647 0 0 1 .016-.544.801.801 0 0 1 .448-.384c.875-.331 1.6-.768 2.176-1.312a5.923 5.923 0 0 0 1.36-1.84c.32-.693.512-1.413.576-2.16h-1.984a.748.748 0 0 1-.528-.208.748.748 0 0 1-.208-.528c0-.203.069-.373.208-.512a.748.748 0 0 1 .528-.208h5.136c.8 0 1.413.085 1.84.256.437.171.731.453.88.848.16.384.213.912.16 1.584-.032.48-.075.928-.128 1.344-.043.405-.096.805-.16 1.2-.128.768-.331 1.365-.608 1.792a2.064 2.064 0 0 1-1.136.864c-.491.171-1.141.256-1.952.256Zm5.984-7.04a13.787 13.787 0 0 1-1.712-1.36 18.32 18.32 0 0 1-1.552-1.616 12.708 12.708 0 0 1-1.152-1.568 2.72 2.72 0 0 0-.464-.624 1.147 1.147 0 0 0-.544-.304c-.203-.053-.485-.08-.848-.08h-.976a.748.748 0 0 1-.528-.208.748.748 0 0 1-.208-.528c0-.203.064-.373.192-.512a.643.643 0 0 1 .496-.208h1.024c.64 0 1.141.048 1.504.144.373.096.683.272.928.528.245.245.507.603.784 1.072.288.459.64.928 1.056 1.408a13.89 13.89 0 0 0 2.976 2.496.776.776 0 0 1 .384.512.732.732 0 0 1-.128.624.848.848 0 0 1-.576.368.849.849 0 0 1-.656-.144Zm-12.48.144a1.128 1.128 0 0 1-.64.192.747.747 0 0 1-.56-.288.755.755 0 0 1-.16-.592.785.785 0 0 1 .352-.512c.373-.245.757-.544 1.152-.896.395-.363.779-.747 1.152-1.152a17.21 17.21 0 0 0 1.024-1.216c.309-.405.571-.784.784-1.136a.795.795 0 0 1 .48-.352.696.696 0 0 1 .576.096.737.737 0 0 1 .352.464.653.653 0 0 1-.08.576 12.813 12.813 0 0 1-1.248 1.744 19.68 19.68 0 0 1-1.568 1.696c-.555.533-1.093.992-1.616 1.376Zm22.272 6.992a.87.87 0 0 1-.56-.192c-.149-.128-.229-.309-.24-.544-.011-.235.064-.416.224-.544a.99.99 0 0 1 .544-.208c.672-.021 1.205-.139 1.6-.352.395-.213.677-.549.848-1.008.171-.469.256-1.088.256-1.856 0-.672-.112-1.333-.336-1.984H786.8a.688.688 0 0 1-.48-.192.676.676 0 0 1 0-.976.66.66 0 0 1 .48-.208h6.128a6.07 6.07 0 0 0-1.312-1.488.686.686 0 0 1-.288-.496.6.6 0 0 1 .176-.512c.16-.16.336-.24.528-.24s.373.064.544.192c.085.064.16.128.224.192.075.053.149.112.224.176.277-.149.587-.315.928-.496.352-.181.683-.357.992-.528.309-.171.533-.299.672-.384.309-.192.437-.384.384-.576-.053-.192-.251-.288-.592-.288h-6.944a.688.688 0 0 1-.48-.192.688.688 0 0 1-.192-.48c0-.192.064-.352.192-.48a.66.66 0 0 1 .48-.208h7.44c.544 0 .981.117 1.312.352.331.235.539.528.624.88.085.341.043.688-.128 1.04-.16.352-.459.651-.896.896a65.568 65.568 0 0 1-2.864 1.488c.139.181.261.368.368.56.117.192.224.389.32.592h5.712c.192 0 .352.069.48.208a.676.676 0 0 1 0 .976.651.651 0 0 1-.48.192h-5.216a8.437 8.437 0 0 1 .256 2.08c0 1.589-.336 2.752-1.008 3.488-.661.747-1.707 1.12-3.136 1.12Zm23.824.24a.707.707 0 0 1-.496-.192.618.618 0 0 1-.192-.48v-4.992h-.4c-.437 0-.731.059-.88.176-.139.117-.208.373-.208.768v3.152a.577.577 0 0 1-.208.464.702.702 0 0 1-.928 0 .6.6 0 0 1-.192-.464v-3.472c-.181.245-.373.491-.576.736a9.03 9.03 0 0 1-.608.672.892.892 0 0 1-.496.256.646.646 0 0 1-.512-.176.636.636 0 0 1-.208-.448.559.559 0 0 1 .192-.464 11.757 11.757 0 0 0 1.584-1.888c.48-.704.896-1.429 1.248-2.176h-1.76a.588.588 0 0 1-.432-.176.588.588 0 0 1-.176-.432c0-.171.059-.315.176-.432a.588.588 0 0 1 .432-.176h2.288a13.8 13.8 0 0 0 .176-.496c.064-.16.117-.32.16-.48a.579.579 0 0 1 .208-.32c-.277.128-.56.251-.848.368-.288.117-.587.235-.896.352a.782.782 0 0 1-.56.016c-.16-.064-.277-.192-.352-.384a.598.598 0 0 1 .048-.48.627.627 0 0 1 .4-.336c.405-.139.805-.288 1.2-.448.395-.171.784-.347 1.168-.528-.32-.149-.635-.288-.944-.416a11.998 11.998 0 0 0-.88-.368.592.592 0 0 1-.32-.304.581.581 0 0 1 .016-.48.651.651 0 0 1 .352-.304.623.623 0 0 1 .48 0c.405.149.827.325 1.264.528.448.192.896.4 1.344.624a14.776 14.776 0 0 0 2.048-1.472.607.607 0 0 1 .48-.144.55.55 0 0 1 .432.24c.117.149.16.304.128.464a.6.6 0 0 1-.224.384c-.256.203-.517.405-.784.608a15.1 15.1 0 0 1-.8.56c.395.203.768.405 1.12.608.352.203.672.395.96.576.149.085.24.219.272.4a.556.556 0 0 1-.096.48.593.593 0 0 1-.448.272.734.734 0 0 1-.496-.112 20.311 20.311 0 0 0-1.216-.736 22.686 22.686 0 0 0-1.328-.736l-.608.32c-.192.107-.395.213-.608.32a.525.525 0 0 1 .336.016c.192.043.325.139.4.288a.658.658 0 0 1 .032.496l-.096.32a5.362 5.362 0 0 1-.112.304h4.752c.171 0 .315.059.432.176a.588.588 0 0 1 .176.432.588.588 0 0 1-.176.432.588.588 0 0 1-.432.176h-5.248a15.844 15.844 0 0 1-.944 1.792c.171-.053.363-.085.576-.096a7.21 7.21 0 0 1 .704-.032h.416v-.832c0-.203.064-.363.192-.48a.707.707 0 0 1 .496-.192c.181 0 .336.064.464.192a.594.594 0 0 1 .208.48v.832h.512c.608 0 1.088.064 1.44.192.352.117.603.331.752.64.149.299.224.72.224 1.264v1.824c0 .683-.16 1.168-.48 1.456-.309.277-.789.416-1.44.416a.745.745 0 0 1-.496-.176.611.611 0 0 1-.224-.448.75.75 0 0 1 .144-.496.609.609 0 0 1 .464-.24c.309-.021.501-.069.576-.144.085-.085.128-.261.128-.528v-1.616c0-.395-.075-.651-.224-.768-.139-.117-.427-.176-.864-.176h-.512v4.992a.594.594 0 0 1-.208.48.633.633 0 0 1-.464.192Zm-7.44.016a.688.688 0 0 1-.48-.192.618.618 0 0 1-.192-.48v-5.808c-.224.491-.453.971-.688 1.44a26.07 26.07 0 0 1-.64 1.184.698.698 0 0 1-.416.32.71.71 0 0 1-.528-.08.528.528 0 0 1-.288-.384.64.64 0 0 1 .096-.48c.192-.288.4-.64.624-1.056.235-.427.469-.875.704-1.344.235-.469.448-.928.64-1.376.203-.459.363-.869.48-1.232h-1.84a.643.643 0 0 1-.448-.176.643.643 0 0 1-.176-.448c0-.181.059-.331.176-.448a.613.613 0 0 1 .448-.192h1.856v-1.744a25.854 25.854 0 0 1-1.52.32c-.224.043-.405.016-.544-.08a.7.7 0 0 1-.256-.416.575.575 0 0 1 .096-.464c.107-.139.267-.224.48-.256.405-.064.853-.149 1.344-.256.501-.117.992-.245 1.472-.384.48-.149.891-.293 1.232-.432a.716.716 0 0 1 .512-.032c.171.053.288.16.352.32.075.192.075.363 0 .512a.66.66 0 0 1-.368.304c-.213.085-.443.171-.688.256-.245.075-.501.155-.768.24v2.112h1.328c.181 0 .331.064.448.192a.581.581 0 0 1 .192.448c0 .171-.064.32-.192.448a.608.608 0 0 1-.448.176h-1.328v.624c.16.181.357.411.592.688.245.277.491.549.736.816.256.256.464.459.624.608a.477.477 0 0 1 .192.432.619.619 0 0 1-.208.432.668.668 0 0 1-.464.192.619.619 0 0 1-.432-.208 45.344 45.344 0 0 1-.496-.544 18 18 0 0 1-.544-.672v6.448a.594.594 0 0 1-.208.48.633.633 0 0 1-.464.192Zm16.096-1.248a.765.765 0 0 1-.576 0 .684.684 0 0 1-.368-.416c-.075-.203-.064-.384.032-.544a.767.767 0 0 1 .448-.336l.432-.144v-7.216c0-.181.059-.325.176-.432a.616.616 0 0 1 .432-.16c.16 0 .299.053.416.16a.557.557 0 0 1 .176.432v6.816c.149-.053.304-.107.464-.16.16-.064.32-.123.48-.176v-7.44c0-.192.059-.341.176-.448a.616.616 0 0 1 .432-.16h.096c.032 0 .064.005.096.016l.512-.448c.171-.149.24-.277.208-.384-.021-.107-.155-.16-.4-.16h-3.248a.643.643 0 0 1-.448-.176.613.613 0 0 1-.192-.448c0-.181.064-.331.192-.448a.613.613 0 0 1 .448-.192h3.984c.416 0 .741.096.976.288a.98.98 0 0 1 .384.704.293.293 0 0 1 .096-.016.344.344 0 0 1 .112-.016h2.992v-1.456c0-.213.064-.384.192-.512a.727.727 0 0 1 .512-.192c.192 0 .352.064.48.192a.663.663 0 0 1 .208.512v1.456h3.424c.181 0 .331.059.448.176a.608.608 0 0 1 .176.448.588.588 0 0 1-.176.432.608.608 0 0 1-.448.176h-3.952a15.24 15.24 0 0 1-.304.608 62.42 62.42 0 0 1-.416.848c-.139.288-.272.549-.4.784l1.408-.096c.469-.032.912-.064 1.328-.096a10.54 10.54 0 0 0-.544-.592.536.536 0 0 1-.16-.432.566.566 0 0 1 .208-.416.656.656 0 0 1 .928.032c.245.235.501.501.768.8.277.288.539.576.784.864.245.288.443.533.592.736a.559.559 0 0 1 .112.496.703.703 0 0 1-.272.432.688.688 0 0 1-.496.128.653.653 0 0 1-.432-.272 5.583 5.583 0 0 0-.256-.336c-.096-.117-.192-.24-.288-.368-.448.053-.944.107-1.488.16a463.4 463.4 0 0 1-1.664.16c-.565.043-1.109.085-1.632.128l-1.392.112c-.256.021-.459-.053-.608-.224v.048a.138.138 0 0 1 .016.064c0 .171-.064.32-.192.448a.608.608 0 0 1-.448.176h-1.216v3.488l1.168-.416a.697.697 0 0 1 .464 0c.16.053.267.165.32.336a.722.722 0 0 1-.016.496.643.643 0 0 1-.368.336c-.288.117-.64.256-1.056.416l-1.328.512c-.459.171-.912.336-1.36.496-.437.16-.821.299-1.152.416Zm12.624.96c-.672 0-1.152-.117-1.44-.352-.288-.235-.432-.709-.432-1.424v-4.608c0-.192.064-.341.192-.448a.702.702 0 0 1 .464-.176c.171 0 .32.059.448.176a.551.551 0 0 1 .192.448v4.512c0 .213.037.357.112.432.075.064.24.096.496.096.192 0 .32-.053.384-.16.075-.117.144-.357.208-.72a.592.592 0 0 1 .288-.432.682.682 0 0 1 .544-.064c.363.085.523.32.48.704-.096.736-.309 1.253-.64 1.552-.331.309-.763.464-1.296.464Zm-7.584-8.064a.269.269 0 0 1-.016-.112.607.607 0 0 1 .16-.464.68.68 0 0 1 .48-.224c.341 0 .736-.016 1.184-.048.096-.192.208-.432.336-.72a38.433 38.433 0 0 0 .72-1.6h-2.368c-.235 0-.411-.091-.528-.272a.616.616 0 0 1-.08.096l-.096.096c-.192.171-.432.373-.72.608-.277.235-.539.448-.784.64v1.76h1.216c.192 0 .357.08.496.24Zm-.816 7.984c-.117-.117-.176-.277-.176-.48a.577.577 0 0 1 .224-.448c.501-.395.885-.827 1.152-1.296.277-.469.469-1.029.576-1.68.117-.661.181-1.456.192-2.384 0-.192.064-.341.192-.448a.702.702 0 0 1 .928 0 .534.534 0 0 1 .176.448c-.011 1.013-.085 1.904-.224 2.672a6.72 6.72 0 0 1-.688 2.016 5.415 5.415 0 0 1-1.312 1.6.727.727 0 0 1-.512.192.69.69 0 0 1-.528-.192Zm4.8 0a.643.643 0 0 1-.448-.176.551.551 0 0 1-.192-.448v-5.664c0-.192.064-.341.192-.448a.643.643 0 0 1 .448-.176c.181 0 .336.059.464.176a.551.551 0 0 1 .192.448v5.664a.551.551 0 0 1-.192.448.664.664 0 0 1-.464.176Zm12.224.272a.707.707 0 0 1-.496-.192.67.67 0 0 1-.192-.496v-6a21.483 21.483 0 0 1-.864 1.616 9.74 9.74 0 0 1-.864 1.296.82.82 0 0 1-.448.288c-.181.053-.363.016-.544-.112a.611.611 0 0 1-.24-.432.637.637 0 0 1 .128-.48c.224-.277.464-.608.72-.992.267-.395.528-.811.784-1.248.267-.448.507-.885.72-1.312.224-.437.411-.837.56-1.2h-1.968a.668.668 0 0 1-.464-.192.668.668 0 0 1-.192-.464c0-.181.064-.336.192-.464a.668.668 0 0 1 .464-.192h2.016v-1.792a37.877 37.877 0 0 1-1.728.32c-.491.075-.779-.107-.864-.544a.587.587 0 0 1 .128-.464.693.693 0 0 1 .48-.24 17.14 17.14 0 0 0 1.504-.256 32.782 32.782 0 0 0 1.616-.416c.523-.149.949-.288 1.28-.416.203-.075.384-.085.544-.032.16.053.277.16.352.32.075.192.08.373.016.544a.633.633 0 0 1-.368.352 25.227 25.227 0 0 1-1.584.496v2.128h1.664c.181 0 .336.064.464.192a.633.633 0 0 1 .192.464.668.668 0 0 1-.192.464.633.633 0 0 1-.464.192h-1.664v.88c.181.213.395.459.64.736l.752.784c.245.245.448.443.608.592a.66.66 0 0 1 .208.48.656.656 0 0 1-.176.48.676.676 0 0 1-.992.016 45.344 45.344 0 0 1-.496-.544 18 18 0 0 1-.544-.672v5.824a.643.643 0 0 1-.208.496.651.651 0 0 1-.48.192Zm2.688-.688a.66.66 0 0 1-.48-.208.633.633 0 0 1-.192-.464c0-.181.064-.336.192-.464a.688.688 0 0 1 .48-.192h3.424V386.6h-2.256a.633.633 0 0 1-.464-.192.633.633 0 0 1-.192-.464c0-.181.064-.331.192-.448a.633.633 0 0 1 .464-.192h2.256v-1.536h-2.624a.668.668 0 0 1-.464-.192.613.613 0 0 1-.192-.448c0-.181.064-.331.192-.448a.668.668 0 0 1 .464-.192h6.688c.181 0 .331.064.448.192a.581.581 0 0 1 .192.448c0 .171-.064.32-.192.448a.581.581 0 0 1-.448.192h-2.592v1.536h2.128c.181 0 .336.064.464.192a.581.581 0 0 1 .192.448.633.633 0 0 1-.192.464.633.633 0 0 1-.464.192h-2.128v1.712h3.04c.181 0 .336.064.464.192a.608.608 0 0 1 .208.464.608.608 0 0 1-.208.464.608.608 0 0 1-.464.208h-7.936Zm3.6-8.256c-.725 0-1.296-.08-1.712-.24-.416-.171-.709-.443-.88-.816-.16-.384-.24-.896-.24-1.536s.08-1.147.24-1.52c.171-.384.464-.656.88-.816.416-.171.987-.256 1.712-.256h1.136c.736 0 1.307.085 1.712.256.416.16.704.432.864.816.171.373.256.88.256 1.52s-.085 1.152-.256 1.536c-.16.373-.448.645-.864.816-.405.16-.976.24-1.712.24h-1.136Zm-.016-1.36h1.168c.555 0 .923-.08 1.104-.24.192-.171.288-.501.288-.992 0-.501-.091-.832-.272-.992-.171-.16-.533-.24-1.088-.24h-1.2c-.555 0-.928.08-1.12.24-.192.16-.288.491-.288.992 0 .491.096.821.288.992.192.16.565.24 1.12.24Zm8.544 10.08a.677.677 0 0 1-.352-.432.626.626 0 0 1 .096-.512 8.146 8.146 0 0 0 .976-1.92c.256-.693.443-1.483.56-2.368.117-.896.176-1.936.176-3.12v-1.376c0-.789.107-1.408.32-1.856a1.863 1.863 0 0 1 1.056-.976c.491-.192 1.157-.288 2-.288h2.272v-1.12c0-.235.08-.416.24-.544a.828.828 0 0 1 .56-.208c.213 0 .395.069.544.208.16.128.24.309.24.544v1.12h5.344c.181 0 .331.064.448.192a.588.588 0 0 1 .176.432c0 .171-.059.32-.176.448a.608.608 0 0 1-.448.176h-2.944v1.392h2.464c.16 0 .299.064.416.192a.588.588 0 0 1 .176.432c0 .16-.059.304-.176.432a.546.546 0 0 1-.416.192h-2.464v.304c0 .512-.085.917-.256 1.216-.171.299-.464.512-.88.64-.405.117-.981.176-1.728.176-.736 0-1.312-.059-1.728-.176-.416-.128-.709-.341-.88-.64-.171-.299-.256-.704-.256-1.216v-.304h-2.528v.624c0 1.771-.139 3.296-.416 4.576a10.268 10.268 0 0 1-1.408 3.472.746.746 0 0 1-.448.336.787.787 0 0 1-.56-.048Zm3.6.208c-.533.096-.864-.069-.992-.496a.684.684 0 0 1 .096-.576.803.803 0 0 1 .544-.288c1.525-.245 2.853-.629 3.984-1.152a8.776 8.776 0 0 1-1.92-2.448h-1.2a.588.588 0 0 1-.432-.176.656.656 0 0 1-.16-.432c0-.171.053-.315.16-.432a.562.562 0 0 1 .432-.192h5.904c.619 0 1.083.139 1.392.416.32.277.469.619.448 1.024-.021.395-.229.784-.624 1.168a11.731 11.731 0 0 1-1.392 1.136c.587.267 1.211.485 1.872.656.661.16 1.349.272 2.064.336.245.011.432.096.56.256.139.16.187.352.144.576-.043.235-.155.4-.336.496a1.065 1.065 0 0 1-.624.112c-1.984-.245-3.664-.773-5.04-1.584-.715.373-1.483.693-2.304.96a18.51 18.51 0 0 1-2.576.64Zm3.2-10.416h2.848v-1.392h-2.848v1.392Zm1.712 7.216c.256-.149.496-.309.72-.48.224-.171.437-.341.64-.512.245-.213.336-.395.272-.544-.053-.149-.267-.224-.64-.224h-2.704c.224.341.48.661.768.96.299.288.613.555.944.8Zm-5.664-7.216h2.512v-1.392h-.448c-.715 0-1.227.096-1.536.288-.299.192-.475.56-.528 1.104Zm5.376 2.368c.395 0 .693-.021.896-.064.203-.043.341-.133.416-.272.075-.149.112-.363.112-.64v-.144h-2.848v.144c0 .277.037.491.112.64.075.139.213.229.416.272.203.043.501.064.896.064Zm13.664 6.656c-.715 0-1.275-.069-1.68-.208-.395-.149-.672-.389-.832-.72-.149-.331-.224-.784-.224-1.36v-5.728c0-.693.112-1.211.336-1.552.224-.352.645-.576 1.264-.672a12.2 12.2 0 0 0 .16-.704l.16-.8c.064-.277.112-.507.144-.688.043-.224.139-.384.288-.48a.768.768 0 0 1 .56-.112c.235.043.4.149.496.32.107.16.133.347.08.56-.053.235-.128.533-.224.896s-.181.677-.256.944c.651.011 1.152.091 1.504.24.352.149.597.389.736.72.139.331.208.773.208 1.328v5.728c0 .576-.08 1.029-.24 1.36-.149.331-.421.571-.816.72-.384.139-.939.208-1.664.208Zm6.72 1.248c-.224 0-.416-.053-.576-.16-.16-.107-.251-.277-.272-.512a.666.666 0 0 1 .176-.544.806.806 0 0 1 .576-.256c.565-.032.987-.085 1.264-.16s.475-.213.592-.416c.117-.213.213-.533.288-.96.117-.736.197-1.573.24-2.512.043-.939.064-2.059.064-3.36 0-.544-.096-.901-.288-1.072-.192-.171-.555-.256-1.088-.256h-2.096c-.192.373-.395.731-.608 1.072a9.47 9.47 0 0 1-.624.928.746.746 0 0 1-.448.336.737.737 0 0 1-.56-.064.698.698 0 0 1-.32-.416.618.618 0 0 1 .064-.512c.512-.64.971-1.403 1.376-2.288.405-.885.725-1.765.96-2.64a.713.713 0 0 1 .32-.464.685.685 0 0 1 .56-.08.703.703 0 0 1 .448.304c.107.149.133.331.08.544a9.876 9.876 0 0 1-.288.96c-.117.331-.24.661-.368.992h1.616c.661 0 1.184.069 1.568.208.395.139.677.4.848.784.171.373.256.917.256 1.632 0 1.355-.027 2.517-.08 3.488a25.33 25.33 0 0 1-.24 2.624c-.107.747-.288 1.317-.544 1.712a1.887 1.887 0 0 1-1.072.816c-.459.16-1.067.251-1.824.272Zm-6.72-2.56c.523 0 .864-.075 1.024-.224.171-.16.256-.453.256-.88v-2.176h-2.576v2.176c0 .427.085.72.256.88.171.149.517.224 1.04.224Zm-1.296-4.56h2.576v-2.016c0-.437-.085-.731-.256-.88-.16-.16-.501-.24-1.024-.24s-.869.08-1.04.24c-.171.149-.256.443-.256.88v2.016Zm8.64 2.656a.786.786 0 0 1-.544.144.63.63 0 0 1-.448-.304 11.835 11.835 0 0 0-.512-.784 26.72 26.72 0 0 0-.624-.88c-.213-.288-.4-.523-.56-.704a.655.655 0 0 1-.144-.496.682.682 0 0 1 .256-.448.68.68 0 0 1 .512-.144.66.66 0 0 1 .48.24c.181.203.379.443.592.72.213.277.421.565.624.864.213.288.389.549.528.784.117.181.16.368.128.56a.69.69 0 0 1-.288.448Zm11.344 4.704a.643.643 0 0 1-.448-.176.534.534 0 0 1-.192-.432v-2.336h-2.56a.628.628 0 0 1-.464-.176.676.676 0 0 1-.16-.448.6.6 0 0 1 .624-.64h2.56v-1.12h-.08c-.853 0-1.467-.155-1.84-.464-.363-.32-.544-.901-.544-1.744v-1.136c0-.853.181-1.435.544-1.744.373-.32.987-.48 1.84-.48h.08v-1.072h-2.512a.608.608 0 0 1-.448-.176.616.616 0 0 1-.16-.432c0-.16.053-.299.16-.416a.608.608 0 0 1 .448-.176h2.512v-1.136c0-.181.064-.325.192-.432a.643.643 0 0 1 .448-.176c.171 0 .32.059.448.176a.534.534 0 0 1 .192.432v1.136h2.352c.181 0 .325.059.432.176a.57.57 0 0 1 .176.416.588.588 0 0 1-.176.432.557.557 0 0 1-.432.176h-2.352v1.072h.08c.768 0 1.333.128 1.696.384.373.245.597.688.672 1.328.309-.459.597-.981.864-1.568.277-.587.517-1.184.72-1.792.213-.619.373-1.195.48-1.728.053-.213.165-.363.336-.448a.777.777 0 0 1 .56-.048c.192.053.325.16.4.32a.615.615 0 0 1 .048.496 17.663 17.663 0 0 1-.608 2.064h2.592c.821 0 1.365.203 1.632.608.277.405.283.923.016 1.552-.128.299-.283.629-.464.992l-.512 1.088a.7.7 0 0 1-.352.368.749.749 0 0 1-.528 0 .583.583 0 0 1-.384-.32.618.618 0 0 1 .016-.496c.117-.235.256-.507.416-.816.16-.32.283-.587.368-.8.139-.32.16-.549.064-.688-.096-.139-.315-.208-.656-.208h-2.704c-.171.384-.352.763-.544 1.136-.192.363-.395.709-.608 1.04a.746.746 0 0 1-.448.336.715.715 0 0 1-.544-.096.996.996 0 0 1-.144-.112v.768c0 .843-.187 1.424-.56 1.744-.363.309-.971.464-1.824.464h-.08v1.12h2.384a.6.6 0 0 1 .464.192.608.608 0 0 1 .176.448c0 .171-.059.32-.176.448a.628.628 0 0 1-.464.176h-2.384v2.336a.534.534 0 0 1-.192.432.643.643 0 0 1-.448.176Zm3.12-.336c-.171.107-.357.16-.56.16-.192 0-.357-.091-.496-.272a.597.597 0 0 1-.096-.496.664.664 0 0 1 .272-.4c1.205-.757 2.107-1.728 2.704-2.912.597-1.195.896-2.544.896-4.048v-1.136c0-.203.064-.363.192-.48a.724.724 0 0 1 .48-.176c.181 0 .336.059.464.176a.618.618 0 0 1 .192.48v1.136c0 1.536.32 2.885.96 4.048a7.522 7.522 0 0 0 2.64 2.752.746.746 0 0 1 .336.432.638.638 0 0 1-.096.544.731.731 0 0 1-.496.32.8.8 0 0 1-.576-.128 8.649 8.649 0 0 1-2.112-2.016 9.171 9.171 0 0 1-1.296-2.528 8.814 8.814 0 0 1-1.264 2.512c-.555.757-1.269 1.435-2.144 2.032Zm-4.96-8.272h1.2v-1.136h-.064c-.459 0-.763.069-.912.208-.149.128-.224.411-.224.848v.08Zm2.48 0h1.2v-.08c0-.437-.075-.72-.224-.848-.149-.139-.453-.208-.912-.208h-.064v1.136Zm-1.344 2.128h.064v-1.12h-1.2v.064c0 .427.075.709.224.848.149.139.453.208.912.208Zm1.344 0h.064c.459 0 .763-.069.912-.208.149-.139.224-.421.224-.848v-.064h-1.2v1.12Zm23.248-2.352c-.768 0-1.301-.139-1.6-.416-.299-.277-.448-.784-.448-1.52v-.864c0-.725.144-1.227.432-1.504.299-.277.821-.421 1.568-.432v-.992c0-.149.048-.267.144-.352a.516.516 0 0 1 .352-.144c.139 0 .256.048.352.144a.447.447 0 0 1 .144.352v.992h.912v-.992c0-.149.048-.267.144-.352a.516.516 0 0 1 .352-.144c.139 0 .256.048.352.144a.447.447 0 0 1 .144.352v.992h.016c.768 0 1.301.139 1.6.416.299.277.448.784.448 1.52v.864c0 .736-.149 1.243-.448 1.52-.299.277-.832.416-1.6.416h-2.864Zm-7.6 8.752a.596.596 0 0 1-.416-.16.561.561 0 0 1-.16-.416v-6.016c0-.597.123-1.013.368-1.248.245-.235.688-.352 1.328-.352h1.056c.64 0 1.083.117 1.328.352.245.235.368.651.368 1.248v4.976c0 .523-.123.912-.368 1.168-.235.256-.64.389-1.216.4a.68.68 0 0 1-.464-.128.563.563 0 0 1-.224-.4.612.612 0 0 1 .096-.432.515.515 0 0 1 .4-.208c.245-.021.405-.075.48-.16.085-.085.128-.245.128-.48v-1.312h-2.112v2.592a.537.537 0 0 1-.176.416.561.561 0 0 1-.416.16Zm-1.008-7.216a.596.596 0 0 1-.416-.16.608.608 0 0 1-.176-.448v-.96c0-.437.069-.757.208-.96.149-.213.405-.352.768-.416v-2.544c0-.629.128-1.067.384-1.312.256-.256.688-.384 1.296-.384h1.296c.619 0 1.056.128 1.312.384.256.245.384.683.384 1.312v2.576c.309.064.528.203.656.416.139.213.208.523.208.928v.96a.608.608 0 0 1-.176.448.616.616 0 0 1-.432.16.596.596 0 0 1-.416-.16.639.639 0 0 1-.16-.448v-.608c0-.309-.048-.501-.144-.576-.096-.075-.304-.112-.624-.112h-2.592c-.32 0-.533.043-.64.128-.096.085-.144.283-.144.592v.576a.608.608 0 0 1-.176.448.561.561 0 0 1-.416.16Zm6.368 6.816a.49.49 0 0 1-.384-.16.534.534 0 0 1-.144-.368c0-.149.048-.277.144-.384a.49.49 0 0 1 .384-.16h2.048a.327.327 0 0 1-.096-.16 67.701 67.701 0 0 1-.208-.48 2.806 2.806 0 0 0-.208-.448.553.553 0 0 1 .016-.432.537.537 0 0 1 .336-.272.545.545 0 0 1 .448.032.53.53 0 0 1 .304.32c.064.16.123.309.176.448.064.139.123.288.176.448a.587.587 0 0 1 .016.304.341.341 0 0 1-.144.24h1.216c.085-.213.181-.475.288-.784.117-.309.208-.555.272-.736a.527.527 0 0 1 .304-.336h-2.656c-.576 0-.987-.112-1.232-.336-.245-.224-.368-.619-.368-1.184s.123-.955.368-1.168c.245-.224.656-.336 1.232-.336h2.816c.576 0 .987.112 1.232.336.245.213.368.603.368 1.168 0 .512-.101.885-.304 1.12-.192.224-.523.352-.992.384a.49.49 0 0 1 .32.256.473.473 0 0 1 .032.416c-.043.139-.117.32-.224.544-.096.224-.187.443-.272.656h1.936a.49.49 0 0 1 .384.16.555.555 0 0 1 .144.384.534.534 0 0 1-.144.368.49.49 0 0 1-.384.16h-7.2Zm.128-6.64a.49.49 0 0 1-.384-.16.534.534 0 0 1-.144-.368c0-.149.048-.277.144-.384a.49.49 0 0 1 .384-.16h7.024a.49.49 0 0 1 .384.16.555.555 0 0 1 .144.384.534.534 0 0 1-.144.368.49.49 0 0 1-.384.16h-7.024Zm2.464 2.816h2.208c.245 0 .416-.043.512-.128.107-.085.16-.251.16-.496s-.053-.405-.16-.48c-.096-.085-.267-.128-.512-.128h-2.208c-.235 0-.405.043-.512.128-.107.075-.16.235-.16.48s.053.411.16.496c.107.085.277.128.512.128Zm-7.536-5.968h.768v-.96c0-.512.096-.853.288-1.024.203-.181.56-.272 1.072-.272h.432v-.048c0-.341-.059-.565-.176-.672-.117-.117-.341-.176-.672-.176h-.848c-.331 0-.56.059-.688.176-.117.107-.176.331-.176.672v2.304Zm.176 6.096h2.112v-1.088h-2.112v1.088Zm0-2.016h2.112v-.304c0-.32-.048-.523-.144-.608-.096-.096-.315-.144-.656-.144h-.512c-.331 0-.549.048-.656.144-.096.085-.144.288-.144.608v.304Zm1.536-4.08h.848v-1.344h-.304c-.213 0-.357.037-.432.112-.075.064-.112.203-.112.416v.816Zm6.416.496h.912v-1.024h-.912v1.024Zm1.904 0c.395-.011.656-.069.784-.176.128-.117.192-.373.192-.768v-.08h-.976v1.024Zm-1.904-1.904h.912v-.928h-.912v.928Zm-.992 1.904v-1.024h-.928v.08c0 .373.064.624.192.752.128.117.373.181.736.192Zm2.896-1.904h.976c0-.395-.064-.645-.192-.752-.128-.117-.389-.176-.784-.176v.928Zm-3.824 0h.928v-.928c-.363.011-.608.075-.736.192s-.192.363-.192.736Zm12.896 11.2c-.427 0-.821-.107-1.184-.32a2.476 2.476 0 0 1-.848-.848 2.297 2.297 0 0 1-.32-1.184c0-.437.107-.832.32-1.184.213-.363.496-.645.848-.848.363-.213.757-.32 1.184-.32.437 0 .832.107 1.184.32.352.203.635.485.848.848.213.352.32.747.32 1.184 0 .427-.107.821-.32 1.184a2.476 2.476 0 0 1-.848.848c-.352.213-.747.32-1.184.32Zm0-.928c.395 0 .731-.139 1.008-.416.277-.277.416-.613.416-1.008s-.139-.731-.416-1.008a1.373 1.373 0 0 0-1.008-.416c-.395 0-.731.144-1.008.432a1.355 1.355 0 0 0-.416.992c0 .384.139.72.416 1.008.277.277.613.416 1.008.416Z"/><path fill="#D9D9D9" d="m609.038 247 44.462 4.5 233.849 4.952 8.962 15.315 10.882 14.038L936 307.5l-354-4.467L609.038 247Z"/><path fill="#1D4F6E" d="M623.376 292.136a1.06 1.06 0 0 1-.744-.288c-.192-.192-.288-.44-.288-.744V273.68c0-.896.112-1.592.336-2.088.24-.496.624-.848 1.152-1.056.544-.208 1.272-.312 2.184-.312h1.608c.928 0 1.656.096 2.184.288.528.192.904.536 1.128 1.032.24.496.36 1.216.36 2.16 0 1.2-.192 2.032-.576 2.496-.368.448-1.024.72-1.968.816.096.032.176.064.24.096a.68.68 0 0 1 .312.504c.048.208.008.4-.12.576l-.576.768-.624.792c.128.08.24.16.336.24.112.064.208.128.288.192a37.762 37.762 0 0 0 1.464-1.728c.16-.192.352-.288.576-.288a.86.86 0 0 1 .624.192.703.703 0 0 1 .288.552.707.707 0 0 1-.192.6c-.208.24-.48.536-.816.888-.32.352-.664.72-1.032 1.104a77.68 77.68 0 0 1-1.008 1.08l.888-.096c.288-.032.552-.056.792-.072l-.12-.24c-.112-.224-.12-.432-.024-.624a.832.832 0 0 1 .408-.432.917.917 0 0 1 .648-.048c.224.064.392.216.504.456.128.24.288.576.48 1.008.208.416.368.752.48 1.008l.048.144a.896.896 0 0 1 .192-.648c.16-.176.376-.272.648-.288l.168-.024c.144-.16.304-.336.48-.528l.528-.624c-.176-.144-.4-.312-.672-.504a78.077 78.077 0 0 0-.792-.552 12.65 12.65 0 0 0-.624-.408.812.812 0 0 1-.36-.504.869.869 0 0 1 .144-.624.82.82 0 0 1 .528-.36.78.78 0 0 1 .648.096.378.378 0 0 1 .144.096c.048.032.104.064.168.096l.528-.744c.208-.272.384-.504.528-.696a.82.82 0 0 1 .528-.36.83.83 0 0 1 .648.12.746.746 0 0 1 .336.48.62.62 0 0 1-.096.576 179.567 179.567 0 0 1-1.176 1.512c.128.08.248.16.36.24.112.08.2.152.264.216.272-.32.528-.624.768-.912.24-.304.44-.56.6-.768.176-.224.376-.336.6-.336.24-.016.448.04.624.168.192.16.296.36.312.6a.707.707 0 0 1-.192.6c-.304.352-.72.816-1.248 1.392-.528.56-1.024 1.088-1.488 1.584.32-.032.632-.056.936-.072.304-.032.592-.056.864-.072l-.168-.336a.781.781 0 0 1-.048-.6.806.806 0 0 1 .432-.456.772.772 0 0 1 .624-.024c.208.064.368.2.48.408.096.144.208.352.336.624l.432.816c.144.272.248.488.312.648.112.256.12.48.024.672a.914.914 0 0 1-.48.432c-.224.08-.44.088-.648.024-.208-.064-.36-.224-.456-.48a.931.931 0 0 1-.048-.12 1.317 1.317 0 0 0-.072-.168c-.448.064-.944.136-1.488.216-.544.08-1.088.152-1.632.216-.528.048-.992.096-1.392.144-.592.064-.952-.144-1.08-.624a.698.698 0 0 1-.144.504.978.978 0 0 1-.384.336c-.224.08-.44.088-.648.024-.208-.08-.36-.24-.456-.48a2.794 2.794 0 0 1-.144-.36c-.432.064-.944.144-1.536.24a480 480 0 0 1-1.752.24l-1.512.168c-.304.032-.552-.024-.744-.168-.176-.144-.28-.352-.312-.624a.86.86 0 0 1 .192-.624.87.87 0 0 1 .648-.312h.24c.08 0 .168-.008.264-.024.144-.16.312-.344.504-.552.208-.224.416-.464.624-.72-.288-.208-.64-.448-1.056-.72-.4-.288-.712-.504-.936-.648a.848.848 0 0 1-.336-.528.792.792 0 0 1 .144-.6.82.82 0 0 1 .528-.36.826.826 0 0 1 .672.096c.032.032.096.08.192.144.176-.224.368-.488.576-.792.224-.304.416-.56.576-.768a.622.622 0 0 1 .312-.264h-3.768v14.064a.966.966 0 0 1-.312.744.948.948 0 0 1-.696.288Zm15.888-.144c-.336 0-.6-.104-.792-.312a1.212 1.212 0 0 1-.312-.696 1.224 1.224 0 0 1 .216-.768c.176-.224.432-.344.768-.36.56-.032.912-.12 1.056-.264.144-.16.216-.48.216-.96V277.04h-3.36c-.912 0-1.64-.08-2.184-.24a1.908 1.908 0 0 1-1.152-.984c-.224-.48-.336-1.184-.336-2.112 0-.944.112-1.664.336-2.16.24-.496.624-.84 1.152-1.032.544-.192 1.272-.288 2.184-.288h1.704c.928 0 1.656.104 2.184.312.544.208.928.56 1.152 1.056.24.496.36 1.192.36 2.088v15.192c0 1.168-.264 1.976-.792 2.424-.512.464-1.312.696-2.4.696Zm-12.072-.408c-.304.064-.576.04-.816-.072-.224-.112-.368-.304-.432-.576-.064-.256-.04-.48.072-.672.128-.192.344-.32.648-.384.848-.176 1.504-.392 1.968-.648.464-.272.792-.656.984-1.152h-1.176c-.912 0-1.536-.144-1.872-.432-.32-.304-.48-.888-.48-1.752v-.312c0-.272.088-.472.264-.6a.922.922 0 0 1 .6-.216c.224 0 .416.072.576.216.176.128.264.328.264.6v.192c0 .304.056.512.168.624.128.112.376.168.744.168h1.152v-.144a.453.453 0 0 0 .024-.144v-.816c0-.272.08-.488.24-.648a.928.928 0 0 1 .648-.24c.256 0 .464.08.624.24.176.16.264.376.264.648v.816c0 .944-.128 1.776-.384 2.496-.24.704-.688 1.288-1.344 1.752-.64.464-1.552.816-2.736 1.056Zm6.864.24a.963.963 0 0 1-.672-.264c-.176-.16-.264-.392-.264-.696v-5.328c0-.288.088-.512.264-.672a.963.963 0 0 1 .672-.264.91.91 0 0 1 .672.264c.192.16.288.384.288.672v1.032h1.176c.368 0 .608-.056.72-.168.128-.112.192-.32.192-.624v-.192c0-.272.08-.472.24-.6a.955.955 0 0 1 .624-.216c.224 0 .424.072.6.216.176.128.264.328.264.6v.312c0 .864-.168 1.448-.504 1.752-.336.288-.96.432-1.872.432h-1.44v2.784c0 .304-.096.536-.288.696a.91.91 0 0 1-.672.264Zm3.24-16.32h3.12v-1.152h-4.968c.064.512.224.832.48.96.272.128.728.192 1.368.192Zm-12.912 0h3c.656 0 1.112-.064 1.368-.192s.416-.448.48-.96h-4.848v1.152Zm11.064-2.592h4.92c-.064-.48-.232-.784-.504-.912-.256-.144-.696-.216-1.32-.216h-1.248c-.64 0-1.096.064-1.368.192-.256.128-.416.44-.48.936Zm-11.016 0h4.8c-.064-.496-.232-.808-.504-.936-.256-.128-.704-.192-1.344-.192h-1.128c-.624 0-1.072.072-1.344.216-.256.128-.416.432-.48.912Zm28.68 18.912c-.32 0-.592-.096-.816-.288a1.01 1.01 0 0 1-.384-.72c-.016-.32.072-.584.264-.792.208-.192.472-.296.792-.312.48-.016.848-.056 1.104-.12a.903.903 0 0 0 .576-.408c.128-.208.224-.528.288-.96.064-.432.128-.984.192-1.656.064-.688.12-1.4.168-2.136.064-.752.104-1.44.12-2.064.016-.512-.072-.848-.264-1.008-.192-.16-.568-.24-1.128-.24h-.888c-.176 2.08-.576 3.96-1.2 5.64-.608 1.664-1.416 3.136-2.424 4.416-.192.24-.432.392-.72.456-.288.08-.568.04-.84-.12a.96.96 0 0 1-.456-.696.94.94 0 0 1 .192-.768 14.313 14.313 0 0 0 1.92-3.048c.512-1.072.888-2.296 1.128-3.672.256-1.376.384-3 .384-4.872v-2.088h-2.568a.948.948 0 0 1-.696-.288.948.948 0 0 1-.288-.696c0-.272.096-.504.288-.696a.948.948 0 0 1 .696-.288h3.6v-3.504c0-.32.104-.584.312-.792.224-.208.488-.312.792-.312.304 0 .56.104.768.312.224.208.336.472.336.792v3.504h3.48c.272 0 .504.096.696.288a.948.948 0 0 1 .288.696.948.948 0 0 1-.288.696.948.948 0 0 1-.696.288h-4.584v2.808h.816c.88 0 1.568.088 2.064.264.496.176.84.488 1.032.936.208.432.304 1.032.288 1.8a39.838 39.838 0 0 1-.12 2.328c-.048.8-.104 1.552-.168 2.256a40.363 40.363 0 0 1-.192 1.728c-.16 1.216-.536 2.064-1.128 2.544-.576.496-1.488.76-2.736.792Zm4.536-12.072a.94.94 0 0 1-.336-.696 1.021 1.021 0 0 1 .24-.744c.32-.384.672-.84 1.056-1.368.4-.528.8-1.088 1.2-1.68.4-.592.776-1.168 1.128-1.728.352-.576.656-1.096.912-1.56.464-.864 1.056-1.304 1.776-1.32.72-.032 1.352.368 1.896 1.2.4.608.864 1.28 1.392 2.016.528.72 1.056 1.424 1.584 2.112.528.672 1 1.248 1.416 1.728.208.224.304.496.288.816 0 .304-.112.568-.336.792-.24.208-.528.312-.864.312a1.071 1.071 0 0 1-.816-.408 55.072 55.072 0 0 1-1.344-1.704 97.27 97.27 0 0 1-1.464-2.088 55.733 55.733 0 0 1-1.176-1.896c-.16-.272-.328-.408-.504-.408-.16 0-.312.144-.456.432-.288.528-.664 1.16-1.128 1.896-.448.736-.92 1.472-1.416 2.208a25.116 25.116 0 0 1-1.416 1.92c-.192.24-.448.384-.768.432a1.143 1.143 0 0 1-.864-.264Zm8.616 11.424c-.64-.48-1.344-.976-2.112-1.488a63.087 63.087 0 0 0-2.304-1.512 35.25 35.25 0 0 0-2.112-1.272c-.24-.144-.4-.352-.48-.624a1.05 1.05 0 0 1 .072-.792c.16-.272.384-.448.672-.528.288-.096.576-.064.864.096.688.352 1.432.768 2.232 1.248.8.48 1.592.984 2.376 1.512.8.528 1.52 1.032 2.16 1.512.272.192.432.448.48.768.048.32-.024.616-.216.888-.192.256-.448.4-.768.432-.304.048-.592-.032-.864-.24Zm-1.104-7.152a32.42 32.42 0 0 0-1.896-1.536c-.704-.544-1.328-1-1.872-1.368-.224-.16-.36-.392-.408-.696-.032-.304.032-.56.192-.768a1.14 1.14 0 0 1 1.512-.24c.4.24.832.536 1.296.888.48.352.952.712 1.416 1.08.464.352.864.68 1.2.984.224.208.344.464.36.768a.934.934 0 0 1-.264.768c-.192.224-.44.352-.744.384a1.085 1.085 0 0 1-.792-.264Zm14.592 8.088a.963.963 0 0 1-.672-.264.8.8 0 0 1-.288-.648v-3.504h-3.84c-.288 0-.52-.088-.696-.264a1.018 1.018 0 0 1-.24-.672.96.96 0 0 1 .24-.672.9.9 0 0 1 .696-.288h3.84v-1.68h-.12c-1.28 0-2.2-.232-2.76-.696-.544-.48-.816-1.352-.816-2.616v-1.704c0-1.28.272-2.152.816-2.616.56-.48 1.48-.72 2.76-.72h.12v-1.608h-3.768a.91.91 0 0 1-.672-.264.928.928 0 0 1-.24-.648c0-.24.08-.448.24-.624a.91.91 0 0 1 .672-.264h3.768v-1.704a.8.8 0 0 1 .288-.648.963.963 0 0 1 .672-.264c.256 0 .48.088.672.264a.8.8 0 0 1 .288.648v1.704h3.528c.272 0 .488.088.648.264a.853.853 0 0 1 .264.624.881.881 0 0 1-.264.648c-.16.176-.376.264-.648.264h-3.528v1.608h.12c1.152 0 2 .192 2.544.576.56.368.896 1.032 1.008 1.992.464-.688.896-1.472 1.296-2.352.416-.88.776-1.776 1.08-2.688.32-.928.56-1.792.72-2.592.08-.32.248-.544.504-.672a1.16 1.16 0 0 1 .84-.072c.288.08.488.24.6.48a.919.919 0 0 1 .072.744 26.535 26.535 0 0 1-.912 3.096h3.888c1.232 0 2.048.304 2.448.912.416.608.424 1.384.024 2.328-.192.448-.424.944-.696 1.488l-.768 1.632c-.112.256-.288.44-.528.552-.24.096-.504.096-.792 0a.874.874 0 0 1-.576-.48.93.93 0 0 1 .024-.744c.176-.352.384-.76.624-1.224.24-.48.424-.88.552-1.2.208-.48.24-.824.096-1.032-.144-.208-.472-.312-.984-.312h-4.056a33.268 33.268 0 0 1-.816 1.704 21 21 0 0 1-.912 1.56c-.16.256-.384.424-.672.504-.272.064-.544.016-.816-.144a1.46 1.46 0 0 1-.216-.168v1.152c0 1.264-.28 2.136-.84 2.616-.544.464-1.456.696-2.736.696h-.12v1.68h3.576a.9.9 0 0 1 .696.288.91.91 0 0 1 .264.672c0 .256-.088.48-.264.672-.176.176-.408.264-.696.264h-3.576v3.504a.8.8 0 0 1-.288.648.963.963 0 0 1-.672.264Zm4.68-.504c-.256.16-.536.24-.84.24-.288 0-.536-.136-.744-.408a.9.9 0 0 1-.144-.744.998.998 0 0 1 .408-.6c1.808-1.136 3.16-2.592 4.056-4.368.896-1.792 1.344-3.816 1.344-6.072v-1.704c0-.304.096-.544.288-.72.208-.176.448-.264.72-.264.272 0 .504.088.696.264.192.176.288.416.288.72v1.704c0 2.304.48 4.328 1.44 6.072a11.27 11.27 0 0 0 3.96 4.128c.256.16.424.376.504.648.08.272.032.544-.144.816-.192.272-.44.432-.744.48a1.2 1.2 0 0 1-.864-.192c-1.264-.864-2.32-1.872-3.168-3.024a13.73 13.73 0 0 1-1.944-3.792 13.24 13.24 0 0 1-1.896 3.768c-.832 1.136-1.904 2.152-3.216 3.048Zm-7.44-12.408h1.8v-1.704h-.096c-.688 0-1.144.104-1.368.312-.224.192-.336.616-.336 1.272v.12Zm3.72 0h1.8v-.12c0-.656-.112-1.08-.336-1.272-.224-.208-.68-.312-1.368-.312h-.096v1.704Zm-2.016 3.192h.096v-1.68h-1.8v.096c0 .64.112 1.064.336 1.272.224.208.68.312 1.368.312Zm2.016 0h.096c.688 0 1.144-.104 1.368-.312.224-.208.336-.632.336-1.272v-.096h-1.8v1.68Zm25.992 9.576c-.288 0-.528-.088-.72-.264-.176-.16-.272-.392-.288-.696a.958.958 0 0 1 .216-.696c.16-.176.376-.272.648-.288.688-.032 1.128-.128 1.32-.288.192-.176.288-.552.288-1.128v-1.92h-3.72c-.256 1.76-.808 3.296-1.656 4.608a1.12 1.12 0 0 1-.648.504c-.272.08-.544.048-.816-.096a.876.876 0 0 1-.456-.6.82.82 0 0 1 .12-.696 9.438 9.438 0 0 0 1.032-1.992c.272-.688.464-1.472.576-2.352.128-.896.192-1.944.192-3.144v-2.208c0-.832.104-1.472.312-1.92.208-.464.576-.784 1.104-.96.528-.192 1.272-.288 2.232-.288.96 0 1.704.096 2.232.288.528.176.896.496 1.104.96.208.448.312 1.088.312 1.92v8.256c0 1.008-.232 1.76-.696 2.256-.464.496-1.36.744-2.688.744Zm10.056-.12c-.304 0-.568-.088-.792-.264-.208-.16-.32-.4-.336-.72-.016-.32.064-.576.24-.768.192-.192.432-.296.72-.312.544-.032.96-.088 1.248-.168a1.03 1.03 0 0 0 .648-.504c.144-.256.264-.656.36-1.2.096-.56.176-1.232.24-2.016.064-.8.104-1.584.12-2.352.032-.8-.08-1.32-.336-1.56-.24-.256-.728-.384-1.464-.384h-1.032c-.032 1.552-.192 2.928-.48 4.128-.288 1.2-.712 2.272-1.272 3.216-.56.944-1.28 1.816-2.16 2.616a1.126 1.126 0 0 1-.792.312 1.04 1.04 0 0 1-.792-.288 1.04 1.04 0 0 1-.312-.696c0-.272.104-.496.312-.672.816-.656 1.472-1.384 1.968-2.184.496-.8.864-1.72 1.104-2.76.256-1.056.4-2.28.432-3.672h-2.712c-.272 0-.488-.088-.648-.264a.928.928 0 0 1-.24-.648c0-.256.08-.472.24-.648.16-.176.376-.264.648-.264h2.736v-2.208c0-.32.096-.568.288-.744a.993.993 0 0 1 .696-.264c.272 0 .504.088.696.264.208.176.312.424.312.744v2.208h1.128c1.408 0 2.384.272 2.928.816.56.544.808 1.528.744 2.952a36.028 36.028 0 0 1-.144 2.568 32.553 32.553 0 0 1-.24 2.28c-.112.864-.32 1.544-.624 2.04a2.36 2.36 0 0 1-1.248 1.08c-.544.224-1.272.336-2.184.336Zm1.2-14.736a1.231 1.231 0 0 1-.864-.024c-.256-.112-.424-.32-.504-.624a13.68 13.68 0 0 0-.384-1.08c-.16-.448-.304-.824-.432-1.128h-1.656a15.922 15.922 0 0 1-1.68 2.544 1.289 1.289 0 0 1-.696.432c-.256.064-.52.016-.792-.144-.24-.176-.376-.392-.408-.648a.906.906 0 0 1 .216-.72 15.43 15.43 0 0 0 1.728-2.616 18.32 18.32 0 0 0 1.176-2.712.943.943 0 0 1 .528-.576.967.967 0 0 1 .816-.024c.272.096.456.264.552.504.112.24.112.496 0 .768-.08.224-.168.456-.264.696-.08.224-.168.448-.264.672h6.432c.272 0 .488.088.648.264a.881.881 0 0 1 .264.648.881.881 0 0 1-.264.648c-.16.176-.376.264-.648.264h-3.504c.128.272.248.552.36.84.112.272.2.504.264.696a.92.92 0 0 1 0 .768c-.096.256-.304.44-.624.552Zm-9.936 0a1.231 1.231 0 0 1-.864-.024c-.256-.112-.432-.32-.528-.624-.08-.272-.2-.632-.36-1.08-.16-.448-.304-.824-.432-1.128h-1.176c-.272.464-.568.912-.888 1.344-.32.416-.656.832-1.008 1.248-.208.24-.448.392-.72.456-.256.048-.52-.024-.792-.216-.24-.176-.376-.392-.408-.648a.987.987 0 0 1 .24-.72 16.097 16.097 0 0 0 1.944-2.64c.608-1.008 1.08-1.952 1.416-2.832.112-.272.296-.464.552-.576a.97.97 0 0 1 .816.024.94.94 0 0 1 .552.552c.096.24.08.488-.048.744-.096.24-.2.48-.312.72-.096.24-.2.48-.312.72h5.04c.272 0 .488.088.648.264a.881.881 0 0 1 .264.648.881.881 0 0 1-.264.648c-.16.176-.376.264-.648.264h-2.712c.128.272.248.552.36.84.112.272.2.504.264.696a.92.92 0 0 1 0 .768c-.112.256-.32.44-.624.552Zm-3.408 7.896h3.552v-1.968h-3.48c0 .688-.024 1.344-.072 1.968Zm.072-3.648h3.48v-.552c0-.432-.04-.744-.12-.936-.08-.208-.24-.344-.48-.408s-.616-.096-1.128-.096c-.512 0-.896.032-1.152.096-.24.064-.4.2-.48.408-.08.192-.12.504-.12.936v.552Z"/></svg>