<svg width="67" height="75" viewBox="0 0 67 75" fill="none" xmlns="http://www.w3.org/2000/svg">
<rect x="10" y="1" width="48" height="48" rx="24" fill="url(#paint0_radial_807_4964)" fill-opacity="0.5"/>
<rect x="10" y="1" width="48" height="48" rx="24" stroke="#FDDA75" stroke-width="2"/>
<path d="M32.6437 36.2498L32.6437 16.7673L26.0274 23.3836C25.9118 23.5017 25.7739 23.5958 25.6217 23.6604C25.4695 23.7249 25.306 23.7586 25.1407 23.7595C24.9753 23.7604 24.8115 23.7285 24.6586 23.6657C24.5056 23.6028 24.3667 23.5103 24.2498 23.3933C24.1329 23.2764 24.0404 23.1375 23.9776 22.9846C23.9147 22.8316 23.8829 22.6678 23.8838 22.5024C23.8847 22.3371 23.9185 22.1736 23.983 22.0214C24.0476 21.8692 24.1417 21.7313 24.2599 21.6157L33.0099 12.8657C33.2443 12.6314 33.5622 12.4998 33.8937 12.4998C34.2251 12.4998 34.543 12.6314 34.7774 12.8657L43.5274 21.6157C43.6437 21.7317 43.736 21.8695 43.7988 22.0212C43.8617 22.1729 43.8939 22.3356 43.8937 22.4998C43.8936 22.747 43.8203 22.9886 43.6829 23.1941C43.5456 23.3996 43.3504 23.5598 43.122 23.6544C42.8936 23.749 42.6423 23.7737 42.3999 23.7255C42.1574 23.6773 41.9347 23.5583 41.7599 23.3835L35.1437 16.7673L35.1437 36.2498C35.1437 36.5813 35.012 36.8993 34.7776 37.1337C34.5431 37.3681 34.2252 37.4998 33.8937 37.4998C33.5622 37.4998 33.2442 37.3681 33.0098 37.1337C32.7754 36.8993 32.6437 36.5813 32.6437 36.2498Z" fill="#FDDA75"/>
<path d="M1.12 62.244C1.04533 62.244 0.956667 62.244 0.854 62.244C0.751333 62.2347 0.648667 62.2253 0.546 62.216C0.452667 62.1973 0.364 62.1787 0.28 62.16C0.205333 62.132 0.163333 62.0993 0.154 62.062C0.135333 62.0247 0.135333 61.9733 0.154 61.908C0.182 61.8333 0.214667 61.7633 0.252 61.698C0.289333 61.6233 0.326667 61.5627 0.364 61.516C0.410667 61.46 0.448 61.4227 0.476 61.404C0.662667 61.32 0.849333 61.2547 1.036 61.208C1.22267 61.1613 1.42333 61.1473 1.638 61.166C1.70333 61.166 1.764 61.194 1.82 61.25C1.88533 61.2967 1.94133 61.3573 1.988 61.432C2.044 61.4973 2.086 61.5673 2.114 61.642C2.142 61.7073 2.16533 61.7587 2.184 61.796C2.296 61.7027 2.422 61.614 2.562 61.53C2.71133 61.446 2.86533 61.376 3.024 61.32C3.18267 61.2547 3.34133 61.208 3.5 61.18C3.65867 61.1427 3.80333 61.1193 3.934 61.11C4.27933 61.0913 4.592 61.124 4.872 61.208C5.152 61.292 5.39 61.418 5.586 61.586C5.79133 61.7447 5.95 61.9453 6.062 62.188C6.174 62.4213 6.23467 62.6827 6.244 62.972C6.25333 63.1867 6.22533 63.4107 6.16 63.644C6.09467 63.8773 5.99667 64.106 5.866 64.33C5.74467 64.554 5.59067 64.764 5.404 64.96C5.22667 65.156 5.02133 65.3147 4.788 65.436C5.10533 65.4267 5.41333 65.4593 5.712 65.534C6.01067 65.6087 6.272 65.73 6.496 65.898C6.72933 66.0567 6.91133 66.262 7.042 66.514C7.17267 66.766 7.23333 67.0647 7.224 67.41C7.20533 67.746 7.112 68.0633 6.944 68.362C6.78533 68.6513 6.552 68.908 6.244 69.132C5.936 69.3467 5.56267 69.5147 5.124 69.636C4.69467 69.748 4.2 69.7993 3.64 69.79C3.54667 69.79 3.42067 69.7807 3.262 69.762C3.10333 69.734 2.94467 69.6967 2.786 69.65C2.63667 69.6033 2.506 69.552 2.394 69.496C2.282 69.4307 2.226 69.3607 2.226 69.286C2.226 69.2207 2.27733 69.1693 2.38 69.132C2.48267 69.0853 2.604 69.048 2.744 69.02C2.884 68.992 3.02867 68.9687 3.178 68.95C3.32733 68.9313 3.444 68.9173 3.528 68.908C4.29333 68.8147 4.86733 68.6093 5.25 68.292C5.642 67.9653 5.82867 67.5967 5.81 67.186C5.80067 66.9713 5.74467 66.794 5.642 66.654C5.53933 66.5047 5.404 66.3833 5.236 66.29C5.07733 66.1873 4.89067 66.108 4.676 66.052C4.47067 65.996 4.256 65.9447 4.032 65.898C3.78933 66.0007 3.55133 66.066 3.318 66.094C3.21533 66.1127 3.108 66.122 2.996 66.122C2.884 66.1127 2.81867 66.0707 2.8 65.996C2.78133 65.912 2.814 65.8093 2.898 65.688C2.982 65.5573 3.08933 65.4547 3.22 65.38C3.37867 65.2867 3.556 65.17 3.752 65.03C3.95733 64.8807 4.14867 64.7127 4.326 64.526C4.51267 64.33 4.662 64.1153 4.774 63.882C4.89533 63.6487 4.95133 63.392 4.942 63.112C4.93267 62.8227 4.82067 62.5847 4.606 62.398C4.40067 62.2113 4.12533 62.118 3.78 62.118C3.472 62.118 3.18733 62.174 2.926 62.286C2.66467 62.3887 2.45 62.524 2.282 62.692C2.30067 63.0933 2.31933 63.5507 2.338 64.064C2.35667 64.5773 2.366 65.058 2.366 65.506C2.366 66.01 2.34267 66.5653 2.296 67.172C2.24933 67.7787 2.16067 68.362 2.03 68.922C2.01133 69.006 1.974 69.1227 1.918 69.272C1.87133 69.412 1.81067 69.5567 1.736 69.706C1.67067 69.8553 1.596 69.9813 1.512 70.084C1.43733 70.196 1.36733 70.252 1.302 70.252C1.25533 70.252 1.204 70.2193 1.148 70.154C1.10133 70.0887 1.05933 70.0187 1.022 69.944C0.984667 69.8693 0.952 69.7993 0.924 69.734C0.905333 69.6593 0.896 69.6127 0.896 69.594C0.905333 69.482 0.919333 69.3747 0.938 69.272C0.966 69.16 0.989333 69.0527 1.008 68.95C1.05467 68.698 1.092 68.418 1.12 68.11C1.15733 67.7927 1.18533 67.4707 1.204 67.144C1.232 66.8173 1.246 66.4953 1.246 66.178C1.25533 65.8513 1.25533 65.5527 1.246 65.282L1.12 62.244ZM12.5439 66.122C12.5439 65.926 12.5159 65.73 12.4599 65.534C12.4039 65.3287 12.3152 65.1467 12.1939 64.988C12.0726 64.82 11.9139 64.6847 11.7179 64.582C11.5219 64.4793 11.2792 64.428 10.9899 64.428C10.7566 64.428 10.5279 64.4467 10.3039 64.484C10.0892 64.5213 9.89789 64.5633 9.72989 64.61C9.07656 64.778 8.71256 64.7547 8.63789 64.54C8.60056 64.428 8.63789 64.2973 8.74989 64.148C8.86189 63.9987 9.02989 63.8587 9.25389 63.728C9.48722 63.5973 9.76256 63.4853 10.0799 63.392C10.4066 63.2987 10.7612 63.252 11.1439 63.252C11.5266 63.252 11.8766 63.3173 12.1939 63.448C12.5206 63.5787 12.8006 63.7607 13.0339 63.994C13.2672 64.218 13.4492 64.484 13.5799 64.792C13.7106 65.1 13.7759 65.4313 13.7759 65.786V68.838C13.7759 68.978 13.7806 69.16 13.7899 69.384C13.7992 69.608 13.8272 69.8087 13.8739 69.986C13.9486 70.266 13.9579 70.434 13.9019 70.49C13.8552 70.5273 13.7806 70.5413 13.6779 70.532C13.5846 70.532 13.4912 70.5133 13.3979 70.476C13.2766 70.4293 13.1552 70.3313 13.0339 70.182C12.9219 70.042 12.8239 69.8507 12.7399 69.608C12.6932 69.664 12.6092 69.7387 12.4879 69.832C12.3759 69.916 12.2312 70 12.0539 70.084C11.8766 70.1773 11.6759 70.2567 11.4519 70.322C11.2372 70.3873 11.0086 70.4247 10.7659 70.434C10.2806 70.4433 9.86989 70.392 9.53389 70.28C9.19789 70.1773 8.92256 70.0327 8.70789 69.846C8.50256 69.6593 8.34856 69.4447 8.24589 69.202C8.15256 68.95 8.10122 68.6887 8.09189 68.418C8.08256 68.138 8.12922 67.8627 8.23189 67.592C8.33456 67.3213 8.49789 67.0833 8.72189 66.878C8.94589 66.6727 9.23522 66.5093 9.58989 66.388C9.94456 66.2667 10.3692 66.2107 10.8639 66.22C11.1346 66.2293 11.4332 66.2807 11.7599 66.374C12.0866 66.4673 12.3479 66.584 12.5439 66.724V66.122ZM12.5579 67.48C12.2966 67.3867 12.0072 67.3073 11.6899 67.242C11.3819 67.1767 11.0692 67.1487 10.7519 67.158C9.82789 67.1767 9.36589 67.5547 9.36589 68.292C9.36589 68.656 9.47789 68.8987 9.70189 69.02C9.93522 69.1413 10.2806 69.202 10.7379 69.202C10.8872 69.202 11.0459 69.1833 11.2139 69.146C11.3912 69.1087 11.5592 69.062 11.7179 69.006C11.8859 68.9407 12.0399 68.866 12.1799 68.782C12.3292 68.698 12.4552 68.614 12.5579 68.53V67.48ZM19.7233 64.204C19.8166 64.288 19.8959 64.386 19.9613 64.498C20.0266 64.6007 20.0733 64.7033 20.1013 64.806C20.1293 64.9087 20.1339 65.002 20.1153 65.086C20.1059 65.1607 20.0733 65.212 20.0173 65.24C19.9426 65.2773 19.8306 65.254 19.6813 65.17C19.5413 65.0767 19.3966 64.9927 19.2473 64.918C19.1539 64.8713 18.9999 64.8153 18.7853 64.75C18.5799 64.6847 18.3513 64.6613 18.0993 64.68C17.5953 64.7267 17.2126 64.974 16.9513 65.422C16.6899 65.8607 16.5686 66.416 16.5873 67.088C16.5966 67.3867 16.6386 67.676 16.7133 67.956C16.7879 68.2267 16.8953 68.4693 17.0353 68.684C17.1846 68.8987 17.3666 69.0713 17.5813 69.202C17.8053 69.3233 18.0666 69.3793 18.3653 69.37C18.7106 69.3607 19.0139 69.3093 19.2753 69.216C19.5459 69.1227 19.7839 69.0107 19.9893 68.88C20.0546 68.8427 20.1246 68.8007 20.1993 68.754C20.2833 68.7073 20.3579 68.67 20.4233 68.642C20.4979 68.6047 20.5586 68.5813 20.6053 68.572C20.6613 68.5627 20.7033 68.572 20.7313 68.6C20.7593 68.6467 20.7639 68.7073 20.7453 68.782C20.7266 68.8567 20.6939 68.936 20.6473 69.02C20.6099 69.104 20.5633 69.1833 20.5073 69.258C20.4513 69.3327 20.3999 69.398 20.3533 69.454C20.0919 69.734 19.7699 69.9487 19.3873 70.098C19.0046 70.2473 18.6033 70.322 18.1833 70.322C17.7259 70.322 17.3153 70.238 16.9513 70.07C16.5873 69.902 16.2746 69.6733 16.0133 69.384C15.7613 69.0947 15.5653 68.754 15.4253 68.362C15.2853 67.97 15.2106 67.5547 15.2013 67.116C15.1919 66.6867 15.2433 66.2713 15.3553 65.87C15.4766 65.4593 15.6539 65.0953 15.8873 64.778C16.1206 64.4607 16.4006 64.204 16.7273 64.008C17.0633 63.8027 17.4413 63.686 17.8613 63.658C18.0853 63.6393 18.2953 63.6487 18.4913 63.686C18.6873 63.714 18.8599 63.7607 19.0093 63.826C19.1679 63.882 19.3079 63.9473 19.4293 64.022C19.5506 64.0873 19.6486 64.148 19.7233 64.204ZM21.954 61.558C21.842 61.5207 21.744 61.4927 21.66 61.474C21.5853 61.446 21.5106 61.4273 21.436 61.418C21.3706 61.3993 21.3006 61.3853 21.226 61.376C21.1513 61.3573 21.0626 61.334 20.96 61.306C20.904 61.2873 20.8526 61.2547 20.806 61.208C20.7593 61.1613 20.7453 61.1147 20.764 61.068C20.7826 60.9933 20.8293 60.9187 20.904 60.844C20.9786 60.7693 21.0533 60.718 21.128 60.69C21.1933 60.662 21.3006 60.6293 21.45 60.592C21.6086 60.5547 21.772 60.522 21.94 60.494C22.1173 60.466 22.2806 60.4473 22.43 60.438C22.5886 60.4193 22.7006 60.424 22.766 60.452C22.9526 60.5267 23.0786 60.69 23.144 60.942C23.2093 61.1847 23.2466 61.474 23.256 61.81C23.2746 62.5287 23.2886 63.2287 23.298 63.91C23.3073 64.5913 23.3073 65.268 23.298 65.94C23.4006 65.9587 23.5266 65.968 23.676 65.968C23.8253 65.968 23.9513 65.954 24.054 65.926C24.222 65.7953 24.404 65.6367 24.6 65.45C24.8053 65.254 25.0013 65.0627 25.188 64.876C25.3746 64.68 25.538 64.498 25.678 64.33C25.8273 64.162 25.9346 64.0407 26 63.966C26.2053 63.714 26.3546 63.4993 26.448 63.322C26.5413 63.1353 26.6393 63.042 26.742 63.042C26.826 63.042 26.9053 63.112 26.98 63.252C27.0546 63.392 27.092 63.518 27.092 63.63C27.092 63.7887 27.0733 63.9333 27.036 64.064C27.008 64.1853 26.9566 64.3113 26.882 64.442C26.8166 64.5727 26.728 64.708 26.616 64.848C26.504 64.988 26.364 65.1467 26.196 65.324C25.972 65.5667 25.7526 65.7907 25.538 65.996C25.3233 66.2013 25.0993 66.3973 24.866 66.584C24.9873 66.7893 25.1366 67.046 25.314 67.354C25.5006 67.6527 25.6873 67.9513 25.874 68.25C26.0606 68.5393 26.2333 68.8007 26.392 69.034C26.56 69.258 26.686 69.398 26.77 69.454C27.0126 69.5567 27.176 69.65 27.26 69.734C27.3533 69.8087 27.4 69.874 27.4 69.93C27.4 69.9767 27.3673 70.014 27.302 70.042C27.2366 70.0793 27.1526 70.1073 27.05 70.126C26.9473 70.154 26.8353 70.1727 26.714 70.182C26.5926 70.1913 26.476 70.196 26.364 70.196C26.2053 70.1867 26.0606 70.1587 25.93 70.112C25.7993 70.0747 25.6826 69.9953 25.58 69.874C25.4493 69.734 25.314 69.566 25.174 69.37C25.034 69.174 24.894 68.9687 24.754 68.754C24.6233 68.5393 24.4926 68.3293 24.362 68.124C24.2313 67.9093 24.1193 67.718 24.026 67.55C23.9046 67.354 23.802 67.2 23.718 67.088C23.6433 66.9667 23.494 66.8873 23.27 66.85L23.214 67.648C23.2046 67.7787 23.1813 67.9467 23.144 68.152C23.116 68.348 23.074 68.5533 23.018 68.768C22.962 68.9733 22.8966 69.1693 22.822 69.356C22.7473 69.5333 22.668 69.6687 22.584 69.762C22.5373 69.8087 22.4626 69.8647 22.36 69.93C22.2573 69.986 22.1453 70.028 22.024 70.056C21.912 70.0933 21.8046 70.112 21.702 70.112C21.6086 70.112 21.548 70.0793 21.52 70.014C21.5013 69.9673 21.5106 69.8973 21.548 69.804C21.5853 69.7013 21.618 69.6173 21.646 69.552C21.8046 69.1973 21.9073 68.7493 21.954 68.208C22.01 67.6667 22.0333 67.032 22.024 66.304L21.954 61.558ZM33.2597 63.476C33.2597 63.1867 33.2411 62.958 33.2037 62.79C33.1757 62.622 33.0964 62.4493 32.9657 62.272C32.9377 62.244 32.9191 62.202 32.9097 62.146C32.9097 62.0807 32.9144 62.0153 32.9237 61.95C32.9331 61.8847 32.9517 61.824 32.9797 61.768C33.0077 61.712 33.0404 61.67 33.0777 61.642C33.1524 61.6047 33.2644 61.6187 33.4137 61.684C33.5631 61.74 33.7124 61.8193 33.8617 61.922C34.0204 62.0153 34.1604 62.118 34.2817 62.23C34.4031 62.3327 34.4777 62.412 34.5057 62.468C34.5897 62.5707 34.6317 62.678 34.6317 62.79C34.5851 62.958 34.5571 63.1073 34.5477 63.238C34.5477 63.3593 34.5477 63.504 34.5477 63.672V63.994C34.7624 63.966 34.9724 63.938 35.1777 63.91C35.3831 63.8727 35.5931 63.8353 35.8077 63.798C35.8637 63.7887 35.9244 63.7887 35.9897 63.798C36.0644 63.8073 36.1344 63.826 36.1997 63.854C36.2651 63.8727 36.3211 63.9007 36.3677 63.938C36.4144 63.966 36.4377 63.994 36.4377 64.022C36.4377 64.0967 36.4144 64.1807 36.3677 64.274C36.3304 64.358 36.2744 64.442 36.1997 64.526C36.1344 64.6007 36.0597 64.666 35.9757 64.722C35.9011 64.778 35.8311 64.806 35.7657 64.806C35.4951 64.806 35.2337 64.82 34.9817 64.848L34.5477 64.89V66.738C34.5477 67.0647 34.5524 67.396 34.5617 67.732C34.5711 68.0587 34.6084 68.362 34.6737 68.642C34.7391 68.9127 34.8464 69.1367 34.9957 69.314C35.1451 69.482 35.3597 69.566 35.6397 69.566C35.7051 69.566 35.7751 69.5613 35.8497 69.552C35.9337 69.5427 36.0084 69.538 36.0737 69.538C36.1484 69.5287 36.2091 69.5333 36.2557 69.552C36.3117 69.5613 36.3397 69.5893 36.3397 69.636C36.3397 69.6733 36.3211 69.7247 36.2837 69.79C36.2557 69.8553 36.2044 69.9253 36.1297 70C36.0644 70.0653 35.9711 70.126 35.8497 70.182C35.7377 70.2473 35.6024 70.2893 35.4437 70.308C35.0891 70.3547 34.7484 70.3127 34.4217 70.182C34.1044 70.0513 33.8664 69.8693 33.7077 69.636C33.4837 69.3187 33.3531 68.936 33.3157 68.488C33.2784 68.04 33.2597 67.4753 33.2597 66.794V65.03C33.1291 65.0393 32.9984 65.044 32.8677 65.044C32.7371 65.044 32.5971 65.044 32.4477 65.044C32.3917 65.044 32.3171 65.03 32.2237 65.002C32.1397 64.974 32.0557 64.9367 31.9717 64.89C31.8877 64.834 31.8131 64.7733 31.7477 64.708C31.6917 64.6427 31.6637 64.5727 31.6637 64.498C31.6731 64.442 31.6917 64.386 31.7197 64.33C31.7571 64.2647 31.7897 64.2273 31.8177 64.218C31.9017 64.218 31.9904 64.218 32.0837 64.218C32.1771 64.2087 32.2704 64.1993 32.3637 64.19L33.2597 64.092V63.476ZM36.8669 67.116C36.8669 66.6773 36.9463 66.2573 37.1049 65.856C37.2729 65.4547 37.5063 65.1 37.8049 64.792C38.1036 64.484 38.4583 64.2413 38.8689 64.064C39.2796 63.8773 39.7323 63.784 40.2269 63.784C40.6376 63.784 41.0109 63.8727 41.3469 64.05C41.6923 64.2273 41.9863 64.4653 42.2289 64.764C42.4716 65.0627 42.6583 65.4033 42.7889 65.786C42.9289 66.1687 42.9989 66.5653 42.9989 66.976C42.9989 67.396 42.9196 67.816 42.7609 68.236C42.6116 68.6467 42.3969 69.0153 42.1169 69.342C41.8369 69.6593 41.5009 69.916 41.1089 70.112C40.7169 70.3173 40.2829 70.42 39.8069 70.42C39.3589 70.42 38.9529 70.336 38.5889 70.168C38.2249 70.0093 37.9123 69.7853 37.6509 69.496C37.3989 69.1973 37.2029 68.8473 37.0629 68.446C36.9323 68.0353 36.8669 67.592 36.8669 67.116ZM40.1989 64.988C39.8909 64.988 39.6063 65.0487 39.3449 65.17C39.0836 65.282 38.8549 65.4407 38.6589 65.646C38.4629 65.842 38.3089 66.0753 38.1969 66.346C38.0943 66.6073 38.0429 66.8827 38.0429 67.172C38.0429 67.4147 38.0849 67.6573 38.1689 67.9C38.2623 68.1333 38.3883 68.348 38.5469 68.544C38.7056 68.74 38.8969 68.8987 39.1209 69.02C39.3543 69.1413 39.6063 69.202 39.8769 69.202C40.1476 69.202 40.4043 69.1367 40.6469 69.006C40.8989 68.866 41.1136 68.6887 41.2909 68.474C41.4776 68.2593 41.6223 68.0167 41.7249 67.746C41.8369 67.466 41.8929 67.186 41.8929 66.906C41.8929 66.682 41.8509 66.458 41.7669 66.234C41.6923 66.01 41.5803 65.8047 41.4309 65.618C41.2909 65.4313 41.1136 65.282 40.8989 65.17C40.6936 65.0487 40.4603 64.988 40.1989 64.988ZM49.1054 63.476C49.1054 63.1867 49.0868 62.958 49.0494 62.79C49.0214 62.622 48.9421 62.4493 48.8114 62.272C48.7834 62.244 48.7648 62.202 48.7554 62.146C48.7554 62.0807 48.7601 62.0153 48.7694 61.95C48.7788 61.8847 48.7974 61.824 48.8254 61.768C48.8534 61.712 48.8861 61.67 48.9234 61.642C48.9981 61.6047 49.1101 61.6187 49.2594 61.684C49.4088 61.74 49.5581 61.8193 49.7074 61.922C49.8661 62.0153 50.0061 62.118 50.1274 62.23C50.2488 62.3327 50.3234 62.412 50.3514 62.468C50.4354 62.5707 50.4774 62.678 50.4774 62.79C50.4308 62.958 50.4028 63.1073 50.3934 63.238C50.3934 63.3593 50.3934 63.504 50.3934 63.672V63.994C50.6081 63.966 50.8181 63.938 51.0234 63.91C51.2288 63.8727 51.4388 63.8353 51.6534 63.798C51.7094 63.7887 51.7701 63.7887 51.8354 63.798C51.9101 63.8073 51.9801 63.826 52.0454 63.854C52.1108 63.8727 52.1668 63.9007 52.2134 63.938C52.2601 63.966 52.2834 63.994 52.2834 64.022C52.2834 64.0967 52.2601 64.1807 52.2134 64.274C52.1761 64.358 52.1201 64.442 52.0454 64.526C51.9801 64.6007 51.9054 64.666 51.8214 64.722C51.7468 64.778 51.6768 64.806 51.6114 64.806C51.3408 64.806 51.0794 64.82 50.8274 64.848L50.3934 64.89V66.738C50.3934 67.0647 50.3981 67.396 50.4074 67.732C50.4168 68.0587 50.4541 68.362 50.5194 68.642C50.5848 68.9127 50.6921 69.1367 50.8414 69.314C50.9908 69.482 51.2054 69.566 51.4854 69.566C51.5508 69.566 51.6208 69.5613 51.6954 69.552C51.7794 69.5427 51.8541 69.538 51.9194 69.538C51.9941 69.5287 52.0548 69.5333 52.1014 69.552C52.1574 69.5613 52.1854 69.5893 52.1854 69.636C52.1854 69.6733 52.1668 69.7247 52.1294 69.79C52.1014 69.8553 52.0501 69.9253 51.9754 70C51.9101 70.0653 51.8168 70.126 51.6954 70.182C51.5834 70.2473 51.4481 70.2893 51.2894 70.308C50.9348 70.3547 50.5941 70.3127 50.2674 70.182C49.9501 70.0513 49.7121 69.8693 49.5534 69.636C49.3294 69.3187 49.1988 68.936 49.1614 68.488C49.1241 68.04 49.1054 67.4753 49.1054 66.794V65.03C48.9748 65.0393 48.8441 65.044 48.7134 65.044C48.5828 65.044 48.4428 65.044 48.2934 65.044C48.2374 65.044 48.1628 65.03 48.0694 65.002C47.9854 64.974 47.9014 64.9367 47.8174 64.89C47.7334 64.834 47.6588 64.7733 47.5934 64.708C47.5374 64.6427 47.5094 64.5727 47.5094 64.498C47.5188 64.442 47.5374 64.386 47.5654 64.33C47.6028 64.2647 47.6354 64.2273 47.6634 64.218C47.7474 64.218 47.8361 64.218 47.9294 64.218C48.0228 64.2087 48.1161 64.1993 48.2094 64.19L49.1054 64.092V63.476ZM52.7126 67.116C52.7126 66.6773 52.792 66.2573 52.9506 65.856C53.1186 65.4547 53.352 65.1 53.6506 64.792C53.9493 64.484 54.304 64.2413 54.7146 64.064C55.1253 63.8773 55.578 63.784 56.0726 63.784C56.4833 63.784 56.8566 63.8727 57.1926 64.05C57.538 64.2273 57.832 64.4653 58.0746 64.764C58.3173 65.0627 58.504 65.4033 58.6346 65.786C58.7746 66.1687 58.8446 66.5653 58.8446 66.976C58.8446 67.396 58.7653 67.816 58.6066 68.236C58.4573 68.6467 58.2426 69.0153 57.9626 69.342C57.6826 69.6593 57.3466 69.916 56.9546 70.112C56.5626 70.3173 56.1286 70.42 55.6526 70.42C55.2046 70.42 54.7986 70.336 54.4346 70.168C54.0706 70.0093 53.758 69.7853 53.4966 69.496C53.2446 69.1973 53.0486 68.8473 52.9086 68.446C52.778 68.0353 52.7126 67.592 52.7126 67.116ZM56.0446 64.988C55.7366 64.988 55.452 65.0487 55.1906 65.17C54.9293 65.282 54.7006 65.4407 54.5046 65.646C54.3086 65.842 54.1546 66.0753 54.0426 66.346C53.94 66.6073 53.8886 66.8827 53.8886 67.172C53.8886 67.4147 53.9306 67.6573 54.0146 67.9C54.108 68.1333 54.234 68.348 54.3926 68.544C54.5513 68.74 54.7426 68.8987 54.9666 69.02C55.2 69.1413 55.452 69.202 55.7226 69.202C55.9933 69.202 56.25 69.1367 56.4926 69.006C56.7446 68.866 56.9593 68.6887 57.1366 68.474C57.3233 68.2593 57.468 68.0167 57.5706 67.746C57.6826 67.466 57.7386 67.186 57.7386 66.906C57.7386 66.682 57.6966 66.458 57.6126 66.234C57.538 66.01 57.426 65.8047 57.2766 65.618C57.1366 65.4313 56.9593 65.282 56.7446 65.17C56.5393 65.0487 56.306 64.988 56.0446 64.988ZM60.4319 64.568C60.3012 64.5867 60.1612 64.5913 60.0119 64.582C59.8719 64.5633 59.7412 64.5353 59.6199 64.498C59.5079 64.4513 59.4099 64.3953 59.3259 64.33C59.2512 64.2553 59.2092 64.176 59.1999 64.092C59.1999 64.036 59.2185 63.98 59.2559 63.924C59.3025 63.868 59.3539 63.8167 59.4099 63.77C59.4659 63.7233 59.5265 63.6813 59.5919 63.644C59.6572 63.5973 59.7085 63.5647 59.7459 63.546C59.8205 63.5087 59.9092 63.4713 60.0119 63.434C60.1239 63.3967 60.2359 63.3687 60.3479 63.35C60.4692 63.322 60.5812 63.3033 60.6839 63.294C60.7959 63.2753 60.8845 63.2707 60.9499 63.28C61.0245 63.2893 61.0992 63.3267 61.1739 63.392C61.2579 63.4573 61.3325 63.5367 61.3979 63.63C61.4725 63.714 61.5379 63.8027 61.5939 63.896C61.6499 63.9893 61.6919 64.0687 61.7199 64.134C61.9065 63.9847 62.1445 63.854 62.4339 63.742C62.7232 63.63 62.9892 63.574 63.2319 63.574C63.6985 63.574 64.1185 63.686 64.4919 63.91C64.8652 64.1247 65.1779 64.4093 65.4299 64.764C65.6912 65.1093 65.8825 65.506 66.0039 65.954C66.1345 66.3927 66.1952 66.836 66.1859 67.284C66.1672 67.7507 66.0692 68.1613 65.8919 68.516C65.7239 68.8707 65.5045 69.1693 65.2339 69.412C64.9725 69.6547 64.6832 69.8367 64.3659 69.958C64.0579 70.0793 63.7592 70.14 63.4699 70.14C63.3299 70.14 63.1805 70.1073 63.0219 70.042C62.8725 69.9767 62.7325 69.8973 62.6019 69.804C62.4805 69.7107 62.3825 69.608 62.3079 69.496C62.2425 69.384 62.2285 69.286 62.2659 69.202C62.2939 69.146 62.3452 69.118 62.4199 69.118C62.5039 69.118 62.6065 69.1227 62.7279 69.132C62.8492 69.132 62.9799 69.132 63.1199 69.132C63.2692 69.132 63.4185 69.1087 63.5679 69.062C63.7265 69.0247 63.8759 68.9453 64.0159 68.824C64.1652 68.7027 64.2959 68.5627 64.4079 68.404C64.5199 68.236 64.6085 68.054 64.6739 67.858C64.7485 67.662 64.7859 67.466 64.7859 67.27C64.7859 66.9247 64.7345 66.5933 64.6319 66.276C64.5385 65.9587 64.4125 65.6833 64.2539 65.45C64.0952 65.2073 63.9132 65.016 63.7079 64.876C63.5119 64.736 63.3112 64.666 63.1059 64.666C62.9099 64.666 62.6859 64.7173 62.4339 64.82C62.1912 64.9227 61.9765 65.0533 61.7899 65.212C61.7992 65.5013 61.8039 65.7767 61.8039 66.038C61.8132 66.29 61.8179 66.598 61.8179 66.962V70.154C61.8179 70.574 61.7899 71.0033 61.7339 71.442C61.6779 71.8807 61.5985 72.2913 61.4959 72.674C61.4025 73.066 61.2812 73.4067 61.1319 73.696C60.9919 73.9947 60.8332 74.2047 60.6559 74.326C60.6185 74.3447 60.5672 74.3447 60.5019 74.326C60.4459 74.3167 60.3852 74.2933 60.3199 74.256C60.2545 74.2187 60.1939 74.1673 60.1379 74.102C60.0912 74.0367 60.0632 73.962 60.0539 73.878C60.1099 73.7007 60.1612 73.4767 60.2079 73.206C60.2545 72.9447 60.2919 72.6553 60.3199 72.338C60.3572 72.03 60.3852 71.7033 60.4039 71.358C60.4225 71.0127 60.4319 70.672 60.4319 70.336V64.568Z" fill="#FDDA75"/>
<defs>
<radialGradient id="paint0_radial_807_4964" cx="0" cy="0" r="1" gradientUnits="userSpaceOnUse" gradientTransform="translate(34 20.3579) rotate(84.63) scale(57.3467)">
<stop stop-color="white"/>
<stop offset="0.74" stop-color="#E5E5E5"/>
<stop offset="1" stop-color="#999999"/>
</radialGradient>
</defs>
</svg>
