<svg width="31" height="5" viewBox="0 0 31 5" fill="none" xmlns="http://www.w3.org/2000/svg">
<path fill-rule="evenodd" clip-rule="evenodd" d="M24.6373 4.36537C23.209 4.54492 21.6462 4.74137 20.0485 4.74997C18.3853 4.75892 16.7473 4.74502 15.1257 4.73125C11.0581 4.69673 7.09355 4.66308 3.09332 4.99322C1.9925 5.08408 1.02645 4.26533 0.935597 3.1645C0.844744 2.06368 1.66349 1.09763 2.76432 1.00678C6.95804 0.66066 11.2028 0.696621 15.3387 0.731658C16.9204 0.745058 18.4861 0.758323 20.027 0.750029C21.3794 0.74275 22.7354 0.572877 24.2342 0.384574L24.2447 0.383254C25.7003 0.200377 27.2952 0 28.9288 0C30.0334 0 30.9288 0.89543 30.9288 2C30.9288 3.10457 30.0334 4 28.9288 4C27.5813 4 26.2272 4.16562 24.7328 4.35337L24.6373 4.36537Z" fill="#ECFF5F"/>
</svg>
