<svg width="31" height="5" viewBox="0 0 31 5" fill="none" xmlns="http://www.w3.org/2000/svg">
<path fill-rule="evenodd" clip-rule="evenodd" d="M26.6095 4.0201C26.1739 3.98518 25.7781 3.98159 25.1067 4.12548C24.8486 4.18079 24.2852 4.23337 23.8299 4.27585C23.3904 4.31684 22.8569 4.36392 22.3116 4.41203C22.1801 4.42362 22.048 4.43528 21.9163 4.44693C21.2329 4.50739 20.561 4.56766 20.0348 4.61996C19.7707 4.6462 19.5546 4.66934 19.3971 4.68854C19.3193 4.69803 19.2727 4.70468 19.2499 4.708C18.1097 5.00814 16.9121 4.99715 16.0617 4.98934C15.9088 4.98794 15.7672 4.98664 15.6391 4.98727C11.9752 5.00527 10.1507 5.00057 7.85098 4.99465C6.50503 4.99118 4.99632 4.9873 2.86084 4.9873C1.75627 4.9873 0.86084 4.09186 0.86084 2.9873C0.86084 1.88273 1.75627 0.987295 2.86084 0.987295C5.01802 0.987295 6.53191 0.991207 7.87786 0.994685C10.1655 1.0006 11.9681 1.00525 15.6194 0.987319C15.8414 0.986229 16.0463 0.986812 16.2372 0.987354C17.1053 0.989822 17.6846 0.99147 18.2627 0.831417C18.484 0.770139 18.7645 0.736009 18.9008 0.719425L18.913 0.717943C19.1144 0.693394 19.3649 0.666837 19.6392 0.639566C20.1901 0.584823 20.8826 0.522755 21.5639 0.462486C21.6984 0.450585 21.8325 0.438756 21.9651 0.427054C22.5096 0.379012 23.0299 0.33311 23.4583 0.293141C23.8053 0.260775 24.0297 0.237295 24.1534 0.224353C24.2518 0.214063 24.2865 0.210434 24.2685 0.214295C25.3808 -0.0241059 26.1732 -0.0277204 26.9292 0.0329009C27.1636 0.0516997 27.3626 0.0721188 27.5497 0.0913115C27.9612 0.133545 28.3149 0.169835 28.8608 0.169835C29.9654 0.169835 30.8608 1.06527 30.8608 2.16984C30.8608 3.2744 29.9654 4.16984 28.8608 4.16984C28.0947 4.16984 27.4426 4.10307 26.9807 4.05579C26.838 4.04119 26.7136 4.02845 26.6095 4.0201Z" fill="#ECFF5F"/>
</svg>
