<svg width="30" height="6" viewBox="0 0 30 6" fill="none" xmlns="http://www.w3.org/2000/svg">
<path fill-rule="evenodd" clip-rule="evenodd" d="M29.2335 0.425746C30.103 1.10697 30.2556 2.36408 29.5744 3.23356C28.834 4.17847 27.726 4.33416 27.311 4.38292C27.0603 4.41237 26.8163 4.42334 26.6602 4.43035L26.6312 4.43166C26.47 4.43899 26.4233 4.44269 26.4233 4.44269C26.4233 4.44269 26.4271 4.44192 26.4333 4.44087C24.1877 4.82303 21.8458 4.87282 19.6851 4.91876C18.7877 4.93783 17.9216 4.95625 17.1066 4.99753C12.1008 5.25107 7.14442 5.52834 2.18599 5.99142C1.0862 6.09413 0.111388 5.28584 0.00867734 4.18606C-0.0940334 3.08628 0.714254 2.11146 1.81404 2.00875C6.8634 1.53718 11.8924 1.25649 16.9043 1.00265C17.9759 0.948372 18.9813 0.927802 19.9493 0.908C21.9635 0.866791 23.8152 0.828906 25.7622 0.497569C25.9132 0.471861 26.0539 0.459296 26.1568 0.451884C26.2618 0.444327 26.3684 0.43948 26.4496 0.435788C26.594 0.429221 26.6933 0.424403 26.7769 0.417092C27.484 -0.130079 28.4976 -0.150835 29.2335 0.425746Z" fill="#ECFF5F"/>
</svg>
