<svg width="40" height="40" viewBox="0 0 40 40" fill="none" xmlns="http://www.w3.org/2000/svg">
<path d="M12.9262 7.31107C17.6421 7.31107 22.3579 7.04072 27.0738 6.5C31.3579 6.5 33.5 8.61726 33.5 12.8518C33.5 17.8225 33.2957 22.9137 32.887 28.1254C33.1737 31.3827 31.0317 33.1743 26.4608 33.5C22.6908 33.4577 18.3242 33.4153 13.3612 33.373C8.78707 33.8616 6.5 31.9886 6.5 27.7541C7.1591 22.9104 7.34365 17.9642 7.05364 12.9153C8.184 9.3127 10.1415 7.44463 12.9262 7.31107Z" stroke="white" stroke-width="3" stroke-linecap="round" stroke-linejoin="round"/>
<path d="M20.277 13.5037C21.6609 13.6247 24.9214 15.505 25.7192 16.5585C26.1182 17.1181 26.5368 18.6656 26.4974 19.4268C26.4383 20.1678 25.8325 22.2648 25.473 23.0512C25.1036 23.8124 24.0693 25.128 23.5079 25.5011C22.3701 26.2219 18.3758 26.8117 17.1692 26.3177C16.4353 26.0001 15.1006 24.6945 14.5884 23.8678C14.1402 23.1117 13.367 19.5226 13.5196 17.8944C13.6379 16.8559 14.3224 15.5251 15.0415 14.9202C16.3221 13.9121 19.4939 13.4533 20.277 13.5037Z" stroke="white" stroke-width="3" stroke-linecap="round" stroke-linejoin="round"/>
<path d="M28.3986 12.0757C28.1549 12.4412 27.302 12.6301 26.9243 12.3986C26.5588 12.1549 26.3699 11.302 26.6014 10.9243C26.8451 10.5588 27.698 10.3699 28.0757 10.6014C28.4412 10.8451 28.6301 11.698 28.3986 12.0757Z" fill="white" stroke="white" stroke-width="3" stroke-linecap="round" stroke-linejoin="round"/>
</svg>
