<svg width="129" height="40" viewBox="0 0 129 40" fill="none" xmlns="http://www.w3.org/2000/svg">
<path d="M43.6936 24.4935C43.4408 24.477 43.2202 24.3758 43.0319 24.1898C42.8436 24.0039 42.759 23.7645 42.778 23.4718L42.9366 21.037L40.1226 20.8537C39.8166 20.8338 39.5769 20.718 39.4036 20.5063C39.2437 20.2954 39.1723 20.0569 39.1897 19.7908C39.2079 19.5114 39.3099 19.2776 39.4959 19.0893C39.6952 18.9018 39.9478 18.8181 40.2538 18.838L43.0679 19.0212L43.1394 17.9236C42.0483 17.8525 41.283 17.6022 40.8433 17.1728C40.4036 16.7433 40.2189 15.9897 40.289 14.912L40.3917 13.3353C40.4619 12.2576 40.7428 11.5343 41.2345 11.1655C41.7262 10.7967 42.5175 10.6478 43.6086 10.7188L43.6761 9.68102L40.8621 9.49776C40.5694 9.4787 40.3426 9.3704 40.1818 9.17287C40.0218 8.96202 39.95 8.73021 39.9665 8.47741C39.9838 8.21131 40.0851 7.99075 40.2702 7.81574C40.4553 7.64073 40.6942 7.56276 40.9869 7.58182L43.8009 7.76508L43.8698 6.70732C43.8897 6.4013 44.0047 6.17496 44.2146 6.02829C44.4255 5.86832 44.6573 5.79657 44.9101 5.81303C45.1762 5.83036 45.3968 5.93158 45.5718 6.11667C45.761 6.28933 45.8456 6.52867 45.8256 6.83469L45.7568 7.89245L48.3513 8.06141C48.644 8.08047 48.8641 8.18834 49.0116 8.38501C49.1725 8.58254 49.2442 8.81436 49.2269 9.08047C49.2104 9.33326 49.1092 9.55382 48.9233 9.74213C48.7515 9.91801 48.5192 9.99641 48.2265 9.97735L45.632 9.80839L45.5644 10.8462C46.3893 10.8999 47.0273 11.055 47.4782 11.3115C47.93 11.5548 48.2238 11.9681 48.3595 12.5514C48.9046 11.7719 49.4089 10.9028 49.8721 9.94422C50.3496 8.9732 50.7238 8.04889 50.9947 7.17131C51.0971 6.83057 51.2923 6.60278 51.5803 6.48792C51.8817 6.37393 52.1824 6.37347 52.4823 6.48654C52.7956 6.60047 53.0039 6.78773 53.1072 7.04833C53.2113 7.29562 53.2135 7.56967 53.1137 7.87049C53.0007 8.17045 52.8801 8.48327 52.752 8.80897C52.6239 9.13467 52.4887 9.46658 52.3464 9.80472L55.2603 9.99447C56.3779 10.0673 57.1056 10.3819 57.4435 10.9383C57.7947 11.4957 57.7825 12.1964 57.4069 13.0404C57.2495 13.4043 57.0568 13.7993 56.8286 14.2253C56.6146 14.639 56.3922 15.0788 56.1615 15.5448C56.0235 15.8164 55.8243 16.0038 55.5637 16.1071C55.3039 16.1971 55.0241 16.1855 54.7241 16.0725C54.4242 15.9594 54.2226 15.7726 54.1193 15.512C54.0293 15.2523 54.0529 14.9932 54.1899 14.7349C54.312 14.5024 54.4574 14.2179 54.6263 13.8815C54.8094 13.5327 54.9544 13.2548 55.0614 13.048C55.2329 12.6717 55.2702 12.4069 55.1733 12.2536C55.0764 12.1003 54.835 12.0111 54.4491 11.986L51.3956 11.7871C51.1958 12.1883 50.976 12.5882 50.7362 12.9868C50.4974 13.3721 50.2531 13.737 50.0035 14.0815C49.8133 14.3363 49.5621 14.5004 49.25 14.5736C48.9388 14.6335 48.6486 14.5745 48.3796 14.3966L48.3121 15.4344C48.2419 16.5122 47.9609 17.2354 47.4693 17.6043C46.9909 17.974 46.1995 18.1228 45.0952 18.0509L45.0237 19.1486L47.5983 19.3163C47.9043 19.3362 48.1373 19.4516 48.2973 19.6624C48.4705 19.8741 48.5481 20.1197 48.5299 20.3991C48.5126 20.6652 48.4043 20.892 48.205 21.0794C48.019 21.2677 47.773 21.3519 47.467 21.332L44.8925 21.1643L44.7339 23.5992C44.7148 23.8919 44.5999 24.1182 44.389 24.2782C44.1915 24.439 43.9597 24.5108 43.6936 24.4935ZM48.0183 24.254C47.7259 24.4354 47.42 24.5157 47.1007 24.4949C46.7814 24.4741 46.5182 24.31 46.311 24.0025C46.1421 23.7243 46.1 23.4476 46.1847 23.1726C46.2686 22.9108 46.4354 22.7079 46.6853 22.5638C48.1288 21.7359 49.2425 20.6392 50.0262 19.274C50.8232 17.9095 51.2789 16.3492 51.3933 14.5929L51.4634 13.5152C51.4842 13.1959 51.6071 12.95 51.8321 12.7776C52.058 12.5919 52.3173 12.5085 52.61 12.5276C52.9027 12.5467 53.1424 12.6625 53.329 12.8751C53.5297 13.0752 53.6197 13.3349 53.5989 13.6542L53.5287 14.732C53.4161 16.4616 53.6744 18.0351 54.3036 19.4523C54.9337 20.8562 55.873 22.0264 57.1214 22.9628C57.3896 23.154 57.5607 23.399 57.6348 23.6977C57.7088 23.9965 57.6366 24.2858 57.4179 24.5655C57.1993 24.8452 56.9219 25.0008 56.5858 25.0324C56.2497 25.064 55.9418 24.9704 55.6621 24.7518C54.8256 24.0559 54.1152 23.2681 53.5312 22.3883C52.948 21.4952 52.4964 20.5305 52.1764 19.4942C51.7389 20.4678 51.1735 21.3529 50.4803 22.1495C49.8003 22.947 48.9797 23.6485 48.0183 24.254ZM43.2524 16.1872L43.3265 15.0496L42.2089 14.9769L42.205 15.0367C42.1764 15.4758 42.2305 15.7733 42.3673 15.9292C42.505 16.0718 42.8001 16.1578 43.2524 16.1872ZM45.2083 16.3146C45.674 16.3449 45.9777 16.2979 46.1194 16.1735C46.2753 16.0367 46.3675 15.7487 46.3961 15.3097L46.4 15.2498L45.2824 15.177L45.2083 16.3146ZM42.3038 13.52L43.4214 13.5927L43.4955 12.4551C43.0431 12.4257 42.739 12.4794 42.5831 12.6162C42.4281 12.7397 42.3363 13.021 42.3077 13.4601L42.3038 13.52ZM45.3773 13.7201L46.4949 13.7929L46.4988 13.733C46.5274 13.2939 46.4728 13.0031 46.3351 12.8605C46.2116 12.7055 45.917 12.6128 45.4513 12.5825L45.3773 13.7201Z" fill="white"/>
<path d="M66.4754 28.9017C66.2236 28.8741 66.0077 28.7633 65.8278 28.5692C65.6479 28.3751 65.5739 28.1322 65.6059 27.8406L65.8719 25.4152L63.0687 25.1078C62.7639 25.0744 62.5296 24.9481 62.3658 24.7289C62.2153 24.5112 62.1546 24.2698 62.1837 24.0047C62.2142 23.7264 62.3265 23.4973 62.5206 23.3174C62.7279 23.1389 62.984 23.0664 63.2889 23.0998L66.0921 23.4072L66.212 22.3138C65.1252 22.1946 64.3716 21.9108 63.9513 21.4623C63.531 21.0138 63.3798 20.2528 63.4975 19.1792L63.6697 17.6086C63.7874 16.535 64.1001 15.8249 64.6075 15.4781C65.115 15.1314 65.9122 15.0176 66.999 15.1368L67.1124 14.103L64.3092 13.7956C64.0176 13.7636 63.7958 13.6454 63.6439 13.441C63.4934 13.2233 63.4319 12.9885 63.4595 12.7367C63.4886 12.4716 63.5995 12.2557 63.7921 12.0891C63.9848 11.9224 64.2269 11.8551 64.5185 11.887L67.3217 12.1944L67.4372 11.1407C67.4706 10.8359 67.5955 10.6149 67.8117 10.4776C68.0294 10.3271 68.2642 10.2657 68.516 10.2933C68.7811 10.3224 68.997 10.4332 69.1636 10.6259C69.345 10.8067 69.4189 11.0495 69.3855 11.3544L69.27 12.4081L71.8545 12.6915C72.1461 12.7235 72.3612 12.8409 72.4999 13.0439C72.6519 13.2484 72.7133 13.4832 72.6842 13.7482C72.6566 14.0001 72.5458 14.2159 72.3517 14.3958C72.1723 14.5639 71.9368 14.632 71.6452 14.6L69.0607 14.3166L68.9473 15.3504C69.7691 15.4405 70.3995 15.6237 70.8387 15.8999C71.2793 16.1628 71.5545 16.5887 71.6644 17.1775C72.2434 16.4228 72.7855 15.5768 73.2907 14.6396C73.8106 13.6907 74.2252 12.7838 74.5347 11.919C74.652 11.5832 74.8571 11.3642 75.1499 11.2622C75.456 11.1616 75.7564 11.1744 76.0511 11.3006C76.359 11.4283 76.5588 11.6246 76.6505 11.8895C76.7436 12.1411 76.7337 12.415 76.6207 12.7111C76.4945 13.0058 76.3602 13.313 76.2179 13.6327C76.0755 13.9524 75.9258 14.2781 75.7687 14.6096L78.6713 14.9279C79.7847 15.05 80.4978 15.3964 80.8108 15.9673C81.137 16.5396 81.0938 17.239 80.6813 18.0657C80.508 18.4222 80.298 18.8083 80.0513 19.2239C79.8192 19.6277 79.5776 20.0572 79.3265 20.5126C79.1767 20.7778 78.9693 20.9563 78.7044 21.048C78.441 21.1264 78.1619 21.1025 77.8672 20.9763C77.5726 20.8501 77.3794 20.6545 77.2877 20.3896C77.2093 20.1262 77.2443 19.8684 77.3926 19.6164C77.5248 19.3895 77.6827 19.1117 77.8663 18.7831C78.0646 18.4427 78.2217 18.1715 78.3378 17.9696C78.5257 17.6013 78.5747 17.3384 78.4846 17.181C78.3946 17.0235 78.1574 16.9237 77.773 16.8816L74.7312 16.548C74.5139 16.94 74.2766 17.3298 74.0195 17.7174C73.7639 18.0918 73.5038 18.4456 73.2392 18.7787C73.0378 19.0249 72.7796 19.1776 72.4646 19.237C72.1511 19.2831 71.8638 19.2114 71.603 19.0218L71.4896 20.0556C71.3719 21.1292 71.0593 21.8393 70.5518 22.1861C70.0575 22.5343 69.2604 22.648 68.1603 22.5274L68.0404 23.6209L70.605 23.9021C70.9099 23.9355 71.1375 24.0611 71.288 24.2788C71.4518 24.4979 71.5184 24.7467 71.4879 25.025C71.4588 25.2901 71.3406 25.5119 71.1332 25.6903C70.9391 25.8702 70.6897 25.9435 70.3848 25.9101L67.8202 25.6288L67.5542 28.0543C67.5223 28.3459 67.3974 28.5669 67.1797 28.7174C66.9753 28.8694 66.7405 28.9308 66.4754 28.9017ZM70.8065 28.8536C70.5064 29.0218 70.1973 29.0885 69.8792 29.0537C69.5611 29.0188 69.3053 28.8432 69.112 28.5269C68.9555 28.2415 68.9257 27.9632 69.0225 27.6922C69.1178 27.4344 69.2935 27.239 69.5495 27.1061C71.0282 26.3428 72.1891 25.2964 73.0324 23.9671C73.8889 22.6392 74.4131 21.1005 74.605 19.351L74.7227 18.2774C74.7576 17.9593 74.8912 17.7191 75.1236 17.5568C75.3575 17.3813 75.6202 17.3095 75.9118 17.3415C76.2034 17.3734 76.4377 17.4997 76.6147 17.7203C76.8064 17.9291 76.8848 18.1926 76.8499 18.5107L76.7322 19.5843C76.5433 21.3073 76.7318 22.8906 77.2978 24.3342C77.8653 25.7646 78.7519 26.9751 79.9578 27.9658C80.2172 28.1686 80.3774 28.4209 80.4382 28.7227C80.499 29.0244 80.414 29.3102 80.1832 29.58C79.9524 29.8498 79.6684 29.993 79.3313 30.0097C78.9941 30.0264 78.6906 29.9193 78.4209 29.6885C77.6159 28.9564 76.941 28.138 76.3964 27.2332C75.8533 26.3152 75.4447 25.3315 75.1708 24.282C74.6907 25.2354 74.0868 26.0947 73.359 26.8599C72.6445 27.6266 71.7937 28.2911 70.8065 28.8536ZM66.4017 20.5841L66.5259 19.4509L65.4126 19.3288L65.4061 19.3885C65.3581 19.8259 65.399 20.1254 65.5288 20.2872C65.6601 20.4357 65.951 20.5347 66.4017 20.5841ZM68.35 20.7978C68.8139 20.8486 69.1193 20.8151 69.2664 20.6971C69.4282 20.5673 69.5331 20.2837 69.581 19.8463L69.5876 19.7867L68.4742 19.6646L68.35 20.7978ZM65.5717 17.8775L66.6851 17.9996L66.8093 16.8664C66.3587 16.817 66.0525 16.8572 65.8907 16.987C65.7304 17.1036 65.6262 17.3805 65.5783 17.8179L65.5717 17.8775ZM68.6334 18.2133L69.7467 18.3354L69.7533 18.2757C69.8012 17.8383 69.7596 17.5454 69.6283 17.3969C69.5118 17.2365 69.2215 17.1309 68.7577 17.0801L68.6334 18.2133Z" fill="white"/>
<path d="M90.6335 33.4881C89.5413 33.3102 88.6395 33.0822 87.9283 32.8042C87.2149 32.5394 86.6667 32.1731 86.2836 31.7054C85.9115 31.253 85.6836 30.662 85.5998 29.9324C85.516 29.2028 85.5631 28.2918 85.7411 27.1996L86.8828 20.192C87.0608 19.0997 87.3053 18.2209 87.6163 17.5556C87.9274 16.8903 88.3311 16.4022 88.8276 16.0913C89.3393 15.7694 89.9755 15.5961 90.736 15.5714C91.4987 15.5336 92.4261 15.6036 93.5184 15.7816L99.0653 16.6853C100.158 16.8633 101.053 17.0902 101.751 17.3661C102.464 17.6309 103.012 17.9971 103.395 18.4648C103.781 18.9194 104.009 19.5104 104.079 20.2379C104.163 20.9675 104.116 21.8784 103.938 22.9707L102.796 29.9783C102.618 31.0706 102.374 31.9494 102.063 32.6147C101.765 33.2821 101.361 33.7702 100.851 34.0789C100.34 34.4008 99.7036 34.5741 98.9431 34.5988C98.1935 34.6388 97.2727 34.5698 96.1804 34.3919L90.6335 33.4881ZM90.9391 31.6129L96.4859 32.5166C97.4597 32.6753 98.2227 32.7185 98.7748 32.6464C99.3291 32.561 99.7446 32.291 100.021 31.8363C100.298 31.3815 100.516 30.6672 100.674 29.6934L101.835 22.5674C101.994 21.5935 102.014 20.8471 101.896 20.328C101.778 19.8089 101.469 19.4276 100.968 19.1839C100.47 18.927 99.7336 18.7193 98.7597 18.5606L93.2129 17.6569C92.239 17.4982 91.4684 17.4605 90.901 17.5436C90.3489 17.6158 89.9345 17.8792 89.6577 18.334C89.381 18.7888 89.1633 19.503 89.0046 20.4769L87.8436 27.6029C87.6849 28.5767 87.6646 29.3232 87.7827 29.8423C87.9008 30.3613 88.2091 30.7493 88.7076 31.0061C89.2214 31.252 89.9652 31.4542 90.9391 31.6129ZM91.7715 30.8569C90.6792 30.6789 89.9372 30.3824 89.5455 29.9674C89.1691 29.5413 89.0549 28.8742 89.2029 27.9662L89.4634 26.3673C89.6092 25.4724 89.9282 24.8827 90.4203 24.5982C90.9257 24.3157 91.7244 24.2635 92.8167 24.4415L96.9028 25.1072C97.9951 25.2852 98.7426 25.5893 99.1453 26.0197C99.548 26.45 99.6764 27.1127 99.5306 28.0075L99.2701 29.6064C99.1222 30.5145 98.789 31.1086 98.2705 31.3889C97.7541 31.656 96.9498 31.7006 95.8576 31.5226L91.7715 30.8569ZM89.6134 23.3319C89.3897 23.2955 89.2239 23.1942 89.1158 23.028C89.0231 22.8507 88.9929 22.6634 89.025 22.466C89.0572 22.2686 89.1443 22.1072 89.2863 21.9817C89.4436 21.8453 89.6342 21.7953 89.8579 21.8317L94.1217 22.5264L94.2214 21.9145L92.9383 21.7054C92.1355 21.5746 91.5934 21.3782 91.3119 21.1162C91.0435 20.8563 90.9597 20.4171 91.0605 19.7986C91.1612 19.1801 91.3801 18.7902 91.7171 18.629C92.0672 18.4699 92.6437 18.4557 93.4464 18.5865L98.2037 19.3616C99.0064 19.4924 99.5486 19.6888 99.8301 19.9508C100.112 20.2128 100.202 20.6531 100.101 21.2716C100 21.8901 99.775 22.2789 99.4249 22.438C99.0747 22.5971 98.4983 22.6113 97.6955 22.4805L96.4125 22.2715L96.3128 22.8834L100.596 23.5813C100.82 23.6177 100.978 23.7246 101.071 23.9018C101.179 24.068 101.217 24.2498 101.185 24.4472C101.153 24.6446 101.058 24.8115 100.9 24.948C100.758 25.0734 100.576 25.118 100.352 25.0815L89.6134 23.3319ZM92.2009 29.5894L95.8527 30.1844C96.3265 30.2616 96.6738 30.2439 96.8948 30.1313C97.1311 30.0077 97.2846 29.7288 97.3554 29.2945L97.6159 27.6956C97.6845 27.2745 97.6253 26.9744 97.4383 26.7953C97.2667 26.6052 96.944 26.4716 96.4702 26.3944L92.8184 25.7994C92.3578 25.7244 92.0159 25.7497 91.7928 25.8755C91.585 25.9902 91.4467 26.2581 91.3781 26.6793L91.1176 28.2782C91.0469 28.7125 91.0907 29.0236 91.2493 29.2115C91.4231 29.3884 91.7403 29.5144 92.2009 29.5894ZM93.5905 29.2687C92.9983 29.1722 92.5922 29.0115 92.3722 28.7865C92.1675 28.5506 92.108 28.1694 92.1938 27.643C92.2817 27.1034 92.4591 26.7608 92.726 26.6152C93.006 26.4717 93.4422 26.4482 94.0343 26.5446L95.1398 26.7248C95.7188 26.8191 96.1118 26.9777 96.3186 27.2005C96.5386 27.4255 96.6047 27.8077 96.5168 28.3473C96.431 28.8737 96.2602 29.2174 96.0043 29.3783C95.7506 29.5261 95.3276 29.5518 94.7354 29.4553L93.5905 29.2687ZM93.4668 20.5757L97.5529 21.2414C97.7372 21.2715 97.8654 21.2721 97.9376 21.2433C98.023 21.2167 98.0797 21.1179 98.1075 20.9468C98.1354 20.7757 98.1131 20.664 98.0406 20.6117C97.9833 20.5483 97.8626 20.5016 97.6784 20.4716L93.5922 19.8059C93.4212 19.778 93.2919 19.7839 93.2043 19.8237C93.1189 19.8503 93.0623 19.9492 93.0344 20.1202C93.0066 20.2913 93.0289 20.403 93.1014 20.4554C93.1739 20.5077 93.2957 20.5478 93.4668 20.5757ZM94.097 28.3989L94.472 28.46C94.6826 28.4943 94.8317 28.4915 94.9192 28.4518C95.0089 28.3988 95.0676 28.2868 95.0955 28.1157C95.1255 27.9315 95.1053 27.8066 95.035 27.7411C94.9646 27.6756 94.8241 27.6257 94.6136 27.5914L94.2385 27.5303C94.0411 27.4981 93.8921 27.5009 93.7914 27.5385C93.7038 27.5783 93.6451 27.6903 93.615 27.8745C93.5872 28.0456 93.6073 28.1705 93.6756 28.2491C93.7591 28.3168 93.8996 28.3667 94.097 28.3989Z" fill="white"/>
<path d="M115.869 38.0356C115.579 37.9921 115.363 37.8585 115.221 37.635C115.077 37.4247 115.024 37.1943 115.062 36.9438C115.092 36.746 115.156 36.5871 115.255 36.4671C115.24 36.4783 115.219 36.4819 115.193 36.478C115.166 36.474 115.139 36.4767 115.11 36.4859C115.056 36.4912 114.837 36.5122 114.454 36.5491C114.071 36.586 113.613 36.6252 113.081 36.6667C112.547 36.7214 112.008 36.7685 111.462 36.808C110.915 36.8607 110.443 36.9045 110.047 36.9394C109.651 36.9743 109.412 36.9924 109.331 36.9937C108.978 37.0082 108.689 36.9175 108.462 36.7217C108.246 36.541 108.126 36.3073 108.102 36.0205C108.082 35.7073 108.161 35.4496 108.339 35.2472C108.518 35.0448 108.776 34.942 109.114 34.9387C109.197 34.9242 109.455 34.909 109.889 34.8933C110.325 34.8643 110.814 34.8366 111.358 34.8103L112.106 29.8261L110.207 29.5412C109.917 29.4976 109.706 29.3783 109.573 29.1831C109.443 28.9748 109.396 28.7453 109.434 28.4948C109.471 28.2443 109.582 28.0452 109.766 27.8975C109.95 27.7498 110.187 27.6978 110.477 27.7413L112.376 28.0263L112.601 26.5231L111.711 26.3895C111.434 26.348 111.223 26.2286 111.077 26.0315C110.947 25.8232 110.901 25.5937 110.938 25.3432L110.941 25.3234C110.724 25.4256 110.498 25.4457 110.265 25.3837C110.031 25.3217 109.837 25.1779 109.682 24.9525C109.538 24.7421 109.486 24.5051 109.526 24.2414C109.566 23.9777 109.692 23.7674 109.904 23.6105C110.264 23.3679 110.66 23.0633 111.093 22.6968C111.525 22.3303 111.952 21.9562 112.373 21.5745C112.795 21.1928 113.141 20.8605 113.413 20.5777C113.799 20.1637 114.228 19.9989 114.7 20.0833C115.186 20.1698 115.579 20.4309 115.877 20.8667C116.019 21.0902 116.193 21.3658 116.4 21.6935C116.607 22.0212 116.809 22.3413 117.004 22.6538C117.213 22.9683 117.385 23.2165 117.52 23.3985C117.553 23.444 117.591 23.5103 117.631 23.5973L117.667 23.3599C117.808 22.4238 118.086 21.8251 118.503 21.5641C118.933 21.305 119.622 21.2467 120.572 21.3892L123.143 21.7751C123.393 21.8127 123.573 21.9205 123.681 22.0986C123.802 22.2786 123.846 22.4806 123.812 22.7048C123.781 22.9158 123.679 23.0961 123.509 23.2457C123.353 23.3841 123.15 23.4346 122.899 23.397L122.207 23.2931L122.032 24.46C122.327 24.5583 122.54 24.7116 122.671 24.9199C122.817 25.1171 122.889 25.3976 122.888 25.7615C123.128 25.42 123.368 25.038 123.606 24.6154C123.86 24.1816 124.093 23.7514 124.306 23.3249C124.52 22.8852 124.691 22.5064 124.82 22.1886C124.945 21.8973 125.141 21.711 125.41 21.6299C125.68 21.5357 125.948 21.5489 126.213 21.6696C126.491 21.7922 126.666 21.9735 126.738 22.2135C126.825 22.4423 126.815 22.6836 126.71 22.9374C126.62 23.18 126.507 23.4329 126.374 23.6959C126.255 23.9478 126.12 24.2174 125.969 24.5048L127.67 24.7601C127.973 24.8056 128.196 24.9402 128.337 25.1637C128.494 25.376 128.552 25.6206 128.51 25.8975C128.471 26.1612 128.344 26.3781 128.13 26.5482C127.929 26.7202 127.676 26.7835 127.373 26.738L124.881 26.3639C124.776 26.5235 124.673 26.6698 124.572 26.803C124.472 26.9362 124.378 27.0637 124.293 27.1857C124.123 27.4164 123.9 27.5582 123.622 27.6109C123.346 27.6504 123.087 27.5845 122.843 27.413C122.82 27.3827 122.79 27.358 122.753 27.3389C122.73 27.3085 122.708 27.2782 122.686 27.2479C122.575 27.6223 122.42 27.8956 122.219 28.0677C122.033 28.2285 121.777 28.3182 121.45 28.3366L121.272 29.5233L121.984 29.6302C122.235 29.6678 122.413 29.7822 122.519 29.9734C122.64 30.1534 122.684 30.3554 122.651 30.5796C122.619 30.7906 122.518 30.9709 122.347 31.1205C122.191 31.259 121.988 31.3094 121.738 31.2718L119.147 30.8829C118.197 30.7404 117.555 30.4823 117.22 30.1084C116.899 29.7365 116.807 29.0891 116.946 28.1661L117.474 24.6455C117.444 24.668 117.396 24.7148 117.332 24.786C117.104 24.9541 116.845 25.0163 116.555 24.9728C116.28 24.9181 116.065 24.7779 115.911 24.5525C115.778 24.3573 115.61 24.0827 115.407 23.7286C115.204 23.3746 115.044 23.0944 114.927 22.888C114.634 22.4126 114.296 22.3753 113.912 22.7762C113.671 23.0366 113.371 23.3286 113.012 23.6523C112.669 23.9648 112.319 24.2696 111.965 24.567L115.901 25.1577C116.178 25.1992 116.381 25.3242 116.512 25.5325C116.657 25.7297 116.711 25.9535 116.674 26.204C116.636 26.4546 116.518 26.6593 116.319 26.8181C116.135 26.9658 115.904 27.0189 115.628 26.9773L114.619 26.8259L114.393 28.3291L115.679 28.522C115.956 28.5636 116.16 28.6819 116.293 28.8771C116.425 29.0723 116.473 29.2951 116.435 29.5456C116.398 29.7962 116.286 30.0019 116.1 30.1627C115.916 30.3104 115.686 30.3634 115.409 30.3219L114.123 30.1289L113.645 33.3133C113.67 33.2361 113.702 33.16 113.74 33.0848C113.815 32.9477 113.915 32.774 114.041 32.5637C114.169 32.3402 114.296 32.1233 114.422 31.913C114.55 31.6895 114.644 31.5082 114.705 31.3691C114.824 31.1173 115.003 30.9554 115.243 30.8836C115.497 30.8137 115.742 30.8437 115.978 30.9736C116.215 31.1035 116.364 31.2809 116.424 31.5057C116.487 31.7173 116.446 31.9471 116.301 32.195C116.226 32.3321 116.125 32.5124 115.997 32.7359C115.871 32.9462 115.737 33.1621 115.596 33.3836C115.47 33.5939 115.364 33.7667 115.276 33.9018C115.152 34.0989 114.963 34.2324 114.71 34.3023C114.472 34.3609 114.248 34.3273 114.038 34.2014C113.739 34.0352 113.601 33.7853 113.624 33.4517L113.44 34.678C113.835 34.6562 114.168 34.6388 114.439 34.6256C114.726 34.6013 114.91 34.5884 114.991 34.5871C115.265 34.5608 115.497 34.6293 115.688 34.7929C115.879 34.9564 115.984 35.1608 116.001 35.406C116.038 35.6948 115.968 35.9404 115.789 36.1428C115.914 36.121 116.035 36.1191 116.154 36.1369L116.47 36.1844L116.829 33.7912C116.958 32.9341 117.233 32.3619 117.653 32.0744C118.087 31.789 118.779 31.7175 119.728 31.86L124.02 32.5042C124.996 32.6506 125.636 32.922 125.941 33.3182C126.245 33.7145 126.333 34.3412 126.204 35.1982L125.845 37.5914L126.102 37.63C126.406 37.6755 126.623 37.8025 126.753 38.0108C126.897 38.2211 126.949 38.4581 126.909 38.7219C126.872 38.9724 126.753 39.1771 126.554 39.336C126.366 39.51 126.121 39.5743 125.817 39.5287L115.869 38.0356ZM123.793 30.6499C123.49 30.6044 123.26 30.4755 123.103 30.2632C122.961 30.0397 122.91 29.796 122.949 29.5323C122.991 29.2554 123.111 29.0375 123.31 28.8787C123.525 28.7086 123.783 28.6463 124.087 28.6918L126.856 29.1074C127.159 29.1529 127.381 29.2874 127.523 29.511C127.68 29.7233 127.738 29.9679 127.696 30.2448C127.657 30.5085 127.53 30.7254 127.315 30.8955C127.116 31.0543 126.865 31.111 126.562 31.0655L123.793 30.6499ZM110.741 34.0705C110.478 34.112 110.242 34.0698 110.032 33.9439C109.836 33.8067 109.724 33.6146 109.693 33.3673C109.678 33.2031 109.643 32.9823 109.591 32.7047C109.551 32.4291 109.504 32.1591 109.449 31.8948C109.41 31.6192 109.374 31.4049 109.343 31.252C109.287 31.0008 109.333 30.7852 109.481 30.6052C109.631 30.412 109.83 30.3003 110.077 30.27C110.353 30.2305 110.588 30.2793 110.783 30.4164C110.981 30.5404 111.107 30.728 111.164 30.9792C111.195 31.1321 111.23 31.3464 111.27 31.622C111.325 31.8864 111.372 32.1563 111.411 32.4319C111.453 32.6943 111.481 32.9076 111.497 33.0718C111.526 33.3322 111.472 33.5534 111.337 33.7353C111.215 33.9193 111.016 34.031 110.741 34.0705ZM123.096 37.1788L124.085 37.3272L124.373 35.4087C124.43 35.0263 124.402 34.7659 124.288 34.6274C124.189 34.4778 123.935 34.3723 123.527 34.3109L123.096 37.1788ZM118.25 36.4515L119.2 36.594L119.63 33.7261C119.246 33.6819 118.979 33.7093 118.829 33.8082C118.693 33.909 118.596 34.1506 118.538 34.533L118.25 36.4515ZM120.703 36.8196L121.613 36.9562L122.043 34.0883L121.133 33.9517L120.703 36.8196ZM119.014 26.5148L120.457 26.7315C120.668 26.7631 120.818 26.7519 120.907 26.6979C120.996 26.6438 121.057 26.5113 121.088 26.3003C121.122 26.0762 121.104 25.9252 121.035 25.8474C120.966 25.7696 120.826 25.7149 120.615 25.6832L119.171 25.4665L119.014 26.5148ZM119.65 29.2799L119.822 28.1327L118.794 27.9784L118.767 28.1564C118.706 28.5651 118.732 28.8387 118.846 28.9772C118.974 29.1176 119.242 29.2185 119.65 29.2799ZM119.388 24.0227L120.416 24.177L120.585 23.0497C120.177 22.9883 119.891 23.0061 119.728 23.103C119.578 23.2019 119.472 23.4623 119.408 23.8842L119.388 24.0227Z" fill="white"/>
<path fill-rule="evenodd" clip-rule="evenodd" d="M15.5149 0.151221C15.2978 0.0504939 15.0496 0.0423741 14.8247 0.128642C14.5998 0.214909 14.4166 0.388524 14.3152 0.611425L7.14219 16.4352C7.04143 16.6587 7.03108 16.913 7.11339 17.1423C7.19571 17.3715 7.36397 17.557 7.58122 17.6581L18.3342 22.6674C18.5516 22.7681 18.8001 22.776 19.0251 22.6893C19.2501 22.6027 19.4333 22.4286 19.5343 22.2053L26.7107 6.38399C26.7609 6.27326 26.7893 6.15373 26.7945 6.03223C26.7996 5.91074 26.7812 5.78965 26.7405 5.67591C26.6997 5.56216 26.6374 5.45799 26.557 5.36934C26.4766 5.28069 26.3798 5.2093 26.272 5.15926L15.5149 0.151221ZM5.00875 15.4402L9.91507 4.61919L0.836822 5.53026C0.71843 5.54202 0.603217 5.57751 0.497771 5.63471C0.392325 5.6919 0.298714 5.76968 0.222291 5.86359C0.145868 5.95751 0.0881311 6.06571 0.0523827 6.18202C0.0166343 6.29834 0.00357528 6.42047 0.0139522 6.54145L1.5016 23.8292C1.52237 24.0732 1.63703 24.2977 1.82039 24.4534C2.00376 24.6092 2.24084 24.6835 2.47956 24.66L14.2994 23.4714L14.3443 23.4653L6.58364 19.8528C6.19554 19.672 5.84688 19.4143 5.55759 19.0946C5.2683 18.7748 5.04405 18.3992 4.89765 17.9892C4.75125 17.5792 4.68557 17.1429 4.70437 16.7051C4.72317 16.2674 4.82608 15.8368 5.00722 15.438L5.00875 15.4402Z" fill="white"/>
</svg>
