<svg width="175" height="38" viewBox="0 0 175 38" fill="none" xmlns="http://www.w3.org/2000/svg">
<path d="M8.5223 7.32231C8.5223 8.87551 7.26475 10.3118 7.6923 10.8183C8.11986 11.3248 11.1068 10.1191 12.3428 10.1191C14.7963 10.1191 15.1033 9.55968 17.5447 9.31593C20.3137 9.03947 20.8055 9.51703 23.581 9.31593C25.0173 9.21186 27.8062 9.78898 28.0424 9.31593C28.5198 8.35989 27.9105 7.49921 29.2514 6.08896C30.4202 4.85976 30.7753 4.00434 31.8666 4.26256C33.4545 4.63833 32.5305 6.73553 32.686 8.35989C33.0831 12.506 30.9105 18.8764 30.9105 18.8764C30.9105 18.8764 29.4566 26.7204 25.9937 29.9392C24.0506 31.7453 22.2168 32.5573 20.1209 33.3536C18.0249 34.1499 15.0699 33.7294 11.1068 32.991C8.5223 32.5095 5.94603 31.0598 3.94481 29.3986C3.94481 29.3986 1 26.5543 1 23.1407V17.81C1 14.3964 1.04154 10.0604 3.36855 8.35989C4.78838 7.32231 6.00919 5.0375 7.6923 5.49176C8.56739 5.72794 8.5223 6.627 8.5223 7.32231Z" fill="white" stroke="#2A2A2A" stroke-width="2"/>
<path d="M10.5476 16.1495C10.5476 16.6546 10.3817 17.552 9.24344 17.552C8.71307 17.552 8.17786 16.9673 8.17786 16.4622C8.17786 15.9571 9.0569 15.2349 9.58727 15.2349C10.1176 15.2349 10.5476 15.6443 10.5476 16.1495Z" fill="#2A2A2A"/>
<path d="M26.317 14.8716C26.317 15.3767 25.7791 15.9778 25.2487 15.9778C24.7183 15.9778 24.2343 15.3767 24.2343 14.8716C24.2343 14.3665 24.7183 13.957 25.2487 13.957C25.7791 13.957 26.317 14.3665 26.317 14.8716Z" fill="#2A2A2A"/>
<path d="M15.8948 18.9686C15.8948 18.9686 16.2122 18.1598 16.5133 17.3419C16.7898 16.5908 17.0152 15.9033 17.6783 15.9033C18.1496 15.9033 18.44 16.6947 18.7011 17.4894C18.8977 18.0877 19.1273 18.7457 19.1273 18.7457" stroke="#2A2A2A" stroke-width="1.5" stroke-linecap="round"/>
<path d="M44.867 12.1601C48.2165 10.8716 49.1154 10.5931 51.7143 9.52605" stroke="white" stroke-width="2" stroke-linecap="round"/>
<path d="M45.5195 14.4172C45.2918 15.8279 45.5213 20.4383 45.8508 22.3201" stroke="white" stroke-width="2" stroke-linecap="round"/>
<path d="M45.3782 16.0515C46.2313 15.5409 51.5657 12.566 52.4679 14.4998C53.0189 15.6807 52.3705 20.3058 51.4137 20.8461" stroke="white" stroke-width="2" stroke-linecap="round"/>
<path d="M46.6207 18.2265C48.4301 17.3801 49.7871 16.8088 51.1442 16.8088" stroke="white" stroke-width="2" stroke-linecap="round"/>
<path d="M45.8447 22.3188C48.1271 21.1898 49.9283 20.4222 51.5114 19.8579" stroke="white" stroke-width="2" stroke-linecap="round"/>
<path d="M49.4777 7.91609C49.206 15.2087 48.5611 23.1914 48.2092 30.4788" stroke="white" stroke-width="2" stroke-linecap="round"/>
<path d="M43.8886 28.3396C47.8016 25.3291 50.4103 23.4476 52.6929 22.3186" stroke="white" stroke-width="2" stroke-linecap="round"/>
<path d="M58.6557 8.02946C58.6562 10.1178 57.9682 13.3531 57.255 14.7942" stroke="white" stroke-width="2" stroke-linecap="round"/>
<path d="M57.5806 14.4179C59.4968 13.5396 62.7982 8.77339 63.7765 9.52604C64.7548 10.2787 62.4721 14.418 61.8199 15.5469" stroke="white" stroke-width="2" stroke-linecap="round"/>
<path d="M58.5604 18.1799C58.2547 21.0017 57.9618 22.079 56.277 25.706C56.1643 25.9486 55.6245 27.2112 55.2983 27.2112" stroke="white" stroke-width="2" stroke-linecap="round"/>
<path d="M58.8846 21.1901C63.4487 23.8242 70.2949 28.3398 72.2509 28.3397" stroke="white" stroke-width="2" stroke-linecap="round"/>
<path d="M84.7817 8.0667C84.7837 8.92825 84.5102 10.3636 83.9596 11.7983" stroke="white" stroke-width="2" stroke-linecap="round"/>
<path d="M83.9598 11.7971C85.3238 10.6498 87.5062 8.92873 88.8702 8.06831" stroke="white" stroke-width="2" stroke-linecap="round"/>
<path d="M87.463 9.50092C88.0086 10.0749 88.5542 10.6489 89.0998 11.2229" stroke="white" stroke-width="2" stroke-linecap="round"/>
<path d="M92.5156 5.52087C92.5156 7.64651 92.5156 7.23911 92.5156 10.1973" stroke="white" stroke-width="2" stroke-linecap="round"/>
<path d="M93.6843 7.94357C95.1981 7.48197 97.277 6.62121 98.4515 5.83202" stroke="white" stroke-width="2" stroke-linecap="round"/>
<path d="M96.8636 7.72559C97.6821 8.29958 98.5488 9.16312 99.0944 9.73712" stroke="white" stroke-width="2" stroke-linecap="round"/>
<path d="M87.1474 15.7452C87.1474 18.8254 86.8868 26.1531 85.5518 29.49" stroke="white" stroke-width="2" stroke-linecap="round"/>
<path d="M87.1847 16.9013C89.1087 16.0017 90.0078 15.2943 90.1898 17.9101C90.3295 19.9187 90.6638 29.3596 89.0568 28.4831C88.5071 28.1832 88.677 27.3596 87.782 26.4715" stroke="white" stroke-width="2" stroke-linecap="round"/>
<path d="M86.8262 20.77C87.585 20.9896 89.1477 19.4646 89.6984 19.7651" stroke="white" stroke-width="2" stroke-linecap="round"/>
<path d="M86.913 24.9577C87.7318 24.609 89.7456 22.2919 90.6518 22.1108" stroke="white" stroke-width="2" stroke-linecap="round"/>
<path d="M95.7473 20.5628C96.066 20.5628 96.3846 20.7712 97.0219 20.436C99.0928 18.7923 101.37 16.7199 102.466 17.4384C103.683 18.2364 102.048 25.2381 100.846 25.8001C100.498 25.9628 99.7205 25.2491 99.2525 24.1238" stroke="white" stroke-width="2" stroke-linecap="round"/>
<path d="M99.0749 12.7032C98.5435 18.0912 98.1574 25.3869 96.6205 30.4961" stroke="white" stroke-width="2" stroke-linecap="round"/>
<path d="M116.453 13.7761C116.301 15.8061 115.964 16.5699 115.811 18.2917" stroke="white" stroke-width="2" stroke-linecap="round"/>
<path d="M116.185 16.4299C121.852 13.7686 128.062 11.8559 127.52 11.443" stroke="white" stroke-width="2" stroke-linecap="round"/>
<path d="M119.216 22.3674C122.724 21.889 124.675 20.7677 126.625 19.6464" stroke="white" stroke-width="2" stroke-linecap="round"/>
<path d="M123.321 6.38868C123.075 13.5883 122.977 20.7367 122.342 27.9135" stroke="white" stroke-width="2" stroke-linecap="round"/>
<path d="M116.16 30.2326C123.887 28.4846 134.074 25.8675 138.638 25.8524" stroke="white" stroke-width="2" stroke-linecap="round"/>
<path d="M149.202 12.7475C148.951 14.3582 148.705 15.1707 147.894 18.3921" stroke="white" stroke-width="2" stroke-linecap="round"/>
<path d="M148.722 16.0707C150.955 14.911 153.718 13.6599 155.393 12.3713" stroke="white" stroke-width="2" stroke-linecap="round"/>
<path d="M147.395 23.874C151.145 22.1307 154.867 19.8897 157.246 18.3318" stroke="white" stroke-width="2" stroke-linecap="round"/>
<path d="M153.267 6.00647C152.842 12.463 152.132 22.9074 151.48 29.3043" stroke="white" stroke-width="2" stroke-linecap="round"/>
<path d="M160.377 7.34833C160.377 9.60617 160.178 13.1532 159.706 15.7582" stroke="white" stroke-width="2" stroke-linecap="round"/>
<path d="M159.796 15.3998C165.747 12.0451 171.046 10.5839 172.114 11.7096C175.618 15.3998 172.947 26.4704 170.87 27.1413C169.973 27.4312 167.171 25.1659 167.171 25.1659" stroke="white" stroke-width="2" stroke-linecap="round"/>
<path d="M163.873 15.0643C163.371 17.5123 163.209 20.0644 161.579 23.4512" stroke="white" stroke-width="2" stroke-linecap="round"/>
<path d="M168.802 14.6288C168.802 16.7489 167.682 22.5354 165.216 27.047C164.804 27.7996 164.563 28.1759 164.237 28.5522" stroke="white" stroke-width="2" stroke-linecap="round"/>
</svg>
