<svg id="圖層_1" data-name="圖層 1" xmlns="http://www.w3.org/2000/svg" viewBox="0 0 168.86 130.16"><defs><style>.cls-1{fill:#fff;}</style></defs><title>軟筋頭6</title><path d="M709.86,369.69c2.09,0,4.48.42,6.66-.08,7.34-1.65,14.59-3.73,21.91-5.45,3.88-.9,7.86-1.3,11.77-2.08,4.34-.86,8.64-1.94,13-2.85,1.58-.34,3.21-.47,4.63-.67-.26-2.59-.68-5.08-.71-7.57,0-3.54,1.69-5.5,5.12-6.34a13,13,0,0,1,12,2.54c7.32,6.14,14.32,12.54,18.36,21.56,1.2,2.67,3.34,4.95,5.24,7.26,5.36,6.51,6.84,14.5,8.76,22.35.68,2.81,1.3,5.65,2.15,8.41,3.29,10.71,1.71,21.32-.08,32.05A28.66,28.66,0,0,1,806,458.55a4.62,4.62,0,0,0-1,.89c-4.64,6-11.33,8.93-18.06,11.69a28.38,28.38,0,0,1-7.34,1.81c-4.68.58-9.41.74-14.1,1.25-6.3.7-12.15-1.59-18.21-2.4-7.66-1-15.53-.57-23.31-.68-2,0-4,.37-5.94.34-5.79-.1-11.58-.28-17.36-.49-17.1-.61-31.53-6.78-42.57-20.26-3.48-4.24-4.46-9.23-5.36-14.33-2.11-12-.38-23.23,5.94-33.84,2.72-4.57,4.36-9.77,6.54-14.66a80,80,0,0,1,28.65-34.17,13,13,0,0,1,10.66-1.93,7.72,7.72,0,0,1,6.26,8.08C710.65,362.9,710.21,365.93,709.86,369.69Zm67-16.46-.57.55a15.55,15.55,0,0,0,1.05,2.31c4.65,7,1.92,10-5.77,11.29l-.27,0c-8.74,1.41-17.55,2.53-26.22,4.32-8.89,1.84-17.64,4.32-26.44,6.55a21.71,21.71,0,0,1-14.13-1.3c-5-2.11-6.94-8.21-4.28-11.92.83-1.15.9-2.83,1.32-4.27-1.39.39-3,.44-4.14,1.23a70.83,70.83,0,0,0-24.24,29.5c-2.75,6.13-5.26,12.4-8.43,18.3-5.65,10.51-4.55,21.21-1.77,32.08a5.17,5.17,0,0,0,.85,1.69c6,7.93,13.46,14,23.12,16.39,9.45,2.35,19.15,3.28,28.89,1.17a20.15,20.15,0,0,1,5.15-.31c6.22.28,12.46.48,18.66,1.09,4.84.47,9.61,1.56,14.43,2.3a60.19,60.19,0,0,0,9.12,1.09c3.8,0,7.6-.86,11.4-.89a26.81,26.81,0,0,0,14-3.86c2.91-1.76,5.66-3.8,8.39-5.82,1.6-1.19,3-2.68,4.55-3.89,4.25-3.24,7.54-7,8.16-12.64.35-3.16,1.33-6.24,1.69-9.39.8-7.07.93-14.11-1.49-21a69.82,69.82,0,0,1-1.93-7.63c-1.68-7.26-3.21-14.56-8.24-20.51a30.73,30.73,0,0,1-4.91-6.81c-3.31-7.39-9-12.68-14.89-17.81A20.29,20.29,0,0,0,776.88,353.23Z" transform="translate(-651.83 -344.16)"/><path class="cls-1" d="M776.88,353.23a20.29,20.29,0,0,1,3,1.85c5.91,5.13,11.58,10.42,14.89,17.81a30.73,30.73,0,0,0,4.91,6.81c5,5.95,6.56,13.25,8.24,20.51a69.82,69.82,0,0,0,1.93,7.63c2.42,6.89,2.29,13.93,1.49,21-.36,3.15-1.34,6.23-1.69,9.39-.62,5.63-3.91,9.4-8.16,12.64-1.58,1.21-2.95,2.7-4.55,3.89-2.73,2-5.48,4.06-8.39,5.82a26.81,26.81,0,0,1-14,3.86c-3.8,0-7.6.87-11.4.89a60.19,60.19,0,0,1-9.12-1.09c-4.82-.74-9.59-1.83-14.43-2.3-6.2-.61-12.44-.81-18.66-1.09a20.15,20.15,0,0,0-5.15.31c-9.74,2.11-19.44,1.18-28.89-1.17-9.66-2.4-17.16-8.46-23.12-16.39a5.17,5.17,0,0,1-.85-1.69c-2.78-10.87-3.88-21.57,1.77-32.08,3.17-5.9,5.68-12.17,8.43-18.3A70.83,70.83,0,0,1,697.43,362c1.12-.79,2.75-.84,4.14-1.23-.42,1.44-.49,3.12-1.32,4.27-2.66,3.71-.68,9.81,4.28,11.92a21.71,21.71,0,0,0,14.13,1.3c8.8-2.23,17.55-4.71,26.44-6.55,8.67-1.79,17.48-2.91,26.22-4.32l.27,0c7.69-1.3,10.42-4.34,5.77-11.29a15.55,15.55,0,0,1-1.05-2.31ZM741.69,403l1.25.92c2.47,1.73,4.8,1.81,6.42.21s1.56-3.81-.22-6.39c-1.18-1.71-2.27-3.48-3.34-5.26-1.3-2.16-3-3.7-5.67-3.54a5.9,5.9,0,0,0-5.3,4.08,60.26,60.26,0,0,0-2.18,7.27c-.91,3.72.34,6.6,3.07,7.46S740,407.34,741.69,403ZM702.1,393a4.45,4.45,0,0,0-4.42,4.56,4.78,4.78,0,0,0,4.7,4.68,4.22,4.22,0,0,0,4.22-4.39A4.71,4.71,0,0,0,702.1,393Zm73.57-5.09a4,4,0,0,0-4-4,4.3,4.3,0,0,0-4.35,4,4,4,0,0,0,4.08,4.15A4.28,4.28,0,0,0,775.67,387.87Z" transform="translate(-651.83 -344.16)"/><path d="M741.69,403c-1.68,4.33-3.32,5.58-6,4.75s-4-3.74-3.07-7.46a60.26,60.26,0,0,1,2.18-7.27,5.9,5.9,0,0,1,5.3-4.08c2.67-.16,4.37,1.38,5.67,3.54,1.07,1.78,2.16,3.55,3.34,5.26,1.78,2.58,1.89,4.75.22,6.39s-4,1.52-6.42-.21Z" transform="translate(-651.83 -344.16)"/><path d="M702.1,393a4.71,4.71,0,0,1,4.5,4.85,4.22,4.22,0,0,1-4.22,4.39,4.78,4.78,0,0,1-4.7-4.68A4.45,4.45,0,0,1,702.1,393Z" transform="translate(-651.83 -344.16)"/><path d="M775.67,387.87a4.28,4.28,0,0,1-4.23,4.14,4,4,0,0,1-4.08-4.15,4.3,4.3,0,0,1,4.35-4A4,4,0,0,1,775.67,387.87Z" transform="translate(-651.83 -344.16)"/></svg>