<svg id="圖層_1" data-name="圖層 1" xmlns="http://www.w3.org/2000/svg" viewBox="0 0 157.15 136.36"><defs><style>.cls-1{fill:#fff;}</style></defs><title>軟筋頭4</title><path d="M724.91,365.56a6.7,6.7,0,0,0,1.19.33c12.07-.86,23.82,2.21,35.75,2.9,10.2.58,20.46.12,30.53.12a38.92,38.92,0,0,1,.08-6.18c.27-1.7.79-3.92,2-4.82a36.15,36.15,0,0,1,9.17-5c2.7-1,5.16.56,6.45,3.67,1.41,3.42,2.94,7,3.29,10.6,1.29,13.28,2.82,26.61,2.91,39.92a97.7,97.7,0,0,1-9.91,44.55c-3.18,6.4-8.56,10.29-15.38,12.43-5.52,1.73-10.88,4-16.4,5.7-2.91.91-6.08,1-9,1.84s-5.42,2.43-8.19,3.5a18.85,18.85,0,0,1-5.94,1.65q-19.87.6-39.77.83a62.72,62.72,0,0,1-22.12-4c-2.21-.81-4.53-1.33-6.74-2.16-14-5.24-24.83-17-23.6-33,.73-9.49,3.06-18.76,8.74-26.87,10.42-14.9,19.84-30.39,27.3-47.05a39.71,39.71,0,0,1,18.44-19.75c4-2,8.75-2.85,13.27-3.54,3.71-.57,6.1,2.21,6.5,6a15.49,15.49,0,0,1-4,12.54C728,361.6,726.58,363.47,724.91,365.56Zm-.57-14-.45-.71c-2.2.66-4.61,1-6.57,2.07a34.11,34.11,0,0,0-14.42,16.21,260.32,260.32,0,0,1-21.72,38.69c-5.24,7.75-10.2,15.44-12.27,24.95C665.8,447,671.27,456,682.2,461.49a66.27,66.27,0,0,0,29.39,7.32c9.09.05,18.18.09,27.26,0,3.35,0,6.91.11,10-.94a205.88,205.88,0,0,1,26.09-7.41,65.71,65.71,0,0,0,15.81-5.69,19,19,0,0,0,7.46-6.82,46.61,46.61,0,0,0,5-12.35c3.2-12.25,5.52-24.64,3.93-37.43-.32-2.52-.21-5.09-.46-7.62-.84-8.49-1.73-17-2.72-25.44-.09-.71-1.1-1.3-1.69-1.94a12.26,12.26,0,0,0-.84,2.57,4.29,4.29,0,0,0,.59,1.79c2.47,6-.1,10.6-6.61,10.65-11.8.09-23.62-.17-35.41-.66-10.14-.43-20.07-3.35-30.32-2.84-3.72.19-7.45.43-11.16.35-4.28-.1-6.58-3.49-5.21-7.54a14.8,14.8,0,0,1,2.22-4c2.21-3,4.58-5.87,6.85-8.83C723.09,353.64,723.68,352.57,724.34,351.54Z" transform="translate(-659.14 -341.25)"/><path class="cls-1" d="M724.34,351.54c-.66,1-1.25,2.1-2,3.07-2.27,3-4.64,5.83-6.85,8.83a14.8,14.8,0,0,0-2.22,4c-1.37,4.05.93,7.44,5.21,7.54,3.71.08,7.44-.16,11.16-.35,10.25-.51,20.18,2.41,30.32,2.84,11.79.49,23.61.75,35.41.66,6.51,0,9.08-4.64,6.61-10.65a4.29,4.29,0,0,1-.59-1.79,12.26,12.26,0,0,1,.84-2.57c.59.64,1.6,1.23,1.69,1.94,1,8.47,1.88,16.95,2.72,25.44.25,2.53.14,5.1.46,7.62,1.59,12.79-.73,25.18-3.93,37.43a46.61,46.61,0,0,1-5,12.35,19,19,0,0,1-7.46,6.82,65.71,65.71,0,0,1-15.81,5.69,205.88,205.88,0,0,0-26.09,7.41c-3.09,1.05-6.65.9-10,.94-9.08.12-18.17.08-27.26,0a66.27,66.27,0,0,1-29.39-7.32C671.27,456,665.8,447,668.91,432.75c2.07-9.51,7-17.2,12.27-24.95a260.32,260.32,0,0,0,21.72-38.69,34.11,34.11,0,0,1,14.42-16.21c2-1.1,4.37-1.41,6.57-2.07Zm26.34,51.23c.41,1.26.65,2.12,1,3,1,2.59,3.15,3.93,5.46,3.38s3.59-2.65,3-5.55a38.75,38.75,0,0,0-1.71-6.27c-1.95-5.16-6.33-6.61-10.85-3.42A53.19,53.19,0,0,0,740.7,400c-2.21,2.22-2.3,5-.5,6.79s4.4,1.62,6.75-.54C748.13,405.17,749.28,404.08,750.68,402.77ZM789.86,398a5.07,5.07,0,0,0-4.88-4.84,4,4,0,0,0-4.21,4,5,5,0,0,0,4.86,4.83A4,4,0,0,0,789.86,398ZM715,399.11a4.11,4.11,0,0,0-4.28-4,4.34,4.34,0,0,0-4.25,4.39,4.13,4.13,0,0,0,4.28,4A4.36,4.36,0,0,0,715,399.11Z" transform="translate(-659.14 -341.25)"/><path d="M750.68,402.77c-1.4,1.31-2.55,2.4-3.73,3.48-2.35,2.16-4.94,2.36-6.75.54s-1.71-4.57.5-6.79a53.19,53.19,0,0,1,6.87-6.14c4.52-3.19,8.9-1.74,10.85,3.42a38.75,38.75,0,0,1,1.71,6.27c.56,2.9-.68,5-3,5.55s-4.49-.79-5.46-3.38C751.33,404.89,751.09,404,750.68,402.77Z" transform="translate(-659.14 -341.25)"/><path d="M789.86,398a4,4,0,0,1-4.23,4,5,5,0,0,1-4.86-4.83,4,4,0,0,1,4.21-4A5.07,5.07,0,0,1,789.86,398Z" transform="translate(-659.14 -341.25)"/><path d="M715,399.11a4.36,4.36,0,0,1-4.25,4.4,4.13,4.13,0,0,1-4.28-4,4.34,4.34,0,0,1,4.25-4.39A4.11,4.11,0,0,1,715,399.11Z" transform="translate(-659.14 -341.25)"/></svg>