<svg id="圖層_1" data-name="圖層 1" xmlns="http://www.w3.org/2000/svg" viewBox="0 0 143.38 139.46"><defs><style>.cls-1{fill:#fff;}</style></defs><title>軟筋頭5</title><path d="M780.47,362.15c-.35-3.82-.78-6.95-.89-10.09-.14-4.17,3.18-11.1,7.69-12,5-1,8.38-.14,10.86,4.36,4.45,8.08,7.08,16.8,8.91,25.88,1.56,7.76,1.52,15.53,1.38,23.31-.08,4.6-1,9.17-1.59,13.76-1.81,15.36-6.59,29.88-12.45,44.1-3.76,9.13-9.71,16-19.14,19.7a135.12,135.12,0,0,0-12.65,6.27,14.53,14.53,0,0,1-8.34,1.63c-7.68-.64-15.4-1-23.1-1.08a41.91,41.91,0,0,1-12.8-2.16c-4.83-1.56-9.71-3-14.57-4.43-9.19-2.76-16.37-8.14-21-16.56-4.9-8.89-10.63-17.45-13.19-27.4A172.82,172.82,0,0,1,666,407.66,89.66,89.66,0,0,1,667,376.5c1.08-4.95,1.88-10,3.06-14.9,1.73-7.27,6.17-12.65,12.47-16.49,4.18-2.55,9.06-1.07,10.6,3.76a50.89,50.89,0,0,1,1.85,12.81c.13,2.54.79,3.25,3.25,3.25,16.18,0,32.36.52,48.52.08C757.91,364.71,769.09,363.16,780.47,362.15Zm-94.38-8.42A15.14,15.14,0,0,0,678.56,364c-1.33,5.93-2.65,11.87-3.53,17.88-2.29,15.7-1.29,31.28,4.17,46.18,2.85,7.77,7.24,15,11.24,22.33A25.56,25.56,0,0,0,707,463.08c4.38,1.17,8.68,2.6,13,3.89,2.35.69,4.69,1.76,7.08,1.9,9,.53,18,.78,26.93,1.06a8.26,8.26,0,0,0,3.45-.58c5.24-2.27,10.55-4.43,15.59-7.1a29.57,29.57,0,0,0,8.62-6.38,30.52,30.52,0,0,0,5.13-9.54c2.9-8,5.92-16,7.91-24.3a201.69,201.69,0,0,0,4.72-27.83c.76-8,.62-16.21-1.58-24.08-1.79-6.45-4.06-12.78-6.18-19.14a11.69,11.69,0,0,0-1.59-2.34c-2.22,2.52-1.66,5.09-1.38,7.55.25,2.25.93,4.46,1,6.71.21,3.92-1.57,6.15-5.33,7.12a19.52,19.52,0,0,1-3.2.65c-12.39,1.11-24.76,2.72-37.16,3.14-15.25.51-30.53,0-45.79-.06a42,42,0,0,1-5.7-.46c-5.65-.8-6.74-2.23-6.55-7.86C686.19,361.76,686.09,358.08,686.09,353.73Z" transform="translate(-665.1 -339.66)"/><path class="cls-1" d="M686.09,353.73c0,4.35.1,8,0,11.7-.19,5.63.9,7.06,6.55,7.86a42,42,0,0,0,5.7.46c15.26.09,30.54.57,45.79.06,12.4-.42,24.77-2,37.16-3.14a19.52,19.52,0,0,0,3.2-.65c3.76-1,5.54-3.2,5.33-7.12-.12-2.25-.8-4.46-1-6.71-.28-2.46-.84-5,1.38-7.55a11.69,11.69,0,0,1,1.59,2.34c2.12,6.36,4.39,12.69,6.18,19.14,2.2,7.87,2.34,16.08,1.58,24.08A201.69,201.69,0,0,1,794.75,422c-2,8.26-5,16.29-7.91,24.3a30.52,30.52,0,0,1-5.13,9.54,29.57,29.57,0,0,1-8.62,6.38c-5,2.67-10.35,4.83-15.59,7.1a8.26,8.26,0,0,1-3.45.58c-9-.28-18-.53-26.93-1.06-2.39-.14-4.73-1.21-7.08-1.9-4.35-1.29-8.65-2.72-13-3.89a25.56,25.56,0,0,1-16.57-12.71c-4-7.32-8.39-14.56-11.24-22.33-5.46-14.9-6.46-30.48-4.17-46.18.88-6,2.2-11.95,3.53-17.88A15.14,15.14,0,0,1,686.09,353.73Zm46.06,44.69c1.2.93,2.21,1.83,3.33,2.55,2.25,1.46,4.8,1.25,6.14-.53,1.57-2.08,1.11-4.15-.52-5.92-1.91-2.06-3.89-4.06-6-5.93-2.37-2.13-5.58-2.4-7.28-.12a41.72,41.72,0,0,0-5,9.2c-.8,2,.23,4,2.34,4.92s3.88.15,5.23-1.63C731,400.18,731.49,399.36,732.15,398.42Zm46.6-11.56a4.08,4.08,0,0,0-4.14-4.13c-2.86.06-5.81,3.38-5.8,6.51s2.3,5.48,5,5.34C777.21,394.4,777.89,391.43,778.75,386.86Zm-81.08,12.71a4.66,4.66,0,0,0,4.74-4.27,4.18,4.18,0,0,0-4.2-4.36,4.6,4.6,0,0,0-4.74,4.25A4.21,4.21,0,0,0,697.67,399.57Z" transform="translate(-665.1 -339.66)"/><path d="M732.15,398.42c-.66.94-1.19,1.76-1.78,2.54-1.35,1.78-3.11,2.57-5.23,1.63s-3.14-2.95-2.34-4.92a41.72,41.72,0,0,1,5-9.2c1.7-2.28,4.91-2,7.28.12,2.09,1.87,4.07,3.87,6,5.93,1.63,1.77,2.09,3.84.52,5.92-1.34,1.78-3.89,2-6.14.53C734.36,400.25,733.35,399.35,732.15,398.42Z" transform="translate(-665.1 -339.66)"/><path d="M778.75,386.86c-.86,4.57-1.54,7.54-5,7.72-2.69.14-5-2.33-5-5.34s2.94-6.45,5.8-6.51A4.08,4.08,0,0,1,778.75,386.86Z" transform="translate(-665.1 -339.66)"/><path d="M697.67,399.57a4.21,4.21,0,0,1-4.2-4.38,4.6,4.6,0,0,1,4.74-4.25,4.18,4.18,0,0,1,4.2,4.36A4.66,4.66,0,0,1,697.67,399.57Z" transform="translate(-665.1 -339.66)"/></svg>