<svg id="圖層_1" data-name="圖層 1" xmlns="http://www.w3.org/2000/svg" viewBox="0 0 133 136.68"><defs><style>.cls-1{fill:#fff;}</style></defs><title>軟筋頭8</title><path d="M670.1,407.58c-.06-13.58.16-25.39,3.45-36.88a53.29,53.29,0,0,1,11.1-20.38c2.08-2.41,4.93-2.77,7.75-2s4,3.05,4.26,5.78a51.75,51.75,0,0,1,.26,6c0,1.63.55,2.24,2.25,2.17,9.61-.37,19.24-.37,28.83-1,8.78-.61,17.5-2,26.26-2.86,4.6-.47,9.22-.67,13.83-.93,2.09-.11,4.19,0,6.27-.09,4-.24,4-.29,3.94-4.22-.06-6.23,2.85-10.55,8-11.8,4.32-1,7.79.48,9.6,4.54a44.36,44.36,0,0,1,2.34,6.95c5.41,21.14,5.66,42.63,3.91,64.18a111.68,111.68,0,0,1-3.46,19.52c-3.62,13.67-11.89,23.85-24.54,30.38-1.93,1-3.76,2.2-5.6,3.38a38,38,0,0,1-19.09,5.65c-11.87.58-23.73,1.66-35.6,1.76-5.9.05-11.89-1.27-17.68-2.66-2.51-.6-4.46-3.24-6.93-4.39-3.6-1.68-5.64-4.68-7.91-7.65a33.23,33.23,0,0,1-6.56-16.18c-.76-5.64-2.82-11.12-3.43-16.77C670.46,422,670.41,413.91,670.1,407.58ZM788.44,350.9l-1.37.33c.33,2.25.62,4.5,1,6.74.75,4.39-1.28,7.14-5.71,7.4-6.06.35-12.14.54-18.21.86q-3.67.19-7.32.63c-13.43,1.6-26.8,3.83-40.42,3.36-5.24-.18-10.5.49-15.75.72a61.9,61.9,0,0,1-6.81,0c-3.06-.21-4.77-1.88-5.31-4.91-.25-1.46-.4-2.94-.6-4.42l-.85-.19c-1.67,3.85-4,7.56-4.88,11.59a119.2,119.2,0,0,0-2.93,21c-.5,15.14-1.11,30.35,3.21,45.18.71,2.43.58,5.09,1.3,7.51,1,3.26,2.46,6.35,3.59,9.56,1.85,5.22,8.51,5.29,10.7,10.12.11.23.64.35,1,.39,5.65.77,11.31,2.14,17,2.12,9.15,0,18.32-1.68,27.44-1.36,12.3.43,22.23-5,31.65-11.48A36,36,0,0,0,790.51,433a160.93,160.93,0,0,0,3-19.61c1.36-19.09,1.12-38.15-3.51-56.9C789.53,354.63,789,352.77,788.44,350.9Z" transform="translate(-670.09 -341.02)"/><path class="cls-1" d="M788.44,350.9c.52,1.87,1.09,3.73,1.55,5.61,4.63,18.75,4.87,37.81,3.51,56.9a160.93,160.93,0,0,1-3,19.61,36,36,0,0,1-15.39,23.05c-9.42,6.45-19.35,11.91-31.65,11.48-9.12-.32-18.29,1.33-27.44,1.36-5.65,0-11.31-1.35-17-2.12-.35,0-.88-.16-1-.39-2.19-4.83-8.85-4.9-10.7-10.12-1.13-3.21-2.62-6.3-3.59-9.56-.72-2.42-.59-5.08-1.3-7.51-4.32-14.83-3.71-30-3.21-45.18a119.2,119.2,0,0,1,2.93-21c.88-4,3.21-7.74,4.88-11.59l.85.19c.2,1.48.35,3,.6,4.42.54,3,2.25,4.7,5.31,4.91a61.9,61.9,0,0,0,6.81,0c5.25-.23,10.51-.9,15.75-.72,13.62.47,27-1.76,40.42-3.36q3.64-.44,7.32-.63c6.07-.32,12.15-.51,18.21-.86,4.43-.26,6.46-3,5.71-7.4-.38-2.24-.67-4.49-1-6.74Zm-47.9,46.26c2,1.36,3.76,2.7,5.65,3.74,2.12,1.16,4.25,1,5.87-1,1.4-1.79,1-4.27-1.07-6.06-2.27-2-4.6-3.84-7-5.6-4-2.9-7.89-2.08-10.28,2.24a63.1,63.1,0,0,0-3.45,7.69c-.88,2.25-.52,4.35,1.69,5.72,1.92,1.18,4.36.48,5.89-1.78A54.79,54.79,0,0,0,740.54,397.16Zm-36.4-4.48a4.17,4.17,0,0,0-4.21-4.36,5.72,5.72,0,0,0-5.54,5.55,4.39,4.39,0,0,0,4.54,4.38A5.61,5.61,0,0,0,704.14,392.68Zm78.62-8a4.25,4.25,0,0,0-4.24-4.1,4,4,0,0,0-4,3.94,4.24,4.24,0,0,0,4.36,4.25A4,4,0,0,0,782.76,384.72Z" transform="translate(-670.09 -341.02)"/><path d="M740.54,397.16a54.79,54.79,0,0,1-2.72,4.95c-1.53,2.26-4,3-5.89,1.78-2.21-1.37-2.57-3.47-1.69-5.72a63.1,63.1,0,0,1,3.45-7.69c2.39-4.32,6.3-5.14,10.28-2.24,2.42,1.76,4.75,3.64,7,5.6,2.07,1.79,2.47,4.27,1.07,6.06-1.62,2-3.75,2.16-5.87,1C744.3,399.86,742.57,398.52,740.54,397.16Z" transform="translate(-670.09 -341.02)"/><path d="M704.14,392.68a5.61,5.61,0,0,1-5.21,5.57,4.39,4.39,0,0,1-4.54-4.38,5.72,5.72,0,0,1,5.54-5.55A4.17,4.17,0,0,1,704.14,392.68Z" transform="translate(-670.09 -341.02)"/><path d="M782.76,384.72a4,4,0,0,1-3.89,4.09,4.24,4.24,0,0,1-4.36-4.25,4,4,0,0,1,4-3.94A4.25,4.25,0,0,1,782.76,384.72Z" transform="translate(-670.09 -341.02)"/></svg>