<svg id="圖層_1" data-name="圖層 1" xmlns="http://www.w3.org/2000/svg" viewBox="0 0 136.07 142.93"><defs><style>.cls-1{fill:#fff;}</style></defs><title>軟筋頭2</title><path d="M718.39,358.73c.74,0,1.89-.12,3-.13,14.53-.18,29.05-.18,43.57-.62,5.32-.16,10.6-1.33,15.9-2.05,1.78-.25,2.34-1.33,2.36-3.05,0-4.19,2-7.73,4.39-10.94s7.39-4.81,10.43-3.68c4.47,1.66,6.39,5.33,6.74,9.72a105.31,105.31,0,0,1-2.33,31.42c-1.54,6.8-3.6,13.49-5.37,20.24-1.64,6.32-2.84,12.79-4.88,19-3.46,10.48-7,21-11.31,31.14-3.55,8.46-9.8,15-17.72,19.73-.77.47-1.42,1.13-2.17,1.63-3.28,2.21-6.48,4.56-9.89,6.54-4.7,2.72-9.89,3.23-15.27,3-5.54-.19-11.1.29-16.63.06-11.91-.51-23.6-2.42-32.16-11.62A60.89,60.89,0,0,1,677,453.8c-9.79-20.74-9.48-42.37-4.71-64.26.58-2.66,1.21-5.33,1.56-8,1.43-10.82,6.35-20.38,11.91-29.35A27.25,27.25,0,0,1,706.44,339c6.16-.63,10.29,2.89,11.12,9C718,351.47,718.11,355,718.39,358.73Zm77.29-11.08-.85-.13A10,10,0,0,0,792,354c-.64,7-2.3,9-9.13,10.56a108.93,108.93,0,0,1-27.34,2.24c-10.24-.28-20.51.2-30.76.48-4,.11-8,.83-11.95.82-5.57,0-7.47-3.39-5-8.32a14.18,14.18,0,0,0,1.06-10.06c-.4-1.58-1.27-2-2.8-1.7-5.86,1.28-10.13,5-13.39,9.63-2.32,3.31-3.67,7.29-5.58,10.9-4.14,7.81-4.82,16.53-6.58,24.95-4,19-4.26,37.78,4.15,55.78a67.39,67.39,0,0,0,8.82,13.92c4.74,5.8,12,7.23,18.88,8.08,7.43.92,15,.34,22.56.66,8.17.33,15.2-1.93,20.84-8a12.43,12.43,0,0,1,2.89-2,36,36,0,0,0,13.89-14.93,110.17,110.17,0,0,0,5.61-14.15c2.64-7.72,5.19-15.49,7.46-23.32,2.1-7.23,3.56-14.65,5.7-21.87a114.92,114.92,0,0,0,4.8-36.84A23.55,23.55,0,0,0,795.68,347.65Z" transform="translate(-669.06 -337.9)"/><path class="cls-1" d="M795.68,347.65a23.55,23.55,0,0,1,.47,3.09,114.92,114.92,0,0,1-4.8,36.84c-2.14,7.22-3.6,14.64-5.7,21.87-2.27,7.83-4.82,15.6-7.46,23.32a110.17,110.17,0,0,1-5.61,14.15,36,36,0,0,1-13.89,14.93,12.43,12.43,0,0,0-2.89,2c-5.64,6.11-12.67,8.37-20.84,8-7.52-.32-15.13.26-22.56-.66-6.88-.85-14.14-2.28-18.88-8.08a67.39,67.39,0,0,1-8.82-13.92c-8.41-18-8.12-36.82-4.15-55.78,1.76-8.42,2.44-17.14,6.58-24.95,1.91-3.61,3.26-7.59,5.58-10.9,3.26-4.66,7.53-8.35,13.39-9.63,1.53-.33,2.4.12,2.8,1.7a14.18,14.18,0,0,1-1.06,10.06c-2.47,4.93-.57,8.3,5,8.32,4,0,8-.71,11.95-.82,10.25-.28,20.52-.76,30.76-.48a108.93,108.93,0,0,0,27.34-2.24C789.72,363,791.38,361,792,354a10,10,0,0,1,2.81-6.44Zm-67.24,58c1.13,1.49,1.85,2.63,2.76,3.61,1.59,1.7,3.55,2.33,5.63,1a3.93,3.93,0,0,0,1.53-5.27,57.29,57.29,0,0,0-4.48-8.4,5.69,5.69,0,0,0-9-.83,42.45,42.45,0,0,0-5.53,7.71,3.8,3.8,0,0,0,1.16,5.13,4,4,0,0,0,5.29,0A23.38,23.38,0,0,0,728.44,405.69Zm36.45-22.53A5.12,5.12,0,0,0,760,388.1a4.13,4.13,0,0,0,4.37,4.21,5.08,5.08,0,0,0,4.9-4.89A4.29,4.29,0,0,0,764.89,383.16ZM697,394.64a4.34,4.34,0,0,0,4.3-4.32,4.73,4.73,0,0,0-4.87-4.72,4.23,4.23,0,0,0-4.14,4.42A4.76,4.76,0,0,0,697,394.64Z" transform="translate(-669.06 -337.9)"/><path d="M728.44,405.69a23.38,23.38,0,0,1-2.64,2.91,4,4,0,0,1-5.29,0,3.8,3.8,0,0,1-1.16-5.13,42.45,42.45,0,0,1,5.53-7.71,5.69,5.69,0,0,1,9,.83,57.29,57.29,0,0,1,4.48,8.4,3.93,3.93,0,0,1-1.53,5.27c-2.08,1.32-4,.69-5.63-1C730.29,408.32,729.57,407.18,728.44,405.69Z" transform="translate(-669.06 -337.9)"/><path d="M764.89,383.16a4.29,4.29,0,0,1,4.4,4.26,5.08,5.08,0,0,1-4.9,4.89A4.13,4.13,0,0,1,760,388.1,5.12,5.12,0,0,1,764.89,383.16Z" transform="translate(-669.06 -337.9)"/><path d="M697,394.64a4.76,4.76,0,0,1-4.71-4.62,4.23,4.23,0,0,1,4.14-4.42,4.73,4.73,0,0,1,4.87,4.72A4.34,4.34,0,0,1,697,394.64Z" transform="translate(-669.06 -337.9)"/></svg>