<svg id="圖層_1" data-name="圖層 1" xmlns="http://www.w3.org/2000/svg" viewBox="0 0 134.22 123.35"><defs><style>.cls-1{fill:#fff;}</style></defs><title>軟筋頭7</title><path d="M669.52,408.58c-.52-14.23,4.64-27,10-39.64,1.47-3.44,4.36-6.46,7.13-9.11,3.17-3,7.49-3.26,11.58-2.4,3.67.76,4.63,4,5.08,7.29.66,4.77.62,4.74,5.59,4.64,11.36-.24,22.74-.14,34.07-.77a91.71,91.71,0,0,0,27.29-6,2.79,2.79,0,0,0,1.13-2.05c.23-2.42-.12-4.94.43-7.27a7.66,7.66,0,0,1,7.19-6.07c3.45-.32,5.69,1.38,7.86,4.21,4.12,5.35,6.1,11.71,9.22,17.53a16.85,16.85,0,0,1,1.53,4.9c1.82,9.72,3.94,19.4,5.22,29.19,1.65,12.64,1.12,25.27-3.78,37.25-1.23,3-3.66,5.66-6,8A94.52,94.52,0,0,1,765,468.14a27.39,27.39,0,0,1-10,2c-6.58.35-13.21.45-19.79.16a72.25,72.25,0,0,1-15.35-1.95c-8.65-2.31-17.32-4.52-25.25-9.17-13-7.62-21.85-17.91-23.63-33.29C670.26,420.17,670,414.37,669.52,408.58Zm25.21-42.66c-4.89,1.32-6.45,4.82-8,8.15a89.34,89.34,0,0,0-7.85,45.68c1.1,12.3,5.47,22.57,16.36,29.55a77,77,0,0,0,32.09,11.41c8.59,1.11,17.4.82,26.11.79a21.57,21.57,0,0,0,8.67-1.89,77.64,77.64,0,0,0,23.91-16.87,25.68,25.68,0,0,0,5.81-9c3.62-10.53,3.62-21.39,1.69-32.29-.88-5-1.53-10.05-2.51-15s-2-9.75-3.4-14.53a47.51,47.51,0,0,0-3.39-7.71c-.88-1.78-2-3.44-3-5.16l-.7.35c0,1.59,0,3.18,0,4.78-.07,3.92-1.67,5.79-5.53,6.57a33.27,33.27,0,0,0-3.71.86,108.29,108.29,0,0,1-35.84,6c-11.17-.11-22.35.45-33.53.55-5,0-7.08-2.21-7.19-7.2C694.71,369.44,694.73,367.94,694.73,365.92Z" transform="translate(-669.48 -347.16)"/><path class="cls-1" d="M694.73,365.92c0,2,0,3.52,0,5,.11,5,2.17,7.24,7.19,7.2,11.18-.1,22.36-.66,33.53-.55a108.29,108.29,0,0,0,35.84-6,33.27,33.27,0,0,1,3.71-.86c3.86-.78,5.46-2.65,5.53-6.57,0-1.6,0-3.19,0-4.78l.7-.35c1,1.72,2.13,3.38,3,5.16a47.51,47.51,0,0,1,3.39,7.71c1.37,4.78,2.44,9.65,3.4,14.53s1.63,10,2.51,15c1.93,10.9,1.93,21.76-1.69,32.29a25.68,25.68,0,0,1-5.81,9,77.64,77.64,0,0,1-23.91,16.87,21.57,21.57,0,0,1-8.67,1.89c-8.71,0-17.52.32-26.11-.79a77,77,0,0,1-32.09-11.41c-10.89-7-15.26-17.25-16.36-29.55a89.34,89.34,0,0,1,7.85-45.68C688.28,370.74,689.84,367.24,694.73,365.92Zm47.55,33c1.34,1.66,2.3,3.06,3.47,4.25,1.45,1.47,3.44,2.2,5.15.9a5.85,5.85,0,0,0,2.13-4c.08-3.36-5.56-9.8-8.84-10.58a6.67,6.67,0,0,0-7,2,39.15,39.15,0,0,0-5,7.35,4.5,4.5,0,0,0,2.14,6.42c2.29,1,4.64-.11,6-2.73C740.92,401.44,741.51,400.37,742.28,398.93Zm-37-8.29a4.84,4.84,0,0,0-5,4.38,4.23,4.23,0,0,0,4.35,4.22,4.8,4.8,0,0,0,4.94-4.39A4.13,4.13,0,0,0,705.24,390.64Zm72.21-4.11a4.13,4.13,0,0,0-4.06-4.23,4.34,4.34,0,0,0-4.5,4.16A4.16,4.16,0,0,0,773,390.7,4.36,4.36,0,0,0,777.45,386.53Z" transform="translate(-669.48 -347.16)"/><path d="M742.28,398.93c-.77,1.44-1.36,2.51-1.93,3.6-1.37,2.62-3.72,3.69-6,2.73a4.5,4.5,0,0,1-2.14-6.42,39.15,39.15,0,0,1,5-7.35,6.67,6.67,0,0,1,7-2c3.28.78,8.92,7.22,8.84,10.58a5.85,5.85,0,0,1-2.13,4c-1.71,1.3-3.7.57-5.15-.9C744.58,402,743.62,400.59,742.28,398.93Z" transform="translate(-669.48 -347.16)"/><path d="M705.24,390.64a4.13,4.13,0,0,1,4.32,4.21,4.8,4.8,0,0,1-4.94,4.39,4.23,4.23,0,0,1-4.35-4.22A4.84,4.84,0,0,1,705.24,390.64Z" transform="translate(-669.48 -347.16)"/><path d="M777.45,386.53A4.36,4.36,0,0,1,773,390.7a4.16,4.16,0,0,1-4.07-4.24,4.34,4.34,0,0,1,4.5-4.16A4.13,4.13,0,0,1,777.45,386.53Z" transform="translate(-669.48 -347.16)"/></svg>