<svg id="圖層_1" data-name="圖層 1" xmlns="http://www.w3.org/2000/svg" viewBox="0 0 154.99 161.73"><defs><style>.cls-1{fill:#fff;}</style></defs><title>軟筋頭1</title><path d="M718.19,328.55c-.25-3.61-.48-6.41-.63-9.2a10.65,10.65,0,0,1,2.58-7.82,21.47,21.47,0,0,1,12.31-7,8.55,8.55,0,0,1,9,3.14c2.35,3.08,4.86,6.18,6.43,9.67a127.92,127.92,0,0,1,11.25,44.92c.58,9.51,2.23,19,2.45,28.47.33,13.64-3.1,26.7-8.74,39A26.86,26.86,0,0,1,738,443.86a7.67,7.67,0,0,0-2.49,1.59c-3.46,3.34-6.65,7-10.34,10.05a21.62,21.62,0,0,1-8,4.21c-7.36,1.93-14.82,3.46-22.3,4.86a83.47,83.47,0,0,1-12.42,1.33c-5.81.22-11.64-.14-17.45.11-6.76.3-12.49-2.25-18.31-5.26-6.81-3.53-11.41-9.49-17.09-14.24a49.34,49.34,0,0,1-15.3-22.71,146.64,146.64,0,0,1-7.57-50.34c.28-10.54.1-21.13,1.21-31.57,1.06-10.06,2.75-20.22,9.18-28.7,2.78-3.67,6.24-6.38,10.93-7,6.88-.9,12,3.25,12.42,10.15.22,3.52,0,7.07,0,10.88,3.16.7,6.29,1.54,9.48,2.08,8,1.37,16.08,2.74,24.17,3.79a20.38,20.38,0,0,0,8.34-.55,93.32,93.32,0,0,1,27.66-4ZM615.57,369.43a145.51,145.51,0,0,0,7,51.47,45.74,45.74,0,0,0,10.86,17.37,116.91,116.91,0,0,0,9.35,8.73c6.65,5.64,13.63,10.63,23,10.17,3.63-.17,7.28.12,10.91-.06a142.29,142.29,0,0,0,16.13-1.23c7.33-1.2,14.58-2.94,21.8-4.68a12.39,12.39,0,0,0,5.09-2.8c3.56-3.22,6.83-6.78,10.34-10.06a12.8,12.8,0,0,1,4.13-2.55,18,18,0,0,0,10.56-9.74c6.34-14.26,9.38-29.18,7.54-44.87-.91-7.76-2-15.51-2.55-23.3-1-13.53-5.23-26.14-10.59-38.43a16.16,16.16,0,0,0-3.42-4.86,4,4,0,0,0-3.31-.79c-5.23,1.55-6.34,3.32-5.93,8.77a32.32,32.32,0,0,0,.44,3.24c1.53,9-.32,11.21-9.39,11.31-9.45.11-19.09-.21-28.12,2.73-11.67,3.81-23,1.68-34.42-.35-6.07-1.07-12.09-2.5-18.2-3.28-5.05-.64-7-3.28-6-8.39a58.69,58.69,0,0,0,.73-10.53c0-2.09-1.49-2.95-3.39-1.93a15,15,0,0,0-4.13,3.39c-3.88,4.55-4.71,10.35-6,15.9C615.38,346,615.33,357.54,615.57,369.43Z" transform="translate(-606.64 -304.31)"/><path class="cls-1" d="M615.57,369.43c-.24-11.89-.19-23.44,2.46-34.77,1.29-5.55,2.12-11.35,6-15.9a15,15,0,0,1,4.13-3.39c1.9-1,3.41-.16,3.39,1.93a58.69,58.69,0,0,1-.73,10.53c-1,5.11,1,7.75,6,8.39,6.11.78,12.13,2.21,18.2,3.28,11.44,2,22.75,4.16,34.42.35,9-2.94,18.67-2.62,28.12-2.73,9.07-.1,10.92-2.29,9.39-11.31a32.32,32.32,0,0,1-.44-3.24c-.41-5.45.7-7.22,5.93-8.77a4,4,0,0,1,3.31.79,16.16,16.16,0,0,1,3.42,4.86c5.36,12.29,9.59,24.9,10.59,38.43.58,7.79,1.64,15.54,2.55,23.3,1.84,15.69-1.2,30.61-7.54,44.87a18,18,0,0,1-10.56,9.74,12.8,12.8,0,0,0-4.13,2.55c-3.51,3.28-6.78,6.84-10.34,10.06a12.39,12.39,0,0,1-5.09,2.8c-7.22,1.74-14.47,3.48-21.8,4.68a142.29,142.29,0,0,1-16.13,1.23c-3.63.18-7.28-.11-10.91.06-9.41.46-16.39-4.53-23-10.17a116.91,116.91,0,0,1-9.35-8.73A45.74,45.74,0,0,1,622.6,420.9,145.51,145.51,0,0,1,615.57,369.43ZM686.33,377c.81.75,1.26,1.19,1.72,1.6,2.16,1.93,4.38,2.23,6.15.84s2.08-4,.5-6.38a64.19,64.19,0,0,0-3.77-5.34c-3-3.66-7.2-3.43-9.7.53-1.78,2.85-3.44,5.77-5.05,8.72s-1.12,5.18,1,6.49,5,.52,6.72-2.19C684.7,380,685.4,378.61,686.33,377ZM647.2,356.9c-2.93,0-6.18,3.11-6.15,5.84s2.53,4.87,5.55,4.81a5.53,5.53,0,0,0,5.33-5.73A4.77,4.77,0,0,0,647.2,356.9Zm79.08-.12a4.58,4.58,0,0,0-4.91-4.69c-3.35,0-5.7,2.16-5.77,5.26a4.76,4.76,0,0,0,4.83,5.11A5.93,5.93,0,0,0,726.28,356.78Z" transform="translate(-606.64 -304.31)"/><path d="M686.33,377c-.93,1.63-1.63,3-2.45,4.27-1.74,2.71-4.47,3.58-6.72,2.19s-2.52-3.67-1-6.49,3.27-5.87,5.05-8.72c2.5-4,6.74-4.19,9.7-.53A64.19,64.19,0,0,1,694.7,373c1.58,2.42,1.33,4.95-.5,6.38s-4,1.09-6.15-.84C687.59,378.17,687.14,377.73,686.33,377Z" transform="translate(-606.64 -304.31)"/><path d="M647.2,356.9a4.77,4.77,0,0,1,4.73,4.92,5.53,5.53,0,0,1-5.33,5.73c-3,.06-5.53-2.12-5.55-4.81S644.27,356.93,647.2,356.9Z" transform="translate(-606.64 -304.31)"/><path d="M726.28,356.78a5.93,5.93,0,0,1-5.85,5.68,4.76,4.76,0,0,1-4.83-5.11c.07-3.1,2.42-5.25,5.77-5.26A4.58,4.58,0,0,1,726.28,356.78Z" transform="translate(-606.64 -304.31)"/></svg>