<svg id="圖層_1" data-name="圖層 1" xmlns="http://www.w3.org/2000/svg" viewBox="0 0 152.54 143.09"><defs><style>.cls-1{fill:#fff;}</style></defs><title>軟筋頭3</title><path d="M702,365.14c4.86,0,9.28.27,13.66-.06,7.22-.54,14.41-1.58,21.63-2.21,7.68-.66,15.36-1.25,23.06-1.53,7.07-.26,14.16-.16,21.24,0,2.27.05,3.2-.59,3.53-2.88a34,34,0,0,1,5.58-14.06c3.68-5.47,8.87-7.54,15.23-7.08a6.43,6.43,0,0,1,5.88,5.56,91.76,91.76,0,0,1,1.39,11.33,125.39,125.39,0,0,1-3.61,37.84c-4.1,16.36-8.41,32.7-13.55,48.75-4.52,14.1-14,24.23-28.15,29.53a56.62,56.62,0,0,0-8.41,3.86c-9.61,5.52-20,7-30.76,5.76-5.29-.59-10.85-.85-15.72-2.73-10.65-4.12-21-9-31.31-14a24.31,24.31,0,0,1-7.89-6.84,58.22,58.22,0,0,1-12.47-34.23,287.33,287.33,0,0,1-.14-29.64c.3-5.12,2.47-10.16,4-15.17,1.33-4.24,2.83-8.45,4.56-12.54,1.59-3.75,3.06-7.72,5.51-10.88a29.59,29.59,0,0,1,20.5-11.55c4.85-.57,9.07,4.12,9,9.88,0,2.83-.89,5.66-1.47,8.46C703.05,362,702.55,363.29,702,365.14Zm-31.7,59a53,53,0,0,0,11.36,28.16,9,9,0,0,0,3.05,2.66c11.16,5.05,22.22,10.41,33.66,14.75,4.67,1.77,10.2,1.38,15.35,1.75A38.55,38.55,0,0,0,751,468.54c5.88-2.39,11.6-5.21,17.23-8.17a48.88,48.88,0,0,0,8.94-6.07c5.24-4.48,8.59-10.37,10.76-16.81,7-20.87,13.22-42,15.74-63.94.93-8.06.35-16.31.17-24.47-.06-3-1.58-3.49-4-1.66a8.27,8.27,0,0,0-1.83,2,25.05,25.05,0,0,0-4.54,14.33c0,4.14-2.2,6.43-6.32,6.58-1,0-2-.12-3-.1-9.44.15-18.87.25-28.3.51-5.53.16-11.05.58-16.57.91-3.35.2-6.7.39-10,.69-10,.89-19.91,2.72-30.09,1.25-8.1-1.17-9.08-2.28-6.15-9.94a60.89,60.89,0,0,0,2.83-9.09c.59-2.76-.39-3.61-2.86-2.48-4.83,2.22-10,4.3-12.21,9.73-3.46,8.67-7.31,17.29-9.68,26.28-1.86,7.09-1.75,14.71-2.52,22.09" transform="translate(-660.84 -337.26)"/><path class="cls-1" d="M668.55,410.17c.77-7.38.66-15,2.52-22.09,2.37-9,6.22-17.61,9.68-26.28,2.17-5.43,7.38-7.51,12.21-9.73,2.47-1.13,3.45-.28,2.86,2.48a60.89,60.89,0,0,1-2.83,9.09c-2.93,7.66-2,8.77,6.15,9.94,10.18,1.47,20.08-.36,30.09-1.25,3.35-.3,6.7-.49,10-.69,5.52-.33,11-.75,16.57-.91,9.43-.26,18.86-.36,28.3-.51,1,0,2,.14,3,.1,4.12-.15,6.31-2.44,6.32-6.58A25.05,25.05,0,0,1,798,349.41a8.27,8.27,0,0,1,1.83-2c2.46-1.83,4-1.36,4,1.66.18,8.16.76,16.41-.17,24.47-2.52,21.94-8.71,43.07-15.74,63.94-2.17,6.44-5.52,12.33-10.76,16.81a48.88,48.88,0,0,1-8.94,6.07c-5.63,3-11.35,5.78-17.23,8.17a38.55,38.55,0,0,1-17.33,2.89c-5.15-.37-10.68,0-15.35-1.75-11.44-4.34-22.5-9.7-33.66-14.75a9,9,0,0,1-3.05-2.66,53,53,0,0,1-11.36-28.16m71.64-22.6c.39,1,.6,1.51.77,2,1.21,3.37,3.22,4.81,5.73,4.08s3.48-3.13,2.72-6.55c-.57-2.57-1.15-5.15-2-7.64-1.85-5.64-7.12-6.82-10.83-2.24A93.53,93.53,0,0,0,731.12,402a4.38,4.38,0,0,0,1.06,6.09c1.94,1.31,4.42.76,6.21-1.51C739.55,405.13,740.54,403.52,741.92,401.51Zm-32.55-6.37a4.11,4.11,0,0,0-4.44-4.11c-3.45.12-6.31,2.51-6.26,5.23a4.8,4.8,0,0,0,5.16,4.49A5.75,5.75,0,0,0,709.37,395.14Zm72.09-6a5,5,0,0,0-5.07-4.6,4,4,0,0,0-4.1,4.11,5,5,0,0,0,5.07,4.64A4.09,4.09,0,0,0,781.46,389.1Z" transform="translate(-660.84 -337.26)"/><path d="M741.92,401.51c-1.38,2-2.37,3.62-3.53,5.1-1.79,2.27-4.27,2.82-6.21,1.51a4.38,4.38,0,0,1-1.06-6.09,93.53,93.53,0,0,1,7.23-10.86c3.71-4.58,9-3.4,10.83,2.24.81,2.49,1.39,5.07,2,7.64.76,3.42-.3,5.84-2.72,6.55s-4.52-.71-5.73-4.08C742.52,403,742.31,402.53,741.92,401.51Z" transform="translate(-660.84 -337.26)"/><path d="M709.37,395.14a5.75,5.75,0,0,1-5.54,5.61,4.8,4.8,0,0,1-5.16-4.49c0-2.72,2.81-5.11,6.26-5.23A4.11,4.11,0,0,1,709.37,395.14Z" transform="translate(-660.84 -337.26)"/><path d="M781.46,389.1a4.09,4.09,0,0,1-4.1,4.15,5,5,0,0,1-5.07-4.64,4,4,0,0,1,4.1-4.11A5,5,0,0,1,781.46,389.1Z" transform="translate(-660.84 -337.26)"/></svg>