<svg width="30" height="30" viewBox="0 0 30 30" fill="none" xmlns="http://www.w3.org/2000/svg">
<path d="M13.6436 3.75032L13.6436 23.2328L7.02737 16.6166C6.91177 16.4984 6.77387 16.4043 6.62165 16.3397C6.46944 16.2752 6.30593 16.2415 6.14061 16.2406C5.97528 16.2397 5.81142 16.2716 5.6585 16.3344C5.50559 16.3973 5.36666 16.4899 5.24976 16.6068C5.13287 16.7237 5.04033 16.8626 4.9775 17.0156C4.91467 17.1685 4.8828 17.3324 4.88374 17.4977C4.88468 17.663 4.91841 17.8265 4.98297 17.9787C5.04753 18.1309 5.14165 18.2688 5.25986 18.3844L14.0099 27.1344C14.2443 27.3687 14.5622 27.5004 14.8936 27.5004C15.2251 27.5004 15.543 27.3687 15.7774 27.1344L24.5274 18.3844C24.6437 18.2684 24.7359 18.1306 24.7987 17.9789C24.8616 17.8272 24.8938 17.6645 24.8936 17.5003C24.8936 17.2531 24.8202 17.0115 24.6829 16.806C24.5455 16.6005 24.3503 16.4403 24.1219 16.3457C23.8936 16.2511 23.6423 16.2264 23.3998 16.2746C23.1574 16.3228 22.9347 16.4418 22.7599 16.6166L16.1436 23.2328L16.1436 3.75032C16.1436 3.4188 16.0119 3.10086 15.7775 2.86644C15.5431 2.63202 15.2251 2.50032 14.8936 2.50032C14.5621 2.50032 14.2442 2.63202 14.0097 2.86644C13.7753 3.10086 13.6436 3.4188 13.6436 3.75032Z" fill="#ECFF5F"/>
</svg>
