<svg width="45" height="11" viewBox="0 0 45 11" fill="none" xmlns="http://www.w3.org/2000/svg">
<path d="M0.546029 3.39201C0.546029 2.99068 0.616029 2.63134 0.756029 2.31401C0.905362 1.98734 1.1107 1.71668 1.37203 1.50201C1.63336 1.28734 1.94136 1.12868 2.29603 1.02601C2.6507 0.914009 3.03803 0.862676 3.45803 0.87201C3.8967 0.890676 4.2887 0.974676 4.63403 1.12401C4.97936 1.26401 5.25003 1.42734 5.44603 1.61401C5.51136 1.67001 5.58136 1.74934 5.65603 1.85201C5.74003 1.95468 5.80536 2.06201 5.85203 2.17401C5.90803 2.28601 5.93603 2.39334 5.93603 2.49601C5.94536 2.59868 5.90803 2.67801 5.82403 2.73401C5.76803 2.78068 5.69336 2.80401 5.60003 2.80401C5.51603 2.80401 5.42736 2.79468 5.33403 2.77601C5.2407 2.74801 5.15203 2.71534 5.06803 2.67801C4.98403 2.63134 4.9187 2.58934 4.87203 2.55201C4.67603 2.39334 4.4427 2.26734 4.17203 2.17401C3.9107 2.07134 3.6727 2.01534 3.45803 2.00601C3.17803 1.99668 2.9307 2.02468 2.71603 2.09001C2.50136 2.14601 2.31936 2.23001 2.17003 2.34201C2.03003 2.45401 1.9227 2.58468 1.84803 2.73401C1.77336 2.87401 1.73603 3.01868 1.73603 3.16801C1.73603 3.42934 1.8387 3.65801 2.04403 3.85401C2.24936 4.04068 2.47336 4.19001 2.71603 4.30201C2.97736 4.41401 3.24803 4.53068 3.52803 4.65201C3.81736 4.76401 4.10203 4.89001 4.38203 5.03001C4.66203 5.17001 4.92803 5.32401 5.18003 5.49201C5.43203 5.66001 5.65136 5.85601 5.83803 6.08001C6.03403 6.29468 6.18803 6.54668 6.30003 6.83601C6.41203 7.11601 6.46803 7.43801 6.46803 7.80201C6.46803 8.10068 6.4027 8.39468 6.27203 8.68401C6.14136 8.96401 5.9547 9.22068 5.71203 9.45401C5.46936 9.68734 5.1707 9.87868 4.81603 10.028C4.4707 10.1773 4.0787 10.2567 3.64003 10.266C3.31336 10.2753 2.9727 10.2427 2.61803 10.168C2.26336 10.0933 1.9367 9.97201 1.63803 9.80401C1.33936 9.63601 1.07803 9.42134 0.854029 9.16001C0.639362 8.88934 0.504029 8.56268 0.448029 8.18001C0.429362 8.04001 0.434029 7.90934 0.462029 7.78801C0.490029 7.66668 0.532029 7.56401 0.588029 7.48001C0.644029 7.38668 0.704695 7.31668 0.770029 7.27001C0.844695 7.21401 0.914695 7.18601 0.980029 7.18601C1.04536 7.18601 1.1107 7.22334 1.17603 7.29801C1.24136 7.36334 1.29736 7.44268 1.34403 7.53601C1.3907 7.62001 1.42803 7.70401 1.45603 7.78801C1.49336 7.87201 1.52136 7.93268 1.54003 7.97001C1.63336 8.18468 1.75936 8.36668 1.91803 8.51601C2.0767 8.66534 2.2447 8.78668 2.42203 8.88001C2.6087 8.97334 2.80003 9.04334 2.99603 9.09001C3.19203 9.12734 3.36936 9.14134 3.52803 9.13201C3.7427 9.12268 3.94803 9.08534 4.14403 9.02001C4.34003 8.95468 4.5127 8.86601 4.66203 8.75401C4.81136 8.63268 4.92803 8.48801 5.01203 8.32001C5.10536 8.14268 5.15203 7.94668 5.15203 7.73201C5.15203 7.49868 5.0587 7.27001 4.87203 7.04601C4.6947 6.81268 4.46603 6.59801 4.18603 6.40201C3.91536 6.20601 3.61203 6.02868 3.27603 5.87001C2.94936 5.70201 2.6367 5.56201 2.33803 5.45001C1.81536 5.24468 1.38603 4.96468 1.05003 4.61001C0.714029 4.24601 0.546029 3.84001 0.546029 3.39201Z" fill="white"/>
<path d="M10.9386 2.24401C10.7053 2.31868 10.4953 2.42134 10.3086 2.55201C10.1313 2.68268 9.97262 2.82734 9.83262 2.98601C9.69262 3.13534 9.56662 3.29401 9.45462 3.46201C9.35196 3.63001 9.26329 3.78401 9.18862 3.92401C9.11396 4.08268 9.04862 4.26934 8.99262 4.48401C8.93662 4.68934 8.89462 4.90401 8.86662 5.12801C8.83862 5.35201 8.81996 5.57134 8.81062 5.78601C8.80129 6.00068 8.80129 6.19201 8.81062 6.36001C8.82929 6.60268 8.87596 6.87801 8.95062 7.18601C9.02529 7.48468 9.13262 7.77401 9.27262 8.05401C9.42196 8.33401 9.60862 8.58134 9.83262 8.79601C10.066 9.00134 10.346 9.13201 10.6726 9.18801C10.8686 9.21601 11.06 9.22534 11.2466 9.21601C11.4426 9.19734 11.62 9.16934 11.7786 9.13201C11.9466 9.09468 12.096 9.05268 12.2266 9.00601C12.3666 8.95001 12.4833 8.89868 12.5766 8.85201C12.6793 8.80534 12.8006 8.74468 12.9406 8.67001C13.09 8.58601 13.2346 8.51601 13.3746 8.46001C13.5146 8.39468 13.6453 8.35268 13.7666 8.33401C13.888 8.30601 13.972 8.32468 14.0186 8.39001C14.0746 8.46468 14.084 8.56268 14.0466 8.68401C14.0186 8.79601 13.958 8.92201 13.8646 9.06201C13.7713 9.19268 13.6546 9.32334 13.5146 9.45401C13.384 9.58468 13.2486 9.70134 13.1086 9.80401C12.8473 9.99068 12.5253 10.1493 12.1426 10.28C11.76 10.42 11.382 10.4947 11.0086 10.504C10.4953 10.5133 10.0006 10.434 9.52462 10.266C9.04862 10.098 8.65196 9.83668 8.33462 9.48201C8.14796 9.27668 7.98462 9.01534 7.84462 8.69801C7.70462 8.38068 7.59262 8.04001 7.50862 7.67601C7.42462 7.30268 7.36862 6.92001 7.34062 6.52801C7.31262 6.12668 7.32196 5.74401 7.36862 5.38001C7.42462 4.94134 7.53662 4.48401 7.70462 4.00801C7.87262 3.52268 8.10596 3.07934 8.40462 2.67801C8.70329 2.26734 9.07196 1.92201 9.51062 1.64201C9.94929 1.35268 10.4626 1.18001 11.0506 1.12401C11.3026 1.09601 11.5686 1.10068 11.8486 1.13801C12.138 1.17534 12.3946 1.23134 12.6186 1.30601C12.852 1.38068 13.0433 1.46468 13.1926 1.55801C13.342 1.65134 13.412 1.73534 13.4026 1.81001C13.384 1.92201 13.3326 2.01068 13.2486 2.07601C13.1646 2.13201 13.062 2.17401 12.9406 2.20201C12.8286 2.22068 12.7073 2.23001 12.5766 2.23001C12.4553 2.22068 12.3433 2.20668 12.2406 2.18801C12.0073 2.14134 11.7833 2.12268 11.5686 2.13201C11.3633 2.13201 11.1533 2.16934 10.9386 2.24401Z" fill="white"/>
<path d="M15.5325 2.04801C15.5325 1.94534 15.4811 1.85668 15.3785 1.78201C15.2851 1.70734 15.1545 1.65134 14.9865 1.61401C14.9211 1.59534 14.8371 1.57668 14.7345 1.55801C14.6411 1.53934 14.5898 1.49734 14.5805 1.43201C14.5805 1.38534 14.5945 1.33868 14.6225 1.29201C14.6598 1.23601 14.7018 1.18468 14.7485 1.13801C14.7951 1.09134 14.8465 1.05401 14.9025 1.02601C14.9585 0.988676 15.0051 0.965343 15.0425 0.95601C15.4251 0.853343 15.7658 0.853343 16.0645 0.95601C16.3631 1.04934 16.5545 1.18934 16.6385 1.37601C16.8811 1.21734 17.1891 1.07734 17.5625 0.95601C17.9358 0.834676 18.3325 0.77401 18.7525 0.77401C19.1911 0.77401 19.5785 0.853343 19.9145 1.01201C20.2505 1.16134 20.5305 1.36668 20.7545 1.62801C20.9878 1.88001 21.1605 2.16934 21.2725 2.49601C21.3938 2.82268 21.4545 3.15868 21.4545 3.50401C21.4545 3.70001 21.4218 3.91001 21.3565 4.13401C21.2911 4.35801 21.1791 4.57268 21.0205 4.77801C20.8618 4.98334 20.6425 5.17001 20.3625 5.33801C20.0918 5.50601 19.7418 5.63668 19.3125 5.73001C19.3871 6.60734 19.6485 7.38201 20.0965 8.05401C20.5445 8.71668 21.1325 9.27201 21.8605 9.72001C21.9818 9.80401 22.0471 9.89268 22.0565 9.98601C22.0658 10.07 22.0331 10.1307 21.9585 10.168C21.8931 10.2053 21.7485 10.2333 21.5245 10.252C21.3098 10.2707 21.0765 10.2427 20.8245 10.168C20.3858 10.028 20.0125 9.79934 19.7045 9.48201C19.3965 9.15534 19.1351 8.79134 18.9205 8.39001C18.7151 7.97934 18.5518 7.55934 18.4305 7.13001C18.3185 6.69134 18.2391 6.29001 18.1925 5.92601C18.0525 5.93534 17.8658 5.94934 17.6325 5.96801C17.3991 5.97734 17.1425 5.98201 16.8625 5.98201C16.8625 6.30868 16.8531 6.63068 16.8345 6.94801C16.8251 7.26534 16.8018 7.58734 16.7645 7.91401C16.7551 7.99801 16.7271 8.16601 16.6805 8.41801C16.6338 8.66068 16.5685 8.91734 16.4845 9.18801C16.4098 9.45868 16.3118 9.70134 16.1905 9.91601C16.0785 10.1213 15.9478 10.224 15.7985 10.224C15.7798 10.224 15.7425 10.21 15.6865 10.182C15.6305 10.1633 15.5745 10.1307 15.5185 10.084C15.4625 10.0373 15.4158 9.98134 15.3785 9.91601C15.3411 9.85068 15.3365 9.77601 15.3645 9.69201C15.3925 9.60801 15.4158 9.47734 15.4345 9.30001C15.4531 9.12268 15.4671 8.91734 15.4765 8.68401C15.4951 8.45068 15.5091 8.19868 15.5185 7.92801C15.5278 7.65734 15.5325 7.38201 15.5325 7.10201V2.04801ZM16.8625 5.26801C17.1331 5.23068 17.4505 5.18401 17.8145 5.12801C18.1878 5.07201 18.5425 4.98334 18.8785 4.86201C19.2145 4.73134 19.4991 4.55401 19.7325 4.33001C19.9658 4.10601 20.0825 3.80268 20.0825 3.42001C20.0825 3.29868 20.0545 3.14468 19.9985 2.95801C19.9425 2.77134 19.8445 2.59401 19.7045 2.42601C19.5645 2.25801 19.3778 2.11334 19.1445 1.99201C18.9111 1.87068 18.6171 1.81001 18.2625 1.81001C18.0198 1.81001 17.7818 1.84268 17.5485 1.90801C17.3245 1.96401 17.0818 2.07134 16.8205 2.23001C16.8205 2.92068 16.8251 3.49934 16.8345 3.96601C16.8531 4.42334 16.8625 4.85734 16.8625 5.26801Z" fill="white"/>
<path d="M27.3972 0.76001C27.9852 0.76001 28.4938 0.890676 28.9232 1.15201C29.3618 1.40401 29.7212 1.74001 30.0012 2.16001C30.2905 2.57068 30.5052 3.03734 30.6452 3.56001C30.7852 4.07334 30.8552 4.59134 30.8552 5.11401C30.8552 5.74868 30.7572 6.36468 30.5612 6.96201C30.3652 7.55001 30.0805 8.07268 29.7072 8.53001C29.3432 8.97801 28.8952 9.33734 28.3632 9.60801C27.8405 9.87868 27.2525 10.014 26.5992 10.014C25.9645 10.014 25.4092 9.90201 24.9332 9.67801C24.4572 9.45401 24.0558 9.14601 23.7292 8.75401C23.4118 8.35268 23.1738 7.88601 23.0152 7.35401C22.8565 6.81268 22.7772 6.22468 22.7772 5.59001C22.7772 4.91801 22.8752 4.28801 23.0712 3.70001C23.2765 3.11201 23.5752 2.60334 23.9672 2.17401C24.3592 1.73534 24.8398 1.39001 25.4092 1.13801C25.9878 0.88601 26.6505 0.76001 27.3972 0.76001ZM27.1732 1.85201C26.6505 1.85201 26.1885 1.96868 25.7872 2.20201C25.3952 2.43534 25.0638 2.73868 24.7932 3.11201C24.5225 3.48534 24.3172 3.90068 24.1772 4.35801C24.0372 4.81534 23.9672 5.26801 23.9672 5.71601C23.9672 6.04268 24.0138 6.38801 24.1072 6.75201C24.2098 7.10668 24.3685 7.43334 24.5832 7.73201C24.8072 8.03068 25.0965 8.27801 25.4512 8.47401C25.8058 8.67001 26.2352 8.76801 26.7392 8.76801C27.2152 8.76801 27.6352 8.64668 27.9992 8.40401C28.3632 8.16134 28.6618 7.85334 28.8952 7.48001C29.1378 7.09734 29.3198 6.68201 29.4412 6.23401C29.5625 5.77668 29.6232 5.33801 29.6232 4.91801C29.6232 4.56334 29.5718 4.20401 29.4692 3.84001C29.3665 3.47601 29.2125 3.14934 29.0072 2.86001C28.8112 2.56134 28.5592 2.31868 28.2512 2.13201C27.9432 1.94534 27.5838 1.85201 27.1732 1.85201Z" fill="white"/>
<path d="M32.2713 2.65001C32.15 2.46334 32.0193 2.24868 31.8793 2.00601C31.7487 1.76334 31.6833 1.52534 31.6833 1.29201C31.6833 1.21734 31.6927 1.14734 31.7113 1.08201C31.7393 1.01668 31.8187 0.984009 31.9493 0.984009C32.0893 0.984009 32.22 1.00734 32.3413 1.05401C32.4627 1.10068 32.5747 1.16134 32.6773 1.23601C32.8453 1.36668 32.99 1.49734 33.1113 1.62801C33.242 1.74934 33.3447 1.88934 33.4193 2.04801C33.5033 2.20668 33.564 2.38401 33.6013 2.58001C33.6387 2.77601 33.6573 3.00001 33.6573 3.25201C33.6573 3.43868 33.6527 3.63468 33.6433 3.84001C33.6433 4.03601 33.6387 4.26001 33.6293 4.51201C33.62 4.76401 33.6107 5.04868 33.6013 5.36601C33.6013 5.68334 33.6013 6.04734 33.6013 6.45801C33.6013 6.93401 33.5873 7.41468 33.5593 7.90001C33.5313 8.38534 33.4847 8.81468 33.4193 9.18801C34.0633 9.19734 34.6747 9.21134 35.2533 9.23001C35.832 9.24868 36.448 9.28134 37.1013 9.32801C37.4 9.34668 37.6473 9.37934 37.8433 9.42601C38.0487 9.47268 38.1513 9.54734 38.1513 9.65001C38.1513 9.71534 38.1233 9.79001 38.0673 9.87401C38.0207 9.94868 37.9553 10.0187 37.8713 10.084C37.7873 10.1587 37.6987 10.2193 37.6053 10.266C37.512 10.3127 37.4233 10.336 37.3393 10.336C36.546 10.336 35.7667 10.336 35.0013 10.336C34.236 10.336 33.4193 10.3267 32.5513 10.308C32.4767 10.308 32.402 10.2753 32.3273 10.21C32.2527 10.154 32.1873 10.084 32.1313 10C32.0753 9.91601 32.0287 9.82734 31.9913 9.73401C31.954 9.63134 31.9353 9.53801 31.9353 9.45401C31.9353 9.35134 31.982 9.28601 32.0753 9.25801C32.178 9.22068 32.2853 9.19268 32.3973 9.17401C32.3787 8.95934 32.36 8.70734 32.3413 8.41801C32.3227 8.12868 32.3133 7.84868 32.3133 7.57801C32.3133 7.17668 32.304 6.57468 32.2853 5.77201C32.276 4.96934 32.2713 3.92868 32.2713 2.65001Z" fill="white"/>
<path d="M39.0936 2.65001C38.9723 2.46334 38.8416 2.24868 38.7016 2.00601C38.5709 1.76334 38.5056 1.52534 38.5056 1.29201C38.5056 1.21734 38.5149 1.14734 38.5336 1.08201C38.5616 1.01668 38.6409 0.984009 38.7716 0.984009C38.9116 0.984009 39.0423 1.00734 39.1636 1.05401C39.2849 1.10068 39.3969 1.16134 39.4996 1.23601C39.6676 1.36668 39.8123 1.49734 39.9336 1.62801C40.0643 1.74934 40.1669 1.88934 40.2416 2.04801C40.3256 2.20668 40.3863 2.38401 40.4236 2.58001C40.4609 2.77601 40.4796 3.00001 40.4796 3.25201C40.4796 3.43868 40.4749 3.63468 40.4656 3.84001C40.4656 4.03601 40.4609 4.26001 40.4516 4.51201C40.4423 4.76401 40.4329 5.04868 40.4236 5.36601C40.4236 5.68334 40.4236 6.04734 40.4236 6.45801C40.4236 6.93401 40.4096 7.41468 40.3816 7.90001C40.3536 8.38534 40.3069 8.81468 40.2416 9.18801C40.8856 9.19734 41.4969 9.21134 42.0756 9.23001C42.6543 9.24868 43.2703 9.28134 43.9236 9.32801C44.2223 9.34668 44.4696 9.37934 44.6656 9.42601C44.8709 9.47268 44.9736 9.54734 44.9736 9.65001C44.9736 9.71534 44.9456 9.79001 44.8896 9.87401C44.8429 9.94868 44.7776 10.0187 44.6936 10.084C44.6096 10.1587 44.5209 10.2193 44.4276 10.266C44.3343 10.3127 44.2456 10.336 44.1616 10.336C43.3683 10.336 42.5889 10.336 41.8236 10.336C41.0583 10.336 40.2416 10.3267 39.3736 10.308C39.2989 10.308 39.2243 10.2753 39.1496 10.21C39.0749 10.154 39.0096 10.084 38.9536 10C38.8976 9.91601 38.8509 9.82734 38.8136 9.73401C38.7763 9.63134 38.7576 9.53801 38.7576 9.45401C38.7576 9.35134 38.8043 9.28601 38.8976 9.25801C39.0003 9.22068 39.1076 9.19268 39.2196 9.17401C39.2009 8.95934 39.1823 8.70734 39.1636 8.41801C39.1449 8.12868 39.1356 7.84868 39.1356 7.57801C39.1356 7.17668 39.1263 6.57468 39.1076 5.77201C39.0983 4.96934 39.0936 3.92868 39.0936 2.65001Z" fill="white"/>
</svg>
