<svg width="40" height="40" viewBox="0 0 40 40" fill="none" xmlns="http://www.w3.org/2000/svg">
<g clip-path="url(#clip0_1279_4083)">
<path d="M3.79001 10.52C4.93001 10.34 6.26001 10.15 7.24001 10.09C9.56001 9.94002 29.79 9.39002 30.17 9.41002L31.41 9.08002" stroke="white" stroke-width="3" stroke-linecap="round" stroke-linejoin="round"/>
<path d="M3.22 10.97C3.25 11.61 3.53 13.64 3.81 14.96C4.1 16.26 5.24445 21.1089 5.39445 21.3789C6.07445 22.5589 10.0355 22.6041 16.0755 22.4541C20.6855 22.3141 28.0211 21.5389 28.9345 21.9289C28.9645 21.7789 28.9844 21.6889 28.9844 21.6489C28.9944 21.6089 28.9944 21.5689 28.9944 21.5389" stroke="white" stroke-width="3" stroke-linecap="round" stroke-linejoin="round"/>
<path d="M38.04 5.41003C37.91 5.44003 37.67 5.47003 37.16 5.45003C34.34 5.32003 33.2 5.41003 32.75 5.71003C31.4 6.78003 29.86 17.35 29.14 27.23C29.11 27.51 28.23 28.39 27.84 28.71C27.62 28.89 27.31 29.1 26.93 29.34C26.85 29.39 26.8 29.41 26.77 29.42" stroke="white" stroke-width="3" stroke-linecap="round" stroke-linejoin="round"/>
<path d="M13.1492 29.77L12.5014 29.99C12.9308 29.99 15.0399 30.03 15.8609 30.02C23.8378 29.87 26.9562 28.99 27.2199 28.68C27.2425 28.65 27.25 28.64 27.25 28.64" stroke="white" stroke-width="3" stroke-linecap="round" stroke-linejoin="round"/>
<path d="M15.3243 31.4796C14.2643 31.2996 12.3643 31.5796 11.8543 31.9996C11.3743 32.4396 11.1643 33.5696 11.4843 34.2496C12.2643 35.8196 15.2243 36.1296 15.9443 35.1196C16.5443 34.2096 15.3443 32.2796 14.6643 31.9796C14.5543 31.9296 14.4443 31.8996 14.3143 31.8796C14.2943 31.8796 14.2643 31.8796 14.2343 31.8796" stroke="white" stroke-width="3" stroke-linecap="round" stroke-linejoin="round"/>
<path d="M28.28 30.64C27.89 30.64 27.31 30.72 26.99 30.89C26.14 31.37 25.47 33.75 25.7 34.55C26.15 35.9 28.65 36.02 29.57 35.14C30.33 34.38 29.82 31.9 28.82 31.3C28.47 31.09 27.9 30.84 27.76 30.82C27.72 30.82 27.66 30.81 27.58 30.79" stroke="white" stroke-width="3" stroke-linecap="round" stroke-linejoin="round"/>
</g>
<defs>
<clipPath id="clip0_1279_4083">
<rect width="40" height="40" fill="white"/>
</clipPath>
</defs>
</svg>
