<svg width="40" height="40" viewBox="0 0 40 40" fill="none" xmlns="http://www.w3.org/2000/svg">
<g clip-path="url(#clip0_1351_718)">
<path d="M3.79004 10.52C4.93004 10.34 6.26004 10.15 7.24004 10.09C9.56004 9.93996 29.79 9.38996 30.17 9.40996L31.41 9.07996" stroke="#736262" stroke-width="3" stroke-linecap="round" stroke-linejoin="round"/>
<path d="M3.21997 10.97C3.24997 11.61 3.52997 13.64 3.80997 14.96C4.09997 16.26 5.24442 21.1089 5.39442 21.3789C6.07442 22.5589 10.0354 22.604 16.0754 22.454C20.6854 22.314 28.0211 21.5389 28.9344 21.9289C28.9644 21.7789 28.9844 21.6889 28.9844 21.6489C28.9944 21.6089 28.9944 21.5689 28.9944 21.5389" stroke="#736262" stroke-width="3" stroke-linecap="round" stroke-linejoin="round"/>
<path d="M38.04 5.40996C37.91 5.43996 37.67 5.46996 37.16 5.44996C34.34 5.31996 33.2 5.40996 32.75 5.70996C31.4 6.77996 29.86 17.35 29.14 27.23C29.11 27.51 28.23 28.39 27.84 28.71C27.62 28.89 27.31 29.1 26.93 29.34C26.85 29.39 26.8 29.41 26.77 29.42" stroke="#736262" stroke-width="3" stroke-linecap="round" stroke-linejoin="round"/>
<path d="M13.1493 29.7699L12.5015 29.9899C12.9308 29.9899 15.0399 30.0299 15.8609 30.0199C23.8378 29.8699 26.9563 28.9899 27.2199 28.6799C27.2425 28.6499 27.25 28.6399 27.25 28.6399" stroke="#736262" stroke-width="3" stroke-linecap="round" stroke-linejoin="round"/>
<path d="M15.3243 31.4795C14.2643 31.2995 12.3643 31.5795 11.8543 31.9995C11.3743 32.4395 11.1643 33.5695 11.4843 34.2495C12.2643 35.8195 15.2243 36.1295 15.9443 35.1195C16.5443 34.2095 15.3443 32.2795 14.6643 31.9795C14.5543 31.9295 14.4443 31.8995 14.3143 31.8795C14.2943 31.8795 14.2643 31.8795 14.2343 31.8795" stroke="#736262" stroke-width="3" stroke-linecap="round" stroke-linejoin="round"/>
<path d="M28.28 30.64C27.89 30.64 27.31 30.72 26.99 30.89C26.14 31.37 25.47 33.75 25.7 34.55C26.15 35.9 28.65 36.02 29.57 35.14C30.33 34.38 29.82 31.9 28.82 31.3C28.47 31.09 27.9 30.84 27.76 30.82C27.72 30.82 27.66 30.81 27.58 30.79" stroke="#736262" stroke-width="3" stroke-linecap="round" stroke-linejoin="round"/>
</g>
<defs>
<clipPath id="clip0_1351_718">
<rect width="40" height="40" fill="white"/>
</clipPath>
</defs>
</svg>
