<?xml version="1.0" encoding="UTF-8" standalone="no"?>
<!DOCTYPE svg PUBLIC "-//W3C//DTD SVG 1.1//EN" "http://www.w3.org/Graphics/SVG/1.1/DTD/svg11.dtd">
<svg width="4.94" height="4.94" viewBox="0.00 0.00 24.00 24.00" xmlns="http://www.w3.org/2000/svg" xmlns:xlink="http://www.w3.org/1999/xlink">
<g stroke-linecap="round" id="圖層_2">
<path d="M4.33,4.15 C4.33,4.15 4.22,4.12 4.22,4.12 C4.22,4.12 20.01,3.13 20.01,3.13 C20.01,3.13 19.86,3.13 19.86,3.13" fill="none" stroke="rgb(115, 98, 98)" stroke-width="2.00" stroke-opacity="1.00" stroke-linejoin="round"/>
<path d="M3.29,3.94 C3.25,3.97 3.22,4.00 3.21,4.02 C2.02,6.21 2.03,11.14 2.94,11.96 C4.25,13.11 6.79,12.66 7.72,12.14 C8.03,11.96 8.60,11.56 8.76,11.41 C8.80,11.37 8.87,11.30 8.97,11.20" fill="none" stroke="rgb(115, 98, 98)" stroke-width="2.00" stroke-opacity="1.00" stroke-linejoin="round"/>
<path d="M9.05,5.64 C9.05,5.64 8.84,5.22 8.84,5.22 C8.84,5.22 9.09,10.61 9.09,10.61 C9.09,10.61 9.23,10.59 9.23,10.59" fill="none" stroke="rgb(115, 98, 98)" stroke-width="2.00" stroke-opacity="1.00" stroke-linejoin="round"/>
<path d="M9.08,10.36 C9.07,10.44 9.07,10.49 9.08,10.52 C9.18,11.14 10.95,12.19 11.99,12.03 C12.49,11.94 13.38,11.55 13.77,11.16 C13.81,11.12 13.83,11.08 13.83,11.06" fill="none" stroke="rgb(115, 98, 98)" stroke-width="2.00" stroke-opacity="1.00" stroke-linejoin="round"/>
<path d="M14.85,4.98 C14.85,5.02 14.86,5.13 14.90,5.32 C16.02,11.57 14.35,12.04 14.09,12.03 C14.04,12.02 13.95,12.01 13.83,11.98" fill="none" stroke="rgb(115, 98, 98)" stroke-width="2.00" stroke-opacity="1.00" stroke-linejoin="round"/>
<path d="M16.59,10.54 C16.59,10.64 16.60,10.71 16.63,10.76 C18.24,14.06 22.10,11.20 22.35,10.78 C22.43,10.63 22.57,10.28 22.58,10.19 C22.59,10.16 22.59,10.12 22.58,10.06" fill="none" stroke="rgb(115, 98, 98)" stroke-width="2.00" stroke-opacity="1.00" stroke-linejoin="round"/>
<path d="M20.13,3.82 C21.35,6.17 22.11,10.52 21.61,10.78 C21.56,10.80 21.52,10.82 21.50,10.83" fill="none" stroke="rgb(115, 98, 98)" stroke-width="2.00" stroke-opacity="1.00" stroke-linejoin="round"/>
<path d="M3.87,14.21 C3.85,14.30 3.84,14.36 3.83,14.39 C3.50,15.62 3.88,19.37 4.53,20.03 C6.34,21.72 20.05,20.83 20.79,20.40 C22.05,19.57 20.68,13.19 20.63,13.04 C20.63,13.02 20.62,12.99 20.60,12.95" fill="none" stroke="rgb(115, 98, 98)" stroke-width="2.00" stroke-opacity="1.00" stroke-linejoin="round"/>
<path d="M10.59,19.85 C10.44,18.73 11.65,15.67 12.48,15.68 C14.69,15.79 14.56,20.07 14.52,20.13 C14.52,20.13 14.44,20.16 14.44,20.16" fill="none" stroke="rgb(115, 98, 98)" stroke-width="2.00" stroke-opacity="1.00" stroke-linejoin="round"/>
</g>
</svg>
