<svg width="93" height="42" viewBox="0 0 93 42" fill="none" xmlns="http://www.w3.org/2000/svg">
<path d="M22.8981 20C20.1499 20.0672 16.2164 19.8135 14.9976 23.2287C14.2386 25.3554 16.6746 26.3508 17.3835 27.9896C19.7502 33.4608 4.89564 35.462 2 35.8001" stroke="white" stroke-width="3" stroke-linecap="round"/>
<path d="M36.9118 33.881C32.947 31.2912 35.9736 27.7286 38.5743 25.5424C41.6952 23.5383 44.6353 27.3804 43.2832 32.2742C42.3666 35.5917 39.649 35.6689 36.9118 33.881Z" stroke="white" stroke-width="3" stroke-linecap="round"/>
<path d="M70.1813 5.38527C71.5576 3.50564 67.1909 -0.324513 66.6134 3.84181C65.914 8.88751 65.1243 14.6846 64.0648 20.3819C63.0054 26.0792 59.5118 42.6091 58.2032 39.6634C56.3601 35.5147 56.1161 29.6892 59.1257 25.8942C62.1353 22.0993 67.56 26.6579 68.5563 22.2607" stroke="white" stroke-width="3" stroke-linecap="round"/>
<path d="M82.9492 25.5434C85.4056 25.5434 87.2817 25.5434 90.5949 24.4722" stroke="white" stroke-width="3" stroke-linecap="round"/>
<path d="M87.0268 19.8293C85.9606 25.0528 83.4602 31.0768 83.4602 37.5633C83.4602 39.2851 87.5288 36.3072 89.5754 34.8749" stroke="white" stroke-width="3" stroke-linecap="round"/>
</svg>
