<svg xmlns="http://www.w3.org/2000/svg" xml:space="preserve" width="226.771" height="226.771"><switch><g><g fill-rule="evenodd" clip-rule="evenodd"><path d="M42.224 152.445c-2.118-.235-4.256.036-6.365-.175-3.534-.355-7.122-.217-10.608-.923-3.055-.618-6.032-1.604-8.989-2.603a126.72 126.72 0 0 1-3.216-1.148c-2.158-.797-3.576-3.152-3.344-5.424.091-.889.532-1.502 1.288-1.907a73.202 73.202 0 0 1 2.384-1.219c.683-.337 1.427-.343 2.166-.341 2.347.005 4.694.003 7.041.028.783.009 1.404-.243 1.99-.776.926-.843 1.833-1.698 2.675-2.629.704-.778 1.634-1.212 2.595-1.61 2.65-1.099 4.964-2.716 6.605-5.07a53.035 53.035 0 0 1 6.731-7.887 12.718 12.718 0 0 1 3.177-2.216c2.855-1.428 5.134-3.602 7.542-5.626.98-.823 1.883-1.648 2.613-2.725 1.117-1.646 2.816-2.728 4.302-4.009 1.185-1.021 2.433-1.971 3.805-2.731 1.213-.673 1.875-1.819 2.622-2.9 1.696-2.454 3.522-4.789 6.023-6.498.101-.107.296-.181.231-.361-.051-.14-.223-.113-.355-.121-.506-.028-1.016.06-1.52-.054-.915-.05-1.832-.075-2.745-.155-1.431-.122-2.346-1.012-3.016-2.182a1.96 1.96 0 0 1-.154-1.625c.506-1.518 1.325-2.689 3.012-3.104 1.882-.464 3.775-.335 5.67-.282 2.435.068 4.851.448 7.291.435 1.287-.007 2.517.182 3.689.801 1.641.865 3.427.677 5.188.507.397-.039.781-.251 1.174-.263 1.159-.029 1.742-.786 2.215-1.676 1.167-2.194 2.532-4.263 3.971-6.284.555-.781 1.142-1.543 1.879-2.171.493-.271.813-.731 1.215-1.104l.118-.11c.353-.138.561-.446.824-.691.783-.73 1.549-1.48 2.357-2.184.472-.409.958-.775 1.307-1.319.32-.501.846-.734 1.462-.55.663.198 1.103.716.969 1.35-.364 1.716.541 2.784 1.667 3.826a6.038 6.038 0 0 1 1.673 2.634 9.66 9.66 0 0 0 1.852 3.387c.595.699 1.041 1.506 1.502 2.297.271.466.646.594 1.169.589 1.875-.019 3.76-.214 5.614.214 1.287.297 2.535.731 3.697 1.365 1.102.599 2.347.699 3.513 1.07 3.171 1.009 6.509 1.387 9.645 2.526 3.797 1.377 7.79 2.212 11.448 3.942 2.339 1.107 4.783 2.001 7.037 3.271 2.232 1.258 4.425 2.596 6.438 4.197.281.224.583.313.932.284 1.532-.127 3.025.195 4.528.398.133.018.264.053.391.094a42.745 42.745 0 0 1 4.459 1.741 22.618 22.618 0 0 1 4.005 2.336c1.377 1.021 2.746 2.027 4.225 2.896.357.212.681.501.936.847.154.246.373.432.57.639.159.158.298.347.532.406l-.005-.005c.166.239.433.313.68.419 1.936.967 3.892 1.899 5.377 3.553.402.449.876.829 1.389 1.15 1.637 1.03 2.942 2.447 4.366 3.729.77.714 1.435 1.541 2.275 2.181.505.386.882.899 1.175 1.436 1.128 2.052 2.926 3.475 4.603 5.012.864.792 1.817 1.492 2.522 2.448.159.153.263.358.449.486.237.29.511.558.708.872.579.923 1.37 1.61 2.288 2.175.624.383 1.2.83 1.661 1.41.173.23.354.455.576.642.808.813 1.484 1.729 2.103 2.686.588.913 1.266 1.718 2.183 2.326 1.1.731 2.065 1.64 3.076 2.485 1.233 1.027 1.379 2.577.286 3.777-1.561 1.713-3.541 2.33-5.779 1.821a16.448 16.448 0 0 0-3.579-.425c-3.176-.011-6.354-.06-9.526.014-2.379.057-4.666-.368-6.954-.912-1.346-.321-2.705-.586-4.062-.859-.405-.082-.743-.125-.806.518-.065.681-.605 1.104-1.274 1.205a5.366 5.366 0 0 0-1.821.617c-.228.126-.506.17-.767.223-.629.127-1.282.085-1.897.349-.244.103-.593.068-.857-.013-1.473-.459-2.949-.457-4.435-.096-.92.224-1.855.23-2.793.282-3.201.172-6.379-.41-9.576-.27-1.85.081-3.698.166-5.521.524a3.65 3.65 0 0 1-.665.08c-2.413.018-4.896.394-7.223-.051-3.088-.591-6.097.082-9.135-.107-1.178-.073-2.358-.046-3.542-.152-1.793-.161-3.558.243-5.315.569-.594.108-1.176.267-1.788.202a1.062 1.062 0 0 0-.706.165c-.64.422-1.355.546-2.103.588-2.125.119-4.158.851-6.261 1.022-1.942.16-3.786.897-5.75.84-.848-.024-1.702-.118-2.545-.059-1.91.136-3.824.279-5.719.546-1.337.188-2.676.074-4.01.236-3.189.389-6.387-.03-9.582.002-1.466.015-2.878.335-4.328.416-4.023.224-8.043-.026-12.064 0-2.62.017-5.208-.362-7.813-.521-1.115-.068-2.26-.173-3.34-.065-1.059.104-2.122.46-3.211.541-2.459.182-4.867.772-7.229 1.346-3.298.803-6.58.431-9.867.561-1.406.057-2.808-.012-4.189.391-.814.237-1.686.234-2.53.082-1.011-.183-1.539-.973-1.277-1.971.392-1.495 1.378-2.574 2.587-3.475.375-.25.02-.278-.112-.373z"/><path fill="#2C2C2C" d="M197.957 122.898c-.489-.065-.705-.492-.998-.795-.438-.449-.985-.803-1.277-1.386.864.616 1.536 1.434 2.275 2.181z"/><path fill="#464646" d="M71.617 93.521c.666-.021 1.331-.041 1.996-.067.095-.003.182.005.229.093.071.135-.022.214-.121.266-.154.08-.257.257-.459.245.191-.321.127-.467-.273-.47-.458-.005-.922.087-1.372-.067z"/><path fill="#232323" d="M101.006 76.417c-.301.482-.627.937-1.215 1.104.317-.464.764-.786 1.215-1.104z"/><path fill="#414141" d="M42.224 152.445c.178-.03.425-.187.494.082.066.257-.167.304-.382.29.025-.143.017-.275-.112-.372z"/><path fill="#232323" d="M101.948 75.615c-.169.356-.38.664-.824.691.231-.28.502-.517.824-.691z"/><path fill="#373737" d="M183.292 111.524c-.194-.217-.501-.349-.52-.697.29.156.455.431.651.675-.036.049-.08.057-.131.022z"/><path fill="#222" d="M184.55 112.286c-.345.051-.574-.083-.68-.419.264.079.492.216.68.419z"/><path fill="#3A3A3A" d="M211.939 137.379c-.306-.11-.516-.309-.576-.642.251.16.45.368.576.642z"/><path fill="#222" d="m183.292 111.524.132-.022.451.37c-.298.058-.426-.17-.583-.348z"/><path fill="#2F2F2F" d="M206.706 132.28c-.264-.057-.406-.226-.449-.486.251.069.354.274.449.486z"/><path fill="#FEFEFE" d="m155.946 138.508-.018.237c-.194.324-.329.677-.51 1.008-.676 1.358-1.191 2.793-1.945 4.116-.462.812-.79 1.679-1.048 2.576-.175.643-.451 1.254-.569 1.915-.056.303-.245.493-.581.366-1.07-.405-2.16-.227-3.244-.114a22.952 22.952 0 0 1-3.144.128c-.828-.029-1.649.094-2.478.074-.402-.009-.573-.155-.512-.57.176-1.173.007-2.308-.348-3.436-.167-.53-.111-1.107-.195-1.657-.516-3.338-1.243-6.626-2.39-9.81-.062-.171-.154-.322-.237-.479-.219-.434-.464-.857-.583-1.336-.126-.64-.56-1.127-.84-1.691-.634-.915-1.479-1.357-2.618-1.303-1.202.057-2.409-.039-3.608.135-.397.058-.605-.097-.703-.512-.154-.658-.087-1.328-.196-1.992-.214-1.308-.653-2.541-1.098-3.774-.205-.566-.666-.949-1.21-1.195-1.929-.868-3.89-1.704-5.969-2.074-1.248-.221-2.477-.507-3.715-.758-.942-.191-1.826.274-2.253 1.18-.431.911-.52 1.896-.367 2.874.13.835.574 1.525 1.441 1.77 1.73.488 3.354 1.334 5.167 1.536.102.008.205.014.3.059.458.615.39 1.382.566 2.075.152.588.255 1.194.375 1.793.065.327.073.617-.238.826-.593.347-1.319.409-1.859.872-.898.683-.932 1.658-.878 2.649.014.241.042.484.047.729.027 1.115-.055 2.23.045 3.343.304 1.59.727 3.155.855 4.781.044.558-.047.869-.589 1.079-.985.381-1.968.652-3.046.604a35.687 35.687 0 0 0-3.205.007.725.725 0 0 1-.336.033c-.331-.098-.66-.051-.989.011-.942 0-1.883.003-2.824-.001-.297-.08-.601-.061-.903-.065-1.383-.165-2.752-.028-4.119.188-.277.044-.62.223-.814-.05-.179-.251.062-.543.16-.807.187-.502.446-.972.685-1.449.71-1.424 1.252-2.901 1.5-4.481.143-.908.625-1.714.83-2.604a.824.824 0 0 1 .041-.202c.157-.356.335-.707.384-1.104.367-1.122.756-2.234 1.512-3.17.427-.41.708-.938 1.106-1.372.246-.347.405-.748.695-1.066l.047-.223c.692-.812 1.041-1.84 1.683-2.683.748-.992 1.121-2.179 1.668-3.274.325-.65.095-1.294-.518-1.694-.324-.213-.455-.449-.448-.821.017-.824-.015-1.649.238-2.452.278-.883.869-1.549 1.533-2.146.451-.403.9-.801 1.252-1.296.91-1.397 1.792-2.815 3.081-3.913.406-.345.663-.815 1.078-1.171.698-.598 1.579-.688 2.361-1.038.949-.215 1.618-.984 2.53-1.273.852-.094 1.619-.465 2.41-.748.888-.317 1.389-.217 1.97.542.317.412.743.7 1.123 1.039 1.365 1.215 2.574 2.576 3.786 3.938 2.073 2.251 4.092 4.544 5.354 7.385a.984.984 0 0 1 .076.253c1.469 3.339 2.233 6.877 2.923 10.432.211 1.08.578 2.094.947 3.115.191.825.534 1.59.943 2.327 1.018 1.011 2.58 1.276 3.715.633.214-.121.425-.244.528-.486.307-.553.662-1.075 1.048-1.577.623-1.052 1.044-2.168 1.025-3.405-.04-2.427.186-4.865-.254-7.274a11.933 11.933 0 0 0-1.721-4.385c-.061-.093-.116-.189-.181-.28-.134-.187-.275-.417-.071-.597.211-.186.34.107.496.194.991.547 2.048.993 2.816 1.88 1.268 1.46 2.935 2.536 4.019 4.175.123.187.243.373.346.571.114.202.252.396.325.62.541.819.888 1.738 1.343 2.602.921 1.045.83 2.137.208 3.293-.59 1.1-.822 2.338-1.271 3.494a13.71 13.71 0 0 0-.633 1.715c-.044.115-.114.219-.156.336a4.089 4.089 0 0 0-.278.563c-.135.267-.277.53-.364.818a.774.774 0 0 1-.071.164c-.173.229-.301.493-.436.755z"/><path fill="#FC4828" d="M74.261 146.963c-.145.268-.099.561-.106.847-.017.697-.277 1.274-.955 1.528-.663.249-1.265.084-1.722-.487-.125-.157-.245-.313-.46-.347a19.01 19.01 0 0 1-.236-2.982c-.024-4.844-.021-9.687-.001-14.53.003-.849-.239-1.681-.125-2.53.598-1.516 2.086-1.703 3.266-.409.171.676.186 1.363.185 2.057-.007 3.592 0 7.185-.006 10.776-.004 2.026-.015 4.053.16 6.077z"/><path fill="#FDFDFD" d="M149.066 128.142c-.038.754.15 1.857-.243 2.922-.18.487-.408.941-.705 1.363-.088.126-.161.3-.338.292-.19-.007-.225-.2-.271-.343-.446-1.375-1.098-2.68-1.277-4.151-.124-1.015-.423-2.01-.676-3.004-.135-.533.083-.564.514-.481.833.158 1.663.352 2.517.367.387.006.49.208.485.557-.013.714-.006 1.429-.006 2.478z"/><path fill="#C7C7C7" d="M67.837 104.367c2.21-3.196 4.338-6.462 7.648-8.699.664-.449 1.374-.837 1.964-1.396.575-.544 1.064-1.123.816-1.985-.254-.879-.982-1.179-1.784-1.303a10.838 10.838 0 0 0-1.737-.11c-1.744.013-3.486-.003-5.226-.145-.463-.036-1-.1-1.049-.626-.05-.527.356-.881.881-1.037 1.38-.408 2.796-.293 4.199-.255 2.971.083 5.922.513 8.899.504a2.74 2.74 0 0 1 1.356.329c2.119 1.176 4.436 1.294 6.723.956 1.708-.253 3.466-.41 5.103-1.063 1.035-.413 2.018-.975 3.156-1.087l.597-.058c.602-.108 1.208-.022 1.813-.048.218.1.105.204-.012.271-.265.151-.564.114-.854.113a8.483 8.483 0 0 0-3.578.766c-1.146.519-2.309.955-3.586 1.025-.444.025-.875.177-1.312.273-2.755.605-5.454.583-8.044-.713a3.831 3.831 0 0 0-1.754-.397c-1.924.017-3.842-.111-5.751-.301-1.855-.185-3.708-.067-5.562-.113-.382-.01-.762.024-1.124.154-.274.098-.611.205-.572.559.037.328.39.355.643.354.918-.002 1.825.163 2.742.166 1.14.005 2.28.003 3.421.002.64 0 1.242.144 1.803.447 1.126.611 1.429 1.848.707 2.912-.436.645-1.046 1.104-1.689 1.513-2.765 1.753-4.985 4.046-6.775 6.772-.538.82-1.056 1.658-1.851 2.27a.223.223 0 0 1-.211-.05z"/><path fill="#B5B5B5" d="M101.321 88.434c-.646-.014-1.292-.026-1.938-.041 1.417-.128 2.833-.319 4.252-.367 1.786-.062 3.572.045 5.354.222.507.051.659.227.667.745.023 1.478.527 2.901.558 4.382.107 5.119.728 10.206.979 15.313.146 2.967.089 5.941-.056 8.912-.066 1.349-.281 2.721.185 4.055.093.266-.097.448-.286.548-1.714.921-2.746 2.527-3.973 3.934-1.588 1.819-3.708 2.927-5.628 4.3-.415.297-.867.542-1.301.81-.076.057-.143.048-.202-.025.042-.37.363-.488.613-.657 1.187-.798 2.352-1.628 3.553-2.404 1.596-1.032 2.854-2.434 4.018-3.91.604-.767 1.249-1.459 2.096-1.943.49-.281.693-.658.525-1.226-.128-.433-.122-.886-.102-1.332.136-2.987.359-5.977.254-8.969-.061-1.761-.21-3.519-.325-5.277-.142-2.183-.287-4.367-.493-6.541-.272-2.887-.039-5.813-.693-8.669-.055-.239-.07-.485-.088-.731-.057-.778-.185-.887-.981-.958a36.065 36.065 0 0 0-6.355-.026c-.222.014-.448.021-.633-.145z"/><path fill="#D6D6D6" d="M122.253 125.848c-.707.035-1.375-.157-2.015-.412a22.008 22.008 0 0 0-2.523-.853c-2.076-.552-2.487-1.611-2.281-3.737.025-.264.094-.526.167-.781.431-1.492 1.448-2.118 2.942-1.726 1.316.347 2.702.384 3.984.759 1.46.426 2.966.801 4.33 1.542.504.273 1.099.346 1.57.724.67.538.924 1.289 1.167 2.061.458 1.447.867 2.9.851 4.44-.004.432.141.719.738.656a26.12 26.12 0 0 1 3.936-.111c1.032.048 1.819.521 2.298 1.462-.043.084-.095.091-.157.021-.765-.991-1.783-1.349-3.009-1.266-1.047.07-2.104.047-3.147.153-.638.064-.862-.175-.879-.751-.049-1.67-.453-3.264-.967-4.846-.348-1.068-.99-1.714-2.021-2.146-1.465-.615-2.974-1.093-4.47-1.61-.209-.074-.429-.167-.645-.171-1.246-.019-2.413-.425-3.613-.678-1.48-.313-2.366.267-2.701 1.75a5.938 5.938 0 0 0-.139 1.128c-.049 1.699.458 2.435 2.102 2.863 1.023.266 1.986.679 2.98 1.012.335.067.652.213 1.01.204.204-.005.44.032.492.313z"/><path fill="#B9B8B7" d="M123.988 139.314a3.586 3.586 0 0 1-.28-1.121c-.148-.248.028-.543-.114-.792-.004-.049-.005-.098-.008-.146-.156-1.06-.038-2.125-.063-3.186-.004-.167.11-.284.212-.403 1.312-.655 2.809-.694 4.155-1.241.213-.086.492-.068.727-.024.672.126 1.283.035 1.838-.386.221-.166.495-.203.764-.219.913-.051 1.829-.08 2.74-.147.588-.043.953.17 1.207.72.99 2.139 1.655 4.377 2.235 6.654.635 2.492.784 5.066 1.376 7.563.108.46.121.931-.046 1.389-.057.115-.15.108-.252.074a.39.39 0 0 1-.101-.164c.19-.959-.248-1.848-.322-2.778-.02-.27-.032-.538-.118-.799-.52-3.772-1.313-7.473-2.806-10.996-.509-1.205-.542-1.222-1.825-1.225-.761-.003-1.599-.049-2.248.212-1.024.413-2.035.442-3.084.574-1.064.133-2.108.551-3.176.793-.563.127-.755.473-.778 1.062-.071 1.889.094 3.742.6 5.563.049.174.074.35.08.527.001.24-.015.482.064.716.107.392-.02.829.235 1.19.18.239.458.034.666.144.161.208.024.302-.145.384-.279-.062-.58.078-.846-.097l-.005-.005c-.385-.323-.104-.802-.272-1.176a7.874 7.874 0 0 0-.016-.16c-.16-.339.03-.715-.113-1.057l-.005-.019c-.124-.467-.116-.962-.276-1.424z"/><path fill="#D8C5C2" d="M70.817 128.288c.248 5.473.031 10.948.133 16.42.018 1.027.09 2.053.15 3.078.015.248.024.488-.082.719l-.96.457c-.07.058-.134.052-.193-.017-.018-.149.041-.294.161-.345.686-.296.645-.87.615-1.467-.279-5.653-.076-11.313-.137-16.969a8.623 8.623 0 0 0-.045-.803c-.049-.479-.212-.836-.72-1.016a1.75 1.75 0 0 1-1.061-1.066c-.646-1.761-1.175-3.558-1.513-5.408a4.883 4.883 0 0 1 .016-.755c.062-.34.103-.69.308-.982.16-.228.318-.489.674-.335a.33.33 0 0 1 .056.195c-.756 1.036-.555 2.107-.184 3.227.362 1.093.593 2.229.985 3.317.146.405.325.776.654 1.062.269.414.868.283 1.143.688z"/><path fill="#BFBFBF" d="M165.984 143.858c-1.747-1.868-3.72-3.48-5.729-5.053a2.54 2.54 0 0 0-.222-.15c-.847-.52-.84-.517-.454-1.414.3-.698.603-1.396.866-2.109.18-.486.321-.481.644-.091 1.407 1.714 2.687 3.519 3.898 5.372a16.661 16.661 0 0 0 4.728 4.79c1.27.849 2.417 1.843 3.506 2.908.133.129.382.251.276.479-.083.178-.322.095-.493.119-.547.034-1.095.097-1.637-.035-.078-.11-.372-.017-.274-.292.519-.199 1.056.155 1.584-.061.09-.192-.095-.271-.19-.365-.754-.734-1.515-1.47-2.404-2.029-2.596-1.629-4.561-3.847-6.173-6.418a34.019 34.019 0 0 0-2.688-3.679c-.373-.447-.436-.444-.649.064-.226.536-.415 1.087-.684 1.604-.183.349-.063.56.244.778 2.066 1.462 3.952 3.141 5.759 4.907.211.207.522.387.41.776-.156.124-.226-.022-.318-.101z"/><path fill="#D8D0CE" d="M74.261 146.963c-.43-.729-.298-1.557-.307-2.325-.047-4.351-.028-8.701-.034-13.052-.001-1.225.07-2.454-.193-3.664-.11-.129-.114-.288-.118-.443-.014-.582-.332-.949-.833-1.186-.444-.206-.92-.344-1.323-.638-.11-.111-.179-.237-.145-.399.035-.081.096-.116.183-.107.593.202 1.156.478 1.708.762.78.401 1 1.109 1.054 1.952.252 3.904.072 7.813.122 11.72.023 1.854-.013 3.708.012 5.561.015 1.212.123 1.281 1.206.819.904-.385 1.8-.788 2.729-1.112.251-.088.497-.213.776-.117.079.049.098.116.059.202-1.632.674-3.264 1.351-4.896 2.027z"/><path fill="#D1D1D1" d="M52.428 150.698c-3.405-.292-6.824-.415-10.211-.923-1.929-.291-3.888-.037-5.826-.168-3.388-.227-6.772-.511-10.158-.777-.219-.016-.434-.089-.651-.136-.041-.088-.021-.16.058-.217.207-.12.428-.088.652-.072 4.536.328 9.062.807 13.622.758 1.917-.021 3.814.402 5.723.573 1.554.139 3.106.315 4.669.347.804.017 1.601.121 2.396.229.25.032.553.021.677.335-.307.195-.629.115-.951.051z"/><path fill="#AFAFAF" d="M138.734 132.717c.639.968.87 2.095 1.166 3.179.765 2.798 1.463 5.613 1.681 8.521.049.646.361 1.236.43 1.89.061.582.114 1.153.002 1.732-.081.417-.015.673.521.651 1.984-.08 3.974.013 5.955-.242.898-.115 1.831-.194 2.721.146.336.129.484.017.566-.325.162-.673.361-1.336.545-2.003.07-.051.127-.038.17.037.019.315-.076.604-.225.876-.209.425-.212.898-.332 1.345-.085.314-.249.473-.582.34-1.133-.449-2.296-.252-3.445-.137-1.871.186-3.75.074-5.622.19-.45.028-.572-.137-.51-.594.147-1.095.092-2.182-.266-3.242-.209-.62-.174-1.282-.271-1.919-.526-3.426-1.261-6.804-2.492-10.056-.088-.126-.098-.255-.012-.389z"/><path fill="#B2B2B2" d="M157.257 124.255c-2.071-2.795-4.468-5.23-7.574-6.912-.128.288.034.458.157.642 1.332 2.002 1.998 4.223 2.063 6.612a90.114 90.114 0 0 1-.005 5.695c-.041 1.107-.314 2.195-1.071 3.083-.087-.087-.07-.18-.017-.273.86-1.531 1.005-3.191.941-4.908-.065-1.741.059-3.491-.226-5.224-.285-1.742-.86-3.373-1.853-4.843-.281-.417-.373-.872-.461-1.327 2.99 1.473 5.218 3.781 7.387 6.157.342.374.677.775.825 1.284-.049.071-.104.075-.166.014z"/><path fill="#393939" d="M146.667 122.231c-.601-.038-1.169-.268-1.781-.263-.366.004-.422-.354-.508-.624a36.247 36.247 0 0 0-1.691-4.367c-1.09-2.333-2.689-4.305-4.357-6.229-.979-1.13-1.971-2.248-2.951-3.375-.084-.097-.128-.226-.21-.375.361-.11.612.086.824.233 1.175.817 2.503 1.26 3.856 1.653.232.067.479.12.651.318-.064.088-.156.124-.26.137-1.353-.363-2.717-.698-3.853-1.439.749.91 1.582 1.829 2.375 2.784.983 1.183 2.022 2.32 2.85 3.628a26.464 26.464 0 0 1 2.976 6.492c.178.585.426.924 1.107.895.346-.015.771-.011 1.028.354a.219.219 0 0 1-.056.178z"/><path fill="#D0D0D0" d="M125.492 145.856c1.939-.065 3.845.68 5.685 1.62.8.408.785.679.042 1.13-.3.184-.527.435-.604.771-.14.618-.583.822-1.131.847-.758.034-1.513.074-2.26.225-.274.055-.515-.019-.755-.179-1.504-.998-2.527-2.51-3.903-3.645-.362-.299-.076-.474.222-.51.839-.102 1.665-.331 2.704-.259z"/><path fill="#BEBEBE" d="M107.867 135.114c.004.023.019.048.012.066-.901 2.25-1.051 4.738-2.207 6.911-.425.799-.86 1.604-1.1 2.606 1.676-.288 3.291-.402 4.913-.311.265.152.57-.009.839.107l3.02.002c.291-.072.582-.069.872-.001l.201.001c1.591-.049 3.183-.126 4.772.04-.288.166-.609.121-.916.117-3.125-.027-6.251.122-9.375-.074-1.342-.085-2.677.058-3.996.325-.674.138-.73.091-.471-.575.291-.747.635-1.475.975-2.203.475-1.012.959-2.021 1.155-3.133.218-1.237.617-2.42 1.058-3.591.097-.082-.009-.339.248-.287z"/><path fill="#949494" d="M106.643 147.32c.782-.258 1.592-.183 2.382-.132 3.255.207 6.511.018 9.767.03.484.001.848.109 1.174.479.93 1.054 2.076 1.896 2.974 2.982.127.151.357.288.294.493-.08.257-.37.2-.582.219-1.219.103-2.43.262-3.626.525-.059-.057-.067-.12-.026-.19.305-.287.707-.302 1.083-.39.244-.018.489-.022.715-.132.455-.147.932-.094 1.395-.161.332-.048.399-.186.164-.423-.912-.92-1.805-1.861-2.762-2.737-.288-.262-.666-.226-1.022-.226-2.458-.002-4.917 0-7.375-.002-.379 0-.761.018-1.137-.067-.866-.142-1.738-.025-2.605-.067-.283-.013-.59.058-.813-.201z"/><path fill="#C7C7C7" d="M119.19 144.537c-1.59-.015-3.182-.026-4.772-.04.948-.223 1.912-.104 2.864-.089 1.176.017 2.298-.103 3.405-.545.58-.231.649-.563.58-1.081-.179-1.349-.326-2.698-.738-4.005-.065-.206-.039-.442-.055-.666-.107-.933-.016-1.867-.05-2.802-.009-.241.06-.49-.061-.723-.001-.575.001-1.151-.004-1.727-.006-.724.332-1.25.919-1.641.115-.069.225-.078.326.025-.899.672-1.131 1.6-1.061 2.666.047.713.072 1.43.054 2.144-.033 1.307.083 2.583.464 3.842.333 1.097.314 2.254.488 3.38.044.287-.08.471-.337.582-.655.284-1.31.57-2.022.68z"/><path fill="#AEAEAE" d="M12.7 143.856c-.58-.927-.429-1.145.446-1.702 1.21-.771 2.494-.849 3.847-.818 1.673.038 3.35-.02 5.021.049 1.727.071 3.286-.224 4.497-1.576.08-.052.142-.035.185.05-.425.995-1.313 1.4-2.246 1.729-.465.163-.963.172-1.457.171-2.411-.004-4.824.034-7.234-.019-1.042-.023-1.828.499-2.667.948-.412.221-.195.643-.267.974a.392.392 0 0 1-.125.194z"/><path fill="#484848" d="M146.667 122.231c.002-.049.003-.099.006-.148.282-.235.593-.114.896-.066.746.117.832.045.515-.662-.666-1.479-1.354-2.967-2.146-4.368-.698-1.236-.449-2.637 1.377-2.749-.526-.617-1.108-1.126-1.638-1.686-.213-.225-.481-.407-.559-.737 0-.067.023-.127.068-.178 1.085.966 2.134 1.964 3.078 3.135-.384.19-.558-.015-.752-.071-.56-.164-1.024-.009-1.389.4-.383.43-.251.9-.023 1.371.841 1.729 1.685 3.456 2.495 5.199.361.778.211.956-.642.84-.433-.057-.857-.184-1.286-.28z"/><path fill="#ACACAC" d="M43.146 124.639c1.535-1.838 3.376-3.295 5.499-4.402 2.032-1.061 3.876-2.367 5.458-4.047.531-.565 1.197-1.001 1.801-1.496.061-.039.119-.035.175.011.05.33-.197.484-.407.637-1.145.83-2.068 1.905-3.139 2.817-.479.409-.949.824-1.503 1.115-1.426.748-2.75 1.67-4.159 2.445-1.1.605-1.869 1.583-2.761 2.424-.239.226-.426.529-.793.583a.273.273 0 0 1-.171-.087z"/><path fill="#EFEFEF" d="M181.404 146.493c.155 0 .313.019.467-.004.539-.074.855.085.813.696-.007.125.066.257.117.38.267.639.234.67-.454.615-.926-.072-1.434-.741-1.986-1.348-.185-.202-.064-.321.175-.329.29-.007.579 0 .869 0l-.001-.01z"/><path fill="#929292" d="m79.158 144.935-.02-.155c.391-.479.956-.712 1.461-1.028 1.819-1.141 3.915-1.754 5.691-2.978 1.58-1.089 3.196-2.129 4.659-3.381.236-.202.467-.42.796-.468a.279.279 0 0 1 .173.086c-1.102 1.152-2.47 1.963-3.737 2.904-1.653 1.229-3.405 2.28-5.322 3.05-.998.4-1.896.99-2.812 1.543-.28.17-.535.404-.889.427z"/><path fill="#B2B2B2" d="M117.021 113.798c-.256.573-.745.954-1.208 1.319-1.582 1.248-1.928 2.919-1.779 4.796.024.307.247.393.438.541.607.469.821 1.024.525 1.708-.479 1.104-1.031 2.178-1.561 3.262-.033.068-.133.106-.203.159-.079-.088-.062-.181-.013-.273.604-.886.918-1.917 1.438-2.846.437-.78.264-1.428-.468-1.901-.291-.188-.345-.413-.374-.718-.195-2.083.425-3.818 2.105-5.135.345-.27.618-.631.923-.948.074-.055.133-.044.177.036z"/><path fill="#8D8D8D" d="M144.513 132.442c-1.041-2.302-1.275-4.813-1.842-7.235-.456-1.954-1.145-3.819-1.794-5.705l-.263-.754c.046-.075.094-.077.144-.004.863 1.899 1.494 3.876 1.987 5.899.635 2.598.975 5.267 1.916 7.789-.045.067-.095.067-.148.01z"/><path fill="#AFAFAF" d="m12.7 143.856.036-.199c.067.007.15.01.187.06.753 1.081 1.999 1.245 3.097 1.704 2.908 1.219 6.047 1.7 8.974 2.852.205.079.441.086.6.269a7.336 7.336 0 0 1-.011.153c-.909-.02-1.727-.4-2.564-.679a38.666 38.666 0 0 0-3.403-.968c-2.002-.466-3.845-1.398-5.794-2.023-.539-.173-.906-.627-1.122-1.169z"/><path fill="#8C8C8C" d="m52.428 150.698.945-.001c.034-.008.068-.014.101-.02a6.828 6.828 0 0 1 1.356.016c.075.011.148.028.22.05 1.38-.139 2.764-.074 4.145-.112 1.008-.028 1.999.181 3.003.162.078.007.154.022.229.043.968.127 1.937.106 2.906.01.412-.108.792-.314 1.208-.415.151-.014.292.005.396.13-.653.4-1.352.729-2.124.687-3.65-.198-7.307-.134-10.958-.28-.479-.021-.978-.04-1.427-.27z"/><path fill="#CACACA" d="M125.106 123.634c.907.08 1.229.524 1.484 1.212.502 1.349.447 2.768.7 4.145.054.294-.062.47-.366.519-.315.051-.375-.159-.422-.392-.215-1.049-.436-2.096-.645-3.146-.155-.781-.314-1.559-.751-2.338z"/><path fill="#BEBEBE" d="M106.643 147.32c.936.008 1.872.008 2.807.029.237.005.496-.059.707.119-.305.274-.68.179-1.025.174-1.544-.019-3.083-.026-4.569.498-.602.212-.656.301-.353.845.197.352.417.7.726.956.76.627 1.433 1.345 2.125 2.041.29.292.613.433 1.018.408.187.017.376.025.5.197-.746.277-1.369.274-1.942-.45-.521-.659-1.194-1.203-1.826-1.77-.563-.507-.913-1.151-1.271-1.795-.167-.301-.117-.498.238-.603.941-.275 1.864-.629 2.865-.649z"/><path fill="#CECECE" d="M108.579 152.588c-.197-.014-.395-.025-.593-.04.066-.274.315-.284.521-.345.279-.079.57-.146.855-.144 1.985.01 3.928-.5 5.91-.493 1.132.003 2.26.235 3.396.064a.386.386 0 0 1 .357.146v.142c-.688.277-1.406.222-2.117.181-1.61-.094-3.203-.104-4.8.234-1.152.243-2.362.024-3.529.255z"/><path fill="#B6B6B6" d="m43.146 124.639.183.021c.043.205-.083.345-.21.464-1.747 1.621-2.926 3.688-4.364 5.553-.984 1.276-2.121 2.397-3.46 3.304-.178.121-.346.297-.601.209a.152.152 0 0 1 .005-.178c.65-.61 1.438-1.044 2.085-1.665 1.361-1.309 2.407-2.861 3.471-4.398.842-1.216 1.788-2.328 2.891-3.31z"/><path fill="#C2C2C2" d="M135.241 111.238c-.705-.739-1.438-1.455-2.107-2.227-.979-1.13-2.242-1.964-3.187-3.133-.339-.42-.876-.317-1.375-.169-.866.26-1.661.76-2.594.8.003-.312.328-.085.418-.25.713-.254 1.42-.527 2.142-.755.874-.274 1.339-.098 1.91.59.269.323.586.609.902.889 1.418 1.26 2.747 2.604 3.926 4.092.054.069.042.123-.035.163z"/><path fill="#3A0904" d="m124.674 143.155.97.029c1.012.606 2.191.639 3.29.945.386.104.775.18 1.174.236.688.1 1.341.306 1.852.829.266.272.605.448.936.635.226.127.506.214.509.551-.049.071-.106.081-.176.029-.53.044-.95-.333-1.205-.626-.896-1.029-2.164-.907-3.271-1.289-.768-.264-1.599-.067-2.318-.419-.594-.29-1.066-.816-1.761-.92z"/><path fill="#B8B8B8" d="M158.741 140.904c1.007.847 2.004 1.705 3.022 2.537 1.617 1.319 2.912 2.952 4.346 4.448.11.151.335.3.15.505-.16.177-.364.054-.545-.032-.123-.059-.231-.128-.289-.255-.095-.131.395-.117.063-.343-.427-.291-.695-.751-1.021-1.145-1.625-1.952-3.65-3.462-5.559-5.104-.168-.144-.372-.251-.457-.476a.223.223 0 0 1 .033-.181c.097-.046.185-.044.257.046z"/><path fill="#B6B6B6" d="M165.183 135.939c-.722-.902-1.452-1.797-2.16-2.711-.31-.4-.623-.769-1.173-.792-.285-.012-.459-.119-.292-.401.158-.269.195-.961.586-.684 1.22.865 2.762 1.315 3.605 2.684a.211.211 0 0 1-.173.054c-1.012-.924-2.238-1.522-3.409-2.225 1.26 1.092 2.197 2.436 3.099 3.811.015.102-.002.193-.083.264z"/><path fill="#B1B1B1" d="m91.918 137.011-.182-.037c.219-.631.816-.914 1.264-1.319 1.895-1.72 4.122-2.961 6.302-4.265.188-.112.381-.24.624-.172.07.01.139.02.208.027-.971.789-2.111 1.307-3.166 1.961-1.801 1.118-3.408 2.482-5.05 3.805z"/><path fill="#DDD" d="M177.168 148.471c-.169.034-.298.005-.342-.098-.234-.564-.706-.972-.99-1.499-.092-.171-.191-.411.009-.551.171-.115.332.065.456.188.398.388.799.776 1.177 1.186.151.162.479.305.322.576-.122.21-.446.146-.632.198z"/><path fill="#9E9E9E" d="m34.699 134.012.013.154c-.012.199-.141.329-.286.43-1.042.727-2.059 1.5-3.3 1.87a4.297 4.297 0 0 0-2.224 1.512c-.397.508-.877.951-1.366 1.373-.244.21-.473.485-.847.482l-.18-.024c.96-.896 1.905-1.806 2.79-2.781.203-.225.488-.421.773-.517 1.693-.562 3.191-1.471 4.627-2.499z"/><path fill="#747474" d="m135.241 111.238.036-.163c2.175 2.309 4.298 4.653 5.481 7.669l-.144.004c-1.268-2.876-3.323-5.191-5.373-7.51z"/><path fill="#E3E3E3" d="m165.589 134.058.16-.022c.69.823 1.155 1.779 1.577 2.756.351.815.712 1.624 1.209 2.364.197.468.709.773.699 1.349-.341.065-.47-.204-.613-.415-.577-.847-1.122-1.712-1.484-2.678a15.214 15.214 0 0 0-1.303-2.626c-.135-.22-.341-.426-.245-.728z"/><path fill="#818181" d="m117.021 113.798-.175-.036c1.004-1.792 2.391-3.275 3.793-4.748.689-.723 1.547-1.119 2.521-1.288.113-.064.221-.075.315.032-.81.392-1.797.429-2.436 1.161-1.092 1.254-2.433 2.294-3.25 3.789-.21.388-.51.727-.768 1.09z"/><path fill="#B8B8B8" d="m161.028 144.388-3.368-2.281c-.179-.15-.27-.318-.11-.537l-.001.003c.096-.271.2-.541.358-.782.226-.342.441-.333.61.059-.024.028-.049.057-.071.085-.584.665-.567.786.159 1.281.938.641 1.912 1.227 2.809 1.925.216.168.509.31.419.678-.098.051-.186.041-.26-.044l.002.003c-.201-.104-.348-.283-.547-.39z"/><path fill="#2E0D09" d="M133.229 146.41a5.87 5.87 0 0 1 .184-.03c.288-.121.401.087.505.283.082.156.128.329.186.497.402 1.173.966 1.491 2.232 1.266.568-.049 1.106-.24 1.656-.37a.899.899 0 0 1 .49-.031l.248-.05c-.505.563-1.251.592-1.899.82-.387.136-.834.152-1.252.142-.982-.029-1.641-.594-1.91-1.643a2.166 2.166 0 0 0-.44-.884z"/><path fill="#C6C6C6" d="M157.796 134.155c.425-1.424.873-2.843 1.527-4.181.373-.764.302-1.438-.186-2.106-.117-.158-.193-.347-.289-.522.055-.061.115-.065.18-.015.85.955.98 1.967.353 3.112-.57 1.04-.835 2.207-1.236 3.318-.09.248-.125.523-.321.726-.102-.102-.093-.215-.028-.332z"/><path fill="#595959" d="M171.083 148.422c.094.085.19.169.285.252-.406.067-.668-.219-.952-.413-1.694-1.157-3.037-2.685-4.372-4.217-.04-.045-.041-.123-.06-.186l.284.115c.384.124.614.441.85.727 1.058 1.278 2.249 2.403 3.625 3.333.145.099.309.188.34.389z"/><path fill="#E0E0E0" d="M58.878 111.495c1.178-1.252 2.522-2.312 3.87-3.369.057-.044.115-.045.173-.003.066.266-.118.42-.281.559-1.129.964-2.281 1.902-3.346 2.94-.109.105-.24.206-.416.133-.078-.087-.076-.174 0-.26z"/><path fill="#BCBCBC" d="M152.457 146.27a279.69 279.69 0 0 1-.136-.003c.754-2.324 2.042-4.401 3.058-6.605.092.094.091.193.015.296-.182.444-.362.889-.544 1.331a23.515 23.515 0 0 1-1.207 2.42c-.104.17-.099.402-.29.524-.114.061-.108.172-.114.278-.116.212-.135.465-.28.666l.002-.001c-.107.215-.107.478-.288.661-.139.107-.102.262-.115.403-.018.072-.05.083-.101.03z"/><path fill="#3F3F3F" d="m150.811 133.102.017.273-.954 1.454c-.743.974-2.856 1.239-3.76.463-.128-.109-.301-.213-.265-.432.637.38 1.305.571 2.067.563.893-.011 1.531-.352 2.013-1.079.279-.423.495-.895.882-1.242z"/><path fill="#AEAEAE" d="M157.265 146.009c-.38-.224-.764-.442-1.14-.673-.329-.203-.17-.452-.044-.689.122-.229.285-.355.531-.169 1.056.802 2.291 1.353 3.242 2.304a.247.247 0 0 1-.157.093c-.859-.386-1.563-1.02-2.364-1.494-.264-.156-.48-.4-.899-.453.197.453.71.523.874.905a.213.213 0 0 1-.043.176z"/><path fill="#E3E3E3" d="m165.183 135.939-.004-.275c.29-.068.385.183.502.344.836 1.142 1.596 2.337 2.418 3.489.091.13.159.27.084.433-.159.13-.228-.026-.322-.102-.965-1.246-1.792-2.588-2.678-3.889z"/><path fill="#AEAEAE" d="M123.152 130.395c.408-.619.01-1.196-.113-1.777-.192-.912-.25-1.852-.546-2.742.157-.106.204.036.274.123.266 1.28.534 2.561.795 3.841.069.338.131.688-.377.737-.063-.051-.074-.112-.033-.182z"/><path fill="#737373" d="m145.186 111.637-.015.158c-.228.112-.39-.026-.535-.16-.758-.693-1.665-1.1-2.631-1.406a9.495 9.495 0 0 1-1.299-.527c-.208-.104-.481-.162-.498-.475l.292-.022c.554.229 1.095.497 1.663.676a7.594 7.594 0 0 1 3.023 1.756z"/><path fill="#DBDBDB" d="M156.512 149.021c-.526 0-1.052.002-1.577 0-.14 0-.309-.021-.306-.184.005-.335.065-.672.249-.959.094-.146.243-.056.354.018.444.291.885.589 1.328.885l-.048.24z"/><path fill="#1A1A1A" d="M181.839 143.996c-1.136-.079-2.144.159-3.158-.275.746-.259 2.41-.138 3.158.275z"/><path fill="#121212" d="M187.181 144.894c1.161.286 2.221.33 3.25.809-.712.202-2.158-.156-3.25-.809z"/><path fill="#D5D5D5" d="M145.849 134.86c.74.898 2.546 1.063 3.554.323.158-.115.313-.236.471-.354-.009.525-.469.601-.805.766-1.251.612-2.887.211-3.625-.866.053-.064.112-.073.18-.024l.225.155z"/><path fill="#C4C4C4" d="m62.919 108.17-.171-.044c1.091-1.025 2.292-1.896 3.639-2.562a.219.219 0 0 1 .051.179c-.618.723-1.518 1.06-2.25 1.631-.389.305-.704.762-1.269.796z"/><path fill="#9E9E9E" d="m167.86 139.828.279.132c.165.02.264.131.357.251.111.172.24.33.39.471.223.221.43.455.66.663.007-.021.075.115.036-.019-.01-.038-.051-.067-.079-.101-.048-.086-.074-.168.009-.245a.26.26 0 0 1 .264.024l.374.701c.088.115.128.255.016.353-.154.131-.278-.025-.406-.098-.709-.643-1.459-1.249-1.9-2.132z"/><path fill="#444" d="M109.757 130.833a11.23 11.23 0 0 0-1.493 3.201c-.074.093-.037.238-.15.312-.063.016-.111-.005-.145-.063.403-1.296.807-2.591 1.753-3.625.082.044.094.103.035.175z"/><path fill="#2F2F2F" d="M161.573 144.773c.084.011.167.021.25.029.903.345 1.394 1.176 2.087 1.768.176.206.413.366.51.638a.164.164 0 0 1-.062.159c-1.006-.781-1.899-1.682-2.785-2.594z"/><path fill="#0C0C0C" d="M119.634 88.269c.703-.198 1.346-.053 1.95.319-.684.116-1.326-.042-1.95-.319z"/><path fill="#101010" d="m85.594 144.789-2.419.967c.57-.591 1.283-.863 2.012-1.106.116.102.311-.027.407.139z"/><path fill="#C6C6C6" d="m159.028 127.331-.18.015c-.436-.854-.87-1.708-1.307-2.562.051-.078.106-.083.17-.015.561.791.94 1.675 1.317 2.562z"/><path fill="#575757" d="m113.221 125.31.013.273c-.424.717-.844 1.435-1.276 2.147-.108.177-.157.426-.433.444.527-.979 1.031-1.97 1.696-2.864z"/><path fill="#606060" d="m123.475 107.758-.315-.032c.82-.297 1.552-.754 2.29-1.21.277-.171.592-.318.947-.256l-.418.25c-.704.164-1.17.756-1.823 1.011-.224.087-.453.159-.681.237z"/><path fill="#686868" d="m56.071 114.73-.167-.037c.851-.67 1.727-1.313 2.257-2.298a.174.174 0 0 1 .125.121c.027.2-.066.365-.157.531-.528.754-1.115 1.436-2.058 1.683z"/><path fill="#C5C5C5" d="M145.623 134.704c-.059.009-.12.016-.18.024a6.213 6.213 0 0 1-.931-2.286c.05-.004.099-.008.148-.01.308.763.556 1.551.963 2.272z"/><path fill="#C3C3C3" d="m157.265 146.009.003-.146c.082-.046.178-.063.255-.017.753.46 1.558.846 2.201 1.47a.215.215 0 0 1-.047.183 12.831 12.831 0 0 1-2.412-1.49z"/><path fill="#A7A7A7" d="M160.778 147.574c.256.065.395.284.563.455.125.128.415.248.254.464-.123.165-.378.051-.561-.033-.159-.073-.338-.131-.413-.316a.274.274 0 0 1 .132-.088c.041-.002.063-.006.064-.006.082.02.089.006.021-.041a.339.339 0 0 1-.152-.282.234.234 0 0 1 .092-.153z"/><path fill="#3A0904" d="M123.734 133.666c-.261.764-.051 1.549-.107 2.322-.031.42-.029.844-.042 1.267-.288-.608-.084-1.249-.131-1.874-.03-.396-.008-.795-.008-1.191.001-.228.003-.454.288-.524z"/><path fill="#373737" d="M120.987 122.116c.665.025 1.136.126 1.611.499-.602.062-1.082.016-1.611-.499z"/><path fill="#383838" d="M153.643 143.708c.325-.843.75-1.64 1.207-2.42a6.002 6.002 0 0 1-1.207 2.42z"/><path fill="#5A5A5A" d="M169.776 141.005a9.148 9.148 0 0 1-.235.003c-.307-.049-.393-.234-.319-.518-.103-.511-.628-.803-.687-1.335.537.534.925 1.168 1.241 1.85z"/><path fill="#C8C8C8" d="M123.152 130.395c.01.061.022.122.033.182-.498.293-1.043.472-1.582.669l-.325-.025c.566-.408 1.242-.568 1.874-.826z"/><path fill="#4B4B4B" d="M165.449 148.016c.093.088.172.198.279.262.15.09.347.181.484.027.123-.139-.114-.262-.104-.415.249.077.521.273.443.486-.106.294-.462.18-.711.129-.392-.079-.604-.435-.905-.654-.04-.027-.056-.059-.048-.093.008-.035.018-.054.029-.054a.32.32 0 0 1 .263-.031c.145.072.251.172.27.343z"/><path fill="#C5C5C5" d="M69.854 148.922c.068.014.135.025.203.04-.525.411-1.118.702-1.737.943a.19.19 0 0 1-.194.002c.365-.698.992-.937 1.728-.985z"/><path fill="#D0D0D0" d="m66.398 105.728-.012-.163 1.451-1.197.178.017c-.268.773-.832 1.191-1.617 1.343z"/><path fill="#ACACAC" d="M137.26 129.893c.052-.009.104-.015.157-.021.297.523.748.973.798 1.62-.041.074-.096.085-.164.035l-.791-1.634z"/><path fill="#515151" d="m122.767 125.998-.274-.123-.239-.027c-.415-.425-1.08-.118-1.503-.517.573-.002 1.124.146 1.677.261.205.042.367.153.339.406z"/><path fill="#2F2F2F" d="M158.518 140.849c-.22-.305-.401-.29-.58.048-.121.229-.174.5-.389.676-.059-.235.065-.423.161-.616.366-.743.529-.752 1.031-.052l-.223-.056z"/><path fill="#1B1B1B" d="M161.179 125.694c.066 0 .094-.009.105.001.263.23.521.465.501.856 0 .02-.137.066-.159.046-.26-.242-.424-.532-.447-.903z"/><path fill="#C7C7C7" d="M157.796 134.155c.01.11.019.222.027.332.004.332-.215.592-.286.899-.149.162-.044.528-.41.519.12-.622.412-1.18.669-1.75z"/><path fill="#BDBDBD" d="m68.107 149.861.213.044c-.41.325-.906.471-1.383.655l-.406-.003c.385-.55.955-.679 1.576-.696z"/><path fill="#595959" d="m138.051 131.526.164-.035.52 1.226.012.391c-.342-.479-.526-1.028-.696-1.582z"/><path fill="#606060" d="m109.757 130.833-.034-.175.943-1.187c.055-.047.107-.041.156.01-.291.502-.625.968-1.065 1.352z"/><path fill="#202020" d="M110.057 85.863c-.165-.023-.365.033-.397-.177-.033-.227.159-.232.313-.229.179.001.387.021.381.257-.006.185-.201.116-.297.149z"/><path fill="#272727" d="M85.594 144.789c-.148-.013-.312.025-.408-.14.339-.094.598-.45 1.069-.332-.166.302-.456.33-.661.472z"/><path fill="#AFAFAF" d="M155.394 139.957c-.005-.099-.011-.197-.015-.296.15-.325.187-.719.55-.916-.033.468-.283.842-.535 1.212z"/><path fill="#4F4F4F" d="M157.046 136.635c-.175.51-.351 1.021-.729 1.427-.075-.133-.086-.263.026-.383l-.001.002c.082-.272.224-.52.334-.779.098-.102.115-.261.24-.345.064-.009.106.019.13.078z"/><path fill="#4F4F4F" d="M157.127 135.905c.261-.075.179-.42.41-.519.005.482-.302.841-.491 1.248l-.078-.065c-.049-.13-.056-.257.037-.374l.122-.29z"/><path fill="#CCC" d="m160.774 148.099-.153.045c-.34-.177-.67-.371-.944-.645l.011-.164c.501.057.91.246 1.086.764z"/><path fill="#5B5B5B" d="M110.821 129.481c-.052-.004-.104-.008-.156-.01.266-.361.355-.857.813-1.074-.116.425-.371.764-.657 1.084z"/><path fill="#CCC" d="m160.778 147.574-.041.174c-.461-.188-.896-.408-1.059-.937a5.39 5.39 0 0 1 .176-.03c.359.205.662.476.924.793z"/><path fill="#5E5E5E" d="M169.76 141.961c.231.07.454.127.391-.255.222.184.294.416.278.729-.308-.106-.542-.213-.669-.474z"/><path fill="#3A0904" d="M123.988 139.314c.245.445.284.932.275 1.426-.218-.451-.266-.934-.275-1.426z"/><path fill="#595959" d="M171.368 148.674c.546-.024 1.092-.077 1.637.035-.55.139-1.097.193-1.637-.035z"/><path fill="#4D4D4D" d="M217.248 147.268c-.179-.122-.125-.259-.103-.379.02-.116.085-.211.225-.148.108.047.178.151.117.262-.057.103-.163.182-.239.265z"/><path fill="#686868" d="m58.878 111.495-.02.25-.002.093c-.158.254-.246.576-.611.629a2.82 2.82 0 0 0-.083-.071c.175-.35.338-.712.716-.901z"/><path fill="#3A0904" d="m124.396 141.975.272 1.176c-.516-.294-.22-.775-.272-1.176z"/><path fill="#444" d="m107.867 135.114-.249.289c-.027-.418.165-.768.351-1.12.024.021.049.04.074.06.102.294-.082.523-.176.774v-.003z"/><path fill="#C7C7C7" d="m156.343 137.679-.026.383c-.133.142-.097.423-.37.446.021-.33.129-.618.396-.829z"/><path fill="#3A0904" d="M124.268 140.758c.153.34.139.698.113 1.057-.248-.33-.108-.701-.113-1.057z"/><path fill="#383838" d="M152.457 146.27a.175.175 0 0 1 .1-.029c.044.356-.007.683-.29.939l.19-.91z"/><path fill="#2F2F2F" d="M164.944 147.699a6.584 6.584 0 0 1-.008.151c-.255-.086-.4-.304-.578-.484l.06-.068c.333-.072.487.091.526.401z"/><path fill="#3A0904" d="M123.593 137.401c.124.251.134.52.114.792-.232-.235-.118-.522-.114-.792z"/><path fill="#BBB" d="m157.712 124.77-.17.015c-.095-.177-.189-.353-.285-.529l.168-.014a.891.891 0 0 1 .287.528z"/><path fill="#383838" d="M152.672 145.837c.047-.242.088-.486.288-.661.038.278-.02.516-.288.661z"/><path fill="#2F2F2F" d="M161.028 144.388c.275 0 .422.178.547.389-.279.008-.425-.173-.547-.389z"/><path fill="#383838" d="M152.958 145.177c-.003-.262.104-.479.28-.666.034.274-.032.509-.28.666zM153.353 144.232c.055-.198.103-.4.29-.524.022.241-.006.453-.29.524z"/><path fill="#2F2F2F" d="m157.55 141.569.11.537c-.363-.112-.347-.301-.11-.537z"/><path fill="#C8C8C8" d="M120.363 134.587c.265.519.095 1.074.119 1.611.03.637-.003 1.275-.009 1.913-.257-1.168-.054-2.349-.11-3.524z"/><path fill="#BEBEBE" d="m107.867 135.117.176-.774.221-.309c-.007.406-.095.783-.397 1.083z"/><path fill="#C7C7C7" d="M156.748 136.903c-.089.283-.173.568-.406.777-.044-.392.194-.673.38-.976.069.059.077.125.026.199z"/><path fill="#C7C7C7" d="M156.748 136.903c-.009-.066-.019-.132-.026-.198.05-.194.094-.392.283-.51l-.037.374-.22.334zM110.325 144.495c-.283-.009-.584.115-.839-.107.284.007.577-.062.839.107zM114.217 144.496l-.872.002a.893.893 0 0 1 .872-.002z"/><path fill="#492A25" d="M71.507 125.585c.426.176.856.344 1.278.53.825.366 1.086.875.942 1.806a.375.375 0 0 1-.307-.058c-1.088-.754-1.546-.699-2.462.288-.044.048-.093.092-.141.137-.398-.191-.923-.094-1.214-.531.782.139 1.381-.235 1.995-.65.554-.375 1.145-.162 1.769.16-.19-.633-.646-.796-1.086-1.006-.311-.147-.781-.152-.774-.676z"/><path fill="#FEFEFE" d="M68.107 149.861c-.525.233-1.051.466-1.576.696-.358.136-.716.27-1.074.403a15.175 15.175 0 0 1-3.088 0c-1.468-.176-2.942-.212-4.42-.215-1.035-.002-2.065.088-3.099.083h.001c-.479-.195-.998.042-1.479-.132-.788-.369-1.655-.336-2.477-.373-2.026-.093-4.062-.173-6.058-.473-3.171-.475-6.358-.359-9.534-.553-2.906-.178-5.819-.356-8.721-.634-.332-.031-.65-.175-.992-.124-.461.021-.868-.188-1.287-.325a82.99 82.99 0 0 0-5.125-1.514c-1.418-.361-2.752-1.039-4.16-1.455-.97-.287-1.767-.708-2.286-1.589-.252-.918-.205-.844.612-1.361 1.021-.646 2.092-.769 3.255-.742 2.12.048 4.242-.012 6.362.03 1.552.031 2.756-.59 3.726-1.752a15.11 15.11 0 0 0 2.392-2.317c.467-.557 1.085-.923 1.783-1.128 1.464-.431 2.669-1.302 3.848-2.222 1.731-1.039 3.119-2.442 4.286-4.074 1.348-1.887 2.634-3.823 4.332-5.432.053-.041.116-.072.158-.122 2.002-2.409 4.707-3.848 7.375-5.334.79-.441 1.441-1.043 2.099-1.647 1.031-.948 2.072-1.885 3.11-2.826.772-.462 1.467-1.011 1.973-1.771.311-.379.549-.806.817-1.215h-.002c.979-.853 1.966-1.694 2.931-2.562.377-.338.84-.58 1.13-1.014a34.872 34.872 0 0 1 3.479-2.442c.625-.345 1.194-.755 1.617-1.344 1.385-1.69 2.519-3.569 3.93-5.243 1.236-1.468 2.76-2.592 4.297-3.702.56-.404 1.152-.762 1.638-1.264 1.211-1.25.815-2.807-.856-3.318a4.395 4.395 0 0 0-1.254-.185c-1.965-.016-3.934.061-5.895-.132-.199-.018-.4-.035-.594-.081-.233-.057-.549-.081-.567-.379-.018-.299.176-.558.453-.694a3.12 3.12 0 0 1 1.293-.306c3.063-.1 6.115.088 9.162.385 1.089.106 2.189-.083 3.277.136.333.066.654.147.953.302 2.468 1.265 5.076 1.331 7.701.752 1.238-.273 2.536-.249 3.723-.76.287-.123.602-.185.877-.326 1.421-.725 2.922-1.081 4.519-1.035.219.006.451.048.649-.1 1.779-.25 3.568-.179 5.354-.141.668.015 1.335.093 2.004.132.535.031.708.292.8.837.609 3.578.53 7.205.838 10.802.415 4.827.845 9.652.743 14.504-.039 1.831-.143 3.659-.222 5.487-.018.405-.013.821.128 1.192.189.497.047.82-.389 1.038-1.248.619-2.021 1.729-2.875 2.756-1.164 1.397-2.449 2.647-4.009 3.618-1.288.801-2.515 1.702-3.768 2.559-2.922 1.646-5.762 3.409-8.19 5.756-2.24 1.815-4.511 3.606-7.089 4.914-1.851.938-3.732 1.814-5.51 2.892-1.481.429-2.857 1.129-4.284 1.698-.387.153-.512.175-.569-.316a14.962 14.962 0 0 1-.105-1.731c-.002-4.848-.004-9.695-.001-14.543 0-.848-.141-1.684-.16-2.532-.017-.764-.574-1.228-1.28-1.474-.487-.171-.959-.364-1.346-.719-.309-.051-.347-.324-.427-.545-.193-.525-.262-1.084-.395-1.626-.119-.483.105-.83.583-.866 1.238-.091 2.488-.292 3.629.501a5.876 5.876 0 0 0 2.134.941c.912.192 1.693-.273 1.938-1.181a3.655 3.655 0 0 0-.053-2.113c-.354-1.092-1.546-1.654-2.591-1.185-.738.332-1.494.193-2.245.245-1.02.033-2.042-.073-3.057.066a1.894 1.894 0 0 1-.449.059c-.385.025-.777-.053-1.157.072-.387.11-.76.296-1.18.262-.607.185-.668.725-.795 1.222a1.319 1.319 0 0 0-.004.833c.273 1.521.743 2.991 1.195 4.467.135.438.234.881.532 1.264.186.237.387.505.647.554 1.092.203.978 1.057.981 1.793.02 4.563-.003 9.126.021 13.688.008 1.449.102 2.896.189 4.344.016.251-.045.365-.241.478-.269.152-.587.231-.792.488-.612.26-1.203.558-1.747.94z"/><path fill="#FE4826" d="M138.056 148.194c-.568.114-1.096.432-1.705.357-1.192.164-2.003-.323-2.297-1.457-.144-.554-.485-.874-.954-1.105a5.994 5.994 0 0 1-1.464-1.015c-.453-.426-1.069-.503-1.657-.584-.349-.049-.703-.061-1.048-.137-1.108-.317-2.392-.097-3.287-1.07-.053-.079.112-.218-.069-.265-.371-.368-.341-.896-.535-1.335-.162-1.395-.33-2.787-.307-4.195.006-.32-.121-.608-.195-.912-.288-1.188.292-2.263 1.498-2.275 1.919-.017 3.81-.438 5.73-.309.639.277 1.357.222 2.005.482.864.347 1.113.672 1.038 1.616-.043.534.389.644.668.899.55.635.661 1.452.881 2.214.527 1.821.805 3.703 1.214 5.553.071.326.104.669.263.965.411.769.521 1.554.198 2.378.013.065.021.13.023.195z"/><path fill="#FDFCFC" d="M124.543 140.896c-.137-.764-.26-1.528-.477-2.279-.428-1.485-.189-3.016-.194-4.524-.003-.573.699-.581 1.099-.666.915-.195 1.798-.52 2.706-.69 1.143-.215 2.296-.147 3.441-.639.845-.362 1.934-.146 2.913-.21.506-.033.767.206.965.645 1.117 2.47 1.895 5.041 2.407 7.703.265 1.377.672 2.728.682 4.145.144.255-.035.556.116.809-.015.592.281 1.12.347 1.705.039.354.009.647-.1.96-.155.142-.244.043-.322-.091a.435.435 0 0 1 .02-.299c.082-.36.155-.721-.083-1.055-.588-1.313-.778-2.726-1.037-4.119-.03-.243-.011-.497-.176-.707-.209-1.459-.649-2.859-1.101-4.256a1.19 1.19 0 0 0-.316-.507c-.326-.306-.461-.688-.496-1.133-.073-.973-.5-1.342-1.465-1.474-.968-.132-1.932-.468-2.908-.285-1.481.276-2.971.202-4.457.278a1.78 1.78 0 0 0-1.439.866 1.083 1.083 0 0 0-.165 1.031c-.006.428.282.785.281 1.211.024.434-.045.872.05 1.303.033.215-.004.438.071.648.044.392-.025.789.049 1.18.039.132.033.274.081.405.042.23-.011.472.063.701.014.065.03.132.049.197.057.272.182.526.194.813.015.313-.099.444-.416.361-.419-.386-.201-.906-.288-1.362-.118-.207.015-.454-.094-.665z"/><path fill="#FDD4CB" d="M124.926 142.925c.281-.039.365-.178.278-.458-.075-.248-.101-.512-.149-.77.048-.073.1-.076.157-.008.183.392.289.806.363 1.229-.215.09-.43.198-.649.007z"/><path fill="#EBD8D4" d="M138.201 147.741c.055.097.142.126.247.113l.034.17c-.142.058-.284.113-.427.17l-.005-.065c-.076-.178-.144-.353.151-.388zM138.201 145.188c-.217-.243-.1-.535-.116-.809.189.249.098.538.116.809z"/><path fill="#FDD4CB" d="M124.543 140.896c.173.201.094.439.096.666-.167-.203-.099-.438-.096-.666z"/><path d="M71.507 125.585c.212.399.634.449.997.589.62.24 1.057.615 1.101 1.318-.227.135-.31-.061-.431-.128-.857-.478-1.498-.377-2.169.385-.228.26-.477.288-.778.207-.21-.058-.382-.24-.624-.199-.372-.216-.531-.579-.677-.958-.544-1.415-.842-2.904-1.28-4.353-.269-.888-.238-1.768.501-2.478.406-.416.972-.494 1.479-.525 1.063-.063 2.123-.242 3.194-.163.844.063 1.689-.098 2.534-.001.231.027.434-.064.639-.159 1.36-.623 2.598-.022 2.944 1.443a3.991 3.991 0 0 1-.012 1.857c-.222.925-1.048 1.426-1.991 1.229-.843-.176-1.593-.573-2.305-1.038-.542-.355-1.125-.548-1.767-.507-.622.04-1.245.036-1.865.106-.332.039-.509.189-.406.528.261.866.317 1.793.758 2.605l.158.242z"/><path fill="#BABABA" d="M71.351 125.346c-.644-.858-.583-1.942-.925-2.899-.093-.26.186-.318.389-.331 1.506-.089 3.032-.372 4.372.692.451.359 1.02.557 1.586.697 1.156.288 2.017-.32 2.108-1.496.044-.578.07-1.163-.122-1.728-.398-1.174-1.627-1.669-2.689-1.074-.2.112-.387.195-.625.19-1.786-.036-3.569 0-5.352.142-.673.056-1.328.145-1.945.43l-.025-.176c.308-.281.726-.255 1.087-.388.395-.154.824.054 1.217-.12l.392-.02c.836-.113 1.678-.016 2.515-.051.24-.011.487.056.719-.059.811-.052 1.598-.017 2.407-.356 1.118-.471 2.414.561 2.654 1.938.02.108.024.221.03.332.12 2.502-1.19 3.362-3.447 2.262-.22-.107-.469-.184-.651-.338-1.102-.932-2.409-.772-3.697-.727-.531.019-.776.223-.575.803.238.688.251 1.442.622 2.093-.017.061-.031.123-.045.184z"/><path fill="#D9D9D9" d="M67.322 121.848c-.171-.279-.181-.557.004-.833l-.004.833z"/><path fill="#FDFDFD" d="M171.083 148.422c-1.925-1.138-3.392-2.77-4.814-4.448-.315-.692-.925-1.133-1.458-1.622-1.381-1.265-2.796-2.494-4.285-3.632-.98-.748-.98-.745-.504-1.87.173-.41.358-.819.489-1.245.168-.545.358-.504.671-.105.94 1.19 1.918 2.36 2.694 3.661 1.749 2.933 4.078 5.267 6.934 7.122.859.559 1.623 1.287 2.361 2.172-.781.128-1.435.05-2.088-.033z"/><path fill="#FEFEFE" d="M140.208 109.227c.44.349.962.561 1.485.705 1.305.363 2.442 1.009 3.478 1.863.842.845 1.606 1.765 2.617 2.577-2.216.173-2.563.873-1.51 2.74.22.388.393.802.488 1.241.102.467.291.896.603 1.254.577.662.772 1.501 1.093 2.281.143.348.005.446-.337.395-.483-.076-.969-.135-1.452-.2-.389-.096-.781-.28-1.166-.266-.647.024-.876-.288-1.041-.849-1.141-3.887-3.147-7.278-5.881-10.26-.937-1.02-1.81-2.097-2.676-3.224 1.313.899 2.832 1.251 4.299 1.743z"/><path fill="#FDFDFD" d="M125.409 146.143c2.028-.172 3.812.657 5.587 1.493.599.282.586.41.029.773-.333.215-.58.51-.685.876-.148.521-.496.73-.986.722a8.243 8.243 0 0 0-2.182.231c-.295.075-.466-.105-.66-.236-1.359-.923-2.333-2.255-3.541-3.339-.079-.071-.179-.154-.127-.281.053-.13.186-.108.291-.107.757.007 1.494-.27 2.274-.132z"/><path fill="#FEFEFE" d="M119.025 151.776c-1.485.288-2.986-.184-4.449.023-2.191.311-4.429.196-6.59.748-.44.074-.742-.115-1.046-.434-.827-.868-1.759-1.645-2.53-2.558-1.001-1.185-.94-1.247.51-1.703 1.253-.394 2.54-.415 3.834-.396.467.009.935.009 1.403.011 2.877-.002 5.754.004 8.632-.021.466-.005.79.127 1.11.461.896.933 1.83 1.828 2.74 2.746.115.116.319.231.211.44-.083.161-.277.108-.426.123-.552.057-1.105.104-1.659.153-.211.136-.472-.023-.683.116-.351.098-.704.195-1.057.291z"/><path fill="#CECECE" d="M120.083 151.487c.201-.196.447-.129.683-.116-.208.156-.449.117-.683.116z"/><path fill="#D1D1D1" d="M54.85 150.829c2.386-.238 4.771-.158 7.157 0 .136.008.27.011.362.132-1.979-.109-3.959-.12-5.941-.114-.525.002-1.055.217-1.578-.018zM62.369 150.961h3.088c-1.029.254-2.059.205-3.088 0z"/><path fill="#D1D1D1" d="M53.373 150.697c.494.032 1.004-.127 1.479.132-.498.003-1.001.078-1.479-.132z"/><path fill="#F2F2F2" d="M125.672 124.052c.309-.045.448.15.532.385.402 1.109.708 2.238.729 3.431.005.331.086.658.12.989.013.127.026.29-.149.32-.183.033-.2-.12-.228-.252l-1.004-4.873z"/><path fill="#E04B2F" d="M128.93 144.254c.812-.138 1.577.135 2.351.292.172.034.327.215.464.353.407.409.903.679 1.389.978.373.228.813.389.952.928.321 1.235.961 1.698 2.266 1.748-1.38.348-2.076-.189-2.386-1.2-.107-.35-.043-.836-.553-.972-1.044-.481-1.756-1.506-2.932-1.779-.517-.122-1.071-.067-1.551-.348z"/><path fill="#F8F8F8" d="M165.449 148.016c-.095-.083-.188-.165-.283-.246-.395-.422-.894-.717-1.317-1.106l-2.025-1.86c-.234-.495-.729-.702-1.138-.993-.836-.596-1.702-1.148-2.554-1.722-.185-.124-.433-.255-.293-.52.136-.258.088-.732.607-.635 1.684 1.425 3.444 2.765 4.99 4.345.865.886 1.658 1.84 2.552 2.84a85.277 85.277 0 0 0-.539-.103z"/><path fill="#FAFAFA" d="m169.222 140.49.319.518c.022.059.048.116.069.175.112.163.093.259-.129.251a2.264 2.264 0 0 1-.67-.67c-.128-.189-.25-.382-.437-.521l-.235-.282c-.081-.438-.422-.72-.665-1.05-.784-1.069-1.386-2.269-2.296-3.246-.669-.862-1.339-1.722-2.006-2.585-.273-.355-.542-.711-1.01-.835-.246-.066-.4-.194-.258-.486.17-.348.329-.139.517-.018.787.51 1.585 1.002 2.368 1.516.318.209.586.481.799.802 1.266 1.757 1.746 3.925 2.995 5.688.189.264.299.606.639.743z"/><path fill="#EDEDED" d="m159.679 146.812 1.059.937c.056.07.115.136.166.207.057.076.248.059.166.213-.012.022-.192-.044-.295-.068-.28-.372-.738-.491-1.087-.765l-2.42-1.472c-.292-.198-.584-.396-.877-.592-.196-.132-.27-.314-.133-.51.146-.206.325-.064.465.029.989.669 1.97 1.347 2.956 2.021z"/><path fill="#FCFCFC" d="M155.873 148.683c-.325-.042-.701.333-.96-.087-.07-.113.02-.311.125-.35.393-.147.545.273.835.437z"/><path fill="#E3E3E3" d="M169.481 141.434c.1-.055.131-.146.129-.251.186.117.255.29.262.558-.203-.036-.305-.162-.391-.307zM168.375 140.242c.265.074.42.239.437.521a1.012 1.012 0 0 1-.437-.521z"/><path fill="#B8B8B8" d="M163.849 146.663c.527.265 1.012.58 1.317 1.106l-.222-.07c-.176-.134-.352-.267-.526-.401-.151-.245-.475-.336-.569-.635z"/><path fill="#E0E0E0" d="M58.86 111.745c-.151.487-.404.903-.816 1.215l.2-.494c.243-.208.318-.56.616-.721z"/><path fill="#D3D3D3" d="M84.789 98.068c1.42.645 1.681 2.115 1.573 3.313-.084.933-1.065 1.538-1.98 1.274-1.972-.566-2.517-1.655-1.976-3.46.169-.562.663-.989 1.302-1.129.361-.092.72-.096 1.081.002z"/><path fill="#656565" d="M47.064 139.276c-1.161.269-2.013-.21-2.393-1.344-.434-1.295-.026-2.5.991-2.931 1.01-.427 2.094-.009 2.642 1.022a.175.175 0 0 1-.011.188c-.352.013-.463-.31-.667-.494-.619-.559-1.242-.674-1.892-.324-.634.344-.976 1.07-.851 1.813.211 1.252.584 1.611 1.854 1.786a.72.72 0 0 1 .313.106c.036.036.049.075.042.114-.008.044-.017.064-.028.064z"/><path fill="#8A8A8A" d="m48.257 136.217.047-.192c.671 1.315.076 2.876-1.24 3.252l-.002-.139c-.022-.13.056-.208.149-.268.848-.533 1.102-1.323.99-2.274-.015-.131-.035-.264.056-.379z"/><path fill="#D9D9D9" d="M74.051 119.156c-1.071.244-2.156.056-3.234.109 1.07-.26 2.156-.065 3.234-.109zM70.425 119.285c-.388.224-.81.091-1.217.12.387-.232.811-.089 1.217-.12z"/><path fill="#E6E6E6" d="m84.789 98.068-1.081-.002c.361-.198.721-.2 1.081.002z"/><path fill="#FACCC0" d="M138.201 147.741c-.148.092-.112.254-.15.388-.447.091-.318-.145-.197-.358.262-.459.294-.939.085-1.413-.7-1.589-.821-3.315-1.208-4.979-.346-1.489-.617-3.004-1.332-4.382-.445-.394-.725-.805-.644-1.482.066-.547-.368-.898-.913-1.075-.635-.208-1.313-.186-1.943-.4-.825-.039-1.646-.032-2.458.145-.968.212-1.952.121-2.929.139-1.487.027-2.157.913-1.728 2.321.121.397.086.793.117 1.19.099 1.286.207 2.57.311 3.856l-.157.008a.851.851 0 0 1-.006-.124c-.144-.208.031-.474-.125-.681l-.012-.389c-.156-.396.049-.827-.122-1.222-.005-.218-.01-.437-.017-.654-.151-.444.055-.919-.121-1.359-.074-.404-.333-.766-.275-1.199-.172-.35.041-.647.132-.96.307-.732.987-1.057 1.649-1.025 1.902.092 3.764-.332 5.654-.315.757.007 1.467.289 2.227.333.615.035 1.079.794 1.08 1.508 0 .402.126.715.368 1.036.577.767.683 1.728.963 2.611.239.754.366 1.542.543 2.315.17.196-.021.466.136.665.234 1.42.418 2.854 1.08 4.164.107.358.093.716.011 1.076-.005.086-.013.175-.019.262z"/><path fill="#F3634B" d="M131.899 134.038c.716-.002 1.41.171 2.103.311.478.097.813.507.813.955 0 .658.225 1.186.584 1.692-.501-.259-.937-.492-.725-1.24.155-.553-.254-.954-.771-1.151-.431-.165-.871-.301-1.349-.303-.227 0-.48-.068-.655-.264z"/><path fill="#FDD4CB" d="M124.654 137.269c.259.433.083.905.121 1.359-.238-.436-.082-.907-.121-1.359zM124.791 139.282c.251.386.083.813.122 1.222-.234-.389-.084-.814-.122-1.222zM124.511 135.109l-.132.96c-.249-.36-.111-.668.132-.96z"/><path fill="#EBD8D4" d="M138.222 147.478a382.08 382.08 0 0 0-.011-1.076c.213.356.195.715.011 1.076z"/><path fill="#FDE3DA" d="M137.131 142.237c-.206-.189-.1-.442-.136-.665.237.182.11.44.136.665z"/><path fill="#FDD4CB" d="M124.925 140.893c.214.195.103.451.125.681-.199-.199-.108-.45-.125-.681z"/><path fill="#010101" d="M86.143 100.896c.015.903-.547 1.545-1.38 1.573-1.119.039-2.29-1.079-2.292-2.19-.002-1.115.754-2.012 1.718-2.039 1.144-.031 1.927 1.033 1.954 2.656zM48.257 136.217c.344 1.42-.028 2.328-1.195 2.921-1.508.06-2.203-.531-2.36-2.005-.092-.854.316-1.626 1.024-1.941.769-.341 1.594-.14 2.176.541.13.151.238.322.355.484z"/></g></g></switch></svg>